<svg width="87" height="80" viewBox="0 0 87 80" fill="none" xmlns="http://www.w3.org/2000/svg">
<path d="M76.8862 52.9666C74.5801 57.9815 70.9731 62.4006 66.3806 65.8376C61.788 69.2745 56.3498 71.6247 50.5413 72.6825C44.7329 73.7404 38.731 73.4737 33.0605 71.9059C27.39 70.3381 22.2235 67.5168 18.0127 63.6887C13.8019 59.8607 10.6749 55.1424 8.9053 49.9464C7.13565 44.7504 6.77716 39.2349 7.86116 33.882C8.94517 28.5292 11.4387 23.502 15.1237 19.24C18.8087 14.978 23.5729 11.611 29 9.43323" stroke="#004995" stroke-width="2" stroke-linecap="round" stroke-linejoin="round"/>
<path d="M79.75 40C79.75 35.6226 78.8124 31.288 76.9906 27.2438C75.1689 23.1997 72.4987 19.525 69.1326 16.4297C65.7665 13.3344 61.7703 10.8791 57.3723 9.20397C52.9742 7.52882 48.2604 6.66663 43.5 6.66663V40H79.75Z" stroke="#004995" stroke-width="2" stroke-linecap="round" stroke-linejoin="round"/>
</svg>
