<svg width="317" height="332" viewBox="0 0 317 332" fill="none" xmlns="http://www.w3.org/2000/svg">
<rect x="0.813477" y="0.890961" width="315.323" height="54.2324" rx="20" fill="#DBF1FE" fill-opacity="0.65"/>
<path d="M75.814 28.322C75.814 26.826 76.1587 25.484 76.848 24.296C77.552 23.108 78.498 22.184 79.686 21.524C80.8887 20.8493 82.2013 20.512 83.624 20.512C85.252 20.512 86.6967 20.9153 87.958 21.722C89.234 22.514 90.158 23.6433 90.73 25.11H87.716C87.32 24.3033 86.77 23.702 86.066 23.306C85.362 22.91 84.548 22.712 83.624 22.712C82.612 22.712 81.71 22.9393 80.918 23.394C80.126 23.8487 79.5027 24.5013 79.048 25.352C78.608 26.2027 78.388 27.1927 78.388 28.322C78.388 29.4513 78.608 30.4413 79.048 31.292C79.5027 32.1427 80.126 32.8027 80.918 33.272C81.71 33.7267 82.612 33.954 83.624 33.954C84.548 33.954 85.362 33.756 86.066 33.36C86.77 32.964 87.32 32.3627 87.716 31.556H90.73C90.158 33.0227 89.234 34.152 87.958 34.944C86.6967 35.736 85.252 36.132 83.624 36.132C82.1867 36.132 80.874 35.802 79.686 35.142C78.498 34.4673 77.552 33.536 76.848 32.348C76.1587 31.16 75.814 29.818 75.814 28.322ZM99.3636 36.198C98.2196 36.198 97.1856 35.9413 96.2616 35.428C95.3376 34.9 94.6116 34.1667 94.0836 33.228C93.5556 32.2747 93.2916 31.1747 93.2916 29.928C93.2916 28.696 93.563 27.6033 94.1056 26.65C94.6483 25.6967 95.389 24.9633 96.3276 24.45C97.2663 23.9367 98.315 23.68 99.4736 23.68C100.632 23.68 101.681 23.9367 102.62 24.45C103.558 24.9633 104.299 25.6967 104.842 26.65C105.384 27.6033 105.656 28.696 105.656 29.928C105.656 31.16 105.377 32.2527 104.82 33.206C104.262 34.1593 103.5 34.9 102.532 35.428C101.578 35.9413 100.522 36.198 99.3636 36.198ZM99.3636 34.02C100.009 34.02 100.61 33.866 101.168 33.558C101.74 33.25 102.202 32.788 102.554 32.172C102.906 31.556 103.082 30.808 103.082 29.928C103.082 29.048 102.913 28.3073 102.576 27.706C102.238 27.09 101.791 26.628 101.234 26.32C100.676 26.012 100.075 25.858 99.4296 25.858C98.7843 25.858 98.183 26.012 97.6256 26.32C97.083 26.628 96.6503 27.09 96.3276 27.706C96.005 28.3073 95.8436 29.048 95.8436 29.928C95.8436 31.2333 96.1736 32.2453 96.8336 32.964C97.5083 33.668 98.3516 34.02 99.3636 34.02ZM114.691 23.68C115.644 23.68 116.495 23.878 117.243 24.274C118.006 24.67 118.6 25.2567 119.025 26.034C119.45 26.8113 119.663 27.75 119.663 28.85V36H117.177V29.224C117.177 28.1387 116.906 27.31 116.363 26.738C115.82 26.1513 115.08 25.858 114.141 25.858C113.202 25.858 112.454 26.1513 111.897 26.738C111.354 27.31 111.083 28.1387 111.083 29.224V36H108.575V23.878H111.083V25.264C111.494 24.7653 112.014 24.3767 112.645 24.098C113.29 23.8193 113.972 23.68 114.691 23.68ZM122.466 29.928C122.466 28.6813 122.715 27.5887 123.214 26.65C123.727 25.6967 124.431 24.9633 125.326 24.45C126.221 23.9367 127.247 23.68 128.406 23.68C129.873 23.68 131.083 24.032 132.036 24.736C133.004 25.4253 133.657 26.4153 133.994 27.706H131.288C131.068 27.1047 130.716 26.6353 130.232 26.298C129.748 25.9607 129.139 25.792 128.406 25.792C127.379 25.792 126.558 26.1587 125.942 26.892C125.341 27.6107 125.04 28.6227 125.04 29.928C125.04 31.2333 125.341 32.2527 125.942 32.986C126.558 33.7193 127.379 34.086 128.406 34.086C129.858 34.086 130.819 33.448 131.288 32.172H133.994C133.642 33.404 132.982 34.3867 132.014 35.12C131.046 35.8387 129.843 36.198 128.406 36.198C127.247 36.198 126.221 35.9413 125.326 35.428C124.431 34.9 123.727 34.1667 123.214 33.228C122.715 32.2747 122.466 31.1747 122.466 29.928ZM148.043 29.642C148.043 30.0967 148.014 30.5073 147.955 30.874H138.693C138.767 31.842 139.126 32.6193 139.771 33.206C140.417 33.7927 141.209 34.086 142.147 34.086C143.497 34.086 144.45 33.5213 145.007 32.392H147.713C147.347 33.5067 146.679 34.4233 145.711 35.142C144.758 35.846 143.57 36.198 142.147 36.198C140.989 36.198 139.947 35.9413 139.023 35.428C138.114 34.9 137.395 34.1667 136.867 33.228C136.354 32.2747 136.097 31.1747 136.097 29.928C136.097 28.6813 136.347 27.5887 136.845 26.65C137.359 25.6967 138.07 24.9633 138.979 24.45C139.903 23.9367 140.959 23.68 142.147 23.68C143.291 23.68 144.311 23.9293 145.205 24.428C146.1 24.9267 146.797 25.6307 147.295 26.54C147.794 27.4347 148.043 28.4687 148.043 29.642ZM145.425 28.85C145.411 27.926 145.081 27.1853 144.435 26.628C143.79 26.0707 142.991 25.792 142.037 25.792C141.172 25.792 140.431 26.0707 139.815 26.628C139.199 27.1707 138.833 27.9113 138.715 28.85H145.425ZM153.46 25.66C153.885 25.1027 154.464 24.6333 155.198 24.252C155.931 23.8707 156.76 23.68 157.684 23.68C158.74 23.68 159.7 23.944 160.566 24.472C161.446 24.9853 162.135 25.7113 162.634 26.65C163.132 27.5887 163.382 28.6667 163.382 29.884C163.382 31.1013 163.132 32.194 162.634 33.162C162.135 34.1153 161.446 34.8633 160.566 35.406C159.7 35.934 158.74 36.198 157.684 36.198C156.76 36.198 155.938 36.0147 155.22 35.648C154.501 35.2667 153.914 34.7973 153.46 34.24V41.764H150.952V23.878H153.46V25.66ZM160.83 29.884C160.83 29.048 160.654 28.3293 160.302 27.728C159.964 27.112 159.51 26.65 158.938 26.342C158.38 26.0193 157.779 25.858 157.134 25.858C156.503 25.858 155.902 26.0193 155.33 26.342C154.772 26.6647 154.318 27.134 153.966 27.75C153.628 28.366 153.46 29.092 153.46 29.928C153.46 30.764 153.628 31.4973 153.966 32.128C154.318 32.744 154.772 33.2133 155.33 33.536C155.902 33.8587 156.503 34.02 157.134 34.02C157.779 34.02 158.38 33.8587 158.938 33.536C159.51 33.1987 159.964 32.7147 160.302 32.084C160.654 31.4533 160.83 30.72 160.83 29.884ZM169.228 25.924V32.634C169.228 33.0887 169.33 33.4187 169.536 33.624C169.756 33.8147 170.122 33.91 170.636 33.91H172.176V36H170.196C169.066 36 168.201 35.736 167.6 35.208C166.998 34.68 166.698 33.822 166.698 32.634V25.924H165.268V23.878H166.698V20.864H169.228V23.878H172.176V25.924H169.228ZM185.905 23.878V36H183.397V34.57C183.001 35.0687 182.481 35.4647 181.835 35.758C181.205 36.0367 180.53 36.176 179.811 36.176C178.858 36.176 178 35.978 177.237 35.582C176.489 35.186 175.895 34.5993 175.455 33.822C175.03 33.0447 174.817 32.106 174.817 31.006V23.878H177.303V30.632C177.303 31.7173 177.575 32.5533 178.117 33.14C178.66 33.712 179.401 33.998 180.339 33.998C181.278 33.998 182.019 33.712 182.561 33.14C183.119 32.5533 183.397 31.7173 183.397 30.632V23.878H185.905ZM188.818 29.884C188.818 28.6667 189.068 27.5887 189.566 26.65C190.08 25.7113 190.769 24.9853 191.634 24.472C192.514 23.944 193.482 23.68 194.538 23.68C195.492 23.68 196.32 23.8707 197.024 24.252C197.743 24.6187 198.315 25.0807 198.74 25.638V23.878H201.27V36H198.74V34.196C198.315 34.768 197.736 35.2447 197.002 35.626C196.269 36.0073 195.433 36.198 194.494 36.198C193.453 36.198 192.5 35.934 191.634 35.406C190.769 34.8633 190.08 34.1153 189.566 33.162C189.068 32.194 188.818 31.1013 188.818 29.884ZM198.74 29.928C198.74 29.092 198.564 28.366 198.212 27.75C197.875 27.134 197.428 26.6647 196.87 26.342C196.313 26.0193 195.712 25.858 195.066 25.858C194.421 25.858 193.82 26.0193 193.262 26.342C192.705 26.65 192.25 27.112 191.898 27.728C191.561 28.3293 191.392 29.048 191.392 29.884C191.392 30.72 191.561 31.4533 191.898 32.084C192.25 32.7147 192.705 33.1987 193.262 33.536C193.834 33.8587 194.436 34.02 195.066 34.02C195.712 34.02 196.313 33.8587 196.87 33.536C197.428 33.2133 197.875 32.744 198.212 32.128C198.564 31.4973 198.74 30.764 198.74 29.928ZM207.513 19.72V36H205.005V19.72H207.513ZM212.521 22.272C212.067 22.272 211.685 22.118 211.377 21.81C211.069 21.502 210.915 21.1207 210.915 20.666C210.915 20.2113 211.069 19.83 211.377 19.522C211.685 19.214 212.067 19.06 212.521 19.06C212.961 19.06 213.335 19.214 213.643 19.522C213.951 19.83 214.105 20.2113 214.105 20.666C214.105 21.1207 213.951 21.502 213.643 21.81C213.335 22.118 212.961 22.272 212.521 22.272ZM213.753 23.878V36H211.245V23.878H213.753ZM219.708 33.954H225.208V36H216.804V33.954L222.326 25.924H216.804V23.878H225.208V25.924L219.708 33.954ZM239.392 29.642C239.392 30.0967 239.362 30.5073 239.304 30.874H230.042C230.115 31.842 230.474 32.6193 231.12 33.206C231.765 33.7927 232.557 34.086 233.496 34.086C234.845 34.086 235.798 33.5213 236.356 32.392H239.062C238.695 33.5067 238.028 34.4233 237.06 35.142C236.106 35.846 234.918 36.198 233.496 36.198C232.337 36.198 231.296 35.9413 230.372 35.428C229.462 34.9 228.744 34.1667 228.216 33.228C227.702 32.2747 227.446 31.1747 227.446 29.928C227.446 28.6813 227.695 27.5887 228.194 26.65C228.707 25.6967 229.418 24.9633 230.328 24.45C231.252 23.9367 232.308 23.68 233.496 23.68C234.64 23.68 235.659 23.9293 236.554 24.428C237.448 24.9267 238.145 25.6307 238.644 26.54C239.142 27.4347 239.392 28.4687 239.392 29.642ZM236.774 28.85C236.759 27.926 236.429 27.1853 235.784 26.628C235.138 26.0707 234.339 25.792 233.386 25.792C232.52 25.792 231.78 26.0707 231.164 26.628C230.548 27.1707 230.181 27.9113 230.064 28.85H236.774Z" fill="black"/>
<circle cx="36.2539" cy="101.864" r="6" fill="#00B2EB"/>
<path d="M68.7443 98.838L65.5123 109.99H63.8803L61.2883 101.014L58.6003 109.99L56.9843 110.006L53.8643 98.838H55.4163L57.8483 108.294L60.5363 98.838H62.1683L64.7283 108.262L67.1763 98.838H68.7443ZM71.0897 99.798C70.8124 99.798 70.5777 99.702 70.3857 99.51C70.1937 99.318 70.0977 99.0833 70.0977 98.806C70.0977 98.5287 70.1937 98.294 70.3857 98.102C70.5777 97.91 70.8124 97.814 71.0897 97.814C71.3564 97.814 71.5804 97.91 71.7617 98.102C71.9537 98.294 72.0497 98.5287 72.0497 98.806C72.0497 99.0833 71.9537 99.318 71.7617 99.51C71.5804 99.702 71.3564 99.798 71.0897 99.798ZM71.7937 101.222V109.99H70.3377V101.222H71.7937ZM75.7312 102.646C75.9872 102.145 76.3499 101.755 76.8192 101.478C77.2992 101.201 77.8805 101.062 78.5632 101.062V102.566H78.1792C76.5472 102.566 75.7312 103.451 75.7312 105.222V109.99H74.2752V101.222H75.7312V102.646ZM88.244 105.27C88.244 105.547 88.228 105.841 88.196 106.15H81.188C81.2413 107.014 81.5346 107.691 82.068 108.182C82.612 108.662 83.268 108.902 84.036 108.902C84.6653 108.902 85.188 108.758 85.604 108.47C86.0306 108.171 86.3293 107.777 86.5 107.286H88.068C87.8333 108.129 87.364 108.817 86.66 109.35C85.956 109.873 85.0813 110.134 84.036 110.134C83.204 110.134 82.4573 109.947 81.796 109.574C81.1453 109.201 80.6333 108.673 80.26 107.99C79.8866 107.297 79.7 106.497 79.7 105.59C79.7 104.683 79.8813 103.889 80.244 103.206C80.6066 102.523 81.1133 102.001 81.764 101.638C82.4253 101.265 83.1826 101.078 84.036 101.078C84.868 101.078 85.604 101.259 86.244 101.622C86.884 101.985 87.3746 102.486 87.716 103.126C88.068 103.755 88.244 104.47 88.244 105.27ZM86.74 104.966C86.74 104.411 86.6173 103.937 86.372 103.542C86.1266 103.137 85.7906 102.833 85.364 102.63C84.948 102.417 84.484 102.31 83.972 102.31C83.236 102.31 82.6066 102.545 82.084 103.014C81.572 103.483 81.2786 104.134 81.204 104.966H86.74ZM93.7338 102.422H91.8938V109.99H90.4378V102.422H89.3018V101.222H90.4378V100.598C90.4378 99.6167 90.6885 98.902 91.1898 98.454C91.7018 97.9953 92.5178 97.766 93.6378 97.766V98.982C92.9978 98.982 92.5445 99.11 92.2778 99.366C92.0218 99.6113 91.8938 100.022 91.8938 100.598V101.222H93.7338V102.422ZM96.8875 102.646C97.1435 102.145 97.5061 101.755 97.9755 101.478C98.4555 101.201 99.0368 101.062 99.7195 101.062V102.566H99.3355C97.7035 102.566 96.8875 103.451 96.8875 105.222V109.99H95.4315V101.222H96.8875V102.646ZM100.856 105.574C100.856 104.678 101.038 103.894 101.4 103.222C101.763 102.539 102.259 102.011 102.888 101.638C103.528 101.265 104.238 101.078 105.016 101.078C105.784 101.078 106.451 101.243 107.016 101.574C107.582 101.905 108.003 102.321 108.28 102.822V101.222H109.752V109.99H108.28V108.358C107.992 108.87 107.56 109.297 106.984 109.638C106.419 109.969 105.758 110.134 105 110.134C104.222 110.134 103.518 109.942 102.888 109.558C102.259 109.174 101.763 108.635 101.4 107.942C101.038 107.249 100.856 106.459 100.856 105.574ZM108.28 105.59C108.28 104.929 108.147 104.353 107.88 103.862C107.614 103.371 107.251 102.998 106.792 102.742C106.344 102.475 105.848 102.342 105.304 102.342C104.76 102.342 104.264 102.47 103.816 102.726C103.368 102.982 103.011 103.355 102.744 103.846C102.478 104.337 102.344 104.913 102.344 105.574C102.344 106.246 102.478 106.833 102.744 107.334C103.011 107.825 103.368 108.203 103.816 108.47C104.264 108.726 104.76 108.854 105.304 108.854C105.848 108.854 106.344 108.726 106.792 108.47C107.251 108.203 107.614 107.825 107.88 107.334C108.147 106.833 108.28 106.251 108.28 105.59ZM122.757 101.062C123.439 101.062 124.047 101.206 124.581 101.494C125.114 101.771 125.535 102.193 125.845 102.758C126.154 103.323 126.309 104.011 126.309 104.822V109.99H124.869V105.03C124.869 104.155 124.65 103.489 124.213 103.03C123.786 102.561 123.205 102.326 122.469 102.326C121.711 102.326 121.109 102.571 120.661 103.062C120.213 103.542 119.989 104.241 119.989 105.158V109.99H118.549V105.03C118.549 104.155 118.33 103.489 117.893 103.03C117.466 102.561 116.885 102.326 116.149 102.326C115.391 102.326 114.789 102.571 114.341 103.062C113.893 103.542 113.669 104.241 113.669 105.158V109.99H112.213V101.222H113.669V102.486C113.957 102.027 114.341 101.675 114.821 101.43C115.311 101.185 115.85 101.062 116.437 101.062C117.173 101.062 117.823 101.227 118.389 101.558C118.954 101.889 119.375 102.374 119.653 103.014C119.898 102.395 120.303 101.915 120.869 101.574C121.434 101.233 122.063 101.062 122.757 101.062ZM136.697 105.27C136.697 105.547 136.681 105.841 136.649 106.15H129.641C129.694 107.014 129.988 107.691 130.521 108.182C131.065 108.662 131.721 108.902 132.489 108.902C133.118 108.902 133.641 108.758 134.057 108.47C134.484 108.171 134.782 107.777 134.953 107.286H136.521C136.286 108.129 135.817 108.817 135.113 109.35C134.409 109.873 133.534 110.134 132.489 110.134C131.657 110.134 130.91 109.947 130.249 109.574C129.598 109.201 129.086 108.673 128.713 107.99C128.34 107.297 128.153 106.497 128.153 105.59C128.153 104.683 128.334 103.889 128.697 103.206C129.06 102.523 129.566 102.001 130.217 101.638C130.878 101.265 131.636 101.078 132.489 101.078C133.321 101.078 134.057 101.259 134.697 101.622C135.337 101.985 135.828 102.486 136.169 103.126C136.521 103.755 136.697 104.47 136.697 105.27ZM135.193 104.966C135.193 104.411 135.07 103.937 134.825 103.542C134.58 103.137 134.244 102.833 133.817 102.63C133.401 102.417 132.937 102.31 132.425 102.31C131.689 102.31 131.06 102.545 130.537 103.014C130.025 103.483 129.732 104.134 129.657 104.966H135.193ZM141.723 110.134C141.051 110.134 140.448 110.022 139.915 109.798C139.382 109.563 138.96 109.243 138.651 108.838C138.342 108.422 138.171 107.947 138.139 107.414H139.643C139.686 107.851 139.888 108.209 140.251 108.486C140.624 108.763 141.11 108.902 141.707 108.902C142.262 108.902 142.699 108.779 143.019 108.534C143.339 108.289 143.499 107.979 143.499 107.606C143.499 107.222 143.328 106.939 142.987 106.758C142.646 106.566 142.118 106.379 141.403 106.198C140.752 106.027 140.219 105.857 139.803 105.686C139.398 105.505 139.046 105.243 138.747 104.902C138.459 104.55 138.315 104.091 138.315 103.526C138.315 103.078 138.448 102.667 138.715 102.294C138.982 101.921 139.36 101.627 139.851 101.414C140.342 101.19 140.902 101.078 141.531 101.078C142.502 101.078 143.286 101.323 143.883 101.814C144.48 102.305 144.8 102.977 144.843 103.83H143.387C143.355 103.371 143.168 103.003 142.827 102.726C142.496 102.449 142.048 102.31 141.483 102.31C140.96 102.31 140.544 102.422 140.235 102.646C139.926 102.87 139.771 103.163 139.771 103.526C139.771 103.814 139.862 104.054 140.043 104.246C140.235 104.427 140.47 104.577 140.747 104.694C141.035 104.801 141.43 104.923 141.931 105.062C142.56 105.233 143.072 105.403 143.467 105.574C143.862 105.734 144.198 105.979 144.475 106.31C144.763 106.641 144.912 107.073 144.923 107.606C144.923 108.086 144.79 108.518 144.523 108.902C144.256 109.286 143.878 109.59 143.387 109.814C142.907 110.027 142.352 110.134 141.723 110.134Z" fill="black"/>
<circle cx="36.2539" cy="265.316" r="6" fill="#00B2EB"/>
<path d="M63.3203 260.848V272H61.8643V266.944H56.1843V272H54.7283V260.848H56.1843V265.744H61.8643V260.848H63.3203ZM66.5585 261.808C66.2811 261.808 66.0465 261.712 65.8545 261.52C65.6625 261.328 65.5665 261.093 65.5665 260.816C65.5665 260.539 65.6625 260.304 65.8545 260.112C66.0465 259.92 66.2811 259.824 66.5585 259.824C66.8251 259.824 67.0491 259.92 67.2305 260.112C67.4225 260.304 67.5185 260.539 67.5185 260.816C67.5185 261.093 67.4225 261.328 67.2305 261.52C67.0491 261.712 66.8251 261.808 66.5585 261.808ZM67.2625 263.232V272H65.8065V263.232H67.2625ZM73.36 263.088C74.1173 263.088 74.7786 263.253 75.344 263.584C75.92 263.915 76.3466 264.331 76.624 264.832V263.232H78.096V272.192C78.096 272.992 77.9253 273.701 77.584 274.32C77.2426 274.949 76.752 275.44 76.112 275.792C75.4826 276.144 74.7466 276.32 73.904 276.32C72.752 276.32 71.792 276.048 71.024 275.504C70.256 274.96 69.8026 274.219 69.664 273.28H71.104C71.264 273.813 71.5946 274.24 72.096 274.56C72.5973 274.891 73.2 275.056 73.904 275.056C74.704 275.056 75.3546 274.805 75.856 274.304C76.368 273.803 76.624 273.099 76.624 272.192V270.352C76.336 270.864 75.9093 271.291 75.344 271.632C74.7786 271.973 74.1173 272.144 73.36 272.144C72.5813 272.144 71.872 271.952 71.232 271.568C70.6026 271.184 70.1066 270.645 69.744 269.952C69.3813 269.259 69.2 268.469 69.2 267.584C69.2 266.688 69.3813 265.904 69.744 265.232C70.1066 264.549 70.6026 264.021 71.232 263.648C71.872 263.275 72.5813 263.088 73.36 263.088ZM76.624 267.6C76.624 266.939 76.4906 266.363 76.224 265.872C75.9573 265.381 75.5946 265.008 75.136 264.752C74.688 264.485 74.192 264.352 73.648 264.352C73.104 264.352 72.608 264.48 72.16 264.736C71.712 264.992 71.3546 265.365 71.088 265.856C70.8213 266.347 70.688 266.923 70.688 267.584C70.688 268.256 70.8213 268.843 71.088 269.344C71.3546 269.835 71.712 270.213 72.16 270.48C72.608 270.736 73.104 270.864 73.648 270.864C74.192 270.864 74.688 270.736 75.136 270.48C75.5946 270.213 75.9573 269.835 76.224 269.344C76.4906 268.843 76.624 268.261 76.624 267.6ZM84.9085 263.072C85.5698 263.072 86.1671 263.216 86.7005 263.504C87.2338 263.781 87.6498 264.203 87.9485 264.768C88.2578 265.333 88.4125 266.021 88.4125 266.832V272H86.9725V267.04C86.9725 266.165 86.7538 265.499 86.3165 265.04C85.8791 264.571 85.2818 264.336 84.5245 264.336C83.7565 264.336 83.1431 264.576 82.6845 265.056C82.2365 265.536 82.0125 266.235 82.0125 267.152V272H80.5565V260.16H82.0125V264.48C82.3005 264.032 82.6951 263.685 83.1965 263.44C83.7085 263.195 84.2791 263.072 84.9085 263.072ZM101.36 260.848V262.032H96.5125V265.792H100.448V266.976H96.5125V272H95.0565V260.848H101.36ZM103.871 261.808C103.594 261.808 103.359 261.712 103.167 261.52C102.975 261.328 102.879 261.093 102.879 260.816C102.879 260.539 102.975 260.304 103.167 260.112C103.359 259.92 103.594 259.824 103.871 259.824C104.138 259.824 104.362 259.92 104.543 260.112C104.735 260.304 104.831 260.539 104.831 260.816C104.831 261.093 104.735 261.328 104.543 261.52C104.362 261.712 104.138 261.808 103.871 261.808ZM104.575 263.232V272H103.119V263.232H104.575ZM106.512 267.584C106.512 266.688 106.694 265.904 107.056 265.232C107.419 264.549 107.915 264.021 108.544 263.648C109.184 263.275 109.899 263.088 110.688 263.088C111.371 263.088 112.006 263.248 112.592 263.568C113.179 263.877 113.627 264.288 113.936 264.8V260.16H115.408V272H113.936V270.352C113.648 270.875 113.222 271.307 112.656 271.648C112.091 271.979 111.43 272.144 110.672 272.144C109.894 272.144 109.184 271.952 108.544 271.568C107.915 271.184 107.419 270.645 107.056 269.952C106.694 269.259 106.512 268.469 106.512 267.584ZM113.936 267.6C113.936 266.939 113.803 266.363 113.536 265.872C113.27 265.381 112.907 265.008 112.448 264.752C112 264.485 111.504 264.352 110.96 264.352C110.416 264.352 109.92 264.48 109.472 264.736C109.024 264.992 108.667 265.365 108.4 265.856C108.134 266.347 108 266.923 108 267.584C108 268.256 108.134 268.843 108.4 269.344C108.667 269.835 109.024 270.213 109.472 270.48C109.92 270.736 110.416 270.864 110.96 270.864C111.504 270.864 112 270.736 112.448 270.48C112.907 270.213 113.27 269.835 113.536 269.344C113.803 268.843 113.936 268.261 113.936 267.6ZM125.869 267.28C125.869 267.557 125.853 267.851 125.821 268.16H118.813C118.866 269.024 119.16 269.701 119.693 270.192C120.237 270.672 120.893 270.912 121.661 270.912C122.29 270.912 122.813 270.768 123.229 270.48C123.656 270.181 123.954 269.787 124.125 269.296H125.693C125.458 270.139 124.989 270.827 124.285 271.36C123.581 271.883 122.706 272.144 121.661 272.144C120.829 272.144 120.082 271.957 119.421 271.584C118.77 271.211 118.258 270.683 117.885 270C117.512 269.307 117.325 268.507 117.325 267.6C117.325 266.693 117.506 265.899 117.869 265.216C118.232 264.533 118.738 264.011 119.389 263.648C120.05 263.275 120.808 263.088 121.661 263.088C122.493 263.088 123.229 263.269 123.869 263.632C124.509 263.995 125 264.496 125.341 265.136C125.693 265.765 125.869 266.48 125.869 267.28ZM124.365 266.976C124.365 266.421 124.242 265.947 123.997 265.552C123.752 265.147 123.416 264.843 122.989 264.64C122.573 264.427 122.109 264.32 121.597 264.32C120.861 264.32 120.232 264.555 119.709 265.024C119.197 265.493 118.904 266.144 118.829 266.976H124.365ZM129.247 260.16V272H127.791V260.16H129.247ZM132.48 261.808C132.203 261.808 131.968 261.712 131.776 261.52C131.584 261.328 131.488 261.093 131.488 260.816C131.488 260.539 131.584 260.304 131.776 260.112C131.968 259.92 132.203 259.824 132.48 259.824C132.747 259.824 132.971 259.92 133.152 260.112C133.344 260.304 133.44 260.539 133.44 260.816C133.44 261.093 133.344 261.328 133.152 261.52C132.971 261.712 132.747 261.808 132.48 261.808ZM133.184 263.232V272H131.728V263.232H133.184ZM137.442 264.432V269.6C137.442 270.027 137.533 270.331 137.714 270.512C137.895 270.683 138.21 270.768 138.658 270.768H139.73V272H138.418C137.607 272 136.999 271.813 136.594 271.44C136.189 271.067 135.986 270.453 135.986 269.6V264.432H134.85V263.232H135.986V261.024H137.442V263.232H139.73V264.432H137.442ZM149.046 263.232L143.766 276.128H142.262L143.99 271.904L140.454 263.232H142.07L144.822 270.336L147.542 263.232H149.046Z" fill="black"/>
<circle cx="36.2539" cy="210.548" r="6" fill="#00B2EB"/>
<path d="M61.5923 206.848V208.032H58.5523V218H57.0963V208.032H54.0403V206.848H61.5923ZM71.3846 213.28C71.3846 213.557 71.3686 213.851 71.3366 214.16H64.3286C64.3819 215.024 64.6753 215.701 65.2086 216.192C65.7526 216.672 66.4086 216.912 67.1766 216.912C67.8059 216.912 68.3286 216.768 68.7446 216.48C69.1713 216.181 69.4699 215.787 69.6406 215.296H71.2086C70.9739 216.139 70.5046 216.827 69.8006 217.36C69.0966 217.883 68.2219 218.144 67.1766 218.144C66.3446 218.144 65.5979 217.957 64.9366 217.584C64.2859 217.211 63.7739 216.683 63.4006 216C63.0273 215.307 62.8406 214.507 62.8406 213.6C62.8406 212.693 63.0219 211.899 63.3846 211.216C63.7473 210.533 64.2539 210.011 64.9046 209.648C65.5659 209.275 66.3233 209.088 67.1766 209.088C68.0086 209.088 68.7446 209.269 69.3846 209.632C70.0246 209.995 70.5153 210.496 70.8566 211.136C71.2086 211.765 71.3846 212.48 71.3846 213.28ZM69.8806 212.976C69.8806 212.421 69.7579 211.947 69.5126 211.552C69.2673 211.147 68.9313 210.843 68.5046 210.64C68.0886 210.427 67.6246 210.32 67.1126 210.32C66.3766 210.32 65.7473 210.555 65.2246 211.024C64.7126 211.493 64.4193 212.144 64.3446 212.976H69.8806ZM72.7625 213.6C72.7625 212.693 72.9438 211.904 73.3065 211.232C73.6691 210.549 74.1705 210.021 74.8105 209.648C75.4611 209.275 76.2025 209.088 77.0345 209.088C78.1118 209.088 78.9971 209.349 79.6905 209.872C80.3945 210.395 80.8585 211.12 81.0825 212.048H79.5145C79.3651 211.515 79.0718 211.093 78.6345 210.784C78.2078 210.475 77.6745 210.32 77.0345 210.32C76.2025 210.32 75.5305 210.608 75.0185 211.184C74.5065 211.749 74.2505 212.555 74.2505 213.6C74.2505 214.656 74.5065 215.472 75.0185 216.048C75.5305 216.624 76.2025 216.912 77.0345 216.912C77.6745 216.912 78.2078 216.763 78.6345 216.464C79.0611 216.165 79.3545 215.739 79.5145 215.184H81.0825C80.8478 216.08 80.3785 216.8 79.6745 217.344C78.9705 217.877 78.0905 218.144 77.0345 218.144C76.2025 218.144 75.4611 217.957 74.8105 217.584C74.1705 217.211 73.6691 216.683 73.3065 216C72.9438 215.317 72.7625 214.517 72.7625 213.6ZM87.3772 209.072C88.0385 209.072 88.6359 209.216 89.1692 209.504C89.7025 209.781 90.1185 210.203 90.4172 210.768C90.7265 211.333 90.8812 212.021 90.8812 212.832V218H89.4412V213.04C89.4412 212.165 89.2225 211.499 88.7852 211.04C88.3479 210.571 87.7505 210.336 86.9932 210.336C86.2252 210.336 85.6119 210.576 85.1532 211.056C84.7052 211.536 84.4812 212.235 84.4812 213.152V218H83.0252V206.16H84.4812V210.48C84.7692 210.032 85.1639 209.685 85.6652 209.44C86.1772 209.195 86.7479 209.072 87.3772 209.072ZM97.5316 209.072C98.5983 209.072 99.4623 209.397 100.124 210.048C100.785 210.688 101.116 211.616 101.116 212.832V218H99.6756V213.04C99.6756 212.165 99.4569 211.499 99.0196 211.04C98.5823 210.571 97.9849 210.336 97.2276 210.336C96.4596 210.336 95.8463 210.576 95.3876 211.056C94.9396 211.536 94.7156 212.235 94.7156 213.152V218H93.2596V209.232H94.7156V210.48C95.0036 210.032 95.3929 209.685 95.8836 209.44C96.3849 209.195 96.9343 209.072 97.5316 209.072ZM107.318 218.144C106.497 218.144 105.75 217.957 105.078 217.584C104.417 217.211 103.894 216.683 103.51 216C103.137 215.307 102.95 214.507 102.95 213.6C102.95 212.704 103.142 211.915 103.526 211.232C103.921 210.539 104.454 210.011 105.126 209.648C105.798 209.275 106.55 209.088 107.382 209.088C108.214 209.088 108.966 209.275 109.638 209.648C110.31 210.011 110.838 210.533 111.222 211.216C111.617 211.899 111.814 212.693 111.814 213.6C111.814 214.507 111.611 215.307 111.206 216C110.811 216.683 110.273 217.211 109.59 217.584C108.907 217.957 108.15 218.144 107.318 218.144ZM107.318 216.864C107.841 216.864 108.331 216.741 108.79 216.496C109.249 216.251 109.617 215.883 109.894 215.392C110.182 214.901 110.326 214.304 110.326 213.6C110.326 212.896 110.187 212.299 109.91 211.808C109.633 211.317 109.27 210.955 108.822 210.72C108.374 210.475 107.889 210.352 107.366 210.352C106.833 210.352 106.342 210.475 105.894 210.72C105.457 210.955 105.105 211.317 104.838 211.808C104.571 212.299 104.438 212.896 104.438 213.6C104.438 214.315 104.566 214.917 104.822 215.408C105.089 215.899 105.441 216.267 105.878 216.512C106.315 216.747 106.795 216.864 107.318 216.864ZM115.184 206.16V218H113.728V206.16H115.184ZM121.49 218.144C120.669 218.144 119.922 217.957 119.25 217.584C118.589 217.211 118.066 216.683 117.682 216C117.309 215.307 117.122 214.507 117.122 213.6C117.122 212.704 117.314 211.915 117.698 211.232C118.093 210.539 118.626 210.011 119.298 209.648C119.97 209.275 120.722 209.088 121.554 209.088C122.386 209.088 123.138 209.275 123.81 209.648C124.482 210.011 125.01 210.533 125.394 211.216C125.789 211.899 125.986 212.693 125.986 213.6C125.986 214.507 125.783 215.307 125.378 216C124.983 216.683 124.445 217.211 123.762 217.584C123.079 217.957 122.322 218.144 121.49 218.144ZM121.49 216.864C122.013 216.864 122.503 216.741 122.962 216.496C123.421 216.251 123.789 215.883 124.066 215.392C124.354 214.901 124.498 214.304 124.498 213.6C124.498 212.896 124.359 212.299 124.082 211.808C123.805 211.317 123.442 210.955 122.994 210.72C122.546 210.475 122.061 210.352 121.538 210.352C121.005 210.352 120.514 210.475 120.066 210.72C119.629 210.955 119.277 211.317 119.01 211.808C118.743 212.299 118.61 212.896 118.61 213.6C118.61 214.315 118.738 214.917 118.994 215.408C119.261 215.899 119.613 216.267 120.05 216.512C120.487 216.747 120.967 216.864 121.49 216.864ZM131.516 209.088C132.274 209.088 132.935 209.253 133.5 209.584C134.076 209.915 134.503 210.331 134.78 210.832V209.232H136.252V218.192C136.252 218.992 136.082 219.701 135.74 220.32C135.399 220.949 134.908 221.44 134.268 221.792C133.639 222.144 132.903 222.32 132.06 222.32C130.908 222.32 129.948 222.048 129.18 221.504C128.412 220.96 127.959 220.219 127.82 219.28H129.26C129.42 219.813 129.751 220.24 130.252 220.56C130.754 220.891 131.356 221.056 132.06 221.056C132.86 221.056 133.511 220.805 134.012 220.304C134.524 219.803 134.78 219.099 134.78 218.192V216.352C134.492 216.864 134.066 217.291 133.5 217.632C132.935 217.973 132.274 218.144 131.516 218.144C130.738 218.144 130.028 217.952 129.388 217.568C128.759 217.184 128.263 216.645 127.9 215.952C127.538 215.259 127.356 214.469 127.356 213.584C127.356 212.688 127.538 211.904 127.9 211.232C128.263 210.549 128.759 210.021 129.388 209.648C130.028 209.275 130.738 209.088 131.516 209.088ZM134.78 213.6C134.78 212.939 134.647 212.363 134.38 211.872C134.114 211.381 133.751 211.008 133.292 210.752C132.844 210.485 132.348 210.352 131.804 210.352C131.26 210.352 130.764 210.48 130.316 210.736C129.868 210.992 129.511 211.365 129.244 211.856C128.978 212.347 128.844 212.923 128.844 213.584C128.844 214.256 128.978 214.843 129.244 215.344C129.511 215.835 129.868 216.213 130.316 216.48C130.764 216.736 131.26 216.864 131.804 216.864C132.348 216.864 132.844 216.736 133.292 216.48C133.751 216.213 134.114 215.835 134.38 215.344C134.647 214.843 134.78 214.261 134.78 213.6ZM146.265 209.232L140.985 222.128H139.481L141.209 217.904L137.673 209.232H139.289L142.041 216.336L144.761 209.232H146.265ZM158.586 215.52H153.722L152.826 218H151.29L155.322 206.912H157.002L161.018 218H159.482L158.586 215.52ZM158.17 214.336L156.154 208.704L154.138 214.336H158.17ZM164.231 210.656C164.487 210.155 164.85 209.765 165.319 209.488C165.799 209.211 166.381 209.072 167.063 209.072V210.576H166.679C165.047 210.576 164.231 211.461 164.231 213.232V218H162.775V209.232H164.231V210.656ZM168.2 213.6C168.2 212.693 168.381 211.904 168.744 211.232C169.107 210.549 169.608 210.021 170.248 209.648C170.899 209.275 171.64 209.088 172.472 209.088C173.549 209.088 174.435 209.349 175.128 209.872C175.832 210.395 176.296 211.12 176.52 212.048H174.952C174.803 211.515 174.509 211.093 174.072 210.784C173.645 210.475 173.112 210.32 172.472 210.32C171.64 210.32 170.968 210.608 170.456 211.184C169.944 211.749 169.688 212.555 169.688 213.6C169.688 214.656 169.944 215.472 170.456 216.048C170.968 216.624 171.64 216.912 172.472 216.912C173.112 216.912 173.645 216.763 174.072 216.464C174.499 216.165 174.792 215.739 174.952 215.184H176.52C176.285 216.08 175.816 216.8 175.112 217.344C174.408 217.877 173.528 218.144 172.472 218.144C171.64 218.144 170.899 217.957 170.248 217.584C169.608 217.211 169.107 216.683 168.744 216C168.381 215.317 168.2 214.517 168.2 213.6ZM182.815 209.072C183.476 209.072 184.073 209.216 184.607 209.504C185.14 209.781 185.556 210.203 185.855 210.768C186.164 211.333 186.319 212.021 186.319 212.832V218H184.879V213.04C184.879 212.165 184.66 211.499 184.223 211.04C183.785 210.571 183.188 210.336 182.431 210.336C181.663 210.336 181.049 210.576 180.591 211.056C180.143 211.536 179.919 212.235 179.919 213.152V218H178.463V206.16H179.919V210.48C180.207 210.032 180.601 209.685 181.103 209.44C181.615 209.195 182.185 209.072 182.815 209.072ZM189.449 207.808C189.172 207.808 188.937 207.712 188.745 207.52C188.553 207.328 188.457 207.093 188.457 206.816C188.457 206.539 188.553 206.304 188.745 206.112C188.937 205.92 189.172 205.824 189.449 205.824C189.716 205.824 189.94 205.92 190.121 206.112C190.313 206.304 190.409 206.539 190.409 206.816C190.409 207.093 190.313 207.328 190.121 207.52C189.94 207.712 189.716 207.808 189.449 207.808ZM190.153 209.232V218H188.697V209.232H190.153ZM194.411 210.432V215.6C194.411 216.027 194.501 216.331 194.683 216.512C194.864 216.683 195.179 216.768 195.627 216.768H196.699V218H195.387C194.576 218 193.968 217.813 193.563 217.44C193.157 217.067 192.955 216.453 192.955 215.6V210.432H191.819V209.232H192.955V207.024H194.411V209.232H196.699V210.432H194.411ZM206.463 213.28C206.463 213.557 206.447 213.851 206.415 214.16H199.407C199.46 215.024 199.753 215.701 200.287 216.192C200.831 216.672 201.487 216.912 202.255 216.912C202.884 216.912 203.407 216.768 203.823 216.48C204.249 216.181 204.548 215.787 204.719 215.296H206.287C206.052 216.139 205.583 216.827 204.879 217.36C204.175 217.883 203.3 218.144 202.255 218.144C201.423 218.144 200.676 217.957 200.015 217.584C199.364 217.211 198.852 216.683 198.479 216C198.105 215.307 197.919 214.507 197.919 213.6C197.919 212.693 198.1 211.899 198.463 211.216C198.825 210.533 199.332 210.011 199.983 209.648C200.644 209.275 201.401 209.088 202.255 209.088C203.087 209.088 203.823 209.269 204.463 209.632C205.103 209.995 205.593 210.496 205.935 211.136C206.287 211.765 206.463 212.48 206.463 213.28ZM204.959 212.976C204.959 212.421 204.836 211.947 204.591 211.552C204.345 211.147 204.009 210.843 203.583 210.64C203.167 210.427 202.703 210.32 202.191 210.32C201.455 210.32 200.825 210.555 200.303 211.024C199.791 211.493 199.497 212.144 199.423 212.976H204.959ZM207.841 213.6C207.841 212.693 208.022 211.904 208.385 211.232C208.747 210.549 209.249 210.021 209.889 209.648C210.539 209.275 211.281 209.088 212.113 209.088C213.19 209.088 214.075 209.349 214.769 209.872C215.473 210.395 215.937 211.12 216.161 212.048H214.593C214.443 211.515 214.15 211.093 213.713 210.784C213.286 210.475 212.753 210.32 212.113 210.32C211.281 210.32 210.609 210.608 210.097 211.184C209.585 211.749 209.329 212.555 209.329 213.6C209.329 214.656 209.585 215.472 210.097 216.048C210.609 216.624 211.281 216.912 212.113 216.912C212.753 216.912 213.286 216.763 213.713 216.464C214.139 216.165 214.433 215.739 214.593 215.184H216.161C215.926 216.08 215.457 216.8 214.753 217.344C214.049 217.877 213.169 218.144 212.113 218.144C211.281 218.144 210.539 217.957 209.889 217.584C209.249 217.211 208.747 216.683 208.385 216C208.022 215.317 207.841 214.517 207.841 213.6ZM219.879 210.432V215.6C219.879 216.027 219.97 216.331 220.151 216.512C220.333 216.683 220.647 216.768 221.095 216.768H222.167V218H220.855C220.045 218 219.437 217.813 219.031 217.44C218.626 217.067 218.423 216.453 218.423 215.6V210.432H217.287V209.232H218.423V207.024H219.879V209.232H222.167V210.432H219.879ZM231.707 209.232V218H230.251V216.704C229.974 217.152 229.585 217.504 229.083 217.76C228.593 218.005 228.049 218.128 227.451 218.128C226.769 218.128 226.155 217.989 225.611 217.712C225.067 217.424 224.635 216.997 224.315 216.432C224.006 215.867 223.851 215.179 223.851 214.368V209.232H225.291V214.176C225.291 215.04 225.51 215.707 225.947 216.176C226.385 216.635 226.982 216.864 227.739 216.864C228.518 216.864 229.131 216.624 229.579 216.144C230.027 215.664 230.251 214.965 230.251 214.048V209.232H231.707ZM235.622 210.656C235.878 210.155 236.241 209.765 236.71 209.488C237.19 209.211 237.771 209.072 238.454 209.072V210.576H238.07C236.438 210.576 235.622 211.461 235.622 213.232V218H234.166V209.232H235.622V210.656ZM248.135 213.28C248.135 213.557 248.119 213.851 248.087 214.16H241.079C241.132 215.024 241.425 215.701 241.959 216.192C242.503 216.672 243.159 216.912 243.927 216.912C244.556 216.912 245.079 216.768 245.495 216.48C245.921 216.181 246.22 215.787 246.391 215.296H247.959C247.724 216.139 247.255 216.827 246.551 217.36C245.847 217.883 244.972 218.144 243.927 218.144C243.095 218.144 242.348 217.957 241.687 217.584C241.036 217.211 240.524 216.683 240.151 216C239.777 215.307 239.591 214.507 239.591 213.6C239.591 212.693 239.772 211.899 240.135 211.216C240.497 210.533 241.004 210.011 241.655 209.648C242.316 209.275 243.073 209.088 243.927 209.088C244.759 209.088 245.495 209.269 246.135 209.632C246.775 209.995 247.265 210.496 247.607 211.136C247.959 211.765 248.135 212.48 248.135 213.28ZM246.631 212.976C246.631 212.421 246.508 211.947 246.263 211.552C246.017 211.147 245.681 210.843 245.255 210.64C244.839 210.427 244.375 210.32 243.863 210.32C243.127 210.32 242.497 210.555 241.975 211.024C241.463 211.493 241.169 212.144 241.095 212.976H246.631Z" fill="black"/>
<circle cx="36.2539" cy="155.78" r="6" fill="#00B2EB"/>
<path d="M56.1843 152.848V164H54.7283V152.848H56.1843ZM62.9378 155.072C64.0045 155.072 64.8685 155.397 65.5298 156.048C66.1912 156.688 66.5218 157.616 66.5218 158.832V164H65.0818V159.04C65.0818 158.165 64.8632 157.499 64.4258 157.04C63.9885 156.571 63.3912 156.336 62.6338 156.336C61.8658 156.336 61.2525 156.576 60.7938 157.056C60.3458 157.536 60.1218 158.235 60.1218 159.152V164H58.6658V155.232H60.1218V156.48C60.4098 156.032 60.7992 155.685 61.2898 155.44C61.7912 155.195 62.3405 155.072 62.9378 155.072ZM72.4682 156.432H70.6282V164H69.1722V156.432H68.0362V155.232H69.1722V154.608C69.1722 153.627 69.4229 152.912 69.9242 152.464C70.4362 152.005 71.2522 151.776 72.3722 151.776V152.992C71.7322 152.992 71.2789 153.12 71.0122 153.376C70.7562 153.621 70.6282 154.032 70.6282 154.608V155.232H72.4682V156.432ZM77.9898 164.144C77.1685 164.144 76.4218 163.957 75.7498 163.584C75.0885 163.211 74.5658 162.683 74.1818 162C73.8085 161.307 73.6218 160.507 73.6218 159.6C73.6218 158.704 73.8138 157.915 74.1978 157.232C74.5925 156.539 75.1258 156.011 75.7978 155.648C76.4698 155.275 77.2218 155.088 78.0538 155.088C78.8858 155.088 79.6378 155.275 80.3098 155.648C80.9818 156.011 81.5098 156.533 81.8938 157.216C82.2885 157.899 82.4858 158.693 82.4858 159.6C82.4858 160.507 82.2832 161.307 81.8778 162C81.4832 162.683 80.9445 163.211 80.2618 163.584C79.5792 163.957 78.8218 164.144 77.9898 164.144ZM77.9898 162.864C78.5125 162.864 79.0032 162.741 79.4618 162.496C79.9205 162.251 80.2885 161.883 80.5658 161.392C80.8538 160.901 80.9978 160.304 80.9978 159.6C80.9978 158.896 80.8592 158.299 80.5818 157.808C80.3045 157.317 79.9418 156.955 79.4938 156.72C79.0458 156.475 78.5605 156.352 78.0378 156.352C77.5045 156.352 77.0138 156.475 76.5658 156.72C76.1285 156.955 75.7765 157.317 75.5098 157.808C75.2432 158.299 75.1098 158.896 75.1098 159.6C75.1098 160.315 75.2378 160.917 75.4938 161.408C75.7605 161.899 76.1125 162.267 76.5498 162.512C76.9872 162.747 77.4672 162.864 77.9898 162.864ZM85.8562 156.656C86.1122 156.155 86.4749 155.765 86.9442 155.488C87.4242 155.211 88.0055 155.072 88.6882 155.072V156.576H88.3042C86.6722 156.576 85.8562 157.461 85.8562 159.232V164H84.4002V155.232H85.8562V156.656ZM100.913 155.072C101.596 155.072 102.204 155.216 102.737 155.504C103.27 155.781 103.692 156.203 104.001 156.768C104.31 157.333 104.465 158.021 104.465 158.832V164H103.025V159.04C103.025 158.165 102.806 157.499 102.369 157.04C101.942 156.571 101.361 156.336 100.625 156.336C99.8676 156.336 99.265 156.581 98.817 157.072C98.369 157.552 98.145 158.251 98.145 159.168V164H96.705V159.04C96.705 158.165 96.4863 157.499 96.049 157.04C95.6223 156.571 95.041 156.336 94.305 156.336C93.5476 156.336 92.945 156.581 92.497 157.072C92.049 157.552 91.825 158.251 91.825 159.168V164H90.369V155.232H91.825V156.496C92.113 156.037 92.497 155.685 92.977 155.44C93.4676 155.195 94.0063 155.072 94.593 155.072C95.329 155.072 95.9796 155.237 96.545 155.568C97.1103 155.899 97.5316 156.384 97.809 157.024C98.0543 156.405 98.4596 155.925 99.025 155.584C99.5903 155.243 100.22 155.072 100.913 155.072ZM106.309 159.584C106.309 158.688 106.491 157.904 106.853 157.232C107.216 156.549 107.712 156.021 108.341 155.648C108.981 155.275 109.691 155.088 110.469 155.088C111.237 155.088 111.904 155.253 112.469 155.584C113.035 155.915 113.456 156.331 113.733 156.832V155.232H115.205V164H113.733V162.368C113.445 162.88 113.013 163.307 112.437 163.648C111.872 163.979 111.211 164.144 110.453 164.144C109.675 164.144 108.971 163.952 108.341 163.568C107.712 163.184 107.216 162.645 106.853 161.952C106.491 161.259 106.309 160.469 106.309 159.584ZM113.733 159.6C113.733 158.939 113.6 158.363 113.333 157.872C113.067 157.381 112.704 157.008 112.245 156.752C111.797 156.485 111.301 156.352 110.757 156.352C110.213 156.352 109.717 156.48 109.269 156.736C108.821 156.992 108.464 157.365 108.197 157.856C107.931 158.347 107.797 158.923 107.797 159.584C107.797 160.256 107.931 160.843 108.197 161.344C108.464 161.835 108.821 162.213 109.269 162.48C109.717 162.736 110.213 162.864 110.757 162.864C111.301 162.864 111.797 162.736 112.245 162.48C112.704 162.213 113.067 161.835 113.333 161.344C113.6 160.843 113.733 160.261 113.733 159.6ZM119.442 156.432V161.6C119.442 162.027 119.533 162.331 119.714 162.512C119.895 162.683 120.21 162.768 120.658 162.768H121.73V164H120.418C119.607 164 118.999 163.813 118.594 163.44C118.189 163.067 117.986 162.453 117.986 161.6V156.432H116.85V155.232H117.986V153.024H119.442V155.232H121.73V156.432H119.442ZM124.246 153.808C123.969 153.808 123.734 153.712 123.542 153.52C123.35 153.328 123.254 153.093 123.254 152.816C123.254 152.539 123.35 152.304 123.542 152.112C123.734 151.92 123.969 151.824 124.246 151.824C124.513 151.824 124.737 151.92 124.918 152.112C125.11 152.304 125.206 152.539 125.206 152.816C125.206 153.093 125.11 153.328 124.918 153.52C124.737 153.712 124.513 153.808 124.246 153.808ZM124.95 155.232V164H123.494V155.232H124.95ZM131.255 164.144C130.434 164.144 129.687 163.957 129.015 163.584C128.354 163.211 127.831 162.683 127.447 162C127.074 161.307 126.887 160.507 126.887 159.6C126.887 158.704 127.079 157.915 127.463 157.232C127.858 156.539 128.391 156.011 129.063 155.648C129.735 155.275 130.487 155.088 131.319 155.088C132.151 155.088 132.903 155.275 133.575 155.648C134.247 156.011 134.775 156.533 135.159 157.216C135.554 157.899 135.751 158.693 135.751 159.6C135.751 160.507 135.549 161.307 135.143 162C134.749 162.683 134.21 163.211 133.527 163.584C132.845 163.957 132.087 164.144 131.255 164.144ZM131.255 162.864C131.778 162.864 132.269 162.741 132.727 162.496C133.186 162.251 133.554 161.883 133.831 161.392C134.119 160.901 134.263 160.304 134.263 159.6C134.263 158.896 134.125 158.299 133.847 157.808C133.57 157.317 133.207 156.955 132.759 156.72C132.311 156.475 131.826 156.352 131.303 156.352C130.77 156.352 130.279 156.475 129.831 156.72C129.394 156.955 129.042 157.317 128.775 157.808C128.509 158.299 128.375 158.896 128.375 159.6C128.375 160.315 128.503 160.917 128.759 161.408C129.026 161.899 129.378 162.267 129.815 162.512C130.253 162.747 130.733 162.864 131.255 162.864ZM141.938 155.072C143.005 155.072 143.869 155.397 144.53 156.048C145.191 156.688 145.522 157.616 145.522 158.832V164H144.082V159.04C144.082 158.165 143.863 157.499 143.426 157.04C142.989 156.571 142.391 156.336 141.634 156.336C140.866 156.336 140.253 156.576 139.794 157.056C139.346 157.536 139.122 158.235 139.122 159.152V164H137.666V155.232H139.122V156.48C139.41 156.032 139.799 155.685 140.29 155.44C140.791 155.195 141.341 155.072 141.938 155.072ZM158.758 161.52H153.894L152.998 164H151.462L155.494 152.912H157.174L161.19 164H159.654L158.758 161.52ZM158.342 160.336L156.326 154.704L154.31 160.336H158.342ZM164.403 156.656C164.659 156.155 165.022 155.765 165.491 155.488C165.971 155.211 166.552 155.072 167.235 155.072V156.576H166.851C165.219 156.576 164.403 157.461 164.403 159.232V164H162.947V155.232H164.403V156.656ZM168.372 159.6C168.372 158.693 168.553 157.904 168.916 157.232C169.279 156.549 169.78 156.021 170.42 155.648C171.071 155.275 171.812 155.088 172.644 155.088C173.721 155.088 174.607 155.349 175.3 155.872C176.004 156.395 176.468 157.12 176.692 158.048H175.124C174.975 157.515 174.681 157.093 174.244 156.784C173.817 156.475 173.284 156.32 172.644 156.32C171.812 156.32 171.14 156.608 170.628 157.184C170.116 157.749 169.86 158.555 169.86 159.6C169.86 160.656 170.116 161.472 170.628 162.048C171.14 162.624 171.812 162.912 172.644 162.912C173.284 162.912 173.817 162.763 174.244 162.464C174.671 162.165 174.964 161.739 175.124 161.184H176.692C176.457 162.08 175.988 162.8 175.284 163.344C174.58 163.877 173.7 164.144 172.644 164.144C171.812 164.144 171.071 163.957 170.42 163.584C169.78 163.211 169.279 162.683 168.916 162C168.553 161.317 168.372 160.517 168.372 159.6ZM182.987 155.072C183.648 155.072 184.245 155.216 184.779 155.504C185.312 155.781 185.728 156.203 186.027 156.768C186.336 157.333 186.491 158.021 186.491 158.832V164H185.051V159.04C185.051 158.165 184.832 157.499 184.395 157.04C183.957 156.571 183.36 156.336 182.603 156.336C181.835 156.336 181.221 156.576 180.763 157.056C180.315 157.536 180.091 158.235 180.091 159.152V164H178.635V152.16H180.091V156.48C180.379 156.032 180.773 155.685 181.275 155.44C181.787 155.195 182.357 155.072 182.987 155.072ZM189.621 153.808C189.344 153.808 189.109 153.712 188.917 153.52C188.725 153.328 188.629 153.093 188.629 152.816C188.629 152.539 188.725 152.304 188.917 152.112C189.109 151.92 189.344 151.824 189.621 151.824C189.888 151.824 190.112 151.92 190.293 152.112C190.485 152.304 190.581 152.539 190.581 152.816C190.581 153.093 190.485 153.328 190.293 153.52C190.112 153.712 189.888 153.808 189.621 153.808ZM190.325 155.232V164H188.869V155.232H190.325ZM194.582 156.432V161.6C194.582 162.027 194.673 162.331 194.854 162.512C195.036 162.683 195.35 162.768 195.798 162.768H196.87V164H195.558C194.748 164 194.14 163.813 193.734 163.44C193.329 163.067 193.126 162.453 193.126 161.6V156.432H191.99V155.232H193.126V153.024H194.582V155.232H196.87V156.432H194.582ZM206.635 159.28C206.635 159.557 206.619 159.851 206.587 160.16H199.579C199.632 161.024 199.925 161.701 200.459 162.192C201.003 162.672 201.659 162.912 202.427 162.912C203.056 162.912 203.579 162.768 203.995 162.48C204.421 162.181 204.72 161.787 204.891 161.296H206.459C206.224 162.139 205.755 162.827 205.051 163.36C204.347 163.883 203.472 164.144 202.427 164.144C201.595 164.144 200.848 163.957 200.187 163.584C199.536 163.211 199.024 162.683 198.651 162C198.277 161.307 198.091 160.507 198.091 159.6C198.091 158.693 198.272 157.899 198.635 157.216C198.997 156.533 199.504 156.011 200.155 155.648C200.816 155.275 201.573 155.088 202.427 155.088C203.259 155.088 203.995 155.269 204.635 155.632C205.275 155.995 205.765 156.496 206.107 157.136C206.459 157.765 206.635 158.48 206.635 159.28ZM205.131 158.976C205.131 158.421 205.008 157.947 204.763 157.552C204.517 157.147 204.181 156.843 203.755 156.64C203.339 156.427 202.875 156.32 202.363 156.32C201.627 156.32 200.997 156.555 200.475 157.024C199.963 157.493 199.669 158.144 199.595 158.976H205.131ZM208.012 159.6C208.012 158.693 208.194 157.904 208.556 157.232C208.919 156.549 209.42 156.021 210.06 155.648C210.711 155.275 211.452 155.088 212.284 155.088C213.362 155.088 214.247 155.349 214.94 155.872C215.644 156.395 216.108 157.12 216.332 158.048H214.764C214.615 157.515 214.322 157.093 213.884 156.784C213.458 156.475 212.924 156.32 212.284 156.32C211.452 156.32 210.78 156.608 210.268 157.184C209.756 157.749 209.5 158.555 209.5 159.6C209.5 160.656 209.756 161.472 210.268 162.048C210.78 162.624 211.452 162.912 212.284 162.912C212.924 162.912 213.458 162.763 213.884 162.464C214.311 162.165 214.604 161.739 214.764 161.184H216.332C216.098 162.08 215.628 162.8 214.924 163.344C214.22 163.877 213.34 164.144 212.284 164.144C211.452 164.144 210.711 163.957 210.06 163.584C209.42 163.211 208.919 162.683 208.556 162C208.194 161.317 208.012 160.517 208.012 159.6ZM220.051 156.432V161.6C220.051 162.027 220.142 162.331 220.323 162.512C220.505 162.683 220.819 162.768 221.267 162.768H222.339V164H221.027C220.217 164 219.609 163.813 219.203 163.44C218.798 163.067 218.595 162.453 218.595 161.6V156.432H217.459V155.232H218.595V153.024H220.051V155.232H222.339V156.432H220.051ZM231.879 155.232V164H230.423V162.704C230.146 163.152 229.757 163.504 229.255 163.76C228.765 164.005 228.221 164.128 227.623 164.128C226.941 164.128 226.327 163.989 225.783 163.712C225.239 163.424 224.807 162.997 224.487 162.432C224.178 161.867 224.023 161.179 224.023 160.368V155.232H225.463V160.176C225.463 161.04 225.682 161.707 226.119 162.176C226.557 162.635 227.154 162.864 227.911 162.864C228.69 162.864 229.303 162.624 229.751 162.144C230.199 161.664 230.423 160.965 230.423 160.048V155.232H231.879ZM235.794 156.656C236.05 156.155 236.412 155.765 236.882 155.488C237.362 155.211 237.943 155.072 238.626 155.072V156.576H238.242C236.61 156.576 235.794 157.461 235.794 159.232V164H234.338V155.232H235.794V156.656ZM248.306 159.28C248.306 159.557 248.29 159.851 248.258 160.16H241.25C241.304 161.024 241.597 161.701 242.13 162.192C242.674 162.672 243.33 162.912 244.098 162.912C244.728 162.912 245.25 162.768 245.666 162.48C246.093 162.181 246.392 161.787 246.562 161.296H248.13C247.896 162.139 247.426 162.827 246.722 163.36C246.018 163.883 245.144 164.144 244.098 164.144C243.266 164.144 242.52 163.957 241.858 163.584C241.208 163.211 240.696 162.683 240.322 162C239.949 161.307 239.762 160.507 239.762 159.6C239.762 158.693 239.944 157.899 240.306 157.216C240.669 156.533 241.176 156.011 241.826 155.648C242.488 155.275 243.245 155.088 244.098 155.088C244.93 155.088 245.666 155.269 246.306 155.632C246.946 155.995 247.437 156.496 247.778 157.136C248.13 157.765 248.306 158.48 248.306 159.28ZM246.802 158.976C246.802 158.421 246.68 157.947 246.434 157.552C246.189 157.147 245.853 156.843 245.426 156.64C245.01 156.427 244.546 156.32 244.034 156.32C243.298 156.32 242.669 156.555 242.146 157.024C241.634 157.493 241.341 158.144 241.266 158.976H246.802Z" fill="black"/>
<circle cx="36" cy="320.083" r="6" fill="#00B2EB"/>
<path d="M61.5923 314.848V316.032H58.5523V326H57.0963V316.032H54.0403V314.848H61.5923ZM71.3846 321.28C71.3846 321.557 71.3686 321.851 71.3366 322.16H64.3286C64.3819 323.024 64.6753 323.701 65.2086 324.192C65.7526 324.672 66.4086 324.912 67.1766 324.912C67.8059 324.912 68.3286 324.768 68.7446 324.48C69.1713 324.181 69.4699 323.787 69.6406 323.296H71.2086C70.9739 324.139 70.5046 324.827 69.8006 325.36C69.0966 325.883 68.2219 326.144 67.1766 326.144C66.3446 326.144 65.5979 325.957 64.9366 325.584C64.2859 325.211 63.7739 324.683 63.4006 324C63.0273 323.307 62.8406 322.507 62.8406 321.6C62.8406 320.693 63.0219 319.899 63.3846 319.216C63.7473 318.533 64.2539 318.011 64.9046 317.648C65.5659 317.275 66.3233 317.088 67.1766 317.088C68.0086 317.088 68.7446 317.269 69.3846 317.632C70.0246 317.995 70.5153 318.496 70.8566 319.136C71.2086 319.765 71.3846 320.48 71.3846 321.28ZM69.8806 320.976C69.8806 320.421 69.7579 319.947 69.5126 319.552C69.2673 319.147 68.9313 318.843 68.5046 318.64C68.0886 318.427 67.6246 318.32 67.1126 318.32C66.3766 318.32 65.7473 318.555 65.2246 319.024C64.7126 319.493 64.4193 320.144 64.3446 320.976H69.8806ZM76.4105 326.144C75.7385 326.144 75.1358 326.032 74.6025 325.808C74.0691 325.573 73.6478 325.253 73.3385 324.848C73.0291 324.432 72.8585 323.957 72.8265 323.424H74.3305C74.3731 323.861 74.5758 324.219 74.9385 324.496C75.3118 324.773 75.7971 324.912 76.3945 324.912C76.9491 324.912 77.3865 324.789 77.7065 324.544C78.0265 324.299 78.1865 323.989 78.1865 323.616C78.1865 323.232 78.0158 322.949 77.6745 322.768C77.3331 322.576 76.8051 322.389 76.0905 322.208C75.4398 322.037 74.9065 321.867 74.4905 321.696C74.0851 321.515 73.7331 321.253 73.4345 320.912C73.1465 320.56 73.0025 320.101 73.0025 319.536C73.0025 319.088 73.1358 318.677 73.4025 318.304C73.6691 317.931 74.0478 317.637 74.5385 317.424C75.0291 317.2 75.5891 317.088 76.2185 317.088C77.1891 317.088 77.9731 317.333 78.5705 317.824C79.1678 318.315 79.4878 318.987 79.5305 319.84H78.0745C78.0425 319.381 77.8558 319.013 77.5145 318.736C77.1838 318.459 76.7358 318.32 76.1705 318.32C75.6478 318.32 75.2318 318.432 74.9225 318.656C74.6131 318.88 74.4585 319.173 74.4585 319.536C74.4585 319.824 74.5491 320.064 74.7305 320.256C74.9225 320.437 75.1571 320.587 75.4345 320.704C75.7225 320.811 76.1171 320.933 76.6185 321.072C77.2478 321.243 77.7598 321.413 78.1545 321.584C78.5491 321.744 78.8851 321.989 79.1625 322.32C79.4505 322.651 79.5998 323.083 79.6105 323.616C79.6105 324.096 79.4771 324.528 79.2105 324.912C78.9438 325.296 78.5651 325.6 78.0745 325.824C77.5945 326.037 77.0398 326.144 76.4105 326.144ZM83.4418 318.432V323.6C83.4418 324.027 83.5325 324.331 83.7138 324.512C83.8952 324.683 84.2098 324.768 84.6578 324.768H85.7298V326H84.4178C83.6072 326 82.9992 325.813 82.5938 325.44C82.1885 325.067 81.9858 324.453 81.9858 323.6V318.432H80.8498V317.232H81.9858V315.024H83.4418V317.232H85.7298V318.432H83.4418ZM91.2156 320.416C91.2156 319.328 91.4609 318.352 91.9516 317.488C92.4423 316.613 93.1089 315.931 93.9516 315.44C94.8049 314.949 95.7489 314.704 96.7836 314.704C97.9996 314.704 99.0609 314.997 99.9676 315.584C100.874 316.171 101.536 317.003 101.952 318.08H100.208C99.8983 317.408 99.4503 316.891 98.8636 316.528C98.2876 316.165 97.5943 315.984 96.7836 315.984C96.0049 315.984 95.3063 316.165 94.6876 316.528C94.0689 316.891 93.5836 317.408 93.2316 318.08C92.8796 318.741 92.7036 319.52 92.7036 320.416C92.7036 321.301 92.8796 322.08 93.2316 322.752C93.5836 323.413 94.0689 323.925 94.6876 324.288C95.3063 324.651 96.0049 324.832 96.7836 324.832C97.5943 324.832 98.2876 324.656 98.8636 324.304C99.4503 323.941 99.8983 323.424 100.208 322.752H101.952C101.536 323.819 100.874 324.645 99.9676 325.232C99.0609 325.808 97.9996 326.096 96.7836 326.096C95.7489 326.096 94.8049 325.856 93.9516 325.376C93.1089 324.885 92.4423 324.208 91.9516 323.344C91.4609 322.48 91.2156 321.504 91.2156 320.416ZM103.575 321.584C103.575 320.688 103.756 319.904 104.119 319.232C104.482 318.549 104.978 318.021 105.607 317.648C106.247 317.275 106.956 317.088 107.735 317.088C108.503 317.088 109.17 317.253 109.735 317.584C110.3 317.915 110.722 318.331 110.999 318.832V317.232H112.471V326H110.999V324.368C110.711 324.88 110.279 325.307 109.703 325.648C109.138 325.979 108.476 326.144 107.719 326.144C106.94 326.144 106.236 325.952 105.607 325.568C104.978 325.184 104.482 324.645 104.119 323.952C103.756 323.259 103.575 322.469 103.575 321.584ZM110.999 321.6C110.999 320.939 110.866 320.363 110.599 319.872C110.332 319.381 109.97 319.008 109.511 318.752C109.063 318.485 108.567 318.352 108.023 318.352C107.479 318.352 106.983 318.48 106.535 318.736C106.087 318.992 105.73 319.365 105.463 319.856C105.196 320.347 105.063 320.923 105.063 321.584C105.063 322.256 105.196 322.843 105.463 323.344C105.73 323.835 106.087 324.213 106.535 324.48C106.983 324.736 107.479 324.864 108.023 324.864C108.567 324.864 109.063 324.736 109.511 324.48C109.97 324.213 110.332 323.835 110.599 323.344C110.866 322.843 110.999 322.261 110.999 321.6ZM118.035 326.144C117.363 326.144 116.761 326.032 116.227 325.808C115.694 325.573 115.273 325.253 114.963 324.848C114.654 324.432 114.483 323.957 114.451 323.424H115.955C115.998 323.861 116.201 324.219 116.563 324.496C116.937 324.773 117.422 324.912 118.019 324.912C118.574 324.912 119.011 324.789 119.331 324.544C119.651 324.299 119.811 323.989 119.811 323.616C119.811 323.232 119.641 322.949 119.299 322.768C118.958 322.576 118.43 322.389 117.715 322.208C117.065 322.037 116.531 321.867 116.115 321.696C115.71 321.515 115.358 321.253 115.059 320.912C114.771 320.56 114.627 320.101 114.627 319.536C114.627 319.088 114.761 318.677 115.027 318.304C115.294 317.931 115.673 317.637 116.163 317.424C116.654 317.2 117.214 317.088 117.843 317.088C118.814 317.088 119.598 317.333 120.195 317.824C120.793 318.315 121.113 318.987 121.155 319.84H119.699C119.667 319.381 119.481 319.013 119.139 318.736C118.809 318.459 118.361 318.32 117.795 318.32C117.273 318.32 116.857 318.432 116.547 318.656C116.238 318.88 116.083 319.173 116.083 319.536C116.083 319.824 116.174 320.064 116.355 320.256C116.547 320.437 116.782 320.587 117.059 320.704C117.347 320.811 117.742 320.933 118.243 321.072C118.873 321.243 119.385 321.413 119.779 321.584C120.174 321.744 120.51 321.989 120.787 322.32C121.075 322.651 121.225 323.083 121.235 323.616C121.235 324.096 121.102 324.528 120.835 324.912C120.569 325.296 120.19 325.6 119.699 325.824C119.219 326.037 118.665 326.144 118.035 326.144ZM131.291 321.28C131.291 321.557 131.275 321.851 131.243 322.16H124.235C124.288 323.024 124.582 323.701 125.115 324.192C125.659 324.672 126.315 324.912 127.083 324.912C127.712 324.912 128.235 324.768 128.651 324.48C129.078 324.181 129.376 323.787 129.547 323.296H131.115C130.88 324.139 130.411 324.827 129.707 325.36C129.003 325.883 128.128 326.144 127.083 326.144C126.251 326.144 125.504 325.957 124.843 325.584C124.192 325.211 123.68 324.683 123.307 324C122.934 323.307 122.747 322.507 122.747 321.6C122.747 320.693 122.928 319.899 123.291 319.216C123.654 318.533 124.16 318.011 124.811 317.648C125.472 317.275 126.23 317.088 127.083 317.088C127.915 317.088 128.651 317.269 129.291 317.632C129.931 317.995 130.422 318.496 130.763 319.136C131.115 319.765 131.291 320.48 131.291 321.28ZM129.787 320.976C129.787 320.421 129.664 319.947 129.419 319.552C129.174 319.147 128.838 318.843 128.411 318.64C127.995 318.427 127.531 318.32 127.019 318.32C126.283 318.32 125.654 318.555 125.131 319.024C124.619 319.493 124.326 320.144 124.251 320.976H129.787ZM136.317 326.144C135.645 326.144 135.042 326.032 134.509 325.808C133.975 325.573 133.554 325.253 133.245 324.848C132.935 324.432 132.765 323.957 132.733 323.424H134.237C134.279 323.861 134.482 324.219 134.845 324.496C135.218 324.773 135.703 324.912 136.301 324.912C136.855 324.912 137.293 324.789 137.613 324.544C137.933 324.299 138.093 323.989 138.093 323.616C138.093 323.232 137.922 322.949 137.581 322.768C137.239 322.576 136.711 322.389 135.997 322.208C135.346 322.037 134.813 321.867 134.397 321.696C133.991 321.515 133.639 321.253 133.341 320.912C133.053 320.56 132.909 320.101 132.909 319.536C132.909 319.088 133.042 318.677 133.309 318.304C133.575 317.931 133.954 317.637 134.445 317.424C134.935 317.2 135.495 317.088 136.125 317.088C137.095 317.088 137.879 317.333 138.477 317.824C139.074 318.315 139.394 318.987 139.437 319.84H137.981C137.949 319.381 137.762 319.013 137.421 318.736C137.09 318.459 136.642 318.32 136.077 318.32C135.554 318.32 135.138 318.432 134.829 318.656C134.519 318.88 134.365 319.173 134.365 319.536C134.365 319.824 134.455 320.064 134.637 320.256C134.829 320.437 135.063 320.587 135.341 320.704C135.629 320.811 136.023 320.933 136.525 321.072C137.154 321.243 137.666 321.413 138.061 321.584C138.455 321.744 138.791 321.989 139.069 322.32C139.357 322.651 139.506 323.083 139.517 323.616C139.517 324.096 139.383 324.528 139.117 324.912C138.85 325.296 138.471 325.6 137.981 325.824C137.501 326.037 136.946 326.144 136.317 326.144Z" fill="black"/>
</svg>
