<svg width="373" height="197" viewBox="0 0 373 197" fill="none" xmlns="http://www.w3.org/2000/svg">
<circle cx="27.9154" cy="184.531" r="6.97274" fill="#00B2EB"/>
<path d="M60.2971 177.228V189.684H58.6591V180.396L54.5191 189.684H53.3671L49.2091 180.378V189.684H47.5711V177.228H49.3351L53.9431 187.524L58.5511 177.228H60.2971ZM73.443 177.138L68.709 189.684H66.819L62.085 177.138H63.831L67.773 187.956L71.715 177.138H73.443ZM83.627 180.81C83.627 181.854 83.267 182.724 82.547 183.42C81.839 184.104 80.753 184.446 79.289 184.446H76.877V189.684H75.239V177.138H79.289C80.705 177.138 81.779 177.48 82.511 178.164C83.255 178.848 83.627 179.73 83.627 180.81ZM79.289 183.096C80.201 183.096 80.873 182.898 81.305 182.502C81.737 182.106 81.953 181.542 81.953 180.81C81.953 179.262 81.065 178.488 79.289 178.488H76.877V183.096H79.289ZM91.7829 172.728L86.8509 192.744H85.2309L90.1449 172.728H91.7829ZM102.611 180.81C102.611 181.854 102.251 182.724 101.531 183.42C100.823 184.104 99.7374 184.446 98.2734 184.446H95.8614V189.684H94.2234V177.138H98.2734C99.6894 177.138 100.763 177.48 101.495 178.164C102.239 178.848 102.611 179.73 102.611 180.81ZM98.2734 183.096C99.1854 183.096 99.8574 182.898 100.289 182.502C100.721 182.106 100.937 181.542 100.937 180.81C100.937 179.262 100.049 178.488 98.2734 178.488H95.8614V183.096H98.2734ZM110.335 189.81C109.171 189.81 108.109 189.54 107.149 189C106.189 188.448 105.427 187.686 104.863 186.714C104.311 185.73 104.035 184.626 104.035 183.402C104.035 182.178 104.311 181.08 104.863 180.108C105.427 179.124 106.189 178.362 107.149 177.822C108.109 177.27 109.171 176.994 110.335 176.994C111.511 176.994 112.579 177.27 113.539 177.822C114.499 178.362 115.255 179.118 115.807 180.09C116.359 181.062 116.635 182.166 116.635 183.402C116.635 184.638 116.359 185.742 115.807 186.714C115.255 187.686 114.499 188.448 113.539 189C112.579 189.54 111.511 189.81 110.335 189.81ZM110.335 188.388C111.211 188.388 111.997 188.184 112.693 187.776C113.401 187.368 113.953 186.786 114.349 186.03C114.757 185.274 114.961 184.398 114.961 183.402C114.961 182.394 114.757 181.518 114.349 180.774C113.953 180.018 113.407 179.436 112.711 179.028C112.015 178.62 111.223 178.416 110.335 178.416C109.447 178.416 108.655 178.62 107.959 179.028C107.263 179.436 106.711 180.018 106.303 180.774C105.907 181.518 105.709 182.394 105.709 183.402C105.709 184.398 105.907 185.274 106.303 186.03C106.711 186.786 107.263 187.368 107.959 187.776C108.667 188.184 109.459 188.388 110.335 188.388ZM118.186 183.402C118.186 182.178 118.462 181.08 119.014 180.108C119.566 179.124 120.316 178.356 121.264 177.804C122.224 177.252 123.286 176.976 124.45 176.976C125.818 176.976 127.012 177.306 128.032 177.966C129.052 178.626 129.796 179.562 130.264 180.774H128.302C127.954 180.018 127.45 179.436 126.79 179.028C126.142 178.62 125.362 178.416 124.45 178.416C123.574 178.416 122.788 178.62 122.092 179.028C121.396 179.436 120.85 180.018 120.454 180.774C120.058 181.518 119.86 182.394 119.86 183.402C119.86 184.398 120.058 185.274 120.454 186.03C120.85 186.774 121.396 187.35 122.092 187.758C122.788 188.166 123.574 188.37 124.45 188.37C125.362 188.37 126.142 188.172 126.79 187.776C127.45 187.368 127.954 186.786 128.302 186.03H130.264C129.796 187.23 129.052 188.16 128.032 188.82C127.012 189.468 125.818 189.792 124.45 189.792C123.286 189.792 122.224 189.522 121.264 188.982C120.316 188.43 119.566 187.668 119.014 186.696C118.462 185.724 118.186 184.626 118.186 183.402ZM136.889 184.716C136.889 183.708 137.093 182.826 137.501 182.07C137.909 181.302 138.467 180.708 139.175 180.288C139.895 179.868 140.693 179.658 141.569 179.658C142.433 179.658 143.183 179.844 143.819 180.216C144.455 180.588 144.929 181.056 145.241 181.62V179.82H146.897V189.684H145.241V187.848C144.917 188.424 144.431 188.904 143.783 189.288C143.147 189.66 142.403 189.846 141.551 189.846C140.675 189.846 139.883 189.63 139.175 189.198C138.467 188.766 137.909 188.16 137.501 187.38C137.093 186.6 136.889 185.712 136.889 184.716ZM145.241 184.734C145.241 183.99 145.091 183.342 144.791 182.79C144.491 182.238 144.083 181.818 143.567 181.53C143.063 181.23 142.505 181.08 141.893 181.08C141.281 181.08 140.723 181.224 140.219 181.512C139.715 181.8 139.313 182.22 139.013 182.772C138.713 183.324 138.563 183.972 138.563 184.716C138.563 185.472 138.713 186.132 139.013 186.696C139.313 187.248 139.715 187.674 140.219 187.974C140.723 188.262 141.281 188.406 141.893 188.406C142.505 188.406 143.063 188.262 143.567 187.974C144.083 187.674 144.491 187.248 144.791 186.696C145.091 186.132 145.241 185.478 145.241 184.734ZM154.471 179.64C155.671 179.64 156.643 180.006 157.387 180.738C158.131 181.458 158.503 182.502 158.503 183.87V189.684H156.883V184.104C156.883 183.12 156.637 182.37 156.145 181.854C155.653 181.326 154.981 181.062 154.129 181.062C153.265 181.062 152.575 181.332 152.059 181.872C151.555 182.412 151.303 183.198 151.303 184.23V189.684H149.665V179.82H151.303V181.224C151.627 180.72 152.065 180.33 152.617 180.054C153.181 179.778 153.799 179.64 154.471 179.64ZM160.567 184.716C160.567 183.708 160.771 182.826 161.179 182.07C161.587 181.302 162.145 180.708 162.853 180.288C163.573 179.868 164.377 179.658 165.265 179.658C166.033 179.658 166.747 179.838 167.407 180.198C168.067 180.546 168.571 181.008 168.919 181.584V176.364H170.575V189.684H168.919V187.83C168.595 188.418 168.115 188.904 167.479 189.288C166.843 189.66 166.099 189.846 165.247 189.846C164.371 189.846 163.573 189.63 162.853 189.198C162.145 188.766 161.587 188.16 161.179 187.38C160.771 186.6 160.567 185.712 160.567 184.716ZM168.919 184.734C168.919 183.99 168.769 183.342 168.469 182.79C168.169 182.238 167.761 181.818 167.245 181.53C166.741 181.23 166.183 181.08 165.571 181.08C164.959 181.08 164.401 181.224 163.897 181.512C163.393 181.8 162.991 182.22 162.691 182.772C162.391 183.324 162.241 183.972 162.241 184.716C162.241 185.472 162.391 186.132 162.691 186.696C162.991 187.248 163.393 187.674 163.897 187.974C164.401 188.262 164.959 188.406 165.571 188.406C166.183 188.406 166.741 188.262 167.245 187.974C167.761 187.674 168.169 187.248 168.469 186.696C168.769 186.132 168.919 185.478 168.919 184.734ZM178.987 178.218C178.675 178.218 178.411 178.11 178.195 177.894C177.979 177.678 177.871 177.414 177.871 177.102C177.871 176.79 177.979 176.526 178.195 176.31C178.411 176.094 178.675 175.986 178.987 175.986C179.287 175.986 179.539 176.094 179.743 176.31C179.959 176.526 180.067 176.79 180.067 177.102C180.067 177.414 179.959 177.678 179.743 177.894C179.539 178.11 179.287 178.218 178.987 178.218ZM179.779 179.82V189.684H178.141V179.82H179.779ZM187.377 179.64C188.577 179.64 189.549 180.006 190.293 180.738C191.037 181.458 191.409 182.502 191.409 183.87V189.684H189.789V184.104C189.789 183.12 189.543 182.37 189.051 181.854C188.559 181.326 187.887 181.062 187.035 181.062C186.171 181.062 185.481 181.332 184.965 181.872C184.461 182.412 184.209 183.198 184.209 184.23V189.684H182.571V179.82H184.209V181.224C184.533 180.72 184.971 180.33 185.523 180.054C186.087 179.778 186.705 179.64 187.377 179.64ZM193.473 184.734C193.473 183.714 193.677 182.826 194.085 182.07C194.493 181.302 195.057 180.708 195.777 180.288C196.509 179.868 197.343 179.658 198.279 179.658C199.491 179.658 200.487 179.952 201.267 180.54C202.059 181.128 202.581 181.944 202.833 182.988H201.069C200.901 182.388 200.571 181.914 200.079 181.566C199.599 181.218 198.999 181.044 198.279 181.044C197.343 181.044 196.587 181.368 196.011 182.016C195.435 182.652 195.147 183.558 195.147 184.734C195.147 185.922 195.435 186.84 196.011 187.488C196.587 188.136 197.343 188.46 198.279 188.46C198.999 188.46 199.599 188.292 200.079 187.956C200.559 187.62 200.889 187.14 201.069 186.516H202.833C202.569 187.524 202.041 188.334 201.249 188.946C200.457 189.546 199.467 189.846 198.279 189.846C197.343 189.846 196.509 189.636 195.777 189.216C195.057 188.796 194.493 188.202 194.085 187.434C193.677 186.666 193.473 185.766 193.473 184.734ZM209.32 189.846C208.396 189.846 207.556 189.636 206.8 189.216C206.056 188.796 205.468 188.202 205.036 187.434C204.616 186.654 204.406 185.754 204.406 184.734C204.406 183.726 204.622 182.838 205.054 182.07C205.498 181.29 206.098 180.696 206.854 180.288C207.61 179.868 208.456 179.658 209.392 179.658C210.328 179.658 211.174 179.868 211.93 180.288C212.686 180.696 213.28 181.284 213.712 182.052C214.156 182.82 214.378 183.714 214.378 184.734C214.378 185.754 214.15 186.654 213.694 187.434C213.25 188.202 212.644 188.796 211.876 189.216C211.108 189.636 210.256 189.846 209.32 189.846ZM209.32 188.406C209.908 188.406 210.46 188.268 210.976 187.992C211.492 187.716 211.906 187.302 212.218 186.75C212.542 186.198 212.704 185.526 212.704 184.734C212.704 183.942 212.548 183.27 212.236 182.718C211.924 182.166 211.516 181.758 211.012 181.494C210.508 181.218 209.962 181.08 209.374 181.08C208.774 181.08 208.222 181.218 207.718 181.494C207.226 181.758 206.83 182.166 206.53 182.718C206.23 183.27 206.08 183.942 206.08 184.734C206.08 185.538 206.224 186.216 206.512 186.768C206.812 187.32 207.208 187.734 207.7 188.01C208.192 188.274 208.732 188.406 209.32 188.406ZM218.17 181.422C218.458 180.858 218.866 180.42 219.394 180.108C219.934 179.796 220.588 179.64 221.356 179.64V181.332H220.924C219.088 181.332 218.17 182.328 218.17 184.32V189.684H216.532V179.82H218.17V181.422ZM224.885 181.638C225.209 181.074 225.689 180.606 226.325 180.234C226.973 179.85 227.723 179.658 228.575 179.658C229.451 179.658 230.243 179.868 230.951 180.288C231.671 180.708 232.235 181.302 232.643 182.07C233.051 182.826 233.255 183.708 233.255 184.716C233.255 185.712 233.051 186.6 232.643 187.38C232.235 188.16 231.671 188.766 230.951 189.198C230.243 189.63 229.451 189.846 228.575 189.846C227.735 189.846 226.991 189.66 226.343 189.288C225.707 188.904 225.221 188.43 224.885 187.866V194.364H223.247V179.82H224.885V181.638ZM231.581 184.716C231.581 183.972 231.431 183.324 231.131 182.772C230.831 182.22 230.423 181.8 229.907 181.512C229.403 181.224 228.845 181.08 228.233 181.08C227.633 181.08 227.075 181.23 226.559 181.53C226.055 181.818 225.647 182.244 225.335 182.808C225.035 183.36 224.885 184.002 224.885 184.734C224.885 185.478 225.035 186.132 225.335 186.696C225.647 187.248 226.055 187.674 226.559 187.974C227.075 188.262 227.633 188.406 228.233 188.406C228.845 188.406 229.403 188.262 229.907 187.974C230.423 187.674 230.831 187.248 231.131 186.696C231.431 186.132 231.581 185.472 231.581 184.716ZM239.713 189.846C238.789 189.846 237.949 189.636 237.193 189.216C236.449 188.796 235.861 188.202 235.429 187.434C235.009 186.654 234.799 185.754 234.799 184.734C234.799 183.726 235.015 182.838 235.447 182.07C235.891 181.29 236.491 180.696 237.247 180.288C238.003 179.868 238.849 179.658 239.785 179.658C240.721 179.658 241.567 179.868 242.323 180.288C243.079 180.696 243.673 181.284 244.105 182.052C244.549 182.82 244.771 183.714 244.771 184.734C244.771 185.754 244.543 186.654 244.087 187.434C243.643 188.202 243.037 188.796 242.269 189.216C241.501 189.636 240.649 189.846 239.713 189.846ZM239.713 188.406C240.301 188.406 240.853 188.268 241.369 187.992C241.885 187.716 242.299 187.302 242.611 186.75C242.935 186.198 243.097 185.526 243.097 184.734C243.097 183.942 242.941 183.27 242.629 182.718C242.317 182.166 241.909 181.758 241.405 181.494C240.901 181.218 240.355 181.08 239.767 181.08C239.167 181.08 238.615 181.218 238.111 181.494C237.619 181.758 237.223 182.166 236.923 182.718C236.623 183.27 236.473 183.942 236.473 184.734C236.473 185.538 236.617 186.216 236.905 186.768C237.205 187.32 237.601 187.734 238.093 188.01C238.585 188.274 239.125 188.406 239.713 188.406ZM248.563 181.422C248.851 180.858 249.259 180.42 249.787 180.108C250.327 179.796 250.981 179.64 251.749 179.64V181.332H251.317C249.481 181.332 248.563 182.328 248.563 184.32V189.684H246.925V179.82H248.563V181.422ZM253.027 184.716C253.027 183.708 253.231 182.826 253.639 182.07C254.047 181.302 254.605 180.708 255.313 180.288C256.033 179.868 256.831 179.658 257.707 179.658C258.571 179.658 259.321 179.844 259.957 180.216C260.593 180.588 261.067 181.056 261.379 181.62V179.82H263.035V189.684H261.379V187.848C261.055 188.424 260.569 188.904 259.921 189.288C259.285 189.66 258.541 189.846 257.689 189.846C256.813 189.846 256.021 189.63 255.313 189.198C254.605 188.766 254.047 188.16 253.639 187.38C253.231 186.6 253.027 185.712 253.027 184.716ZM261.379 184.734C261.379 183.99 261.229 183.342 260.929 182.79C260.629 182.238 260.221 181.818 259.705 181.53C259.201 181.23 258.643 181.08 258.031 181.08C257.419 181.08 256.861 181.224 256.357 181.512C255.853 181.8 255.451 182.22 255.151 182.772C254.851 183.324 254.701 183.972 254.701 184.716C254.701 185.472 254.851 186.132 255.151 186.696C255.451 187.248 255.853 187.674 256.357 187.974C256.861 188.262 257.419 188.406 258.031 188.406C258.643 188.406 259.201 188.262 259.705 187.974C260.221 187.674 260.629 187.248 260.929 186.696C261.229 186.132 261.379 185.478 261.379 184.734ZM267.802 181.17V186.984C267.802 187.464 267.904 187.806 268.108 188.01C268.312 188.202 268.666 188.298 269.17 188.298H270.376V189.684H268.9C267.988 189.684 267.304 189.474 266.848 189.054C266.392 188.634 266.164 187.944 266.164 186.984V181.17H264.886V179.82H266.164V177.336H267.802V179.82H270.376V181.17H267.802ZM281.36 184.374C281.36 184.686 281.342 185.016 281.306 185.364H273.422C273.482 186.336 273.812 187.098 274.412 187.65C275.024 188.19 275.762 188.46 276.626 188.46C277.334 188.46 277.922 188.298 278.39 187.974C278.87 187.638 279.206 187.194 279.398 186.642H281.162C280.898 187.59 280.37 188.364 279.578 188.964C278.786 189.552 277.802 189.846 276.626 189.846C275.69 189.846 274.85 189.636 274.106 189.216C273.374 188.796 272.798 188.202 272.378 187.434C271.958 186.654 271.748 185.754 271.748 184.734C271.748 183.714 271.952 182.82 272.36 182.052C272.768 181.284 273.338 180.696 274.07 180.288C274.814 179.868 275.666 179.658 276.626 179.658C277.562 179.658 278.39 179.862 279.11 180.27C279.83 180.678 280.382 181.242 280.766 181.962C281.162 182.67 281.36 183.474 281.36 184.374ZM279.668 184.032C279.668 183.408 279.53 182.874 279.254 182.43C278.978 181.974 278.6 181.632 278.12 181.404C277.652 181.164 277.13 181.044 276.554 181.044C275.726 181.044 275.018 181.308 274.43 181.836C273.854 182.364 273.524 183.096 273.44 184.032H279.668ZM292.335 181.17H290.265V189.684H288.627V181.17H287.349V179.82H288.627V179.118C288.627 178.014 288.909 177.21 289.473 176.706C290.049 176.19 290.967 175.932 292.227 175.932V177.3C291.507 177.3 290.997 177.444 290.697 177.732C290.409 178.008 290.265 178.47 290.265 179.118V179.82H292.335V181.17ZM303.245 184.374C303.245 184.686 303.227 185.016 303.191 185.364H295.307C295.367 186.336 295.697 187.098 296.297 187.65C296.909 188.19 297.647 188.46 298.511 188.46C299.219 188.46 299.807 188.298 300.275 187.974C300.755 187.638 301.091 187.194 301.283 186.642H303.047C302.783 187.59 302.255 188.364 301.463 188.964C300.671 189.552 299.687 189.846 298.511 189.846C297.575 189.846 296.735 189.636 295.991 189.216C295.259 188.796 294.683 188.202 294.263 187.434C293.843 186.654 293.633 185.754 293.633 184.734C293.633 183.714 293.837 182.82 294.245 182.052C294.653 181.284 295.223 180.696 295.955 180.288C296.699 179.868 297.551 179.658 298.511 179.658C299.447 179.658 300.275 179.862 300.995 180.27C301.715 180.678 302.267 181.242 302.651 181.962C303.047 182.67 303.245 183.474 303.245 184.374ZM301.553 184.032C301.553 183.408 301.415 182.874 301.139 182.43C300.863 181.974 300.485 181.632 300.005 181.404C299.537 181.164 299.015 181.044 298.439 181.044C297.611 181.044 296.903 181.308 296.315 181.836C295.739 182.364 295.409 183.096 295.325 184.032H301.553ZM314.407 184.374C314.407 184.686 314.389 185.016 314.353 185.364H306.469C306.529 186.336 306.859 187.098 307.459 187.65C308.071 188.19 308.809 188.46 309.673 188.46C310.381 188.46 310.969 188.298 311.437 187.974C311.917 187.638 312.253 187.194 312.445 186.642H314.209C313.945 187.59 313.417 188.364 312.625 188.964C311.833 189.552 310.849 189.846 309.673 189.846C308.737 189.846 307.897 189.636 307.153 189.216C306.421 188.796 305.845 188.202 305.425 187.434C305.005 186.654 304.795 185.754 304.795 184.734C304.795 183.714 304.999 182.82 305.407 182.052C305.815 181.284 306.385 180.696 307.117 180.288C307.861 179.868 308.713 179.658 309.673 179.658C310.609 179.658 311.437 179.862 312.157 180.27C312.877 180.678 313.429 181.242 313.813 181.962C314.209 182.67 314.407 183.474 314.407 184.374ZM312.715 184.032C312.715 183.408 312.577 182.874 312.301 182.43C312.025 181.974 311.647 181.632 311.167 181.404C310.699 181.164 310.177 181.044 309.601 181.044C308.773 181.044 308.065 181.308 307.477 181.836C306.901 182.364 306.571 183.096 306.487 184.032H312.715ZM315.957 184.716C315.957 183.708 316.161 182.826 316.569 182.07C316.977 181.302 317.535 180.708 318.243 180.288C318.963 179.868 319.767 179.658 320.655 179.658C321.423 179.658 322.137 179.838 322.797 180.198C323.457 180.546 323.961 181.008 324.309 181.584V176.364H325.965V189.684H324.309V187.83C323.985 188.418 323.505 188.904 322.869 189.288C322.233 189.66 321.489 189.846 320.637 189.846C319.761 189.846 318.963 189.63 318.243 189.198C317.535 188.766 316.977 188.16 316.569 187.38C316.161 186.6 315.957 185.712 315.957 184.716ZM324.309 184.734C324.309 183.99 324.159 183.342 323.859 182.79C323.559 182.238 323.151 181.818 322.635 181.53C322.131 181.23 321.573 181.08 320.961 181.08C320.349 181.08 319.791 181.224 319.287 181.512C318.783 181.8 318.381 182.22 318.081 182.772C317.781 183.324 317.631 183.972 317.631 184.716C317.631 185.472 317.781 186.132 318.081 186.696C318.381 187.248 318.783 187.674 319.287 187.974C319.791 188.262 320.349 188.406 320.961 188.406C321.573 188.406 322.131 188.262 322.635 187.974C323.151 187.674 323.559 187.248 323.859 186.696C324.159 186.132 324.309 185.478 324.309 184.734ZM330.371 181.656C330.707 181.068 331.199 180.588 331.847 180.216C332.495 179.844 333.233 179.658 334.061 179.658C334.949 179.658 335.747 179.868 336.455 180.288C337.163 180.708 337.721 181.302 338.129 182.07C338.537 182.826 338.741 183.708 338.741 184.716C338.741 185.712 338.537 186.6 338.129 187.38C337.721 188.16 337.157 188.766 336.437 189.198C335.729 189.63 334.937 189.846 334.061 189.846C333.209 189.846 332.459 189.66 331.811 189.288C331.175 188.916 330.695 188.442 330.371 187.866V189.684H328.733V176.364H330.371V181.656ZM337.067 184.716C337.067 183.972 336.917 183.324 336.617 182.772C336.317 182.22 335.909 181.8 335.393 181.512C334.889 181.224 334.331 181.08 333.719 181.08C333.119 181.08 332.561 181.23 332.045 181.53C331.541 181.818 331.133 182.244 330.821 182.808C330.521 183.36 330.371 184.002 330.371 184.734C330.371 185.478 330.521 186.132 330.821 186.696C331.133 187.248 331.541 187.674 332.045 187.974C332.561 188.262 333.119 188.406 333.719 188.406C334.331 188.406 334.889 188.262 335.393 187.974C335.909 187.674 336.317 187.248 336.617 186.696C336.917 186.132 337.067 185.472 337.067 184.716ZM340.285 184.716C340.285 183.708 340.489 182.826 340.897 182.07C341.305 181.302 341.863 180.708 342.571 180.288C343.291 179.868 344.089 179.658 344.965 179.658C345.829 179.658 346.579 179.844 347.215 180.216C347.851 180.588 348.325 181.056 348.637 181.62V179.82H350.293V189.684H348.637V187.848C348.313 188.424 347.827 188.904 347.179 189.288C346.543 189.66 345.799 189.846 344.947 189.846C344.071 189.846 343.279 189.63 342.571 189.198C341.863 188.766 341.305 188.16 340.897 187.38C340.489 186.6 340.285 185.712 340.285 184.716ZM348.637 184.734C348.637 183.99 348.487 183.342 348.187 182.79C347.887 182.238 347.479 181.818 346.963 181.53C346.459 181.23 345.901 181.08 345.289 181.08C344.677 181.08 344.119 181.224 343.615 181.512C343.111 181.8 342.709 182.22 342.409 182.772C342.109 183.324 341.959 183.972 341.959 184.716C341.959 185.472 342.109 186.132 342.409 186.696C342.709 187.248 343.111 187.674 343.615 187.974C344.119 188.262 344.677 188.406 345.289 188.406C345.901 188.406 346.459 188.262 346.963 187.974C347.479 187.674 347.887 187.248 348.187 186.696C348.487 186.132 348.637 185.478 348.637 184.734ZM352.449 184.734C352.449 183.714 352.653 182.826 353.061 182.07C353.469 181.302 354.033 180.708 354.753 180.288C355.485 179.868 356.319 179.658 357.255 179.658C358.467 179.658 359.463 179.952 360.243 180.54C361.035 181.128 361.557 181.944 361.809 182.988H360.045C359.877 182.388 359.547 181.914 359.055 181.566C358.575 181.218 357.975 181.044 357.255 181.044C356.319 181.044 355.563 181.368 354.987 182.016C354.411 182.652 354.123 183.558 354.123 184.734C354.123 185.922 354.411 186.84 354.987 187.488C355.563 188.136 356.319 188.46 357.255 188.46C357.975 188.46 358.575 188.292 359.055 187.956C359.535 187.62 359.865 187.14 360.045 186.516H361.809C361.545 187.524 361.017 188.334 360.225 188.946C359.433 189.546 358.443 189.846 357.255 189.846C356.319 189.846 355.485 189.636 354.753 189.216C354.033 188.796 353.469 188.202 353.061 187.434C352.653 186.666 352.449 185.766 352.449 184.734ZM369.503 189.684L365.633 185.328V189.684H363.995V176.364H365.633V184.194L369.431 179.82H371.717L367.073 184.734L371.735 189.684H369.503Z" fill="black"/>
<circle cx="27.9154" cy="120.298" r="6.97274" fill="#00B2EB"/>
<path d="M47.2091 115.238V119.432H51.7811V120.782H47.2091V125.102H52.3211V126.452H45.5711V113.888H52.3211V115.238H47.2091ZM59.9476 126.452L57.6076 122.78L55.3576 126.452H53.6476L56.8336 121.556L53.6476 116.588H55.5016L57.8416 120.242L60.0736 116.588H61.7836L58.6156 121.466L61.8016 126.452H59.9476ZM72.4129 121.142C72.4129 121.454 72.3949 121.784 72.3589 122.132H64.4749C64.5349 123.104 64.8649 123.866 65.4649 124.418C66.0769 124.958 66.8149 125.228 67.6789 125.228C68.3869 125.228 68.9749 125.066 69.4429 124.742C69.9229 124.406 70.2589 123.962 70.4509 123.41H72.2149C71.9509 124.358 71.4229 125.132 70.6309 125.732C69.8389 126.32 68.8549 126.614 67.6789 126.614C66.7429 126.614 65.9029 126.404 65.1589 125.984C64.4269 125.564 63.8509 124.97 63.4309 124.202C63.0109 123.422 62.8009 122.522 62.8009 121.502C62.8009 120.482 63.0049 119.588 63.4129 118.82C63.8209 118.052 64.3909 117.464 65.1229 117.056C65.8669 116.636 66.7189 116.426 67.6789 116.426C68.6149 116.426 69.4429 116.63 70.1629 117.038C70.8829 117.446 71.4349 118.01 71.8189 118.73C72.2149 119.438 72.4129 120.242 72.4129 121.142ZM70.7209 120.8C70.7209 120.176 70.5829 119.642 70.3069 119.198C70.0309 118.742 69.6529 118.4 69.1729 118.172C68.7049 117.932 68.1829 117.812 67.6069 117.812C66.7789 117.812 66.0709 118.076 65.4829 118.604C64.9069 119.132 64.5769 119.864 64.4929 120.8H70.7209ZM73.963 121.502C73.963 120.482 74.167 119.594 74.575 118.838C74.983 118.07 75.547 117.476 76.267 117.056C76.999 116.636 77.833 116.426 78.769 116.426C79.981 116.426 80.977 116.72 81.757 117.308C82.549 117.896 83.071 118.712 83.323 119.756H81.559C81.391 119.156 81.061 118.682 80.569 118.334C80.089 117.986 79.489 117.812 78.769 117.812C77.833 117.812 77.077 118.136 76.501 118.784C75.925 119.42 75.637 120.326 75.637 121.502C75.637 122.69 75.925 123.608 76.501 124.256C77.077 124.904 77.833 125.228 78.769 125.228C79.489 125.228 80.089 125.06 80.569 124.724C81.049 124.388 81.379 123.908 81.559 123.284H83.323C83.059 124.292 82.531 125.102 81.739 125.714C80.947 126.314 79.957 126.614 78.769 126.614C77.833 126.614 76.999 126.404 76.267 125.984C75.547 125.564 74.983 124.97 74.575 124.202C74.167 123.434 73.963 122.534 73.963 121.502ZM94.2566 116.588V126.452H92.6186V124.994C92.3066 125.498 91.8686 125.894 91.3046 126.182C90.7526 126.458 90.1406 126.596 89.4686 126.596C88.7006 126.596 88.0106 126.44 87.3986 126.128C86.7866 125.804 86.3006 125.324 85.9406 124.688C85.5926 124.052 85.4186 123.278 85.4186 122.366V116.588H87.0386V122.15C87.0386 123.122 87.2846 123.872 87.7766 124.4C88.2686 124.916 88.9406 125.174 89.7926 125.174C90.6686 125.174 91.3586 124.904 91.8626 124.364C92.3666 123.824 92.6186 123.038 92.6186 122.006V116.588H94.2566ZM99.0203 117.938V123.752C99.0203 124.232 99.1223 124.574 99.3263 124.778C99.5303 124.97 99.8843 125.066 100.388 125.066H101.594V126.452H100.118C99.2063 126.452 98.5223 126.242 98.0663 125.822C97.6103 125.402 97.3823 124.712 97.3823 123.752V117.938H96.1043V116.588H97.3823V114.104H99.0203V116.588H101.594V117.938H99.0203ZM104.425 114.986C104.113 114.986 103.849 114.878 103.633 114.662C103.417 114.446 103.309 114.182 103.309 113.87C103.309 113.558 103.417 113.294 103.633 113.078C103.849 112.862 104.113 112.754 104.425 112.754C104.725 112.754 104.977 112.862 105.181 113.078C105.397 113.294 105.505 113.558 105.505 113.87C105.505 114.182 105.397 114.446 105.181 114.662C104.977 114.878 104.725 114.986 104.425 114.986ZM105.217 116.588V126.452H103.579V116.588H105.217ZM112.815 116.408C114.015 116.408 114.987 116.774 115.731 117.506C116.475 118.226 116.847 119.27 116.847 120.638V126.452H115.227V120.872C115.227 119.888 114.981 119.138 114.489 118.622C113.997 118.094 113.325 117.83 112.473 117.83C111.609 117.83 110.919 118.1 110.403 118.64C109.899 119.18 109.647 119.966 109.647 120.998V126.452H108.009V116.588H109.647V117.992C109.971 117.488 110.409 117.098 110.961 116.822C111.525 116.546 112.143 116.408 112.815 116.408ZM123.59 116.426C124.442 116.426 125.186 116.612 125.822 116.984C126.47 117.356 126.95 117.824 127.262 118.388V116.588H128.918V126.668C128.918 127.568 128.726 128.366 128.342 129.062C127.958 129.77 127.406 130.322 126.686 130.718C125.978 131.114 125.15 131.312 124.202 131.312C122.906 131.312 121.826 131.006 120.962 130.394C120.098 129.782 119.588 128.948 119.432 127.892H121.052C121.232 128.492 121.604 128.972 122.168 129.332C122.732 129.704 123.41 129.89 124.202 129.89C125.102 129.89 125.834 129.608 126.398 129.044C126.974 128.48 127.262 127.688 127.262 126.668V124.598C126.938 125.174 126.458 125.654 125.822 126.038C125.186 126.422 124.442 126.614 123.59 126.614C122.714 126.614 121.916 126.398 121.196 125.966C120.488 125.534 119.93 124.928 119.522 124.148C119.114 123.368 118.91 122.48 118.91 121.484C118.91 120.476 119.114 119.594 119.522 118.838C119.93 118.07 120.488 117.476 121.196 117.056C121.916 116.636 122.714 116.426 123.59 116.426ZM127.262 121.502C127.262 120.758 127.112 120.11 126.812 119.558C126.512 119.006 126.104 118.586 125.588 118.298C125.084 117.998 124.526 117.848 123.914 117.848C123.302 117.848 122.744 117.992 122.24 118.28C121.736 118.568 121.334 118.988 121.034 119.54C120.734 120.092 120.584 120.74 120.584 121.484C120.584 122.24 120.734 122.9 121.034 123.464C121.334 124.016 121.736 124.442 122.24 124.742C122.744 125.03 123.302 125.174 123.914 125.174C124.526 125.174 125.084 125.03 125.588 124.742C126.104 124.442 126.512 124.016 126.812 123.464C127.112 122.9 127.262 122.246 127.262 121.502ZM133.378 124.184L131.362 129.026H130.264L131.578 124.184H133.378ZM147.776 113.906V115.238H144.356V126.452H142.718V115.238H139.28V113.906H147.776ZM158.792 121.142C158.792 121.454 158.774 121.784 158.738 122.132H150.854C150.914 123.104 151.244 123.866 151.844 124.418C152.456 124.958 153.194 125.228 154.058 125.228C154.766 125.228 155.354 125.066 155.822 124.742C156.302 124.406 156.638 123.962 156.83 123.41H158.594C158.33 124.358 157.802 125.132 157.01 125.732C156.218 126.32 155.234 126.614 154.058 126.614C153.122 126.614 152.282 126.404 151.538 125.984C150.806 125.564 150.23 124.97 149.81 124.202C149.39 123.422 149.18 122.522 149.18 121.502C149.18 120.482 149.384 119.588 149.792 118.82C150.2 118.052 150.77 117.464 151.502 117.056C152.246 116.636 153.098 116.426 154.058 116.426C154.994 116.426 155.822 116.63 156.542 117.038C157.262 117.446 157.814 118.01 158.198 118.73C158.594 119.438 158.792 120.242 158.792 121.142ZM157.1 120.8C157.1 120.176 156.962 119.642 156.686 119.198C156.41 118.742 156.032 118.4 155.552 118.172C155.084 117.932 154.562 117.812 153.986 117.812C153.158 117.812 152.45 118.076 151.862 118.604C151.286 119.132 150.956 119.864 150.872 120.8H157.1ZM164.446 126.614C163.69 126.614 163.012 126.488 162.412 126.236C161.812 125.972 161.338 125.612 160.99 125.156C160.642 124.688 160.45 124.154 160.414 123.554H162.106C162.154 124.046 162.382 124.448 162.79 124.76C163.21 125.072 163.756 125.228 164.428 125.228C165.052 125.228 165.544 125.09 165.904 124.814C166.264 124.538 166.444 124.19 166.444 123.77C166.444 123.338 166.252 123.02 165.868 122.816C165.484 122.6 164.89 122.39 164.086 122.186C163.354 121.994 162.754 121.802 162.286 121.61C161.83 121.406 161.434 121.112 161.098 120.728C160.774 120.332 160.612 119.816 160.612 119.18C160.612 118.676 160.762 118.214 161.062 117.794C161.362 117.374 161.788 117.044 162.34 116.804C162.892 116.552 163.522 116.426 164.23 116.426C165.322 116.426 166.204 116.702 166.876 117.254C167.548 117.806 167.908 118.562 167.956 119.522H166.318C166.282 119.006 166.072 118.592 165.688 118.28C165.316 117.968 164.812 117.812 164.176 117.812C163.588 117.812 163.12 117.938 162.772 118.19C162.424 118.442 162.25 118.772 162.25 119.18C162.25 119.504 162.352 119.774 162.556 119.99C162.772 120.194 163.036 120.362 163.348 120.494C163.672 120.614 164.116 120.752 164.68 120.908C165.388 121.1 165.964 121.292 166.408 121.484C166.852 121.664 167.23 121.94 167.542 122.312C167.866 122.684 168.034 123.17 168.046 123.77C168.046 124.31 167.896 124.796 167.596 125.228C167.296 125.66 166.87 126.002 166.318 126.254C165.778 126.494 165.154 126.614 164.446 126.614ZM172.356 117.938V123.752C172.356 124.232 172.458 124.574 172.662 124.778C172.866 124.97 173.22 125.066 173.724 125.066H174.93V126.452H173.454C172.542 126.452 171.858 126.242 171.402 125.822C170.946 125.402 170.718 124.712 170.718 123.752V117.938H169.44V116.588H170.718V114.104H172.356V116.588H174.93V117.938H172.356ZM177.761 114.986C177.449 114.986 177.185 114.878 176.969 114.662C176.753 114.446 176.645 114.182 176.645 113.87C176.645 113.558 176.753 113.294 176.969 113.078C177.185 112.862 177.449 112.754 177.761 112.754C178.061 112.754 178.313 112.862 178.517 113.078C178.733 113.294 178.841 113.558 178.841 113.87C178.841 114.182 178.733 114.446 178.517 114.662C178.313 114.878 178.061 114.986 177.761 114.986ZM178.553 116.588V126.452H176.915V116.588H178.553ZM186.151 116.408C187.351 116.408 188.323 116.774 189.067 117.506C189.811 118.226 190.183 119.27 190.183 120.638V126.452H188.563V120.872C188.563 119.888 188.317 119.138 187.825 118.622C187.333 118.094 186.661 117.83 185.809 117.83C184.945 117.83 184.255 118.1 183.739 118.64C183.235 119.18 182.983 119.966 182.983 120.998V126.452H181.345V116.588H182.983V117.992C183.307 117.488 183.745 117.098 184.297 116.822C184.861 116.546 185.479 116.408 186.151 116.408ZM196.926 116.426C197.778 116.426 198.522 116.612 199.158 116.984C199.806 117.356 200.286 117.824 200.598 118.388V116.588H202.254V126.668C202.254 127.568 202.062 128.366 201.678 129.062C201.294 129.77 200.742 130.322 200.022 130.718C199.314 131.114 198.486 131.312 197.538 131.312C196.242 131.312 195.162 131.006 194.298 130.394C193.434 129.782 192.924 128.948 192.768 127.892H194.388C194.568 128.492 194.94 128.972 195.504 129.332C196.068 129.704 196.746 129.89 197.538 129.89C198.438 129.89 199.17 129.608 199.734 129.044C200.31 128.48 200.598 127.688 200.598 126.668V124.598C200.274 125.174 199.794 125.654 199.158 126.038C198.522 126.422 197.778 126.614 196.926 126.614C196.05 126.614 195.252 126.398 194.532 125.966C193.824 125.534 193.266 124.928 192.858 124.148C192.45 123.368 192.246 122.48 192.246 121.484C192.246 120.476 192.45 119.594 192.858 118.838C193.266 118.07 193.824 117.476 194.532 117.056C195.252 116.636 196.05 116.426 196.926 116.426ZM200.598 121.502C200.598 120.758 200.448 120.11 200.148 119.558C199.848 119.006 199.44 118.586 198.924 118.298C198.42 117.998 197.862 117.848 197.25 117.848C196.638 117.848 196.08 117.992 195.576 118.28C195.072 118.568 194.67 118.988 194.37 119.54C194.07 120.092 193.92 120.74 193.92 121.484C193.92 122.24 194.07 122.9 194.37 123.464C194.67 124.016 195.072 124.442 195.576 124.742C196.08 125.03 196.638 125.174 197.25 125.174C197.862 125.174 198.42 125.03 198.924 124.742C199.44 124.442 199.848 124.016 200.148 123.464C200.448 122.9 200.598 122.246 200.598 121.502ZM209.209 121.484C209.209 120.476 209.413 119.594 209.821 118.838C210.229 118.07 210.787 117.476 211.495 117.056C212.215 116.636 213.013 116.426 213.889 116.426C214.753 116.426 215.503 116.612 216.139 116.984C216.775 117.356 217.249 117.824 217.561 118.388V116.588H219.217V126.452H217.561V124.616C217.237 125.192 216.751 125.672 216.103 126.056C215.467 126.428 214.723 126.614 213.871 126.614C212.995 126.614 212.203 126.398 211.495 125.966C210.787 125.534 210.229 124.928 209.821 124.148C209.413 123.368 209.209 122.48 209.209 121.484ZM217.561 121.502C217.561 120.758 217.411 120.11 217.111 119.558C216.811 119.006 216.403 118.586 215.887 118.298C215.383 117.998 214.825 117.848 214.213 117.848C213.601 117.848 213.043 117.992 212.539 118.28C212.035 118.568 211.633 118.988 211.333 119.54C211.033 120.092 210.883 120.74 210.883 121.484C210.883 122.24 211.033 122.9 211.333 123.464C211.633 124.016 212.035 124.442 212.539 124.742C213.043 125.03 213.601 125.174 214.213 125.174C214.825 125.174 215.383 125.03 215.887 124.742C216.403 124.442 216.811 124.016 217.111 123.464C217.411 122.9 217.561 122.246 217.561 121.502ZM226.791 116.408C227.991 116.408 228.963 116.774 229.707 117.506C230.451 118.226 230.823 119.27 230.823 120.638V126.452H229.203V120.872C229.203 119.888 228.957 119.138 228.465 118.622C227.973 118.094 227.301 117.83 226.449 117.83C225.585 117.83 224.895 118.1 224.379 118.64C223.875 119.18 223.623 119.966 223.623 120.998V126.452H221.985V116.588H223.623V117.992C223.947 117.488 224.385 117.098 224.937 116.822C225.501 116.546 226.119 116.408 226.791 116.408ZM232.887 121.484C232.887 120.476 233.091 119.594 233.499 118.838C233.907 118.07 234.465 117.476 235.173 117.056C235.893 116.636 236.697 116.426 237.585 116.426C238.353 116.426 239.067 116.606 239.727 116.966C240.387 117.314 240.891 117.776 241.239 118.352V113.132H242.895V126.452H241.239V124.598C240.915 125.186 240.435 125.672 239.799 126.056C239.163 126.428 238.419 126.614 237.567 126.614C236.691 126.614 235.893 126.398 235.173 125.966C234.465 125.534 233.907 124.928 233.499 124.148C233.091 123.368 232.887 122.48 232.887 121.484ZM241.239 121.502C241.239 120.758 241.089 120.11 240.789 119.558C240.489 119.006 240.081 118.586 239.565 118.298C239.061 117.998 238.503 117.848 237.891 117.848C237.279 117.848 236.721 117.992 236.217 118.28C235.713 118.568 235.311 118.988 235.011 119.54C234.711 120.092 234.561 120.74 234.561 121.484C234.561 122.24 234.711 122.9 235.011 123.464C235.311 124.016 235.713 124.442 236.217 124.742C236.721 125.03 237.279 125.174 237.891 125.174C238.503 125.174 239.061 125.03 239.565 124.742C240.081 124.442 240.489 124.016 240.789 123.464C241.089 122.9 241.239 122.246 241.239 121.502ZM257.068 126.452L254.08 121.322H252.1V126.452H250.462V113.906H254.512C255.46 113.906 256.258 114.068 256.906 114.392C257.566 114.716 258.058 115.154 258.382 115.706C258.706 116.258 258.868 116.888 258.868 117.596C258.868 118.46 258.616 119.222 258.112 119.882C257.62 120.542 256.876 120.98 255.88 121.196L259.03 126.452H257.068ZM252.1 120.008H254.512C255.4 120.008 256.066 119.792 256.51 119.36C256.954 118.916 257.176 118.328 257.176 117.596C257.176 116.852 256.954 116.276 256.51 115.868C256.078 115.46 255.412 115.256 254.512 115.256H252.1V120.008ZM270.413 121.142C270.413 121.454 270.395 121.784 270.359 122.132H262.475C262.535 123.104 262.865 123.866 263.465 124.418C264.077 124.958 264.815 125.228 265.679 125.228C266.387 125.228 266.975 125.066 267.443 124.742C267.923 124.406 268.259 123.962 268.451 123.41H270.215C269.951 124.358 269.423 125.132 268.631 125.732C267.839 126.32 266.855 126.614 265.679 126.614C264.743 126.614 263.903 126.404 263.159 125.984C262.427 125.564 261.851 124.97 261.431 124.202C261.011 123.422 260.801 122.522 260.801 121.502C260.801 120.482 261.005 119.588 261.413 118.82C261.821 118.052 262.391 117.464 263.123 117.056C263.867 116.636 264.719 116.426 265.679 116.426C266.615 116.426 267.443 116.63 268.163 117.038C268.883 117.446 269.435 118.01 269.819 118.73C270.215 119.438 270.413 120.242 270.413 121.142ZM268.721 120.8C268.721 120.176 268.583 119.642 268.307 119.198C268.031 118.742 267.653 118.4 267.173 118.172C266.705 117.932 266.183 117.812 265.607 117.812C264.779 117.812 264.071 118.076 263.483 118.604C262.907 119.132 262.577 119.864 262.493 120.8H268.721ZM274.213 113.132V126.452H272.575V113.132H274.213ZM286.005 121.142C286.005 121.454 285.987 121.784 285.951 122.132H278.067C278.127 123.104 278.457 123.866 279.057 124.418C279.669 124.958 280.407 125.228 281.271 125.228C281.979 125.228 282.567 125.066 283.035 124.742C283.515 124.406 283.851 123.962 284.043 123.41H285.807C285.543 124.358 285.015 125.132 284.223 125.732C283.431 126.32 282.447 126.614 281.271 126.614C280.335 126.614 279.495 126.404 278.751 125.984C278.019 125.564 277.443 124.97 277.023 124.202C276.603 123.422 276.393 122.522 276.393 121.502C276.393 120.482 276.597 119.588 277.005 118.82C277.413 118.052 277.983 117.464 278.715 117.056C279.459 116.636 280.311 116.426 281.271 116.426C282.207 116.426 283.035 116.63 283.755 117.038C284.475 117.446 285.027 118.01 285.411 118.73C285.807 119.438 286.005 120.242 286.005 121.142ZM284.313 120.8C284.313 120.176 284.175 119.642 283.899 119.198C283.623 118.742 283.245 118.4 282.765 118.172C282.297 117.932 281.775 117.812 281.199 117.812C280.371 117.812 279.663 118.076 279.075 118.604C278.499 119.132 278.169 119.864 278.085 120.8H284.313ZM287.555 121.484C287.555 120.476 287.759 119.594 288.167 118.838C288.575 118.07 289.133 117.476 289.841 117.056C290.561 116.636 291.359 116.426 292.235 116.426C293.099 116.426 293.849 116.612 294.485 116.984C295.121 117.356 295.595 117.824 295.907 118.388V116.588H297.563V126.452H295.907V124.616C295.583 125.192 295.097 125.672 294.449 126.056C293.813 126.428 293.069 126.614 292.217 126.614C291.341 126.614 290.549 126.398 289.841 125.966C289.133 125.534 288.575 124.928 288.167 124.148C287.759 123.368 287.555 122.48 287.555 121.484ZM295.907 121.502C295.907 120.758 295.757 120.11 295.457 119.558C295.157 119.006 294.749 118.586 294.233 118.298C293.729 117.998 293.171 117.848 292.559 117.848C291.947 117.848 291.389 117.992 290.885 118.28C290.381 118.568 289.979 118.988 289.679 119.54C289.379 120.092 289.229 120.74 289.229 121.484C289.229 122.24 289.379 122.9 289.679 123.464C289.979 124.016 290.381 124.442 290.885 124.742C291.389 125.03 291.947 125.174 292.559 125.174C293.171 125.174 293.729 125.03 294.233 124.742C294.749 124.442 295.157 124.016 295.457 123.464C295.757 122.9 295.907 122.246 295.907 121.502ZM303.823 126.614C303.067 126.614 302.389 126.488 301.789 126.236C301.189 125.972 300.715 125.612 300.367 125.156C300.019 124.688 299.827 124.154 299.791 123.554H301.483C301.531 124.046 301.759 124.448 302.167 124.76C302.587 125.072 303.133 125.228 303.805 125.228C304.429 125.228 304.921 125.09 305.281 124.814C305.641 124.538 305.821 124.19 305.821 123.77C305.821 123.338 305.629 123.02 305.245 122.816C304.861 122.6 304.267 122.39 303.463 122.186C302.731 121.994 302.131 121.802 301.663 121.61C301.207 121.406 300.811 121.112 300.475 120.728C300.151 120.332 299.989 119.816 299.989 119.18C299.989 118.676 300.139 118.214 300.439 117.794C300.739 117.374 301.165 117.044 301.717 116.804C302.269 116.552 302.899 116.426 303.607 116.426C304.699 116.426 305.581 116.702 306.253 117.254C306.925 117.806 307.285 118.562 307.333 119.522H305.695C305.659 119.006 305.449 118.592 305.065 118.28C304.693 117.968 304.189 117.812 303.553 117.812C302.965 117.812 302.497 117.938 302.149 118.19C301.801 118.442 301.627 118.772 301.627 119.18C301.627 119.504 301.729 119.774 301.933 119.99C302.149 120.194 302.413 120.362 302.725 120.494C303.049 120.614 303.493 120.752 304.057 120.908C304.765 121.1 305.341 121.292 305.785 121.484C306.229 121.664 306.607 121.94 306.919 122.312C307.243 122.684 307.411 123.17 307.423 123.77C307.423 124.31 307.273 124.796 306.973 125.228C306.673 125.66 306.247 126.002 305.695 126.254C305.155 126.494 304.531 126.614 303.823 126.614ZM318.735 121.142C318.735 121.454 318.717 121.784 318.681 122.132H310.797C310.857 123.104 311.187 123.866 311.787 124.418C312.399 124.958 313.137 125.228 314.001 125.228C314.709 125.228 315.297 125.066 315.765 124.742C316.245 124.406 316.581 123.962 316.773 123.41H318.537C318.273 124.358 317.745 125.132 316.953 125.732C316.161 126.32 315.177 126.614 314.001 126.614C313.065 126.614 312.225 126.404 311.481 125.984C310.749 125.564 310.173 124.97 309.753 124.202C309.333 123.422 309.123 122.522 309.123 121.502C309.123 120.482 309.327 119.588 309.735 118.82C310.143 118.052 310.713 117.464 311.445 117.056C312.189 116.636 313.041 116.426 314.001 116.426C314.937 116.426 315.765 116.63 316.485 117.038C317.205 117.446 317.757 118.01 318.141 118.73C318.537 119.438 318.735 120.242 318.735 121.142ZM317.043 120.8C317.043 120.176 316.905 119.642 316.629 119.198C316.353 118.742 315.975 118.4 315.495 118.172C315.027 117.932 314.505 117.812 313.929 117.812C313.101 117.812 312.393 118.076 311.805 118.604C311.229 119.132 310.899 119.864 310.815 120.8H317.043Z" fill="black"/>
<rect width="315.323" height="54.2324" rx="20" fill="#DBF1FE" fill-opacity="0.65"/>
<path d="M29.648 19.71V21.756H23.158V26.266H28.218V28.312H23.158V35H20.65V19.71H29.648ZM33.6883 21.272C33.2336 21.272 32.8523 21.118 32.5443 20.81C32.2363 20.502 32.0823 20.1207 32.0823 19.666C32.0823 19.2113 32.2363 18.83 32.5443 18.522C32.8523 18.214 33.2336 18.06 33.6883 18.06C34.1283 18.06 34.5023 18.214 34.8103 18.522C35.1183 18.83 35.2723 19.2113 35.2723 19.666C35.2723 20.1207 35.1183 20.502 34.8103 20.81C34.5023 21.118 34.1283 21.272 33.6883 21.272ZM34.9203 22.878V35H32.4123V22.878H34.9203ZM44.769 22.68C45.7224 22.68 46.573 22.878 47.321 23.274C48.0837 23.67 48.6777 24.2567 49.103 25.034C49.5284 25.8113 49.741 26.75 49.741 27.85V35H47.255V28.224C47.255 27.1387 46.9837 26.31 46.441 25.738C45.8984 25.1513 45.1577 24.858 44.219 24.858C43.2804 24.858 42.5324 25.1513 41.975 25.738C41.4324 26.31 41.161 27.1387 41.161 28.224V35H38.653V22.878H41.161V24.264C41.5717 23.7653 42.0924 23.3767 42.723 23.098C43.3684 22.8193 44.0504 22.68 44.769 22.68ZM52.5442 28.884C52.5442 27.6667 52.7935 26.5887 53.2922 25.65C53.8055 24.7113 54.4948 23.9853 55.3602 23.472C56.2402 22.944 57.2082 22.68 58.2642 22.68C59.2175 22.68 60.0462 22.8707 60.7502 23.252C61.4688 23.6187 62.0408 24.0807 62.4662 24.638V22.878H64.9962V35H62.4662V33.196C62.0408 33.768 61.4615 34.2447 60.7282 34.626C59.9948 35.0073 59.1588 35.198 58.2202 35.198C57.1788 35.198 56.2255 34.934 55.3602 34.406C54.4948 33.8633 53.8055 33.1153 53.2922 32.162C52.7935 31.194 52.5442 30.1013 52.5442 28.884ZM62.4662 28.928C62.4662 28.092 62.2902 27.366 61.9382 26.75C61.6008 26.134 61.1535 25.6647 60.5962 25.342C60.0388 25.0193 59.4375 24.858 58.7922 24.858C58.1468 24.858 57.5455 25.0193 56.9882 25.342C56.4308 25.65 55.9762 26.112 55.6242 26.728C55.2868 27.3293 55.1182 28.048 55.1182 28.884C55.1182 29.72 55.2868 30.4533 55.6242 31.084C55.9762 31.7147 56.4308 32.1987 56.9882 32.536C57.5602 32.8587 58.1615 33.02 58.7922 33.02C59.4375 33.02 60.0388 32.8587 60.5962 32.536C61.1535 32.2133 61.6008 31.744 61.9382 31.128C62.2902 30.4973 62.4662 29.764 62.4662 28.928ZM71.2383 18.72V35H68.7303V18.72H71.2383ZM76.2471 21.272C75.7924 21.272 75.4111 21.118 75.1031 20.81C74.7951 20.502 74.6411 20.1207 74.6411 19.666C74.6411 19.2113 74.7951 18.83 75.1031 18.522C75.4111 18.214 75.7924 18.06 76.2471 18.06C76.6871 18.06 77.0611 18.214 77.3691 18.522C77.6771 18.83 77.8311 19.2113 77.8311 19.666C77.8311 20.1207 77.6771 20.502 77.3691 20.81C77.0611 21.118 76.6871 21.272 76.2471 21.272ZM77.4791 22.878V35H74.9711V22.878H77.4791ZM85.6119 35.198C84.6585 35.198 83.8005 35.0293 83.0379 34.692C82.2899 34.34 81.6959 33.8707 81.2559 33.284C80.8159 32.6827 80.5812 32.0153 80.5519 31.282H83.1479C83.1919 31.7953 83.4339 32.228 83.8739 32.58C84.3285 32.9173 84.8932 33.086 85.5679 33.086C86.2719 33.086 86.8145 32.954 87.1959 32.69C87.5919 32.4113 87.7899 32.0593 87.7899 31.634C87.7899 31.1793 87.5699 30.842 87.1299 30.622C86.7045 30.402 86.0225 30.16 85.0839 29.896C84.1745 29.6467 83.4339 29.4047 82.8619 29.17C82.2899 28.9353 81.7912 28.576 81.3659 28.092C80.9552 27.608 80.7499 26.97 80.7499 26.178C80.7499 25.5327 80.9405 24.946 81.3219 24.418C81.7032 23.8753 82.2459 23.45 82.9499 23.142C83.6685 22.834 84.4899 22.68 85.4139 22.68C86.7925 22.68 87.8999 23.032 88.7359 23.736C89.5865 24.4253 90.0412 25.3713 90.0999 26.574H87.5919C87.5479 26.0313 87.3279 25.5987 86.9319 25.276C86.5359 24.9533 86.0005 24.792 85.3259 24.792C84.6659 24.792 84.1599 24.9167 83.8079 25.166C83.4559 25.4153 83.2799 25.7453 83.2799 26.156C83.2799 26.4787 83.3972 26.75 83.6319 26.97C83.8665 27.19 84.1525 27.366 84.4899 27.498C84.8272 27.6153 85.3259 27.7693 85.9859 27.96C86.8659 28.1947 87.5845 28.4367 88.1419 28.686C88.7139 28.9207 89.2052 29.2727 89.6159 29.742C90.0265 30.2113 90.2392 30.8347 90.2539 31.612C90.2539 32.3013 90.0632 32.9173 89.6819 33.46C89.3005 34.0027 88.7579 34.428 88.0539 34.736C87.3645 35.044 86.5505 35.198 85.6119 35.198ZM94.6798 21.272C94.2252 21.272 93.8438 21.118 93.5358 20.81C93.2278 20.502 93.0738 20.1207 93.0738 19.666C93.0738 19.2113 93.2278 18.83 93.5358 18.522C93.8438 18.214 94.2252 18.06 94.6798 18.06C95.1198 18.06 95.4938 18.214 95.8018 18.522C96.1098 18.83 96.2638 19.2113 96.2638 19.666C96.2638 20.1207 96.1098 20.502 95.8018 20.81C95.4938 21.118 95.1198 21.272 94.6798 21.272ZM95.9118 22.878V35H93.4038V22.878H95.9118ZM105.761 22.68C106.714 22.68 107.565 22.878 108.313 23.274C109.075 23.67 109.669 24.2567 110.095 25.034C110.52 25.8113 110.733 26.75 110.733 27.85V35H108.247V28.224C108.247 27.1387 107.975 26.31 107.433 25.738C106.89 25.1513 106.149 24.858 105.211 24.858C104.272 24.858 103.524 25.1513 102.967 25.738C102.424 26.31 102.153 27.1387 102.153 28.224V35H99.6446V22.878H102.153V24.264C102.563 23.7653 103.084 23.3767 103.715 23.098C104.36 22.8193 105.042 22.68 105.761 22.68ZM119.256 22.68C120.194 22.68 121.023 22.8707 121.742 23.252C122.475 23.6187 123.047 24.0807 123.458 24.638V22.878H125.988V35.198C125.988 36.3127 125.753 37.3027 125.284 38.168C124.814 39.048 124.132 39.7373 123.238 40.236C122.358 40.7347 121.302 40.984 120.07 40.984C118.427 40.984 117.063 40.5953 115.978 39.818C114.892 39.0553 114.276 38.014 114.13 36.694H116.616C116.806 37.3247 117.21 37.8307 117.826 38.212C118.456 38.608 119.204 38.806 120.07 38.806C121.082 38.806 121.896 38.498 122.512 37.882C123.142 37.266 123.458 36.3713 123.458 35.198V33.174C123.032 33.746 122.453 34.23 121.72 34.626C121.001 35.0073 120.18 35.198 119.256 35.198C118.2 35.198 117.232 34.934 116.352 34.406C115.486 33.8633 114.797 33.1153 114.284 32.162C113.785 31.194 113.536 30.1013 113.536 28.884C113.536 27.6667 113.785 26.5887 114.284 25.65C114.797 24.7113 115.486 23.9853 116.352 23.472C117.232 22.944 118.2 22.68 119.256 22.68ZM123.458 28.928C123.458 28.092 123.282 27.366 122.93 26.75C122.592 26.134 122.145 25.6647 121.588 25.342C121.03 25.0193 120.429 24.858 119.784 24.858C119.138 24.858 118.537 25.0193 117.98 25.342C117.422 25.65 116.968 26.112 116.616 26.728C116.278 27.3293 116.11 28.048 116.11 28.884C116.11 29.72 116.278 30.4533 116.616 31.084C116.968 31.7147 117.422 32.1987 117.98 32.536C118.552 32.8587 119.153 33.02 119.784 33.02C120.429 33.02 121.03 32.8587 121.588 32.536C122.145 32.2133 122.592 31.744 122.93 31.128C123.282 30.4973 123.458 29.764 123.458 28.928ZM135.041 28.884C135.041 27.6667 135.29 26.5887 135.789 25.65C136.302 24.7113 136.991 23.9853 137.857 23.472C138.737 22.944 139.705 22.68 140.761 22.68C141.714 22.68 142.543 22.8707 143.247 23.252C143.965 23.6187 144.537 24.0807 144.963 24.638V22.878H147.493V35H144.963V33.196C144.537 33.768 143.958 34.2447 143.225 34.626C142.491 35.0073 141.655 35.198 140.717 35.198C139.675 35.198 138.722 34.934 137.857 34.406C136.991 33.8633 136.302 33.1153 135.789 32.162C135.29 31.194 135.041 30.1013 135.041 28.884ZM144.963 28.928C144.963 28.092 144.787 27.366 144.435 26.75C144.097 26.134 143.65 25.6647 143.093 25.342C142.535 25.0193 141.934 24.858 141.289 24.858C140.643 24.858 140.042 25.0193 139.485 25.342C138.927 25.65 138.473 26.112 138.121 26.728C137.783 27.3293 137.615 28.048 137.615 28.884C137.615 29.72 137.783 30.4533 138.121 31.084C138.473 31.7147 138.927 32.1987 139.485 32.536C140.057 32.8587 140.658 33.02 141.289 33.02C141.934 33.02 142.535 32.8587 143.093 32.536C143.65 32.2133 144.097 31.744 144.435 31.128C144.787 30.4973 144.963 29.764 144.963 28.928ZM157.343 22.68C158.296 22.68 159.147 22.878 159.895 23.274C160.658 23.67 161.252 24.2567 161.677 25.034C162.102 25.8113 162.315 26.75 162.315 27.85V35H159.829V28.224C159.829 27.1387 159.558 26.31 159.015 25.738C158.472 25.1513 157.732 24.858 156.793 24.858C155.854 24.858 155.106 25.1513 154.549 25.738C154.006 26.31 153.735 27.1387 153.735 28.224V35H151.227V22.878H153.735V24.264C154.146 23.7653 154.666 23.3767 155.297 23.098C155.942 22.8193 156.624 22.68 157.343 22.68ZM165.118 28.884C165.118 27.6667 165.367 26.5887 165.866 25.65C166.379 24.7113 167.069 23.9853 167.934 23.472C168.814 22.944 169.789 22.68 170.86 22.68C171.652 22.68 172.429 22.856 173.192 23.208C173.969 23.5453 174.585 24 175.04 24.572V18.72H177.57V35H175.04V33.174C174.629 33.7607 174.057 34.2447 173.324 34.626C172.605 35.0073 171.777 35.198 170.838 35.198C169.782 35.198 168.814 34.934 167.934 34.406C167.069 33.8633 166.379 33.1153 165.866 32.162C165.367 31.194 165.118 30.1013 165.118 28.884ZM175.04 28.928C175.04 28.092 174.864 27.366 174.512 26.75C174.175 26.134 173.727 25.6647 173.17 25.342C172.613 25.0193 172.011 24.858 171.366 24.858C170.721 24.858 170.119 25.0193 169.562 25.342C169.005 25.65 168.55 26.112 168.198 26.728C167.861 27.3293 167.692 28.048 167.692 28.884C167.692 29.72 167.861 30.4533 168.198 31.084C168.55 31.7147 169.005 32.1987 169.562 32.536C170.134 32.8587 170.735 33.02 171.366 33.02C172.011 33.02 172.613 32.8587 173.17 32.536C173.727 32.2133 174.175 31.744 174.512 31.128C174.864 30.4973 175.04 29.764 175.04 28.928ZM195.401 35L191.881 28.884H189.967V35H187.459V19.71H192.739C193.912 19.71 194.902 19.9153 195.709 20.326C196.53 20.7367 197.139 21.2867 197.535 21.976C197.946 22.6653 198.151 23.4353 198.151 24.286C198.151 25.2833 197.858 26.1927 197.271 27.014C196.699 27.8207 195.812 28.3707 194.609 28.664L198.393 35H195.401ZM189.967 26.882H192.739C193.678 26.882 194.382 26.6473 194.851 26.178C195.335 25.7087 195.577 25.078 195.577 24.286C195.577 23.494 195.342 22.878 194.873 22.438C194.404 21.9833 193.692 21.756 192.739 21.756H189.967V26.882ZM212.909 28.642C212.909 29.0967 212.88 29.5073 212.821 29.874H203.559C203.633 30.842 203.992 31.6193 204.637 32.206C205.283 32.7927 206.075 33.086 207.013 33.086C208.363 33.086 209.316 32.5213 209.873 31.392H212.579C212.213 32.5067 211.545 33.4233 210.577 34.142C209.624 34.846 208.436 35.198 207.013 35.198C205.855 35.198 204.813 34.9413 203.889 34.428C202.98 33.9 202.261 33.1667 201.733 32.228C201.22 31.2747 200.963 30.1747 200.963 28.928C200.963 27.6813 201.213 26.5887 201.711 25.65C202.225 24.6967 202.936 23.9633 203.845 23.45C204.769 22.9367 205.825 22.68 207.013 22.68C208.157 22.68 209.177 22.9293 210.071 23.428C210.966 23.9267 211.663 24.6307 212.161 25.54C212.66 26.4347 212.909 27.4687 212.909 28.642ZM210.291 27.85C210.277 26.926 209.947 26.1853 209.301 25.628C208.656 25.0707 207.857 24.792 206.903 24.792C206.038 24.792 205.297 25.0707 204.681 25.628C204.065 26.1707 203.699 26.9113 203.581 27.85H210.291ZM218.325 18.72V35H215.817V18.72H218.325ZM233.168 28.642C233.168 29.0967 233.139 29.5073 233.08 29.874H223.818C223.892 30.842 224.251 31.6193 224.896 32.206C225.542 32.7927 226.334 33.086 227.272 33.086C228.622 33.086 229.575 32.5213 230.132 31.392H232.838C232.472 32.5067 231.804 33.4233 230.836 34.142C229.883 34.846 228.695 35.198 227.272 35.198C226.114 35.198 225.072 34.9413 224.148 34.428C223.239 33.9 222.52 33.1667 221.992 32.228C221.479 31.2747 221.222 30.1747 221.222 28.928C221.222 27.6813 221.472 26.5887 221.97 25.65C222.484 24.6967 223.195 23.9633 224.104 23.45C225.028 22.9367 226.084 22.68 227.272 22.68C228.416 22.68 229.436 22.9293 230.33 23.428C231.225 23.9267 231.922 24.6307 232.42 25.54C232.919 26.4347 233.168 27.4687 233.168 28.642ZM230.55 27.85C230.536 26.926 230.206 26.1853 229.56 25.628C228.915 25.0707 228.116 24.792 227.162 24.792C226.297 24.792 225.556 25.0707 224.94 25.628C224.324 26.1707 223.958 26.9113 223.84 27.85H230.55ZM235.24 28.884C235.24 27.6667 235.49 26.5887 235.988 25.65C236.502 24.7113 237.191 23.9853 238.056 23.472C238.936 22.944 239.904 22.68 240.96 22.68C241.914 22.68 242.742 22.8707 243.446 23.252C244.165 23.6187 244.737 24.0807 245.162 24.638V22.878H247.692V35H245.162V33.196C244.737 33.768 244.158 34.2447 243.424 34.626C242.691 35.0073 241.855 35.198 240.916 35.198C239.875 35.198 238.922 34.934 238.056 34.406C237.191 33.8633 236.502 33.1153 235.988 32.162C235.49 31.194 235.24 30.1013 235.24 28.884ZM245.162 28.928C245.162 28.092 244.986 27.366 244.634 26.75C244.297 26.134 243.85 25.6647 243.292 25.342C242.735 25.0193 242.134 24.858 241.488 24.858C240.843 24.858 240.242 25.0193 239.684 25.342C239.127 25.65 238.672 26.112 238.32 26.728C237.983 27.3293 237.814 28.048 237.814 28.884C237.814 29.72 237.983 30.4533 238.32 31.084C238.672 31.7147 239.127 32.1987 239.684 32.536C240.256 32.8587 240.858 33.02 241.488 33.02C242.134 33.02 242.735 32.8587 243.292 32.536C243.85 32.2133 244.297 31.744 244.634 31.128C244.986 30.4973 245.162 29.764 245.162 28.928ZM255.827 35.198C254.873 35.198 254.015 35.0293 253.253 34.692C252.505 34.34 251.911 33.8707 251.471 33.284C251.031 32.6827 250.796 32.0153 250.767 31.282H253.363C253.407 31.7953 253.649 32.228 254.089 32.58C254.543 32.9173 255.108 33.086 255.783 33.086C256.487 33.086 257.029 32.954 257.411 32.69C257.807 32.4113 258.005 32.0593 258.005 31.634C258.005 31.1793 257.785 30.842 257.345 30.622C256.919 30.402 256.237 30.16 255.299 29.896C254.389 29.6467 253.649 29.4047 253.077 29.17C252.505 28.9353 252.006 28.576 251.581 28.092C251.17 27.608 250.965 26.97 250.965 26.178C250.965 25.5327 251.155 24.946 251.537 24.418C251.918 23.8753 252.461 23.45 253.165 23.142C253.883 22.834 254.705 22.68 255.629 22.68C257.007 22.68 258.115 23.032 258.951 23.736C259.801 24.4253 260.256 25.3713 260.315 26.574H257.807C257.763 26.0313 257.543 25.5987 257.147 25.276C256.751 24.9533 256.215 24.792 255.541 24.792C254.881 24.792 254.375 24.9167 254.023 25.166C253.671 25.4153 253.495 25.7453 253.495 26.156C253.495 26.4787 253.612 26.75 253.847 26.97C254.081 27.19 254.367 27.366 254.705 27.498C255.042 27.6153 255.541 27.7693 256.201 27.96C257.081 28.1947 257.799 28.4367 258.357 28.686C258.929 28.9207 259.42 29.2727 259.831 29.742C260.241 30.2113 260.454 30.8347 260.469 31.612C260.469 32.3013 260.278 32.9173 259.897 33.46C259.515 34.0027 258.973 34.428 258.269 34.736C257.579 35.044 256.765 35.198 255.827 35.198ZM264.895 21.272C264.44 21.272 264.059 21.118 263.751 20.81C263.443 20.502 263.289 20.1207 263.289 19.666C263.289 19.2113 263.443 18.83 263.751 18.522C264.059 18.214 264.44 18.06 264.895 18.06C265.335 18.06 265.709 18.214 266.017 18.522C266.325 18.83 266.479 19.2113 266.479 19.666C266.479 20.1207 266.325 20.502 266.017 20.81C265.709 21.118 265.335 21.272 264.895 21.272ZM266.127 22.878V35H263.619V22.878H266.127ZM275.975 22.68C276.929 22.68 277.779 22.878 278.527 23.274C279.29 23.67 279.884 24.2567 280.309 25.034C280.735 25.8113 280.947 26.75 280.947 27.85V35H278.461V28.224C278.461 27.1387 278.19 26.31 277.647 25.738C277.105 25.1513 276.364 24.858 275.425 24.858C274.487 24.858 273.739 25.1513 273.181 25.738C272.639 26.31 272.367 27.1387 272.367 28.224V35H269.859V22.878H272.367V24.264C272.778 23.7653 273.299 23.3767 273.929 23.098C274.575 22.8193 275.257 22.68 275.975 22.68ZM289.47 22.68C290.409 22.68 291.238 22.8707 291.956 23.252C292.69 23.6187 293.262 24.0807 293.672 24.638V22.878H296.202V35.198C296.202 36.3127 295.968 37.3027 295.498 38.168C295.029 39.048 294.347 39.7373 293.452 40.236C292.572 40.7347 291.516 40.984 290.284 40.984C288.642 40.984 287.278 40.5953 286.192 39.818C285.107 39.0553 284.491 38.014 284.344 36.694H286.83C287.021 37.3247 287.424 37.8307 288.04 38.212C288.671 38.608 289.419 38.806 290.284 38.806C291.296 38.806 292.11 38.498 292.726 37.882C293.357 37.266 293.672 36.3713 293.672 35.198V33.174C293.247 33.746 292.668 34.23 291.934 34.626C291.216 35.0073 290.394 35.198 289.47 35.198C288.414 35.198 287.446 34.934 286.566 34.406C285.701 33.8633 285.012 33.1153 284.498 32.162C284 31.194 283.75 30.1013 283.75 28.884C283.75 27.6667 284 26.5887 284.498 25.65C285.012 24.7113 285.701 23.9853 286.566 23.472C287.446 22.944 288.414 22.68 289.47 22.68ZM293.672 28.928C293.672 28.092 293.496 27.366 293.144 26.75C292.807 26.134 292.36 25.6647 291.802 25.342C291.245 25.0193 290.644 24.858 289.998 24.858C289.353 24.858 288.752 25.0193 288.194 25.342C287.637 25.65 287.182 26.112 286.83 26.728C286.493 27.3293 286.324 28.048 286.324 28.884C286.324 29.72 286.493 30.4533 286.83 31.084C287.182 31.7147 287.637 32.1987 288.194 32.536C288.766 32.8587 289.368 33.02 289.998 33.02C290.644 33.02 291.245 32.8587 291.802 32.536C292.36 32.2133 292.807 31.744 293.144 31.128C293.496 30.4973 293.672 29.764 293.672 28.928Z" fill="black"/>
</svg>
