<svg width="335" height="271" viewBox="0 0 335 271" fill="none" xmlns="http://www.w3.org/2000/svg">
<g clip-path="url(#clip0)">
<path d="M17.2653 257.935L16.5685 256.93L18.507 255.571L19.2038 256.582L17.2653 257.935ZM21.1423 255.223L20.4455 254.218L22.384 252.86L23.0809 253.87L21.1423 255.223ZM25.0151 252.516L24.3183 251.506L26.2526 250.148L26.9537 251.158L25.0151 252.516ZM28.8879 249.804L28.1911 248.794L30.1296 247.44L30.8264 248.446L28.8879 249.804ZM32.765 247.092L32.0639 246.082L34.0024 244.728L34.6993 245.734L32.765 247.092ZM36.6378 244.38L35.9409 243.37L37.8752 242.017L38.5763 243.022L36.6378 244.38ZM40.5106 241.669L39.8137 240.671L41.7522 239.318L42.4491 240.323L40.5106 241.669ZM44.3876 238.957L43.6738 237.947L45.6124 236.593L46.3092 237.603L44.3876 238.957ZM48.2604 236.245L47.5635 235.239L49.4978 233.881L50.1989 234.891L48.2604 236.245ZM52.1374 233.533L51.4363 232.527L53.3748 231.169L54.0717 232.179L52.1374 233.533ZM56.0102 230.821L55.3091 229.815L57.2476 228.457L57.9445 229.467L56.0102 230.821ZM59.883 228.109L59.1861 227.091L61.1204 225.733L61.8215 226.743L59.883 228.109ZM63.7558 225.398L63.059 224.392L64.9974 223.034L65.6943 224.044L63.7558 225.398ZM67.6328 222.686L66.9317 221.68L68.8702 220.326L69.5713 221.332L67.6328 222.686ZM71.5056 219.978L70.8088 218.968L72.7431 217.614L73.4441 218.62L71.5056 219.978ZM75.3826 217.266L74.6815 216.256L76.6201 214.903L77.3169 215.908L75.3826 217.266ZM79.2554 214.555L78.5544 213.545L80.4929 212.191L81.1939 213.197L79.2554 214.555ZM83.1282 211.843L82.4314 210.833L84.3657 209.479L85.0667 210.485L83.1282 211.843ZM87.0052 209.131L86.3042 208.121L88.2427 206.767L88.9395 207.777L87.0052 209.131ZM90.8781 206.419L90.177 205.413L92.1155 204.055L92.8165 205.065L90.8781 206.419ZM94.7508 203.707L94.054 202.701L95.9883 201.343L96.6894 202.353L94.7508 203.707ZM98.6279 200.995L97.9268 199.99L99.8653 198.632L100.562 199.642L98.6279 200.995ZM102.501 198.284L101.8 197.278L103.738 195.92L104.439 196.93L102.501 198.284ZM106.373 195.572L105.677 194.566L107.615 193.208L108.312 194.218L106.373 195.572ZM110.25 192.864L109.558 191.867L111.496 190.513L112.193 191.519L110.25 192.864ZM114.123 190.152L113.426 189.142L115.361 187.789L116.062 188.794L114.123 190.152ZM117.996 187.441L117.299 186.431L119.238 185.077L119.935 186.083L117.996 187.441ZM121.873 184.729L121.172 183.719L123.111 182.365L123.807 183.371L121.873 184.729ZM125.746 182.017L125.049 181.007L126.983 179.653L127.684 180.659L125.746 182.017ZM129.619 179.305L128.922 178.287L130.86 176.933L131.557 177.943L129.619 179.305ZM133.496 176.593L132.786 175.587L134.725 174.229L135.422 175.239L133.496 176.593ZM137.368 173.881L136.672 172.876L138.606 171.518L139.307 172.528L137.368 173.881ZM184.057 172.137L182.558 170.304L183.5 169.523L185.003 171.356L184.057 172.137ZM186.765 171.424L186.085 170.401L188.053 169.086L188.728 170.109L186.765 171.424ZM141.233 171.17L140.536 170.164L142.475 168.806L143.171 169.816L141.233 171.17ZM190.684 168.797L190.008 167.774L191.976 166.459L192.652 167.482L190.684 168.797ZM181.046 168.475L179.547 166.641L180.493 165.861L181.992 167.694L181.046 168.475ZM145.11 168.475L144.409 167.469L146.347 166.111L147.044 167.121L145.11 168.475ZM194.616 166.187L193.94 165.165L195.904 163.849L196.584 164.872L194.616 166.187ZM149.004 165.763L148.307 164.753L150.241 163.399L150.942 164.405L149.004 165.763ZM178.069 164.825L176.569 162.992L177.511 162.211L179.011 164.044L178.069 164.825ZM198.569 163.552L197.893 162.529L199.857 161.218L200.537 162.24L198.569 163.552ZM152.877 163.051L152.18 162.041L154.118 160.687L154.815 161.693L152.877 163.051ZM175.066 161.163L173.567 159.329L174.513 158.548L176.012 160.382L175.066 161.163ZM202.518 160.925L201.842 159.902L203.806 158.591L204.482 159.614L202.518 160.925ZM156.77 160.339L156.069 159.329L158.008 157.975L158.705 158.981L156.77 160.339ZM206.45 158.298L205.774 157.275L207.738 155.964L208.413 156.987L206.45 158.298ZM160.643 157.627L159.946 156.617L161.881 155.264L162.582 156.269L160.643 157.627ZM172.063 157.492L170.564 155.658L171.506 154.877L173.005 156.711L172.063 157.492ZM210.36 155.663L209.68 154.64L211.648 153.328L212.324 154.351L210.36 155.663ZM164.495 154.907L163.798 153.897L165.737 152.543L166.433 153.549L164.495 154.907ZM257.476 154.856L255.977 153.027L256.918 152.246L258.422 154.075L257.476 154.856ZM260.221 153.872L259.541 152.849L261.509 151.533L262.185 152.556L260.221 153.872ZM169.06 153.829L167.603 152.047L168.026 151.694L167.671 151.185L168.186 150.829L170.006 153.048L169.06 153.829ZM214.297 153.031L213.617 152.009L215.564 150.701L216.239 151.724L214.297 153.031ZM264.132 151.236L263.456 150.213L265.42 148.898L266.096 149.921L264.132 151.236ZM254.46 151.189L252.957 149.36L253.903 148.579L255.402 150.409L254.46 151.189ZM218.203 150.404L217.527 149.382L219.495 148.07L220.171 149.093L218.203 150.404ZM268.064 148.605L267.384 147.582L269.348 146.267L270.045 147.306L268.064 148.605ZM222.135 147.777L221.476 146.755L223.44 145.443L224.12 146.466L222.135 147.777ZM251.458 147.527L249.958 145.698L250.9 144.917L252.399 146.746L251.458 147.527ZM271.992 145.974L271.312 144.951L273.275 143.635L273.955 144.658L271.992 145.974ZM226.067 145.15L225.391 144.128L227.355 142.816L228.035 143.839L226.067 145.15ZM248.451 143.877L246.951 142.048L247.897 141.267L249.397 143.096L248.451 143.877ZM275.902 143.355L275.227 142.333L277.19 141.017L277.866 142.04L275.902 143.355ZM230.007 142.524L229.332 141.501L231.295 140.185L231.971 141.208L230.007 142.524ZM279.843 140.711L279.167 139.689L281.131 138.373L281.811 139.396L279.843 140.711ZM245.452 140.202L243.953 138.369L244.895 137.588L246.394 139.421L245.452 140.202ZM233.927 139.897L233.251 138.874L235.215 137.558L235.89 138.581L233.927 139.897ZM283.762 138.08L283.082 137.057L285.046 135.742L285.726 136.765L283.762 138.08ZM237.846 137.27L237.166 136.247L239.134 134.931L239.81 135.954L237.846 137.27ZM242.437 136.54L240.937 134.706L241.883 133.925L243.383 135.759L242.437 136.54ZM287.69 135.449L287.01 134.426L288.978 133.111L289.654 134.133L287.69 135.449ZM291.617 132.818L290.942 131.799L292.905 130.479L293.581 131.502L291.617 132.818ZM295.549 130.187L294.869 129.168L296.833 127.852L297.513 128.871L295.549 130.187ZM299.477 127.56L298.797 126.537L300.761 125.221L301.441 126.244L299.477 127.56ZM303.405 124.928L302.729 123.906L304.693 122.59L305.369 123.613L303.405 124.928ZM307.332 122.297L306.657 121.274L308.62 119.959L309.322 120.994L307.332 122.297ZM311.264 119.666L310.584 118.643L312.548 117.328L313.228 118.35L311.264 119.666ZM315.192 117.035L314.512 116.012L316.48 114.696L317.156 115.719L315.192 117.035ZM319.12 114.404L318.444 113.381L320.408 112.065L321.084 113.088L319.12 114.404ZM323.052 111.772L322.372 110.75L324.336 109.434L325.015 110.457L323.052 111.772Z" fill="#0E4094"/>
<path d="M-11.9136 141.815L-12.5935 140.792L-10.8451 139.625L-10.1693 140.648L-11.9136 141.815ZM-8.42508 139.481L-9.10082 138.458L-7.35658 137.291L-6.67663 138.313L-8.42508 139.481ZM-4.93239 137.146L-5.60812 136.124L-3.86388 134.957L-3.18815 135.979L-4.93239 137.146ZM-1.44391 134.812L-2.11964 133.79L-0.371191 132.627L0.304545 133.649L-1.44391 134.812ZM2.04878 132.482L1.37305 131.46L3.11729 130.293L3.79302 131.315L2.04878 132.482ZM5.54148 130.148L4.86153 129.126L6.60998 127.958L7.28572 128.981L5.54148 130.148ZM9.02996 127.814L8.35422 126.791L10.0985 125.624L10.7784 126.647L9.02996 127.814ZM12.5226 125.484L11.8469 124.457L13.5912 123.294L14.2669 124.317L12.5226 125.484ZM16.0154 123.15L15.3354 122.127L17.0839 120.96L17.7596 121.983L16.0154 123.15ZM19.5038 120.816L18.8281 119.793L20.5723 118.626L21.2523 119.649L19.5038 120.816ZM22.9965 118.482L22.3208 117.459L24.065 116.292L24.7408 117.315L22.9965 118.482ZM26.485 116.152L25.8093 115.129L27.5577 113.962L28.2335 114.985L26.485 116.152ZM29.9777 113.818L29.302 112.795L31.0462 111.628L31.7219 112.651L29.9777 113.818ZM33.4704 111.484L32.7904 110.461L34.5389 109.294L35.2146 110.317L33.4704 111.484ZM36.9589 109.15L36.2831 108.127L38.0274 106.96L38.7073 107.987L36.9589 109.15ZM40.4516 106.82L39.7758 105.797L41.5201 104.63L42.1958 105.653L40.4516 106.82ZM43.9443 104.486L43.2516 103.463L45.0001 102.296L45.6758 103.319L43.9443 104.486ZM47.4327 102.152L46.757 101.129L48.5012 99.9617L49.1812 100.984L47.4327 102.152ZM50.9254 99.8174L50.2497 98.7946L51.9939 97.6276L52.6697 98.6546L50.9254 99.8174ZM54.4181 97.4875L53.7382 96.4648L55.4866 95.2977L56.1624 96.3205L54.4181 97.4875ZM57.9066 95.1534L57.2309 94.1306L58.9751 92.9636L59.6508 93.9863L57.9066 95.1534ZM61.3993 92.8193L60.7193 91.7965L62.4678 90.6294L63.1435 91.6522L61.3993 92.8193Z" fill="#C60022"/>
<path d="M65.6182 90.5955L65.3015 90.2094L64.8876 90.4852L64.2119 89.4624L65.5422 88.5755L66.56 89.8147L65.6182 90.5955Z" fill="#C60022"/>
<path d="M79.5723 107.639L78.1786 105.941L79.1204 105.16L80.5183 106.858L79.5723 107.639ZM76.7807 104.244L75.3828 102.546L76.3288 101.765L77.7225 103.463L76.7807 104.244ZM73.9891 100.849L72.5911 99.1511L73.5329 98.3702L74.9309 100.068L73.9891 100.849ZM71.1932 97.4535L69.7995 95.756L70.7413 94.9751L72.1393 96.6727L71.1932 97.4535ZM68.4016 94.0584L67.0037 92.3609L67.9497 91.58L69.3476 93.2776L68.4016 94.0584Z" fill="#C60022"/>
<path d="M81.9965 110.584L80.9787 109.345L81.9205 108.564L82.2372 108.946L82.6511 108.67L83.3269 109.693L81.9965 110.584Z" fill="#C60022"/>
<path d="M85.0964 108.513L84.4207 107.49L86.1902 106.306L86.866 107.329L85.0964 108.513ZM88.6356 106.149L87.9598 105.127L89.7252 103.943L90.4051 104.965L88.6356 106.149ZM92.1747 103.785L91.4947 102.746L93.2643 101.562L93.9401 102.584L92.1747 103.785ZM95.7096 101.417L95.0339 100.395L96.8035 99.2148L97.4792 100.238L95.7096 101.417ZM99.2488 99.0536L98.5731 98.0308L100.343 96.851L101.018 97.8738L99.2488 99.0536ZM102.788 96.6897L102.112 95.667L103.882 94.4872L104.558 95.51L102.788 96.6897ZM106.327 94.3259L105.647 93.3031L107.417 92.1191L108.097 93.1419L106.327 94.3259ZM109.862 91.9621L109.186 90.9393L110.956 89.7553L111.632 90.778L109.862 91.9621ZM113.401 89.5898L112.725 88.567L114.495 87.383L115.171 88.4057L113.401 89.5898ZM116.94 87.2259L116.265 86.2032L118.034 85.0191L118.71 86.0419L116.94 87.2259ZM120.479 84.8579L119.804 83.8351L121.569 82.6553L122.249 83.6781L120.479 84.8579ZM124.019 82.494L123.339 81.4713L125.108 80.2915L125.788 81.3142L124.019 82.494ZM127.554 80.1302L126.878 79.1074L128.647 77.9234L129.323 78.9504L127.554 80.1302ZM131.093 77.7664L130.417 76.7436L132.187 75.5596L132.862 76.5823L131.093 77.7664ZM134.632 75.4025L133.956 74.3798L135.726 73.1957L136.401 74.2185L134.632 75.4025Z" fill="#C60022"/>
<path d="M138.897 73.1532L138.585 72.767L138.171 73.0429L137.495 72.0201L138.826 71.1331L139.843 72.3723L138.897 73.1532Z" fill="#C60022"/>
<path d="M152.864 90.1965L151.466 88.499L152.408 87.7181L153.806 89.4156L152.864 90.1965ZM150.068 86.8014L148.674 85.1039L149.616 84.323L151.014 86.0205L150.068 86.8014ZM147.276 83.4063L145.879 81.7088L146.825 80.9279L148.223 82.6254L147.276 83.4063ZM144.485 80.0112L143.087 78.3137L144.033 77.5328L145.427 79.2304L144.485 80.0112ZM141.689 76.6161L140.295 74.9186L141.237 74.1377L142.635 75.8353L141.689 76.6161Z" fill="#C60022"/>
<path d="M155.275 93.146L154.258 91.9026L155.204 91.1217L155.516 91.5037L155.926 91.2278L156.606 92.2506L155.275 93.146Z" fill="#C60022"/>
<path d="M158.375 91.0623L157.704 90.0395L159.473 88.8513L160.153 89.8698L158.375 91.0623ZM161.915 88.6815L161.235 87.663L163.004 86.4705L163.684 87.4932L161.915 88.6815ZM165.454 86.305L164.774 85.2822L166.543 84.0939L167.223 85.1124L165.454 86.305ZM168.993 83.9241L168.313 82.9056L170.078 81.7131L170.758 82.7359L168.993 83.9241ZM172.528 81.5476L171.848 80.5248L173.617 79.3365L174.297 80.3551L172.528 81.5476ZM176.067 79.1668L175.387 78.1482L177.157 76.9557L177.837 77.9785L176.067 79.1668ZM179.606 76.7902L178.926 75.7674L180.696 74.5792L181.376 75.5977L179.606 76.7902ZM183.145 74.4094L182.465 73.3909L184.231 72.1984L184.911 73.2211L183.145 74.4094ZM186.68 72.0328L186 71.0101L187.77 69.8218L188.45 70.8403L186.68 72.0328ZM190.224 69.6435L189.544 68.625L191.313 67.4325L191.993 68.4553L190.224 69.6435ZM193.763 67.267L193.079 66.2485L194.848 65.0602L195.528 66.0787L193.763 67.267ZM197.302 64.8862L196.622 63.8677L198.392 62.6751L199.067 63.6979L197.302 64.8862ZM200.837 62.5096L200.157 61.4868L201.926 60.2986L202.606 61.3171L200.837 62.5096ZM204.376 60.1288L203.696 59.1103L205.466 57.9178L206.146 58.9405L204.376 60.1288ZM207.915 57.7522L207.235 56.7295L209.005 55.5412L209.685 56.5597L207.915 57.7522ZM211.454 55.3714L210.774 54.3529L212.54 53.1604L213.224 54.1832L211.454 55.3714ZM214.989 52.9949L214.297 51.9806L216.066 50.7923L216.746 51.8108L214.989 52.9949ZM218.528 50.6141L217.848 49.5955L219.618 48.403L220.298 49.4258L218.528 50.6141ZM222.068 48.2375L221.388 47.2147L223.157 46.0265L223.837 47.045L222.068 48.2375ZM225.607 45.8567L224.927 44.8382L226.696 43.6456L227.372 44.6684L225.607 45.8567ZM229.142 43.4801L228.457 42.4828L230.227 41.2945L230.907 42.3131L229.142 43.4801ZM232.681 41.0993L232.001 40.0808L233.77 38.8883L234.446 39.9365L232.681 41.0993ZM236.22 38.7228L235.54 37.7L237.31 36.5117L237.989 37.5302L236.22 38.7228ZM239.759 36.342L239.079 35.3192L240.849 34.1309L241.524 35.1537L239.759 36.342ZM243.294 33.9654L242.593 32.9511L244.363 31.7628L245.042 32.7814L243.294 33.9654ZM246.816 31.5931L246.136 30.5703L247.906 29.382L248.586 30.4048L246.816 31.5931Z" fill="#C60022"/>
<path d="M250.55 27.5974L249.68 28.1827L250.358 29.202L251.229 28.6167L250.55 27.5974Z" fill="#C60022"/>
<path d="M250.216 28.3847L247.323 23.8904L252.644 23.6231L257.966 23.3514L255.537 28.1173L253.105 32.8832L250.216 28.3847Z" fill="#C60022"/>
<path d="M90.6719 184.48L89.8014 185.065L90.4802 186.085L91.3507 185.499L90.6719 184.48Z" fill="#C60022"/>
<path d="M90.3333 185.242L87.4403 180.744L92.7617 180.476L98.0831 180.209L95.6505 184.971L93.2221 189.736L90.3333 185.242Z" fill="#C60022"/>
<path d="M303.7 63.562L300.807 59.0677L306.129 58.8004L311.45 58.533L309.022 63.2946L306.589 68.0605L303.7 63.562Z" fill="#0E4094"/>
<path d="M325.497 109.829L322.604 105.33L327.925 105.063L333.247 104.795L330.818 109.561L328.386 114.327L325.497 109.829Z" fill="#0E4094"/>
<path d="M10.9684 197.825L10.2885 196.802L135.485 112.443L152.18 132.822L208.768 95.0048L225.459 115.38L303.692 62.9255L304.372 63.9483L225.218 117.018L208.528 96.643L151.939 134.456L135.248 114.085L10.9684 197.825Z" fill="#0E4094"/>
<path d="M230.975 66.6728C230.975 66.6728 208.485 47.2656 166.573 57.3024C166.573 57.3024 129.053 66.2145 125.738 110.873C125.738 110.873 125.028 125.646 140.654 150.795C140.654 150.795 146.335 167.821 144.916 196.692L192.639 176.529L230.975 107.838V66.6728Z" fill="#D1D3D4"/>
<path d="M174.762 161.311H171.696C171.475 160.243 171.174 159.193 170.796 158.17L173.36 156.685C173.655 156.512 173.87 156.229 173.958 155.898C174.047 155.567 174.002 155.214 173.833 154.915L171.261 150.442C171.178 150.294 171.067 150.164 170.933 150.06C170.8 149.956 170.647 149.879 170.483 149.836C170.32 149.792 170.15 149.781 169.982 149.804C169.815 149.828 169.653 149.884 169.508 149.971L166.839 151.516C166.122 150.695 165.343 149.932 164.508 149.233L165.99 146.653C166.077 146.506 166.134 146.344 166.157 146.175C166.18 146.006 166.17 145.834 166.125 145.669C166.081 145.505 166.005 145.351 165.9 145.216C165.796 145.082 165.665 144.97 165.517 144.887L161.083 142.303C160.786 142.133 160.436 142.088 160.107 142.177C159.778 142.266 159.497 142.482 159.326 142.778L157.793 145.452C156.76 145.102 155.703 144.833 154.629 144.645V141.675C154.629 141.337 154.496 141.013 154.258 140.774C154.021 140.536 153.698 140.401 153.362 140.401H148.206C147.867 140.4 147.541 140.533 147.299 140.771C147.058 141.01 146.919 141.334 146.913 141.675V144.76C145.846 144.975 144.797 145.273 143.775 145.651L142.301 143.062C142.128 142.766 141.846 142.55 141.516 142.461C141.185 142.372 140.833 142.417 140.536 142.587L136.085 145.184C135.937 145.267 135.808 145.379 135.704 145.514C135.6 145.648 135.524 145.801 135.481 145.966C135.437 146.13 135.427 146.301 135.45 146.469C135.473 146.637 135.529 146.799 135.616 146.945L137.153 149.623C136.34 150.345 135.586 151.132 134.898 151.974L132.33 150.485C132.034 150.314 131.682 150.268 131.352 150.357C131.022 150.446 130.74 150.663 130.569 150.96L127.997 155.433C127.911 155.579 127.854 155.742 127.832 155.91C127.809 156.079 127.82 156.25 127.864 156.414C127.908 156.578 127.984 156.732 128.088 156.866C128.192 157 128.322 157.112 128.47 157.194L131.131 158.739C130.783 159.775 130.516 160.836 130.332 161.914H127.376C127.208 161.914 127.041 161.947 126.886 162.012C126.731 162.078 126.591 162.173 126.473 162.294C126.355 162.414 126.262 162.557 126.199 162.714C126.137 162.871 126.106 163.039 126.109 163.208V168.356C126.109 168.693 126.243 169.017 126.48 169.256C126.718 169.495 127.04 169.629 127.376 169.629H130.442C130.653 170.705 130.95 171.762 131.329 172.791L128.761 174.276C128.467 174.448 128.252 174.73 128.164 175.061C128.076 175.392 128.122 175.745 128.293 176.041L130.86 180.51C131.031 180.807 131.311 181.024 131.641 181.114C131.97 181.203 132.321 181.159 132.617 180.99L135.282 179.441C135.999 180.264 136.78 181.029 137.618 181.728L136.135 184.313C136.049 184.458 135.992 184.62 135.968 184.788C135.945 184.956 135.955 185.127 135.998 185.292C136.042 185.456 136.117 185.609 136.221 185.744C136.324 185.878 136.453 185.99 136.6 186.074L141.06 188.658C141.205 188.745 141.366 188.801 141.533 188.824C141.7 188.847 141.87 188.836 142.032 188.792C142.195 188.748 142.348 188.672 142.481 188.568C142.614 188.464 142.725 188.335 142.808 188.187L144.35 185.509C145.38 185.86 146.436 186.128 147.509 186.311V189.282C147.509 189.62 147.642 189.944 147.88 190.182C148.117 190.421 148.44 190.555 148.776 190.555H153.903C154.239 190.555 154.561 190.421 154.799 190.182C155.036 189.944 155.17 189.62 155.17 189.282V186.201C156.236 185.98 157.285 185.683 158.308 185.31L159.79 187.882C159.873 188.03 159.984 188.161 160.117 188.265C160.251 188.37 160.403 188.447 160.567 188.491C160.73 188.535 160.901 188.546 161.068 188.523C161.236 188.5 161.397 188.444 161.543 188.357L165.999 185.773C166.292 185.6 166.506 185.317 166.593 184.986C166.68 184.655 166.634 184.303 166.463 184.007L164.926 181.329C165.744 180.609 166.505 179.826 167.202 178.987L169.774 180.48C169.92 180.567 170.081 180.624 170.249 180.647C170.416 180.67 170.587 180.659 170.75 180.614C170.914 180.57 171.067 180.493 171.2 180.389C171.333 180.284 171.444 180.154 171.527 180.005L174.099 175.532C174.268 175.236 174.313 174.884 174.225 174.554C174.138 174.225 173.924 173.943 173.63 173.771L170.965 172.222C171.313 171.187 171.581 170.128 171.768 169.052H174.724C174.892 169.052 175.059 169.018 175.214 168.953C175.369 168.887 175.509 168.792 175.627 168.671C175.745 168.551 175.838 168.408 175.901 168.251C175.963 168.094 175.994 167.926 175.991 167.757V162.618C176 162.281 175.876 161.954 175.645 161.709C175.415 161.464 175.097 161.321 174.762 161.311ZM151.056 175.774C149.028 175.774 147.046 175.17 145.359 174.037C143.673 172.905 142.359 171.296 141.583 169.413C140.807 167.53 140.603 165.458 140.999 163.46C141.395 161.461 142.371 159.625 143.805 158.184C145.24 156.743 147.067 155.761 149.056 155.364C151.045 154.966 153.107 155.17 154.98 155.95C156.854 156.73 158.456 158.051 159.582 159.745C160.709 161.44 161.311 163.432 161.311 165.47C161.313 166.824 161.049 168.166 160.535 169.418C160.021 170.67 159.266 171.808 158.313 172.767C157.361 173.726 156.23 174.486 154.984 175.005C153.739 175.524 152.404 175.791 151.056 175.791V175.774Z" fill="url(#paint0_linear)"/>
<path d="M151.056 149.173C147.845 149.173 144.705 150.13 142.035 151.923C139.364 153.716 137.283 156.265 136.054 159.247C134.825 162.228 134.503 165.509 135.13 168.675C135.756 171.84 137.303 174.747 139.574 177.029C141.845 179.312 144.738 180.866 147.888 181.495C151.038 182.125 154.304 181.802 157.271 180.567C160.238 179.332 162.774 177.24 164.558 174.557C166.343 171.873 167.295 168.718 167.295 165.491C167.296 163.348 166.876 161.226 166.06 159.246C165.244 157.266 164.048 155.467 162.54 153.952C161.032 152.436 159.242 151.234 157.271 150.414C155.301 149.595 153.189 149.173 151.056 149.173ZM151.056 178.881C148.418 178.881 145.839 178.096 143.645 176.624C141.451 175.151 139.741 173.058 138.731 170.609C137.721 168.16 137.457 165.465 137.971 162.865C138.486 160.265 139.756 157.876 141.621 156.002C143.487 154.127 145.864 152.851 148.451 152.334C151.039 151.817 153.721 152.082 156.158 153.097C158.595 154.112 160.678 155.831 162.144 158.035C163.609 160.24 164.39 162.832 164.39 165.483C164.39 167.242 164.046 168.985 163.376 170.611C162.706 172.237 161.724 173.715 160.486 174.959C159.248 176.204 157.778 177.191 156.16 177.864C154.542 178.538 152.808 178.885 151.056 178.885V178.881Z" fill="#1C4563"/>
<path d="M151.056 149.173C150.904 149.173 150.756 149.173 150.609 149.173V152.093C150.756 152.093 150.904 152.093 151.056 152.093C154.552 152.156 157.883 153.595 160.333 156.101C162.783 158.607 164.156 161.98 164.156 165.493C164.156 169.006 162.783 172.379 160.333 174.885C157.883 177.391 154.552 178.831 151.056 178.893C150.904 178.893 150.756 178.893 150.609 178.893V181.817H151.056C153.211 181.852 155.35 181.456 157.351 180.652C159.351 179.847 161.172 178.651 162.708 177.133C164.243 175.614 165.463 173.804 166.296 171.807C167.128 169.81 167.557 167.667 167.557 165.502C167.557 163.337 167.128 161.193 166.296 159.196C165.463 157.2 164.243 155.389 162.708 153.871C161.172 152.352 159.351 151.156 157.351 150.352C155.35 149.547 153.211 149.151 151.056 149.186V149.173Z" fill="#1C4563"/>
<path d="M209.258 128.323L209 120.6L190.418 112.384L187.385 100.815C187.47 100.777 174.973 94.6272 175.058 94.589C168.448 96.0701 170.323 90.8586 170.323 90.8586L184.885 120.948L209.258 128.323Z" fill="#0E4094"/>
<path d="M208.131 120.213L183.982 114.204L185.823 110.885L181.811 106.968L179.146 109.09V115.787C179.146 115.787 181.511 119.182 182.706 119.53C183.901 119.878 197.488 124.445 197.593 124.504C197.699 124.563 205.905 127.318 205.905 127.318L208.131 120.213Z" fill="#00102E"/>
<path d="M208.781 125.174C208.485 125.981 208.616 127.19 208.202 128.086C209.283 128.663 212.126 129.266 214.229 130.034C216.628 130.908 218.271 126.694 217.992 124.241C217.713 121.788 216.4 124.241 216.075 122.119C215.8 120.345 211.365 120.994 210.044 121.313C209.797 122.651 209.372 123.95 208.781 125.174V125.174Z" fill="#FFD59A"/>
<path d="M210.969 120.68L208.637 128.62L205.905 127.789L208.236 119.853L210.969 120.68Z" fill="#E6E6E6"/>
<path d="M195.465 182.955C195.65 183.434 195.815 183.706 195.955 183.718C197.644 183.854 197.319 187.058 197.885 187.377C200.664 188.93 211.353 193.942 212.295 191.383C213.236 188.824 203.282 183.035 203.282 183.035V182.882C200.655 183.154 197.893 182.984 195.465 182.955Z" fill="#030202"/>
<path d="M160.305 138.063L160.407 137.774C168.989 128.438 163.908 131.29 168.059 129.677C167.903 129.944 219.373 131.914 219.373 131.914L203.793 181.775C202.138 184.898 195.87 185.331 195.101 183.82C194.464 179.237 203.764 145.626 203.764 145.626L178.508 148.172L160.305 138.063Z" fill="#0E4094"/>
<path d="M160.305 138.063L160.407 137.775C168.989 128.438 168.195 131.532 172.342 129.915L179.788 130.31L212.358 135.572C212.358 135.572 199.147 175.422 199.785 180.005C200.207 180.807 202.15 181.062 204.144 180.659L203.793 181.775C202.138 184.898 195.87 185.331 195.101 183.821C194.464 179.237 203.764 145.626 203.764 145.626L178.508 148.172L160.305 138.063Z" fill="#00102E"/>
<path d="M173.364 91.2235L164.259 88.9106C166.129 97.1055 162.89 106.964 161.095 115.257C160.031 119.925 158.667 124.364 157.26 128.956C156.205 132.652 158.198 134.019 158.198 134.019L167.122 141.072C168.233 140.737 168.262 135.81 173.837 130.912C173.837 130.912 173.06 128.081 179.691 118.698C180.506 117.548 179.91 116.852 180.658 115.638C183.631 95.9045 182.199 97.844 173.364 91.2235Z" fill="#E3E3E3"/>
<path d="M174.792 83.224L170.83 82.3752C170.83 82.3752 166.184 86.8822 165.209 87.7819C164.233 88.6816 176.941 96.9231 176.941 96.9231C176.941 96.9231 177.292 96.1677 179.75 95.1492C179.75 95.1492 179.277 92.361 179.539 92.0724C181.105 90.273 174.792 83.224 174.792 83.224Z" fill="#FFC16B"/>
<path d="M186.216 188.841C186.401 189.325 186.566 189.592 186.706 189.605C188.395 189.745 188.07 192.949 188.636 193.263C191.415 194.821 202.104 199.828 203.046 197.274C203.987 194.719 194.025 188.922 194.025 188.922V188.773C191.406 189.049 188.644 188.896 186.216 188.841Z" fill="#030202"/>
<path d="M169.259 154.096L194.514 151.55C194.514 151.55 185.223 185.153 185.852 189.745C186.621 191.251 192.889 190.818 194.544 187.695L210.124 137.834C210.124 137.834 158.654 135.848 158.806 135.572C154.659 137.189 159.74 134.341 151.158 143.673L151.056 143.962" fill="#0E4094"/>
<path d="M198.18 145.651C197.475 147.676 189.05 151.088 187.056 151.669C186.33 151.958 185.426 151.694 184.547 151.745C180.413 151.847 176.793 152.454 172.866 152.594C170.589 152.747 155.597 149.199 158.156 136.591C158.578 134.435 153.958 143.805 151.154 143.64C151.783 144.751 150.351 152.182 158.853 154.597L169.259 154.096L194.781 151.622L192.103 160.373C192.103 160.373 196.668 149.971 198.18 145.651Z" fill="#00102E"/>
<path d="M165.078 89.8104L172.486 101.579L173.892 98.5485C173.892 98.5485 171.78 119.131 171.903 119.063C172.025 118.995 175.784 100.233 175.784 100.233L176.43 99.3039L178.065 100.683L180.599 96.0149L179.805 94.6017L175.83 96.9273C175.83 96.9273 172.676 96.9273 172.541 96.8934C172.405 96.8594 165.078 89.8104 165.078 89.8104Z" fill="#C9C9C9"/>
<path d="M170.104 112.574C172.921 103.896 170.707 96.3968 163.426 86.6868L152.023 90.8458C152.023 90.8458 150.63 120.481 148.522 125.043C145.258 132.1 142.665 132.499 142.665 132.499C141.528 138.517 146.402 148.49 150.381 149.373C151.833 147.102 164.461 130.017 170.104 112.574Z" fill="#0E4094"/>
<path d="M163.431 86.619L162.024 87.7351C165.644 95.0388 161.686 98.209 161.686 98.209L166.826 102.122L162.181 103.501C162.181 103.501 167.198 114.747 164.478 125.853C164.478 125.853 168.701 116.759 170.091 112.49C172.908 103.819 170.712 96.3205 163.431 86.619Z" fill="#00245E"/>
<path d="M170.104 112.575C168.026 118.97 165.014 125.306 161.965 130.908L152.04 90.8629C152.04 90.8629 163.443 101.205 171.168 107.669C170.985 109.337 170.628 110.981 170.104 112.575V112.575Z" fill="#00102E"/>
<path d="M180.21 94.5124L178.639 95.9935C179.158 107.944 175.476 124.584 169.685 135.886C181.063 126.019 187.39 100.819 187.39 100.819L180.21 94.5124Z" fill="#0E4094"/>
<path d="M181.017 117.081C181.832 115.914 182.643 111.887 182.643 111.887C182.643 111.887 182.347 110.792 181.633 108.878C183.504 108.674 183.086 107.605 184.894 107.006C183.779 106.731 183.006 103.798 182.44 102.86C180.438 102.979 180.924 104.821 178.871 104.94C178.795 113.534 179.433 118.571 173.381 127.678C175.383 126.112 178.487 120.421 181.017 117.081Z" fill="#00102E"/>
<path d="M174.876 125.62C178.761 120.209 179.919 116.118 184.59 111.467C182.854 111.004 181.714 108.704 181.042 107.036C183.057 106.934 183.255 106.404 185.185 105.806C181.988 103.348 180.138 98.3576 180.539 94.589L178.664 95.9937C179.146 107.028 176.671 117.175 173.174 128.12C173.482 127.131 174.386 126.452 174.876 125.62Z" fill="#00245E"/>
<path d="M177.478 70.6577C177.478 70.6577 181.329 68.1793 185.08 70.5983C188.83 73.0173 189.303 74.4178 188.036 77.3588C186.769 80.2998 185.274 82.1204 186.87 83.0498C187.723 83.5908 188.717 83.8669 189.725 83.8434C189.725 83.8434 189.1 86.4491 186.836 86.9329C185.841 87.1017 184.825 87.1017 183.829 86.9329C183.829 86.9329 183.302 90.0564 184.074 91.9152C184.67 93.3497 181.017 95.0599 175.556 91.3296C171.489 88.5541 171.058 85.647 171.379 84.811C171.682 84.0012 172.07 83.2259 172.536 82.4981C173.009 81.6366 177.478 70.6577 177.478 70.6577Z" fill="#FFD59A"/>
<path d="M177.44 72.1898C177.44 72.1898 177.549 78.8781 175.678 80.1852C173.808 81.4923 171.007 83.4742 171.007 83.4742C171.007 83.4742 169.643 84.6031 169.128 77.9147C168.6 71.0354 168.076 71.3368 169.39 70.1909C170.062 69.547 170.9 69.1059 171.81 68.9178C171.81 68.9178 171.307 66.1253 172.895 65.0983C174.483 64.0713 180.497 64.1604 185.337 66.0914C190.177 68.0223 193.784 71.2689 192.614 73.8322C191.651 75.9498 185.24 78.1312 177.44 72.1898Z" fill="#382100"/>
<path d="M192.373 71.2094C191.393 73.5945 185.806 67.6913 180.041 66.5964C177.587 66.1295 175.243 66.4733 173.774 67.8313C172.304 69.1894 175.041 70.6153 175.041 70.6153C175.041 70.6153 172.997 69.7071 172.169 69.6265C171.341 69.5459 170.184 72.8348 169.884 74.3966C169.622 75.7504 168.663 80.5672 171.4 83.2026C172.245 82.6169 174.247 81.1953 175.695 80.181C177.566 78.8739 177.456 72.1855 177.456 72.1855C185.257 78.1269 191.668 75.9498 192.631 73.8406C192.806 73.4144 192.874 72.9515 192.829 72.4927C192.784 72.0339 192.627 71.5933 192.373 71.2094V71.2094Z" fill="#261700"/>
<path d="M176.363 79.7185C176.193 80.3796 175.831 80.9751 175.324 81.4298C174.818 81.8844 174.188 82.1777 173.515 82.2725C172.842 82.3674 172.156 82.2595 171.545 81.9625C170.933 81.6655 170.422 81.1928 170.078 80.6043C169.734 80.0157 169.571 79.3377 169.61 78.6561C169.65 77.9745 169.889 77.3199 170.299 76.7753C170.709 76.2306 171.27 75.8203 171.912 75.5964C172.554 75.3724 173.247 75.3448 173.905 75.5171C174.784 75.7477 175.537 76.3195 175.998 77.1071C176.459 77.8948 176.59 78.8339 176.363 79.7185V79.7185Z" fill="#FFD59A"/>
<path d="M172.959 81.6155C172.816 81.5386 172.697 81.426 172.611 81.2886C172.525 81.1512 172.476 80.9938 172.469 80.8318C172.461 80.6697 172.496 80.5086 172.569 80.364C172.643 80.2195 172.752 80.0965 172.887 80.0071C173.402 79.5445 174.276 80.0071 174.276 80.0071C174.276 80.0071 174.052 78.3096 172.98 78.4199C172.682 78.448 172.4 78.5684 172.173 78.7646C171.946 78.9607 171.785 79.2229 171.713 79.5148C171.713 79.5148 171.666 77.8173 173.254 77.9319C174.842 78.0464 174.445 80.283 174.445 80.283C174.445 80.283 172.997 79.6167 172.828 80.8389C172.771 81.1051 172.818 81.383 172.959 81.6155V81.6155Z" fill="#FFC16B"/>
<path d="M183.736 86.8947C183.736 86.8947 182.558 86.1817 183.187 85.4009C183.419 85.1188 183.686 84.8678 183.981 84.6539C183.981 84.6539 181.287 85.821 183.736 86.8947Z" fill="#FFC16B"/>
<path d="M173.529 97.0292L176.333 98.9771C176.333 98.9771 167.042 128.684 176.827 136.374C179.505 137.223 180.822 136.955 180.822 136.955L181.245 133.492C181.245 133.492 175.095 129.868 174.614 122.361C173.943 111.883 177.33 98.9304 177.33 98.9304L179.619 97.2796L176.789 96.0319L173.529 97.0292Z" fill="#C60022"/>
<path d="M165.834 86.8269L177.347 95.9979L179.754 94.016L180.7 95.3528L178.221 100.042L177.245 96.3035L172.262 98.7734L164.432 88.2911L165.834 86.8269Z" fill="#E3E3E3"/>
<path d="M177.347 96.0021L169.276 91.0113C169.322 92.9762 169.673 93.2266 169.571 95.1364L172.262 98.7733L177.245 96.3034L178.221 100.042L180.303 96.2228C180.387 95.9894 179.784 94.6101 179.784 94.6101L177.347 96.0021Z" fill="white"/>
<path d="M145.11 196.752L229.838 65.6968C232.947 67.6999 238.767 72.7247 241.689 75.8821C251.095 86.0462 259.322 97.7974 258.401 118.677C258.211 123.184 252.066 128.744 257.024 137.21C257.024 137.21 267.561 153.812 267.388 156.668C267.388 156.668 267.81 161.88 259.816 162.444C259.816 162.444 257.624 163.161 258.426 167.537L259.541 172.82C259.541 172.82 259.765 175.744 255.466 176.945C255.466 176.945 254.819 177.646 255.888 178.885C255.888 178.885 258.084 180.82 254.896 185.476C253.755 187.148 251.998 189.295 253.396 193.463C253.396 193.463 255.301 201.492 252.239 203.588C252.239 203.588 248.86 208.078 234.243 207.034C229.37 206.695 220.412 204.84 215.107 211.185C214.934 211.507 212.278 216.515 213.967 221.179C214.698 223.204 214.922 225.325 212.447 225.983C210.153 226.59 207.894 225.809 205.664 225.359C201.494 224.501 197.381 223.383 193.349 222.011C157.518 208.516 145.11 196.752 145.11 196.752Z" fill="url(#paint1_linear)"/>
<g style="mix-blend-mode:multiply" opacity="0.3">
<path d="M229.838 65.6968C229.838 65.6968 264.82 97.6998 237.892 141.581C237.892 141.581 226.489 159.771 201.39 168.441C176.443 177.06 146.609 193.777 145.11 196.752L229.838 65.6968Z" fill="#404041"/>
</g>
<path d="M229.779 65.6374C229.779 65.6374 259.039 91.7499 233.623 138.729C233.623 138.729 223.423 157.827 198.32 166.48C173.373 175.095 146.542 193.721 145.042 196.692L229.779 65.6374Z" fill="#F1F2F2"/>
<path d="M254.841 61.839H251.462C251.222 60.6617 250.895 59.5041 250.482 58.376L253.295 56.7464C253.618 56.5557 253.854 56.2451 253.951 55.8814C254.048 55.5178 253.999 55.1303 253.814 54.8027L251.04 49.901C250.852 49.5759 250.544 49.3388 250.183 49.2417C249.822 49.1446 249.438 49.1956 249.114 49.3833L246.191 51.0808C245.405 50.1798 244.549 49.3425 243.632 48.5769L245.258 45.7463C245.35 45.5824 245.408 45.4019 245.43 45.2151C245.452 45.0284 245.437 44.8392 245.385 44.6584C245.334 44.4776 245.247 44.3089 245.13 44.162C245.013 44.0151 244.869 43.8929 244.705 43.8026L239.827 40.9677C239.502 40.7826 239.118 40.7336 238.757 40.8313C238.397 40.929 238.089 41.1656 237.901 41.4897L236.212 44.4222C235.08 44.0386 233.921 43.7434 232.744 43.5395V40.2717C232.744 39.8954 232.596 39.5344 232.331 39.2679C232.067 39.0014 231.708 38.8511 231.334 38.85H225.721C225.346 38.85 224.986 38.9998 224.72 39.2664C224.455 39.533 224.306 39.8946 224.306 40.2717V43.6668C223.136 43.9042 221.985 44.2305 220.864 44.6429L219.246 41.8165C219.057 41.4906 218.747 41.2531 218.384 41.1554C218.021 41.0577 217.634 41.1076 217.308 41.2945L212.426 44.1336C212.103 44.3216 211.868 44.6307 211.772 44.9928C211.677 45.3549 211.728 45.7404 211.915 46.0646L213.604 49.0056C212.709 49.7884 211.876 50.6397 211.112 51.5519L208.3 49.918C207.974 49.7316 207.589 49.6818 207.228 49.7796C206.866 49.8774 206.558 50.1147 206.369 50.44L203.544 55.3459C203.359 55.672 203.309 56.0586 203.407 56.4211C203.504 56.7837 203.74 57.0929 204.064 57.2811L206.982 58.9786C206.6 60.1136 206.307 61.2773 206.108 62.4586H202.856C202.481 62.4586 202.122 62.6078 201.857 62.8735C201.592 63.1392 201.442 63.4997 201.441 63.8761V69.5416C201.441 69.7279 201.478 69.9124 201.549 70.0844C201.62 70.2564 201.724 70.4126 201.856 70.5439C201.987 70.6753 202.143 70.7792 202.315 70.8497C202.486 70.9202 202.67 70.9559 202.856 70.9548H206.234C206.467 72.1343 206.792 73.2936 207.206 74.4221L204.389 76.0517C204.066 76.2406 203.831 76.5501 203.734 76.9126C203.638 77.2751 203.688 77.6613 203.874 77.9869L206.695 82.897C206.883 83.2223 207.191 83.4597 207.553 83.5574C207.914 83.6552 208.3 83.6055 208.625 83.419L211.547 81.7215C212.332 82.625 213.188 83.4637 214.107 84.2296L212.481 87.0645C212.388 87.2249 212.327 87.4022 212.302 87.5862C212.277 87.7702 212.289 87.9573 212.337 88.1368C212.384 88.3162 212.466 88.4845 212.579 88.6318C212.691 88.7792 212.832 88.9028 212.992 88.9955L217.882 91.8304C218.042 91.9231 218.218 91.9833 218.401 92.0075C218.584 92.0317 218.77 92.0193 218.948 91.9712C219.126 91.9231 219.293 91.8402 219.439 91.7272C219.585 91.6142 219.708 91.4733 219.8 91.3126L221.489 88.3801C222.618 88.7634 223.777 89.0558 224.952 89.2544V92.5306C224.952 92.7164 224.988 92.9004 225.058 93.0721C225.129 93.2438 225.232 93.3998 225.363 93.5312C225.494 93.6625 225.649 93.7666 225.82 93.8374C225.991 93.9082 226.174 93.9444 226.359 93.9438H232.001C232.375 93.9438 232.734 93.7945 232.998 93.5287C233.263 93.2628 233.411 92.9023 233.411 92.5264V89.1313C234.581 88.8928 235.732 88.5665 236.853 88.1552L238.479 90.9774C238.571 91.139 238.693 91.2807 238.84 91.3946C238.986 91.5084 239.153 91.5919 239.332 91.6405C239.511 91.689 239.697 91.7015 239.881 91.6773C240.064 91.6531 240.241 91.5926 240.401 91.4994L245.288 88.6645C245.611 88.4755 245.847 88.1653 245.944 87.8017C246.041 87.4382 245.99 87.051 245.803 86.725L244.113 83.7925C245.01 83.0015 245.845 82.1416 246.609 81.2207L249.431 82.8546C249.591 82.9481 249.768 83.0089 249.951 83.0335C250.135 83.0581 250.322 83.046 250.501 82.9979C250.68 82.9498 250.847 82.8666 250.994 82.7532C251.141 82.6397 251.264 82.4982 251.356 82.3369L254.173 77.431C254.36 77.1056 254.411 76.7191 254.314 76.3562C254.218 75.9934 253.982 75.6839 253.658 75.4958L250.74 73.7982C251.122 72.6647 251.414 71.5025 251.614 70.3225H254.841C255.026 70.3219 255.209 70.2847 255.38 70.213C255.551 70.1412 255.706 70.0363 255.837 69.9043C255.967 69.7723 256.071 69.6157 256.141 69.4436C256.212 69.2714 256.248 69.0869 256.247 68.9008V63.2522C256.248 63.0665 256.212 62.8825 256.141 62.7107C256.071 62.539 255.967 62.383 255.836 62.2517C255.706 62.1203 255.55 62.0163 255.38 61.9454C255.209 61.8746 255.026 61.8384 254.841 61.839V61.839ZM228.85 77.7068C226.625 77.7068 224.45 77.0437 222.6 75.8015C220.749 74.5592 219.307 72.7935 218.456 70.7276C217.604 68.6618 217.381 66.3886 217.816 64.1955C218.25 62.0025 219.321 59.988 220.895 58.4069C222.468 56.8257 224.473 55.749 226.655 55.3127C228.838 54.8765 231.1 55.1004 233.156 55.9561C235.212 56.8118 236.969 58.2609 238.205 60.1201C239.441 61.9793 240.101 64.1651 240.101 66.4012C240.101 69.3996 238.916 72.2752 236.806 74.3955C234.696 76.5157 231.834 77.7068 228.85 77.7068V77.7068Z" fill="url(#paint2_linear)"/>
<path d="M228.85 48.5048C225.328 48.5057 221.885 49.5559 218.957 51.5227C216.029 53.4895 213.747 56.2845 212.399 59.5545C211.052 62.8245 210.7 66.4225 211.387 69.8936C212.074 73.3648 213.77 76.5532 216.261 79.0558C218.751 81.5584 221.924 83.2628 225.379 83.9535C228.833 84.6441 232.414 84.2901 235.668 82.9361C238.922 81.5821 241.704 79.2889 243.661 76.3465C245.618 73.4041 246.663 69.9446 246.664 66.4054C246.665 64.0545 246.204 61.7265 245.309 59.5545C244.414 57.3824 243.102 55.4089 241.448 53.7465C239.793 52.0842 237.829 50.7657 235.668 49.8663C233.506 48.9669 231.19 48.5043 228.85 48.5048V48.5048ZM228.85 81.0977C225.956 81.0985 223.127 80.2369 220.721 78.6219C218.314 77.0069 216.439 74.711 215.331 72.0246C214.223 69.3382 213.933 66.3821 214.497 63.53C215.062 60.6779 216.455 58.0581 218.501 56.0019C220.547 53.9458 223.155 52.5456 225.993 51.9785C228.831 51.4114 231.773 51.7028 234.446 52.816C237.12 53.9292 239.405 55.8141 241.012 58.2323C242.619 60.6505 243.476 63.4933 243.476 66.4012C243.476 70.2993 241.935 74.0379 239.192 76.7947C236.449 79.5515 232.729 81.1008 228.85 81.1019V81.0977Z" fill="#1C4563"/>
<path d="M228.85 48.5048H228.36V51.7089C228.521 51.7089 228.681 51.7089 228.85 51.7089C232.687 51.7744 236.344 53.3518 239.034 56.1012C241.724 58.8506 243.231 62.5519 243.231 66.4075C243.231 70.2632 241.724 73.9644 239.034 76.7138C236.344 79.4632 232.687 81.0406 228.85 81.1062C228.681 81.1062 228.521 81.1062 228.36 81.1062V84.3103H228.85C233.574 84.3103 238.104 82.4248 241.443 79.0685C244.783 75.7123 246.66 71.1603 246.66 66.4139C246.66 61.6675 244.783 57.1155 241.443 53.7593C238.104 50.403 233.574 48.5175 228.85 48.5175V48.5048Z" fill="#1C4563"/>
<path d="M201.335 39.7031H199.245C199.095 38.9717 198.892 38.2526 198.636 37.5515L200.385 36.5414C200.586 36.4235 200.732 36.2308 200.792 36.0051C200.852 35.7794 200.821 35.5391 200.706 35.3362L198.953 32.2976C198.837 32.0962 198.646 31.9493 198.422 31.8889C198.198 31.8285 197.959 31.8594 197.758 31.975L195.938 33.0275C195.45 32.4588 194.918 31.9308 194.346 31.4488L195.359 29.6876C195.417 29.5871 195.455 29.476 195.471 29.3607C195.486 29.2454 195.479 29.1282 195.449 29.0158C195.419 28.9034 195.367 28.798 195.297 28.7057C195.226 28.6135 195.139 28.5361 195.038 28.4781L192.002 26.7169C191.8 26.6013 191.562 26.5703 191.338 26.6308C191.114 26.6912 190.923 26.8381 190.806 27.0394L189.759 28.8643C189.055 28.6252 188.333 28.4421 187.601 28.3168V26.2798C187.601 26.1644 187.578 26.0502 187.534 25.9436C187.49 25.837 187.426 25.7402 187.345 25.6586C187.264 25.577 187.167 25.5123 187.061 25.4682C186.955 25.424 186.841 25.4013 186.727 25.4013H183.225C183.11 25.4007 182.996 25.423 182.889 25.4668C182.782 25.5107 182.685 25.5752 182.603 25.6568C182.521 25.7384 182.456 25.8354 182.411 25.9423C182.367 26.0492 182.343 26.1638 182.343 26.2798V28.4017C181.615 28.549 180.899 28.7519 180.202 29.0086L179.196 27.2516C179.079 27.0488 178.886 26.901 178.661 26.8406C178.435 26.7801 178.195 26.8119 177.993 26.9291L174.96 28.6945C174.861 28.7521 174.773 28.8289 174.703 28.9205C174.633 29.012 174.582 29.1166 174.552 29.2281C174.522 29.3397 174.515 29.4561 174.53 29.5706C174.545 29.6851 174.582 29.7955 174.639 29.8955L175.691 31.7204C175.133 32.2095 174.614 32.7431 174.141 33.3161L172.388 32.2976C172.187 32.1818 171.947 32.1507 171.723 32.2111C171.498 32.2715 171.306 32.4184 171.189 32.6201L169.436 35.6926C169.379 35.7927 169.341 35.9031 169.326 36.0176C169.311 36.1321 169.319 36.2485 169.349 36.36C169.379 36.4716 169.43 36.5762 169.5 36.6677C169.57 36.7593 169.658 36.8361 169.757 36.8937L171.569 37.9461C171.336 38.6531 171.155 39.3765 171.029 40.1105H169.006C168.773 40.1105 168.549 40.2035 168.384 40.369C168.22 40.5346 168.127 40.7591 168.127 40.9932V44.5156C168.127 44.6314 168.15 44.7459 168.194 44.8528C168.238 44.9597 168.303 45.0567 168.385 45.1383C168.466 45.2199 168.563 45.2846 168.67 45.3285C168.776 45.3724 168.89 45.3947 169.006 45.3941H171.117C171.259 46.1277 171.46 46.8487 171.717 47.55L169.952 48.5431C169.751 48.6602 169.605 48.8522 169.545 49.0771C169.485 49.3021 169.516 49.5418 169.631 49.7441L171.383 52.7954C171.5 52.9979 171.692 53.1456 171.917 53.2061C172.141 53.2666 172.381 53.2349 172.583 53.1179L174.399 52.0655C174.887 52.6268 175.419 53.1477 175.991 53.623L174.977 55.3842C174.92 55.4842 174.882 55.5946 174.868 55.7091C174.853 55.8236 174.86 55.94 174.89 56.0516C174.92 56.1631 174.971 56.2677 175.041 56.3592C175.111 56.4508 175.199 56.5276 175.298 56.5852L178.335 58.3506C178.434 58.4084 178.544 58.4459 178.658 58.461C178.772 58.4761 178.888 58.4684 178.999 58.4384C179.11 58.4085 179.214 58.3568 179.305 58.2864C179.396 58.216 179.473 58.1282 179.53 58.0281L180.582 56.2032C181.284 56.4429 182.004 56.6246 182.736 56.7464V58.7835C182.736 58.8989 182.758 59.0131 182.802 59.1197C182.846 59.2263 182.91 59.3231 182.992 59.4047C183.073 59.4863 183.169 59.551 183.275 59.5951C183.381 59.6393 183.495 59.662 183.61 59.662H187.119C187.352 59.6609 187.574 59.5674 187.738 59.4019C187.902 59.2365 187.994 59.0126 187.994 58.7792V56.6785C188.721 56.5287 189.437 56.3259 190.135 56.0717L191.144 57.8244C191.201 57.9249 191.277 58.0131 191.368 58.0838C191.46 58.1546 191.564 58.2065 191.675 58.2364C191.786 58.2664 191.902 58.274 192.016 58.2586C192.13 58.2432 192.24 58.2053 192.339 58.1469L195.38 56.3857C195.58 56.2671 195.726 56.074 195.785 55.8484C195.844 55.6228 195.813 55.3828 195.697 55.1805L194.645 53.3556C195.205 52.8665 195.725 52.3329 196.2 51.7599L197.952 52.7742C198.052 52.8326 198.162 52.8707 198.277 52.8861C198.391 52.9015 198.507 52.894 198.619 52.864C198.73 52.8341 198.835 52.7822 198.926 52.7114C199.018 52.6406 199.094 52.5523 199.152 52.4517L200.9 49.4003C200.958 49.3006 200.995 49.1904 201.011 49.076C201.026 48.9617 201.019 48.8454 200.989 48.7339C200.96 48.6224 200.909 48.5177 200.839 48.426C200.77 48.3343 200.683 48.2573 200.583 48.1993L198.767 47.1468C199.005 46.4407 199.187 45.7171 199.312 44.9825H201.335C201.567 44.9813 201.79 44.8878 201.954 44.7224C202.117 44.557 202.209 44.3331 202.209 44.0997V40.5773C202.209 40.4622 202.187 40.3481 202.143 40.2418C202.099 40.1354 202.034 40.0389 201.953 39.9576C201.872 39.8764 201.775 39.8121 201.669 39.7684C201.563 39.7247 201.45 39.7025 201.335 39.7031V39.7031ZM185.156 49.5658C183.772 49.5658 182.42 49.1537 181.27 48.3814C180.12 47.6092 179.223 46.5116 178.694 45.2274C178.165 43.9433 178.026 42.5302 178.296 41.1669C178.566 39.8037 179.232 38.5514 180.21 37.5686C181.188 36.5857 182.434 35.9164 183.791 35.6452C185.148 35.374 186.554 35.5132 187.832 36.0451C189.11 36.577 190.202 37.4778 190.971 38.6335C191.739 39.7893 192.149 41.148 192.149 42.538C192.148 44.4015 191.411 46.1885 190.1 47.5062C188.788 48.8239 187.01 49.5647 185.156 49.5658V49.5658Z" fill="url(#paint3_linear)"/>
<path d="M185.155 31.4148C182.965 31.4148 180.824 32.0674 179.003 33.2901C177.182 34.5128 175.763 36.2507 174.925 38.284C174.087 40.3172 173.867 42.5546 174.295 44.7131C174.722 46.8716 175.777 48.8543 177.325 50.4105C178.874 51.9667 180.847 53.0265 182.995 53.4558C185.143 53.8852 187.37 53.6648 189.393 52.8226C191.417 51.9804 193.146 50.5542 194.363 48.7243C195.58 46.8944 196.229 44.743 196.229 42.5422C196.23 41.0808 195.944 39.6336 195.387 38.2833C194.831 36.933 194.015 35.7061 192.987 34.6727C191.958 33.6393 190.738 32.8197 189.394 32.2607C188.05 31.7017 186.61 31.4143 185.155 31.4148V31.4148ZM185.155 51.675C183.357 51.675 181.599 51.1391 180.104 50.1352C178.608 49.1312 177.443 47.7042 176.755 46.0346C176.067 44.365 175.886 42.5279 176.237 40.7554C176.588 38.983 177.454 37.355 178.726 36.0771C179.997 34.7993 181.618 33.9291 183.381 33.5765C185.145 33.224 186.974 33.4049 188.635 34.0965C190.297 34.788 191.717 35.9591 192.716 37.4617C193.715 38.9643 194.248 40.7309 194.248 42.538C194.248 44.9613 193.29 47.2853 191.585 48.9989C189.88 50.7124 187.567 51.675 185.155 51.675V51.675Z" fill="#1C4563"/>
<path d="M185.156 31.4148H184.852V33.4052H185.156C187.567 33.4052 189.88 34.3678 191.585 36.0814C193.29 37.7949 194.248 40.1189 194.248 42.5422C194.248 44.9655 193.29 47.2896 191.585 49.0031C189.88 50.7166 187.567 51.6793 185.156 51.6793H184.852V53.6739H185.156C186.628 53.7028 188.091 53.4364 189.459 52.8903C190.828 52.3441 192.074 51.5293 193.125 50.4933C194.176 49.4574 195.012 48.2212 195.582 46.857C196.152 45.4929 196.445 44.0282 196.445 42.5486C196.445 41.069 196.152 39.6043 195.582 38.2402C195.012 36.876 194.176 35.6398 193.125 34.6039C192.074 33.5679 190.828 32.7531 189.459 32.2069C188.091 31.6608 186.628 31.3944 185.156 31.4233V31.4148Z" fill="#1C4563"/>
<path d="M195.887 128.323L195.625 120.6L173.115 110.503L163.426 86.6995C163.507 86.6613 159.854 88.6814 159.938 88.6432C153.329 90.1243 152.04 90.8585 152.04 90.8585L166.602 120.948L195.887 128.323Z" fill="#0E4094"/>
<path d="M195.406 125.174C195.114 125.981 195.241 127.19 194.827 128.086C195.908 128.663 198.755 129.266 200.854 130.034C203.257 130.908 204.9 126.694 204.617 124.241C204.334 121.788 203.024 124.241 202.699 122.119C202.425 120.345 197.99 120.994 196.673 121.313C196.422 122.65 195.996 123.949 195.406 125.174V125.174Z" fill="#FFD59A"/>
<path d="M197.598 120.68L195.262 128.62L192.53 127.789L194.861 119.853L197.598 120.68Z" fill="#E6E6E6"/>
<path opacity="0.3" d="M88.8129 126.01L75.3362 112.468L61.8638 126.01H68.4353V143.771H82.254V126.01H88.8129Z" fill="#0E4094"/>
<path d="M125.818 154.733L110.276 139.116L94.734 154.733H102.315V175.218H118.254L118.258 154.733H125.818Z" fill="#0E4094"/>
<path opacity="0.5" d="M118.959 108.229L110.276 99.5033L101.593 108.229H105.829V119.674H114.736V108.229H118.959Z" fill="#0E4094"/>
<path opacity="0.3" d="M285.261 85.6938L297.099 73.8025L308.933 85.6938H303.16V101.294H291.022V85.6938H285.261Z" fill="#0E4094"/>
<path d="M260.124 109.307L273.774 95.5947L287.424 109.307H280.763V127.301H266.767L266.763 109.307H260.124Z" fill="#0E4094"/>
<path d="M266.146 62.3865L273.774 54.7264L281.401 62.3865H277.68V72.4402H269.859V62.3865H266.146Z" fill="#C60022"/>
<path d="M68.0468 50.6607H121.079C124.711 50.6607 127.748 48.4539 127.748 45.8057C127.748 43.1575 124.711 40.9507 121.079 40.9507H68.0468C64.4105 40.9507 61.3781 43.1575 61.3781 45.8057C61.3781 48.4539 64.4105 50.6607 68.0468 50.6607Z" fill="#E6E4E6"/>
<path d="M130.459 30.269H147.716C148.363 30.2882 149.007 30.1768 149.61 29.9413C150.213 29.7059 150.763 29.3512 151.227 28.8983C151.691 28.4453 152.06 27.9034 152.312 27.3045C152.565 26.7057 152.694 26.0621 152.694 25.4119C152.694 24.7617 152.565 24.1181 152.312 23.5192C152.06 22.9204 151.691 22.3784 151.227 21.9255C150.763 21.4726 150.213 21.1179 149.61 20.8824C149.007 20.647 148.363 20.5356 147.716 20.5548H130.459C129.202 20.5921 128.009 21.1202 127.133 22.027C126.256 22.9338 125.766 24.148 125.766 25.4119C125.766 26.6758 126.256 27.8899 127.133 28.7967C128.009 29.7035 129.202 30.2316 130.459 30.269V30.269Z" fill="#E6E4E6"/>
<path d="M282.808 43.7093H300.064C300.711 43.7285 301.355 43.6171 301.958 43.3817C302.561 43.1462 303.111 42.7915 303.575 42.3386C304.04 41.8857 304.409 41.3437 304.661 40.7449C304.913 40.146 305.043 39.5024 305.043 38.8522C305.043 38.202 304.913 37.5584 304.661 36.9596C304.409 36.3607 304.04 35.8188 303.575 35.3658C303.111 34.9129 302.561 34.5582 301.958 34.3228C301.355 34.0873 300.711 33.9759 300.064 33.9951H282.808C281.55 34.0325 280.357 34.5606 279.481 35.4674C278.605 36.3742 278.115 37.5883 278.115 38.8522C278.115 40.1161 278.605 41.3303 279.481 42.2371C280.357 43.1439 281.55 43.672 282.808 43.7093V43.7093Z" fill="#E6E4E6"/>
<path d="M303.257 186.66H320.513C321.795 186.66 323.024 186.148 323.93 185.238C324.836 184.327 325.345 183.092 325.345 181.805C325.345 180.517 324.836 179.282 323.93 178.372C323.024 177.461 321.795 176.95 320.513 176.95H303.257C301.975 176.95 300.747 177.461 299.84 178.372C298.934 179.282 298.425 180.517 298.425 181.805C298.425 183.092 298.934 184.327 299.84 185.238C300.747 186.148 301.975 186.66 303.257 186.66V186.66Z" fill="#E6E4E6"/>
<path d="M119.12 226.242H136.376C137.633 226.205 138.827 225.677 139.703 224.77C140.579 223.863 141.069 222.649 141.069 221.385C141.069 220.121 140.579 218.907 139.703 218C138.827 217.093 137.633 216.565 136.376 216.528H119.12C117.862 216.565 116.669 217.093 115.793 218C114.917 218.907 114.427 220.121 114.427 221.385C114.427 222.649 114.917 223.863 115.793 224.77C116.669 225.677 117.862 226.205 119.12 226.242Z" fill="#E6E4E6"/>
<path d="M83.8589 74.3838H101.111C102.368 74.3465 103.562 73.8184 104.438 72.9116C105.314 72.0048 105.804 70.7906 105.804 69.5267C105.804 68.2629 105.314 67.0487 104.438 66.1419C103.562 65.2351 102.368 64.707 101.111 64.6696H83.8589C83.2122 64.6504 82.5681 64.7618 81.965 64.9973C81.3618 65.2327 80.8118 65.5874 80.3476 66.0403C79.8833 66.4933 79.5143 67.0352 79.2622 67.6341C79.0102 68.2329 78.8803 68.8765 78.8803 69.5267C78.8803 70.1769 79.0102 70.8205 79.2622 71.4194C79.5143 72.0183 79.8833 72.5602 80.3476 73.0131C80.8118 73.4661 81.3618 73.8207 81.965 74.0562C82.5681 74.2916 83.2122 74.4031 83.8589 74.3838V74.3838Z" fill="#E6E4E6"/>
<path d="M272.224 203.156H310.656C311.913 203.118 313.107 202.59 313.983 201.683C314.859 200.776 315.349 199.562 315.349 198.298C315.349 197.035 314.859 195.82 313.983 194.914C313.107 194.007 311.913 193.479 310.656 193.441H272.224C270.967 193.479 269.773 194.007 268.897 194.914C268.021 195.82 267.531 197.035 267.531 198.298C267.531 199.562 268.021 200.776 268.897 201.683C269.773 202.59 270.967 203.118 272.224 203.156V203.156Z" fill="#E6E4E6"/>
</g>
<defs>
<linearGradient id="paint0_linear" x1="151.05" y1="140.401" x2="151.05" y2="190.555" gradientUnits="userSpaceOnUse">
<stop stop-color="#4E9FEA"/>
<stop offset="1" stop-color="#D1E9FF"/>
</linearGradient>
<linearGradient id="paint1_linear" x1="206.251" y1="65.6968" x2="206.251" y2="226.205" gradientUnits="userSpaceOnUse">
<stop stop-color="#4E9FEA"/>
<stop offset="1" stop-color="#D1E9FF"/>
</linearGradient>
<linearGradient id="paint2_linear" x1="228.844" y1="38.85" x2="228.844" y2="93.9438" gradientUnits="userSpaceOnUse">
<stop stop-color="#4E9FEA"/>
<stop offset="1" stop-color="#D1E9FF"/>
</linearGradient>
<linearGradient id="paint3_linear" x1="185.168" y1="25.4013" x2="185.168" y2="59.662" gradientUnits="userSpaceOnUse">
<stop stop-color="#4E9FEA"/>
<stop offset="1" stop-color="#D1E9FF"/>
</linearGradient>
<clipPath id="clip0">
<rect width="333.142" height="270.387" fill="white" transform="translate(0.879486 0.276901)"/>
</clipPath>
</defs>
</svg>
