<svg width="404" height="380" viewBox="0 0 404 380" fill="none" xmlns="http://www.w3.org/2000/svg">
<path opacity="0.4" d="M385.032 104.683C383.856 104.688 382.684 104.801 381.529 105.023C380.478 99.8797 377.632 95.2964 373.517 92.1191C369.401 88.9419 364.294 87.3852 359.138 87.7363C353.982 88.0875 349.125 90.3228 345.463 94.0297C341.802 97.7366 339.583 102.665 339.216 107.905C336.347 105.969 333.013 104.864 329.573 104.708C326.132 104.552 322.715 105.351 319.688 107.019C316.66 108.687 314.136 111.162 312.387 114.177C310.637 117.192 309.728 120.635 309.757 124.135C309.786 127.636 310.752 131.063 312.551 134.048C314.35 137.033 316.914 139.463 319.969 141.08C323.024 142.696 326.454 143.436 329.891 143.221C333.328 143.007 336.643 141.845 339.48 139.861C340.284 144.312 342.543 148.357 345.89 151.341C349.238 154.324 353.478 156.072 357.924 156.301C362.37 156.53 366.762 155.226 370.389 152.602C374.016 149.977 376.665 146.184 377.907 141.839C380.5 142.908 383.294 143.38 386.088 143.222C388.882 143.064 391.608 142.28 394.068 140.925C396.529 139.57 398.664 137.678 400.321 135.385C401.977 133.092 403.114 130.455 403.65 127.663C404.185 124.871 404.106 121.993 403.418 119.235C402.731 116.478 401.451 113.909 399.671 111.713C397.892 109.518 395.656 107.75 393.125 106.537C390.594 105.323 387.83 104.694 385.032 104.694V104.683Z" fill="url(#paint0_linear)"/>
<path opacity="0.6" d="M122.357 189.907C122.357 187.806 121.817 185.742 120.791 183.919C119.765 182.096 118.288 180.578 116.507 179.514C114.725 178.45 112.701 177.877 110.635 177.853C108.569 177.829 106.533 178.355 104.728 179.377C101.617 177.384 98.0145 176.326 94.3371 176.326C93.8951 176.326 93.464 176.364 93.0274 176.391C91.5014 170.043 88.108 164.319 83.2996 159.982C78.4913 155.645 72.4966 152.901 66.1148 152.116C59.733 151.331 53.2674 152.542 47.5801 155.588C41.8929 158.635 37.2543 163.371 34.2828 169.165C33.1029 168.971 31.9102 168.869 30.715 168.858C27.0002 168.853 23.3383 169.753 20.0359 171.482C16.7334 173.212 13.8865 175.72 11.7335 178.797C9.58054 181.874 8.1841 185.431 7.6611 189.17C7.13811 192.908 7.50378 196.72 8.72751 200.285C9.95125 203.851 11.9974 207.066 14.6947 209.663C17.3921 212.259 20.662 214.161 24.2309 215.209C27.7998 216.257 31.5637 216.421 35.2076 215.686C38.8515 214.952 42.2692 213.341 45.1748 210.988C50.4602 214.461 56.6455 216.25 62.9378 216.126C69.2301 216.002 75.3426 213.971 80.4916 210.292C82.9039 212.75 85.9068 214.523 89.2019 215.435C92.497 216.347 95.9697 216.367 99.2747 215.492C102.58 214.618 105.602 212.879 108.041 210.449C110.48 208.019 112.251 204.983 113.178 201.642C115.787 201.027 118.114 199.532 119.781 197.401C121.447 195.271 122.355 192.629 122.357 189.907V189.907Z" fill="url(#paint1_linear)"/>
<path opacity="0.6" d="M372.744 352.98C372.744 350.879 372.205 348.814 371.178 346.99C370.152 345.166 368.674 343.647 366.892 342.583C365.11 341.518 363.085 340.946 361.018 340.923C358.951 340.9 356.914 341.426 355.109 342.45C351.998 340.457 348.396 339.399 344.719 339.398C344.277 339.398 343.845 339.437 343.409 339.464C341.883 333.116 338.489 327.392 333.681 323.055C328.873 318.718 322.878 315.974 316.496 315.189C310.114 314.404 303.649 315.615 297.962 318.661C292.274 321.707 287.636 326.443 284.664 332.238C283.484 332.044 282.292 331.942 281.096 331.931C277.382 331.926 273.72 332.826 270.417 334.555C267.115 336.285 264.268 338.793 262.115 341.87C259.962 344.947 258.566 348.504 258.043 352.243C257.52 355.981 257.885 359.793 259.109 363.358C260.333 366.924 262.379 370.139 265.076 372.736C267.774 375.332 271.044 377.234 274.612 378.282C278.181 379.33 281.945 379.494 285.589 378.759C289.233 378.025 292.651 376.414 295.556 374.061C300.843 377.534 307.029 379.323 313.322 379.199C319.615 379.075 325.728 377.044 330.879 373.365C333.291 375.823 336.294 377.596 339.589 378.508C342.884 379.42 346.357 379.44 349.662 378.565C352.967 377.691 355.989 375.952 358.428 373.522C360.867 371.092 362.638 368.056 363.565 364.715C366.174 364.1 368.501 362.605 370.168 360.474C371.834 358.343 372.742 355.702 372.744 352.98Z" fill="url(#paint2_linear)"/>
<path opacity="0.6" d="M156.111 39.9329C158.011 36.3846 159.105 32.4481 159.311 28.4133C159.516 24.3785 158.829 20.3481 157.3 16.619C155.77 12.8899 153.438 9.55705 150.473 6.86581C147.509 4.17457 143.988 2.19351 140.171 1.06852C136.354 -0.0564779 132.337 -0.296758 128.416 0.36537C124.495 1.0275 120.77 2.57517 117.516 4.89442C114.261 7.21367 111.56 10.2454 109.611 13.7665C107.662 17.2875 106.514 21.2081 106.253 25.2396C105.136 25.0384 104.004 24.9339 102.869 24.9273C99.7553 24.9208 96.6816 25.639 93.8833 27.0266C91.085 28.4143 88.6363 30.4347 86.7248 32.933C84.8134 35.4314 83.4899 38.3414 82.8557 41.44C82.2216 44.5386 82.2937 47.7437 83.0664 50.8097C83.8391 53.8757 85.292 56.7211 87.3137 59.1281C89.3354 61.5351 91.8723 63.4397 94.7301 64.696C97.5878 65.9523 100.691 66.5269 103.801 66.3759C106.911 66.2248 109.945 65.3521 112.672 63.8246C117.7 65.5769 122.986 66.4404 128.301 66.3776C131.655 66.3856 135.002 66.0608 138.293 65.4079C141.623 67.6837 145.696 68.5472 149.644 67.8141C153.591 67.0811 157.1 64.8095 159.424 61.4838C161.747 58.1582 162.7 54.0414 162.08 50.0115C161.461 45.9815 159.316 42.3571 156.105 39.911L156.111 39.9329Z" fill="url(#paint3_linear)"/>
<path d="M53.1853 63.9209L39.9717 130.178L95.9501 141.714L109.164 75.4567L53.1853 63.9209Z" fill="#F6ECCE"/>
<path d="M90.3276 89.0429C91.4375 88.7292 92.5192 88.3205 93.5612 87.8212C95.3542 86.9618 96.9793 85.7794 98.3578 84.3314L96.5524 80.2719C94.5727 80.3832 92.6287 80.8545 90.8126 81.6634C89.7535 82.1422 88.7366 82.7122 87.773 83.3672C87.773 83.3672 85.7951 85.1203 85.7574 85.0875C85.6873 85.1696 85.6172 85.2409 85.5472 85.3175L86.3233 87.0542C88.161 86.216 89.6701 85.6956 89.7455 85.8764C89.821 86.0571 88.4521 86.868 86.6251 87.7336L87.4065 89.4648H87.7137C87.7245 89.4045 90.3276 89.0429 90.3276 89.0429ZM92.9738 84.3862C92.8448 84.0993 92.8024 83.7799 92.8521 83.4685C92.9017 83.1571 93.0412 82.8676 93.2527 82.6368C93.4643 82.406 93.7384 82.2442 94.0405 82.1718C94.3426 82.0994 94.659 82.1198 94.9496 82.2303C95.2403 82.3408 95.4922 82.5365 95.6734 82.7926C95.8546 83.0488 95.957 83.3538 95.9676 83.669C95.9782 83.9843 95.8966 84.2957 95.733 84.5638C95.5694 84.8319 95.3313 85.0447 95.0487 85.1751C94.6704 85.3482 94.2402 85.3624 93.8516 85.2147C93.463 85.0669 93.1475 84.7692 92.9738 84.3862V84.3862Z" fill="#FF8263"/>
<path d="M84.9435 86.0514C85.0352 85.9309 85.1322 85.8159 85.2292 85.7008C85.1322 85.8159 85.0352 85.9309 84.9435 86.0514Z" fill="#FCFDF2"/>
<path d="M85.2344 85.6624L85.5309 85.3228L85.2344 85.6624Z" fill="#FCFDF2"/>
<path d="M85.6501 88.4769L84.895 88.827L85.4004 89.9535L86.1556 89.6034L85.6501 88.4769Z" fill="#FFC83E"/>
<path d="M84.6238 86.2019L83.8687 86.552L84.3608 87.6486L85.1159 87.2984L84.6238 86.2019Z" fill="#FFC83E"/>
<path d="M87.6112 82.9832C87.6112 82.9832 87.0723 81.9642 87.6759 81.2301C86.3184 81.1344 84.9573 81.3524 83.6944 81.8676C82.4316 82.3828 81.2999 83.1818 80.384 84.2049C80.384 84.2049 83.8764 83.3667 85.6172 84.7089L85.7303 84.802L87.6112 82.9832Z" fill="#FF810D"/>
<path d="M91.842 90.5217C90.9204 90.4889 90.5001 89.426 90.5001 89.426L87.9024 89.6945C87.905 89.7437 87.905 89.7931 87.9024 89.8424C87.7568 92.0338 84.8466 94.1868 84.8466 94.1868C86.2094 94.154 87.5472 93.8071 88.759 93.1722C89.9708 92.5373 91.0249 91.631 91.842 90.5217V90.5217Z" fill="#FF810D"/>
<path d="M100.745 80.7814C99.4668 80.4521 98.1563 80.2683 96.8379 80.2335L98.6056 84.1835C99.4421 83.1346 100.16 81.9934 100.745 80.7814V80.7814Z" fill="#C0272D"/>
<path d="M89.7563 85.8757C89.6808 85.6949 88.1718 86.2154 86.334 87.0536L85.5579 85.3169L85.2615 85.6566V85.6949C85.1645 85.81 85.0675 85.925 84.9759 86.0455L85.5902 87.4097L84.8519 87.7987C84.0847 88.2112 83.3447 88.6742 82.6368 89.1847C83.4813 88.9779 84.3113 88.7144 85.1214 88.3958C85.3693 88.3027 85.6226 88.1986 85.8921 88.0835L86.5011 89.4477H86.9484H86.5011H86.9484H87.4442L86.6627 87.7165C88.4682 86.8673 89.8371 86.0565 89.7563 85.8757Z" fill="#FF810D"/>
<path d="M95.4745 83.2521C95.3791 83.0403 95.224 82.862 95.0289 82.7398C94.8338 82.6175 94.6075 82.5568 94.3785 82.5654C94.1495 82.5739 93.9281 82.6513 93.7423 82.7877C93.5566 82.9241 93.4148 83.1135 93.3349 83.3318C93.255 83.5502 93.2406 83.7877 93.2935 84.0144C93.3464 84.241 93.4642 84.4467 93.6321 84.6052C93.8 84.7638 94.0103 84.8683 94.2366 84.9053C94.4628 84.9424 94.6948 84.9104 94.9032 84.8135C95.042 84.7497 95.1671 84.6585 95.2711 84.5453C95.3751 84.4321 95.456 84.299 95.5091 84.1539C95.5622 84.0087 95.5865 83.8542 95.5805 83.6995C95.5746 83.5447 95.5386 83.3926 95.4745 83.2521V83.2521Z" fill="#FFBA3F"/>
<path d="M82.1356 87.1801C82.1356 87.1801 53.9759 90.0946 47.7242 121.536" stroke="#FFBB40" stroke-width="0.98" stroke-miterlimit="10"/>
<path d="M83.1757 90.0508C74.5527 92.8284 59.2306 100.811 54.8058 122.998" stroke="#FFBB40" stroke-width="0.98" stroke-miterlimit="10"/>
<path d="M80.2979 89.4594C71.6748 92.2369 55.4096 100.027 50.9849 122.21" stroke="#FFBB40" stroke-width="0.98" stroke-miterlimit="10"/>
<path d="M78.6212 97.9083L78.3854 99.0895L95.5565 102.631L95.7922 101.45L78.6212 97.9083Z" fill="#FFBB40"/>
<path d="M72.4231 99.6818L72.1875 100.863L94.9581 105.556L95.1936 104.374L72.4231 99.6818Z" fill="#FFBB40"/>
<path d="M71.8379 102.645L71.6023 103.827L94.3729 108.519L94.6084 107.338L71.8379 102.645Z" fill="#FFBB40"/>
<path d="M71.2482 105.591L71.0126 106.773L93.7832 111.465L94.0188 110.284L71.2482 105.591Z" fill="#FFBB40"/>
<path d="M67.8129 107.95L67.5773 109.131L93.1949 114.41L93.4305 113.229L67.8129 107.95Z" fill="#FFBB40"/>
<path d="M67.2237 110.901L66.9881 112.082L92.6057 117.362L92.8412 116.18L67.2237 110.901Z" fill="#FFBB40"/>
<path d="M66.6382 113.865L66.4026 115.046L92.0202 120.325L92.2557 119.144L66.6382 113.865Z" fill="#FFBB40"/>
<path d="M63.5509 116.297L63.3153 117.478L91.4312 123.272L91.6668 122.091L63.5509 116.297Z" fill="#FFBB40"/>
<path d="M62.9615 119.244L62.7259 120.425L90.8418 126.219L91.0774 125.038L62.9615 119.244Z" fill="#FFBB40"/>
<path d="M62.3811 122.206L62.1453 123.388L90.2603 129.187L90.496 128.006L62.3811 122.206Z" fill="#FFBB40"/>
<g style="mix-blend-mode:multiply">
<path d="M90.128 132.788L97.4307 134.295L88.6459 140.212L90.128 132.788Z" fill="#F6ECCE"/>
</g>
<path d="M123.063 88.4617L89.162 105.024L92.9535 113.043L126.854 96.4807L123.063 88.4617Z" fill="#F05A24"/>
<path d="M123.068 88.4621L89.17 105.031L90.1182 107.035L124.016 90.4667L123.068 88.4621Z" fill="#FAAF3B"/>
<path d="M125.91 94.4568L92.0121 111.026L92.9603 113.03L126.858 96.4614L125.91 94.4568Z" fill="#FAAF3B"/>
<path d="M92.9523 113.017L80.244 114.315L89.1743 105.035L92.9523 113.017Z" fill="#F5ECCF"/>
<path d="M83.1866 111.253L80.244 114.315L84.4316 113.888L83.1866 111.253Z" fill="#6D6D6D"/>
<path d="M221.344 302.836H163.187V311.311H221.344V302.836Z" fill="#00BFC5"/>
<path d="M221.339 309.191H163.187V311.311H221.339V309.191Z" fill="#00525E"/>
<path d="M221.344 302.836H163.187V304.956H221.344V302.836Z" fill="#00525E"/>
<path d="M221.344 302.858L234.376 307.076L221.339 311.294L221.344 302.858Z" fill="#F5ECCF"/>
<path d="M230.081 308.462L234.376 307.076L230.081 305.685V308.462Z" fill="#6D6D6D"/>
<path d="M256.268 176.096C260.371 174.239 264.893 173.547 269.353 174.093C273.813 174.64 278.043 176.404 281.596 179.199C285.148 181.994 287.889 185.715 289.527 189.967C291.165 194.218 291.64 198.842 290.9 203.346L304.045 205.74C305.214 198.794 304.503 191.656 301.988 185.089C299.474 178.522 295.25 172.774 289.769 168.459C284.289 164.144 277.757 161.425 270.873 160.594C263.989 159.762 257.013 160.848 250.69 163.736L256.268 176.096Z" fill="#08485C"/>
<path d="M290.798 203.91C289.819 209.154 287.233 213.949 283.409 217.607L292.463 227.621C298.433 221.951 302.464 214.49 303.969 206.326L290.798 203.91Z" fill="#C0272D"/>
<path d="M242.121 204.721C240.883 199.119 241.558 193.255 244.035 188.095C246.513 182.935 250.644 178.786 255.75 176.331L250.151 163.977C242.237 167.746 235.83 174.155 231.996 182.139C228.162 190.122 227.133 199.199 229.078 207.86L242.121 204.721Z" fill="#00BFC5"/>
<path d="M282.994 217.984C280.092 220.626 276.621 222.539 272.86 223.569C269.098 224.598 265.151 224.716 261.337 223.911C257.523 223.107 253.948 221.404 250.899 218.938C247.851 216.473 245.414 213.314 243.786 209.717C243.141 208.291 242.627 206.807 242.25 205.285L229.234 208.419C229.815 210.815 230.616 213.15 231.627 215.393C234.137 220.938 237.895 225.806 242.599 229.601C247.302 233.396 252.818 236.013 258.7 237.24C264.583 238.467 270.666 238.269 276.46 236.663C282.253 235.056 287.593 232.087 292.048 227.993L282.994 217.984Z" fill="#009CA0"/>
<path d="M324.207 148.632C316.276 148.632 308.524 146.241 301.93 141.762C295.336 137.282 290.198 130.916 287.164 123.467C284.131 116.019 283.338 107.823 284.887 99.9167C286.436 92.0104 290.257 84.7486 295.867 79.0501C301.477 73.3516 308.623 69.4722 316.402 67.9028C324.181 66.3334 332.243 67.1444 339.568 70.2332C346.893 73.322 353.153 78.5499 357.555 85.2555C361.957 91.9612 364.304 99.8433 364.299 107.905C364.28 118.705 360.049 129.058 352.534 136.692C345.018 144.327 334.832 148.621 324.207 148.632V148.632Z" fill="#FF1D25"/>
<path d="M324.207 140.469C317.864 140.469 311.664 138.557 306.391 134.975C301.118 131.392 297.009 126.3 294.583 120.344C292.157 114.387 291.524 107.832 292.763 101.509C294.002 95.1863 297.058 89.3791 301.545 84.8222C306.032 80.2653 311.747 77.1634 317.968 75.9089C324.189 74.6545 330.637 75.3038 336.495 77.7748C342.353 80.2458 347.358 84.4274 350.878 89.7906C354.398 95.1539 356.274 101.458 356.268 107.905C356.251 116.541 352.867 124.818 346.857 130.922C340.847 137.026 332.702 140.459 324.207 140.469V140.469Z" fill="#F1F1F1"/>
<path d="M324.207 132.312C319.451 132.313 314.802 130.88 310.848 128.195C306.894 125.509 303.813 121.692 301.993 117.226C300.174 112.759 299.699 107.845 300.628 103.104C301.557 98.3633 303.848 94.0091 307.212 90.5925C310.576 87.1758 314.862 84.8503 319.527 83.9102C324.191 82.97 329.025 83.4575 333.417 85.3109C337.809 87.1643 341.562 90.3003 344.2 94.3222C346.838 98.3441 348.243 103.071 348.238 107.905C348.224 114.378 345.687 120.58 341.182 125.155C336.678 129.73 330.574 132.303 324.207 132.312V132.312Z" fill="#FF1D25"/>
<path d="M324.207 124.149C321.04 124.15 317.943 123.196 315.31 121.407C312.676 119.619 310.624 117.076 309.412 114.102C308.201 111.127 307.885 107.854 308.504 104.697C309.123 101.539 310.65 98.6394 312.891 96.3644C315.132 94.0894 317.986 92.5413 321.093 91.9162C324.2 91.291 327.42 91.6168 330.344 92.8524C333.269 94.0879 335.767 96.1777 337.523 98.8572C339.279 101.537 340.213 104.685 340.208 107.905C340.197 112.213 338.506 116.342 335.507 119.386C332.508 122.43 328.445 124.143 324.207 124.149V124.149Z" fill="#F1F1F1"/>
<path d="M332.178 107.905C332.178 109.509 331.71 111.077 330.833 112.41C329.956 113.744 328.71 114.783 327.253 115.396C325.795 116.01 324.191 116.17 322.643 115.857C321.096 115.544 319.675 114.771 318.559 113.636C317.444 112.502 316.685 111.057 316.378 109.483C316.07 107.91 316.229 106.28 316.834 104.798C317.438 103.317 318.461 102.051 319.774 101.161C321.086 100.27 322.629 99.7957 324.207 99.7968C326.321 99.7982 328.349 100.653 329.843 102.174C331.338 103.694 332.178 105.755 332.178 107.905V107.905Z" fill="#FF1D25"/>
<path opacity="0.1" d="M323.555 107.878L352.21 137.007" stroke="black" stroke-width="4.26" stroke-miterlimit="10"/>
<path opacity="0.1" d="M324.207 107.878L358.839 128.384" stroke="black" stroke-width="4.26" stroke-miterlimit="10"/>
<path d="M324.206 109.045C323.98 109.043 323.759 108.973 323.571 108.845C323.383 108.716 323.237 108.534 323.15 108.321C323.063 108.109 323.04 107.875 323.083 107.649C323.126 107.423 323.234 107.215 323.393 107.05L353.778 76.1626C353.998 75.976 354.279 75.8799 354.565 75.893C354.851 75.9062 355.123 76.0277 355.325 76.2336C355.528 76.4396 355.647 76.7151 355.66 77.0061C355.673 77.2971 355.579 77.5824 355.395 77.8061L325.01 108.694C324.905 108.804 324.78 108.891 324.643 108.951C324.505 109.011 324.356 109.043 324.206 109.045V109.045Z" fill="#08485C"/>
<path d="M353.779 76.8203L356.576 65.3319L365.15 56.6156V66.2578H374.636L366.061 74.974L354.759 77.8174L353.779 76.8203Z" fill="#08485C"/>
<path d="M323.554 109.044H323.447C323.297 109.029 323.151 108.983 323.018 108.91C322.886 108.837 322.768 108.738 322.673 108.619C322.578 108.5 322.507 108.363 322.464 108.216C322.421 108.069 322.407 107.915 322.423 107.763L326.783 64.3071C326.83 64.0141 326.986 63.7505 327.218 63.5701C327.45 63.3896 327.741 63.3059 328.031 63.3359C328.322 63.366 328.59 63.5075 328.782 63.7317C328.974 63.9559 329.074 64.2459 329.062 64.5427L324.702 108.004C324.673 108.291 324.539 108.557 324.326 108.75C324.114 108.942 323.839 109.047 323.554 109.044Z" fill="#08485C"/>
<path d="M327.176 64.8118L322.202 54.1123L323.43 41.8459L329.423 49.3241L336.78 43.232L335.546 55.4929L328.556 64.9542L327.176 64.8118Z" fill="#08485C"/>
<path d="M317.61 254.762C316.855 254.422 316.085 254.121 315.298 253.858C313.73 247.465 309.762 241.951 304.244 238.496C298.726 235.041 292.096 233.92 285.775 235.373C282.847 230.081 278.556 225.7 273.362 222.702C268.168 219.704 262.269 218.202 256.298 218.359C250.327 218.515 244.511 220.323 239.476 223.588C234.44 226.853 230.376 231.453 227.72 236.891C223.244 234.742 218.349 233.649 213.4 233.692C208.45 233.735 203.574 234.914 199.135 237.14C194.697 239.367 190.81 242.583 187.765 246.55C184.719 250.516 182.595 255.131 181.549 260.048C174.649 261.966 168.552 266.118 164.184 271.876H317.61V254.762Z" fill="url(#paint4_linear)"/>
<path d="M88.021 271.876H233.045C230.275 270.08 227.253 268.72 224.082 267.844C223.036 262.929 220.911 258.318 217.867 254.354C214.824 250.389 210.939 247.174 206.503 244.948C202.067 242.722 197.194 241.543 192.247 241.498C187.3 241.452 182.407 242.542 177.933 244.687C175.277 239.248 171.212 234.649 166.177 231.384C161.142 228.119 155.326 226.311 149.355 226.154C143.384 225.998 137.484 227.5 132.291 230.498C127.097 233.496 122.805 237.877 119.878 243.169C113.557 241.716 106.928 242.836 101.41 246.29C95.8919 249.744 91.9235 255.257 90.3546 261.648C89.5678 261.917 88.7971 262.196 88.0479 262.558L88.021 271.876Z" fill="#4E9FEA"/>
<path d="M318.596 119.355H87.0239C85.5388 119.355 84.1145 119.955 83.0644 121.023C82.0143 122.09 81.4243 123.538 81.4243 125.048V278.993H324.207V125.048C324.207 124.299 324.062 123.558 323.779 122.867C323.497 122.175 323.084 121.547 322.563 121.019C322.042 120.49 321.423 120.071 320.743 119.786C320.062 119.5 319.333 119.354 318.596 119.355ZM314.727 268.14H90.8881V130.214H314.738L314.727 268.14Z" fill="url(#paint5_linear)"/>
<path d="M55.0539 285.277V287.967C55.0453 289.441 55.6127 290.858 56.6313 291.907C57.65 292.955 59.0366 293.55 60.4865 293.56H345.155C346.606 293.55 347.993 292.956 349.012 291.907C350.032 290.858 350.601 289.441 350.593 287.967V285.277H55.0539Z" fill="#666969"/>
<path d="M50.6237 278.834V282.193C50.6237 286.027 53.1298 289.178 56.2233 289.178H349.408C352.501 289.178 355.007 286.049 355.007 282.193V278.834H50.6237Z" fill="#B5B7B7"/>
<path d="M177.9 278.834C178.021 280.057 178.584 281.191 179.48 282.017C180.376 282.843 181.541 283.301 182.751 283.305H222.869C224.078 283.3 225.243 282.841 226.138 282.015C227.034 281.19 227.597 280.057 227.72 278.834H177.9Z" fill="#E5E5E5"/>
<path d="M207.725 125.162C207.726 125.967 207.492 126.753 207.054 127.422C206.615 128.092 205.991 128.613 205.26 128.922C204.53 129.23 203.725 129.312 202.949 129.156C202.173 128.999 201.46 128.613 200.9 128.044C200.341 127.476 199.959 126.752 199.804 125.963C199.65 125.174 199.729 124.357 200.031 123.614C200.334 122.87 200.846 122.235 201.504 121.788C202.162 121.341 202.935 121.103 203.726 121.103C204.786 121.103 205.802 121.53 206.552 122.292C207.302 123.053 207.724 124.085 207.725 125.162V125.162Z" fill="#4D4D4D"/>
<path d="M201.393 125.19C201.393 124.715 201.531 124.251 201.791 123.856C202.05 123.462 202.419 123.154 202.85 122.973C203.281 122.791 203.756 122.743 204.214 122.836C204.672 122.929 205.092 123.157 205.423 123.493C205.753 123.828 205.978 124.256 206.069 124.721C206.16 125.187 206.113 125.669 205.934 126.108C205.756 126.546 205.453 126.921 205.065 127.185C204.677 127.448 204.22 127.589 203.753 127.589C203.127 127.589 202.527 127.336 202.084 126.886C201.642 126.436 201.393 125.826 201.393 125.19V125.19Z" fill="#808080"/>
<path d="M201.393 125.436C201.393 125.009 201.517 124.592 201.751 124.237C201.984 123.882 202.316 123.606 202.704 123.442C203.092 123.279 203.519 123.236 203.931 123.319C204.342 123.403 204.721 123.608 205.018 123.91C205.315 124.212 205.517 124.597 205.599 125.015C205.681 125.434 205.639 125.868 205.478 126.262C205.317 126.657 205.045 126.994 204.696 127.231C204.347 127.468 203.936 127.595 203.516 127.595C202.953 127.595 202.413 127.367 202.015 126.963C201.617 126.558 201.393 126.009 201.393 125.436V125.436Z" fill="#B2B2B2"/>
<path d="M205.063 124.582C205.063 124.725 205.021 124.864 204.943 124.983C204.865 125.102 204.754 125.195 204.624 125.25C204.494 125.304 204.351 125.319 204.213 125.291C204.075 125.263 203.948 125.194 203.848 125.093C203.749 124.992 203.681 124.863 203.654 124.723C203.626 124.582 203.64 124.437 203.694 124.305C203.748 124.173 203.839 124.06 203.956 123.98C204.073 123.901 204.211 123.858 204.351 123.858C204.54 123.858 204.721 123.935 204.855 124.07C204.988 124.206 205.063 124.39 205.063 124.582V124.582Z" fill="#E5E5E5"/>
<path d="M177.097 181.679H151.228C151.228 181.679 140.783 190.252 145.914 210.654C145.914 210.654 148.927 201.889 153.351 203.965C153.351 203.965 152.813 231.056 164.13 242.03C175.448 231.073 174.909 203.965 174.909 203.965C179.334 201.911 182.347 210.654 182.347 210.654C187.547 190.252 177.097 181.679 177.097 181.679Z" fill="#FAAF3B"/>
<path d="M174.343 181.679H154.004C154.004 181.679 143.311 188.439 147.353 204.48C147.353 204.48 152.204 197.599 155.674 199.221C155.674 199.221 155.254 220.538 164.173 229.172C173.093 220.538 172.673 199.221 172.673 199.221C176.154 197.577 181.172 204.48 181.172 204.48C185.214 188.439 174.343 181.679 174.343 181.679Z" fill="#FBED21"/>
<path d="M170.668 181.679H157.733C157.733 181.679 150.942 185.968 153.513 196.164C153.513 196.164 156.585 191.781 158.8 192.822C158.8 192.822 158.531 206.365 164.189 211.854C169.854 206.376 169.579 192.822 169.579 192.822C171.789 191.797 174.968 196.164 174.968 196.164C177.571 185.968 170.668 181.679 170.668 181.679Z" fill="#F1F1F1"/>
<path d="M178.59 175.077H149.757V181.684H178.59V175.077Z" fill="#808080"/>
<path d="M140.169 145.795C140.169 145.795 131.352 146.216 128.123 139.648C128.123 139.648 110.576 168.903 125.197 202.229C125.197 202.229 130.894 172.973 146.755 165.462L140.169 145.795Z" fill="#004568"/>
<path d="M188.205 145.795C188.205 145.795 197.022 146.216 200.25 139.648C200.25 139.648 217.798 168.903 203.176 202.229C203.176 202.229 197.48 172.973 181.619 165.462L188.205 145.795Z" fill="#004568"/>
<path d="M178.617 175.077C185.623 160.833 190.231 145.838 190.231 118.276C190.231 74.4482 164.19 38.9147 164.19 38.9147C164.19 38.9147 138.143 74.4482 138.143 118.276C138.143 145.838 142.756 160.85 149.757 175.077H178.617Z" fill="#E5F5FF"/>
<path d="M146.642 168.268C147.617 170.585 148.657 172.842 149.757 175.077H178.617C179.695 172.842 180.773 170.585 181.732 168.268H146.642Z" fill="#004568"/>
<path d="M181.355 72.1965C173.81 52.0576 164.189 38.9147 164.189 38.9147C164.189 38.9147 154.569 52.0631 147.019 72.1965H181.355Z" fill="#FF4C48"/>
<path d="M161.29 170.935C161.3 181.435 162.271 191.911 164.189 202.229C166.104 191.911 167.073 181.435 167.084 170.935C167.084 153.656 165.785 139.648 164.189 139.648C162.594 139.648 161.29 153.656 161.29 170.935Z" fill="#004568"/>
<path d="M176.467 99.0519C176.468 101.522 175.748 103.936 174.399 105.991C173.05 108.045 171.132 109.646 168.887 110.591C166.643 111.537 164.173 111.785 161.789 111.303C159.406 110.822 157.217 109.632 155.499 107.886C153.781 106.14 152.611 103.914 152.138 101.492C151.664 99.0694 151.908 96.5585 152.838 94.2769C153.768 91.9952 155.343 90.0453 157.364 88.6738C159.385 87.3023 161.76 86.5708 164.19 86.5719C167.446 86.5719 170.569 87.8868 172.871 90.2272C175.173 92.5677 176.467 95.742 176.467 99.0519V99.0519Z" fill="#FF4241"/>
<path d="M173.244 99.0517C173.241 100.873 172.706 102.652 171.709 104.164C170.711 105.677 169.295 106.854 167.639 107.549C165.983 108.243 164.161 108.423 162.405 108.065C160.648 107.708 159.036 106.829 157.771 105.54C156.505 104.25 155.645 102.609 155.297 100.823C154.949 99.0362 155.13 97.1852 155.817 95.5034C156.504 93.8217 157.666 92.3847 159.157 91.3742C160.647 90.3636 162.398 89.8248 164.19 89.8259C165.38 89.8266 166.559 90.0659 167.659 90.5301C168.758 90.9943 169.757 91.6742 170.598 92.531C171.439 93.3879 172.105 94.4048 172.559 95.5237C173.013 96.6425 173.246 97.8414 173.244 99.0517V99.0517Z" fill="#00536E"/>
<g style="mix-blend-mode:multiply">
<g style="mix-blend-mode:multiply">
<path d="M166.728 181.679H178.584V175.078H167.024C166.97 177.362 166.868 179.575 166.728 181.679Z" fill="#808080"/>
</g>
<g style="mix-blend-mode:multiply">
<path d="M200.25 139.648C197.016 146.222 188.204 145.795 188.204 145.795C187.065 152.704 185.202 159.47 182.648 165.977C197.738 174.228 203.176 202.207 203.176 202.207C217.814 168.903 200.25 139.648 200.25 139.648Z" fill="#004568"/>
</g>
<g style="mix-blend-mode:multiply">
<path d="M164.459 39.2599L164.594 39.4516L164.459 39.2599Z" fill="#FCFDF2"/>
</g>
<g style="mix-blend-mode:multiply">
<path d="M164.227 38.9694C164.243 38.9962 164.261 39.0215 164.281 39.045C164.26 39.0224 164.242 38.9969 164.227 38.9694Z" fill="#FCFDF2"/>
</g>
<g style="mix-blend-mode:multiply">
<path d="M190.231 118.276C190.231 79.3789 169.751 47.0558 165.127 40.2625C171.719 50.2418 177.164 60.9565 181.355 72.1966H164.189V86.5722C167.445 86.5722 170.568 87.887 172.87 90.2275C175.173 92.568 176.466 95.7423 176.466 99.0522C176.466 102.362 175.173 105.536 172.87 107.877C170.568 110.217 167.445 111.532 164.189 111.532V139.648C165.704 139.648 166.949 152.248 167.073 168.268H181.732C182.044 167.517 182.346 166.761 182.648 165.999C185.203 159.489 187.065 152.719 188.205 145.806C189.509 138.103 190.231 129.173 190.231 118.276Z" fill="#FCFDF2"/>
</g>
<g style="mix-blend-mode:multiply">
<path d="M180.153 171.845C179.651 172.941 179.145 174.003 178.617 175.077C179.145 174.003 179.651 172.93 180.153 171.845Z" fill="#FCFDF2"/>
</g>
<g style="mix-blend-mode:multiply">
<path d="M164.669 39.5996C164.798 39.7859 164.949 39.9995 165.122 40.257L164.669 39.5996Z" fill="#FCFDF2"/>
</g>
<g style="mix-blend-mode:multiply">
<path d="M181.705 168.278C181.236 169.374 180.751 170.47 180.255 171.566C180.773 170.486 181.258 169.391 181.705 168.278Z" fill="#FCFDF2"/>
</g>
<g style="mix-blend-mode:multiply">
<path d="M165.127 40.2624C164.955 40.0049 164.804 39.7912 164.674 39.605L164.572 39.457L164.459 39.2598C164.399 39.1722 164.351 39.1009 164.308 39.0462C164.288 39.0223 164.27 38.9966 164.254 38.9695L164.216 38.9147V72.1965H181.381C177.182 60.9552 171.728 50.2404 165.127 40.2624V40.2624Z" fill="#FF4C48"/>
</g>
<g style="mix-blend-mode:multiply">
<path d="M164.189 139.648V202.229C165.466 195.441 166.314 188.577 166.728 181.679C166.868 179.575 166.97 177.362 167.024 175.077H178.617C179.156 173.982 179.652 172.93 180.153 171.845C180.196 171.757 180.234 171.67 180.277 171.577C180.773 170.481 181.258 169.385 181.726 168.289H167.067C166.949 152.237 165.704 139.648 164.189 139.648Z" fill="#004568"/>
</g>
<g style="mix-blend-mode:multiply">
<path d="M176.466 99.0523C176.466 95.7424 175.173 92.568 172.87 90.2276C170.568 87.8871 167.445 86.5723 164.189 86.5723V89.8594C166.592 89.8594 168.896 90.8296 170.595 92.5567C172.294 94.2838 173.249 96.6262 173.249 99.0687C173.249 101.511 172.294 103.854 170.595 105.581C168.896 107.308 166.592 108.278 164.189 108.278V111.565C165.804 111.565 167.403 111.241 168.895 110.612C170.387 109.983 171.741 109.061 172.882 107.898C174.022 106.736 174.926 105.356 175.541 103.838C176.156 102.32 176.471 100.694 176.466 99.0523V99.0523Z" fill="#FF4241"/>
</g>
<g style="mix-blend-mode:multiply">
<path d="M173.243 99.0523C173.246 97.842 173.013 96.6432 172.559 95.5243C172.105 94.4054 171.439 93.3885 170.598 92.5316C169.757 91.6748 168.758 90.9949 167.658 90.5307C166.559 90.0665 165.38 89.8273 164.189 89.8265V108.245C166.588 108.244 168.889 107.275 170.586 105.552C172.284 103.828 173.239 101.491 173.243 99.0523V99.0523Z" fill="#00536E"/>
</g>
</g>
<path d="M352.62 256.241C352.078 256.242 351.542 256.134 351.042 255.924C350.542 255.714 350.088 255.406 349.705 255.017C349.322 254.628 349.018 254.167 348.811 253.658C348.603 253.15 348.497 252.605 348.497 252.055V174.064C348.498 172.953 348.933 171.888 349.706 171.104C350.479 170.319 351.527 169.878 352.62 169.878H394.258C395.351 169.878 396.399 170.319 397.172 171.104C397.945 171.888 398.38 172.953 398.381 174.064V252.055C398.381 252.605 398.274 253.15 398.067 253.658C397.86 254.167 397.556 254.628 397.173 255.017C396.79 255.406 396.336 255.714 395.836 255.924C395.335 256.134 394.799 256.242 394.258 256.241H352.62Z" fill="#333333"/>
<path d="M393.897 176.386H352.981V247.93H393.897V176.386Z" fill="#B4E6FF"/>
<path d="M383.269 172.65C383.269 172.784 383.217 172.913 383.124 173.008C383.032 173.103 382.906 173.158 382.774 173.159H364.099C363.966 173.159 363.839 173.105 363.745 173.01C363.651 172.914 363.598 172.785 363.598 172.65V172.65C363.598 172.515 363.651 172.385 363.745 172.289C363.839 172.194 363.966 172.14 364.099 172.14H382.779C382.844 172.14 382.909 172.153 382.97 172.179C383.03 172.205 383.085 172.242 383.131 172.29C383.178 172.337 383.214 172.393 383.239 172.455C383.263 172.517 383.275 172.583 383.275 172.65H383.269Z" fill="#666666"/>
<path d="M375.185 252.23C375.186 252.583 375.084 252.928 374.892 253.221C374.701 253.515 374.427 253.744 374.107 253.879C373.788 254.015 373.435 254.051 373.095 253.983C372.755 253.915 372.442 253.746 372.197 253.497C371.951 253.248 371.784 252.931 371.716 252.585C371.648 252.24 371.682 251.882 371.815 251.556C371.947 251.23 372.172 250.952 372.46 250.756C372.748 250.56 373.087 250.455 373.433 250.455C373.897 250.455 374.342 250.642 374.67 250.975C374.998 251.308 375.184 251.759 375.185 252.23V252.23Z" fill="#666666"/>
<path d="M387.473 209.504C387.468 212.32 386.642 215.071 385.099 217.41C383.556 219.749 381.366 221.57 378.805 222.644C376.244 223.718 373.427 223.996 370.711 223.443C367.994 222.891 365.5 221.532 363.543 219.539C361.586 217.546 360.254 215.008 359.716 212.245C359.177 209.483 359.456 206.62 360.518 204.019C361.579 201.418 363.375 199.195 365.679 197.631C367.983 196.067 370.691 195.232 373.461 195.232C375.303 195.232 377.128 195.602 378.83 196.319C380.531 197.037 382.077 198.088 383.379 199.414C384.68 200.74 385.712 202.313 386.415 204.044C387.117 205.776 387.477 207.631 387.473 209.504Z" fill="#F05A24"/>
<path d="M373.439 197.676C371.138 197.675 368.887 198.367 366.973 199.666C365.059 200.965 363.567 202.812 362.685 204.974C361.804 207.135 361.573 209.513 362.021 211.808C362.469 214.103 363.577 216.211 365.204 217.866C366.831 219.52 368.904 220.647 371.162 221.104C373.419 221.561 375.759 221.327 377.885 220.432C380.012 219.537 381.829 218.021 383.108 216.076C384.387 214.13 385.069 211.843 385.069 209.504C385.069 206.368 383.844 203.36 381.663 201.142C379.482 198.924 376.524 197.677 373.439 197.676ZM371.359 216.04V202.968L377.788 209.504L371.359 216.04Z" fill="#F9ECCD"/>
<g style="mix-blend-mode:multiply">
<g style="mix-blend-mode:multiply">
<path d="M394.259 169.878H373.353V172.141H382.779C382.912 172.141 383.04 172.194 383.134 172.29C383.228 172.385 383.281 172.515 383.281 172.65C383.281 172.785 383.228 172.915 383.134 173.01C383.04 173.106 382.912 173.16 382.779 173.16H373.353V176.386H393.898V247.93H373.353V250.461H373.439C373.677 250.448 373.915 250.484 374.139 250.567C374.363 250.65 374.567 250.779 374.74 250.945C374.913 251.112 375.051 251.312 375.145 251.535C375.24 251.757 375.288 251.997 375.288 252.239C375.288 252.481 375.24 252.721 375.145 252.943C375.051 253.165 374.913 253.366 374.74 253.532C374.567 253.699 374.363 253.828 374.139 253.911C373.915 253.994 373.677 254.03 373.439 254.017H373.353V256.252H394.259C394.8 256.253 395.336 256.145 395.836 255.935C396.336 255.725 396.791 255.417 397.174 255.028C397.557 254.639 397.86 254.178 398.068 253.669C398.275 253.161 398.382 252.616 398.382 252.066V174.064C398.38 172.953 397.945 171.888 397.172 171.104C396.399 170.319 395.351 169.878 394.259 169.878V169.878Z" fill="#333333"/>
</g>
<g style="mix-blend-mode:multiply">
<path d="M383.27 172.65C383.27 172.584 383.258 172.517 383.233 172.456C383.209 172.394 383.172 172.338 383.126 172.29C383.08 172.243 383.025 172.205 382.965 172.18C382.904 172.154 382.839 172.141 382.774 172.141H373.353V173.16H382.779C382.91 173.157 383.035 173.102 383.127 173.007C383.218 172.911 383.27 172.783 383.27 172.65V172.65Z" fill="#666666"/>
</g>
<g style="mix-blend-mode:multiply">
<path d="M375.186 252.231C375.184 251.76 374.999 251.308 374.671 250.976C374.342 250.643 373.898 250.456 373.434 250.456H373.348V254.001H373.434C373.897 254.001 374.341 253.815 374.669 253.483C374.997 253.152 375.183 252.702 375.186 252.231Z" fill="#666666"/>
</g>
<g style="mix-blend-mode:multiply">
<path d="M373.353 204.99V214.013L377.789 209.504L373.353 204.99Z" fill="#F05A24"/>
</g>
<g style="mix-blend-mode:multiply">
<path d="M387.473 209.504C387.477 207.632 387.117 205.776 386.414 204.045C385.712 202.314 384.68 200.74 383.379 199.415C382.077 198.089 380.531 197.037 378.829 196.32C377.127 195.602 375.303 195.233 373.461 195.233H373.375V197.676H373.461C376.503 197.743 379.398 199.018 381.526 201.228C383.654 203.439 384.846 206.409 384.846 209.502C384.846 212.595 383.654 215.564 381.526 217.775C379.398 219.985 376.503 221.26 373.461 221.327H373.375V223.77H373.461C375.303 223.77 377.127 223.401 378.828 222.684C380.53 221.967 382.075 220.916 383.377 219.591C384.678 218.266 385.71 216.693 386.413 214.962C387.116 213.231 387.476 211.377 387.473 209.504V209.504Z" fill="#F05A24"/>
</g>
<g style="mix-blend-mode:multiply">
<path d="M385.07 209.504C385.07 206.368 383.844 203.361 381.663 201.143C379.483 198.925 376.524 197.678 373.439 197.676H373.353V204.99L377.789 209.504L373.353 214.013V221.311H373.439C376.521 221.311 379.477 220.067 381.657 217.854C383.838 215.64 385.065 212.637 385.07 209.504V209.504Z" fill="#F9ECCD"/>
</g>
</g>
<path d="M368.686 244.281C368.686 244.281 366.929 236.611 362.984 237.603C359.039 238.594 363.135 244.796 361.971 252.833C360.806 260.87 361.227 264.853 361.604 266.255C361.981 267.658 371.758 284.263 372.464 286.383C372.96 287.884 372.518 290.832 372.518 290.832C372.518 290.832 393.116 293.615 397.002 290.426C397.002 290.426 396.048 280.713 397.88 273.728C399.713 266.743 401.744 257.649 401.653 256.35C401.561 255.052 399.567 244.725 398.295 243.202C397.023 241.679 393.337 241.082 393.337 241.082C393.337 241.082 391.37 233.96 386.072 236.436C386.072 236.436 384.417 228.519 378.462 233.149L378.177 219.666C378.177 219.666 378.489 213.974 373.951 214.089C369.413 214.204 368.907 218.499 369.176 221.918C369.446 225.336 368.718 243.454 368.686 244.281Z" fill="#F6DBC7"/>
<path d="M361.48 238.775C361.611 238.676 361.762 238.606 361.922 238.57C362.082 238.534 362.248 238.532 362.408 238.565C362.569 238.598 362.721 238.665 362.854 238.762C362.987 238.859 363.1 238.983 363.183 239.126C363.851 240.222 364.347 244.446 364.347 244.446C364.347 244.446 364.158 245.262 361.852 245.404C361.852 245.404 361.431 242.665 361.356 242.04C361.128 240.959 361.171 239.836 361.48 238.775Z" fill="#F6EFEA"/>
<path d="M370.874 216.264C370.874 216.264 374.016 215.284 376.802 216.599L377.131 221.464C377.131 221.464 372.766 223.107 370.373 221.327L370.874 216.264Z" fill="#F6EFEA"/>
<path d="M399.265 288.854H371.386V293.938H399.265V288.854Z" fill="#F1F1F1"/>
<path d="M400.979 293.938H369.677V330.716H400.979V293.938Z" fill="#6363E3"/>
<path d="M101.015 220.017L104.044 208.54C104.129 208.212 104.084 207.863 103.917 207.57C103.751 207.276 103.476 207.062 103.154 206.973L99.6889 206.031C99.4847 203.44 98.82 200.908 97.7272 198.558L100.255 195.983C100.372 195.864 100.465 195.724 100.528 195.568C100.591 195.413 100.624 195.247 100.624 195.079C100.624 194.911 100.591 194.745 100.528 194.59C100.465 194.435 100.372 194.294 100.255 194.175L91.9875 185.771C91.7512 185.532 91.4315 185.398 91.0982 185.398C90.765 185.398 90.4452 185.532 90.2089 185.771L87.6813 188.341C85.3694 187.23 82.8788 186.555 80.3301 186.346L79.4032 182.829C79.3606 182.667 79.287 182.515 79.1864 182.381C79.0859 182.248 78.9604 182.136 78.8172 182.052C78.674 181.968 78.5158 181.913 78.3519 181.892C78.1879 181.87 78.0214 181.881 77.8618 181.925L66.544 184.999C66.2221 185.087 65.9478 185.302 65.7812 185.596C65.6145 185.889 65.5691 186.238 65.6548 186.566L66.5817 190.083C64.4718 191.56 62.6453 193.416 61.1923 195.561L57.7485 194.608C57.4262 194.521 57.0831 194.567 56.7942 194.736C56.5053 194.906 56.2943 195.185 56.2071 195.512L53.1837 207.017C53.1396 207.179 53.1276 207.348 53.1483 207.514C53.169 207.681 53.222 207.842 53.3042 207.988C53.3864 208.133 53.4961 208.261 53.6272 208.363C53.7582 208.466 53.9078 208.54 54.0675 208.584L57.5329 209.526C57.7379 212.117 58.4025 214.648 59.4947 216.999L56.967 219.568C56.732 219.808 56.6001 220.133 56.6001 220.472C56.6001 220.811 56.732 221.136 56.967 221.376L65.2344 229.78C65.3507 229.9 65.4892 229.994 65.6418 230.059C65.7944 230.124 65.9582 230.157 66.1236 230.157C66.2891 230.157 66.4528 230.124 66.6055 230.059C66.7581 229.994 66.8966 229.9 67.0129 229.78L69.5459 227.211C71.856 228.321 74.3447 228.996 76.8917 229.205L77.8241 232.727C77.91 233.054 78.12 233.333 78.408 233.502C78.696 233.672 79.0385 233.718 79.3601 233.631L90.6778 230.552C90.838 230.51 90.9882 230.435 91.1198 230.333C91.2515 230.231 91.3618 230.104 91.4446 229.958C91.5273 229.812 91.5807 229.651 91.6018 229.484C91.6228 229.317 91.611 229.148 91.5671 228.986L90.6239 225.446C91.6745 224.711 92.6575 223.88 93.5612 222.965C94.463 222.047 95.2802 221.048 96.0026 219.979L99.4626 220.921C99.6229 220.968 99.7907 220.981 99.9561 220.96C100.122 220.94 100.281 220.886 100.426 220.801C100.57 220.717 100.697 220.604 100.798 220.47C100.899 220.335 100.973 220.181 101.015 220.017V220.017ZM84.1566 213.41C83.0586 214.527 81.6595 215.288 80.1361 215.596C78.6128 215.904 77.0338 215.746 75.5987 215.142C74.1636 214.538 72.937 213.515 72.074 212.202C71.211 210.89 70.7504 209.346 70.7504 207.767C70.7504 206.188 71.211 204.645 72.074 203.332C72.937 202.02 74.1636 200.996 75.5987 200.392C77.0338 199.788 78.6128 199.631 80.1361 199.939C81.6595 200.247 83.0586 201.008 84.1566 202.124C84.886 202.865 85.4646 203.745 85.8594 204.713C86.2542 205.681 86.4574 206.719 86.4574 207.767C86.4574 208.815 86.2542 209.853 85.8594 210.822C85.4646 211.79 84.886 212.669 84.1566 213.41V213.41Z" fill="url(#paint6_linear)"/>
<path d="M70.8557 215.657C69.3205 214.096 68.2751 212.107 67.8517 209.943C67.4282 207.778 67.6458 205.534 68.4767 203.495C69.3077 201.456 70.7148 199.713 72.5201 198.487C74.3255 197.261 76.4479 196.607 78.6191 196.607C80.7903 196.607 82.9128 197.261 84.7181 198.487C86.5234 199.713 87.9305 201.456 88.7615 203.495C89.5925 205.534 89.81 207.778 89.3866 209.943C88.9631 212.107 87.9177 214.096 86.3826 215.657C84.3216 217.746 81.5297 218.919 78.6191 218.919C75.7085 218.919 72.9166 217.746 70.8557 215.657V215.657ZM69.2981 217.24C71.1417 219.114 73.4906 220.391 76.0478 220.908C78.605 221.425 81.2556 221.16 83.6645 220.145C86.0733 219.131 88.1322 217.414 89.5808 215.21C91.0293 213.006 91.8025 210.415 91.8025 207.765C91.8025 205.115 91.0293 202.524 89.5808 200.32C88.1322 198.116 86.0733 196.399 83.6645 195.384C81.2556 194.37 78.605 194.105 76.0478 194.622C73.4906 195.139 71.1417 196.416 69.2981 198.29C66.8262 200.803 65.4375 204.211 65.4375 207.765C65.4375 211.319 66.8262 214.727 69.2981 217.24V217.24Z" fill="#F05A24"/>
<g style="mix-blend-mode:multiply">
<g style="mix-blend-mode:multiply">
<path d="M69.3737 217.316L70.9312 215.733C72.9909 217.826 75.7842 219.001 78.6966 219.001C81.6089 219 84.4018 217.824 86.4608 215.73C88.5198 213.636 89.6762 210.797 89.6757 207.836C89.6752 204.876 88.5178 202.037 86.4581 199.944L88.0103 198.366C90.4816 200.878 91.87 204.285 91.87 207.838C91.87 211.391 90.4816 214.798 88.0103 217.311C85.5389 219.823 82.187 221.234 78.692 221.234C75.1969 221.234 71.845 219.823 69.3737 217.311V217.316Z" fill="#F05A24"/>
</g>
</g>
<g style="mix-blend-mode:multiply" opacity="0.1">
<g style="mix-blend-mode:multiply" opacity="0.1">
<path d="M67.5952 251.737C68.784 250.529 69.5936 248.99 69.9217 247.314C70.2498 245.638 70.0816 243.9 69.4383 242.322C68.7951 240.743 67.7058 239.393 66.3081 238.444C64.9103 237.495 63.2671 236.988 61.586 236.988C59.905 236.988 58.2617 237.495 56.864 238.444C55.4663 239.393 54.3769 240.743 53.7337 242.322C53.0905 243.9 52.9223 245.638 53.2503 247.314C53.5784 248.99 54.388 250.529 55.5768 251.737C57.1714 253.356 59.3326 254.265 61.586 254.265C63.8394 254.265 66.0007 253.356 67.5952 251.737V251.737ZM65.8814 249.995C65.0319 250.858 63.9496 251.446 62.7714 251.684C61.5933 251.923 60.3721 251.8 59.2623 251.333C58.1525 250.865 57.204 250.074 56.5367 249.059C55.8693 248.043 55.5131 246.85 55.5131 245.629C55.5131 244.408 55.8693 243.214 56.5367 242.199C57.204 241.183 58.1525 240.392 59.2623 239.925C60.3721 239.457 61.5933 239.335 62.7714 239.573C63.9496 239.811 65.0319 240.399 65.8814 241.262C66.4455 241.836 66.8931 242.516 67.1984 243.266C67.5037 244.015 67.6609 244.818 67.6609 245.629C67.6609 246.44 67.5037 247.243 67.1984 247.992C66.8931 248.741 66.4455 249.422 65.8814 249.995V249.995Z" fill="black"/>
</g>
<g style="mix-blend-mode:multiply" opacity="0.1">
<path d="M78.9236 255.112L81.2626 246.226C81.3303 245.973 81.2962 245.702 81.1679 245.474C81.0396 245.246 80.8275 245.079 80.5782 245.01L77.8835 244.281C77.7262 242.277 77.2112 240.318 76.3636 238.502L78.3254 236.507C78.5067 236.322 78.6085 236.071 78.6085 235.809C78.6085 235.547 78.5067 235.296 78.3254 235.11L71.9228 228.602C71.74 228.418 71.493 228.314 71.2356 228.314C70.9782 228.314 70.7312 228.418 70.5485 228.602L68.5975 230.624C66.8102 229.762 64.8835 229.238 62.9117 229.079L62.1895 226.339C62.1225 226.086 61.9596 225.87 61.7364 225.739C61.5132 225.607 61.2478 225.571 60.9984 225.638L52.2568 228.021C52.1331 228.054 52.017 228.112 51.9153 228.191C51.8135 228.27 51.7282 228.368 51.664 228.481C51.5999 228.593 51.5583 228.718 51.5417 228.846C51.525 228.975 51.5336 229.106 51.5669 229.232L52.2837 231.971C51.4715 232.541 50.7121 233.184 50.0148 233.894C49.3154 234.602 48.6821 235.374 48.1231 236.201L45.4284 235.472C45.188 235.415 44.9352 235.453 44.7212 235.578C44.5072 235.703 44.3477 235.906 44.2751 236.146L41.9091 245.032C41.8757 245.157 41.8669 245.288 41.8832 245.416C41.8995 245.545 41.9406 245.669 42.0042 245.782C42.0678 245.894 42.1526 245.993 42.2537 246.072C42.3548 246.151 42.4703 246.209 42.5936 246.243L45.2883 246.971C45.4449 248.978 45.9599 250.938 46.8081 252.757L44.814 254.729C44.6323 254.916 44.5304 255.168 44.5304 255.43C44.5304 255.693 44.6323 255.945 44.814 256.131L51.2166 262.634C51.3064 262.727 51.4134 262.8 51.5313 262.851C51.6493 262.901 51.7759 262.927 51.9038 262.927C52.0317 262.927 52.1583 262.901 52.2762 262.851C52.3942 262.8 52.5012 262.727 52.5909 262.634L54.5527 260.646C56.34 261.507 58.2667 262.031 60.2385 262.191L60.9607 264.93C60.9932 265.056 61.0499 265.174 61.1275 265.277C61.2051 265.38 61.302 265.467 61.4127 265.532C61.5234 265.598 61.6457 265.64 61.7725 265.657C61.8994 265.674 62.0282 265.665 62.1518 265.631L70.8934 263.248C71.0171 263.215 71.1332 263.157 71.2349 263.078C71.3366 263 71.422 262.901 71.4861 262.789C71.5503 262.676 71.5918 262.552 71.6085 262.423C71.6252 262.294 71.6166 262.163 71.5832 262.037L70.8664 259.298C71.6774 258.727 72.4367 258.083 73.1354 257.375C73.8336 256.666 74.4667 255.894 75.0271 255.069L77.7218 255.797C77.9704 255.867 78.236 255.834 78.4609 255.705C78.6858 255.577 78.8521 255.364 78.9236 255.112V255.112ZM68.8023 252.959C67.3755 254.41 65.5577 255.398 63.5786 255.798C61.5996 256.198 59.5482 255.993 57.684 255.208C55.8197 254.423 54.2263 253.094 53.1053 251.388C51.9842 249.683 51.3858 247.678 51.3858 245.626C51.3858 243.575 51.9842 241.57 53.1053 239.865C54.2263 238.159 55.8197 236.83 57.684 236.045C59.5482 235.26 61.5996 235.055 63.5786 235.455C65.5577 235.855 67.3755 236.843 68.8023 238.293C69.7502 239.256 70.5022 240.399 71.0153 241.657C71.5283 242.916 71.7924 244.264 71.7924 245.626C71.7924 246.988 71.5283 248.337 71.0153 249.595C70.5022 250.854 69.7502 251.997 68.8023 252.959V252.959Z" fill="black"/>
</g>
</g>
<path d="M66.0213 251.738C67.2101 250.53 68.0197 248.99 68.3478 247.314C68.6759 245.638 68.5077 243.901 67.8644 242.322C67.2212 240.744 66.1318 239.394 64.7341 238.445C63.3364 237.495 61.6931 236.989 60.0121 236.989C58.3311 236.989 56.6878 237.495 55.2901 238.445C53.8924 239.394 52.803 240.744 52.1598 242.322C51.5166 243.901 51.3484 245.638 51.6764 247.314C52.0045 248.99 52.8141 250.53 54.0029 251.738C55.5975 253.356 57.7587 254.266 60.0121 254.266C62.2655 254.266 64.4268 253.356 66.0213 251.738V251.738ZM64.3129 249.996C63.463 250.861 62.3798 251.451 61.2003 251.69C60.0208 251.929 58.798 251.807 57.6866 251.34C56.5752 250.872 55.6252 250.08 54.9568 249.064C54.2884 248.047 53.9316 246.852 53.9316 245.629C53.9316 244.407 54.2884 243.212 54.9568 242.195C55.6252 241.179 56.5752 240.387 57.6866 239.919C58.798 239.452 60.0208 239.33 61.2003 239.569C62.3798 239.808 63.463 240.398 64.3129 241.263C65.4496 242.422 66.0879 243.993 66.0879 245.629C66.0879 247.266 65.4496 248.836 64.3129 249.996V249.996Z" fill="#F05A24"/>
<path d="M77.3498 255.112L79.6942 246.226C79.7602 245.972 79.7247 245.701 79.5955 245.474C79.4663 245.246 79.2539 245.079 79.0044 245.01L76.3097 244.281C76.1516 242.278 75.6386 240.319 74.7952 238.501L76.7516 236.507C76.9329 236.321 77.0347 236.07 77.0347 235.809C77.0347 235.547 76.9329 235.296 76.7516 235.11L70.3597 228.602C70.177 228.417 69.93 228.314 69.6726 228.314C69.4152 228.314 69.1682 228.417 68.9854 228.602L67.0291 230.623C65.2396 229.762 63.3113 229.239 61.3379 229.078L60.6211 226.339C60.5529 226.085 60.3889 225.869 60.1648 225.738C59.9408 225.607 59.6747 225.571 59.4246 225.638L50.683 228.021C50.4339 228.089 50.2215 228.255 50.0922 228.482C49.9629 228.709 49.9273 228.978 49.9931 229.232L50.7099 231.971C49.083 233.114 47.6733 234.547 46.5493 236.2L43.8546 235.472C43.7325 235.436 43.6046 235.425 43.4783 235.439C43.352 235.454 43.2298 235.493 43.1186 235.556C43.0074 235.619 42.9095 235.703 42.8305 235.804C42.7514 235.905 42.6929 236.021 42.6581 236.146L40.3353 245.032C40.3022 245.158 40.2943 245.29 40.312 245.42C40.3297 245.55 40.3727 245.675 40.4384 245.788C40.5041 245.9 40.5913 245.999 40.6948 246.077C40.7983 246.155 40.9161 246.211 41.0413 246.242L43.736 246.971C43.8926 248.977 44.4076 250.938 45.2558 252.756L43.2671 254.729C43.1759 254.82 43.1034 254.93 43.054 255.05C43.0046 255.17 42.9791 255.299 42.9791 255.43C42.9791 255.56 43.0046 255.69 43.054 255.81C43.1034 255.93 43.1759 256.039 43.2671 256.131L49.6644 262.651C49.7546 262.743 49.862 262.817 49.9804 262.867C50.0989 262.918 50.2259 262.943 50.3542 262.943C50.4825 262.943 50.6096 262.918 50.728 262.867C50.8464 262.817 50.9538 262.743 51.0441 262.651L53.0004 260.662C54.7894 261.524 56.718 262.048 58.6917 262.207L59.4084 264.946C59.441 265.072 59.4977 265.19 59.5752 265.293C59.6528 265.397 59.7497 265.483 59.8604 265.549C59.9711 265.614 60.0934 265.656 60.2203 265.673C60.3471 265.69 60.476 265.681 60.5995 265.647L69.3411 263.264C69.4649 263.231 69.5809 263.173 69.6827 263.095C69.7844 263.016 69.8698 262.917 69.9339 262.805C69.998 262.692 70.0396 262.568 70.0563 262.439C70.0729 262.31 70.0643 262.179 70.031 262.053L69.3142 259.314C70.1269 258.743 70.888 258.099 71.5885 257.391C72.2836 256.68 72.9166 255.908 73.4802 255.085L76.1749 255.813C76.422 255.875 76.6832 255.837 76.9028 255.706C77.1223 255.575 77.2827 255.362 77.3498 255.112V255.112ZM67.2285 252.959C65.8017 254.41 63.9839 255.397 62.0048 255.798C60.0258 256.198 57.9744 255.993 56.1102 255.208C54.2459 254.423 52.6525 253.093 51.5314 251.388C50.4104 249.682 49.812 247.677 49.812 245.626C49.812 243.575 50.4104 241.57 51.5314 239.864C52.6525 238.159 54.2459 236.83 56.1102 236.045C57.9744 235.26 60.0258 235.054 62.0048 235.455C63.9839 235.855 65.8017 236.843 67.2285 238.293C68.1764 239.256 68.9284 240.399 69.4414 241.657C69.9545 242.915 70.2186 244.264 70.2186 245.626C70.2186 246.988 69.9545 248.337 69.4414 249.595C68.9284 250.853 68.1764 251.996 67.2285 252.959V252.959Z" fill="#08485C"/>
<g style="mix-blend-mode:multiply">
<g style="mix-blend-mode:multiply" opacity="0.1">
<g style="mix-blend-mode:multiply" opacity="0.1">
<path d="M55.5928 251.737C55.4904 251.633 55.3934 251.529 55.2964 251.419L57.0156 249.672C57.1073 249.781 57.2043 249.891 57.3067 249.995C57.8707 250.568 58.5404 251.023 59.2774 251.334C60.0144 251.644 60.8043 251.804 61.602 251.804C62.3998 251.804 63.1897 251.644 63.9267 251.334C64.6637 251.023 65.3333 250.568 65.8974 249.995C66.4615 249.422 66.9089 248.741 67.2142 247.992C67.5195 247.242 67.6766 246.44 67.6766 245.629C67.6766 244.818 67.5195 244.015 67.2142 243.266C66.9089 242.516 66.4615 241.836 65.8974 241.262C65.7967 241.158 65.6906 241.059 65.5794 240.966L67.2986 239.219C67.4064 239.312 67.5088 239.416 67.6112 239.52C69.1686 241.148 70.033 243.333 70.0175 245.604C70.002 247.874 69.1079 250.047 67.5284 251.653C65.949 253.258 63.8112 254.167 61.5776 254.183C59.344 254.199 57.1941 253.32 55.5928 251.737V251.737Z" fill="black"/>
</g>
<g style="mix-blend-mode:multiply" opacity="0.1">
<path d="M77.7271 255.824L75.0324 255.096C74.4721 255.921 73.8389 256.693 73.1407 257.402C72.442 258.11 71.6827 258.754 70.8718 259.325L71.5886 262.064C71.6219 262.19 71.6305 262.321 71.6138 262.45C71.5972 262.579 71.5556 262.703 71.4915 262.815C71.4273 262.928 71.342 263.027 71.2402 263.105C71.1385 263.184 71.0224 263.242 70.8987 263.275L62.1571 265.658C62.0336 265.692 61.9047 265.701 61.7779 265.684C61.651 265.667 61.5287 265.625 61.418 265.559C61.3073 265.494 61.2104 265.407 61.1328 265.304C61.0552 265.201 60.9986 265.083 60.966 264.957L60.2438 262.218C58.272 262.058 56.3453 261.534 54.558 260.673L52.5963 262.661C52.5065 262.754 52.3995 262.827 52.2816 262.878C52.1636 262.928 52.037 262.954 51.9091 262.954C51.7812 262.954 51.6546 262.928 51.5367 262.878C51.4187 262.827 51.3117 262.754 51.222 262.661L47.7188 259.1L54.0568 252.652C54.1538 252.762 54.2562 252.866 54.3586 252.97C56.2732 254.917 58.8703 256.011 61.5785 256.011C64.2867 256.012 66.8842 254.919 68.7995 252.973C70.7149 251.026 71.7912 248.386 71.7917 245.633C71.7922 242.88 70.7169 240.24 68.8022 238.293L68.4897 237.992L74.8276 231.543L78.3361 235.11C78.5175 235.296 78.6192 235.547 78.6192 235.808C78.6192 236.07 78.5175 236.321 78.3361 236.507L76.3744 238.501C77.2219 240.318 77.7369 242.277 77.8942 244.281L80.5889 245.01C80.8382 245.079 81.0503 245.246 81.1786 245.474C81.307 245.702 81.341 245.972 81.2733 246.226L78.9343 255.112C78.9018 255.24 78.8446 255.36 78.7661 255.465C78.6877 255.57 78.5894 255.658 78.4771 255.724C78.3648 255.791 78.2407 255.834 78.1119 255.851C77.9832 255.868 77.8524 255.859 77.7271 255.824V255.824Z" fill="black"/>
</g>
</g>
<g style="mix-blend-mode:multiply">
<path d="M54.0029 251.737C53.9005 251.633 53.8035 251.529 53.7065 251.419L55.4257 249.672C55.5227 249.781 55.6143 249.891 55.7167 249.995C56.2808 250.571 56.9509 251.027 57.6887 251.34C58.4265 251.652 59.2176 251.814 60.0168 251.815C60.816 251.817 61.6077 251.658 62.3467 251.349C63.0856 251.039 63.7574 250.585 64.3236 250.011C64.8898 249.438 65.3394 248.757 65.6466 248.007C65.9538 247.257 66.1127 246.453 66.1142 245.64C66.1157 244.828 65.9598 244.023 65.6553 243.272C65.3509 242.521 64.9038 241.838 64.3398 241.262C64.2373 241.158 64.1293 241.059 64.0164 240.966L65.7356 239.219C65.8434 239.312 65.9458 239.416 66.0482 239.52C67.6056 241.148 68.47 243.333 68.4545 245.604C68.439 247.874 67.5448 250.047 65.9654 251.653C64.3859 253.258 62.2482 254.167 60.0146 254.183C57.781 254.199 55.631 253.32 54.0298 251.737H54.0029Z" fill="#F05A24"/>
</g>
<g style="mix-blend-mode:multiply">
<path d="M76.1587 255.825L73.464 255.096C72.9004 255.919 72.2674 256.691 71.5723 257.403C70.8718 258.111 70.1107 258.754 69.298 259.326L70.0148 262.065C70.0481 262.19 70.0567 262.321 70.04 262.45C70.0234 262.579 69.9818 262.704 69.9177 262.816C69.8536 262.929 69.7682 263.027 69.6665 263.106C69.5647 263.185 69.4487 263.242 69.3249 263.276L60.5833 265.659C60.4598 265.693 60.3309 265.701 60.2041 265.684C60.0772 265.667 59.9549 265.625 59.8442 265.56C59.7335 265.495 59.6366 265.408 59.559 265.305C59.4815 265.201 59.4248 265.083 59.3922 264.957L58.6754 262.218C56.7018 262.059 54.7732 261.535 52.9842 260.673L51.0279 262.662C50.9376 262.755 50.8302 262.828 50.7118 262.879C50.5934 262.929 50.4663 262.955 50.338 262.955C50.2097 262.955 50.0827 262.929 49.9642 262.879C49.8458 262.828 49.7384 262.755 49.6482 262.662L46.1612 259.112L52.5046 252.664C52.6016 252.773 52.6986 252.877 52.801 252.981C53.7497 253.944 54.8758 254.708 56.1148 255.229C57.3538 255.749 58.6816 256.017 60.0223 256.016C61.3631 256.015 62.6904 255.745 63.9287 255.223C65.167 254.7 66.2919 253.935 67.2392 252.97C68.1866 252.006 68.9377 250.861 69.4499 249.602C69.962 248.342 70.2251 246.993 70.2241 245.63C70.2231 244.267 69.958 242.918 69.444 241.659C68.93 240.4 68.1772 239.257 67.2285 238.294L66.9159 237.992L73.2592 231.544L76.7623 235.111C76.9437 235.296 77.0454 235.547 77.0454 235.809C77.0454 236.071 76.9437 236.322 76.7623 236.508L74.806 238.502C75.6493 240.32 76.1624 242.278 76.3204 244.282L79.0151 245.01C79.2646 245.08 79.4771 245.246 79.6063 245.474C79.7355 245.702 79.7709 245.972 79.705 246.226L77.3606 255.113C77.3286 255.24 77.272 255.36 77.1941 255.465C77.1161 255.57 77.0183 255.658 76.9065 255.725C76.7946 255.791 76.6709 255.834 76.5425 255.851C76.4141 255.868 76.2837 255.859 76.1587 255.825V255.825Z" fill="#08485C"/>
</g>
</g>
<path fill-rule="evenodd" clip-rule="evenodd" d="M43.4775 334.37L45.0944 333.17C45.6014 332.797 45.9427 332.235 46.0436 331.607C46.1446 330.978 45.9971 330.335 45.6333 329.817L36.9725 317.578C36.6061 317.062 36.0531 316.714 35.4348 316.611C34.8165 316.508 34.1833 316.659 33.6742 317.03L32.0574 318.236C31.5507 318.608 31.2095 319.169 31.1086 319.796C31.0076 320.424 31.1549 321.066 31.5184 321.583L40.1792 333.827C40.5464 334.343 41.0998 334.69 41.7181 334.792C42.3364 334.893 42.9691 334.742 43.4775 334.37Z" fill="white"/>
<path fill-rule="evenodd" clip-rule="evenodd" d="M43.0894 333.181L44.1349 332.414C44.4563 332.177 44.6721 331.82 44.7347 331.421C44.7974 331.023 44.7018 330.615 44.4691 330.288L36.3203 318.827C36.087 318.499 35.7352 318.279 35.3422 318.214C34.9492 318.149 34.547 318.246 34.2238 318.482L33.1836 319.249C32.8625 319.486 32.6467 319.843 32.5831 320.241C32.5195 320.639 32.6133 321.047 32.8441 321.375L40.9929 332.88C41.2335 333.199 41.5882 333.41 41.9804 333.467C42.3726 333.523 42.771 333.42 43.0894 333.181V333.181Z" fill="#E6E6E6"/>
<path fill-rule="evenodd" clip-rule="evenodd" d="M37.8077 323.117C41.6233 320.321 44.5377 316.437 46.1822 311.958C47.8267 307.478 48.1276 302.603 47.0468 297.95C45.966 293.296 43.5521 289.073 40.1102 285.814C36.6683 282.555 32.3531 280.407 27.7102 279.641C23.0672 278.875 18.3051 279.525 14.0259 281.51C9.74669 283.495 6.14262 286.726 3.66938 290.793C1.19614 294.86 -0.0351936 299.581 0.13108 304.36C0.297354 309.138 1.85376 313.759 4.60351 317.638C6.42963 320.215 8.73711 322.4 11.3942 324.07C14.0513 325.739 17.0059 326.861 20.0892 327.369C23.1726 327.878 26.3244 327.764 29.3646 327.035C32.4047 326.305 35.2737 324.974 37.8077 323.117V323.117Z" fill="white"/>
<path fill-rule="evenodd" clip-rule="evenodd" d="M36.4013 321.167C39.8376 318.648 42.4619 315.149 43.9424 311.114C45.4229 307.079 45.6931 302.688 44.7189 298.496C43.7446 294.305 41.5697 290.502 38.4691 287.567C35.3684 284.632 31.4813 282.697 27.2992 282.008C23.1171 281.318 18.8278 281.905 14.9737 283.694C11.1195 285.482 7.87361 288.392 5.64632 292.056C3.41902 295.719 2.31037 299.972 2.46055 304.276C2.61072 308.58 4.01298 312.742 6.49001 316.236C8.1352 318.557 10.214 320.525 12.6077 322.029C15.0015 323.533 17.6632 324.542 20.4408 325C23.2185 325.458 26.0577 325.355 28.7962 324.698C31.5347 324.04 34.119 322.84 36.4013 321.167V321.167Z" fill="#B3B3B3"/>
<path fill-rule="evenodd" clip-rule="evenodd" d="M34.5255 318.526C37.4475 316.384 39.6791 313.409 40.938 309.978C42.1969 306.547 42.4266 302.813 41.5981 299.249C40.7696 295.685 38.9201 292.451 36.2834 289.955C33.6468 287.459 30.3413 285.815 26.7851 285.229C23.2289 284.643 19.5816 285.142 16.3044 286.663C13.0271 288.184 10.2672 290.658 8.37349 293.774C6.47978 296.889 5.53737 300.506 5.66541 304.165C5.79345 307.825 6.9862 311.364 9.09284 314.335C10.4919 316.308 12.2595 317.982 14.2949 319.26C16.3303 320.539 18.5934 321.397 20.9551 321.786C23.3169 322.175 25.7309 322.088 28.0593 321.528C30.3877 320.969 32.5849 319.949 34.5255 318.526V318.526Z" fill="#603813"/>
<path d="M304.805 53.0925L241.01 44.8474L237.507 87.7276L301.302 95.9727L304.805 53.0925Z" fill="url(#paint7_linear)" stroke="black" stroke-width="0.25" stroke-miterlimit="10"/>
<path d="M237.507 87.7279L272.894 49.121L301.302 95.9731L237.507 87.7279Z" fill="url(#paint8_linear)" stroke="black" stroke-width="0.25" stroke-miterlimit="10"/>
<path d="M304.805 53.0925L270.092 83.4325L241.01 44.8474L304.805 53.0925Z" fill="url(#paint9_linear)" stroke="black" stroke-width="0.25" stroke-miterlimit="10"/>
<path d="M268.886 32.1812L209.939 56.2815L225.909 96.6439L284.856 72.5437L268.886 32.1812Z" fill="url(#paint10_linear)" stroke="black" stroke-width="0.25" stroke-miterlimit="10"/>
<path d="M225.909 96.6523L239.474 44.382L284.859 72.5524L225.909 96.6523Z" fill="url(#paint11_linear)" stroke="black" stroke-width="0.25" stroke-miterlimit="10"/>
<path d="M268.89 32.1865L252.252 76.6829L209.94 56.2864L268.89 32.1865Z" fill="url(#paint12_linear)" stroke="black" stroke-width="0.25" stroke-miterlimit="10"/>
<path d="M141.974 318.175C141.973 318.436 141.87 318.685 141.688 318.869C141.507 319.053 141.261 319.156 141.004 319.156H67.1692C66.9134 319.156 66.668 319.053 66.4871 318.869C66.3062 318.685 66.2045 318.435 66.2045 318.175V318.175C66.2038 318.046 66.2283 317.918 66.2764 317.798C66.3246 317.679 66.3955 317.57 66.4852 317.478C66.5748 317.387 66.6814 317.314 66.7988 317.264C66.9162 317.215 67.0421 317.189 67.1692 317.189H141.004C141.262 317.189 141.508 317.293 141.69 317.478C141.872 317.663 141.974 317.914 141.974 318.175V318.175Z" fill="#08485C"/>
<path d="M102.157 321.227C102.157 327.801 94.5314 333.094 85.1323 333.094C75.7331 333.094 68.1071 327.779 68.1071 321.227C68.1071 314.675 75.7277 309.361 85.1323 309.361C94.5368 309.361 102.157 314.675 102.157 321.227Z" fill="#08485C"/>
<path d="M85.1322 331.56C93.3205 331.56 99.9585 326.934 99.9585 321.227C99.9585 315.521 93.3205 310.895 85.1322 310.895C76.9439 310.895 70.3059 315.521 70.3059 321.227C70.3059 326.934 76.9439 331.56 85.1322 331.56Z" fill="#00BFC5"/>
<path d="M85.1322 310.895H85.0567V331.56H85.1322C93.3187 331.56 99.9584 326.936 99.9584 321.227C99.9584 315.518 93.3187 310.895 85.1322 310.895Z" fill="#009CA0"/>
<path d="M140.061 321.227C140.061 327.801 132.44 333.094 123.036 333.094C113.631 333.094 106.016 327.779 106.016 321.227C106.016 314.675 113.637 309.361 123.036 309.361C132.435 309.361 140.061 314.675 140.061 321.227Z" fill="#08485C"/>
<path d="M137.862 321.227C137.862 326.936 131.228 331.56 123.036 331.56C114.844 331.56 108.21 326.936 108.21 321.227C108.21 315.518 114.849 310.895 123.036 310.895C131.223 310.895 137.862 315.54 137.862 321.227Z" fill="#00BFC5"/>
<path d="M123.036 310.895H122.961V331.56H123.036C131.228 331.56 137.862 326.936 137.862 321.227C137.862 315.518 131.228 310.895 123.036 310.895Z" fill="#009CA0"/>
<path d="M216.408 323.5H164.141V334.54H216.408V323.5Z" fill="#00525E"/>
<path d="M230.582 324.717V318.449H195.728" stroke="#003A46" stroke-width="4.12" stroke-linecap="round" stroke-linejoin="bevel"/>
<path d="M234.166 322.569H211.439C210.826 322.569 210.328 323.074 210.328 323.697V334.348C210.328 334.971 210.826 335.476 211.439 335.476H234.166C234.779 335.476 235.276 334.971 235.276 334.348V323.697C235.276 323.074 234.779 322.569 234.166 322.569Z" fill="#00525E"/>
<path d="M233.444 335.476H234.171C234.466 335.476 234.748 335.357 234.956 335.146C235.164 334.934 235.281 334.647 235.281 334.348V323.697C235.281 323.398 235.164 323.111 234.956 322.899C234.748 322.688 234.466 322.569 234.171 322.569H233.444V335.476Z" fill="#00BFC5"/>
<path d="M212.172 322.569H211.439C211.144 322.569 210.862 322.688 210.654 322.899C210.445 323.111 210.328 323.398 210.328 323.697V334.348C210.328 334.647 210.445 334.934 210.654 335.146C210.862 335.357 211.144 335.476 211.439 335.476H212.172V322.569Z" fill="#00BFC5"/>
<path d="M164.766 323.484H164.141C163.888 323.484 163.645 323.586 163.466 323.768C163.287 323.95 163.187 324.196 163.187 324.453V333.619C163.187 333.876 163.287 334.123 163.466 334.305C163.645 334.487 163.888 334.589 164.141 334.589H164.766V323.484Z" fill="#00BFC5"/>
<path d="M347.564 319.156C347.564 321.857 346.776 324.498 345.3 326.744C343.824 328.99 341.725 330.74 339.27 331.774C336.815 332.808 334.114 333.078 331.507 332.551C328.901 332.024 326.507 330.723 324.628 328.813C322.749 326.903 321.469 324.47 320.951 321.82C320.432 319.171 320.698 316.425 321.715 313.929C322.732 311.433 324.454 309.3 326.664 307.8C328.873 306.299 331.471 305.498 334.128 305.498C337.689 305.508 341.101 306.95 343.618 309.509C346.136 312.068 347.554 315.537 347.564 319.156ZM352.954 319.156C352.954 315.363 351.847 311.656 349.775 308.503C347.702 305.35 344.756 302.892 341.309 301.441C337.863 299.989 334.07 299.61 330.411 300.349C326.752 301.089 323.391 302.915 320.753 305.597C318.115 308.279 316.318 311.695 315.59 315.415C314.862 319.134 315.236 322.99 316.664 326.494C318.091 329.997 320.509 332.992 323.611 335.099C326.713 337.206 330.36 338.33 334.091 338.33C339.094 338.33 343.891 336.31 347.429 332.714C350.966 329.118 352.954 324.241 352.954 319.156V319.156Z" fill="#00525E"/>
<path opacity="0.5" d="M339.351 319.255C338.566 319.256 337.799 319.02 337.146 318.578C336.493 318.135 335.984 317.506 335.683 316.769C335.382 316.033 335.302 315.222 335.455 314.439C335.607 313.657 335.985 312.938 336.539 312.373C337.094 311.809 337.8 311.424 338.57 311.268C339.34 311.112 340.137 311.192 340.862 311.497C341.588 311.802 342.207 312.318 342.643 312.982C343.08 313.645 343.312 314.425 343.312 315.222C343.313 315.752 343.211 316.276 343.012 316.765C342.814 317.254 342.522 317.699 342.154 318.073C341.786 318.448 341.349 318.745 340.868 318.947C340.387 319.15 339.872 319.255 339.351 319.255V319.255Z" fill="#F1F1F1"/>
<path d="M315.864 316.893H302.331V321.413H315.864V316.893Z" fill="#00525E"/>
<path d="M267.149 314.932H304.261C304.363 314.932 304.463 314.952 304.558 314.992C304.652 315.032 304.737 315.09 304.809 315.163C304.881 315.236 304.939 315.323 304.978 315.419C305.017 315.515 305.037 315.617 305.037 315.721V322.596C305.037 322.804 304.956 323.003 304.811 323.15C304.666 323.297 304.47 323.38 304.266 323.38H267.149C266.943 323.38 266.746 323.297 266.6 323.149C266.455 323.001 266.373 322.8 266.373 322.591V315.715C266.373 315.612 266.393 315.51 266.432 315.414C266.471 315.319 266.529 315.232 266.601 315.16C266.673 315.087 266.758 315.029 266.853 314.99C266.947 314.951 267.047 314.931 267.149 314.932V314.932Z" fill="#C0272D"/>
<defs>
<linearGradient id="paint0_linear" x1="309.768" y1="121.995" x2="404.002" y2="121.995" gradientUnits="userSpaceOnUse">
<stop stop-color="#CBDFF3"/>
<stop offset="0.06" stop-color="#C2DBF1"/>
<stop offset="0.17" stop-color="#A8D1ED"/>
<stop offset="0.31" stop-color="#7FC1E6"/>
<stop offset="0.47" stop-color="#46ABDD"/>
<stop offset="0.57" stop-color="#1E9BD6"/>
<stop offset="0.87" stop-color="#0075BD"/>
<stop offset="0.99" stop-color="#005B96"/>
</linearGradient>
<linearGradient id="paint1_linear" x1="1577.33" y1="21734.3" x2="26082.1" y2="21734.3" gradientUnits="userSpaceOnUse">
<stop stop-color="#CBDFF3"/>
<stop offset="0.06" stop-color="#C2DBF1"/>
<stop offset="0.17" stop-color="#A8D1ED"/>
<stop offset="0.31" stop-color="#7FC1E6"/>
<stop offset="0.47" stop-color="#46ABDD"/>
<stop offset="0.57" stop-color="#1E9BD6"/>
<stop offset="0.87" stop-color="#0075BD"/>
<stop offset="0.99" stop-color="#005B96"/>
</linearGradient>
<linearGradient id="paint2_linear" x1="55223.1" y1="41023.3" x2="79730.2" y2="41023.3" gradientUnits="userSpaceOnUse">
<stop stop-color="#CBDFF3"/>
<stop offset="0.06" stop-color="#C2DBF1"/>
<stop offset="0.17" stop-color="#A8D1ED"/>
<stop offset="0.31" stop-color="#7FC1E6"/>
<stop offset="0.47" stop-color="#46ABDD"/>
<stop offset="0.57" stop-color="#1E9BD6"/>
<stop offset="0.87" stop-color="#0075BD"/>
<stop offset="0.99" stop-color="#005B96"/>
</linearGradient>
<linearGradient id="paint3_linear" x1="12289.5" y1="4229.11" x2="24103" y2="4229.11" gradientUnits="userSpaceOnUse">
<stop stop-color="#CBDFF3"/>
<stop offset="0.06" stop-color="#C2DBF1"/>
<stop offset="0.17" stop-color="#A8D1ED"/>
<stop offset="0.31" stop-color="#7FC1E6"/>
<stop offset="0.47" stop-color="#46ABDD"/>
<stop offset="0.57" stop-color="#1E9BD6"/>
<stop offset="0.87" stop-color="#0075BD"/>
<stop offset="0.99" stop-color="#005B96"/>
</linearGradient>
<linearGradient id="paint4_linear" x1="46880.8" y1="24169.3" x2="90558.1" y2="24169.3" gradientUnits="userSpaceOnUse">
<stop stop-color="#50D5FF"/>
<stop offset="0.17" stop-color="#A8D1ED"/>
<stop offset="0.31" stop-color="#7FC1E6"/>
<stop offset="0.47" stop-color="#46ABDD"/>
<stop offset="0.494792" stop-color="#1B93FC"/>
<stop offset="0.57" stop-color="#1E9BD6"/>
<stop offset="0.87" stop-color="#0075BD"/>
<stop offset="0.99" stop-color="#005B96"/>
</linearGradient>
<linearGradient id="paint5_linear" x1="103.677" y1="100.066" x2="305.204" y2="298.316" gradientUnits="userSpaceOnUse">
<stop offset="0.07" stop-color="#6AC6FF"/>
<stop offset="0.63" stop-color="#046BA5"/>
<stop offset="0.87" stop-color="#0075BD"/>
<stop offset="0.98" stop-color="#194BAF"/>
</linearGradient>
<linearGradient id="paint6_linear" x1="62.5343" y1="188.28" x2="95.3243" y2="226.719" gradientUnits="userSpaceOnUse">
<stop stop-color="#35DB78"/>
<stop offset="0.06" stop-color="#30CD8C"/>
<stop offset="0.19" stop-color="#28B7AC"/>
<stop offset="0.3" stop-color="#23A8C3"/>
<stop offset="0.41" stop-color="#1F9ED1"/>
<stop offset="0.51" stop-color="#1E9BD6"/>
<stop offset="0.99" stop-color="#1266C9"/>
</linearGradient>
<linearGradient id="paint7_linear" x1="237.507" y1="70.4101" x2="304.805" y2="70.4101" gradientUnits="userSpaceOnUse">
<stop stop-color="#CBDFF3"/>
<stop offset="0.47" stop-color="#C9DFF3"/>
<stop offset="0.63" stop-color="#C2DDF3"/>
<stop offset="0.75" stop-color="#B7DAF3"/>
<stop offset="0.85" stop-color="#A6D6F3"/>
<stop offset="0.93" stop-color="#90D1F4"/>
<stop offset="0.99" stop-color="#7ACCF4"/>
</linearGradient>
<linearGradient id="paint8_linear" x1="28341.5" y1="6255.15" x2="35892.9" y2="6255.15" gradientUnits="userSpaceOnUse">
<stop stop-color="#CBDFF3"/>
<stop offset="0.47" stop-color="#C9DFF3"/>
<stop offset="0.63" stop-color="#C2DDF3"/>
<stop offset="0.75" stop-color="#B7DAF3"/>
<stop offset="0.85" stop-color="#A6D6F3"/>
<stop offset="0.93" stop-color="#90D1F4"/>
<stop offset="0.99" stop-color="#7ACCF4"/>
</linearGradient>
<linearGradient id="paint9_linear" x1="28759.7" y1="4563.93" x2="36311.1" y2="4563.93" gradientUnits="userSpaceOnUse">
<stop stop-color="#CBDFF3"/>
<stop offset="0.47" stop-color="#C9DFF3"/>
<stop offset="0.63" stop-color="#C2DDF3"/>
<stop offset="0.75" stop-color="#B7DAF3"/>
<stop offset="0.85" stop-color="#A6D6F3"/>
<stop offset="0.93" stop-color="#90D1F4"/>
<stop offset="0.99" stop-color="#7ACCF4"/>
</linearGradient>
<linearGradient id="paint10_linear" x1="24955.8" y1="5160.13" x2="33788" y2="5160.13" gradientUnits="userSpaceOnUse">
<stop stop-color="#CBDFF3"/>
<stop offset="0.47" stop-color="#C9DFF3"/>
<stop offset="0.63" stop-color="#C2DDF3"/>
<stop offset="0.75" stop-color="#B7DAF3"/>
<stop offset="0.85" stop-color="#A6D6F3"/>
<stop offset="0.93" stop-color="#90D1F4"/>
<stop offset="0.99" stop-color="#7ACCF4"/>
</linearGradient>
<linearGradient id="paint11_linear" x1="24926.9" y1="6774.19" x2="31374.8" y2="6774.19" gradientUnits="userSpaceOnUse">
<stop stop-color="#CBDFF3"/>
<stop offset="0.47" stop-color="#C9DFF3"/>
<stop offset="0.63" stop-color="#C2DDF3"/>
<stop offset="0.75" stop-color="#B7DAF3"/>
<stop offset="0.85" stop-color="#A6D6F3"/>
<stop offset="0.93" stop-color="#90D1F4"/>
<stop offset="0.99" stop-color="#7ACCF4"/>
</linearGradient>
<linearGradient id="paint12_linear" x1="23164.3" y1="4455.12" x2="29612.1" y2="4455.12" gradientUnits="userSpaceOnUse">
<stop stop-color="#CBDFF3"/>
<stop offset="0.47" stop-color="#C9DFF3"/>
<stop offset="0.63" stop-color="#C2DDF3"/>
<stop offset="0.75" stop-color="#B7DAF3"/>
<stop offset="0.85" stop-color="#A6D6F3"/>
<stop offset="0.93" stop-color="#90D1F4"/>
<stop offset="0.99" stop-color="#7ACCF4"/>
</linearGradient>
</defs>
</svg>
