<svg width="466" height="310" viewBox="0 0 466 310" fill="none" xmlns="http://www.w3.org/2000/svg">
<path d="M464.051 8.23218H2.09492C1.29608 8.23218 0.648499 8.87976 0.648499 9.6786V275.531C0.648499 276.33 1.29608 276.978 2.09492 276.978H464.051C464.85 276.978 465.498 276.33 465.498 275.531V9.6786C465.498 8.87976 464.85 8.23218 464.051 8.23218Z" fill="url(#paint0_linear)"/>
<path d="M452.319 20.4184H13.8272C13.3243 20.4184 12.9166 20.8261 12.9166 21.329V263.881C12.9166 264.384 13.3243 264.792 13.8272 264.792H452.319C452.822 264.792 453.23 264.384 453.23 263.881V21.329C453.23 20.8261 452.822 20.4184 452.319 20.4184Z" fill="#E4E5FB"/>
<path d="M12.9166 37.4086H453.23V264.478C453.23 264.718 453.135 264.948 452.965 265.117C452.795 265.287 452.565 265.382 452.326 265.382H13.8208C13.581 265.382 13.351 265.287 13.1814 265.117C13.0118 264.948 12.9166 264.718 12.9166 264.478V37.4086Z" fill="white"/>
<path d="M28.0694 28.7701C28.0589 29.2838 27.897 29.7831 27.604 30.2052C27.311 30.6273 26.8998 30.9535 26.4222 31.1429C25.9445 31.3323 25.4215 31.3765 24.9188 31.2699C24.4162 31.1633 23.9561 30.9106 23.5965 30.5436C23.2368 30.1766 22.9935 29.7116 22.897 29.2069C22.8005 28.7022 22.8552 28.1802 23.0542 27.7064C23.2532 27.2326 23.5876 26.8282 24.0155 26.5437C24.4435 26.2592 24.9459 26.1074 25.4597 26.1073C26.1588 26.1145 26.8265 26.3991 27.3158 26.8984C27.8052 27.3977 28.0763 28.071 28.0694 28.7701V28.7701Z" fill="#FF005C"/>
<path d="M33.9693 26.1075C33.44 26.0963 32.9194 26.243 32.4739 26.529C32.0283 26.8149 31.6781 27.2271 31.4678 27.713C31.2575 28.1988 31.1968 28.7363 31.2933 29.2569C31.3897 29.7774 31.6391 30.2574 32.0096 30.6356C32.38 31.0138 32.8547 31.2731 33.3731 31.3804C33.8916 31.4876 34.4302 31.438 34.9203 31.2379C35.4104 31.0377 35.8298 30.6961 36.125 30.2566C36.4201 29.8171 36.5776 29.2996 36.5774 28.7702C36.5843 28.0714 36.3134 27.3984 35.8244 26.8991C35.3354 26.3998 34.6682 26.1151 33.9693 26.1075V26.1075Z" fill="#FFC136"/>
<path d="M42.4806 26.1076C41.9514 26.0967 41.4309 26.2438 40.9856 26.5299C40.5402 26.8161 40.1902 27.2284 39.9802 27.7143C39.7702 28.2002 39.7096 28.7376 39.8063 29.258C39.903 29.7785 40.1525 30.2583 40.523 30.6364C40.8935 31.0144 41.3682 31.2735 41.8866 31.3807C42.405 31.4878 42.9436 31.4381 43.4336 31.2379C43.9236 31.0377 44.3429 30.6961 44.6379 30.2566C44.933 29.8171 45.0905 29.2997 45.0903 28.7704C45.0939 28.4242 45.0292 28.0806 44.9 27.7594C44.7708 27.4382 44.5795 27.1455 44.3372 26.8982C44.0948 26.651 43.8061 26.4539 43.4876 26.3182C43.169 26.1825 42.8268 26.111 42.4806 26.1076V26.1076Z" fill="#00EAD9"/>
<path d="M221.009 166.137H220.119V259.561H221.009V166.137Z" fill="#E0E0E0"/>
<path d="M284.325 166.137H283.435V259.561H284.325V166.137Z" fill="#E0E0E0"/>
<path d="M347.641 166.137H346.749V259.561H347.641V166.137Z" fill="#E0E0E0"/>
<path d="M172.416 154.624H157.25V157.059H172.416V154.624Z" fill="#D9D9D9"/>
<path d="M178.761 159.125H157.25V161.561H178.761V159.125Z" fill="#D9D9D9"/>
<path d="M237.687 154.624H219.882V157.059H237.687V154.624Z" fill="#D9D9D9"/>
<path d="M231.267 159.125H219.882V161.561H231.267V159.125Z" fill="#D9D9D9"/>
<path d="M295.357 154.624H284.325V157.059H295.357V154.624Z" fill="#D9D9D9"/>
<path d="M297.185 159.125H284.325V161.561H297.185V159.125Z" fill="#D9D9D9"/>
<path d="M363.711 154.624H347.639V157.059H363.711V154.624Z" fill="#D9D9D9"/>
<path d="M360.499 159.125H347.639V161.561H360.499V159.125Z" fill="#D9D9D9"/>
<path d="M230.638 265.096H220.565V268.343H230.638V265.096Z" fill="#B8B8B8"/>
<path d="M294.398 265.096H284.325V268.343H294.398V265.096Z" fill="#B8B8B8"/>
<path d="M357.713 265.096H347.639V268.343H357.713V265.096Z" fill="#B8B8B8"/>
<g opacity="0.43">
<path opacity="0.43" d="M388.561 231.802C368.813 231.802 351.645 223.265 333.749 214.366C311.656 203.379 288.809 192.018 258.369 195.13C238.932 197.115 226.732 205.031 215.966 212.024C206.221 218.347 197.007 223.909 184.526 224.383C164.357 225.151 157.359 216.548 157.244 216.017V210.502C157.268 210.596 161.671 220.252 184.505 220.137C195.748 220.081 204.047 214.696 213.657 208.461C224.823 201.221 237.481 193.004 257.938 190.913C289.597 187.677 313.004 199.316 335.638 210.572C359.323 222.35 381.924 233.395 410.503 223.812V228.351C402.364 231.076 395.847 231.802 388.561 231.802Z" fill="url(#paint1_linear)"/>
</g>
<g opacity="0.22">
<path opacity="0.22" d="M270.029 230.745C255.452 230.745 243.891 220.942 232.572 211.345C223.99 204.069 215.086 196.63 204.808 192.96C173.434 181.761 157.393 202.211 157.25 202.391V196.169C157.411 195.957 160.281 192.24 168.564 188.691C176.103 185.46 188.753 182.883 206.202 188.952C217.257 192.797 226.437 200.581 235.323 208.109C253.334 223.378 268.889 236.566 295.901 215.909C316.362 200.264 335.641 185.356 354.627 179.908C373.187 174.581 392.538 178.481 410.651 196.594L410.518 202.243C372.042 163.598 339.281 188.085 298.482 219.28C287.666 227.545 278.349 230.744 270.029 230.745Z" fill="url(#paint2_linear)"/>
</g>
<path d="M280.743 143.818L280.1 143.064L290.765 133.978H297.243L311.94 121.457L321.132 129.288H327.911L331.336 132.207L341.981 123.139H347.383L369.783 104.055L370.426 104.81L347.749 124.13H342.346L331.336 133.508L327.545 130.279H320.767L311.94 122.759L297.608 134.969H291.131L280.743 143.818Z" fill="url(#paint3_linear)"/>
<path d="M282.285 131.267H278.599V130.276H281.873L287.409 124.741L291.433 128.766L301.046 119.151L304.004 122.109L313.752 112.362L319.592 118.202H326.252L336.531 107.924H345.395L351.95 101.371H359.97L367.931 93.4103L368.631 94.1118L360.382 102.362H352.36L345.807 108.916H336.941L326.662 119.193H319.182L313.752 113.763L304.004 123.512L301.046 120.554L291.433 130.168L287.409 126.142L282.285 131.267Z" fill="url(#paint4_linear)"/>
<path d="M370.047 138.974C370.047 138.954 370.035 138.937 370.031 138.919C361.444 110.344 340.013 85.9225 310.404 73.3552C305.24 71.1518 299.915 69.3483 294.475 67.9605C281.05 64.5046 267.101 63.5647 253.334 65.1883C253.322 65.1874 253.31 65.1874 253.298 65.1883H253.279C244.348 66.2488 235.579 68.387 227.163 71.5564L227.113 71.5741C196.49 83.0651 171.79 107.798 162.585 140.436C147.14 195.219 181.143 251.562 238.538 266.301C268.012 273.863 297.917 268.996 322.133 255.053L328.803 250.95L337.437 244.701L342.817 239.589C355.65 227.31 365.394 211.755 370.455 193.809C375.726 175.144 375.25 156.289 370.047 138.974ZM293.719 242.083C251.708 257.14 205.444 235.289 190.389 193.278C175.613 152.049 196.382 106.718 236.873 90.8201C237.638 90.5198 238.412 90.2291 239.194 89.9481C258.805 82.8886 280.388 83.7082 299.407 92.2344C318.81 100.902 334.789 117.173 342.526 138.753C343.132 140.452 343.681 142.158 344.174 143.87C355.777 184.455 334.031 227.635 293.719 242.083V242.083Z" fill="url(#paint5_linear)"/>
<path d="M404.125 126.785L380.704 133.457L344.172 143.87C343.681 142.154 343.131 140.448 342.524 138.753C334.789 117.166 318.81 100.902 299.405 92.2345L314.872 57.5976L316.503 53.9534L324.816 35.3381C364.214 52.8609 392.721 86.9363 404.125 126.785Z" fill="#007FE6"/>
<path d="M316.503 53.9532L314.872 57.5974L299.402 92.2344C285.967 86.216 271.14 83.9904 256.53 85.7987L251.865 48.1498L251.382 44.2015C273.572 41.4833 296.083 44.8543 316.503 53.9532V53.9532Z" fill="#0064B5"/>
<path d="M256.535 85.8099C250.62 86.5504 244.805 87.9403 239.194 89.9545C238.412 90.2345 237.638 90.5252 236.873 90.8266L222.984 55.5219L218.779 44.837C228.949 40.8127 239.588 38.0913 250.442 36.7377H250.466L251.388 44.1999L251.871 48.1482L256.535 85.8099Z" fill="#004E8C"/>
<path d="M241.109 28.5435C241.109 28.5435 239.421 25.4463 238.461 24.3313C237.5 23.2163 234.311 22.3797 234.744 20.9526C235.177 19.5255 239.452 20.1481 240.628 21.5414C241.804 22.9348 245.398 23.4335 245.527 24.0272C245.656 24.6209 244.279 27.8372 243.509 28.3633C242.74 28.8894 241.109 28.5435 241.109 28.5435Z" fill="#6A75BA"/>
<path d="M233.943 31.1677C233.943 31.1677 231.193 28.9876 229.871 28.3456C228.548 27.7037 225.287 28.2024 225.119 26.7238C224.952 25.2452 229.119 24.1157 230.751 24.9266C232.382 25.7375 235.878 24.7658 236.221 25.2581C236.564 25.7504 236.588 29.2498 236.091 30.0382C235.594 30.8266 233.943 31.1677 233.943 31.1677Z" fill="#545D94"/>
<path d="M240.041 36.8421C240.041 36.8421 241.241 28.6365 241.186 27.211C241.17 26.804 243.656 26.9552 243.54 27.7371C243.287 29.4394 244.433 36.0376 244.235 37.2443C244.037 38.451 239.938 37.6031 240.041 36.8421Z" fill="#EEA886"/>
<path d="M236.279 39.2007C236.279 39.2007 234.026 31.2317 233.507 29.9059C233.273 29.3171 235.565 28.4032 235.875 29.4554C236.358 31.1062 239.992 36.7181 240.288 37.9055C240.584 39.0929 236.488 39.9392 236.279 39.2007Z" fill="#EEA886"/>
<path d="M237.841 44.7387C237.841 44.7387 235.428 36.5943 235.055 35.7287L238.863 33.3749C238.863 33.3749 240.633 38.5781 240.876 39.8782C241.119 41.1782 237.841 44.7387 237.841 44.7387Z" fill="#D9D3C8"/>
<path d="M305.268 23.2226C305.268 23.2226 301.59 24.1526 299.84 26.9344C298.089 29.7162 296.577 32.9212 293.288 34.3741C289.999 35.8269 289.979 39.5725 290.231 40.1501C290.484 40.7277 300.589 52.0835 302.794 52.5227C304.998 52.962 309.126 52.6563 308.684 49.7393C308.241 46.8223 303.921 40.5411 306.345 37.3811C308.768 34.2212 309.384 31.2978 309.384 31.2978L305.268 23.2226Z" fill="#222538"/>
<path d="M304.626 36.8018C304.532 36.7737 304.436 36.7559 304.338 36.7487C304.048 36.7232 303.755 36.7583 303.479 36.8517C303.362 36.8948 303.249 36.9486 303.143 37.0126C302.267 37.5275 300.2 38.9256 299.925 38.9594C299.603 38.998 299.875 34.1728 299.875 34.1728C299.875 34.1728 300.975 32.2244 301.114 30.9421C301.252 29.6598 304.626 36.8018 304.626 36.8018Z" fill="#EEA886"/>
<path d="M278.751 41.8445C278.751 41.8445 274.71 39.0112 269.972 39.8929C265.233 40.7746 264.722 42.9901 263.097 43.0914C261.472 43.1928 256.035 42.7262 251.577 44.0278C247.118 45.3294 243.354 45.4678 242.843 45.0961C242.333 44.7245 245.63 37.2912 245.63 36.2696L240.102 34.8215C240.102 34.8215 238.522 41.4181 237.904 42.9048C237.241 44.4944 235.973 47.487 237.78 50.0886C239.587 52.6903 244.655 51.519 247.72 52.0419C250.785 52.5648 264.509 52.2301 266.905 52.1014C269.507 51.963 277.363 51.5914 277.363 51.5914L278.751 41.8445Z" fill="#D9D3C8"/>
<path d="M311.943 27.1566C311.943 27.1566 312.201 31.1499 311.314 32.347C311.093 32.6655 310.84 32.9604 310.558 33.2271C310.33 33.4237 310.156 33.6758 310.053 33.9591C309.779 34.7266 309.611 35.8078 309.393 36.0379C309.176 36.2679 308.465 35.6501 308.216 35.6485C307.966 35.6469 305.533 37.7401 304.953 37.3153C304.372 36.8906 300.822 33.293 301.122 30.8185C301.421 28.344 302.509 24.6708 306.505 24.6869C310.502 24.703 311.638 26.1639 311.943 27.1566Z" fill="#EEA886"/>
<path d="M299.872 46.211C299.795 46.3719 298.326 48.7193 296.717 50.0805C296.049 50.6468 295.357 51.0459 294.731 51.0459C294.54 51.0459 294.353 51.0459 294.171 51.0539C292.324 51.1038 290.907 51.3869 288.413 51.5108C285.824 51.6395 279.541 51.2791 279.355 51.2791C279.168 51.2791 277.358 51.6009 277.358 51.6009C276.715 50.811 278.426 41.8927 278.751 41.846C279.076 41.7994 281.165 42.5893 283.165 42.2643C285.165 41.9393 285.951 41.7527 288.925 38.2694C291.898 34.786 294.878 33.9027 296.125 34.1811C297.372 34.4594 299.872 34.1811 299.872 34.1811C299.872 34.1811 299.98 45.9777 299.872 46.211Z" fill="#FFC955"/>
<path d="M310.265 30.0155C310.265 30.0155 311.01 31.9462 311.405 32.2101C311.405 32.2101 312.841 30.6912 311.918 26.9408C310.994 23.1904 307.516 22.8397 305.268 23.2194C302.47 23.7021 299.655 33.1577 299.798 34.0796C299.941 35.0015 303.077 29.1885 305.823 29.6567C308.57 30.1249 308.597 30.2777 310.265 30.0155Z" fill="#222538"/>
<path d="M304.338 36.7491C304.047 36.7305 303.756 36.771 303.481 36.8681C303.363 36.9067 303.25 36.9574 303.143 37.0193C302.499 36.0186 301.904 33.6406 301.885 33.5618C302.322 34.4853 304.338 36.7491 304.338 36.7491Z" fill="#A77860"/>
<path d="M296.717 50.0804C296.049 50.6468 295.357 51.0458 294.731 51.0458C294.54 51.0458 294.353 51.0458 294.171 51.0538L295.082 43.656L296.717 50.0804Z" fill="#C29941"/>
<path d="M311.171 62.8135L309.389 64.4353C307.851 63.6099 303.996 60.8361 303.254 60.2038C302.475 59.5425 297.29 55.2033 296.577 54.2154C295.864 53.2275 294.949 43.0076 295.04 42.5394C295.132 42.0712 299.545 41.8412 300.05 42.9224C300.05 42.9224 300.282 48.7499 300.401 49.7249C300.514 50.7119 300.915 51.6438 301.555 52.4037C302.482 53.5396 304.451 56.1767 306.362 58.3085C306.818 58.8169 310.582 62.3067 311.171 62.8135Z" fill="#EEA886"/>
<path d="M300.414 43.051C300.414 43.051 300.692 35.2912 298.162 35.3861C294.971 35.5084 294.492 39.4084 294.926 43.656C294.932 43.656 299.701 43.7027 300.414 43.051Z" fill="#FFC955"/>
<path d="M310.312 62.0525C310.454 62.2697 310.657 62.4404 310.895 62.5432C311.488 62.7444 312.367 62.3582 312.8 63.1353C313.232 63.9125 311.141 65.8577 310.579 65.9767C310.018 66.0958 309.117 65.2189 308.412 63.4941C307.707 61.7693 310.312 62.0525 310.312 62.0525Z" fill="#EEA886"/>
<path d="M312.619 62.8923C313.367 63.4733 314.083 64.0931 314.765 64.749C315.712 65.6645 316.675 66.8647 316.432 67.0916C316.101 67.4021 315.454 66.3708 314.455 65.5229C313.536 64.7425 313.588 65.0402 313.588 65.0402C313.588 65.0402 313.578 64.9533 314.416 65.9911C315.319 67.1061 316.251 68.4286 315.972 68.6201C315.798 68.7391 315.79 68.7713 315.396 68.4173C315.58 68.6667 315.536 68.7504 315.44 68.8308C314.936 69.2524 313.348 67.8108 312.729 67.2364C313.211 67.6804 313.512 68.0537 313.025 68.1116C312.468 68.1776 310.325 66.0409 309.485 65.3459C308.563 64.5913 312.619 62.8923 312.619 62.8923Z" fill="#EEA886"/>
<path d="M280.566 42.208C280.566 42.208 279.715 48.3139 280.135 51.3193C280.135 51.3193 280.579 51.6492 281.462 51.3821C281.462 51.3821 281.684 44.7147 282.178 42.348C282.178 42.3399 281.906 42.134 280.566 42.208Z" fill="#E0E0E0"/>
<path d="M281.429 0.375916H280.769V46.8176H281.429V0.375916Z" fill="#E0E0E0"/>
<path d="M383.874 241.824H396.66V240.928H383.874V241.824Z" fill="white"/>
<path d="M383.874 246.384H396.66V242.616H383.874V246.384Z" fill="white"/>
<path d="M377.868 248.215H385.41V247.652H377.868V248.215Z" fill="white"/>
<path d="M377.868 249.986H385.41V248.461H377.868V249.986Z" fill="white"/>
<path d="M398.758 246.654H399.321V236.096H398.758V246.654Z" fill="white"/>
<path d="M51.7817 172.512H64.0739L60.3107 164.707H48.0185L51.7817 172.512Z" fill="url(#paint6_linear)"/>
<path d="M46.0298 172.512H48.9581L45.1964 164.707H42.2666L46.0298 172.512Z" fill="url(#paint7_linear)"/>
<path d="M376.412 32.1715H390.042V26.9135H376.412V32.1715Z" fill="url(#paint8_linear)"/>
<path d="M376.412 25.4509H390.042V24.4614H376.412V25.4509Z" fill="url(#paint9_linear)"/>
<path style="mix-blend-mode:hard-light" d="M172.747 137.815H83.9137C81.8442 137.815 80.1665 139.493 80.1665 141.562V142.51C80.1665 144.58 81.8442 146.257 83.9137 146.257H172.747C174.817 146.257 176.495 144.58 176.495 142.51V141.562C176.495 139.493 174.817 137.815 172.747 137.815Z" fill="url(#paint10_linear)"/>
<path d="M227.596 262.137H276.51L261.093 309.48L262.535 309.95L278.599 260.622H226.495L210.586 309.48L212.028 309.95L227.596 262.137Z" fill="#616587"/>
<path d="M244.243 309.48L228.828 262.137H277.741L293.311 309.95L294.752 309.48L278.841 260.622H226.74L242.802 309.95L244.243 309.48Z" fill="#616587"/>
<path d="M282.914 275.53H223.046V277.045H282.914V275.53Z" fill="#616587"/>
<path d="M288.506 291.991H216.879V293.506H288.506V291.991Z" fill="#616587"/>
<path d="M252.106 154.086C252.106 154.086 253.326 151.953 251.392 146.233C249.522 140.703 243.048 141.204 240.99 144.748C238.932 148.293 239.629 150.492 242.657 154.494C245.685 158.495 250.849 155.916 252.106 154.086Z" fill="#EEA886"/>
<path d="M237.069 252.478C237.069 252.478 236.747 254.826 236.709 255.18C236.67 255.534 233.145 254.971 233.145 254.971L232.86 252.176C232.86 252.176 236.628 252.147 237.069 252.478Z" fill="#EEA886"/>
<path d="M236.747 254.881C236.747 254.881 237.862 256.297 238.943 256.913C240.024 257.529 241.719 257.774 242.357 258.412C242.819 258.874 244.037 260.858 239.551 260.826C235.066 260.794 232.905 261.106 232.424 260.343C231.943 259.58 233.121 254.728 233.121 254.728C233.121 254.728 234.218 255.032 236.747 254.881Z" fill="#152B3D"/>
<path d="M261.467 252.478C261.467 252.478 261.145 254.826 261.108 255.18C261.071 255.534 257.544 254.971 257.544 254.971L257.258 252.176C257.258 252.176 261.027 252.147 261.467 252.478Z" fill="#EEA886"/>
<path d="M261.145 254.881C261.145 254.881 262.262 256.297 263.341 256.913C264.421 257.529 268.395 258.039 269.033 258.683C269.494 259.144 270.259 260.999 263.949 260.826C259.467 260.702 257.303 261.106 256.823 260.343C256.344 259.58 257.518 254.728 257.518 254.728C258.719 254.897 259.934 254.948 261.145 254.881V254.881Z" fill="#152B3D"/>
<path d="M238.256 193.997C238.256 193.997 236.449 199.613 236.688 204.455C236.926 209.298 235.753 214.592 235.273 219.642C234.739 225.273 232.553 238.616 232.474 241.631C232.395 244.646 232.817 254.265 232.817 254.265L237.193 254.369C237.193 254.369 240.868 231.049 241.82 228.67C242.773 226.29 247.491 209.327 247.651 207.422C247.81 205.517 238.256 193.997 238.256 193.997Z" fill="#FFC05C"/>
<path d="M256.399 193.413C256.399 193.413 259.055 208.257 259.373 211.219C259.692 214.181 259.901 225.55 260.06 227.4C260.22 229.251 261.118 251.619 261.964 254.369H257.084C257.084 254.369 252.075 238.109 252.075 230.415C252.075 222.722 248.758 213.683 246.616 208.613C244.475 203.543 239.572 203.416 238.25 193.997C238.256 193.997 254.616 190.426 256.399 193.413Z" fill="#FFC05C"/>
<path d="M250.336 155.597C250.336 155.597 249.786 157.206 250.336 158.342C250.886 159.478 243.305 158.799 243.305 158.799C243.305 158.799 243.648 156.435 242.662 154.493C241.675 152.551 250.336 155.597 250.336 155.597Z" fill="#EEA886"/>
<path d="M237.904 195.217C237.904 195.217 240.639 198.018 256.643 194.779L256.399 193.409L238.197 194.094L237.904 195.217Z" fill="#FFC05C"/>
<path d="M251.48 158.712C251.48 158.712 254.28 158.998 255.081 159.151C255.882 159.304 261.267 158.186 262.371 158.073C263.475 157.96 268.187 154.73 268.34 154.35C268.493 153.97 271.207 147.097 271.359 145.61C271.51 144.124 274.004 144.891 273.79 145.916C273.389 147.831 272.876 152.48 272.596 153.829C272.292 155.277 271.47 158.58 271.021 158.977C270.572 159.375 266.321 162.61 262.172 163.981C259.624 164.831 257.182 165.969 254.893 167.373H234.426C234.426 167.373 226.465 155.993 226.292 154.278C226.12 152.562 231.854 141.166 232.997 139.738C234.139 138.309 235.793 140.204 235.793 140.204C235.793 140.204 232.368 150.255 231.911 151.684C231.454 153.113 235.894 159.391 237.114 159.407C238.334 159.423 241.458 159.027 242.855 158.969C244.251 158.911 245.714 158.303 245.714 158.303L251.48 158.712Z" fill="#EEA886"/>
<path d="M260.305 166.314C260.305 166.314 257.8 167.979 257.57 170.837C257.34 173.694 256.426 178.211 255.969 179.754C255.512 181.297 256.37 192.498 256.484 193.299C256.598 194.1 240.646 196.001 238.195 194.104C238.195 194.104 237.508 183.646 237.23 180.672C236.952 177.699 235.573 170.499 235.116 169.527C234.659 168.555 229.114 160.78 228.886 159.755C228.886 159.755 231.753 155.182 233.811 155.126C233.811 155.126 237.079 158.955 238.144 159.126C239.209 159.296 245.739 158.101 245.741 158.091C245.743 158.081 246.454 159.056 250.246 157.919C250.246 157.919 254.751 158.427 255.493 158.521C256.383 158.635 262.561 157.745 262.561 157.745C262.561 157.745 265.04 161.928 264.606 164.046L260.305 166.314Z" fill="#254380"/>
<path d="M271.22 146.503C271.22 146.503 271.78 143.855 271.106 143.094C270.723 142.661 269.801 141.516 269.717 141.347C269.634 141.178 268.642 140.61 268.642 140.336C268.642 140.063 269.608 139.725 270.454 140.505C271.3 141.286 271.822 141.453 272.16 141.368C272.497 141.282 272.98 138.483 273.022 137.789C273.064 137.096 273.332 135.262 273.767 135.389C274.201 135.516 274.18 136.316 274.18 136.316C274.18 136.316 274.686 134.925 275.022 135.199C275.358 135.472 275.316 136.147 275.316 136.147C275.316 136.147 275.949 135.368 276.121 135.936C276.22 136.287 276.22 136.659 276.121 137.011C276.121 137.011 276.764 136.652 276.814 137.537C276.864 138.422 276.626 141.01 276.171 141.937C275.715 142.864 273.973 145.285 273.767 146.231C273.561 147.177 271.22 146.503 271.22 146.503Z" fill="#EEA886"/>
<path d="M235.23 141.852C235.23 141.852 237.133 138.65 237.782 138.365C238.43 138.08 239.344 137.918 240.144 137.345C240.943 136.772 242 136.298 241.944 136.108C241.888 135.918 240.943 135.994 239.934 136.43C238.926 136.866 238.486 136.657 238.387 136.43C238.287 136.203 238.924 134.586 239.23 134.205C239.535 133.823 241.706 131.64 241.344 131.317C240.982 130.993 239.574 132.192 239.344 132.443C239.344 132.443 240.47 130.081 240.029 129.967C239.588 129.852 238.771 130.691 238.771 130.691C238.771 130.691 238.868 128.671 236.696 131.947C236.696 131.947 237.153 130.861 236.485 131.223C235.817 131.585 235.17 133.624 234.961 134.653C234.752 135.683 233.801 138.959 232.99 139.749C232.179 140.539 235.23 141.852 235.23 141.852Z" fill="#EEA886"/>
<path d="M242.657 154.493C242.657 154.493 243.661 154.582 245.794 153.85C247.928 153.118 248.087 149.382 248.549 149.827C249.49 150.728 250.38 150.106 250.735 149.573C250.735 149.573 249.694 148.201 250.177 147.541C250.532 147.092 250.961 146.706 251.445 146.399C251.445 146.399 249.944 139.159 243.114 142.46C235.113 146.314 242.657 154.493 242.657 154.493Z" fill="#353A3D"/>
<path d="M250.336 158.342L250.096 157.296C250.096 157.296 245.738 157.208 243.358 157.552L243.109 158.802C243.109 158.802 246.155 160.182 250.336 158.342Z" fill="#254380"/>
<path d="M249.261 148.904C248.866 148.246 247.401 147.803 247.229 149.667C247.096 151.115 249.845 152.69 249.871 151.343C249.897 149.996 249.525 149.342 249.261 148.904Z" fill="#EEA886"/>
<path d="M271.325 145.901C271.325 145.901 272.896 145.94 273.661 146.63C273.686 146.898 273.642 147.167 273.532 147.412C273.532 147.412 272.169 146.769 271.119 146.658C271.124 146.658 271.141 146.085 271.325 145.901Z" fill="#E55353"/>
<path d="M273.178 146.294C273.23 146.418 273.244 146.553 273.219 146.685C273.194 146.816 273.13 146.937 273.036 147.032C272.942 147.127 272.822 147.192 272.691 147.219C272.56 147.246 272.424 147.233 272.3 147.183C272.177 147.132 272.071 147.046 271.996 146.936C271.921 146.825 271.88 146.694 271.88 146.561C271.879 146.427 271.918 146.296 271.991 146.185C272.065 146.073 272.17 145.986 272.293 145.934C272.458 145.864 272.644 145.863 272.81 145.931C272.976 145.998 273.109 146.129 273.178 146.294V146.294Z" fill="#353A3D"/>
<path d="M397.427 182.978C397.427 182.978 396.032 183.164 396.042 182.572C396.052 181.98 396.148 181.211 396.148 181.211L397.427 182.978Z" fill="#EEA987"/>
<path d="M405.274 176.571L400.69 180.111C401.274 180 402.253 179.86 402.275 180.165C402.307 180.601 400.533 181.131 399.971 181.523C399.456 181.887 398.916 182.535 398.771 182.566L397.769 183.423L396.148 181.219C396.148 181.219 398.824 178.193 399.469 177.548C400.517 176.497 404.756 175.881 404.988 176.034C405.408 176.301 405.274 176.571 405.274 176.571Z" fill="#EEA987"/>
<path d="M399.617 183.58L395.917 180.449L383.251 193.257C381.266 194.622 387.121 199.324 388.775 200.349C393.024 202.985 398.036 209.083 403.236 205.364C408.867 201.332 400.661 198.464 397.926 198.534C395.556 198.596 390.392 193.933 390.392 193.933L399.617 183.58Z" fill="#2F4563"/>
<path d="M392.927 298.526C392.927 298.526 390.821 300.737 388.683 301.2C386.545 301.664 385.05 302.254 385.032 303.523C385.015 304.793 391.186 305.63 393.633 304.349C397.284 302.441 397.656 303.015 398.06 302.061C398.463 301.107 397.577 298.555 397.601 298.251C397.633 297.876 392.927 298.526 392.927 298.526Z" fill="#202338"/>
<path d="M393.164 297.468C393.164 297.468 392.885 298.504 392.927 298.526C392.969 298.549 397.744 299.083 397.601 298.251C397.484 297.577 397.316 296.845 397.316 296.845L393.164 297.468Z" fill="#2F6B8C"/>
<path d="M416.717 299.102C416.717 299.102 415.168 301.257 413.095 301.754C411.052 302.236 409.728 303.176 409.628 304.408C409.528 305.641 414.445 307.258 417.901 305.091C420.171 303.667 421.018 303.749 421.475 302.838C421.931 301.927 421.236 299.398 421.281 299.104C421.338 298.748 416.717 299.102 416.717 299.102Z" fill="#202338"/>
<path d="M416.781 298.037C416.781 298.037 416.678 299.078 416.717 299.102C416.755 299.126 421.309 299.931 421.281 299.102C421.243 298.605 421.147 298.114 420.993 297.64L416.781 298.037Z" fill="#2F6B8C"/>
<path d="M397.981 235.245C397.981 235.245 395.77 251.314 394.866 256.745C393.809 263.097 393.452 268.344 393.157 271.631C392.787 275.766 392.295 296.925 392.031 298.135C391.767 299.345 398.475 298.714 398.475 298.714C398.475 298.714 401.986 271.131 403.089 266.727C404.116 262.628 407.112 244.918 408.046 246.036C408.981 247.155 411.855 267.218 412.551 270.452C413.248 273.686 415.108 299.141 415.108 299.141C415.108 299.141 421.429 300.154 422.704 299.141C422.704 299.141 421.706 276.442 421.264 270.379C421.095 268.069 422.725 242.72 418.818 232.497C416.754 227.096 397.981 235.245 397.981 235.245Z" fill="#877D78"/>
<path d="M404.471 196.708C404.471 196.708 398.618 197.92 397.923 198.535C397.17 199.189 395.831 205.601 395.761 207.384C395.69 209.166 396.467 216.629 397.22 219.407C397.973 222.186 397.984 234.209 397.508 238.053C397.508 238.053 408.783 240.36 420.371 238.857C420.371 238.857 418.791 227.167 419.254 223.36C419.849 218.484 421.278 207.248 421.278 207.248C421.278 207.248 421.288 200.924 420.392 199.912C418.461 197.743 411.079 196.712 411.079 196.712L404.471 196.708Z" fill="#FFC05C"/>
<path d="M413.262 208.438C413.536 214.23 415.378 215.633 417.193 215.182C417.795 215.016 418.35 214.711 418.813 214.292C419.585 213.62 420.19 212.683 420.406 211.811C421.201 208.586 421.211 199.695 417.138 198.551C417.138 198.551 412.727 197.122 413.262 208.438Z" fill="#2F4563"/>
<path d="M395.756 211.066C395.756 211.066 399.022 210.524 399.22 215.261C399.418 219.998 401.472 228.797 404.811 232.303L391.669 232.801C388.329 229.294 386.681 220.895 386.438 216.163C386.208 211.819 382.973 211.969 382.973 211.969L395.756 211.066Z" fill="#F5E1D9"/>
<path d="M403.422 200.219C403.499 200.272 403.58 200.319 403.664 200.359C404.024 200.534 404.412 200.643 404.811 200.681C404.984 200.699 405.159 200.706 405.334 200.702C405.44 200.702 405.546 200.702 405.655 200.682C408.753 200.38 411.829 196.836 411.829 196.836C405.607 195.893 402.941 197.051 402.941 197.051C402.941 197.051 401.945 199.223 403.422 200.219Z" fill="#2F4563"/>
<path d="M404.753 178.779C404.753 178.779 397.392 177.302 399.282 186.476C401.173 195.65 402.952 196.332 407.327 194.321C411.702 192.31 411.163 186.415 411.316 183.514C411.468 180.613 407.091 178.824 404.753 178.779Z" fill="#EEA886"/>
<path d="M403.551 197.976C403.551 197.976 404.999 198.933 410.493 196.514C410.184 194.233 410.286 191.916 410.794 189.671C411.61 186.225 404.037 193.92 404.037 193.92C404.125 193.981 404.143 194.334 404.092 194.824C404.079 194.958 404.061 195.099 404.037 195.247C403.998 195.5 403.945 195.774 403.876 196.052C403.858 196.127 403.839 196.203 403.82 196.279C403.524 197.453 403.551 196.95 403.551 197.976Z" fill="#EEA886"/>
<path d="M411.069 188.25C411.069 188.25 410.701 185.779 409.638 185.713C408.574 185.647 408.272 187.161 408.272 187.161L407.438 187.248C407.438 187.248 407.782 184.628 406.713 184.21C405.643 183.792 399.867 185.217 398.999 184.49C398.132 183.763 398.56 178.934 400.081 178.191C401.601 177.448 405.657 175.424 408.817 177.454C408.817 177.454 411.23 177.12 411.641 179.063C412.051 181.007 411.694 186.78 411.069 188.25Z" fill="#353A3D"/>
<path d="M408.31 184.847C408.489 183.985 410.241 183.814 410.267 185.134C410.292 186.453 409.173 188.673 408.537 188.385C407.901 188.097 408.064 186.046 408.31 184.847Z" fill="#EEA886"/>
<path d="M410.492 195.473C410.492 195.473 407.62 197.206 404.779 197.595L406.289 200.008L411.079 196.71L410.492 195.473Z" fill="#4B6F9E"/>
<path d="M403.828 196.279C403.828 196.279 404.13 197.271 404.779 197.595L403.358 199.575L403.411 196.95L403.828 196.279Z" fill="#4B6F9E"/>
<path d="M404.779 197.595L403.652 199.162C403.652 199.162 404.364 200.063 405.905 199.381L404.779 197.595Z" fill="white"/>
<path d="M403.664 200.366C404.024 200.541 404.412 200.65 404.811 200.687C404.984 200.706 405.159 200.713 405.334 200.708L405.163 199.247H404.124C403.924 199.599 403.769 199.975 403.664 200.366Z" fill="white"/>
<path d="M403.845 196.182C407.102 196.354 409.187 192.975 409.25 192.876C407.205 195.111 404.037 195.244 404.037 195.244C404.006 195.5 403.918 195.905 403.845 196.182Z" fill="#A77860"/>
<path d="M395.756 211.067C395.756 211.067 391.844 211.43 392.671 216.889L381.061 217.517C381.061 217.517 379.452 213.799 382.973 211.969L395.756 211.067Z" fill="#EDDAD3"/>
<path d="M382.184 215.556L391.25 215.068L391.224 214.596L382.158 215.084L382.184 215.556Z" fill="#C9BAB3"/>
<path d="M382.959 213.466L392.025 212.978L391.999 212.506L382.933 212.994L382.959 213.466Z" fill="#C9BAB3"/>
<path d="M396.869 217.151L387.803 217.639L387.828 218.111L396.894 217.623L396.869 217.151Z" fill="#C9BAB3"/>
<path d="M398.002 220.332L388.935 220.82L388.961 221.293L398.027 220.805L398.002 220.332Z" fill="#C9BAB3"/>
<path d="M399.142 223.5L390.076 223.988L390.102 224.461L399.168 223.973L399.142 223.5Z" fill="#C9BAB3"/>
<path d="M400.275 226.68L391.209 227.168L391.234 227.64L400.3 227.152L400.275 226.68Z" fill="#C9BAB3"/>
<path d="M401.416 229.848L392.349 230.336L392.375 230.809L401.441 230.321L401.416 229.848Z" fill="#C9BAB3"/>
<path d="M405.818 221.268C405.818 221.268 405.314 221.507 404.878 221.387C404.124 221.182 403.48 220.134 402.494 220.671C401.508 221.209 402.333 224.821 402.837 225.35C403.34 225.88 404.873 225.571 406.794 224.193C408.716 222.816 405.818 221.268 405.818 221.268Z" fill="#EEA886"/>
<path d="M402.851 220.54C401.675 220.636 400.505 220.797 399.347 221.022C397.738 221.344 395.777 221.967 395.852 222.374C395.967 222.992 397.513 222.297 399.133 222.086C400.626 221.893 400.364 222.184 400.364 222.184C400.364 222.184 400.433 222.097 398.848 222.628C397.144 223.198 395.339 223.881 395.394 224.216C395.463 224.631 395.506 224.676 396.16 224.572C395.798 224.713 395.785 224.834 395.83 224.992C396.06 225.811 398.694 225.367 399.739 225.191C398.935 225.331 398.362 225.521 398.827 225.931C399.36 226.399 403.055 225.609 404.407 225.449C405.881 225.281 402.851 220.54 402.851 220.54Z" fill="#EEA886"/>
<path d="M415.84 198.665C414.644 199.057 414.006 200.747 414.733 204.254C415.537 208.133 416.438 210.019 416.956 210.933C417.475 211.847 420.279 216.524 419.766 217.266C419.252 218.007 412.482 219.767 412.022 219.898C411.103 220.158 404.96 221.384 404.96 221.384L406.465 226.646C406.465 226.646 425.168 223.455 426.079 222.544C426.99 221.634 427.464 220.4 426.457 217.221C425.434 213.988 423.595 206.42 423.268 205.829C422.942 205.239 421.222 196.893 415.84 198.665Z" fill="#2F4563"/>
<path d="M414.899 205.02C414.899 205.02 415.32 210.962 417.193 215.182C417.795 215.016 418.35 214.711 418.813 214.292C418.813 214.292 416.649 210.386 416.455 209.948C416.26 209.51 415.119 206.053 414.899 205.02Z" fill="#1E2C40"/>
<g style="mix-blend-mode:hard-light">
<path style="mix-blend-mode:hard-light" d="M170.262 151.723H85.8878C82.8799 151.723 80.4416 154.161 80.4416 157.169V214.194C80.4416 217.202 82.8799 219.641 85.8878 219.641H170.262C173.269 219.641 175.708 217.202 175.708 214.194V157.169C175.708 154.161 173.269 151.723 170.262 151.723Z" fill="url(#paint11_linear)"/>
</g>
<path d="M151.057 164.454H148.079V181.01H151.057V164.454Z" fill="url(#paint12_linear)"/>
<path d="M156.286 160.039H153.308V181.008H156.286V160.039Z" fill="url(#paint13_linear)"/>
<path d="M161.774 162.348H158.796V181.008H161.774V162.348Z" fill="url(#paint14_linear)"/>
<path d="M167.412 167.711H164.434V181.01H167.412V167.711Z" fill="url(#paint15_linear)"/>
<path d="M151.057 170.51H148.079V181.01H151.057V170.51Z" fill="#007BDE"/>
<path d="M156.286 167.711H153.308V181.01H156.286V167.711Z" fill="#007BDE"/>
<path d="M161.774 169.175H158.796V181.01H161.774V169.175Z" fill="#007BDE"/>
<path d="M167.412 172.732H164.434V181.01H167.412V172.732Z" fill="#007BDE"/>
<path d="M165.42 186.678H150.071C149.422 186.678 148.897 187.204 148.897 187.853V190.223C148.897 190.871 149.422 191.397 150.071 191.397H165.42C166.069 191.397 166.595 190.871 166.595 190.223V187.853C166.595 187.204 166.069 186.678 165.42 186.678Z" fill="white"/>
<path d="M165.42 195.514H150.071C149.422 195.514 148.897 196.04 148.897 196.689V199.059C148.897 199.708 149.422 200.233 150.071 200.233H165.42C166.069 200.233 166.595 199.708 166.595 199.059V196.689C166.595 196.04 166.069 195.514 165.42 195.514Z" fill="white"/>
<path d="M165.42 204.351H150.071C149.422 204.351 148.897 204.877 148.897 205.525V207.895C148.897 208.544 149.422 209.07 150.071 209.07H165.42C166.069 209.07 166.595 208.544 166.595 207.895V205.525C166.595 204.877 166.069 204.351 165.42 204.351Z" fill="white"/>
<path d="M140.34 176.151C139.177 172.9 137.386 169.909 135.067 167.35C132.748 164.792 129.949 162.714 126.827 161.238C123.706 159.761 120.324 158.913 116.875 158.743C113.427 158.573 109.978 159.084 106.727 160.247C103.475 161.41 100.485 163.202 97.9257 165.52C95.3668 167.839 93.2897 170.639 91.8128 173.76C90.336 176.881 89.4884 180.263 89.3184 183.712C89.1485 187.161 89.6595 190.609 90.8223 193.861C91.0202 194.417 91.2374 194.964 91.4659 195.5C94.1829 201.763 99.2291 206.724 105.537 209.334C111.846 211.943 118.922 211.998 125.269 209.485C131.617 206.972 136.738 202.089 139.551 195.868C142.363 189.647 142.647 182.577 140.34 176.151ZM122.219 203.569C117.512 205.258 112.338 205.092 107.748 203.105C103.159 201.119 99.4967 197.461 97.5058 192.873C97.3304 192.472 97.1695 192.068 97.0231 191.644C95.7103 187.972 95.5156 183.994 96.4638 180.212C97.412 176.43 99.4604 173.014 102.35 170.396C105.24 167.778 108.841 166.076 112.698 165.504C116.555 164.933 120.494 165.518 124.019 167.186C127.543 168.854 130.494 171.529 132.498 174.874C134.502 178.219 135.469 182.083 135.276 185.977C135.084 189.872 133.742 193.622 131.418 196.753C129.095 199.884 125.895 202.256 122.224 203.569H122.219Z" fill="white"/>
<path d="M96.7609 179.128L90.4861 177.166C92.1207 171.948 95.3393 167.368 99.6951 164.061C104.051 160.755 109.328 158.887 114.794 158.715L114.992 165.294C110.892 165.422 106.934 166.823 103.667 169.302C100.4 171.782 97.9866 175.217 96.7609 179.131V179.128Z" fill="#1A598C"/>
<path d="M97.5058 192.873L91.4708 195.5C91.2391 194.964 91.0219 194.417 90.8272 193.861C88.8934 188.483 88.7731 182.62 90.4845 177.168L96.7593 179.129C95.4772 183.217 95.5676 187.612 97.0167 191.643C97.168 192.062 97.3289 192.472 97.5058 192.873Z" fill="#2273B5"/>
<path d="M95.5446 202.045C93.8704 200.077 92.497 197.871 91.4692 195.5L97.5059 192.873C98.276 194.651 99.3062 196.306 100.563 197.781L95.5446 202.045Z" fill="#3788CC"/>
<path d="M167.172 296.563C167.172 296.563 166.207 298.36 165.58 299.075C164.952 299.789 162.539 301.063 162.523 303.182C162.508 305.481 166.587 304.843 168.181 304.759C169.776 304.675 169.896 303.448 170.569 302.146C171.241 300.845 171.917 301.065 172.043 300.016C172.168 298.967 171.399 296.563 171.399 296.563H167.172Z" fill="#202338"/>
<path d="M171.336 295.87C171.336 295.87 171.523 296.849 171.486 296.874C171.449 296.898 166.966 297.697 166.991 296.883C167.011 296.24 167.404 295.484 167.404 295.484L171.336 295.87Z" fill="#81807E"/>
<path d="M212.403 211.372C212.403 211.372 217.107 210.383 217.458 210.587C217.809 210.791 217.833 211.057 217.395 211.168C216.957 211.279 212.869 212.26 212.869 212.26C212.869 212.26 218.573 212.053 218.899 212.152C219.091 212.21 219.163 212.72 218.933 212.796C218.703 212.872 213.043 213.42 213.043 213.42C213.043 213.42 218.368 213.237 218.613 213.407C218.668 213.459 218.707 213.526 218.726 213.599C218.744 213.673 218.742 213.75 218.717 213.822C218.693 213.894 218.649 213.957 218.59 214.004C218.531 214.052 218.46 214.081 218.385 214.09C217.989 214.131 213.04 214.593 213.04 214.593C213.04 214.593 216.911 214.712 217.028 214.989C217.102 215.15 217.189 215.594 216.188 215.53C215.188 215.465 212.81 215.575 212.81 215.575L212.403 211.372Z" fill="#EEA886"/>
<path d="M191.467 296.224C191.467 296.224 193.433 298.417 195.428 298.877C197.423 299.337 198.82 299.923 198.834 301.182C198.849 302.442 193.092 303.274 190.809 302.001C187.401 300.108 187.054 300.679 186.677 299.731C186.301 298.783 187.131 296.253 187.105 295.95C187.073 295.578 191.467 296.224 191.467 296.224Z" fill="#202338"/>
<path d="M191.243 295.173C191.243 295.173 191.502 296.201 191.464 296.224C191.425 296.246 186.969 296.775 187.102 295.95C187.212 295.282 187.368 294.555 187.368 294.555L191.243 295.173Z" fill="#81807E"/>
<path d="M187.191 233.632C187.191 233.632 188.812 249.377 189.656 254.767C190.64 261.069 190.975 266.275 191.25 269.538C191.596 273.641 191.662 293.822 191.905 295.02C192.148 296.219 186.534 295.352 186.534 295.352C186.534 295.352 183.773 268.983 182.744 264.621C181.778 260.552 178.226 243.036 177.35 244.148C176.475 245.259 175.389 264.581 174.742 267.799C174.096 271.017 172.123 296.127 172.123 296.127C172.123 296.127 167.657 297.017 166.468 296.011C166.468 296.011 165.927 274.363 166.341 268.348C166.501 266.055 163.654 240.861 167.306 230.716C169.227 225.346 187.191 233.632 187.191 233.632Z" fill="#292C47"/>
<path d="M159.403 235.868C159.403 235.868 162.138 236.698 163.282 236.488C164.426 236.277 163.847 222.231 163.892 219.307C163.927 216.937 165.226 210.677 165.226 210.677C165.225 210.681 165.225 210.685 165.226 210.688C165.226 210.688 165.226 210.688 165.226 210.7C165.354 211.168 167.105 217.663 167.164 220.784C167.229 224.023 166.743 236.414 166.743 236.414L171.57 236.883L185.438 237.223L188.335 236.882C188.335 236.882 187.989 231.584 187.852 229.067C187.771 227.468 187.461 224.604 187.541 221.814C187.541 221.814 187.491 218.875 187.783 217.608C187.813 212.019 188.153 206.484 188.153 206.484C188.339 203.951 188.47 201.579 188.545 199.37C187.934 199.048 187.199 198.668 186.615 198.388C184.795 197.523 182.259 196.355 180.633 195.608C179.679 195.17 178.745 194.85 178.745 194.85C178.745 194.85 172.242 194.228 171.713 194.26C171.552 194.271 170.735 194.554 169.668 194.961C167.361 195.835 162.91 197.617 162.207 198.126C161.168 198.869 158.973 216.535 158.873 217.772C158.698 220.007 159.403 235.868 159.403 235.868Z" fill="#CAC7D1"/>
<path d="M187.916 234.674C187.916 234.674 178.398 235.478 170.057 234.674V237.409C170.057 237.409 182.576 239.218 188.33 236.888L187.916 234.674Z" fill="#1D2033"/>
<path d="M179.799 195.254C179.799 195.254 181.347 198.892 182.509 207.022C182.954 210.145 183.781 215.401 184.383 220.767C184.866 224.995 185.939 229.336 186.283 232.573C186.639 235.928 187.712 245.808 187.712 245.808L190.315 244.165C190.687 243.823 191.208 243.375 191.057 242.893C190.342 240.581 188.965 232.94 188.161 226.279C188.161 226.279 188.161 226.279 188.161 226.264C188.122 225.943 188.084 225.621 188.048 225.31C188.048 225.294 188.048 225.276 188.048 225.259C187.887 223.928 187.77 222.651 187.678 221.483C187.62 220.605 187.659 219.723 187.796 218.854C188.158 212.875 188.338 206.573 188.338 206.573C188.529 203.998 188.639 201.585 188.711 199.333C188.075 198.903 187.404 198.526 186.706 198.206C186.706 198.206 180.887 195.569 179.799 195.254Z" fill="#323657"/>
<path d="M179.31 197.148C179.31 197.148 179.484 199.638 177.379 199.696C175.275 199.754 173.602 197.732 173.602 197.732L177.098 198.633L179.223 196.826L179.31 197.148Z" fill="#CAC7D1"/>
<path d="M207.12 213.382C207.12 213.382 208.655 212.955 208.86 212.038C209.033 211.258 209.794 210.349 210.028 210.069C210.34 209.694 210.906 208.196 211.342 208.576C211.778 208.956 210.52 211.086 210.338 211.581C210.156 212.077 212.282 211.207 212.774 211.359C213.267 211.512 214.256 215.179 212.742 215.605C211.228 216.032 209.394 215.461 209.14 215.591C208.782 215.731 208.417 215.849 208.046 215.946L207.12 213.382Z" fill="#EEA886"/>
<path d="M176.467 178.083C176.467 178.083 181.294 178.897 180.477 186.459C179.659 194.021 175.396 193.353 175.111 193.342C174.826 193.331 170.823 193.434 170.606 184.189C170.611 184.189 170.551 177.358 176.467 178.083Z" fill="#EEA987"/>
<path d="M178.583 191.151C178.583 191.151 178.583 194.266 178.71 194.94C178.848 195.664 174.832 197.759 172.24 195.318C172.24 195.318 172.765 191.917 172.601 190.717C172.437 189.517 178.583 191.151 178.583 191.151Z" fill="#EEA987"/>
<path d="M180.496 184.698C180.496 184.698 181.032 184.138 181.22 184.712C181.408 185.287 180.541 187.718 180.43 187.953C180.43 187.953 180.33 188.173 180.205 188.049C180.079 187.925 180.496 184.698 180.496 184.698Z" fill="#EEA987"/>
<path d="M170.667 184.115C170.667 184.115 170.154 183.533 169.943 184.099C169.732 184.665 170.503 187.211 170.599 187.368C170.599 187.368 170.76 187.629 170.897 187.512C171.034 187.394 170.667 184.115 170.667 184.115Z" fill="#EEA987"/>
<path d="M180.884 183.679C180.723 184.714 180.562 185.483 180.562 185.483L179.859 186.402C179.859 186.402 179.901 184.371 179.794 184.053C179.753 183.932 179.706 183.718 179.656 183.486C179.576 183.103 179.495 182.672 179.436 182.521C179.346 182.291 175.297 181.108 171.69 182.769C171.69 182.769 171.721 183.081 171.719 183.43C171.719 183.835 171.674 184.289 171.488 184.357C171.142 184.484 171.286 186.733 171.286 186.733L170.725 186.09C170.725 186.09 170.564 184.915 170.403 183.565C170.403 183.562 170.403 183.559 170.403 183.555C170.368 183.234 170.331 182.912 170.295 182.59C170.215 181.232 170.348 178.766 172.117 177.318C173.31 176.806 175.215 176.372 178.391 177.345C178.391 177.345 179.183 177.57 179.387 177.767C181.362 179.948 180.884 183.679 180.884 183.679Z" fill="#353A3D"/>
<path d="M172.932 192.332C172.932 192.332 173.705 193.402 175.495 193.362C177.286 193.322 178.07 192.387 178.07 192.387C178.07 192.387 177.222 194.157 175.495 194.142C173.769 194.128 172.932 192.332 172.932 192.332Z" fill="#C78D71"/>
<path d="M178.898 197.308L177.096 198.641C177.096 198.641 178.609 195.432 178.641 194.147L178.898 197.308Z" fill="#A09EA6"/>
<path d="M178.641 194.142L179.865 195.281L181.156 199.127L178.898 197.304L178.641 194.142Z" fill="#EAE6F2"/>
<path d="M209.149 216.937C209.149 216.937 198.514 219.739 195.916 219.098C194.714 218.802 193.131 217.143 191.626 215.193C191.131 214.55 190.643 213.877 190.178 213.209C188.333 210.545 186.887 207.992 186.887 207.992C186.887 207.992 181.432 201.599 185.809 198.748C185.809 198.748 187.654 198.563 188.705 199.337C189.67 200.052 192.03 204.552 192.413 205.387C192.796 206.222 196.942 213.967 197.219 214.141C197.496 214.315 201.052 213.679 202.928 213.523C204.825 213.357 206.703 213.012 208.535 212.49L209.149 216.937Z" fill="#323657"/>
<path d="M178.409 195.289C178.066 196.44 177.627 197.559 177.096 198.636C177.096 198.636 175.204 196.98 174.609 196.383C174.013 195.786 178.409 195.289 178.409 195.289Z" fill="#EEA987"/>
<path d="M175.117 196.784L177.096 198.636C177.096 198.636 174.757 198.475 174.319 198.092L175.117 196.784Z" fill="#A09EA6"/>
<path d="M172.493 193.371C172.493 193.371 174.075 195.946 175.117 196.784L173.362 199.699L170.546 194.586L172.493 193.371Z" fill="#EAE6F2"/>
<path d="M164.091 219.441C163.89 222.153 165.037 237.163 163.892 237.374C162.746 237.585 158.539 236.66 158.539 236.66C158.539 236.66 158.011 220.472 158.18 218.776C158.302 217.541 160.272 199.017 161.308 198.272C161.906 197.843 166.35 196.267 168.53 195.408C168.928 195.247 170.191 194.721 170.546 194.586C171.01 195.101 175.038 204.561 175.421 211.926C175.537 214.178 175.011 218.91 174.617 222.781C174.191 226.911 173.718 230.135 173.372 233.588C172.689 240.394 172.212 245.816 172.212 245.816L165.438 242.801C164.342 242.252 162.825 240.001 163.237 238.848C164.802 234.462 166.777 226.971 166.777 223.122C166.777 223.122 166.022 213.699 165.422 211.628C165.415 211.628 164.347 215.991 164.091 219.441Z" fill="#323657"/>
<path d="M181.141 234.843H176.655V238.178H181.141V234.843Z" fill="#3A4066"/>
<path d="M166.598 252.456H151.838L155.302 242.627H170.062L166.598 252.456Z" fill="#EDDAD3"/>
<path d="M166.598 252.456H151.838L155.302 242.627H170.062L166.598 252.456Z" fill="#F2DFD8"/>
<path d="M155.302 262.285H170.062L166.598 252.456H151.838L155.302 262.285Z" fill="#D6C5BE"/>
<path d="M166.598 272.114H151.838L155.302 262.285H170.062L166.598 272.114Z" fill="#F2DFD8"/>
<path d="M155.302 281.944H170.062L166.598 272.114H151.838L155.302 281.944Z" fill="#D6C5BE"/>
<path d="M164.585 244.268H156.167V244.632H164.585V244.268Z" fill="#C9BAB3"/>
<path d="M164.085 245.588H155.667V245.951H164.085V245.588Z" fill="#C9BAB3"/>
<path d="M161.93 246.907H155.12V247.27H161.93V246.907Z" fill="#C9BAB3"/>
<path d="M164.585 263.859H156.167V264.222H164.585V263.859Z" fill="#C9BAB3"/>
<path d="M159.876 265.178H155.667V265.541H159.876V265.178Z" fill="#C9BAB3"/>
<path d="M163.05 237.56C163.05 237.56 163.129 237.811 163.268 238.233C163.507 238.96 164.28 239.789 163.803 240.782C163.327 241.774 159.757 241.148 159.213 240.687C158.669 240.225 158.891 238.706 160.141 236.758C161.392 234.809 163.05 237.56 163.05 237.56Z" fill="#EEA886"/>
<path d="M163.914 240.428C163.878 241.583 163.779 242.735 163.617 243.879C163.386 245.472 162.876 247.419 162.476 247.362C161.866 247.282 162.465 245.736 162.587 244.144C162.699 242.675 162.426 242.947 162.426 242.947C162.426 242.947 162.508 242.873 162.07 244.45C161.601 246.146 161.025 247.946 160.695 247.909C160.286 247.863 160.239 247.822 160.309 247.179C160.188 247.541 160.072 247.559 159.914 247.523C159.11 247.34 159.401 244.743 159.519 243.712C159.424 244.503 159.268 245.074 158.843 244.64C158.36 244.144 158.946 240.492 159.03 239.17C159.128 237.707 163.914 240.428 163.914 240.428Z" fill="#EEA886"/>
<path d="M164.276 227.028L164.207 238.957C164.207 238.957 161.826 238.851 158.545 237.639L158.317 220.818L164.276 227.028Z" fill="#323657"/>
<path d="M145.198 221.548L136.913 240.212L136.691 240.712C136.381 240.746 136.067 240.713 135.769 240.618L135.953 240.206L144.158 221.727L132.204 208.873L130.41 208.482L130.597 207.622L132.661 208.072L145.198 221.548Z" fill="url(#paint16_linear)"/>
<path d="M132.442 243.815H140.107C140.092 243.657 140.064 243.501 140.023 243.348C139.793 242.437 138.953 240.511 135.969 240.511C132.984 240.511 132.502 242.442 132.439 243.348C132.428 243.503 132.429 243.659 132.442 243.815V243.815Z" fill="url(#paint17_linear)"/>
<path d="M124.634 204.739L125.152 206.206L128.291 215.1C129.646 214.601 130.75 213.588 131.364 212.281C131.979 210.974 132.053 209.477 131.573 208.116C131.092 206.754 130.095 205.636 128.796 205.004C127.497 204.372 126.002 204.277 124.634 204.739V204.739Z" fill="url(#paint18_linear)"/>
<path d="M137.106 240.209V240.617C136.971 240.662 136.832 240.692 136.691 240.708C136.381 240.741 136.067 240.708 135.769 240.613L135.716 240.593V240.199H135.959H136.925L137.106 240.209Z" fill="#FFA855"/>
<path d="M132.442 243.815H140.107C140.092 243.657 140.064 243.501 140.023 243.348H132.439C132.428 243.503 132.429 243.659 132.442 243.815V243.815Z" fill="#FFA555"/>
<path d="M124.634 204.739L125.152 206.206C126.983 207.654 129.818 210.146 131.206 212.69C131.774 211.718 132.029 210.596 131.937 209.475C131.846 208.353 131.413 207.287 130.696 206.42C129.979 205.553 129.014 204.926 127.929 204.626C126.845 204.325 125.695 204.364 124.634 204.739V204.739Z" fill="#FFA855"/>
<path d="M98.7673 220.477C98.7673 220.477 100.103 218.788 100.313 218.537C100.524 218.286 101.354 218.054 102.325 217.866C103.295 217.678 104.661 217.911 104.77 218.046C104.87 218.13 104.95 218.235 105.006 218.353C105.061 218.471 105.091 218.599 105.092 218.73C105.109 219.041 105.054 219.352 104.931 219.639C105.017 219.802 105.064 219.983 105.067 220.167C105.071 220.352 105.032 220.534 104.952 220.701C105.026 220.874 105.052 221.064 105.027 221.251C105.002 221.438 104.927 221.615 104.81 221.763C104.81 221.763 105.055 222.282 104.732 222.646C104.732 222.646 103.9 222.886 103.605 223.072C103.311 223.259 101.562 223.627 99.8421 223.698C99.8565 223.703 98.2364 223.164 98.7673 220.477Z" fill="#EEA886"/>
<path d="M60.2286 272.608L52.6168 304.339H50.9403L57.3953 272.539L60.2286 272.608Z" fill="#858585"/>
<path d="M68.5307 272.608L60.9205 304.339H59.244L65.6974 272.539L68.5307 272.608Z" fill="#858585"/>
<path d="M81.9588 272.608L89.569 304.339H91.2455L84.7921 272.539L81.9588 272.608Z" fill="#858585"/>
<path d="M89.162 272.917H56.3688C56.3688 272.917 54.0842 272.864 52.5557 266.096C50.8341 258.486 47.3589 233.062 47.3589 233.062C47.3589 233.062 48.2808 230.697 62.6967 230.999L88.512 264.492C88.512 264.492 89.3921 269.773 89.162 272.917Z" fill="#E2D2CA"/>
<path d="M90.1708 241.187C90.1708 241.187 91.8425 240.462 93.0942 240.754C94.346 241.047 97.2774 242.141 98.7255 242.325C100.173 242.508 101.556 243.348 101.528 243.831C101.501 244.313 90.3365 244.706 90.2834 243.609C90.2303 242.511 90.1708 241.187 90.1708 241.187Z" fill="#EEA886"/>
<path d="M98.7672 220.477C98.7672 220.477 96.5855 221.925 96.5405 222.356C96.4616 223.083 96.9121 225.342 96.9652 225.31C97.0183 225.278 100.256 223.682 100.256 223.682L98.7672 220.477Z" fill="#EEA886"/>
<path d="M98.7222 298.936C98.7222 298.936 101.528 300.602 102.804 301.228C104.08 301.853 109.027 302.032 109.515 302.505C110.002 302.978 109.819 304.452 108.998 304.597C108.178 304.741 102.159 305.274 100.149 304.801C98.1398 304.328 94.3862 305.107 93.5527 304.822C92.7193 304.537 93.2712 300.056 93.5946 299.051C93.918 298.045 98.7222 298.936 98.7222 298.936Z" fill="#292C47"/>
<path d="M98.6771 297.039L98.7222 298.936C98.7222 298.936 94.9573 299.63 93.5994 299.054L93.6943 296.962L98.6771 297.039Z" fill="#1C1E30"/>
<path d="M105.301 298.936C105.301 298.936 108.11 300.606 109.383 301.228C110.656 301.849 115.606 302.032 116.094 302.505C116.581 302.978 116.399 304.452 115.577 304.597C114.755 304.741 108.739 305.274 106.728 304.801C104.717 304.328 100.965 305.107 100.132 304.822C99.2981 304.537 99.8484 300.056 100.172 299.051C100.495 298.045 105.301 298.936 105.301 298.936Z" fill="#323657"/>
<path d="M105.258 297.039L105.301 298.936C105.301 298.936 101.536 299.63 100.178 299.054L100.273 296.962L105.258 297.039Z" fill="#1C1E30"/>
<path d="M83.1478 252.887L78.8729 252.141L81.7223 244.963L83.1478 252.887Z" fill="#24263D"/>
<path d="M70.3391 254.358C70.3391 254.358 91.8215 258.919 95.1745 260.345C98.5275 261.77 100.539 262.356 100.79 263.067C101.041 263.778 106.279 297.85 106.279 297.85H99.1566C99.1566 297.85 93.6235 272.124 92.9542 270.528C92.2849 268.932 65.7135 268.851 63.786 266.924C61.8585 264.996 60.182 259.716 62.2768 254.981C64.3716 250.245 70.3391 254.358 70.3391 254.358Z" fill="#282B45"/>
<path d="M81.2203 251.962C81.2203 251.962 105.856 258.893 107.872 262.061C109.927 265.289 99.6667 297.85 99.6667 297.85H92.618C92.618 297.85 99.4076 267.342 98.571 265.993C97.7344 264.645 60.6003 265.952 67.5187 254.972C74.4371 243.993 81.2203 251.962 81.2203 251.962Z" fill="#282B45"/>
<path d="M78.6589 217.724C79.5857 217.241 82.6812 218.299 83.5919 219.721C85.7141 223.027 89.7267 227.111 89.7267 227.111L98.674 219.59L100.466 224.073L89.8474 233.023C89.4107 233.391 88.8529 233.584 88.2821 233.564C87.7113 233.544 87.1682 233.313 86.7583 232.916C83.9668 230.206 78.2309 224.512 77.7837 223.088C77.1964 221.203 76.8875 218.646 78.6589 217.724Z" fill="#323657"/>
<path d="M75.6245 198.573C75.6245 198.573 79.8994 199.286 79.9413 206.536C79.9831 213.785 77.2318 214.469 73.0679 213.407C70.5612 212.764 68.2074 209.224 69.1293 202.974C70.0512 196.723 75.6245 198.573 75.6245 198.573Z" fill="#EEA987"/>
<path d="M76.1908 215.88C76.1908 215.88 82.0827 218.02 82.9628 219.36C83.8428 220.701 83.2733 232.769 82.7697 237.086C82.2661 241.403 80.884 250.705 81.2203 251.962L67.5155 254.98C67.5155 254.98 63.1151 238.972 62.9896 236.415C62.8641 233.858 59.6382 221.957 61.1876 220.993C62.737 220.03 69.4864 216.257 69.4864 216.257L76.1908 215.88Z" fill="#EDDAD3"/>
<path d="M67.5155 254.979L66.8445 252.507L81.2509 249.701L81.2203 251.962L67.5155 254.979Z" fill="#1F2136"/>
<path d="M74.6816 250.852L78.0974 250.139V252.842L74.6816 253.639V250.852Z" fill="#4F558A"/>
<path d="M73.1499 243.816C73.1145 244.522 73.0679 245.238 73.0309 245.964L73.0212 245.973C72.5385 253.926 71.8097 262.248 71.8097 262.248C70.809 263.083 58.1161 260.135 58.1161 260.135C58.1161 260.135 59.6784 258.015 61.1844 252.136C62.6903 246.257 61.5142 240.629 59.9439 231.078C58.3736 221.527 59.6784 221.585 59.6784 221.585L69.4929 216.258C70.1364 218.701 72.7348 227.562 73.3543 232.642C73.5634 234.494 73.4267 238.93 73.1499 243.816Z" fill="#323657"/>
<path d="M76.2857 215.898C76.2857 215.898 79.1416 223.275 80.3531 230.8C81.5887 238.471 81.5276 252.359 82.8678 252.701C84.2081 253.042 83.7946 252.813 83.7946 252.813C83.7946 252.813 83.5436 244.421 83.4213 241.639C83.1478 235.43 84.3062 221.434 83.7705 220.02C83.2347 218.606 79.3861 216.455 76.2857 215.898Z" fill="#323657"/>
<path d="M76.0524 214.739C76.0372 215.124 76.0839 215.509 76.1908 215.878C76.1908 215.878 75.4378 218.816 69.4864 216.255C69.4864 216.255 70.6609 211.874 69.4864 208.201L76.1908 212.361C76.1908 212.361 76.1071 213.023 76.0717 213.793C76.0524 214.105 76.0428 214.437 76.0524 214.739Z" fill="#EEA987"/>
<path d="M69.7293 215.09C69.7293 215.09 72.0687 216.217 74.429 216.44L73.2786 218.887L69.4864 216.257L69.7293 215.09Z" fill="#D6C5BF"/>
<path d="M74.429 216.44C74.429 216.44 76.075 215.895 76.0621 215.09L76.2857 215.895L75.6148 218.469L74.429 216.44Z" fill="#D6C5BF"/>
<path d="M79.4361 202.767C79.4361 202.767 80.6315 200.193 79.7659 198.319C78.9003 196.444 76.6365 197.218 75.6036 197.44C74.5707 197.662 72.6142 195.373 69.1486 198.168C65.683 200.962 66.7191 203.895 68.2556 207.387C69.7922 210.878 69.9788 211.145 69.9788 211.145C69.9788 211.145 69.9901 207.605 70.4084 206.972C70.8991 206.233 72.6979 205.845 72.6979 205.845C72.6979 205.845 71.3287 203.974 72.6689 203.271C74.0092 202.568 76.7862 203.874 79.4361 202.767Z" fill="#16202E"/>
<path d="M70.9377 205.125C70.7542 204.589 69.8532 203.981 69.4011 204.985C68.949 205.989 70.1267 207.75 70.7703 207.75C71.4139 207.75 71.356 206.354 70.9377 205.125Z" fill="#EEA987"/>
<path d="M74.429 216.44L75.2882 217.917C75.2882 217.917 74.8908 218.374 73.6133 218.174L74.429 216.44Z" fill="#007FE6"/>
<path d="M75.1048 218.047C75.1048 218.047 78.6219 228.396 78.6444 235.746C78.667 243.095 78.0926 247.48 78.0926 247.48L77.3187 248.928L76.1925 247.605C76.1925 247.605 76.9969 226.269 73.8627 218.208C73.8547 218.207 74.9809 217.676 75.1048 218.047Z" fill="#007FE6"/>
<path d="M60.7676 220.994C63.3419 219.943 66.0079 223.507 67.4318 227.069C68.8557 230.631 71.5812 237.113 71.5812 237.113L90.6116 240.196L90.8803 243.815H68.6771C68.6771 243.815 60.2174 228.662 59.6317 226.776C59.0461 224.89 58.919 221.746 60.7676 220.994Z" fill="#323657"/>
<path d="M146.884 243.815H84.1357V245.976H146.884V243.815Z" fill="#E2D2CA"/>
<path d="M122.415 205.984H120.905V239.48H122.415V205.984Z" fill="#6E6760"/>
<path d="M124.61 243.814H135.917V243.129H124.61C124.021 243.129 123.596 242.989 123.348 242.712C123.167 242.492 123.077 242.21 123.097 241.925V241.904V227.273H122.412V241.876C122.377 242.342 122.526 242.804 122.827 243.163C123.212 243.594 123.81 243.814 124.61 243.814Z" fill="#918880"/>
<path d="M121.136 243.814H108.41V243.716C108.412 243.425 108.529 243.146 108.736 242.941C108.943 242.736 109.223 242.621 109.515 242.622H121.136V243.823V243.814Z" fill="#6E6760"/>
<path d="M140.358 304.701H142.141V245.977H140.358V304.701Z" fill="#706865"/>
<path d="M88.8772 304.701H90.6599L90.6599 245.977H88.8772V304.701Z" fill="#706865"/>
<path d="M73.1499 243.816C73.1145 244.523 73.0679 245.239 73.0308 245.964L73.0212 245.974C73.0212 245.974 70.5483 246.296 68.476 245.359C66.4037 244.423 64.9492 237.249 64.8479 236.872C65.0602 237.286 68.3875 243.816 69.2016 243.816H73.1499Z" fill="#1F2136"/>
<path d="M76.0717 213.794C76.0524 214.106 76.0427 214.437 76.0524 214.74C71.3238 214.814 71.2498 212.114 71.2498 212.114C71.9834 214.069 76.0717 213.794 76.0717 213.794Z" fill="#A77860"/>
<path d="M106.74 215.036L101.569 220.028L101.991 220.465L107.162 215.474L106.74 215.036Z" fill="#EB4747"/>
<path d="M106.733 215.053L107.705 214.539L107.156 215.491L106.733 215.053Z" fill="#EEA886"/>
<path d="M104.514 218.088C104.514 218.088 102.062 218.617 102.074 219.053C102.085 219.489 102.331 219.637 102.331 219.637L101.391 220.356C101.391 220.356 100.996 221.206 101.934 221.389C101.934 221.389 101.493 222.146 102.416 222.203C102.416 222.203 102.321 222.836 102.738 222.945C103.155 223.055 104.728 222.644 104.728 222.644C104.728 222.644 105.103 222.398 104.88 221.763C104.996 221.615 105.07 221.438 105.093 221.252C105.117 221.065 105.089 220.876 105.013 220.704C105.098 220.538 105.14 220.354 105.137 220.168C105.134 219.981 105.085 219.799 104.995 219.636C104.995 219.636 105.478 218.59 104.759 218.044C104.77 218.051 104.617 218.064 104.514 218.088Z" fill="#D69779"/>
<path d="M100.389 218.516C100.389 218.516 101.998 219.032 102.753 219.745C102.923 219.906 103.058 220.099 102.979 220.34C102.901 220.582 102.487 220.778 101.776 220.594C101.065 220.411 100.056 220.535 100.056 220.535C100.056 220.535 99.385 220.108 100.389 218.516Z" fill="#EEA886"/>
<path d="M102.455 273.227C102.455 273.227 100.949 263.83 100.87 263.448C100.791 263.067 99.2612 261.698 91.9326 259.299C91.9326 259.299 100.075 260.882 102.21 262.272C103.855 263.342 102.455 273.227 102.455 273.227Z" fill="#12131F"/>
<path d="M133.11 243.815C133.914 243.48 135.213 239.683 135.845 237.717C136.065 237.02 136.204 236.553 136.204 236.553H128.851C129.494 241.091 131.029 243.815 131.029 243.815H133.11Z" fill="#9E633A"/>
<path d="M133.707 234.291C133.707 234.027 134.886 232.922 135.477 232.2C136.067 231.477 135.25 230.108 135.25 230.108C132.617 231.197 133.071 234.291 133.071 234.291C133.071 234.291 133.707 234.555 133.707 234.291Z" fill="#97A43C"/>
<path d="M132.202 234.409H132.524C132.524 234.409 132.751 229.064 130.799 228.338C128.848 227.613 128.848 226.16 128.848 226.16C128.848 226.16 128.257 228.156 129.21 229.201C130.162 230.245 131.253 231.469 131.071 232.468C130.889 233.468 132.202 234.409 132.202 234.409Z" fill="#97A43C"/>
<path d="M135.839 237.717C136.059 237.02 136.197 236.553 136.197 236.553H128.844C129.488 241.091 131.023 243.815 131.023 243.815H131.506C131.414 239.565 134.212 238.175 135.839 237.717Z" fill="#82522F"/>
<path d="M136.196 234.291H128.788L128.367 236.553H136.496L136.196 234.291Z" fill="#C67B47"/>
<path d="M168.978 95.8527C169.811 93.6727 170.335 91.3867 170.533 89.0614L175.117 87.3077L174.232 82.0497L173.346 76.7998L168.44 76.6389C167.489 74.5067 166.243 72.5185 164.74 70.7325L166.738 66.2549L162.394 63.1625L158.05 60.0718L154.475 63.428C152.294 62.5936 150.008 62.0693 147.682 61.8706L145.935 57.2835L140.677 58.17L135.419 59.0549L135.258 63.9606C133.126 64.9117 131.137 66.1574 129.351 67.6611L124.874 65.6612L121.781 70.0053L118.691 74.3494L122.05 77.926C121.216 80.106 120.692 82.3919 120.493 84.7173L115.909 86.471L116.795 91.729L117.68 96.987L122.587 97.1479C123.538 99.2804 124.784 101.269 126.288 103.054L124.283 107.53L128.627 110.623L132.971 113.713L136.548 110.357C138.728 111.192 141.014 111.716 143.339 111.915L145.095 116.498L150.351 115.612L155.609 114.727L155.77 109.821C157.902 108.87 159.89 107.624 161.676 106.121L166.156 108.119L169.246 103.775L172.339 99.4309L168.978 95.8527ZM137.925 97.5388C135.819 96.0396 134.205 93.9494 133.286 91.5327C132.368 89.1159 132.187 86.4811 132.766 83.9614C133.345 81.4416 134.658 79.1502 136.539 77.3767C138.42 75.6032 140.785 74.4274 143.334 73.9979C145.884 73.5685 148.503 73.9046 150.862 74.9638C153.22 76.0231 155.212 77.7578 156.584 79.9488C157.957 82.1398 158.649 84.6885 158.573 87.2728C158.497 89.8571 157.656 92.3608 156.158 94.4674C154.148 97.2905 151.099 99.1998 147.681 99.7758C144.264 100.352 140.758 99.5471 137.933 97.5388H137.925Z" fill="url(#paint19_linear)"/>
<path d="M126.014 89.2833C125.355 89.8935 124.769 90.5793 124.27 91.3267C123.445 92.5639 121.255 92.6283 121.162 94.3177C121.069 96.0071 124.138 96.0585 125.751 95.5083C127.363 94.958 127.607 93.3089 128.582 92.897C129.557 92.4851 130.063 92.1504 129.988 91.346C129.914 90.5415 129.374 89.2335 129.374 89.2335C129.058 89.3347 128.736 89.4127 128.409 89.4667C127.606 89.5269 126.799 89.465 126.014 89.2833V89.2833Z" fill="#163F75"/>
<path d="M137.065 43.5256C137.065 43.5256 136.442 47.1956 135.948 49.6267C135.747 50.6114 135.563 51.3965 135.451 51.6362C135.309 51.9452 134.149 53.1905 132.73 54.6514C130.238 57.216 126.948 60.4435 126.948 60.4435L125.66 58.0028C125.66 58.0028 128.582 54.5757 130.564 52.2895C131.482 51.2308 132.198 50.4183 132.334 50.3008C132.748 49.9292 133.229 46.2785 133.905 43.2698C134.58 40.2611 135.935 38.6039 135.935 38.6039L137.065 43.5256Z" fill="#F2C344"/>
<path d="M132.73 54.6513C130.238 57.2159 126.948 60.4434 126.948 60.4434L125.66 58.0027C125.66 58.0027 128.582 54.5757 130.564 52.2894C131.173 52.587 132.288 53.2982 132.73 54.6513Z" fill="#EEA886"/>
<path d="M148.702 88.2779C148.702 88.2779 149.547 89.2127 150.047 89.7806C150.547 90.3486 152.46 91.3606 152.473 93.0435C152.485 94.8697 151.061 94.7104 149.793 94.6444C148.525 94.5784 147.495 93.7016 146.963 92.667C146.43 91.6325 145.009 91.3622 144.91 90.5288C144.81 89.6954 145.568 88.1926 145.568 88.1926L148.702 88.2779Z" fill="#163F75"/>
<path d="M145.73 86.6386L145.569 88.1928C145.569 88.1928 148.214 89.3464 148.703 88.2781L148.589 86.8928L145.73 86.6386Z" fill="#5F8CC9"/>
<path d="M126.158 88.1588L126.014 89.2851C127.113 89.6162 128.286 89.5988 129.374 89.2352L129.409 88.2344L126.158 88.1588Z" fill="#5F8CC9"/>
<path d="M148.852 59.9481C148.943 60.2699 131.919 59.9481 131.919 59.9481C131.919 59.9481 136.629 56.5195 136.934 55.604C137.24 54.6885 135.734 49.194 135.538 47.4065C135.377 45.9762 134.987 39.5759 135.93 38.5992C136.917 37.576 140.466 36.5076 140.466 36.5076L145.64 36.6991C146.142 36.8067 146.632 36.9613 147.104 37.1609C147.714 37.444 151.205 38.6877 151.77 40.4318C152.335 42.1759 148.287 47.7846 148.287 47.7846C148.287 47.7846 148.287 48.0356 148.268 48.4491C148.251 49.0009 148.229 49.8376 148.208 50.745C148.181 51.9211 148.156 53.2147 148.156 54.1608C148.158 56.3827 148.76 59.6199 148.852 59.9481Z" fill="#F2C344"/>
<path d="M148.851 59.9481C148.851 59.9481 151.167 63.3478 151.199 65.6711C151.231 67.9944 150.341 74.4301 150.275 75.706C150.209 76.9818 149.012 87.612 149.012 87.612C149.012 87.612 148.086 88.4744 145.312 87.3948C145.312 87.3948 144.699 77.3149 144.633 76.2369C144.567 75.1589 144.567 70.1857 143.946 69.4665C143.325 68.7473 139.565 66.4916 139.074 66.0653C138.583 65.6389 130.038 67.6742 129.142 67.9123C126.824 68.514 127.881 72.5492 128.394 74.3577C129.251 77.3825 130.003 88.3103 130.003 88.3103C130.003 88.3103 128.352 89.0134 125.586 88.4197C125.586 88.4197 120.153 68.6878 119.979 66.7265C119.806 64.7652 119.719 61.5281 133.105 59.0696L148.851 59.9481Z" fill="#1B4D8F"/>
<path d="M141.885 25.2627C141.885 25.2627 137.393 24.2507 138.419 29.9029C139.446 35.555 140.525 35.9991 143.235 34.8294C145.944 33.6597 145.703 30.038 145.84 28.2618C145.976 26.4855 143.318 25.3255 141.885 25.2627Z" fill="#EEA886"/>
<path d="M140.696 37.9572C140.696 37.9572 142.686 40.0649 145.83 38.1487C145.83 38.1487 145.127 33.5777 145.497 31.3526C145.867 29.1274 141.394 34.8069 141.394 34.8069C141.454 34.8375 141.492 35.0499 141.502 35.3524C141.509 35.655 141.493 35.9578 141.455 36.2582C141.362 36.9935 141.132 37.7738 140.696 37.9572Z" fill="#EEA886"/>
<path d="M144.293 29.1532C144.353 28.6544 145.339 28.471 145.42 29.2191C145.5 29.9673 144.972 31.2786 144.597 31.1499C144.223 31.0211 144.213 29.8402 144.293 29.1532Z" fill="#EEA886"/>
<path d="M145.621 31.1627C145.621 31.1627 145.505 29.3816 144.853 29.3269C144.202 29.2722 144.104 29.9882 144.104 29.9882L143.446 30.112C143.446 30.112 143.655 28.5514 143.005 28.2779C142.355 28.0044 138.796 29.137 138.274 28.6801C137.753 28.2232 137.998 25.0552 138.942 24.6224C139.887 24.1896 142.482 23.2178 144.396 24.5082C144.396 24.5082 145.885 24.3392 146.105 25.5395C146.325 26.7397 146.025 30.2713 145.621 31.1627Z" fill="#3A3F47"/>
<path d="M141.455 36.2548C144.697 35.2541 144.942 33.3008 144.945 33.2703C143.878 35.106 141.502 35.349 141.502 35.349C141.509 35.6517 141.493 35.9544 141.455 36.2548V36.2548Z" fill="#A77860"/>
<path d="M147.157 37.1833C147.157 37.1833 144.782 41.912 140.945 41.6079C137.108 41.3038 140.29 36.5494 140.463 36.506C140.635 36.4625 144.401 35.5245 147.157 37.1833Z" fill="#EEA886"/>
<path d="M129.971 59.7083C129.971 59.7083 141.729 61.1564 148.852 59.9481L135.242 58.2474C135.242 58.2474 135.155 58.5934 129.971 59.7083Z" fill="#F2C344"/>
<path d="M138.765 57.7117L137.89 58.1557C137.89 58.1557 138.089 59.5459 138.57 59.9674L139.552 59.718C139.552 59.718 139.346 58.1911 138.765 57.7117Z" fill="#EEA886"/>
<path d="M152.37 54.862C152.196 55.0647 149.884 55.9882 147.273 57.0002C143.706 58.3759 139.682 59.6743 139.682 59.6743L138.767 57.7114C138.767 57.7114 142.981 55.4219 145.827 53.8162C147.172 53.0584 148.213 52.4518 148.359 52.3118C148.818 51.8758 148.935 51.1759 148.599 49.9564C148.263 48.7368 147.487 43.1329 147.4 42.4797C147.313 41.8265 147.617 40.0808 149.254 39.9939C150.89 39.907 151.727 40.3672 151.727 40.3672C151.727 40.3672 152.137 40.5393 152.443 44.5069C152.748 48.4745 152.784 54.3825 152.37 54.862Z" fill="#F2C344"/>
<path d="M148.269 48.4475C148.253 48.9994 148.23 49.836 148.21 50.7435C146.613 46.8322 147.535 43.7092 147.551 43.6642C147.383 44.718 148.256 48.396 148.269 48.4475Z" fill="#B59233"/>
<path d="M135.948 49.6268C135.747 50.6114 135.563 51.3966 135.451 51.6363C134.905 48.9977 135.396 45.6205 135.396 45.6205C135.477 47.2343 135.948 49.6268 135.948 49.6268Z" fill="#B59233"/>
<path d="M147.272 57.0005C143.705 58.3762 139.549 59.718 139.549 59.718L138.764 57.7117C138.764 57.7117 142.977 55.4222 145.824 53.8165C145.825 53.8165 146.861 54.3217 147.272 57.0005Z" fill="#EEA886"/>
<path d="M138.511 59.8337L121.801 59.5875L130.238 63.8721L138.511 59.8337Z" fill="#5E5853"/>
<path d="M130.238 63.8723L138.511 60.6674V59.8339L129.585 63.0534L130.238 63.8723Z" fill="#91887F"/>
<path d="M138.078 58.1862C138.078 58.1862 137.034 58.0253 136.308 57.8548C135.75 57.7245 134.362 57.9047 134.008 58.2618C133.654 58.619 132.531 61.1177 132.317 61.2705C132.103 61.4234 132.426 61.7741 132.799 61.5923C132.799 61.5923 133.142 62.6848 133.988 62.2761C134.835 61.8675 135.409 60.9745 135.853 60.8168C136.297 60.6592 138.878 59.866 138.878 59.866C138.878 59.866 138.743 57.9191 138.078 58.1862Z" fill="#EEA886"/>
<path d="M134.268 58.0993C133.976 58.2363 133.693 58.3927 133.422 58.5675C133.247 58.7123 132.537 59.2432 132.366 59.372C132.196 59.5007 132.625 59.8546 133.893 59.3028C135.161 58.7509 134.268 58.0993 134.268 58.0993Z" fill="#EEA886"/>
<path d="M130.238 63.8723L125.268 50.301L109.243 50.5617L113.981 63.0679L130.238 63.8723Z" fill="#6E6760"/>
<path d="M120.14 56.304C120.623 57.2822 120.481 58.3457 119.818 58.6819C119.156 59.0182 118.21 58.4985 117.717 57.5203C117.225 56.5421 117.376 55.4786 118.039 55.1423C118.702 54.8061 119.651 55.3273 120.14 56.304Z" fill="#807066"/>
<defs>
<linearGradient id="paint0_linear" x1="465.498" y1="142.605" x2="0.648499" y2="142.605" gradientUnits="userSpaceOnUse">
<stop stop-color="#55B5FF"/>
<stop offset="1" stop-color="#E5F5FF"/>
</linearGradient>
<linearGradient id="paint1_linear" x1="157.25" y1="211.081" x2="410.51" y2="211.081" gradientUnits="userSpaceOnUse">
<stop stop-color="#FFC05C"/>
<stop offset="1" stop-color="#FF3857"/>
</linearGradient>
<linearGradient id="paint2_linear" x1="157.25" y1="204.227" x2="410.643" y2="204.227" gradientUnits="userSpaceOnUse">
<stop stop-color="#40D5E6"/>
<stop offset="1" stop-color="#5577FF"/>
</linearGradient>
<linearGradient id="paint3_linear" x1="280.1" y1="123.937" x2="370.426" y2="123.937" gradientUnits="userSpaceOnUse">
<stop stop-color="#8FD6FF"/>
<stop offset="1" stop-color="#BFEBFE"/>
</linearGradient>
<linearGradient id="paint4_linear" x1="155814" y1="26437.3" x2="206194" y2="26437.3" gradientUnits="userSpaceOnUse">
<stop stop-color="#8FD6FF"/>
<stop offset="1" stop-color="#BFEBFE"/>
</linearGradient>
<linearGradient id="paint5_linear" x1="291.64" y1="95.5729" x2="247.403" y2="221.605" gradientUnits="userSpaceOnUse">
<stop stop-color="#C6CBCF"/>
<stop offset="1" stop-color="#F8F1FE"/>
</linearGradient>
<linearGradient id="paint6_linear" x1="5497.24" y1="6473.59" x2="5529.16" y2="9644.99" gradientUnits="userSpaceOnUse">
<stop stop-color="#40D5E6"/>
<stop offset="1" stop-color="#5577FF"/>
</linearGradient>
<linearGradient id="paint7_linear" x1="1879.62" y1="6484.05" x2="1956.17" y2="9653.92" gradientUnits="userSpaceOnUse">
<stop stop-color="#40D5E6"/>
<stop offset="1" stop-color="#5577FF"/>
</linearGradient>
<linearGradient id="paint8_linear" x1="33424.2" y1="62.7221" x2="33214.7" y2="2095.05" gradientUnits="userSpaceOnUse">
<stop stop-color="#40D5E6"/>
<stop offset="1" stop-color="#5577FF"/>
</linearGradient>
<linearGradient id="paint9_linear" x1="33229.4" y1="55.8678" x2="33223.6" y2="355.111" gradientUnits="userSpaceOnUse">
<stop stop-color="#40D5E6"/>
<stop offset="1" stop-color="#5577FF"/>
</linearGradient>
<linearGradient id="paint10_linear" x1="128.33" y1="157.056" x2="128.33" y2="242.707" gradientUnits="userSpaceOnUse">
<stop stop-color="#626E7A"/>
<stop offset="1" stop-color="#F5F5F5"/>
</linearGradient>
<linearGradient id="paint11_linear" x1="128.075" y1="188.114" x2="128.075" y2="371.486" gradientUnits="userSpaceOnUse">
<stop stop-color="#44607D"/>
<stop offset="1" stop-color="#F5F5F5"/>
</linearGradient>
<linearGradient id="paint12_linear" x1="148.079" y1="172.732" x2="151.057" y2="172.732" gradientUnits="userSpaceOnUse">
<stop stop-color="#D5E4FF"/>
<stop offset="1" stop-color="#EDFFFE"/>
</linearGradient>
<linearGradient id="paint13_linear" x1="2979.04" y1="22335.5" x2="3034.16" y2="22335.5" gradientUnits="userSpaceOnUse">
<stop stop-color="#D5E4FF"/>
<stop offset="1" stop-color="#EDFFFE"/>
</linearGradient>
<linearGradient id="paint14_linear" x1="3086.17" y1="20030.1" x2="3141.29" y2="20030.1" gradientUnits="userSpaceOnUse">
<stop stop-color="#D5E4FF"/>
<stop offset="1" stop-color="#EDFFFE"/>
</linearGradient>
<linearGradient id="paint15_linear" x1="3196.09" y1="14549.2" x2="3251.21" y2="14549.2" gradientUnits="userSpaceOnUse">
<stop stop-color="#D5E4FF"/>
<stop offset="1" stop-color="#EDFFFE"/>
</linearGradient>
<linearGradient id="paint16_linear" x1="137.803" y1="235.202" x2="137.803" y2="220.775" gradientUnits="userSpaceOnUse">
<stop stop-color="#FF9F55"/>
<stop offset="1" stop-color="#FFD255"/>
</linearGradient>
<linearGradient id="paint17_linear" x1="66244.1" y1="5204.43" x2="65877.9" y2="5204.43" gradientUnits="userSpaceOnUse">
<stop stop-color="#FF9F55"/>
<stop offset="1" stop-color="#FFD255"/>
</linearGradient>
<linearGradient id="paint18_linear" x1="62148.9" y1="14064.5" x2="61818.8" y2="14064.5" gradientUnits="userSpaceOnUse">
<stop stop-color="#FF9F55"/>
<stop offset="1" stop-color="#FFD255"/>
</linearGradient>
<linearGradient id="paint19_linear" x1="42531.7" y1="31897.1" x2="64320.4" y2="31897.1" gradientUnits="userSpaceOnUse">
<stop stop-color="#40D5E6"/>
<stop offset="1" stop-color="#5577FF"/>
</linearGradient>
</defs>
</svg>
