<svg width="316" height="234" viewBox="0 0 316 234" fill="none" xmlns="http://www.w3.org/2000/svg">
<circle cx="55.9153" cy="109.561" r="6.97274" fill="#00B2EB"/>
<path d="M77.5491 117.84C76.7211 117.84 75.9771 117.696 75.3171 117.408C74.6691 117.108 74.1591 116.7 73.7871 116.184C73.4151 115.656 73.2231 115.05 73.2111 114.366H74.9571C75.0171 114.954 75.2571 115.452 75.6771 115.86C76.1091 116.256 76.7331 116.454 77.5491 116.454C78.3291 116.454 78.9411 116.262 79.3851 115.878C79.8411 115.482 80.0691 114.978 80.0691 114.366C80.0691 113.886 79.9371 113.496 79.6731 113.196C79.4091 112.896 79.0791 112.668 78.6831 112.512C78.2871 112.356 77.7531 112.188 77.0811 112.008C76.2531 111.792 75.5871 111.576 75.0831 111.36C74.5911 111.144 74.1651 110.808 73.8051 110.352C73.4571 109.884 73.2831 109.26 73.2831 108.48C73.2831 107.796 73.4571 107.19 73.8051 106.662C74.1531 106.134 74.6391 105.726 75.2631 105.438C75.8991 105.15 76.6251 105.006 77.4411 105.006C78.6171 105.006 79.5771 105.3 80.3211 105.888C81.0771 106.476 81.5031 107.256 81.5991 108.228H79.7991C79.7391 107.748 79.4871 107.328 79.0431 106.968C78.5991 106.596 78.0111 106.41 77.2791 106.41C76.5951 106.41 76.0371 106.59 75.6051 106.95C75.1731 107.298 74.9571 107.79 74.9571 108.426C74.9571 108.882 75.0831 109.254 75.3351 109.542C75.5991 109.83 75.9171 110.052 76.2891 110.208C76.6731 110.352 77.2071 110.52 77.8911 110.712C78.7191 110.94 79.3851 111.168 79.8891 111.396C80.3931 111.612 80.8251 111.954 81.1851 112.422C81.5451 112.878 81.7251 113.502 81.7251 114.294C81.7251 114.906 81.5631 115.482 81.2391 116.022C80.9151 116.562 80.4351 117 79.7991 117.336C79.1631 117.672 78.4131 117.84 77.5491 117.84ZM85.7735 109.668C86.0975 109.104 86.5775 108.636 87.2135 108.264C87.8615 107.88 88.6115 107.688 89.4635 107.688C90.3395 107.688 91.1315 107.898 91.8395 108.318C92.5595 108.738 93.1235 109.332 93.5315 110.1C93.9395 110.856 94.1435 111.738 94.1435 112.746C94.1435 113.742 93.9395 114.63 93.5315 115.41C93.1235 116.19 92.5595 116.796 91.8395 117.228C91.1315 117.66 90.3395 117.876 89.4635 117.876C88.6235 117.876 87.8795 117.69 87.2315 117.318C86.5955 116.934 86.1095 116.46 85.7735 115.896V122.394H84.1355V107.85H85.7735V109.668ZM92.4695 112.746C92.4695 112.002 92.3195 111.354 92.0195 110.802C91.7195 110.25 91.3115 109.83 90.7955 109.542C90.2915 109.254 89.7335 109.11 89.1215 109.11C88.5215 109.11 87.9635 109.26 87.4475 109.56C86.9435 109.848 86.5355 110.274 86.2235 110.838C85.9235 111.39 85.7735 112.032 85.7735 112.764C85.7735 113.508 85.9235 114.162 86.2235 114.726C86.5355 115.278 86.9435 115.704 87.4475 116.004C87.9635 116.292 88.5215 116.436 89.1215 116.436C89.7335 116.436 90.2915 116.292 90.7955 116.004C91.3115 115.704 91.7195 115.278 92.0195 114.726C92.3195 114.162 92.4695 113.502 92.4695 112.746ZM97.9376 109.452C98.2256 108.888 98.6336 108.45 99.1616 108.138C99.7016 107.826 100.356 107.67 101.124 107.67V109.362H100.692C98.8556 109.362 97.9376 110.358 97.9376 112.35V117.714H96.2996V107.85H97.9376V109.452ZM103.86 106.248C103.548 106.248 103.284 106.14 103.068 105.924C102.852 105.708 102.744 105.444 102.744 105.132C102.744 104.82 102.852 104.556 103.068 104.34C103.284 104.124 103.548 104.016 103.86 104.016C104.16 104.016 104.412 104.124 104.616 104.34C104.832 104.556 104.94 104.82 104.94 105.132C104.94 105.444 104.832 105.708 104.616 105.924C104.412 106.14 104.16 106.248 103.86 106.248ZM104.652 107.85V117.714H103.014V107.85H104.652ZM112.25 107.67C113.45 107.67 114.422 108.036 115.166 108.768C115.91 109.488 116.282 110.532 116.282 111.9V117.714H114.662V112.134C114.662 111.15 114.416 110.4 113.924 109.884C113.432 109.356 112.76 109.092 111.908 109.092C111.044 109.092 110.354 109.362 109.838 109.902C109.334 110.442 109.082 111.228 109.082 112.26V117.714H107.444V107.85H109.082V109.254C109.406 108.75 109.844 108.36 110.396 108.084C110.96 107.808 111.578 107.67 112.25 107.67ZM120.956 109.2V115.014C120.956 115.494 121.058 115.836 121.262 116.04C121.466 116.232 121.82 116.328 122.324 116.328H123.53V117.714H122.054C121.142 117.714 120.458 117.504 120.002 117.084C119.546 116.664 119.318 115.974 119.318 115.014V109.2H118.04V107.85H119.318V105.366H120.956V107.85H123.53V109.2H120.956ZM138.701 108.84C138.701 109.884 138.341 110.754 137.621 111.45C136.913 112.134 135.827 112.476 134.363 112.476H131.951V117.714H130.313V105.168H134.363C135.779 105.168 136.853 105.51 137.585 106.194C138.329 106.878 138.701 107.76 138.701 108.84ZM134.363 111.126C135.275 111.126 135.947 110.928 136.379 110.532C136.811 110.136 137.027 109.572 137.027 108.84C137.027 107.292 136.139 106.518 134.363 106.518H131.951V111.126H134.363ZM142.375 104.394V117.714H140.737V104.394H142.375ZM144.555 112.746C144.555 111.738 144.759 110.856 145.167 110.1C145.575 109.332 146.133 108.738 146.841 108.318C147.561 107.898 148.359 107.688 149.235 107.688C150.099 107.688 150.849 107.874 151.485 108.246C152.121 108.618 152.595 109.086 152.907 109.65V107.85H154.563V117.714H152.907V115.878C152.583 116.454 152.097 116.934 151.449 117.318C150.813 117.69 150.069 117.876 149.217 117.876C148.341 117.876 147.549 117.66 146.841 117.228C146.133 116.796 145.575 116.19 145.167 115.41C144.759 114.63 144.555 113.742 144.555 112.746ZM152.907 112.764C152.907 112.02 152.757 111.372 152.457 110.82C152.157 110.268 151.749 109.848 151.233 109.56C150.729 109.26 150.171 109.11 149.559 109.11C148.947 109.11 148.389 109.254 147.885 109.542C147.381 109.83 146.979 110.25 146.679 110.802C146.379 111.354 146.229 112.002 146.229 112.746C146.229 113.502 146.379 114.162 146.679 114.726C146.979 115.278 147.381 115.704 147.885 116.004C148.389 116.292 148.947 116.436 149.559 116.436C150.171 116.436 150.729 116.292 151.233 116.004C151.749 115.704 152.157 115.278 152.457 114.726C152.757 114.162 152.907 113.508 152.907 112.764ZM162.137 107.67C163.337 107.67 164.309 108.036 165.053 108.768C165.797 109.488 166.169 110.532 166.169 111.9V117.714H164.549V112.134C164.549 111.15 164.303 110.4 163.811 109.884C163.319 109.356 162.647 109.092 161.795 109.092C160.931 109.092 160.241 109.362 159.725 109.902C159.221 110.442 158.969 111.228 158.969 112.26V117.714H157.331V107.85H158.969V109.254C159.293 108.75 159.731 108.36 160.283 108.084C160.847 107.808 161.465 107.67 162.137 107.67Z" fill="black"/>
<circle cx="55.9153" cy="218.026" r="6.97274" fill="#00B2EB"/>
<path d="M77.4771 213.633C78.8451 213.633 80.0271 213.891 81.0231 214.407C82.0311 214.911 82.7991 215.637 83.3271 216.585C83.8671 217.533 84.1371 218.649 84.1371 219.933C84.1371 221.217 83.8671 222.333 83.3271 223.281C82.7991 224.217 82.0311 224.937 81.0231 225.441C80.0271 225.933 78.8451 226.179 77.4771 226.179H73.5711V213.633H77.4771ZM77.4771 224.829C79.0971 224.829 80.3331 224.403 81.1851 223.551C82.0371 222.687 82.4631 221.481 82.4631 219.933C82.4631 218.373 82.0311 217.155 81.1671 216.279C80.3151 215.403 79.0851 214.965 77.4771 214.965H75.2091V224.829H77.4771ZM95.2976 220.869C95.2976 221.181 95.2796 221.511 95.2436 221.859H87.3596C87.4196 222.831 87.7496 223.593 88.3496 224.145C88.9616 224.685 89.6996 224.955 90.5636 224.955C91.2716 224.955 91.8596 224.793 92.3276 224.469C92.8076 224.133 93.1436 223.689 93.3356 223.137H95.0996C94.8356 224.085 94.3076 224.859 93.5156 225.459C92.7236 226.047 91.7396 226.341 90.5636 226.341C89.6276 226.341 88.7876 226.131 88.0436 225.711C87.3116 225.291 86.7356 224.697 86.3156 223.929C85.8956 223.149 85.6856 222.249 85.6856 221.229C85.6856 220.209 85.8896 219.315 86.2976 218.547C86.7056 217.779 87.2756 217.191 88.0076 216.783C88.7516 216.363 89.6036 216.153 90.5636 216.153C91.4996 216.153 92.3276 216.357 93.0476 216.765C93.7676 217.173 94.3196 217.737 94.7036 218.457C95.0996 219.165 95.2976 219.969 95.2976 220.869ZM93.6056 220.527C93.6056 219.903 93.4676 219.369 93.1916 218.925C92.9156 218.469 92.5376 218.127 92.0576 217.899C91.5896 217.659 91.0676 217.539 90.4916 217.539C89.6636 217.539 88.9556 217.803 88.3676 218.331C87.7916 218.859 87.4616 219.591 87.3776 220.527H93.6056ZM101.132 224.667L104.192 216.315H105.938L102.068 226.179H100.16L96.2897 216.315H98.0537L101.132 224.667ZM116.55 220.869C116.55 221.181 116.532 221.511 116.496 221.859H108.612C108.672 222.831 109.002 223.593 109.602 224.145C110.214 224.685 110.952 224.955 111.816 224.955C112.524 224.955 113.112 224.793 113.58 224.469C114.06 224.133 114.396 223.689 114.588 223.137H116.352C116.088 224.085 115.56 224.859 114.768 225.459C113.976 226.047 112.992 226.341 111.816 226.341C110.88 226.341 110.04 226.131 109.296 225.711C108.564 225.291 107.988 224.697 107.568 223.929C107.148 223.149 106.938 222.249 106.938 221.229C106.938 220.209 107.142 219.315 107.55 218.547C107.958 217.779 108.528 217.191 109.26 216.783C110.004 216.363 110.856 216.153 111.816 216.153C112.752 216.153 113.58 216.357 114.3 216.765C115.02 217.173 115.572 217.737 115.956 218.457C116.352 219.165 116.55 219.969 116.55 220.869ZM114.858 220.527C114.858 219.903 114.72 219.369 114.444 218.925C114.168 218.469 113.79 218.127 113.31 217.899C112.842 217.659 112.32 217.539 111.744 217.539C110.916 217.539 110.208 217.803 109.62 218.331C109.044 218.859 108.714 219.591 108.63 220.527H114.858ZM120.35 212.859V226.179H118.712V212.859H120.35ZM127.443 226.341C126.519 226.341 125.679 226.131 124.923 225.711C124.179 225.291 123.591 224.697 123.159 223.929C122.739 223.149 122.529 222.249 122.529 221.229C122.529 220.221 122.745 219.333 123.177 218.565C123.621 217.785 124.221 217.191 124.977 216.783C125.733 216.363 126.579 216.153 127.515 216.153C128.451 216.153 129.297 216.363 130.053 216.783C130.809 217.191 131.403 217.779 131.835 218.547C132.279 219.315 132.501 220.209 132.501 221.229C132.501 222.249 132.273 223.149 131.817 223.929C131.373 224.697 130.767 225.291 129.999 225.711C129.231 226.131 128.379 226.341 127.443 226.341ZM127.443 224.901C128.031 224.901 128.583 224.763 129.099 224.487C129.615 224.211 130.029 223.797 130.341 223.245C130.665 222.693 130.827 222.021 130.827 221.229C130.827 220.437 130.671 219.765 130.359 219.213C130.047 218.661 129.639 218.253 129.135 217.989C128.631 217.713 128.085 217.575 127.497 217.575C126.897 217.575 126.345 217.713 125.841 217.989C125.349 218.253 124.953 218.661 124.653 219.213C124.353 219.765 124.203 220.437 124.203 221.229C124.203 222.033 124.347 222.711 124.635 223.263C124.935 223.815 125.331 224.229 125.823 224.505C126.315 224.769 126.855 224.901 127.443 224.901ZM136.293 218.133C136.617 217.569 137.097 217.101 137.733 216.729C138.381 216.345 139.131 216.153 139.983 216.153C140.859 216.153 141.651 216.363 142.359 216.783C143.079 217.203 143.643 217.797 144.051 218.565C144.459 219.321 144.663 220.203 144.663 221.211C144.663 222.207 144.459 223.095 144.051 223.875C143.643 224.655 143.079 225.261 142.359 225.693C141.651 226.125 140.859 226.341 139.983 226.341C139.143 226.341 138.399 226.155 137.751 225.783C137.115 225.399 136.629 224.925 136.293 224.361V230.859H134.655V216.315H136.293V218.133ZM142.989 221.211C142.989 220.467 142.839 219.819 142.539 219.267C142.239 218.715 141.831 218.295 141.315 218.007C140.811 217.719 140.253 217.575 139.641 217.575C139.041 217.575 138.483 217.725 137.967 218.025C137.463 218.313 137.055 218.739 136.743 219.303C136.443 219.855 136.293 220.497 136.293 221.229C136.293 221.973 136.443 222.627 136.743 223.191C137.055 223.743 137.463 224.169 137.967 224.469C138.483 224.757 139.041 224.901 139.641 224.901C140.253 224.901 140.811 224.757 141.315 224.469C141.831 224.169 142.239 223.743 142.539 223.191C142.839 222.627 142.989 221.967 142.989 221.211ZM153.256 213.633V226.179H151.618V213.633H153.256ZM158.046 217.665V223.479C158.046 223.959 158.148 224.301 158.352 224.505C158.556 224.697 158.91 224.793 159.414 224.793H160.62V226.179H159.144C158.232 226.179 157.548 225.969 157.092 225.549C156.636 225.129 156.408 224.439 156.408 223.479V217.665H155.13V216.315H156.408V213.831H158.046V216.315H160.62V217.665H158.046ZM171.604 220.869C171.604 221.181 171.586 221.511 171.55 221.859H163.666C163.726 222.831 164.056 223.593 164.656 224.145C165.268 224.685 166.006 224.955 166.87 224.955C167.578 224.955 168.166 224.793 168.634 224.469C169.114 224.133 169.45 223.689 169.642 223.137H171.406C171.142 224.085 170.614 224.859 169.822 225.459C169.03 226.047 168.046 226.341 166.87 226.341C165.934 226.341 165.094 226.131 164.35 225.711C163.618 225.291 163.042 224.697 162.622 223.929C162.202 223.149 161.992 222.249 161.992 221.229C161.992 220.209 162.196 219.315 162.604 218.547C163.012 217.779 163.582 217.191 164.314 216.783C165.058 216.363 165.91 216.153 166.87 216.153C167.806 216.153 168.634 216.357 169.354 216.765C170.074 217.173 170.626 217.737 171.01 218.457C171.406 219.165 171.604 219.969 171.604 220.869ZM169.912 220.527C169.912 219.903 169.774 219.369 169.498 218.925C169.222 218.469 168.844 218.127 168.364 217.899C167.896 217.659 167.374 217.539 166.798 217.539C165.97 217.539 165.262 217.803 164.674 218.331C164.098 218.859 163.768 219.591 163.684 220.527H169.912ZM175.404 217.917C175.692 217.353 176.1 216.915 176.628 216.603C177.168 216.291 177.822 216.135 178.59 216.135V217.827H178.158C176.322 217.827 175.404 218.823 175.404 220.815V226.179H173.766V216.315H175.404V217.917ZM179.869 221.211C179.869 220.203 180.073 219.321 180.481 218.565C180.889 217.797 181.447 217.203 182.155 216.783C182.875 216.363 183.673 216.153 184.549 216.153C185.413 216.153 186.163 216.339 186.799 216.711C187.435 217.083 187.909 217.551 188.221 218.115V216.315H189.877V226.179H188.221V224.343C187.897 224.919 187.411 225.399 186.763 225.783C186.127 226.155 185.383 226.341 184.531 226.341C183.655 226.341 182.863 226.125 182.155 225.693C181.447 225.261 180.889 224.655 180.481 223.875C180.073 223.095 179.869 222.207 179.869 221.211ZM188.221 221.229C188.221 220.485 188.071 219.837 187.771 219.285C187.471 218.733 187.063 218.313 186.547 218.025C186.043 217.725 185.485 217.575 184.873 217.575C184.261 217.575 183.703 217.719 183.199 218.007C182.695 218.295 182.293 218.715 181.993 219.267C181.693 219.819 181.543 220.467 181.543 221.211C181.543 221.967 181.693 222.627 181.993 223.191C182.293 223.743 182.695 224.169 183.199 224.469C183.703 224.757 184.261 224.901 184.873 224.901C185.485 224.901 186.043 224.757 186.547 224.469C187.063 224.169 187.471 223.743 187.771 223.191C188.071 222.627 188.221 221.973 188.221 221.229ZM194.643 217.665V223.479C194.643 223.959 194.745 224.301 194.949 224.505C195.153 224.697 195.507 224.793 196.011 224.793H197.217V226.179H195.741C194.829 226.179 194.145 225.969 193.689 225.549C193.233 225.129 193.005 224.439 193.005 223.479V217.665H191.727V216.315H193.005V213.831H194.643V216.315H197.217V217.665H194.643ZM200.048 214.713C199.736 214.713 199.472 214.605 199.256 214.389C199.04 214.173 198.932 213.909 198.932 213.597C198.932 213.285 199.04 213.021 199.256 212.805C199.472 212.589 199.736 212.481 200.048 212.481C200.348 212.481 200.6 212.589 200.804 212.805C201.02 213.021 201.128 213.285 201.128 213.597C201.128 213.909 201.02 214.173 200.804 214.389C200.6 214.605 200.348 214.713 200.048 214.713ZM200.84 216.315V226.179H199.202V216.315H200.84ZM207.304 224.667L210.364 216.315H212.11L208.24 226.179H206.332L202.462 216.315H204.226L207.304 224.667ZM222.721 220.869C222.721 221.181 222.703 221.511 222.667 221.859H214.783C214.843 222.831 215.173 223.593 215.773 224.145C216.385 224.685 217.123 224.955 217.987 224.955C218.695 224.955 219.283 224.793 219.751 224.469C220.231 224.133 220.567 223.689 220.759 223.137H222.523C222.259 224.085 221.731 224.859 220.939 225.459C220.147 226.047 219.163 226.341 217.987 226.341C217.051 226.341 216.211 226.131 215.467 225.711C214.735 225.291 214.159 224.697 213.739 223.929C213.319 223.149 213.109 222.249 213.109 221.229C213.109 220.209 213.313 219.315 213.721 218.547C214.129 217.779 214.699 217.191 215.431 216.783C216.175 216.363 217.027 216.153 217.987 216.153C218.923 216.153 219.751 216.357 220.471 216.765C221.191 217.173 221.743 217.737 222.127 218.457C222.523 219.165 222.721 219.969 222.721 220.869ZM221.029 220.527C221.029 219.903 220.891 219.369 220.615 218.925C220.339 218.469 219.961 218.127 219.481 217.899C219.013 217.659 218.491 217.539 217.915 217.539C217.087 217.539 216.379 217.803 215.791 218.331C215.215 218.859 214.885 219.591 214.801 220.527H221.029ZM226.522 212.859V226.179H224.884V212.859H226.522ZM237.809 216.315L231.869 230.823H230.177L232.121 226.071L228.143 216.315H229.961L233.057 224.307L236.117 216.315H237.809Z" fill="black"/>
<circle cx="55.9153" cy="163.793" r="6.97274" fill="#00B2EB"/>
<path d="M81.2931 159.401V160.733H77.8731V171.947H76.2351V160.733H72.7971V159.401H81.2931ZM92.3093 166.637C92.3093 166.949 92.2913 167.279 92.2553 167.627H84.3713C84.4313 168.599 84.7613 169.361 85.3613 169.913C85.9733 170.453 86.7113 170.723 87.5753 170.723C88.2833 170.723 88.8713 170.561 89.3393 170.237C89.8193 169.901 90.1553 169.457 90.3473 168.905H92.1113C91.8473 169.853 91.3193 170.627 90.5273 171.227C89.7353 171.815 88.7513 172.109 87.5753 172.109C86.6393 172.109 85.7993 171.899 85.0553 171.479C84.3233 171.059 83.7473 170.465 83.3273 169.697C82.9073 168.917 82.6973 168.017 82.6973 166.997C82.6973 165.977 82.9013 165.083 83.3093 164.315C83.7173 163.547 84.2873 162.959 85.0193 162.551C85.7633 162.131 86.6153 161.921 87.5753 161.921C88.5113 161.921 89.3393 162.125 90.0593 162.533C90.7793 162.941 91.3313 163.505 91.7153 164.225C92.1113 164.933 92.3093 165.737 92.3093 166.637ZM90.6173 166.295C90.6173 165.671 90.4793 165.137 90.2033 164.693C89.9273 164.237 89.5493 163.895 89.0693 163.667C88.6013 163.427 88.0793 163.307 87.5033 163.307C86.6753 163.307 85.9673 163.571 85.3793 164.099C84.8033 164.627 84.4733 165.359 84.3893 166.295H90.6173ZM93.8595 166.979C93.8595 165.971 94.0635 165.089 94.4715 164.333C94.8795 163.565 95.4375 162.971 96.1455 162.551C96.8655 162.131 97.6635 161.921 98.5395 161.921C99.4035 161.921 100.153 162.107 100.789 162.479C101.425 162.851 101.899 163.319 102.211 163.883V162.083H103.867V171.947H102.211V170.111C101.887 170.687 101.401 171.167 100.753 171.551C100.117 171.923 99.3735 172.109 98.5215 172.109C97.6455 172.109 96.8535 171.893 96.1455 171.461C95.4375 171.029 94.8795 170.423 94.4715 169.643C94.0635 168.863 93.8595 167.975 93.8595 166.979ZM102.211 166.997C102.211 166.253 102.061 165.605 101.761 165.053C101.461 164.501 101.053 164.081 100.537 163.793C100.033 163.493 99.4755 163.343 98.8635 163.343C98.2515 163.343 97.6935 163.487 97.1895 163.775C96.6855 164.063 96.2835 164.483 95.9835 165.035C95.6835 165.587 95.5335 166.235 95.5335 166.979C95.5335 167.735 95.6835 168.395 95.9835 168.959C96.2835 169.511 96.6855 169.937 97.1895 170.237C97.6935 170.525 98.2515 170.669 98.8635 170.669C99.4755 170.669 100.033 170.525 100.537 170.237C101.053 169.937 101.461 169.511 101.761 168.959C102.061 168.395 102.211 167.741 102.211 166.997ZM118.498 161.903C119.266 161.903 119.95 162.065 120.55 162.389C121.15 162.701 121.624 163.175 121.972 163.811C122.32 164.447 122.494 165.221 122.494 166.133V171.947H120.874V166.367C120.874 165.383 120.628 164.633 120.136 164.117C119.656 163.589 119.002 163.325 118.174 163.325C117.322 163.325 116.644 163.601 116.14 164.153C115.636 164.693 115.384 165.479 115.384 166.511V171.947H113.764V166.367C113.764 165.383 113.518 164.633 113.026 164.117C112.546 163.589 111.892 163.325 111.064 163.325C110.212 163.325 109.534 163.601 109.03 164.153C108.526 164.693 108.274 165.479 108.274 166.511V171.947H106.636V162.083H108.274V163.505C108.598 162.989 109.03 162.593 109.57 162.317C110.122 162.041 110.728 161.903 111.388 161.903C112.216 161.903 112.948 162.089 113.584 162.461C114.22 162.833 114.694 163.379 115.006 164.099C115.282 163.403 115.738 162.863 116.374 162.479C117.01 162.095 117.718 161.903 118.498 161.903ZM129.367 165.665C129.367 164.441 129.643 163.343 130.195 162.371C130.747 161.387 131.497 160.619 132.445 160.067C133.405 159.515 134.467 159.239 135.631 159.239C136.999 159.239 138.193 159.569 139.213 160.229C140.233 160.889 140.977 161.825 141.445 163.037H139.483C139.135 162.281 138.631 161.699 137.971 161.291C137.323 160.883 136.543 160.679 135.631 160.679C134.755 160.679 133.969 160.883 133.273 161.291C132.577 161.699 132.031 162.281 131.635 163.037C131.239 163.781 131.041 164.657 131.041 165.665C131.041 166.661 131.239 167.537 131.635 168.293C132.031 169.037 132.577 169.613 133.273 170.021C133.969 170.429 134.755 170.633 135.631 170.633C136.543 170.633 137.323 170.435 137.971 170.039C138.631 169.631 139.135 169.049 139.483 168.293H141.445C140.977 169.493 140.233 170.423 139.213 171.083C138.193 171.731 136.999 172.055 135.631 172.055C134.467 172.055 133.405 171.785 132.445 171.245C131.497 170.693 130.747 169.931 130.195 168.959C129.643 167.987 129.367 166.889 129.367 165.665ZM143.272 166.979C143.272 165.971 143.476 165.089 143.884 164.333C144.292 163.565 144.85 162.971 145.558 162.551C146.278 162.131 147.076 161.921 147.952 161.921C148.816 161.921 149.566 162.107 150.202 162.479C150.838 162.851 151.312 163.319 151.624 163.883V162.083H153.28V171.947H151.624V170.111C151.3 170.687 150.814 171.167 150.166 171.551C149.53 171.923 148.786 172.109 147.934 172.109C147.058 172.109 146.266 171.893 145.558 171.461C144.85 171.029 144.292 170.423 143.884 169.643C143.476 168.863 143.272 167.975 143.272 166.979ZM151.624 166.997C151.624 166.253 151.474 165.605 151.174 165.053C150.874 164.501 150.466 164.081 149.95 163.793C149.446 163.493 148.888 163.343 148.276 163.343C147.664 163.343 147.106 163.487 146.602 163.775C146.098 164.063 145.696 164.483 145.396 165.035C145.096 165.587 144.946 166.235 144.946 166.979C144.946 167.735 145.096 168.395 145.396 168.959C145.696 169.511 146.098 169.937 146.602 170.237C147.106 170.525 147.664 170.669 148.276 170.669C148.888 170.669 149.446 170.525 149.95 170.237C150.466 169.937 150.874 169.511 151.174 168.959C151.474 168.395 151.624 167.741 151.624 166.997ZM157.686 163.901C158.01 163.337 158.49 162.869 159.126 162.497C159.774 162.113 160.524 161.921 161.376 161.921C162.252 161.921 163.044 162.131 163.752 162.551C164.472 162.971 165.036 163.565 165.444 164.333C165.852 165.089 166.056 165.971 166.056 166.979C166.056 167.975 165.852 168.863 165.444 169.643C165.036 170.423 164.472 171.029 163.752 171.461C163.044 171.893 162.252 172.109 161.376 172.109C160.536 172.109 159.792 171.923 159.144 171.551C158.508 171.167 158.022 170.693 157.686 170.129V176.627H156.048V162.083H157.686V163.901ZM164.382 166.979C164.382 166.235 164.232 165.587 163.932 165.035C163.632 164.483 163.224 164.063 162.708 163.775C162.204 163.487 161.646 163.343 161.034 163.343C160.434 163.343 159.876 163.493 159.36 163.793C158.856 164.081 158.448 164.507 158.136 165.071C157.836 165.623 157.686 166.265 157.686 166.997C157.686 167.741 157.836 168.395 158.136 168.959C158.448 169.511 158.856 169.937 159.36 170.237C159.876 170.525 160.434 170.669 161.034 170.669C161.646 170.669 162.204 170.525 162.708 170.237C163.224 169.937 163.632 169.511 163.932 168.959C164.232 168.395 164.382 167.735 164.382 166.979ZM167.6 166.979C167.6 165.971 167.804 165.089 168.212 164.333C168.62 163.565 169.178 162.971 169.886 162.551C170.606 162.131 171.404 161.921 172.28 161.921C173.144 161.921 173.894 162.107 174.53 162.479C175.166 162.851 175.64 163.319 175.952 163.883V162.083H177.608V171.947H175.952V170.111C175.628 170.687 175.142 171.167 174.494 171.551C173.858 171.923 173.114 172.109 172.262 172.109C171.386 172.109 170.594 171.893 169.886 171.461C169.178 171.029 168.62 170.423 168.212 169.643C167.804 168.863 167.6 167.975 167.6 166.979ZM175.952 166.997C175.952 166.253 175.802 165.605 175.502 165.053C175.202 164.501 174.794 164.081 174.278 163.793C173.774 163.493 173.216 163.343 172.604 163.343C171.992 163.343 171.434 163.487 170.93 163.775C170.426 164.063 170.024 164.483 169.724 165.035C169.424 165.587 169.274 166.235 169.274 166.979C169.274 167.735 169.424 168.395 169.724 168.959C170.024 169.511 170.426 169.937 170.93 170.237C171.434 170.525 171.992 170.669 172.604 170.669C173.216 170.669 173.774 170.525 174.278 170.237C174.794 169.937 175.202 169.511 175.502 168.959C175.802 168.395 175.952 167.741 175.952 166.997ZM179.764 166.997C179.764 165.977 179.968 165.089 180.376 164.333C180.784 163.565 181.348 162.971 182.068 162.551C182.8 162.131 183.634 161.921 184.57 161.921C185.782 161.921 186.778 162.215 187.558 162.803C188.35 163.391 188.872 164.207 189.124 165.251H187.36C187.192 164.651 186.862 164.177 186.37 163.829C185.89 163.481 185.29 163.307 184.57 163.307C183.634 163.307 182.878 163.631 182.302 164.279C181.726 164.915 181.438 165.821 181.438 166.997C181.438 168.185 181.726 169.103 182.302 169.751C182.878 170.399 183.634 170.723 184.57 170.723C185.29 170.723 185.89 170.555 186.37 170.219C186.85 169.883 187.18 169.403 187.36 168.779H189.124C188.86 169.787 188.332 170.597 187.54 171.209C186.748 171.809 185.758 172.109 184.57 172.109C183.634 172.109 182.8 171.899 182.068 171.479C181.348 171.059 180.784 170.465 180.376 169.697C179.968 168.929 179.764 168.029 179.764 166.997ZM192.155 160.481C191.843 160.481 191.579 160.373 191.363 160.157C191.147 159.941 191.039 159.677 191.039 159.365C191.039 159.053 191.147 158.789 191.363 158.573C191.579 158.357 191.843 158.249 192.155 158.249C192.455 158.249 192.707 158.357 192.911 158.573C193.127 158.789 193.235 159.053 193.235 159.365C193.235 159.677 193.127 159.941 192.911 160.157C192.707 160.373 192.455 160.481 192.155 160.481ZM192.947 162.083V171.947H191.309V162.083H192.947ZM197.737 163.433V169.247C197.737 169.727 197.839 170.069 198.043 170.273C198.247 170.465 198.601 170.561 199.105 170.561H200.311V171.947H198.835C197.923 171.947 197.239 171.737 196.783 171.317C196.327 170.897 196.099 170.207 196.099 169.247V163.433H194.821V162.083H196.099V159.599H197.737V162.083H200.311V163.433H197.737ZM210.792 162.083L204.852 176.591H203.16L205.104 171.839L201.126 162.083H202.944L206.04 170.075L209.1 162.083H210.792Z" fill="black"/>
<rect width="315.323" height="54.2324" rx="20" fill="#DBF1FE" fill-opacity="0.65"/>
<path d="M66.342 24.264C66.342 25.0413 66.1587 25.7747 65.792 26.464C65.4253 27.1533 64.8387 27.718 64.032 28.158C63.2253 28.5833 62.1913 28.796 60.93 28.796H58.158V35H55.65V19.71H60.93C62.1033 19.71 63.0933 19.9153 63.9 20.326C64.7213 20.722 65.33 21.2647 65.726 21.954C66.1367 22.6433 66.342 23.4133 66.342 24.264ZM60.93 26.75C61.8833 26.75 62.5947 26.5373 63.064 26.112C63.5333 25.672 63.768 25.056 63.768 24.264C63.768 22.592 62.822 21.756 60.93 21.756H58.158V26.75H60.93ZM71.682 18.72V35H69.174V18.72H71.682ZM74.5788 28.884C74.5788 27.6667 74.8281 26.5887 75.3268 25.65C75.8401 24.7113 76.5294 23.9853 77.3948 23.472C78.2748 22.944 79.2428 22.68 80.2988 22.68C81.2521 22.68 82.0808 22.8707 82.7848 23.252C83.5034 23.6187 84.0754 24.0807 84.5008 24.638V22.878H87.0308V35H84.5008V33.196C84.0754 33.768 83.4961 34.2447 82.7628 34.626C82.0294 35.0073 81.1934 35.198 80.2548 35.198C79.2134 35.198 78.2601 34.934 77.3948 34.406C76.5294 33.8633 75.8401 33.1153 75.3268 32.162C74.8281 31.194 74.5788 30.1013 74.5788 28.884ZM84.5008 28.928C84.5008 28.092 84.3248 27.366 83.9728 26.75C83.6354 26.134 83.1881 25.6647 82.6308 25.342C82.0734 25.0193 81.4721 24.858 80.8268 24.858C80.1814 24.858 79.5801 25.0193 79.0228 25.342C78.4654 25.65 78.0108 26.112 77.6588 26.728C77.3214 27.3293 77.1528 28.048 77.1528 28.884C77.1528 29.72 77.3214 30.4533 77.6588 31.084C78.0108 31.7147 78.4654 32.1987 79.0228 32.536C79.5948 32.8587 80.1961 33.02 80.8268 33.02C81.4721 33.02 82.0734 32.8587 82.6308 32.536C83.1881 32.2133 83.6354 31.744 83.9728 31.128C84.3248 30.4973 84.5008 29.764 84.5008 28.928ZM96.8809 22.68C97.8343 22.68 98.6849 22.878 99.4329 23.274C100.196 23.67 100.79 24.2567 101.215 25.034C101.64 25.8113 101.853 26.75 101.853 27.85V35H99.3669V28.224C99.3669 27.1387 99.0956 26.31 98.5529 25.738C98.0103 25.1513 97.2696 24.858 96.3309 24.858C95.3923 24.858 94.6443 25.1513 94.0869 25.738C93.5443 26.31 93.2729 27.1387 93.2729 28.224V35H90.7649V22.878H93.2729V24.264C93.6836 23.7653 94.2043 23.3767 94.8349 23.098C95.4803 22.8193 96.1623 22.68 96.8809 22.68ZM116.966 28.884C116.966 27.6667 117.215 26.5887 117.714 25.65C118.227 24.7113 118.916 23.9853 119.782 23.472C120.662 22.944 121.63 22.68 122.686 22.68C123.639 22.68 124.468 22.8707 125.172 23.252C125.89 23.6187 126.462 24.0807 126.888 24.638V22.878H129.418V35H126.888V33.196C126.462 33.768 125.883 34.2447 125.15 34.626C124.416 35.0073 123.58 35.198 122.642 35.198C121.6 35.198 120.647 34.934 119.782 34.406C118.916 33.8633 118.227 33.1153 117.714 32.162C117.215 31.194 116.966 30.1013 116.966 28.884ZM126.888 28.928C126.888 28.092 126.712 27.366 126.36 26.75C126.022 26.134 125.575 25.6647 125.018 25.342C124.46 25.0193 123.859 24.858 123.214 24.858C122.568 24.858 121.967 25.0193 121.41 25.342C120.852 25.65 120.398 26.112 120.046 26.728C119.708 27.3293 119.54 28.048 119.54 28.884C119.54 29.72 119.708 30.4533 120.046 31.084C120.398 31.7147 120.852 32.1987 121.41 32.536C121.982 32.8587 122.583 33.02 123.214 33.02C123.859 33.02 124.46 32.8587 125.018 32.536C125.575 32.2133 126.022 31.744 126.36 31.128C126.712 30.4973 126.888 29.764 126.888 28.928ZM139.268 22.68C140.221 22.68 141.072 22.878 141.82 23.274C142.583 23.67 143.177 24.2567 143.602 25.034C144.027 25.8113 144.24 26.75 144.24 27.85V35H141.754V28.224C141.754 27.1387 141.483 26.31 140.94 25.738C140.397 25.1513 139.657 24.858 138.718 24.858C137.779 24.858 137.031 25.1513 136.474 25.738C135.931 26.31 135.66 27.1387 135.66 28.224V35H133.152V22.878H135.66V24.264C136.071 23.7653 136.591 23.3767 137.222 23.098C137.867 22.8193 138.549 22.68 139.268 22.68ZM147.043 28.884C147.043 27.6667 147.292 26.5887 147.791 25.65C148.304 24.7113 148.994 23.9853 149.859 23.472C150.739 22.944 151.714 22.68 152.785 22.68C153.577 22.68 154.354 22.856 155.117 23.208C155.894 23.5453 156.51 24 156.965 24.572V18.72H159.495V35H156.965V33.174C156.554 33.7607 155.982 34.2447 155.249 34.626C154.53 35.0073 153.702 35.198 152.763 35.198C151.707 35.198 150.739 34.934 149.859 34.406C148.994 33.8633 148.304 33.1153 147.791 32.162C147.292 31.194 147.043 30.1013 147.043 28.884ZM156.965 28.928C156.965 28.092 156.789 27.366 156.437 26.75C156.1 26.134 155.652 25.6647 155.095 25.342C154.538 25.0193 153.936 24.858 153.291 24.858C152.646 24.858 152.044 25.0193 151.487 25.342C150.93 25.65 150.475 26.112 150.123 26.728C149.786 27.3293 149.617 28.048 149.617 28.884C149.617 29.72 149.786 30.4533 150.123 31.084C150.475 31.7147 150.93 32.1987 151.487 32.536C152.059 32.8587 152.66 33.02 153.291 33.02C153.936 33.02 154.538 32.8587 155.095 32.536C155.652 32.2133 156.1 31.744 156.437 31.128C156.789 30.4973 156.965 29.764 156.965 28.928ZM174.378 19.71C176.006 19.71 177.429 20.0253 178.646 20.656C179.878 21.272 180.824 22.1667 181.484 23.34C182.159 24.4987 182.496 25.8553 182.496 27.41C182.496 28.9647 182.159 30.314 181.484 31.458C180.824 32.602 179.878 33.482 178.646 34.098C177.429 34.6993 176.006 35 174.378 35H169.384V19.71H174.378ZM174.378 32.954C176.167 32.954 177.539 32.47 178.492 31.502C179.445 30.534 179.922 29.17 179.922 27.41C179.922 25.6353 179.445 24.2493 178.492 23.252C177.539 22.2547 176.167 21.756 174.378 21.756H171.892V32.954H174.378ZM196.532 28.642C196.532 29.0967 196.502 29.5073 196.444 29.874H187.182C187.255 30.842 187.614 31.6193 188.26 32.206C188.905 32.7927 189.697 33.086 190.636 33.086C191.985 33.086 192.938 32.5213 193.496 31.392H196.202C195.835 32.5067 195.168 33.4233 194.2 34.142C193.246 34.846 192.058 35.198 190.636 35.198C189.477 35.198 188.436 34.9413 187.512 34.428C186.602 33.9 185.884 33.1667 185.356 32.228C184.842 31.2747 184.586 30.1747 184.586 28.928C184.586 27.6813 184.835 26.5887 185.334 25.65C185.847 24.6967 186.558 23.9633 187.468 23.45C188.392 22.9367 189.448 22.68 190.636 22.68C191.78 22.68 192.799 22.9293 193.694 23.428C194.588 23.9267 195.285 24.6307 195.784 25.54C196.282 26.4347 196.532 27.4687 196.532 28.642ZM193.914 27.85C193.899 26.926 193.569 26.1853 192.924 25.628C192.278 25.0707 191.479 24.792 190.526 24.792C189.66 24.792 188.92 25.0707 188.304 25.628C187.688 26.1707 187.321 26.9113 187.204 27.85H193.914ZM204.126 32.756L207.558 22.878H210.22L205.6 35H202.608L198.01 22.878H200.694L204.126 32.756ZM223.666 28.642C223.666 29.0967 223.636 29.5073 223.578 29.874H214.316C214.389 30.842 214.748 31.6193 215.394 32.206C216.039 32.7927 216.831 33.086 217.77 33.086C219.119 33.086 220.072 32.5213 220.63 31.392H223.336C222.969 32.5067 222.302 33.4233 221.334 34.142C220.38 34.846 219.192 35.198 217.77 35.198C216.611 35.198 215.57 34.9413 214.646 34.428C213.736 33.9 213.018 33.1667 212.49 32.228C211.976 31.2747 211.72 30.1747 211.72 28.928C211.72 27.6813 211.969 26.5887 212.468 25.65C212.981 24.6967 213.692 23.9633 214.602 23.45C215.526 22.9367 216.582 22.68 217.77 22.68C218.914 22.68 219.933 22.9293 220.828 23.428C221.722 23.9267 222.419 24.6307 222.918 25.54C223.416 26.4347 223.666 27.4687 223.666 28.642ZM221.048 27.85C221.033 26.926 220.703 26.1853 220.058 25.628C219.412 25.0707 218.613 24.792 217.66 24.792C216.794 24.792 216.054 25.0707 215.438 25.628C214.822 26.1707 214.455 26.9113 214.338 27.85H221.048ZM229.082 18.72V35H226.574V18.72H229.082ZM238.072 35.198C236.928 35.198 235.894 34.9413 234.97 34.428C234.046 33.9 233.32 33.1667 232.792 32.228C232.264 31.2747 232 30.1747 232 28.928C232 27.696 232.272 26.6033 232.814 25.65C233.357 24.6967 234.098 23.9633 235.036 23.45C235.975 22.9367 237.024 22.68 238.182 22.68C239.341 22.68 240.39 22.9367 241.328 23.45C242.267 23.9633 243.008 24.6967 243.55 25.65C244.093 26.6033 244.364 27.696 244.364 28.928C244.364 30.16 244.086 31.2527 243.528 32.206C242.971 33.1593 242.208 33.9 241.24 34.428C240.287 34.9413 239.231 35.198 238.072 35.198ZM238.072 33.02C238.718 33.02 239.319 32.866 239.876 32.558C240.448 32.25 240.91 31.788 241.262 31.172C241.614 30.556 241.79 29.808 241.79 28.928C241.79 28.048 241.622 27.3073 241.284 26.706C240.947 26.09 240.5 25.628 239.942 25.32C239.385 25.012 238.784 24.858 238.138 24.858C237.493 24.858 236.892 25.012 236.334 25.32C235.792 25.628 235.359 26.09 235.036 26.706C234.714 27.3073 234.552 28.048 234.552 28.928C234.552 30.2333 234.882 31.2453 235.542 31.964C236.217 32.668 237.06 33.02 238.072 33.02ZM249.792 24.66C250.217 24.1027 250.796 23.6333 251.53 23.252C252.263 22.8707 253.092 22.68 254.016 22.68C255.072 22.68 256.032 22.944 256.898 23.472C257.778 23.9853 258.467 24.7113 258.966 25.65C259.464 26.5887 259.714 27.6667 259.714 28.884C259.714 30.1013 259.464 31.194 258.966 32.162C258.467 33.1153 257.778 33.8633 256.898 34.406C256.032 34.934 255.072 35.198 254.016 35.198C253.092 35.198 252.27 35.0147 251.552 34.648C250.833 34.2667 250.246 33.7973 249.792 33.24V40.764H247.284V22.878H249.792V24.66ZM257.162 28.884C257.162 28.048 256.986 27.3293 256.634 26.728C256.296 26.112 255.842 25.65 255.27 25.342C254.712 25.0193 254.111 24.858 253.466 24.858C252.835 24.858 252.234 25.0193 251.662 25.342C251.104 25.6647 250.65 26.134 250.298 26.75C249.96 27.366 249.792 28.092 249.792 28.928C249.792 29.764 249.96 30.4973 250.298 31.128C250.65 31.744 251.104 32.2133 251.662 32.536C252.234 32.8587 252.835 33.02 253.466 33.02C254.111 33.02 254.712 32.8587 255.27 32.536C255.842 32.1987 256.296 31.7147 256.634 31.084C256.986 30.4533 257.162 29.72 257.162 28.884Z" fill="black"/>
</svg>
