<svg width="322" height="331" viewBox="0 0 322 331" fill="none" xmlns="http://www.w3.org/2000/svg">
<rect x="0.764709" y="0.890961" width="315.323" height="54.2324" rx="20" fill="#DBF1FE" fill-opacity="0.65"/>
<path d="M77.136 20.71V30.456C77.136 31.6147 77.4367 32.4873 78.038 33.074C78.654 33.6607 79.5047 33.954 80.59 33.954C81.69 33.954 82.5407 33.6607 83.142 33.074C83.758 32.4873 84.066 31.6147 84.066 30.456V20.71H86.574V30.412C86.574 31.6587 86.3027 32.7147 85.76 33.58C85.2173 34.4453 84.4913 35.0907 83.582 35.516C82.6727 35.9413 81.668 36.154 80.568 36.154C79.468 36.154 78.4633 35.9413 77.554 35.516C76.6593 35.0907 75.948 34.4453 75.42 33.58C74.892 32.7147 74.628 31.6587 74.628 30.412V20.71H77.136ZM96.3955 23.68C97.3488 23.68 98.1995 23.878 98.9475 24.274C99.7101 24.67 100.304 25.2567 100.729 26.034C101.155 26.8113 101.367 27.75 101.367 28.85V36H98.8815V29.224C98.8815 28.1387 98.6101 27.31 98.0675 26.738C97.5248 26.1513 96.7841 25.858 95.8455 25.858C94.9068 25.858 94.1588 26.1513 93.6015 26.738C93.0588 27.31 92.7875 28.1387 92.7875 29.224V36H90.2795V23.878H92.7875V25.264C93.1981 24.7653 93.7188 24.3767 94.3495 24.098C94.9948 23.8193 95.6768 23.68 96.3955 23.68ZM104.171 29.884C104.171 28.6667 104.42 27.5887 104.919 26.65C105.432 25.7113 106.121 24.9853 106.987 24.472C107.867 23.944 108.842 23.68 109.913 23.68C110.705 23.68 111.482 23.856 112.245 24.208C113.022 24.5453 113.638 25 114.093 25.572V19.72H116.623V36H114.093V34.174C113.682 34.7607 113.11 35.2447 112.377 35.626C111.658 36.0073 110.829 36.198 109.891 36.198C108.835 36.198 107.867 35.934 106.987 35.406C106.121 34.8633 105.432 34.1153 104.919 33.162C104.42 32.194 104.171 31.1013 104.171 29.884ZM114.093 29.928C114.093 29.092 113.917 28.366 113.565 27.75C113.227 27.134 112.78 26.6647 112.223 26.342C111.665 26.0193 111.064 25.858 110.419 25.858C109.773 25.858 109.172 26.0193 108.615 26.342C108.057 26.65 107.603 27.112 107.251 27.728C106.913 28.3293 106.745 29.048 106.745 29.884C106.745 30.72 106.913 31.4533 107.251 32.084C107.603 32.7147 108.057 33.1987 108.615 33.536C109.187 33.8587 109.788 34.02 110.419 34.02C111.064 34.02 111.665 33.8587 112.223 33.536C112.78 33.2133 113.227 32.744 113.565 32.128C113.917 31.4973 114.093 30.764 114.093 29.928ZM131.467 29.642C131.467 30.0967 131.437 30.5073 131.379 30.874H122.117C122.19 31.842 122.549 32.6193 123.195 33.206C123.84 33.7927 124.632 34.086 125.571 34.086C126.92 34.086 127.873 33.5213 128.431 32.392H131.137C130.77 33.5067 130.103 34.4233 129.135 35.142C128.181 35.846 126.993 36.198 125.571 36.198C124.412 36.198 123.371 35.9413 122.447 35.428C121.537 34.9 120.819 34.1667 120.291 33.228C119.777 32.2747 119.521 31.1747 119.521 29.928C119.521 28.6813 119.77 27.5887 120.269 26.65C120.782 25.6967 121.493 24.9633 122.403 24.45C123.327 23.9367 124.383 23.68 125.571 23.68C126.715 23.68 127.734 23.9293 128.629 24.428C129.523 24.9267 130.22 25.6307 130.719 26.54C131.217 27.4347 131.467 28.4687 131.467 29.642ZM128.849 28.85C128.834 27.926 128.504 27.1853 127.859 26.628C127.213 26.0707 126.414 25.792 125.461 25.792C124.595 25.792 123.855 26.0707 123.239 26.628C122.623 27.1707 122.256 27.9113 122.139 28.85H128.849ZM136.883 25.638C137.25 25.022 137.734 24.5453 138.335 24.208C138.951 23.856 139.677 23.68 140.513 23.68V26.276H139.875C138.892 26.276 138.144 26.5253 137.631 27.024C137.132 27.5227 136.883 28.388 136.883 29.62V36H134.375V23.878H136.883V25.638ZM147.658 36.198C146.705 36.198 145.847 36.0293 145.084 35.692C144.336 35.34 143.742 34.8707 143.302 34.284C142.862 33.6827 142.628 33.0153 142.598 32.282H145.194C145.238 32.7953 145.48 33.228 145.92 33.58C146.375 33.9173 146.94 34.086 147.614 34.086C148.318 34.086 148.861 33.954 149.242 33.69C149.638 33.4113 149.836 33.0593 149.836 32.634C149.836 32.1793 149.616 31.842 149.176 31.622C148.751 31.402 148.069 31.16 147.13 30.896C146.221 30.6467 145.48 30.4047 144.908 30.17C144.336 29.9353 143.838 29.576 143.412 29.092C143.002 28.608 142.796 27.97 142.796 27.178C142.796 26.5327 142.987 25.946 143.368 25.418C143.75 24.8753 144.292 24.45 144.996 24.142C145.715 23.834 146.536 23.68 147.46 23.68C148.839 23.68 149.946 24.032 150.782 24.736C151.633 25.4253 152.088 26.3713 152.146 27.574H149.638C149.594 27.0313 149.374 26.5987 148.978 26.276C148.582 25.9533 148.047 25.792 147.372 25.792C146.712 25.792 146.206 25.9167 145.854 26.166C145.502 26.4153 145.326 26.7453 145.326 27.156C145.326 27.4787 145.444 27.75 145.678 27.97C145.913 28.19 146.199 28.366 146.536 28.498C146.874 28.6153 147.372 28.7693 148.032 28.96C148.912 29.1947 149.631 29.4367 150.188 29.686C150.76 29.9207 151.252 30.2727 151.662 30.742C152.073 31.2113 152.286 31.8347 152.3 32.612C152.3 33.3013 152.11 33.9173 151.728 34.46C151.347 35.0027 150.804 35.428 150.1 35.736C149.411 36.044 148.597 36.198 147.658 36.198ZM158.376 25.924V32.634C158.376 33.0887 158.479 33.4187 158.684 33.624C158.904 33.8147 159.271 33.91 159.784 33.91H161.324V36H159.344C158.215 36 157.349 35.736 156.748 35.208C156.147 34.68 155.846 33.822 155.846 32.634V25.924H154.416V23.878H155.846V20.864H158.376V23.878H161.324V25.924H158.376ZM163.24 29.884C163.24 28.6667 163.489 27.5887 163.988 26.65C164.501 25.7113 165.19 24.9853 166.056 24.472C166.936 23.944 167.904 23.68 168.96 23.68C169.913 23.68 170.742 23.8707 171.446 24.252C172.164 24.6187 172.736 25.0807 173.162 25.638V23.878H175.692V36H173.162V34.196C172.736 34.768 172.157 35.2447 171.424 35.626C170.69 36.0073 169.854 36.198 168.916 36.198C167.874 36.198 166.921 35.934 166.056 35.406C165.19 34.8633 164.501 34.1153 163.988 33.162C163.489 32.194 163.24 31.1013 163.24 29.884ZM173.162 29.928C173.162 29.092 172.986 28.366 172.634 27.75C172.296 27.134 171.849 26.6647 171.292 26.342C170.734 26.0193 170.133 25.858 169.488 25.858C168.842 25.858 168.241 26.0193 167.684 26.342C167.126 26.65 166.672 27.112 166.32 27.728C165.982 28.3293 165.814 29.048 165.814 29.884C165.814 30.72 165.982 31.4533 166.32 32.084C166.672 32.7147 167.126 33.1987 167.684 33.536C168.256 33.8587 168.857 34.02 169.488 34.02C170.133 34.02 170.734 33.8587 171.292 33.536C171.849 33.2133 172.296 32.744 172.634 32.128C172.986 31.4973 173.162 30.764 173.162 29.928ZM185.542 23.68C186.495 23.68 187.346 23.878 188.094 24.274C188.857 24.67 189.451 25.2567 189.876 26.034C190.301 26.8113 190.514 27.75 190.514 28.85V36H188.028V29.224C188.028 28.1387 187.757 27.31 187.214 26.738C186.671 26.1513 185.931 25.858 184.992 25.858C184.053 25.858 183.305 26.1513 182.748 26.738C182.205 27.31 181.934 28.1387 181.934 29.224V36H179.426V23.878H181.934V25.264C182.345 24.7653 182.865 24.3767 183.496 24.098C184.141 23.8193 184.823 23.68 185.542 23.68ZM193.317 29.884C193.317 28.6667 193.566 27.5887 194.065 26.65C194.578 25.7113 195.268 24.9853 196.133 24.472C197.013 23.944 197.988 23.68 199.059 23.68C199.851 23.68 200.628 23.856 201.391 24.208C202.168 24.5453 202.784 25 203.239 25.572V19.72H205.769V36H203.239V34.174C202.828 34.7607 202.256 35.2447 201.523 35.626C200.804 36.0073 199.976 36.198 199.037 36.198C197.981 36.198 197.013 35.934 196.133 35.406C195.268 34.8633 194.578 34.1153 194.065 33.162C193.566 32.194 193.317 31.1013 193.317 29.884ZM203.239 29.928C203.239 29.092 203.063 28.366 202.711 27.75C202.374 27.134 201.926 26.6647 201.369 26.342C200.812 26.0193 200.21 25.858 199.565 25.858C198.92 25.858 198.318 26.0193 197.761 26.342C197.204 26.65 196.749 27.112 196.397 27.728C196.06 28.3293 195.891 29.048 195.891 29.884C195.891 30.72 196.06 31.4533 196.397 32.084C196.749 32.7147 197.204 33.1987 197.761 33.536C198.333 33.8587 198.934 34.02 199.565 34.02C200.21 34.02 200.812 33.8587 201.369 33.536C201.926 33.2133 202.374 32.744 202.711 32.128C203.063 31.4973 203.239 30.764 203.239 29.928ZM210.779 22.272C210.324 22.272 209.943 22.118 209.635 21.81C209.327 21.502 209.173 21.1207 209.173 20.666C209.173 20.2113 209.327 19.83 209.635 19.522C209.943 19.214 210.324 19.06 210.779 19.06C211.219 19.06 211.593 19.214 211.901 19.522C212.209 19.83 212.363 20.2113 212.363 20.666C212.363 21.1207 212.209 21.502 211.901 21.81C211.593 22.118 211.219 22.272 210.779 22.272ZM212.011 23.878V36H209.503V23.878H212.011ZM221.86 23.68C222.813 23.68 223.664 23.878 224.412 24.274C225.175 24.67 225.769 25.2567 226.194 26.034C226.619 26.8113 226.832 27.75 226.832 28.85V36H224.346V29.224C224.346 28.1387 224.075 27.31 223.532 26.738C222.989 26.1513 222.249 25.858 221.31 25.858C220.371 25.858 219.623 26.1513 219.066 26.738C218.523 27.31 218.252 28.1387 218.252 29.224V36H215.744V23.878H218.252V25.264C218.663 24.7653 219.183 24.3767 219.814 24.098C220.459 23.8193 221.141 23.68 221.86 23.68ZM235.355 23.68C236.294 23.68 237.122 23.8707 237.841 24.252C238.574 24.6187 239.146 25.0807 239.557 25.638V23.878H242.087V36.198C242.087 37.3127 241.852 38.3027 241.383 39.168C240.914 40.048 240.232 40.7373 239.337 41.236C238.457 41.7347 237.401 41.984 236.169 41.984C234.526 41.984 233.162 41.5953 232.077 40.818C230.992 40.0553 230.376 39.014 230.229 37.694H232.715C232.906 38.3247 233.309 38.8307 233.925 39.212C234.556 39.608 235.304 39.806 236.169 39.806C237.181 39.806 237.995 39.498 238.611 38.882C239.242 38.266 239.557 37.3713 239.557 36.198V34.174C239.132 34.746 238.552 35.23 237.819 35.626C237.1 36.0073 236.279 36.198 235.355 36.198C234.299 36.198 233.331 35.934 232.451 35.406C231.586 34.8633 230.896 34.1153 230.383 33.162C229.884 32.194 229.635 31.1013 229.635 29.884C229.635 28.6667 229.884 27.5887 230.383 26.65C230.896 25.7113 231.586 24.9853 232.451 24.472C233.331 23.944 234.299 23.68 235.355 23.68ZM239.557 29.928C239.557 29.092 239.381 28.366 239.029 27.75C238.692 27.134 238.244 26.6647 237.687 26.342C237.13 26.0193 236.528 25.858 235.883 25.858C235.238 25.858 234.636 26.0193 234.079 26.342C233.522 26.65 233.067 27.112 232.715 27.728C232.378 28.3293 232.209 29.048 232.209 29.884C232.209 30.72 232.378 31.4533 232.715 32.084C233.067 32.7147 233.522 33.1987 234.079 33.536C234.651 33.8587 235.252 34.02 235.883 34.02C236.528 34.02 237.13 33.8587 237.687 33.536C238.244 33.2133 238.692 32.744 239.029 32.128C239.381 31.4973 239.557 30.764 239.557 29.928Z" fill="black"/>
<circle cx="37.2052" cy="103.861" r="6" fill="#00B2EB"/>
<path d="M60.2636 102.243C60.669 102.307 61.037 102.472 61.3676 102.739C61.709 103.006 61.9756 103.336 62.1676 103.731C62.3703 104.126 62.4716 104.547 62.4716 104.995C62.4716 105.56 62.3276 106.072 62.0396 106.531C61.7516 106.979 61.3303 107.336 60.7756 107.603C60.2316 107.859 59.5863 107.987 58.8396 107.987H54.6796V96.8351H58.6796C59.437 96.8351 60.0823 96.9631 60.6156 97.2191C61.149 97.4644 61.549 97.8004 61.8156 98.2271C62.0823 98.6538 62.2156 99.1338 62.2156 99.6671C62.2156 100.328 62.0343 100.878 61.6716 101.315C61.3196 101.742 60.8503 102.051 60.2636 102.243ZM56.1356 101.651H58.5836C59.2663 101.651 59.7943 101.491 60.1676 101.171C60.541 100.851 60.7276 100.408 60.7276 99.8431C60.7276 99.2778 60.541 98.8351 60.1676 98.5151C59.7943 98.1951 59.2556 98.0351 58.5516 98.0351H56.1356V101.651ZM58.7116 106.787C59.437 106.787 60.0023 106.616 60.4076 106.275C60.813 105.934 61.0156 105.459 61.0156 104.851C61.0156 104.232 60.8023 103.747 60.3756 103.395C59.949 103.032 59.3783 102.851 58.6636 102.851H56.1356V106.787H58.7116ZM72.2681 99.2191V107.987H70.8121V106.691C70.5348 107.139 70.1455 107.491 69.6441 107.747C69.1535 107.992 68.6095 108.115 68.0121 108.115C67.3295 108.115 66.7161 107.976 66.1721 107.699C65.6281 107.411 65.1961 106.984 64.8761 106.419C64.5668 105.854 64.4121 105.166 64.4121 104.355V99.2191H65.8521V104.163C65.8521 105.027 66.0708 105.694 66.5081 106.163C66.9455 106.622 67.5428 106.851 68.3001 106.851C69.0788 106.851 69.6921 106.611 70.1401 106.131C70.5881 105.651 70.8121 104.952 70.8121 104.035V99.2191H72.2681ZM77.8305 108.131C77.1585 108.131 76.5558 108.019 76.0225 107.795C75.4892 107.56 75.0678 107.24 74.7585 106.835C74.4492 106.419 74.2785 105.944 74.2465 105.411H75.7505C75.7932 105.848 75.9958 106.206 76.3585 106.483C76.7318 106.76 77.2172 106.899 77.8145 106.899C78.3692 106.899 78.8065 106.776 79.1265 106.531C79.4465 106.286 79.6065 105.976 79.6065 105.603C79.6065 105.219 79.4358 104.936 79.0945 104.755C78.7532 104.563 78.2252 104.376 77.5105 104.195C76.8598 104.024 76.3265 103.854 75.9105 103.683C75.5052 103.502 75.1532 103.24 74.8545 102.899C74.5665 102.547 74.4225 102.088 74.4225 101.523C74.4225 101.075 74.5558 100.664 74.8225 100.291C75.0892 99.9178 75.4678 99.6244 75.9585 99.4111C76.4492 99.1871 77.0092 99.0751 77.6385 99.0751C78.6092 99.0751 79.3932 99.3204 79.9905 99.8111C80.5878 100.302 80.9078 100.974 80.9505 101.827H79.4945C79.4625 101.368 79.2758 101 78.9345 100.723C78.6038 100.446 78.1558 100.307 77.5905 100.307C77.0678 100.307 76.6518 100.419 76.3425 100.643C76.0332 100.867 75.8785 101.16 75.8785 101.523C75.8785 101.811 75.9692 102.051 76.1505 102.243C76.3425 102.424 76.5772 102.574 76.8545 102.691C77.1425 102.798 77.5372 102.92 78.0385 103.059C78.6678 103.23 79.1798 103.4 79.5745 103.571C79.9692 103.731 80.3052 103.976 80.5825 104.307C80.8705 104.638 81.0198 105.07 81.0305 105.603C81.0305 106.083 80.8972 106.515 80.6305 106.899C80.3638 107.283 79.9852 107.587 79.4945 107.811C79.0145 108.024 78.4598 108.131 77.8305 108.131ZM83.8379 97.7951C83.5606 97.7951 83.3259 97.6991 83.1339 97.5071C82.9419 97.3151 82.8459 97.0804 82.8459 96.8031C82.8459 96.5258 82.9419 96.2911 83.1339 96.0991C83.3259 95.9071 83.5606 95.8111 83.8379 95.8111C84.1046 95.8111 84.3286 95.9071 84.5099 96.0991C84.7019 96.2911 84.7979 96.5258 84.7979 96.8031C84.7979 97.0804 84.7019 97.3151 84.5099 97.5071C84.3286 97.6991 84.1046 97.7951 83.8379 97.7951ZM84.5419 99.2191V107.987H83.0859V99.2191H84.5419ZM91.2954 99.0591C92.3621 99.0591 93.2261 99.3844 93.8874 100.035C94.5487 100.675 94.8794 101.603 94.8794 102.819V107.987H93.4394V103.027C93.4394 102.152 93.2207 101.486 92.7834 101.027C92.3461 100.558 91.7487 100.323 90.9914 100.323C90.2234 100.323 89.6101 100.563 89.1514 101.043C88.7034 101.523 88.4794 102.222 88.4794 103.139V107.987H87.0234V99.2191H88.4794V100.467C88.7674 100.019 89.1567 99.6724 89.6474 99.4271C90.1487 99.1818 90.6981 99.0591 91.2954 99.0591ZM105.258 103.267C105.258 103.544 105.242 103.838 105.21 104.147H98.2018C98.2551 105.011 98.5484 105.688 99.0818 106.179C99.6258 106.659 100.282 106.899 101.05 106.899C101.679 106.899 102.202 106.755 102.618 106.467C103.044 106.168 103.343 105.774 103.514 105.283H105.082C104.847 106.126 104.378 106.814 103.674 107.347C102.97 107.87 102.095 108.131 101.05 108.131C100.218 108.131 99.4711 107.944 98.8098 107.571C98.1591 107.198 97.6471 106.67 97.2738 105.987C96.9004 105.294 96.7138 104.494 96.7138 103.587C96.7138 102.68 96.8951 101.886 97.2578 101.203C97.6204 100.52 98.1271 99.9978 98.7778 99.6351C99.4391 99.2618 100.196 99.0751 101.05 99.0751C101.882 99.0751 102.618 99.2564 103.258 99.6191C103.898 99.9818 104.388 100.483 104.73 101.123C105.082 101.752 105.258 102.467 105.258 103.267ZM103.754 102.963C103.754 102.408 103.631 101.934 103.386 101.539C103.14 101.134 102.804 100.83 102.378 100.627C101.962 100.414 101.498 100.307 100.986 100.307C100.25 100.307 99.6204 100.542 99.0978 101.011C98.5858 101.48 98.2924 102.131 98.2178 102.963H103.754ZM110.284 108.131C109.612 108.131 109.009 108.019 108.476 107.795C107.942 107.56 107.521 107.24 107.212 106.835C106.902 106.419 106.732 105.944 106.7 105.411H108.204C108.246 105.848 108.449 106.206 108.812 106.483C109.185 106.76 109.67 106.899 110.268 106.899C110.822 106.899 111.26 106.776 111.58 106.531C111.9 106.286 112.06 105.976 112.06 105.603C112.06 105.219 111.889 104.936 111.548 104.755C111.206 104.563 110.678 104.376 109.964 104.195C109.313 104.024 108.78 103.854 108.364 103.683C107.958 103.502 107.606 103.24 107.308 102.899C107.02 102.547 106.876 102.088 106.876 101.523C106.876 101.075 107.009 100.664 107.276 100.291C107.542 99.9178 107.921 99.6244 108.412 99.4111C108.902 99.1871 109.462 99.0751 110.092 99.0751C111.062 99.0751 111.846 99.3204 112.444 99.8111C113.041 100.302 113.361 100.974 113.404 101.827H111.948C111.916 101.368 111.729 101 111.388 100.723C111.057 100.446 110.609 100.307 110.044 100.307C109.521 100.307 109.105 100.419 108.796 100.643C108.486 100.867 108.332 101.16 108.332 101.523C108.332 101.811 108.422 102.051 108.604 102.243C108.796 102.424 109.03 102.574 109.308 102.691C109.596 102.798 109.99 102.92 110.492 103.059C111.121 103.23 111.633 103.4 112.028 103.571C112.422 103.731 112.758 103.976 113.036 104.307C113.324 104.638 113.473 105.07 113.484 105.603C113.484 106.083 113.35 106.515 113.084 106.899C112.817 107.283 112.438 107.587 111.948 107.811C111.468 108.024 110.913 108.131 110.284 108.131ZM118.643 108.131C117.971 108.131 117.368 108.019 116.835 107.795C116.302 107.56 115.88 107.24 115.571 106.835C115.262 106.419 115.091 105.944 115.059 105.411H116.563C116.606 105.848 116.808 106.206 117.171 106.483C117.544 106.76 118.03 106.899 118.627 106.899C119.182 106.899 119.619 106.776 119.939 106.531C120.259 106.286 120.419 105.976 120.419 105.603C120.419 105.219 120.248 104.936 119.907 104.755C119.566 104.563 119.038 104.376 118.323 104.195C117.672 104.024 117.139 103.854 116.723 103.683C116.318 103.502 115.966 103.24 115.667 102.899C115.379 102.547 115.235 102.088 115.235 101.523C115.235 101.075 115.368 100.664 115.635 100.291C115.902 99.9178 116.28 99.6244 116.771 99.4111C117.262 99.1871 117.822 99.0751 118.451 99.0751C119.422 99.0751 120.206 99.3204 120.803 99.8111C121.4 100.302 121.72 100.974 121.763 101.827H120.307C120.275 101.368 120.088 101 119.747 100.723C119.416 100.446 118.968 100.307 118.403 100.307C117.88 100.307 117.464 100.419 117.155 100.643C116.846 100.867 116.691 101.16 116.691 101.523C116.691 101.811 116.782 102.051 116.963 102.243C117.155 102.424 117.39 102.574 117.667 102.691C117.955 102.798 118.35 102.92 118.851 103.059C119.48 103.23 119.992 103.4 120.387 103.571C120.782 103.731 121.118 103.976 121.395 104.307C121.683 104.638 121.832 105.07 121.843 105.603C121.843 106.083 121.71 106.515 121.443 106.899C121.176 107.283 120.798 107.587 120.307 107.811C119.827 108.024 119.272 108.131 118.643 108.131ZM127.62 103.571C127.62 102.675 127.801 101.891 128.164 101.219C128.527 100.536 129.023 100.008 129.652 99.6351C130.292 99.2618 131.007 99.0751 131.796 99.0751C132.479 99.0751 133.113 99.2351 133.7 99.5551C134.287 99.8644 134.735 100.275 135.044 100.787V96.1471H136.516V107.987H135.044V106.339C134.756 106.862 134.329 107.294 133.764 107.635C133.199 107.966 132.537 108.131 131.78 108.131C131.001 108.131 130.292 107.939 129.652 107.555C129.023 107.171 128.527 106.632 128.164 105.939C127.801 105.246 127.62 104.456 127.62 103.571ZM135.044 103.587C135.044 102.926 134.911 102.35 134.644 101.859C134.377 101.368 134.015 100.995 133.556 100.739C133.108 100.472 132.612 100.339 132.068 100.339C131.524 100.339 131.028 100.467 130.58 100.723C130.132 100.979 129.775 101.352 129.508 101.843C129.241 102.334 129.108 102.91 129.108 103.571C129.108 104.243 129.241 104.83 129.508 105.331C129.775 105.822 130.132 106.2 130.58 106.467C131.028 106.723 131.524 106.851 132.068 106.851C132.612 106.851 133.108 106.723 133.556 106.467C134.015 106.2 134.377 105.822 134.644 105.331C134.911 104.83 135.044 104.248 135.044 103.587ZM140.433 100.643C140.689 100.142 141.051 99.7524 141.521 99.4751C142.001 99.1978 142.582 99.0591 143.265 99.0591V100.563H142.881C141.249 100.563 140.433 101.448 140.433 103.219V107.987H138.977V99.2191H140.433V100.643ZM145.697 97.7951C145.42 97.7951 145.185 97.6991 144.993 97.5071C144.801 97.3151 144.705 97.0804 144.705 96.8031C144.705 96.5258 144.801 96.2911 144.993 96.0991C145.185 95.9071 145.42 95.8111 145.697 95.8111C145.964 95.8111 146.188 95.9071 146.369 96.0991C146.561 96.2911 146.657 96.5258 146.657 96.8031C146.657 97.0804 146.561 97.3151 146.369 97.5071C146.188 97.6991 145.964 97.7951 145.697 97.7951ZM146.401 99.2191V107.987H144.945V99.2191H146.401ZM152.147 106.643L154.867 99.2191H156.419L152.979 107.987H151.283L147.843 99.2191H149.411L152.147 106.643ZM165.852 103.267C165.852 103.544 165.836 103.838 165.804 104.147H158.796C158.849 105.011 159.142 105.688 159.676 106.179C160.22 106.659 160.876 106.899 161.644 106.899C162.273 106.899 162.796 106.755 163.212 106.467C163.638 106.168 163.937 105.774 164.108 105.283H165.676C165.441 106.126 164.972 106.814 164.268 107.347C163.564 107.87 162.689 108.131 161.644 108.131C160.812 108.131 160.065 107.944 159.404 107.571C158.753 107.198 158.241 106.67 157.868 105.987C157.494 105.294 157.308 104.494 157.308 103.587C157.308 102.68 157.489 101.886 157.852 101.203C158.214 100.52 158.721 99.9978 159.372 99.6351C160.033 99.2618 160.79 99.0751 161.644 99.0751C162.476 99.0751 163.212 99.2564 163.852 99.6191C164.492 99.9818 164.982 100.483 165.324 101.123C165.676 101.752 165.852 102.467 165.852 103.267ZM164.348 102.963C164.348 102.408 164.225 101.934 163.98 101.539C163.734 101.134 163.398 100.83 162.972 100.627C162.556 100.414 162.092 100.307 161.58 100.307C160.844 100.307 160.214 100.542 159.692 101.011C159.18 101.48 158.886 102.131 158.812 102.963H164.348ZM169.229 100.643C169.485 100.142 169.848 99.7524 170.317 99.4751C170.797 99.1978 171.379 99.0591 172.061 99.0591V100.563H171.677C170.045 100.563 169.229 101.448 169.229 103.219V107.987H167.773V99.2191H169.229V100.643ZM176.846 108.131C176.174 108.131 175.571 108.019 175.038 107.795C174.505 107.56 174.083 107.24 173.774 106.835C173.465 106.419 173.294 105.944 173.262 105.411H174.766C174.809 105.848 175.011 106.206 175.374 106.483C175.747 106.76 176.233 106.899 176.83 106.899C177.385 106.899 177.822 106.776 178.142 106.531C178.462 106.286 178.622 105.976 178.622 105.603C178.622 105.219 178.451 104.936 178.11 104.755C177.769 104.563 177.241 104.376 176.526 104.195C175.875 104.024 175.342 103.854 174.926 103.683C174.521 103.502 174.169 103.24 173.87 102.899C173.582 102.547 173.438 102.088 173.438 101.523C173.438 101.075 173.571 100.664 173.838 100.291C174.105 99.9178 174.483 99.6244 174.974 99.4111C175.465 99.1871 176.025 99.0751 176.654 99.0751C177.625 99.0751 178.409 99.3204 179.006 99.8111C179.603 100.302 179.923 100.974 179.966 101.827H178.51C178.478 101.368 178.291 101 177.95 100.723C177.619 100.446 177.171 100.307 176.606 100.307C176.083 100.307 175.667 100.419 175.358 100.643C175.049 100.867 174.894 101.16 174.894 101.523C174.894 101.811 174.985 102.051 175.166 102.243C175.358 102.424 175.593 102.574 175.87 102.691C176.158 102.798 176.553 102.92 177.054 103.059C177.683 103.23 178.195 103.4 178.59 103.571C178.985 103.731 179.321 103.976 179.598 104.307C179.886 104.638 180.035 105.07 180.046 105.603C180.046 106.083 179.913 106.515 179.646 106.899C179.379 107.283 179.001 107.587 178.51 107.811C178.03 108.024 177.475 108.131 176.846 108.131ZM185.823 103.571C185.823 102.675 186.004 101.891 186.367 101.219C186.73 100.536 187.226 100.008 187.855 99.6351C188.495 99.2618 189.204 99.0751 189.983 99.0751C190.751 99.0751 191.418 99.2404 191.983 99.5711C192.548 99.9018 192.97 100.318 193.247 100.819V99.2191H194.719V107.987H193.247V106.355C192.959 106.867 192.527 107.294 191.951 107.635C191.386 107.966 190.724 108.131 189.967 108.131C189.188 108.131 188.484 107.939 187.855 107.555C187.226 107.171 186.73 106.632 186.367 105.939C186.004 105.246 185.823 104.456 185.823 103.571ZM193.247 103.587C193.247 102.926 193.114 102.35 192.847 101.859C192.58 101.368 192.218 100.995 191.759 100.739C191.311 100.472 190.815 100.339 190.271 100.339C189.727 100.339 189.231 100.467 188.783 100.723C188.335 100.979 187.978 101.352 187.711 101.843C187.444 102.334 187.311 102.91 187.311 103.571C187.311 104.243 187.444 104.83 187.711 105.331C187.978 105.822 188.335 106.2 188.783 106.467C189.231 106.723 189.727 106.851 190.271 106.851C190.815 106.851 191.311 106.723 191.759 106.467C192.218 106.2 192.58 105.822 192.847 105.331C193.114 104.83 193.247 104.248 193.247 103.587ZM201.452 99.0591C202.518 99.0591 203.382 99.3844 204.044 100.035C204.705 100.675 205.036 101.603 205.036 102.819V107.987H203.596V103.027C203.596 102.152 203.377 101.486 202.94 101.027C202.502 100.558 201.905 100.323 201.148 100.323C200.38 100.323 199.766 100.563 199.308 101.043C198.86 101.523 198.636 102.222 198.636 103.139V107.987H197.18V99.2191H198.636V100.467C198.924 100.019 199.313 99.6724 199.804 99.4271C200.305 99.1818 200.854 99.0591 201.452 99.0591ZM206.87 103.571C206.87 102.675 207.051 101.891 207.414 101.219C207.777 100.536 208.273 100.008 208.902 99.6351C209.542 99.2618 210.257 99.0751 211.046 99.0751C211.729 99.0751 212.363 99.2351 212.95 99.5551C213.537 99.8644 213.985 100.275 214.294 100.787V96.1471H215.766V107.987H214.294V106.339C214.006 106.862 213.579 107.294 213.014 107.635C212.449 107.966 211.787 108.131 211.03 108.131C210.251 108.131 209.542 107.939 208.902 107.555C208.273 107.171 207.777 106.632 207.414 105.939C207.051 105.246 206.87 104.456 206.87 103.571ZM214.294 103.587C214.294 102.926 214.161 102.35 213.894 101.859C213.627 101.368 213.265 100.995 212.806 100.739C212.358 100.472 211.862 100.339 211.318 100.339C210.774 100.339 210.278 100.467 209.83 100.723C209.382 100.979 209.025 101.352 208.758 101.843C208.491 102.334 208.358 102.91 208.358 103.571C208.358 104.243 208.491 104.83 208.758 105.331C209.025 105.822 209.382 106.2 209.83 106.467C210.278 106.723 210.774 106.851 211.318 106.851C211.862 106.851 212.358 106.723 212.806 106.467C213.265 106.2 213.627 105.822 213.894 105.331C214.161 104.83 214.294 104.248 214.294 103.587ZM221.948 102.403C221.948 101.315 222.193 100.339 222.684 99.4751C223.175 98.6004 223.841 97.9178 224.684 97.4271C225.537 96.9364 226.481 96.6911 227.516 96.6911C228.732 96.6911 229.793 96.9844 230.7 97.5711C231.607 98.1578 232.268 98.9898 232.684 100.067H230.94C230.631 99.3951 230.183 98.8778 229.596 98.5151C229.02 98.1524 228.327 97.9711 227.516 97.9711C226.737 97.9711 226.039 98.1524 225.42 98.5151C224.801 98.8778 224.316 99.3951 223.964 100.067C223.612 100.728 223.436 101.507 223.436 102.403C223.436 103.288 223.612 104.067 223.964 104.739C224.316 105.4 224.801 105.912 225.42 106.275C226.039 106.638 226.737 106.819 227.516 106.819C228.327 106.819 229.02 106.643 229.596 106.291C230.183 105.928 230.631 105.411 230.94 104.739H232.684C232.268 105.806 231.607 106.632 230.7 107.219C229.793 107.795 228.732 108.083 227.516 108.083C226.481 108.083 225.537 107.843 224.684 107.363C223.841 106.872 223.175 106.195 222.684 105.331C222.193 104.467 221.948 103.491 221.948 102.403ZM238.676 108.131C237.854 108.131 237.108 107.944 236.436 107.571C235.774 107.198 235.252 106.67 234.868 105.987C234.494 105.294 234.308 104.494 234.308 103.587C234.308 102.691 234.5 101.902 234.884 101.219C235.278 100.526 235.812 99.9978 236.484 99.6351C237.156 99.2618 237.908 99.0751 238.74 99.0751C239.572 99.0751 240.324 99.2618 240.996 99.6351C241.668 99.9978 242.196 100.52 242.58 101.203C242.974 101.886 243.172 102.68 243.172 103.587C243.172 104.494 242.969 105.294 242.564 105.987C242.169 106.67 241.63 107.198 240.948 107.571C240.265 107.944 239.508 108.131 238.676 108.131ZM238.676 106.851C239.198 106.851 239.689 106.728 240.148 106.483C240.606 106.238 240.974 105.87 241.252 105.379C241.54 104.888 241.684 104.291 241.684 103.587C241.684 102.883 241.545 102.286 241.268 101.795C240.99 101.304 240.628 100.942 240.18 100.707C239.732 100.462 239.246 100.339 238.724 100.339C238.19 100.339 237.7 100.462 237.252 100.707C236.814 100.942 236.462 101.304 236.196 101.795C235.929 102.286 235.796 102.883 235.796 103.587C235.796 104.302 235.924 104.904 236.18 105.395C236.446 105.886 236.798 106.254 237.236 106.499C237.673 106.734 238.153 106.851 238.676 106.851ZM255.63 99.0591C256.313 99.0591 256.921 99.2031 257.454 99.4911C257.987 99.7684 258.409 100.19 258.718 100.755C259.027 101.32 259.182 102.008 259.182 102.819V107.987H257.742V103.027C257.742 102.152 257.523 101.486 257.086 101.027C256.659 100.558 256.078 100.323 255.342 100.323C254.585 100.323 253.982 100.568 253.534 101.059C253.086 101.539 252.862 102.238 252.862 103.155V107.987H251.422V103.027C251.422 102.152 251.203 101.486 250.766 101.027C250.339 100.558 249.758 100.323 249.022 100.323C248.265 100.323 247.662 100.568 247.214 101.059C246.766 101.539 246.542 102.238 246.542 103.155V107.987H245.086V99.2191H246.542V100.483C246.83 100.024 247.214 99.6724 247.694 99.4271C248.185 99.1818 248.723 99.0591 249.31 99.0591C250.046 99.0591 250.697 99.2244 251.262 99.5551C251.827 99.8858 252.249 100.371 252.526 101.011C252.771 100.392 253.177 99.9124 253.742 99.5711C254.307 99.2298 254.937 99.0591 255.63 99.0591ZM263.026 100.835C263.314 100.334 263.741 99.9178 264.306 99.5871C264.882 99.2458 265.549 99.0751 266.306 99.0751C267.085 99.0751 267.789 99.2618 268.418 99.6351C269.058 100.008 269.56 100.536 269.922 101.219C270.285 101.891 270.466 102.675 270.466 103.571C270.466 104.456 270.285 105.246 269.922 105.939C269.56 106.632 269.058 107.171 268.418 107.555C267.789 107.939 267.085 108.131 266.306 108.131C265.56 108.131 264.898 107.966 264.322 107.635C263.757 107.294 263.325 106.872 263.026 106.371V112.147H261.57V99.2191H263.026V100.835ZM268.978 103.571C268.978 102.91 268.845 102.334 268.578 101.843C268.312 101.352 267.949 100.979 267.49 100.723C267.042 100.467 266.546 100.339 266.002 100.339C265.469 100.339 264.973 100.472 264.514 100.739C264.066 100.995 263.704 101.374 263.426 101.875C263.16 102.366 263.026 102.936 263.026 103.587C263.026 104.248 263.16 104.83 263.426 105.331C263.704 105.822 264.066 106.2 264.514 106.467C264.973 106.723 265.469 106.851 266.002 106.851C266.546 106.851 267.042 106.723 267.49 106.467C267.949 106.2 268.312 105.822 268.578 105.331C268.845 104.83 268.978 104.243 268.978 103.571ZM280.383 103.267C280.383 103.544 280.367 103.838 280.335 104.147H273.327C273.38 105.011 273.673 105.688 274.207 106.179C274.751 106.659 275.407 106.899 276.175 106.899C276.804 106.899 277.327 106.755 277.743 106.467C278.169 106.168 278.468 105.774 278.639 105.283H280.207C279.972 106.126 279.503 106.814 278.799 107.347C278.095 107.87 277.22 108.131 276.175 108.131C275.343 108.131 274.596 107.944 273.935 107.571C273.284 107.198 272.772 106.67 272.399 105.987C272.025 105.294 271.839 104.494 271.839 103.587C271.839 102.68 272.02 101.886 272.383 101.203C272.745 100.52 273.252 99.9978 273.903 99.6351C274.564 99.2618 275.321 99.0751 276.175 99.0751C277.007 99.0751 277.743 99.2564 278.383 99.6191C279.023 99.9818 279.513 100.483 279.855 101.123C280.207 101.752 280.383 102.467 280.383 103.267ZM278.879 102.963C278.879 102.408 278.756 101.934 278.511 101.539C278.265 101.134 277.929 100.83 277.503 100.627C277.087 100.414 276.623 100.307 276.111 100.307C275.375 100.307 274.745 100.542 274.223 101.011C273.711 101.48 273.417 102.131 273.343 102.963H278.879ZM284.081 100.419V105.587C284.081 106.014 284.171 106.318 284.353 106.499C284.534 106.67 284.849 106.755 285.297 106.755H286.369V107.987H285.057C284.246 107.987 283.638 107.8 283.233 107.427C282.827 107.054 282.625 106.44 282.625 105.587V100.419H281.489V99.2191H282.625V97.0111H284.081V99.2191H286.369V100.419H284.081ZM288.885 97.7951C288.607 97.7951 288.373 97.6991 288.181 97.5071C287.989 97.3151 287.893 97.0804 287.893 96.8031C287.893 96.5258 287.989 96.2911 288.181 96.0991C288.373 95.9071 288.607 95.8111 288.885 95.8111C289.151 95.8111 289.375 95.9071 289.557 96.0991C289.749 96.2911 289.845 96.5258 289.845 96.8031C289.845 97.0804 289.749 97.3151 289.557 97.5071C289.375 97.6991 289.151 97.7951 288.885 97.7951ZM289.589 99.2191V107.987H288.133V99.2191H289.589ZM293.846 100.419V105.587C293.846 106.014 293.937 106.318 294.118 106.499C294.3 106.67 294.614 106.755 295.062 106.755H296.134V107.987H294.822C294.012 107.987 293.404 107.8 292.998 107.427C292.593 107.054 292.39 106.44 292.39 105.587V100.419H291.254V99.2191H292.39V97.0111H293.846V99.2191H296.134V100.419H293.846ZM301.722 108.131C300.901 108.131 300.154 107.944 299.482 107.571C298.821 107.198 298.298 106.67 297.914 105.987C297.541 105.294 297.354 104.494 297.354 103.587C297.354 102.691 297.546 101.902 297.93 101.219C298.325 100.526 298.858 99.9978 299.53 99.6351C300.202 99.2618 300.954 99.0751 301.786 99.0751C302.618 99.0751 303.37 99.2618 304.042 99.6351C304.714 99.9978 305.242 100.52 305.626 101.203C306.021 101.886 306.218 102.68 306.218 103.587C306.218 104.494 306.016 105.294 305.61 105.987C305.216 106.67 304.677 107.198 303.994 107.571C303.312 107.944 302.554 108.131 301.722 108.131ZM301.722 106.851C302.245 106.851 302.736 106.728 303.194 106.483C303.653 106.238 304.021 105.87 304.298 105.379C304.586 104.888 304.73 104.291 304.73 103.587C304.73 102.883 304.592 102.286 304.314 101.795C304.037 101.304 303.674 100.942 303.226 100.707C302.778 100.462 302.293 100.339 301.77 100.339C301.237 100.339 300.746 100.462 300.298 100.707C299.861 100.942 299.509 101.304 299.242 101.795C298.976 102.286 298.842 102.883 298.842 103.587C298.842 104.302 298.97 104.904 299.226 105.395C299.493 105.886 299.845 106.254 300.282 106.499C300.72 106.734 301.2 106.851 301.722 106.851ZM309.589 100.643C309.845 100.142 310.207 99.7524 310.677 99.4751C311.157 99.1978 311.738 99.0591 312.421 99.0591V100.563H312.037C310.405 100.563 309.589 101.448 309.589 103.219V107.987H308.133V99.2191H309.589V100.643ZM317.206 108.131C316.534 108.131 315.931 108.019 315.398 107.795C314.864 107.56 314.443 107.24 314.134 106.835C313.824 106.419 313.654 105.944 313.622 105.411H315.126C315.168 105.848 315.371 106.206 315.734 106.483C316.107 106.76 316.592 106.899 317.19 106.899C317.744 106.899 318.182 106.776 318.502 106.531C318.822 106.286 318.982 105.976 318.982 105.603C318.982 105.219 318.811 104.936 318.47 104.755C318.128 104.563 317.6 104.376 316.886 104.195C316.235 104.024 315.702 103.854 315.286 103.683C314.88 103.502 314.528 103.24 314.23 102.899C313.942 102.547 313.798 102.088 313.798 101.523C313.798 101.075 313.931 100.664 314.198 100.291C314.464 99.9178 314.843 99.6244 315.334 99.4111C315.824 99.1871 316.384 99.0751 317.014 99.0751C317.984 99.0751 318.768 99.3204 319.366 99.8111C319.963 100.302 320.283 100.974 320.326 101.827H318.87C318.838 101.368 318.651 101 318.31 100.723C317.979 100.446 317.531 100.307 316.966 100.307C316.443 100.307 316.027 100.419 315.718 100.643C315.408 100.867 315.254 101.16 315.254 101.523C315.254 101.811 315.344 102.051 315.526 102.243C315.718 102.424 315.952 102.574 316.23 102.691C316.518 102.798 316.912 102.92 317.414 103.059C318.043 103.23 318.555 103.4 318.95 103.571C319.344 103.731 319.68 103.976 319.958 104.307C320.246 104.638 320.395 105.07 320.406 105.603C320.406 106.083 320.272 106.515 320.006 106.899C319.739 107.283 319.36 107.587 318.87 107.811C318.39 108.024 317.835 108.131 317.206 108.131Z" fill="black"/>
<circle cx="37.2052" cy="263" r="6" fill="#00B2EB"/>
<path d="M60.5516 270.684L57.8956 266.124H56.1356V270.684H54.6796V259.532H58.2796C59.1223 259.532 59.8316 259.676 60.4076 259.964C60.9943 260.252 61.4316 260.642 61.7196 261.132C62.0076 261.623 62.1516 262.183 62.1516 262.812C62.1516 263.58 61.9276 264.258 61.4796 264.844C61.0423 265.431 60.381 265.82 59.4956 266.012L62.2956 270.684H60.5516ZM56.1356 264.956H58.2796C59.069 264.956 59.661 264.764 60.0556 264.38C60.4503 263.986 60.6476 263.463 60.6476 262.812C60.6476 262.151 60.4503 261.639 60.0556 261.276C59.6716 260.914 59.0796 260.732 58.2796 260.732H56.1356V264.956ZM72.414 265.964C72.414 266.242 72.398 266.535 72.366 266.844H65.358C65.4113 267.708 65.7047 268.386 66.238 268.876C66.782 269.356 67.438 269.596 68.206 269.596C68.8353 269.596 69.358 269.452 69.774 269.164C70.2007 268.866 70.4993 268.471 70.67 267.98H72.238C72.0033 268.823 71.534 269.511 70.83 270.044C70.126 270.567 69.2513 270.828 68.206 270.828C67.374 270.828 66.6273 270.642 65.966 270.268C65.3153 269.895 64.8033 269.367 64.43 268.684C64.0567 267.991 63.87 267.191 63.87 266.284C63.87 265.378 64.0513 264.583 64.414 263.9C64.7767 263.218 65.2833 262.695 65.934 262.332C66.5953 261.959 67.3527 261.772 68.206 261.772C69.038 261.772 69.774 261.954 70.414 262.316C71.054 262.679 71.5447 263.18 71.886 263.82C72.238 264.45 72.414 265.164 72.414 265.964ZM70.91 265.66C70.91 265.106 70.7873 264.631 70.542 264.236C70.2967 263.831 69.9607 263.527 69.534 263.324C69.118 263.111 68.654 263.004 68.142 263.004C67.406 263.004 66.7767 263.239 66.254 263.708C65.742 264.178 65.4487 264.828 65.374 265.66H70.91ZM73.7919 266.268C73.7919 265.372 73.9732 264.588 74.3359 263.916C74.6986 263.234 75.1946 262.706 75.8239 262.332C76.4639 261.959 77.1786 261.772 77.9679 261.772C78.7252 261.772 79.3866 261.943 79.9519 262.284C80.5279 262.615 80.9492 263.026 81.2159 263.516V261.916H82.6879V274.844H81.2159V269.068C80.9386 269.559 80.5119 269.975 79.9359 270.316C79.3599 270.658 78.6879 270.828 77.9199 270.828C77.1519 270.828 76.4532 270.636 75.8239 270.252C75.1946 269.868 74.6986 269.33 74.3359 268.636C73.9732 267.943 73.7919 267.154 73.7919 266.268ZM81.2159 266.284C81.2159 265.623 81.0826 265.047 80.8159 264.556C80.5492 264.066 80.1866 263.692 79.7279 263.436C79.2799 263.17 78.7839 263.036 78.2399 263.036C77.6959 263.036 77.1999 263.164 76.7519 263.42C76.3039 263.676 75.9466 264.05 75.6799 264.54C75.4132 265.031 75.2799 265.607 75.2799 266.268C75.2799 266.94 75.4132 267.527 75.6799 268.028C75.9466 268.519 76.3039 268.898 76.7519 269.164C77.1999 269.42 77.6959 269.548 78.2399 269.548C78.7839 269.548 79.2799 269.42 79.7279 269.164C80.1866 268.898 80.5492 268.519 80.8159 268.028C81.0826 267.527 81.2159 266.946 81.2159 266.284ZM92.9244 261.916V270.684H91.4684V269.388C91.1911 269.836 90.8017 270.188 90.3004 270.444C89.8097 270.69 89.2657 270.812 88.6684 270.812C87.9857 270.812 87.3724 270.674 86.8284 270.396C86.2844 270.108 85.8524 269.682 85.5324 269.116C85.2231 268.551 85.0684 267.863 85.0684 267.052V261.916H86.5084V266.86C86.5084 267.724 86.7271 268.391 87.1644 268.86C87.6017 269.319 88.1991 269.548 88.9564 269.548C89.7351 269.548 90.3484 269.308 90.7964 268.828C91.2444 268.348 91.4684 267.65 91.4684 266.732V261.916H92.9244ZM96.1348 260.492C95.8574 260.492 95.6228 260.396 95.4308 260.204C95.2388 260.012 95.1428 259.778 95.1428 259.5C95.1428 259.223 95.2388 258.988 95.4308 258.796C95.6228 258.604 95.8574 258.508 96.1348 258.508C96.4014 258.508 96.6254 258.604 96.8068 258.796C96.9988 258.988 97.0948 259.223 97.0948 259.5C97.0948 259.778 96.9988 260.012 96.8068 260.204C96.6254 260.396 96.4014 260.492 96.1348 260.492ZM96.8388 261.916V270.684H95.3828V261.916H96.8388ZM100.776 263.34C101.032 262.839 101.395 262.45 101.864 262.172C102.344 261.895 102.926 261.756 103.608 261.756V263.26H103.224C101.592 263.26 100.776 264.146 100.776 265.916V270.684H99.3203V261.916H100.776V263.34ZM113.289 265.964C113.289 266.242 113.273 266.535 113.241 266.844H106.233C106.286 267.708 106.58 268.386 107.113 268.876C107.657 269.356 108.313 269.596 109.081 269.596C109.71 269.596 110.233 269.452 110.649 269.164C111.076 268.866 111.374 268.471 111.545 267.98H113.113C112.878 268.823 112.409 269.511 111.705 270.044C111.001 270.567 110.126 270.828 109.081 270.828C108.249 270.828 107.502 270.642 106.841 270.268C106.19 269.895 105.678 269.367 105.305 268.684C104.932 267.991 104.745 267.191 104.745 266.284C104.745 265.378 104.926 264.583 105.289 263.9C105.652 263.218 106.158 262.695 106.809 262.332C107.47 261.959 108.228 261.772 109.081 261.772C109.913 261.772 110.649 261.954 111.289 262.316C111.929 262.679 112.42 263.18 112.761 263.82C113.113 264.45 113.289 265.164 113.289 265.964ZM111.785 265.66C111.785 265.106 111.662 264.631 111.417 264.236C111.172 263.831 110.836 263.527 110.409 263.324C109.993 263.111 109.529 263.004 109.017 263.004C108.281 263.004 107.652 263.239 107.129 263.708C106.617 264.178 106.324 264.828 106.249 265.66H111.785ZM125.755 261.756C126.438 261.756 127.046 261.9 127.579 262.188C128.112 262.466 128.534 262.887 128.843 263.452C129.152 264.018 129.307 264.706 129.307 265.516V270.684H127.867V265.724C127.867 264.85 127.648 264.183 127.211 263.724C126.784 263.255 126.203 263.02 125.467 263.02C124.71 263.02 124.107 263.266 123.659 263.756C123.211 264.236 122.987 264.935 122.987 265.852V270.684H121.547V265.724C121.547 264.85 121.328 264.183 120.891 263.724C120.464 263.255 119.883 263.02 119.147 263.02C118.39 263.02 117.787 263.266 117.339 263.756C116.891 264.236 116.667 264.935 116.667 265.852V270.684H115.211V261.916H116.667V263.18C116.955 262.722 117.339 262.37 117.819 262.124C118.31 261.879 118.848 261.756 119.435 261.756C120.171 261.756 120.822 261.922 121.387 262.252C121.952 262.583 122.374 263.068 122.651 263.708C122.896 263.09 123.302 262.61 123.867 262.268C124.432 261.927 125.062 261.756 125.755 261.756ZM139.695 265.964C139.695 266.242 139.679 266.535 139.647 266.844H132.639C132.693 267.708 132.986 268.386 133.519 268.876C134.063 269.356 134.719 269.596 135.487 269.596C136.117 269.596 136.639 269.452 137.055 269.164C137.482 268.866 137.781 268.471 137.951 267.98H139.519C139.285 268.823 138.815 269.511 138.111 270.044C137.407 270.567 136.533 270.828 135.487 270.828C134.655 270.828 133.909 270.642 133.247 270.268C132.597 269.895 132.085 269.367 131.711 268.684C131.338 267.991 131.151 267.191 131.151 266.284C131.151 265.378 131.333 264.583 131.695 263.9C132.058 263.218 132.565 262.695 133.215 262.332C133.877 261.959 134.634 261.772 135.487 261.772C136.319 261.772 137.055 261.954 137.695 262.316C138.335 262.679 138.826 263.18 139.167 263.82C139.519 264.45 139.695 265.164 139.695 265.964ZM138.191 265.66C138.191 265.106 138.069 264.631 137.823 264.236C137.578 263.831 137.242 263.527 136.815 263.324C136.399 263.111 135.935 263.004 135.423 263.004C134.687 263.004 134.058 263.239 133.535 263.708C133.023 264.178 132.73 264.828 132.655 265.66H138.191ZM145.889 261.756C146.956 261.756 147.82 262.082 148.481 262.732C149.142 263.372 149.473 264.3 149.473 265.516V270.684H148.033V265.724C148.033 264.85 147.814 264.183 147.377 263.724C146.94 263.255 146.342 263.02 145.585 263.02C144.817 263.02 144.204 263.26 143.745 263.74C143.297 264.22 143.073 264.919 143.073 265.836V270.684H141.617V261.916H143.073V263.164C143.361 262.716 143.75 262.37 144.241 262.124C144.742 261.879 145.292 261.756 145.889 261.756ZM153.628 263.116V268.284C153.628 268.711 153.718 269.015 153.9 269.196C154.081 269.367 154.396 269.452 154.844 269.452H155.916V270.684H154.604C153.793 270.684 153.185 270.498 152.78 270.124C152.374 269.751 152.172 269.138 152.172 268.284V263.116H151.036V261.916H152.172V259.708H153.628V261.916H155.916V263.116H153.628ZM160.784 270.828C160.112 270.828 159.509 270.716 158.976 270.492C158.442 270.258 158.021 269.938 157.712 269.532C157.402 269.116 157.232 268.642 157.2 268.108H158.704C158.746 268.546 158.949 268.903 159.312 269.18C159.685 269.458 160.17 269.596 160.768 269.596C161.322 269.596 161.76 269.474 162.08 269.228C162.4 268.983 162.56 268.674 162.56 268.3C162.56 267.916 162.389 267.634 162.048 267.452C161.706 267.26 161.178 267.074 160.464 266.892C159.813 266.722 159.28 266.551 158.864 266.38C158.458 266.199 158.106 265.938 157.808 265.596C157.52 265.244 157.376 264.786 157.376 264.22C157.376 263.772 157.509 263.362 157.776 262.988C158.042 262.615 158.421 262.322 158.912 262.108C159.402 261.884 159.962 261.772 160.592 261.772C161.562 261.772 162.346 262.018 162.944 262.508C163.541 262.999 163.861 263.671 163.904 264.524H162.448C162.416 264.066 162.229 263.698 161.888 263.42C161.557 263.143 161.109 263.004 160.544 263.004C160.021 263.004 159.605 263.116 159.296 263.34C158.986 263.564 158.832 263.858 158.832 264.22C158.832 264.508 158.922 264.748 159.104 264.94C159.296 265.122 159.53 265.271 159.808 265.388C160.096 265.495 160.49 265.618 160.992 265.756C161.621 265.927 162.133 266.098 162.528 266.268C162.922 266.428 163.258 266.674 163.536 267.004C163.824 267.335 163.973 267.767 163.984 268.3C163.984 268.78 163.85 269.212 163.584 269.596C163.317 269.98 162.938 270.284 162.448 270.508C161.968 270.722 161.413 270.828 160.784 270.828Z" fill="black"/>
<circle cx="37.2052" cy="210" r="6" fill="#00B2EB"/>
<path d="M56.1036 205.3V212.356C56.1036 213.348 56.3436 214.084 56.8236 214.564C57.3143 215.044 57.9916 215.284 58.8556 215.284C59.709 215.284 60.3756 215.044 60.8556 214.564C61.3463 214.084 61.5916 213.348 61.5916 212.356V205.3H63.0476V212.34C63.0476 213.268 62.861 214.052 62.4876 214.692C62.1143 215.321 61.6076 215.791 60.9676 216.1C60.3383 216.409 59.629 216.564 58.8396 216.564C58.0503 216.564 57.3356 216.409 56.6956 216.1C56.0663 215.791 55.565 215.321 55.1916 214.692C54.829 214.052 54.6476 213.268 54.6476 212.34V205.3H56.1036ZM68.5805 216.596C67.9085 216.596 67.3058 216.484 66.7725 216.26C66.2392 216.025 65.8178 215.705 65.5085 215.3C65.1992 214.884 65.0285 214.409 64.9965 213.876H66.5005C66.5432 214.313 66.7458 214.671 67.1085 214.948C67.4818 215.225 67.9672 215.364 68.5645 215.364C69.1192 215.364 69.5565 215.241 69.8765 214.996C70.1965 214.751 70.3565 214.441 70.3565 214.068C70.3565 213.684 70.1858 213.401 69.8445 213.22C69.5032 213.028 68.9752 212.841 68.2605 212.66C67.6098 212.489 67.0765 212.319 66.6605 212.148C66.2552 211.967 65.9032 211.705 65.6045 211.364C65.3165 211.012 65.1725 210.553 65.1725 209.988C65.1725 209.54 65.3058 209.129 65.5725 208.756C65.8392 208.383 66.2178 208.089 66.7085 207.876C67.1992 207.652 67.7592 207.54 68.3885 207.54C69.3592 207.54 70.1432 207.785 70.7405 208.276C71.3378 208.767 71.6578 209.439 71.7005 210.292H70.2445C70.2125 209.833 70.0258 209.465 69.6845 209.188C69.3538 208.911 68.9058 208.772 68.3405 208.772C67.8178 208.772 67.4018 208.884 67.0925 209.108C66.7832 209.332 66.6285 209.625 66.6285 209.988C66.6285 210.276 66.7192 210.516 66.9005 210.708C67.0925 210.889 67.3272 211.039 67.6045 211.156C67.8925 211.263 68.2872 211.385 68.7885 211.524C69.4178 211.695 69.9298 211.865 70.3245 212.036C70.7192 212.196 71.0552 212.441 71.3325 212.772C71.6205 213.103 71.7698 213.535 71.7805 214.068C71.7805 214.548 71.6472 214.98 71.3805 215.364C71.1138 215.748 70.7352 216.052 70.2445 216.276C69.7645 216.489 69.2098 216.596 68.5805 216.596ZM81.8359 211.732C81.8359 212.009 81.8199 212.303 81.7879 212.612H74.7799C74.8332 213.476 75.1266 214.153 75.6599 214.644C76.2039 215.124 76.8599 215.364 77.6279 215.364C78.2572 215.364 78.7799 215.22 79.1959 214.932C79.6226 214.633 79.9212 214.239 80.0919 213.748H81.6599C81.4252 214.591 80.9559 215.279 80.2519 215.812C79.5479 216.335 78.6732 216.596 77.6279 216.596C76.7959 216.596 76.0492 216.409 75.3879 216.036C74.7372 215.663 74.2252 215.135 73.8519 214.452C73.4786 213.759 73.2919 212.959 73.2919 212.052C73.2919 211.145 73.4732 210.351 73.8359 209.668C74.1986 208.985 74.7052 208.463 75.3559 208.1C76.0172 207.727 76.7746 207.54 77.6279 207.54C78.4599 207.54 79.1959 207.721 79.8359 208.084C80.4759 208.447 80.9666 208.948 81.3079 209.588C81.6599 210.217 81.8359 210.932 81.8359 211.732ZM80.3319 211.428C80.3319 210.873 80.2092 210.399 79.9639 210.004C79.7186 209.599 79.3826 209.295 78.9559 209.092C78.5399 208.879 78.0759 208.772 77.5639 208.772C76.8279 208.772 76.1986 209.007 75.6759 209.476C75.1639 209.945 74.8706 210.596 74.7959 211.428H80.3319ZM85.2138 209.108C85.4698 208.607 85.8324 208.217 86.3018 207.94C86.7818 207.663 87.3631 207.524 88.0458 207.524V209.028H87.6618C86.0298 209.028 85.2138 209.913 85.2138 211.684V216.452H83.7578V207.684H85.2138V209.108ZM101.448 208.564C101.448 209.492 101.128 210.265 100.488 210.884C99.8588 211.492 98.8935 211.796 97.5921 211.796H95.4481V216.452H93.9921V205.3H97.5921C98.8508 205.3 99.8055 205.604 100.456 206.212C101.117 206.82 101.448 207.604 101.448 208.564ZM97.5921 210.596C98.4028 210.596 99.0001 210.42 99.3841 210.068C99.7681 209.716 99.9601 209.215 99.9601 208.564C99.9601 207.188 99.1708 206.5 97.5921 206.5H95.4481V210.596H97.5921ZM111.258 211.732C111.258 212.009 111.242 212.303 111.21 212.612H104.202C104.255 213.476 104.548 214.153 105.082 214.644C105.626 215.124 106.282 215.364 107.05 215.364C107.679 215.364 108.202 215.22 108.618 214.932C109.044 214.633 109.343 214.239 109.514 213.748H111.082C110.847 214.591 110.378 215.279 109.674 215.812C108.97 216.335 108.095 216.596 107.05 216.596C106.218 216.596 105.471 216.409 104.81 216.036C104.159 215.663 103.647 215.135 103.274 214.452C102.9 213.759 102.714 212.959 102.714 212.052C102.714 211.145 102.895 210.351 103.258 209.668C103.62 208.985 104.127 208.463 104.778 208.1C105.439 207.727 106.196 207.54 107.05 207.54C107.882 207.54 108.618 207.721 109.258 208.084C109.898 208.447 110.388 208.948 110.73 209.588C111.082 210.217 111.258 210.932 111.258 211.732ZM109.754 211.428C109.754 210.873 109.631 210.399 109.386 210.004C109.14 209.599 108.804 209.295 108.378 209.092C107.962 208.879 107.498 208.772 106.986 208.772C106.25 208.772 105.62 209.007 105.098 209.476C104.586 209.945 104.292 210.596 104.218 211.428H109.754ZM114.636 209.108C114.892 208.607 115.254 208.217 115.724 207.94C116.204 207.663 116.785 207.524 117.468 207.524V209.028H117.084C115.452 209.028 114.636 209.913 114.636 211.684V216.452H113.18V207.684H114.636V209.108ZM122.252 216.596C121.58 216.596 120.978 216.484 120.444 216.26C119.911 216.025 119.49 215.705 119.18 215.3C118.871 214.884 118.7 214.409 118.668 213.876H120.172C120.215 214.313 120.418 214.671 120.78 214.948C121.154 215.225 121.639 215.364 122.236 215.364C122.791 215.364 123.228 215.241 123.548 214.996C123.868 214.751 124.028 214.441 124.028 214.068C124.028 213.684 123.858 213.401 123.516 213.22C123.175 213.028 122.647 212.841 121.932 212.66C121.282 212.489 120.748 212.319 120.332 212.148C119.927 211.967 119.575 211.705 119.276 211.364C118.988 211.012 118.844 210.553 118.844 209.988C118.844 209.54 118.978 209.129 119.244 208.756C119.511 208.383 119.89 208.089 120.38 207.876C120.871 207.652 121.431 207.54 122.06 207.54C123.031 207.54 123.815 207.785 124.412 208.276C125.01 208.767 125.33 209.439 125.372 210.292H123.916C123.884 209.833 123.698 209.465 123.356 209.188C123.026 208.911 122.578 208.772 122.012 208.772C121.49 208.772 121.074 208.884 120.764 209.108C120.455 209.332 120.3 209.625 120.3 209.988C120.3 210.276 120.391 210.516 120.572 210.708C120.764 210.889 120.999 211.039 121.276 211.156C121.564 211.263 121.959 211.385 122.46 211.524C123.09 211.695 123.602 211.865 123.996 212.036C124.391 212.196 124.727 212.441 125.004 212.772C125.292 213.103 125.442 213.535 125.452 214.068C125.452 214.548 125.319 214.98 125.052 215.364C124.786 215.748 124.407 216.052 123.916 216.276C123.436 216.489 122.882 216.596 122.252 216.596ZM131.332 216.596C130.51 216.596 129.764 216.409 129.092 216.036C128.43 215.663 127.908 215.135 127.524 214.452C127.15 213.759 126.964 212.959 126.964 212.052C126.964 211.156 127.156 210.367 127.54 209.684C127.934 208.991 128.468 208.463 129.14 208.1C129.812 207.727 130.564 207.54 131.396 207.54C132.228 207.54 132.98 207.727 133.652 208.1C134.324 208.463 134.852 208.985 135.236 209.668C135.63 210.351 135.828 211.145 135.828 212.052C135.828 212.959 135.625 213.759 135.22 214.452C134.825 215.135 134.286 215.663 133.604 216.036C132.921 216.409 132.164 216.596 131.332 216.596ZM131.332 215.316C131.854 215.316 132.345 215.193 132.804 214.948C133.262 214.703 133.63 214.335 133.908 213.844C134.196 213.353 134.34 212.756 134.34 212.052C134.34 211.348 134.201 210.751 133.924 210.26C133.646 209.769 133.284 209.407 132.836 209.172C132.388 208.927 131.902 208.804 131.38 208.804C130.846 208.804 130.356 208.927 129.908 209.172C129.47 209.407 129.118 209.769 128.852 210.26C128.585 210.751 128.452 211.348 128.452 212.052C128.452 212.767 128.58 213.369 128.836 213.86C129.102 214.351 129.454 214.719 129.892 214.964C130.329 215.199 130.809 215.316 131.332 215.316ZM142.014 207.524C143.081 207.524 143.945 207.849 144.606 208.5C145.267 209.14 145.598 210.068 145.598 211.284V216.452H144.158V211.492C144.158 210.617 143.939 209.951 143.502 209.492C143.065 209.023 142.467 208.788 141.71 208.788C140.942 208.788 140.329 209.028 139.87 209.508C139.422 209.988 139.198 210.687 139.198 211.604V216.452H137.742V207.684H139.198V208.932C139.486 208.484 139.875 208.137 140.366 207.892C140.867 207.647 141.417 207.524 142.014 207.524ZM147.433 212.036C147.433 211.14 147.614 210.356 147.977 209.684C148.339 209.001 148.835 208.473 149.465 208.1C150.105 207.727 150.814 207.54 151.593 207.54C152.361 207.54 153.027 207.705 153.593 208.036C154.158 208.367 154.579 208.783 154.857 209.284V207.684H156.329V216.452H154.857V214.82C154.569 215.332 154.137 215.759 153.561 216.1C152.995 216.431 152.334 216.596 151.577 216.596C150.798 216.596 150.094 216.404 149.465 216.02C148.835 215.636 148.339 215.097 147.977 214.404C147.614 213.711 147.433 212.921 147.433 212.036ZM154.857 212.052C154.857 211.391 154.723 210.815 154.457 210.324C154.19 209.833 153.827 209.46 153.369 209.204C152.921 208.937 152.425 208.804 151.881 208.804C151.337 208.804 150.841 208.932 150.393 209.188C149.945 209.444 149.587 209.817 149.321 210.308C149.054 210.799 148.921 211.375 148.921 212.036C148.921 212.708 149.054 213.295 149.321 213.796C149.587 214.287 149.945 214.665 150.393 214.932C150.841 215.188 151.337 215.316 151.881 215.316C152.425 215.316 152.921 215.188 153.369 214.932C153.827 214.665 154.19 214.287 154.457 213.796C154.723 213.295 154.857 212.713 154.857 212.052ZM161.893 216.596C161.221 216.596 160.618 216.484 160.085 216.26C159.552 216.025 159.13 215.705 158.821 215.3C158.512 214.884 158.341 214.409 158.309 213.876H159.813C159.856 214.313 160.058 214.671 160.421 214.948C160.794 215.225 161.28 215.364 161.877 215.364C162.432 215.364 162.869 215.241 163.189 214.996C163.509 214.751 163.669 214.441 163.669 214.068C163.669 213.684 163.498 213.401 163.157 213.22C162.816 213.028 162.288 212.841 161.573 212.66C160.922 212.489 160.389 212.319 159.973 212.148C159.568 211.967 159.216 211.705 158.917 211.364C158.629 211.012 158.485 210.553 158.485 209.988C158.485 209.54 158.618 209.129 158.885 208.756C159.152 208.383 159.53 208.089 160.021 207.876C160.512 207.652 161.072 207.54 161.701 207.54C162.672 207.54 163.456 207.785 164.053 208.276C164.65 208.767 164.97 209.439 165.013 210.292H163.557C163.525 209.833 163.338 209.465 162.997 209.188C162.666 208.911 162.218 208.772 161.653 208.772C161.13 208.772 160.714 208.884 160.405 209.108C160.096 209.332 159.941 209.625 159.941 209.988C159.941 210.276 160.032 210.516 160.213 210.708C160.405 210.889 160.64 211.039 160.917 211.156C161.205 211.263 161.6 211.385 162.101 211.524C162.73 211.695 163.242 211.865 163.637 212.036C164.032 212.196 164.368 212.441 164.645 212.772C164.933 213.103 165.082 213.535 165.093 214.068C165.093 214.548 164.96 214.98 164.693 215.364C164.426 215.748 164.048 216.052 163.557 216.276C163.077 216.489 162.522 216.596 161.893 216.596Z" fill="black"/>
<circle cx="37.2052" cy="157" r="6" fill="#00B2EB"/>
<path d="M64.8173 162.22L62.1613 157.66H60.4013V162.22H58.9453V151.068H62.5453C63.3879 151.068 64.0973 151.212 64.6733 151.5C65.2599 151.788 65.6973 152.177 65.9853 152.668C66.2733 153.158 66.4173 153.718 66.4173 154.348C66.4173 155.116 66.1933 155.793 65.7453 156.38C65.3079 156.966 64.6466 157.356 63.7613 157.548L66.5613 162.22H64.8173ZM60.4013 156.492H62.5453C63.3346 156.492 63.9266 156.3 64.3213 155.916C64.7159 155.521 64.9133 154.998 64.9133 154.348C64.9133 153.686 64.7159 153.174 64.3213 152.812C63.9373 152.449 63.3453 152.268 62.5453 152.268H60.4013V156.492ZM76.6796 157.5C76.6796 157.777 76.6636 158.07 76.6316 158.38H69.6236C69.677 159.244 69.9703 159.921 70.5036 160.412C71.0476 160.892 71.7036 161.132 72.4716 161.132C73.101 161.132 73.6236 160.988 74.0396 160.7C74.4663 160.401 74.765 160.006 74.9356 159.516H76.5036C76.269 160.358 75.7996 161.046 75.0956 161.58C74.3916 162.102 73.517 162.364 72.4716 162.364C71.6396 162.364 70.893 162.177 70.2316 161.804C69.581 161.43 69.069 160.902 68.6956 160.22C68.3223 159.526 68.1356 158.726 68.1356 157.82C68.1356 156.913 68.317 156.118 68.6796 155.436C69.0423 154.753 69.549 154.23 70.1996 153.868C70.861 153.494 71.6183 153.308 72.4716 153.308C73.3036 153.308 74.0396 153.489 74.6796 153.852C75.3196 154.214 75.8103 154.716 76.1516 155.356C76.5036 155.985 76.6796 156.7 76.6796 157.5ZM75.1756 157.196C75.1756 156.641 75.053 156.166 74.8076 155.772C74.5623 155.366 74.2263 155.062 73.7996 154.86C73.3836 154.646 72.9196 154.54 72.4076 154.54C71.6716 154.54 71.0423 154.774 70.5196 155.244C70.0076 155.713 69.7143 156.364 69.6396 157.196H75.1756ZM81.8655 160.876L84.5855 153.452H86.1375L82.6975 162.22H81.0015L77.5615 153.452H79.1295L81.8655 160.876ZM95.5703 157.5C95.5703 157.777 95.5543 158.07 95.5223 158.38H88.5143C88.5676 159.244 88.8609 159.921 89.3943 160.412C89.9383 160.892 90.5943 161.132 91.3623 161.132C91.9916 161.132 92.5143 160.988 92.9303 160.7C93.3569 160.401 93.6556 160.006 93.8263 159.516H95.3943C95.1596 160.358 94.6903 161.046 93.9863 161.58C93.2823 162.102 92.4076 162.364 91.3623 162.364C90.5303 162.364 89.7836 162.177 89.1223 161.804C88.4716 161.43 87.9596 160.902 87.5863 160.22C87.2129 159.526 87.0263 158.726 87.0263 157.82C87.0263 156.913 87.2076 156.118 87.5703 155.436C87.9329 154.753 88.4396 154.23 89.0903 153.868C89.7516 153.494 90.5089 153.308 91.3623 153.308C92.1943 153.308 92.9303 153.489 93.5703 153.852C94.2103 154.214 94.7009 154.716 95.0423 155.356C95.3943 155.985 95.5703 156.7 95.5703 157.5ZM94.0663 157.196C94.0663 156.641 93.9436 156.166 93.6983 155.772C93.4529 155.366 93.1169 155.062 92.6903 154.86C92.2743 154.646 91.8103 154.54 91.2983 154.54C90.5623 154.54 89.9329 154.774 89.4103 155.244C88.8983 155.713 88.6049 156.364 88.5303 157.196H94.0663ZM101.764 153.292C102.831 153.292 103.695 153.617 104.356 154.268C105.017 154.908 105.348 155.836 105.348 157.052V162.22H103.908V157.26C103.908 156.385 103.689 155.718 103.252 155.26C102.815 154.79 102.217 154.556 101.46 154.556C100.692 154.556 100.079 154.796 99.6201 155.276C99.1721 155.756 98.9481 156.454 98.9481 157.372V162.22H97.4921V153.452H98.9481V154.7C99.2361 154.252 99.6255 153.905 100.116 153.66C100.617 153.414 101.167 153.292 101.764 153.292ZM115.503 153.452V162.22H114.047V160.924C113.769 161.372 113.38 161.724 112.879 161.98C112.388 162.225 111.844 162.348 111.247 162.348C110.564 162.348 109.951 162.209 109.407 161.932C108.863 161.644 108.431 161.217 108.111 160.652C107.801 160.086 107.647 159.398 107.647 158.588V153.452H109.087V158.396C109.087 159.26 109.305 159.926 109.743 160.396C110.18 160.854 110.777 161.084 111.535 161.084C112.313 161.084 112.927 160.844 113.375 160.364C113.823 159.884 114.047 159.185 114.047 158.268V153.452H115.503ZM125.961 157.5C125.961 157.777 125.945 158.07 125.913 158.38H118.905C118.958 159.244 119.252 159.921 119.785 160.412C120.329 160.892 120.985 161.132 121.753 161.132C122.382 161.132 122.905 160.988 123.321 160.7C123.748 160.401 124.046 160.006 124.217 159.516H125.785C125.55 160.358 125.081 161.046 124.377 161.58C123.673 162.102 122.798 162.364 121.753 162.364C120.921 162.364 120.174 162.177 119.513 161.804C118.862 161.43 118.35 160.902 117.977 160.22C117.604 159.526 117.417 158.726 117.417 157.82C117.417 156.913 117.598 156.118 117.961 155.436C118.324 154.753 118.83 154.23 119.481 153.868C120.142 153.494 120.9 153.308 121.753 153.308C122.585 153.308 123.321 153.489 123.961 153.852C124.601 154.214 125.092 154.716 125.433 155.356C125.785 155.985 125.961 156.7 125.961 157.5ZM124.457 157.196C124.457 156.641 124.334 156.166 124.089 155.772C123.844 155.366 123.508 155.062 123.081 154.86C122.665 154.646 122.201 154.54 121.689 154.54C120.953 154.54 120.324 154.774 119.801 155.244C119.289 155.713 118.996 156.364 118.921 157.196H124.457ZM143.46 151.148V162.22H142.004V153.964L138.324 162.22H137.3L133.604 153.948V162.22H132.148V151.148H133.716L137.812 160.3L141.908 151.148H143.46ZM149.754 162.364C148.932 162.364 148.186 162.177 147.514 161.804C146.852 161.43 146.33 160.902 145.946 160.22C145.572 159.526 145.386 158.726 145.386 157.82C145.386 156.924 145.578 156.134 145.962 155.452C146.356 154.758 146.89 154.23 147.562 153.868C148.234 153.494 148.986 153.308 149.818 153.308C150.65 153.308 151.402 153.494 152.074 153.868C152.746 154.23 153.274 154.753 153.658 155.436C154.052 156.118 154.25 156.913 154.25 157.82C154.25 158.726 154.047 159.526 153.642 160.22C153.247 160.902 152.708 161.43 152.026 161.804C151.343 162.177 150.586 162.364 149.754 162.364ZM149.754 161.084C150.276 161.084 150.767 160.961 151.226 160.716C151.684 160.47 152.052 160.102 152.33 159.612C152.618 159.121 152.762 158.524 152.762 157.82C152.762 157.116 152.623 156.518 152.346 156.028C152.068 155.537 151.706 155.174 151.258 154.94C150.81 154.694 150.324 154.572 149.802 154.572C149.268 154.572 148.778 154.694 148.33 154.94C147.892 155.174 147.54 155.537 147.274 156.028C147.007 156.518 146.874 157.116 146.874 157.82C146.874 158.534 147.002 159.137 147.258 159.628C147.524 160.118 147.876 160.486 148.314 160.732C148.751 160.966 149.231 161.084 149.754 161.084ZM155.62 157.804C155.62 156.908 155.801 156.124 156.164 155.452C156.527 154.769 157.023 154.241 157.652 153.868C158.292 153.494 159.007 153.308 159.796 153.308C160.479 153.308 161.113 153.468 161.7 153.788C162.287 154.097 162.735 154.508 163.044 155.02V150.38H164.516V162.22H163.044V160.572C162.756 161.094 162.329 161.526 161.764 161.868C161.199 162.198 160.537 162.364 159.78 162.364C159.001 162.364 158.292 162.172 157.652 161.788C157.023 161.404 156.527 160.865 156.164 160.172C155.801 159.478 155.62 158.689 155.62 157.804ZM163.044 157.82C163.044 157.158 162.911 156.582 162.644 156.092C162.377 155.601 162.015 155.228 161.556 154.972C161.108 154.705 160.612 154.572 160.068 154.572C159.524 154.572 159.028 154.7 158.58 154.956C158.132 155.212 157.775 155.585 157.508 156.076C157.241 156.566 157.108 157.142 157.108 157.804C157.108 158.476 157.241 159.062 157.508 159.564C157.775 160.054 158.132 160.433 158.58 160.7C159.028 160.956 159.524 161.084 160.068 161.084C160.612 161.084 161.108 160.956 161.556 160.7C162.015 160.433 162.377 160.054 162.644 159.564C162.911 159.062 163.044 158.481 163.044 157.82ZM174.977 157.5C174.977 157.777 174.961 158.07 174.929 158.38H167.921C167.974 159.244 168.267 159.921 168.801 160.412C169.345 160.892 170.001 161.132 170.769 161.132C171.398 161.132 171.921 160.988 172.337 160.7C172.763 160.401 173.062 160.006 173.233 159.516H174.801C174.566 160.358 174.097 161.046 173.393 161.58C172.689 162.102 171.814 162.364 170.769 162.364C169.937 162.364 169.19 162.177 168.529 161.804C167.878 161.43 167.366 160.902 166.993 160.22C166.619 159.526 166.433 158.726 166.433 157.82C166.433 156.913 166.614 156.118 166.977 155.436C167.339 154.753 167.846 154.23 168.497 153.868C169.158 153.494 169.915 153.308 170.769 153.308C171.601 153.308 172.337 153.489 172.977 153.852C173.617 154.214 174.107 154.716 174.449 155.356C174.801 155.985 174.977 156.7 174.977 157.5ZM173.473 157.196C173.473 156.641 173.35 156.166 173.105 155.772C172.859 155.366 172.523 155.062 172.097 154.86C171.681 154.646 171.217 154.54 170.705 154.54C169.969 154.54 169.339 154.774 168.817 155.244C168.305 155.713 168.011 156.364 167.937 157.196H173.473ZM178.354 150.38V162.22H176.898V150.38H178.354Z" fill="black"/>
<circle cx="37.2052" cy="316" r="6" fill="#00B2EB"/>
<path d="M65.9916 313.845V324.917H64.5356V316.661L60.8556 324.917H59.8316L56.1356 316.645V324.917H54.6796V313.845H56.2476L60.3436 322.997L64.4396 313.845H65.9916ZM77.6769 313.765L73.4689 324.917H71.7889L67.5809 313.765H69.1329L72.6369 323.381L76.1409 313.765H77.6769ZM86.7294 317.029C86.7294 317.957 86.4094 318.73 85.7694 319.349C85.1401 319.957 84.1747 320.261 82.8734 320.261H80.7294V324.917H79.2734V313.765H82.8734C84.1321 313.765 85.0867 314.069 85.7374 314.677C86.3987 315.285 86.7294 316.069 86.7294 317.029ZM82.8734 319.061C83.6841 319.061 84.2814 318.885 84.6654 318.533C85.0494 318.181 85.2414 317.679 85.2414 317.029C85.2414 315.653 84.4521 314.965 82.8734 314.965H80.7294V319.061H82.8734ZM93.979 309.845L89.595 327.637H88.155L92.523 309.845H93.979ZM103.604 317.029C103.604 317.957 103.284 318.73 102.644 319.349C102.015 319.957 101.05 320.261 99.7484 320.261H97.6044V324.917H96.1484V313.765H99.7484C101.007 313.765 101.962 314.069 102.612 314.677C103.274 315.285 103.604 316.069 103.604 317.029ZM99.7484 319.061C100.559 319.061 101.156 318.885 101.54 318.533C101.924 318.181 102.116 317.679 102.116 317.029C102.116 315.653 101.327 314.965 99.7484 314.965H97.6044V319.061H99.7484ZM110.47 325.029C109.435 325.029 108.491 324.789 107.638 324.309C106.785 323.818 106.107 323.141 105.606 322.277C105.115 321.402 104.87 320.421 104.87 319.333C104.87 318.245 105.115 317.269 105.606 316.405C106.107 315.53 106.785 314.853 107.638 314.373C108.491 313.882 109.435 313.637 110.47 313.637C111.515 313.637 112.465 313.882 113.318 314.373C114.171 314.853 114.843 315.525 115.334 316.389C115.825 317.253 116.07 318.234 116.07 319.333C116.07 320.431 115.825 321.413 115.334 322.277C114.843 323.141 114.171 323.818 113.318 324.309C112.465 324.789 111.515 325.029 110.47 325.029ZM110.47 323.765C111.249 323.765 111.947 323.583 112.566 323.221C113.195 322.858 113.686 322.341 114.038 321.669C114.401 320.997 114.582 320.218 114.582 319.333C114.582 318.437 114.401 317.658 114.038 316.997C113.686 316.325 113.201 315.807 112.582 315.445C111.963 315.082 111.259 314.901 110.47 314.901C109.681 314.901 108.977 315.082 108.358 315.445C107.739 315.807 107.249 316.325 106.886 316.997C106.534 317.658 106.358 318.437 106.358 319.333C106.358 320.218 106.534 320.997 106.886 321.669C107.249 322.341 107.739 322.858 108.358 323.221C108.987 323.583 109.691 323.765 110.47 323.765ZM117.448 319.333C117.448 318.245 117.693 317.269 118.184 316.405C118.675 315.53 119.341 314.847 120.184 314.357C121.037 313.866 121.981 313.621 123.016 313.621C124.232 313.621 125.293 313.914 126.2 314.501C127.107 315.087 127.768 315.919 128.184 316.997H126.44C126.131 316.325 125.683 315.807 125.096 315.445C124.52 315.082 123.827 314.901 123.016 314.901C122.237 314.901 121.539 315.082 120.92 315.445C120.301 315.807 119.816 316.325 119.464 316.997C119.112 317.658 118.936 318.437 118.936 319.333C118.936 320.218 119.112 320.997 119.464 321.669C119.816 322.33 120.301 322.842 120.92 323.205C121.539 323.567 122.237 323.749 123.016 323.749C123.827 323.749 124.52 323.573 125.096 323.221C125.683 322.858 126.131 322.341 126.44 321.669H128.184C127.768 322.735 127.107 323.562 126.2 324.149C125.293 324.725 124.232 325.013 123.016 325.013C121.981 325.013 121.037 324.773 120.184 324.293C119.341 323.802 118.675 323.125 118.184 322.261C117.693 321.397 117.448 320.421 117.448 319.333ZM140.489 324.917L137.833 320.357H136.073V324.917H134.617V313.765H138.217C139.06 313.765 139.769 313.909 140.345 314.197C140.932 314.485 141.369 314.874 141.657 315.365C141.945 315.855 142.089 316.415 142.089 317.045C142.089 317.813 141.865 318.49 141.417 319.077C140.98 319.663 140.318 320.053 139.433 320.245L142.233 324.917H140.489ZM136.073 319.189H138.217C139.006 319.189 139.598 318.997 139.993 318.613C140.388 318.218 140.585 317.695 140.585 317.045C140.585 316.383 140.388 315.871 139.993 315.509C139.609 315.146 139.017 314.965 138.217 314.965H136.073V319.189ZM152.352 320.197C152.352 320.474 152.336 320.767 152.304 321.077H145.296C145.349 321.941 145.642 322.618 146.176 323.109C146.72 323.589 147.376 323.829 148.144 323.829C148.773 323.829 149.296 323.685 149.712 323.397C150.138 323.098 150.437 322.703 150.608 322.213H152.176C151.941 323.055 151.472 323.743 150.768 324.277C150.064 324.799 149.189 325.061 148.144 325.061C147.312 325.061 146.565 324.874 145.904 324.501C145.253 324.127 144.741 323.599 144.368 322.917C143.994 322.223 143.808 321.423 143.808 320.517C143.808 319.61 143.989 318.815 144.352 318.133C144.714 317.45 145.221 316.927 145.872 316.565C146.533 316.191 147.29 316.005 148.144 316.005C148.976 316.005 149.712 316.186 150.352 316.549C150.992 316.911 151.482 317.413 151.824 318.053C152.176 318.682 152.352 319.397 152.352 320.197ZM150.848 319.893C150.848 319.338 150.725 318.863 150.48 318.469C150.234 318.063 149.898 317.759 149.472 317.557C149.056 317.343 148.592 317.237 148.08 317.237C147.344 317.237 146.714 317.471 146.192 317.941C145.68 318.41 145.386 319.061 145.312 319.893H150.848ZM155.729 313.077V324.917H154.273V313.077H155.729ZM166.211 320.197C166.211 320.474 166.195 320.767 166.163 321.077H159.155C159.208 321.941 159.502 322.618 160.035 323.109C160.579 323.589 161.235 323.829 162.003 323.829C162.632 323.829 163.155 323.685 163.571 323.397C163.998 323.098 164.296 322.703 164.467 322.213H166.035C165.8 323.055 165.331 323.743 164.627 324.277C163.923 324.799 163.048 325.061 162.003 325.061C161.171 325.061 160.424 324.874 159.763 324.501C159.112 324.127 158.6 323.599 158.227 322.917C157.854 322.223 157.667 321.423 157.667 320.517C157.667 319.61 157.848 318.815 158.211 318.133C158.574 317.45 159.08 316.927 159.731 316.565C160.392 316.191 161.15 316.005 162.003 316.005C162.835 316.005 163.571 316.186 164.211 316.549C164.851 316.911 165.342 317.413 165.683 318.053C166.035 318.682 166.211 319.397 166.211 320.197ZM164.707 319.893C164.707 319.338 164.584 318.863 164.339 318.469C164.094 318.063 163.758 317.759 163.331 317.557C162.915 317.343 162.451 317.237 161.939 317.237C161.203 317.237 160.574 317.471 160.051 317.941C159.539 318.41 159.246 319.061 159.171 319.893H164.707ZM167.589 320.501C167.589 319.605 167.77 318.821 168.133 318.149C168.495 317.466 168.991 316.938 169.621 316.565C170.261 316.191 170.97 316.005 171.749 316.005C172.517 316.005 173.183 316.17 173.749 316.501C174.314 316.831 174.735 317.247 175.013 317.749V316.149H176.485V324.917H175.013V323.285C174.725 323.797 174.293 324.223 173.717 324.565C173.151 324.895 172.49 325.061 171.733 325.061C170.954 325.061 170.25 324.869 169.621 324.485C168.991 324.101 168.495 323.562 168.133 322.869C167.77 322.175 167.589 321.386 167.589 320.501ZM175.013 320.517C175.013 319.855 174.879 319.279 174.613 318.789C174.346 318.298 173.983 317.925 173.525 317.669C173.077 317.402 172.581 317.269 172.037 317.269C171.493 317.269 170.997 317.397 170.549 317.653C170.101 317.909 169.743 318.282 169.477 318.773C169.21 319.263 169.077 319.839 169.077 320.501C169.077 321.173 169.21 321.759 169.477 322.261C169.743 322.751 170.101 323.13 170.549 323.397C170.997 323.653 171.493 323.781 172.037 323.781C172.581 323.781 173.077 323.653 173.525 323.397C173.983 323.13 174.346 322.751 174.613 322.261C174.879 321.759 175.013 321.178 175.013 320.517ZM182.049 325.061C181.377 325.061 180.775 324.949 180.241 324.725C179.708 324.49 179.287 324.17 178.977 323.765C178.668 323.349 178.497 322.874 178.465 322.341H179.969C180.012 322.778 180.215 323.135 180.577 323.413C180.951 323.69 181.436 323.829 182.033 323.829C182.588 323.829 183.025 323.706 183.345 323.461C183.665 323.215 183.825 322.906 183.825 322.533C183.825 322.149 183.655 321.866 183.313 321.685C182.972 321.493 182.444 321.306 181.729 321.125C181.079 320.954 180.545 320.783 180.129 320.613C179.724 320.431 179.372 320.17 179.073 319.829C178.785 319.477 178.641 319.018 178.641 318.453C178.641 318.005 178.775 317.594 179.041 317.221C179.308 316.847 179.687 316.554 180.177 316.341C180.668 316.117 181.228 316.005 181.857 316.005C182.828 316.005 183.612 316.25 184.209 316.741C184.807 317.231 185.127 317.903 185.169 318.757H183.713C183.681 318.298 183.495 317.93 183.153 317.653C182.823 317.375 182.375 317.237 181.809 317.237C181.287 317.237 180.871 317.349 180.561 317.573C180.252 317.797 180.097 318.09 180.097 318.453C180.097 318.741 180.188 318.981 180.369 319.173C180.561 319.354 180.796 319.503 181.073 319.621C181.361 319.727 181.756 319.85 182.257 319.989C182.887 320.159 183.399 320.33 183.793 320.501C184.188 320.661 184.524 320.906 184.801 321.237C185.089 321.567 185.239 321.999 185.249 322.533C185.249 323.013 185.116 323.445 184.849 323.829C184.583 324.213 184.204 324.517 183.713 324.741C183.233 324.954 182.679 325.061 182.049 325.061ZM195.305 320.197C195.305 320.474 195.289 320.767 195.257 321.077H188.249C188.302 321.941 188.595 322.618 189.129 323.109C189.673 323.589 190.329 323.829 191.097 323.829C191.726 323.829 192.249 323.685 192.665 323.397C193.091 323.098 193.39 322.703 193.561 322.213H195.129C194.894 323.055 194.425 323.743 193.721 324.277C193.017 324.799 192.142 325.061 191.097 325.061C190.265 325.061 189.518 324.874 188.857 324.501C188.206 324.127 187.694 323.599 187.321 322.917C186.947 322.223 186.761 321.423 186.761 320.517C186.761 319.61 186.942 318.815 187.305 318.133C187.667 317.45 188.174 316.927 188.825 316.565C189.486 316.191 190.243 316.005 191.097 316.005C191.929 316.005 192.665 316.186 193.305 316.549C193.945 316.911 194.435 317.413 194.777 318.053C195.129 318.682 195.305 319.397 195.305 320.197ZM193.801 319.893C193.801 319.338 193.678 318.863 193.433 318.469C193.187 318.063 192.851 317.759 192.425 317.557C192.009 317.343 191.545 317.237 191.033 317.237C190.297 317.237 189.667 317.471 189.145 317.941C188.633 318.41 188.339 319.061 188.265 319.893H193.801ZM208.948 317.029C208.948 317.957 208.628 318.73 207.988 319.349C207.359 319.957 206.393 320.261 205.092 320.261H202.948V324.917H201.492V313.765H205.092C206.351 313.765 207.305 314.069 207.956 314.677C208.617 315.285 208.948 316.069 208.948 317.029ZM205.092 319.061C205.903 319.061 206.5 318.885 206.884 318.533C207.268 318.181 207.46 317.679 207.46 317.029C207.46 315.653 206.671 314.965 205.092 314.965H202.948V319.061H205.092ZM212.214 313.077V324.917H210.758V313.077H212.214ZM214.151 320.501C214.151 319.605 214.333 318.821 214.695 318.149C215.058 317.466 215.554 316.938 216.183 316.565C216.823 316.191 217.533 316.005 218.311 316.005C219.079 316.005 219.746 316.17 220.311 316.501C220.877 316.831 221.298 317.247 221.575 317.749V316.149H223.047V324.917H221.575V323.285C221.287 323.797 220.855 324.223 220.279 324.565C219.714 324.895 219.053 325.061 218.295 325.061C217.517 325.061 216.813 324.869 216.183 324.485C215.554 324.101 215.058 323.562 214.695 322.869C214.333 322.175 214.151 321.386 214.151 320.501ZM221.575 320.517C221.575 319.855 221.442 319.279 221.175 318.789C220.909 318.298 220.546 317.925 220.087 317.669C219.639 317.402 219.143 317.269 218.599 317.269C218.055 317.269 217.559 317.397 217.111 317.653C216.663 317.909 216.306 318.282 216.039 318.773C215.773 319.263 215.639 319.839 215.639 320.501C215.639 321.173 215.773 321.759 216.039 322.261C216.306 322.751 216.663 323.13 217.111 323.397C217.559 323.653 218.055 323.781 218.599 323.781C219.143 323.781 219.639 323.653 220.087 323.397C220.546 323.13 220.909 322.751 221.175 322.261C221.442 321.759 221.575 321.178 221.575 320.517ZM229.78 315.989C230.846 315.989 231.71 316.314 232.372 316.965C233.033 317.605 233.364 318.533 233.364 319.749V324.917H231.924V319.957C231.924 319.082 231.705 318.415 231.268 317.957C230.83 317.487 230.233 317.253 229.476 317.253C228.708 317.253 228.094 317.493 227.636 317.973C227.188 318.453 226.964 319.151 226.964 320.069V324.917H225.508V316.149H226.964V317.397C227.252 316.949 227.641 316.602 228.132 316.357C228.633 316.111 229.182 315.989 229.78 315.989Z" fill="black"/>
</svg>
