<svg width="88" height="74" viewBox="0 0 88 74" fill="none" xmlns="http://www.w3.org/2000/svg">
<path d="M41.9282 26.4822C43.1382 25.8083 44.6107 25.8083 45.8207 26.4822L79.419 45.1943C82.1573 46.7194 82.1573 50.6584 79.419 52.1835L45.8207 70.8955C44.6107 71.5694 43.1382 71.5694 41.9282 70.8955L8.3299 52.1835C5.59157 50.6584 5.59157 46.7194 8.3299 45.1943L41.9282 26.4822Z" stroke="#004995" stroke-width="2"/>
<path d="M41.9282 14.5618C43.1382 13.8879 44.6107 13.8879 45.8207 14.5618L79.419 33.2739C82.1573 34.799 82.1573 38.738 79.419 40.263L45.8207 58.9751C44.6107 59.649 43.1382 59.649 41.9282 58.9751L8.3299 40.263C5.59157 38.738 5.59157 34.799 8.3299 33.2739L41.9282 14.5618Z" fill="white" stroke="#004995" stroke-width="2"/>
<path d="M41.9282 2.64129C43.1382 1.96739 44.6107 1.96739 45.8207 2.64129L79.419 21.3534C82.1573 22.8784 82.1573 26.8174 79.419 28.3425L45.8207 47.0546C44.6107 47.7285 43.1382 47.7285 41.9282 47.0546L8.3299 28.3425C5.59157 26.8174 5.59157 22.8784 8.3299 21.3534L41.9282 2.64129Z" fill="white" stroke="#004995" stroke-width="2"/>
</svg>
