<svg width="88" height="72" viewBox="0 0 88 72" fill="none" xmlns="http://www.w3.org/2000/svg">
<path fill-rule="evenodd" clip-rule="evenodd" d="M5 2.37292H82.7489C84.4057 2.37292 85.7489 3.71607 85.7489 5.37292V50.4346H2V5.37293C2 3.71607 3.34315 2.37292 5 2.37292ZM87.7489 5.37292V50.4346H87.749V52.8185H87.7489V54.971C87.7489 57.7324 85.5103 59.971 82.7489 59.971H44.9716V69.5065H42.7779V59.971H5.00001C2.23858 59.971 0 57.7324 0 54.971V5.37293C0 2.6115 2.23858 0.372925 5 0.372925H82.7489C85.5103 0.372925 87.7489 2.6115 87.7489 5.37292ZM2 52.8185H85.7489V54.971C85.7489 56.6278 84.4057 57.971 82.7489 57.971H5.00001C3.34315 57.971 2 56.6278 2 54.971V52.8185ZM27.4214 70.6994C27.4214 70.0411 27.9551 69.5074 28.6134 69.5074H59.1353C59.7936 69.5074 60.3273 70.0411 60.3273 70.6994C60.3273 71.3577 59.7936 71.8914 59.1353 71.8914H28.6134C27.9551 71.8914 27.4214 71.3577 27.4214 70.6994ZM43.8746 56.3946C44.4803 56.3946 44.9714 55.861 44.9714 55.2027C44.9714 54.5444 44.4803 54.0107 43.8746 54.0107C43.2688 54.0107 42.7777 54.5444 42.7777 55.2027C42.7777 55.861 43.2688 56.3946 43.8746 56.3946Z" fill="#004995"/>
</svg>
