<svg width="38" height="72" viewBox="0 0 38 72" fill="none" xmlns="http://www.w3.org/2000/svg">
<path fill-rule="evenodd" clip-rule="evenodd" d="M31.809 2.75685H5.4843C3.66697 2.75685 2.19372 4.35783 2.19372 6.33273V65.9308C2.19372 67.9057 3.66697 69.5067 5.4843 69.5067H31.809C33.6263 69.5067 35.0996 67.9057 35.0996 65.9308V6.33273C35.0996 4.35783 33.6263 2.75685 31.809 2.75685ZM5.4843 0.372925C2.45541 0.372925 0 3.04122 0 6.33273V65.9308C0 69.2223 2.45541 71.8906 5.4843 71.8906H31.809C34.8379 71.8906 37.2933 69.2223 37.2933 65.9308V6.33273C37.2933 3.04122 34.8379 0.372925 31.809 0.372925H5.4843Z" fill="#004995"/>
<rect x="2.19385" y="7.59045" width="32.9058" height="2.38392" fill="#004995"/>
<rect x="2.19385" y="62.3463" width="32.9058" height="2.38392" fill="#004995"/>
<ellipse cx="18.6467" cy="67.1363" rx="1.09686" ry="1.19196" fill="#004995"/>
</svg>
