<svg width="958" height="417" viewBox="0 0 958 417" fill="none" xmlns="http://www.w3.org/2000/svg">
<rect width="1015.33" height="399.555" transform="matrix(1 0 0 -1 -57.4844 399.555)" fill="#7CB8F7" fill-opacity="0.4"/>
<path d="M918.819 162.803C918.819 211.013 883.369 250.01 839.739 250.01C796.109 250.01 760.659 211.013 760.659 162.803C760.659 114.593 796.109 75.5957 839.739 75.5957C883.369 75.5957 918.819 114.593 918.819 162.803Z" stroke="#7CB8F7" stroke-opacity="0.4"/>
<path d="M890.731 192.038C890.731 236.449 858.076 272.366 817.893 272.366C777.71 272.366 745.055 236.449 745.055 192.038C745.055 147.627 777.71 111.71 817.893 111.71C858.076 111.71 890.731 147.627 890.731 192.038Z" stroke="#7CB8F7" stroke-opacity="0.55"/>
<path d="M954.708 150.765C954.708 188.527 926.943 219.055 892.792 219.055C858.642 219.055 830.877 188.527 830.877 150.765C830.877 113.002 858.642 82.4746 892.792 82.4746C926.943 82.4746 954.708 113.002 954.708 150.765Z" stroke="#F4BF1C" stroke-opacity="0.5"/>
<g opacity="0.6" clip-path="url(#clip0)">
<path fill-rule="evenodd" clip-rule="evenodd" d="M914.678 291.33C919.337 303.362 927.257 311.722 931.452 324.233C933.939 331.652 934.976 339.719 935.039 347.981C935.073 352.469 935.001 356.959 934.982 361.447C934.963 365.823 934.854 370.171 934.512 374.519C934.168 378.891 933.784 383.21 933.614 387.608C933.482 391.035 933.422 395.021 932.353 398.147C931.503 400.633 929.343 400.997 928.77 397.982C928.451 396.306 928.491 394.435 928.526 392.712C928.571 390.502 928.69 388.296 928.75 386.086C928.992 377.219 928.678 368.351 928.842 359.48C929.003 350.813 930.028 342.156 928.894 333.547C927.957 326.438 925.578 320.333 922.844 314.481C920.213 308.85 917.35 303.356 915.572 296.952C915.062 295.112 914.667 293.206 914.478 291.228C914.56 291.186 914.627 291.22 914.678 291.33Z" fill="#C1DEE2"/>
<path fill-rule="evenodd" clip-rule="evenodd" d="M913.409 315.068C914.332 315.792 914.847 316.851 915.471 317.896C916.246 319.195 917.158 320.368 917.933 321.669C919.549 324.379 920.97 327.256 922.443 330.077C925.241 335.43 927.365 341.136 928.417 347.329C929.507 353.748 929.801 360.373 930.259 366.887C930.744 373.791 931.232 380.746 931.297 387.677C931.325 390.782 931.48 394.078 931.137 397.162C930.923 399.081 930.126 400.717 928.329 400.702C924.512 400.669 922.72 396.074 921.972 392.306C920.87 386.757 920.65 380.863 920.824 375.189C921.035 368.347 922.128 361.607 922.601 354.791C923.102 347.576 922.819 340.488 920.536 333.694C919.383 330.261 918.045 326.91 916.843 323.499C916.331 322.047 915.912 320.556 915.221 319.204C914.452 317.7 913.498 316.334 912.896 314.714C913.067 314.832 913.238 314.95 913.409 315.068Z" fill="#89C5CC"/>
<path fill-rule="evenodd" clip-rule="evenodd" d="M957.377 300.68C957.494 300.581 957.611 300.482 957.728 300.383C957.391 301.926 956.782 303.18 956.317 304.591C955.899 305.86 955.687 307.295 955.405 308.682C954.743 311.938 953.978 315.121 953.353 318.406C952.116 324.905 952.35 331.906 953.162 339.116C953.928 345.927 955.14 352.728 955.717 359.537C956.196 365.185 956.402 371.008 955.945 376.396C955.635 380.056 954.618 384.425 951.846 384.055C950.542 383.882 949.861 382.175 949.587 380.248C949.146 377.153 949.054 373.9 948.882 370.822C948.499 363.954 948.423 357.106 948.347 350.309C948.276 343.895 948.079 337.354 948.473 331.102C948.853 325.069 950.043 319.632 951.743 314.616C952.639 311.974 953.493 309.269 954.499 306.751C954.982 305.543 955.572 304.475 956.055 303.268C956.443 302.297 956.752 301.301 957.377 300.68Z" fill="#C1DEE2"/>
<path fill-rule="evenodd" clip-rule="evenodd" d="M914.588 334.951C915.092 334.03 916.203 337.067 916.372 337.449C916.301 337.259 916.229 337.069 916.157 336.88C917.159 338.69 918.075 340.575 918.645 342.651C919.209 344.706 919.693 346.803 920.222 348.872C921.215 352.756 922.496 356.529 923.395 360.447C924.271 364.265 924.492 368.018 924.28 371.968C924.06 376.072 923.925 380.24 924.182 384.342C924.305 386.302 924.891 388.127 925.292 390.013C925.694 391.901 926.011 393.814 926.486 395.679C926.595 395.436 926.609 396.248 926.609 396.31C926.606 396.776 926.546 397.167 926.408 397.608C926.054 398.744 925.391 399.709 924.382 400.023C922.559 400.589 920.866 398.786 920.278 396.883C919.435 394.152 918.97 391.135 918.568 388.264C918.2 385.632 918.112 382.985 918.222 380.317C918.438 375.055 919.314 369.862 919.551 364.602C919.809 358.875 918.765 353.494 917.891 347.919C917.47 345.233 917.067 342.573 916.248 340.014C915.916 338.977 915.484 338.063 915.03 337.106C914.772 336.562 914.25 335.59 914.588 334.951Z" fill="#C1DEE2"/>
<path fill-rule="evenodd" clip-rule="evenodd" d="M929.379 326.005C929.17 332.566 928.809 339.077 928.005 345.569C927.183 352.193 926.24 358.795 925.45 365.426C924.68 371.88 923.874 378.441 923.981 384.986C924.061 389.806 923.325 397.961 928.251 400.34C933.24 402.749 934.31 392.46 934.638 389.064C935.265 382.548 935.062 375.964 934.758 369.413C934.445 362.689 933.923 355.999 933.276 349.3C932.557 341.859 931.993 334.384 931.54 326.922C931.316 323.231 931.261 319.546 931.323 315.854C931.381 312.37 931.26 308.85 930.12 305.542C930.06 305.589 930.001 305.636 929.941 305.683" fill="#69A1AC"/>
<path fill-rule="evenodd" clip-rule="evenodd" d="M955.135 346.79C954.237 348.211 953.333 349.618 952.486 351.122C950.97 353.815 949.599 356.809 949.186 360.658C948.323 368.714 949.016 377.415 949.183 385.718C949.217 387.415 949.02 389.06 949.635 390.675C950.193 392.139 951.236 393.255 952.23 393.249C954.358 393.236 954.034 387.571 954.037 385.078C954.044 380.708 953.593 376.294 953.631 371.928C953.67 367.602 953.912 363.265 954.489 359.157C955.073 354.999 955.929 351.006 957.058 347.28C957.215 346.763 958.339 342.767 957.277 343.456" fill="#89C5CC"/>
<path fill-rule="evenodd" clip-rule="evenodd" d="M945.735 303.822C944.336 303.822 944.345 311.404 944.303 312.378C944.151 315.892 944.186 319.408 944.09 322.923C943.88 330.594 943.621 338.332 942.561 345.914C941.99 349.996 941.328 354.059 940.616 358.11C939.903 362.173 938.944 366.23 938.475 370.344C938.024 374.299 938.279 378.332 938.341 382.306C938.402 386.304 938.513 390.311 938.996 394.274C939.114 395.252 939.254 396.227 939.403 397.2C939.527 398.01 939.455 399.015 939.665 399.785C940.002 401.018 941.448 401.422 942.421 401.229C945.054 400.706 946.736 397.113 947.636 394.487C948.784 391.135 949.394 387.498 949.995 383.965C950.677 379.962 951.076 375.898 951.264 371.823C951.645 363.541 951.156 355.249 950.61 346.994C950.306 342.402 949.956 337.831 949.419 333.268C948.884 328.725 948.199 324.202 947.752 319.645C947.428 316.333 947.108 313.017 946.898 309.693C946.848 308.9 946.806 303.822 945.735 303.822Z" fill="#69A1AC"/>
<path fill-rule="evenodd" clip-rule="evenodd" d="M943.983 358.934C943.755 350.974 940.811 316.009 940.141 306.383C939.974 303.974 938.361 293.942 938.152 291.211C937.585 291.983 937.633 304 937.639 306.761C937.646 309.492 937.334 312.178 937.174 314.895C937.011 317.667 933.24 353.466 932.751 356.13C931.777 361.429 931.126 366.866 930.623 372.284C930.134 377.565 929.373 383.136 930.028 388.445C930.178 389.667 930.416 390.869 930.804 391.992C931.224 393.205 931.511 394.326 931.847 395.596C932.389 397.64 933.368 399.434 934.873 400.278C937.958 402.009 939.615 398.091 940.454 394.681C941.796 389.234 942.657 383.698 943.06 377.977C943.507 371.648 944.166 365.306 943.983 358.934Z" fill="#89C5CC"/>
</g>
<rect x="-57.4844" y="359.428" width="275.669" height="40.1275" rx="20" fill="#7CB8F7" fill-opacity="0.1"/>
<rect x="640.555" y="6.30566" width="275.669" height="40.1275" rx="20" fill="#7CB8F7" fill-opacity="0.1"/>
<rect x="-28.877" y="339.364" width="275.669" height="40.1275" rx="20" fill="#E9F2FB" fill-opacity="0.4"/>
<rect x="682.331" y="26.9429" width="275.669" height="40.1275" rx="20" fill="#E9F2FB" fill-opacity="0.4"/>
<g opacity="0.5">
<path opacity="0.5" fill-rule="evenodd" clip-rule="evenodd" d="M-11.2581 280.82C-5.4755 276.218 0.78376 284.903 -4.44893 289.506C-7.34169 292.05 -10.3659 291.145 -12.0684 289.025C-13.1737 290.485 -14.2081 292.012 -15.2021 293.302C-18.2305 297.232 -21.0928 301.256 -23.8283 305.374C-29.5109 313.929 -34.3808 322.967 -39.4726 331.839C-44.4975 340.596 -49.4823 349.398 -54.0369 358.377C-57.8952 365.984 -63.0379 374.933 -64.3589 383.272C-62.3546 365.585 -54.7493 348.585 -45.6927 332.993C-36.7098 317.529 -26.4008 300.64 -12.4919 288.436C-13.9075 286.179 -13.9468 282.958 -11.2581 280.82Z" fill="#C1DEE2"/>
<path opacity="0.5" fill-rule="evenodd" clip-rule="evenodd" d="M23.3434 188.303C23.5315 188.009 24.7556 185.963 24.1392 186.094C25.3942 185.828 22.413 188.35 25.5401 186.802C24.0553 188.322 24.9122 190.297 24.932 192.343C24.9644 195.664 24.4517 198.959 23.8746 202.209C22.9627 207.347 21.6042 212.342 19.6323 217.121C15.3347 227.535 8.03699 237.56 -0.626706 244.071C-4.90373 247.285 -9.09541 248.38 -13.9734 249.86C-17.0545 250.795 -17.2988 252.522 -18.9343 255.764C-22.3392 262.514 -25.6835 269.24 -28.6863 276.219C-32.2719 284.551 -35.7526 292.893 -39.036 301.373C-50.097 329.936 -59.0996 359.527 -63.8275 390.151C-63.9433 372.104 -60.0921 353.518 -55.2341 336.316C-51.6954 323.784 -47.0886 311.702 -42.175 299.744C-40.9844 296.846 -39.1801 293.12 -38.6744 289.921C-38.3204 287.68 -39.4028 285.525 -39.8984 283.164C-41.8305 273.97 -41.6922 263.671 -39.9955 254.428C-38.1248 244.236 -32.7149 239.506 -23.5632 238.063C-20.2163 237.535 -15.9622 237.728 -12.8932 236.181C-9.54961 234.496 -8.17032 228.959 -6.26902 225.405C-1.16219 215.856 4.90546 206.699 11.8728 198.654C13.802 196.426 15.8766 194.371 18.0776 192.466C19.4656 191.264 22.3976 189.783 23.3434 188.303Z" fill="#89C5CC"/>
</g>
<defs>
<clipPath id="clip0">
<rect width="58.5463" height="161.656" fill="white" transform="translate(899.299 254.523)"/>
</clipPath>
</defs>
</svg>
