<svg xmlns="http://www.w3.org/2000/svg" xmlns:xlink="http://www.w3.org/1999/xlink" viewBox="0 0 163.25 150.33"><defs><style>.cls-1,.cls-64{fill:none;}.cls-2{fill:#f2f2f2;}.cls-3{fill:#00b0ff;}.cls-4{fill:#3f3d56;}.cls-5{fill:url(#linear-gradient);}.cls-6{opacity:0.6;}.cls-7{fill:url(#linear-gradient-2);}.cls-25,.cls-8{opacity:0.5;}.cls-9{fill:url(#linear-gradient-56);}.cls-10{fill:url(#linear-gradient-57);}.cls-11{fill:url(#linear-gradient-58);}.cls-12{fill:url(#linear-gradient-59);}.cls-13{fill:url(#linear-gradient-60);}.cls-14{fill:url(#linear-gradient-61);}.cls-15{fill:url(#linear-gradient-62);}.cls-16{fill:url(#linear-gradient-63);}.cls-17{fill:url(#linear-gradient-64);}.cls-18{fill:url(#linear-gradient-65);}.cls-19{fill:url(#linear-gradient-66);}.cls-20{fill:url(#linear-gradient-67);}.cls-21{fill:url(#linear-gradient-68);}.cls-22{fill:url(#linear-gradient-69);}.cls-23{fill:url(#linear-gradient-70);}.cls-24{fill:url(#linear-gradient-71);}.cls-100,.cls-25{isolation:isolate;}.cls-26{fill:url(#linear-gradient-72);}.cls-27{fill:url(#linear-gradient-73);}.cls-28{fill:url(#linear-gradient-74);}.cls-29{fill:url(#linear-gradient-75);}.cls-30{fill:url(#linear-gradient-76);}.cls-31{fill:url(#linear-gradient-77);}.cls-32{fill:url(#linear-gradient-78);}.cls-33{fill:url(#linear-gradient-79);}.cls-34{fill:url(#linear-gradient-80);}.cls-35{fill:url(#linear-gradient-81);}.cls-36{fill:url(#linear-gradient-82);}.cls-37{fill:url(#linear-gradient-83);}.cls-38{fill:url(#linear-gradient-84);}.cls-39{fill:url(#linear-gradient-85);}.cls-40{fill:url(#linear-gradient-86);}.cls-41{fill:url(#linear-gradient-87);}.cls-42{fill:url(#linear-gradient-88);}.cls-43{fill:url(#linear-gradient-89);}.cls-44{fill:url(#linear-gradient-90);}.cls-45{fill:url(#linear-gradient-91);}.cls-46{fill:url(#linear-gradient-92);}.cls-47{fill:url(#linear-gradient-93);}.cls-48{fill:url(#linear-gradient-94);}.cls-49{fill:url(#linear-gradient-95);}.cls-50{fill:url(#linear-gradient-96);}.cls-51{fill:url(#linear-gradient-97);}.cls-52{fill:url(#linear-gradient-98);}.cls-53{fill:url(#linear-gradient-99);}.cls-54{fill:url(#linear-gradient-100);}.cls-55{fill:url(#linear-gradient-101);}.cls-56{fill:url(#linear-gradient-102);}.cls-57{fill:url(#linear-gradient-103);}.cls-58{fill:url(#linear-gradient-104);}.cls-59{fill:url(#linear-gradient-105);}.cls-60{fill:url(#linear-gradient-106);}.cls-61{fill:url(#linear-gradient-107);}.cls-62{fill:url(#linear-gradient-108);}.cls-63{fill:url(#linear-gradient-109);}.cls-64{stroke-width:2px;stroke:url(#radial-gradient);}.cls-137,.cls-65{opacity:0.1;}.cls-66{opacity:0;}.cls-67{fill:#f0ff2a;}.cls-68{opacity:0.09;}.cls-69{opacity:0.18;}.cls-70{opacity:0.27;}.cls-71{opacity:0.36;}.cls-72{opacity:0.45;}.cls-73{opacity:0.55;}.cls-74{opacity:0.64;}.cls-75{opacity:0.73;}.cls-76{opacity:0.82;}.cls-77{opacity:0.91;}.cls-78{fill:#ab5fff;}.cls-79{fill:#357fff;}.cls-80{fill:url(#linear-gradient-110);}.cls-81{fill:#e9f0f4;}.cls-82{opacity:0.7;}.cls-83{fill:#fff;}.cls-84{fill:#fdfefe;}.cls-85{fill:#fbfcfd;}.cls-86{fill:#f9fbfc;}.cls-87{fill:#f7fafb;}.cls-88{fill:#f5f8fa;}.cls-89{fill:#f3f7f9;}.cls-90{fill:#f1f5f8;}.cls-91{fill:#eff4f7;}.cls-92{fill:#edf3f6;}.cls-93{fill:#ebf1f5;}.cls-94{fill:#bfd4db;}.cls-95{fill:url(#linear-gradient-111);}.cls-96{fill:#002e8a;}.cls-97{fill:url(#linear-gradient-112);}.cls-98{fill:#35c2da;}.cls-99{fill:url(#linear-gradient-113);}.cls-101{clip-path:url(#clip-path);}.cls-102{fill:#b2c5cc;}.cls-103{fill:#adc0c7;}.cls-104{fill:#a9bbc2;}.cls-105{fill:#a4b6bd;}.cls-106{fill:#a0b1b8;}.cls-107{fill:#9bacb3;}.cls-108{fill:#97a7ad;}.cls-109{fill:#93a2a8;}.cls-110{fill:#8e9da3;}.cls-111{fill:#8a999e;}.cls-112{fill:#859499;}.cls-113{fill:#818f94;}.cls-114{fill:#7c8a8f;}.cls-115{fill:#78858a;}.cls-116{fill:#738085;}.cls-117{clip-path:url(#clip-path-2);}.cls-118{fill:#32b5ca;}.cls-119{fill:#30b0c5;}.cls-120{fill:#2facc0;}.cls-121{fill:#2ea7bb;}.cls-122{fill:#2da3b6;}.cls-123{fill:#2b9eb1;}.cls-124{fill:#2a9aac;}.cls-125{fill:#2995a7;}.cls-126{fill:#2891a2;}.cls-127{fill:#268c9d;}.cls-128{clip-path:url(#clip-path-3);}.cls-129{clip-path:url(#clip-path-4);}.cls-130{fill:#207684;}.cls-131{fill:#217a89;}.cls-132{fill:#237f8e;}.cls-133{fill:#248393;}.cls-134{fill:#258898;}.cls-135{fill:#c0c0f6;}.cls-136{fill:url(#linear-gradient-114);}.cls-138{fill:#131c24;}.cls-139{fill:#efb185;}.cls-140{fill:#e6a376;}.cls-141{fill:#00194a;}.cls-142{fill:url(#linear-gradient-115);}.cls-143{fill:#111114;}.cls-144{fill:#0a0a0a;}.cls-145{fill:url(#linear-gradient-116);}.cls-146{fill:url(#linear-gradient-117);}.cls-147{fill:url(#linear-gradient-118);}.cls-148{fill:#dd9569;}.cls-149{fill:#341c09;}.cls-150{fill:#221101;}.cls-151{fill:#ffc0f0;}.cls-152{fill:#55ff89;}.cls-153{fill:#2b80ff;}.cls-154{fill:url(#linear-gradient-119);}.cls-155{fill:#00044a;}.cls-156{fill:#00081f;}.cls-157{fill:url(#linear-gradient-120);}.cls-158{fill:#1d2833;}.cls-159{fill:#def0f9;}.cls-160{fill:#f1b287;}.cls-161{fill:url(#linear-gradient-121);}</style><linearGradient id="linear-gradient" y1="107.03" x2="163.25" y2="107.03" gradientUnits="userSpaceOnUse"><stop offset="0" stop-color="#e3f8ff"/><stop offset="0.11" stop-color="#def6ff"/><stop offset="0.24" stop-color="#d0f2ff"/><stop offset="0.39" stop-color="#b8eaff"/><stop offset="0.54" stop-color="#97e0ff"/><stop offset="0.69" stop-color="#6dd3ff"/><stop offset="0.85" stop-color="#3ac2ff"/><stop offset="1" stop-color="#00b0ff"/></linearGradient><linearGradient id="linear-gradient-2" x1="119.48" y1="32.6" x2="213.65" y2="32.6" gradientTransform="matrix(-0.86, 0.16, -0.04, -1.18, 261.26, 59.08)" gradientUnits="userSpaceOnUse"><stop offset="0" stop-color="#fff2c9"/><stop offset="1" stop-color="#ffb7bb"/></linearGradient><linearGradient id="linear-gradient-56" x1="100.83" y1="3.81" x2="150.08" y2="47.76" gradientTransform="matrix(1.83, 0.12, 0.11, -1.19, -89.9, 62.92)" xlink:href="#linear-gradient-2"/><linearGradient id="linear-gradient-57" x1="94.62" y1="8.31" x2="145.16" y2="53.4" gradientTransform="matrix(1.83, 0.12, 0.11, -1.19, -89.9, 62.92)" xlink:href="#linear-gradient-2"/><linearGradient id="linear-gradient-58" x1="91.21" y1="10.99" x2="142.23" y2="56.52" gradientTransform="matrix(1.83, 0.12, 0.11, -1.19, -89.9, 62.92)" xlink:href="#linear-gradient-2"/><linearGradient id="linear-gradient-59" x1="89.52" y1="15.77" x2="138.44" y2="59.42" gradientTransform="matrix(1.83, 0.12, 0.11, -1.19, -89.9, 62.92)" xlink:href="#linear-gradient-2"/><linearGradient id="linear-gradient-60" x1="100.1" y1="3.44" x2="150.65" y2="48.54" gradientTransform="matrix(1.83, 0.12, 0.11, -1.19, -89.9, 62.92)" xlink:href="#linear-gradient-2"/><linearGradient id="linear-gradient-61" x1="93.77" y1="8.72" x2="145.04" y2="54.47" gradientTransform="matrix(1.83, 0.12, 0.11, -1.19, -89.9, 62.92)" xlink:href="#linear-gradient-2"/><linearGradient id="linear-gradient-62" x1="94.84" y1="10.75" x2="143.75" y2="54.39" gradientTransform="matrix(1.83, 0.12, 0.11, -1.19, -89.9, 62.92)" xlink:href="#linear-gradient-2"/><linearGradient id="linear-gradient-63" x1="91.63" y1="11.66" x2="142.75" y2="57.27" gradientTransform="matrix(1.83, 0.12, 0.11, -1.19, -89.9, 62.92)" xlink:href="#linear-gradient-2"/><linearGradient id="linear-gradient-64" x1="99.59" y1="3.71" x2="150.81" y2="49.41" gradientTransform="matrix(1.83, 0.12, 0.11, -1.19, -89.9, 62.92)" xlink:href="#linear-gradient-2"/><linearGradient id="linear-gradient-65" x1="90.01" y1="15.62" x2="139.2" y2="59.5" gradientTransform="matrix(1.83, 0.12, 0.11, -1.19, -89.9, 62.92)" xlink:href="#linear-gradient-2"/><linearGradient id="linear-gradient-66" x1="98.34" y1="5.6" x2="149.46" y2="51.2" gradientTransform="matrix(1.83, 0.12, 0.11, -1.19, -89.9, 62.92)" xlink:href="#linear-gradient-2"/><linearGradient id="linear-gradient-67" x1="90.63" y1="14.55" x2="140.59" y2="59.13" gradientTransform="matrix(1.83, 0.12, 0.11, -1.19, -89.9, 62.92)" xlink:href="#linear-gradient-2"/><linearGradient id="linear-gradient-68" x1="93.18" y1="12.08" x2="143.66" y2="57.12" gradientTransform="matrix(1.83, 0.12, 0.11, -1.19, -89.9, 62.92)" xlink:href="#linear-gradient-2"/><linearGradient id="linear-gradient-69" x1="97.87" y1="8" x2="147.82" y2="52.57" gradientTransform="matrix(1.83, 0.12, 0.11, -1.19, -89.9, 62.92)" xlink:href="#linear-gradient-2"/><linearGradient id="linear-gradient-70" x1="94.65" y1="10.76" x2="145.28" y2="55.93" gradientTransform="matrix(1.83, 0.12, 0.11, -1.19, -89.9, 62.92)" xlink:href="#linear-gradient-2"/><linearGradient id="linear-gradient-71" x1="98.66" y1="7.21" x2="149.15" y2="52.26" gradientTransform="matrix(1.83, 0.12, 0.11, -1.19, -89.9, 62.92)" xlink:href="#linear-gradient-2"/><linearGradient id="linear-gradient-72" x1="106.88" y1="-1.39" x2="155.58" y2="42.05" gradientTransform="matrix(1.83, 0.12, 0.11, -1.19, -89.9, 62.92)" xlink:href="#linear-gradient-2"/><linearGradient id="linear-gradient-73" x1="105.6" y1="-1.42" x2="156.14" y2="43.68" gradientTransform="matrix(1.83, 0.12, 0.11, -1.19, -89.9, 62.92)" xlink:href="#linear-gradient-2"/><linearGradient id="linear-gradient-74" x1="105.99" y1="-1.84" x2="157" y2="43.67" gradientTransform="matrix(1.83, 0.12, 0.11, -1.19, -89.9, 62.92)" xlink:href="#linear-gradient-2"/><linearGradient id="linear-gradient-75" x1="109.26" y1="-4.66" x2="159.81" y2="40.44" gradientTransform="matrix(1.83, 0.12, 0.11, -1.19, -89.9, 62.92)" xlink:href="#linear-gradient-2"/><linearGradient id="linear-gradient-76" x1="103.68" y1="2.38" x2="152.62" y2="46.04" gradientTransform="matrix(1.83, 0.12, 0.11, -1.19, -89.9, 62.92)" xlink:href="#linear-gradient-2"/><linearGradient id="linear-gradient-77" x1="115.09" y1="-9.49" x2="164.35" y2="34.46" gradientTransform="matrix(1.83, 0.12, 0.11, -1.19, -89.9, 62.92)" xlink:href="#linear-gradient-2"/><linearGradient id="linear-gradient-78" x1="114.75" y1="-9.52" x2="165.3" y2="35.58" gradientTransform="matrix(1.83, 0.12, 0.11, -1.19, -89.9, 62.92)" xlink:href="#linear-gradient-2"/><linearGradient id="linear-gradient-79" x1="108.63" y1="-4.05" x2="159.89" y2="41.69" gradientTransform="matrix(1.83, 0.12, 0.11, -1.19, -89.9, 62.92)" xlink:href="#linear-gradient-2"/><linearGradient id="linear-gradient-80" x1="120.98" y1="-14.84" x2="169.68" y2="28.61" gradientTransform="matrix(1.83, 0.12, 0.11, -1.19, -89.9, 62.92)" xlink:href="#linear-gradient-2"/><linearGradient id="linear-gradient-81" x1="108.99" y1="-2.64" x2="157.93" y2="41.02" gradientTransform="matrix(1.83, 0.12, 0.11, -1.19, -89.9, 62.92)" xlink:href="#linear-gradient-2"/><linearGradient id="linear-gradient-82" x1="106.44" y1="-1.15" x2="157.57" y2="44.47" gradientTransform="matrix(1.83, 0.12, 0.11, -1.19, -89.9, 62.92)" xlink:href="#linear-gradient-2"/><linearGradient id="linear-gradient-83" x1="114.43" y1="-9.08" x2="165.65" y2="36.62" gradientTransform="matrix(1.83, 0.12, 0.11, -1.19, -89.9, 62.92)" xlink:href="#linear-gradient-2"/><linearGradient id="linear-gradient-84" x1="120.24" y1="-14.39" x2="170.79" y2="30.72" gradientTransform="matrix(1.83, 0.12, 0.11, -1.19, -89.9, 62.92)" xlink:href="#linear-gradient-2"/><linearGradient id="linear-gradient-85" x1="104.26" y1="2.3" x2="153.44" y2="46.18" gradientTransform="matrix(1.83, 0.12, 0.11, -1.19, -89.9, 62.92)" xlink:href="#linear-gradient-2"/><linearGradient id="linear-gradient-86" x1="113.16" y1="-7.22" x2="164.27" y2="38.39" gradientTransform="matrix(1.83, 0.12, 0.11, -1.19, -89.9, 62.92)" xlink:href="#linear-gradient-2"/><linearGradient id="linear-gradient-87" x1="105.1" y1="1.44" x2="155.06" y2="46.01" gradientTransform="matrix(1.83, 0.12, 0.11, -1.19, -89.9, 62.92)" xlink:href="#linear-gradient-2"/><linearGradient id="linear-gradient-88" x1="107.8" y1="-0.9" x2="158.3" y2="44.15" gradientTransform="matrix(1.83, 0.12, 0.11, -1.19, -89.9, 62.92)" xlink:href="#linear-gradient-2"/><linearGradient id="linear-gradient-89" x1="114.31" y1="-7.66" x2="163.24" y2="35.99" gradientTransform="matrix(1.83, 0.12, 0.11, -1.19, -89.9, 62.92)" xlink:href="#linear-gradient-2"/><linearGradient id="linear-gradient-90" x1="93.1" y1="14.33" x2="143.22" y2="59.04" gradientTransform="matrix(1.83, 0.12, 0.11, -1.19, -89.9, 62.92)" xlink:href="#linear-gradient-2"/><linearGradient id="linear-gradient-91" x1="88.77" y1="18.48" x2="138.27" y2="62.65" gradientTransform="matrix(1.83, 0.12, 0.11, -1.19, -89.9, 62.92)" xlink:href="#linear-gradient-2"/><linearGradient id="linear-gradient-92" x1="93.61" y1="13.29" x2="144.73" y2="58.9" gradientTransform="matrix(1.83, 0.12, 0.11, -1.19, -89.9, 62.92)" xlink:href="#linear-gradient-2"/><linearGradient id="linear-gradient-93" x1="93.89" y1="13.78" x2="143.14" y2="57.73" gradientTransform="matrix(1.83, 0.12, 0.11, -1.19, -89.9, 62.92)" xlink:href="#linear-gradient-2"/><linearGradient id="linear-gradient-94" x1="97.52" y1="10.24" x2="148.07" y2="55.34" gradientTransform="matrix(1.83, 0.12, 0.11, -1.19, -89.9, 62.92)" xlink:href="#linear-gradient-2"/><linearGradient id="linear-gradient-95" x1="83.41" y1="21.12" x2="133.35" y2="65.68" gradientTransform="matrix(1.83, 0.12, 0.11, -1.19, -89.9, 62.92)" xlink:href="#linear-gradient-2"/><linearGradient id="linear-gradient-96" x1="79.98" y1="23.7" x2="130.61" y2="68.87" gradientTransform="matrix(1.83, 0.12, 0.11, -1.19, -89.9, 62.92)" xlink:href="#linear-gradient-2"/><linearGradient id="linear-gradient-97" x1="84.03" y1="20.19" x2="134.53" y2="65.24" gradientTransform="matrix(1.83, 0.12, 0.11, -1.19, -89.9, 62.92)" xlink:href="#linear-gradient-2"/><linearGradient id="linear-gradient-98" x1="78.8" y1="26.11" x2="129.92" y2="71.72" gradientTransform="matrix(1.83, 0.12, 0.11, -1.19, -89.9, 62.92)" xlink:href="#linear-gradient-2"/><linearGradient id="linear-gradient-99" x1="79.63" y1="27.09" x2="128.87" y2="71.02" gradientTransform="matrix(1.83, 0.12, 0.11, -1.19, -89.9, 62.92)" xlink:href="#linear-gradient-2"/><linearGradient id="linear-gradient-100" x1="82.88" y1="23.21" x2="133.42" y2="68.3" gradientTransform="matrix(1.83, 0.12, 0.11, -1.19, -89.9, 62.92)" xlink:href="#linear-gradient-2"/><linearGradient id="linear-gradient-101" x1="84.71" y1="21.59" x2="135.24" y2="66.68" gradientTransform="matrix(1.83, 0.12, 0.11, -1.19, -89.9, 62.92)" xlink:href="#linear-gradient-2"/><linearGradient id="linear-gradient-102" x1="84.67" y1="22.58" x2="133.41" y2="66.08" gradientTransform="matrix(1.83, 0.12, 0.11, -1.19, -89.9, 62.92)" xlink:href="#linear-gradient-2"/><linearGradient id="linear-gradient-103" x1="89.31" y1="17.21" x2="140.24" y2="62.65" gradientTransform="matrix(1.83, 0.12, 0.11, -1.19, -89.9, 62.92)" xlink:href="#linear-gradient-2"/><linearGradient id="linear-gradient-104" x1="100.15" y1="5.73" x2="149.06" y2="49.37" gradientTransform="matrix(1.83, 0.12, 0.11, -1.19, -89.9, 62.92)" xlink:href="#linear-gradient-2"/><linearGradient id="linear-gradient-105" x1="78.59" y1="27.4" x2="128.7" y2="72.12" gradientTransform="matrix(1.83, 0.12, 0.11, -1.19, -89.9, 62.92)" xlink:href="#linear-gradient-2"/><linearGradient id="linear-gradient-106" x1="74.43" y1="31.71" x2="123.94" y2="75.88" gradientTransform="matrix(1.83, 0.12, 0.11, -1.19, -89.9, 62.92)" xlink:href="#linear-gradient-2"/><linearGradient id="linear-gradient-107" x1="70.06" y1="34.55" x2="120.61" y2="79.65" gradientTransform="matrix(1.83, 0.12, 0.11, -1.19, -89.9, 62.92)" xlink:href="#linear-gradient-2"/><linearGradient id="linear-gradient-108" x1="70.54" y1="36.01" x2="119.31" y2="79.52" gradientTransform="matrix(1.83, 0.12, 0.11, -1.19, -89.9, 62.92)" xlink:href="#linear-gradient-2"/><linearGradient id="linear-gradient-109" x1="74.55" y1="30.07" x2="125.48" y2="75.52" gradientTransform="matrix(1.83, 0.12, 0.11, -1.19, -89.9, 62.92)" xlink:href="#linear-gradient-2"/><radialGradient id="radial-gradient" cx="120.55" cy="35.64" r="37.65" gradientTransform="matrix(1.41, 0.09, 0.09, -0.84, -55.49, 66.72)" gradientUnits="userSpaceOnUse"><stop offset="0" stop-color="#ffb7d1" stop-opacity="0.8"/><stop offset="1" stop-color="#f2ec51" stop-opacity="0.22"/></radialGradient><linearGradient id="linear-gradient-110" x1="87.12" y1="136.29" x2="87.12" y2="91.05" gradientUnits="userSpaceOnUse"><stop offset="0" stop-color="#318df5"/><stop offset="1" stop-color="#f3faff"/></linearGradient><linearGradient id="linear-gradient-111" x1="121.49" y1="112.9" x2="125.91" y2="112.9" gradientUnits="userSpaceOnUse"><stop offset="0" stop-color="#a9daff"/><stop offset="0.24" stop-color="#0078d1"/></linearGradient><linearGradient id="linear-gradient-112" x1="124.19" y1="111.07" x2="124.19" y2="56.21" gradientUnits="userSpaceOnUse"><stop offset="0.75" stop-color="#a9daff"/><stop offset="1" stop-color="#f3faff"/></linearGradient><linearGradient id="linear-gradient-113" x1="124.98" y1="109.53" x2="85.78" y2="41.63" gradientUnits="userSpaceOnUse"><stop offset="0" stop-color="#b6e3ff"/><stop offset="0.03" stop-color="#bae4ff"/><stop offset="0.4" stop-color="#dff3ff"/><stop offset="0.7" stop-color="#f7fcff"/><stop offset="0.88" stop-color="#fff"/></linearGradient><clipPath id="clip-path"><path class="cls-1" d="M101.39,40.74a.42.42,0,0,1,.2-.4L98,42.26a.41.41,0,0,0-.19.4h0l.25-.14.14-.07L99,42l1.21-.65,1.15-.61L97.8,42.66h0a1.31,1.31,0,0,0,.67,1.08l3.6-1.92A1.35,1.35,0,0,1,101.39,40.74Z"/></clipPath><clipPath id="clip-path-2"><path class="cls-1" d="M101.59,40.34a1,1,0,0,0-.18.1L98,42.26a.5.5,0,0,1,.48,0l3.6-1.92A.5.5,0,0,0,101.59,40.34Z"/></clipPath><clipPath id="clip-path-3"><path class="cls-1" d="M117.22,49.64a.52.52,0,0,1-.49,0l-3.6,1.93a.54.54,0,0,0,.49,0Z"/></clipPath><clipPath id="clip-path-4"><path class="cls-1" d="M113.62,51.56l3.6-1.92a.42.42,0,0,0,.19-.4,1.35,1.35,0,0,0-.68-1.08l-3.59,1.92a1.34,1.34,0,0,1,.67,1.08A.41.41,0,0,1,113.62,51.56Z"/></clipPath><linearGradient id="linear-gradient-114" x1="89.28" y1="46.1" x2="126.08" y2="46.1" gradientUnits="userSpaceOnUse"><stop offset="0.73" stop-color="#a9daff"/><stop offset="1" stop-color="#0078d1"/></linearGradient><linearGradient id="linear-gradient-115" x1="62.52" y1="57.55" x2="69.66" y2="57.55" gradientUnits="userSpaceOnUse"><stop offset="0" stop-color="#cddef7"/><stop offset="0" stop-color="#7e9dc9"/><stop offset="0" stop-color="#00347f"/></linearGradient><linearGradient id="linear-gradient-116" x1="61.53" y1="77.77" x2="65.31" y2="77.77" xlink:href="#linear-gradient-115"/><linearGradient id="linear-gradient-117" x1="55.07" y1="80.86" x2="63.4" y2="80.86" xlink:href="#linear-gradient-115"/><linearGradient id="linear-gradient-118" x1="52.49" y1="58.98" x2="65.28" y2="58.98" xlink:href="#linear-gradient-115"/><linearGradient id="linear-gradient-119" x1="83.83" y1="63.57" x2="97.53" y2="63.57" gradientUnits="userSpaceOnUse"><stop offset="0" stop-color="#cddef7"/><stop offset="0.55" stop-color="#7fbaf6"/><stop offset="0.9" stop-color="#4ca3f5"/><stop offset="1" stop-color="#147cc9"/></linearGradient><linearGradient id="linear-gradient-120" x1="83.39" y1="78.12" x2="96.82" y2="78.12" xlink:href="#linear-gradient-119"/><linearGradient id="linear-gradient-121" x1="91.44" y1="71.76" x2="108.02" y2="71.76" xlink:href="#linear-gradient-119"/></defs><title>1Asset 13</title><g id="Layer_2" data-name="Layer 2"><g id="Layer_1-2" data-name="Layer 1"><ellipse class="cls-2" cx="49.7" cy="43.53" rx="9.15" ry="7.52"/><ellipse class="cls-3" cx="51.19" cy="42.43" rx="9.15" ry="7.52"/><rect class="cls-2" x="44.87" y="21.77" width="8.03" height="6.6"/><rect class="cls-3" x="45.98" y="20.79" width="8.03" height="6.6"/><rect class="cls-4" x="62.62" y="57.84" width="20.34" height="0.24"/><path class="cls-4" d="M58,26.05H47.4V17.37H58Zm-10.41-.13H57.81V17.49H47.55Z"/><rect class="cls-2" x="62.94" y="34.18" width="2.08" height="1.71"/><rect class="cls-3" x="63.39" y="33.75" width="2.08" height="1.71"/><path class="cls-4" d="M67.48,34.85H64.06V32h3.42Zm-3.27-.12h3.12V32.16H64.21Z"/><path class="cls-4" d="M59.22,58.14c-6.27,0-11.38-4.2-11.38-9.35S53,39.43,59.22,39.43s11.39,4.2,11.39,9.36S65.5,58.14,59.22,58.14Zm0-18.58C53,39.56,48,43.7,48,48.79S53,58,59.22,58s11.24-4.14,11.24-9.23-5-9.23-11.24-9.23Z"/><ellipse class="cls-5" cx="81.62" cy="107.03" rx="81.62" ry="43.3"/><g class="cls-6"><polygon class="cls-7" points="146.68 42.92 146.94 40.56 155.74 44.28 155.48 46.65 146.68 42.92"/><polygon class="cls-7" points="138.72 31.42 138.98 29.04 156.59 36.49 156.33 38.88 138.72 31.42"/><polygon class="cls-7" points="132.96 24.91 133.23 22.54 157.02 32.6 156.76 34.98 132.96 24.91"/><polygon class="cls-7" points="128.78 27.22 129.04 24.84 136.55 28.01 136.29 30.39 128.78 27.22"/><polygon class="cls-7" points="137.45 43.1 137.71 40.72 155.32 48.17 155.06 50.55 137.45 43.1"/><polygon class="cls-7" points="127.24 30.64 127.5 28.26 156.17 40.39 155.91 42.77 127.24 30.64"/><polygon class="cls-7" points="127.51 38.9 127.77 36.51 135.28 39.69 135.02 42.07 127.51 38.9"/><polygon class="cls-7" points="118.2 30.87 118.45 28.5 144.15 39.38 143.89 41.75 118.2 30.87"/><polygon class="cls-7" points="127.08 42.78 127.34 40.41 154.89 52.07 154.63 54.44 127.08 42.78"/><polygon class="cls-7" points="115.57 33.84 115.83 31.46 124.34 35.06 124.08 37.45 115.57 33.84"/><polygon class="cls-7" points="119.87 43.8 120.13 41.43 145.66 52.24 145.4 54.61 119.87 43.8"/><polygon class="cls-7" points="111.05 36 111.31 33.63 123.92 38.96 123.66 41.34 111.05 36"/><polygon class="cls-7" points="105.8 41.93 106.06 39.55 123.07 46.74 122.81 49.12 105.8 41.93"/><polygon class="cls-7" points="109.35 51.56 109.61 49.2 122.22 54.53 121.96 56.9 109.35 51.56"/><polygon class="cls-7" points="103.85 45.17 104.11 42.79 122.64 50.63 122.39 53.01 103.85 45.17"/><polygon class="cls-7" points="104.53 53.61 104.79 51.23 121.8 58.42 121.53 60.8 104.53 53.61"/><polygon class="cls-7" points="147.52 55.5 147.78 53.13 154.47 55.96 154.21 58.33 147.52 55.5"/><polygon class="cls-7" points="136.17 54.78 136.43 52.4 154.04 59.85 153.78 62.23 136.17 54.78"/><polygon class="cls-7" points="129.57 56.05 129.82 53.67 153.62 63.74 153.36 66.12 129.57 56.05"/><polygon class="cls-7" points="135.32 62.56 135.58 60.19 153.19 67.64 152.94 70.01 135.32 62.56"/><polygon class="cls-7" points="125.39 58.35 125.64 55.98 133.16 59.16 132.9 61.53 125.39 58.35"/><polygon class="cls-7" points="143.28 74.07 143.54 71.69 152.35 75.42 152.08 77.8 143.28 74.07"/><polygon class="cls-7" points="134.05 74.24 134.31 71.86 151.92 79.32 151.66 81.69 134.05 74.24"/><polygon class="cls-7" points="123.85 61.78 124.11 59.4 152.77 71.53 152.51 73.91 123.85 61.78"/><polygon class="cls-7" points="144.12 86.65 144.38 84.27 151.07 87.09 150.81 89.48 144.12 86.65"/><polygon class="cls-7" points="124.11 70.03 124.37 67.66 131.88 70.84 131.62 73.21 124.11 70.03"/><polygon class="cls-7" points="114.8 62.02 115.05 59.64 140.75 70.51 140.49 72.89 114.8 62.02"/><polygon class="cls-7" points="123.68 73.93 123.95 71.55 151.5 83.21 151.24 85.59 123.68 73.93"/><polygon class="cls-7" points="132.77 85.92 133.03 83.54 150.65 91 150.39 93.37 132.77 85.92"/><polygon class="cls-7" points="112.17 64.98 112.43 62.61 120.94 66.21 120.69 68.58 112.17 64.98"/><polygon class="cls-7" points="116.47 74.95 116.73 72.57 142.27 83.37 142.01 85.75 116.47 74.95"/><polygon class="cls-7" points="107.65 67.15 107.91 64.76 120.52 70.1 120.26 72.48 107.65 67.15"/><polygon class="cls-7" points="102.41 73.06 102.67 70.69 119.67 77.89 119.41 80.26 102.41 73.06"/><polygon class="cls-7" points="122.84 81.71 123.1 79.34 130.61 82.52 130.35 84.89 122.84 81.71"/><polygon class="cls-7" points="77.61 54.43 77.87 52.05 91.67 57.89 91.42 60.28 77.61 54.43"/><polygon class="cls-7" points="78.46 46.64 78.72 44.26 88.77 48.52 88.51 50.9 78.46 46.64"/><polygon class="cls-7" points="78.03 50.53 78.29 48.16 103.94 59.01 103.68 61.38 78.03 50.53"/><polygon class="cls-7" points="77.18 58.32 77.44 55.94 86.25 59.66 85.99 62.05 77.18 58.32"/><polygon class="cls-7" points="76.76 62.21 77.02 59.84 94.63 67.29 94.37 69.66 76.76 62.21"/><polygon class="cls-7" points="112.75 20.43 113.01 18.05 125.62 23.39 125.36 25.77 112.75 20.43"/><polygon class="cls-7" points="107.25 14.02 107.51 11.65 126.04 19.49 125.78 21.87 107.25 14.02"/><polygon class="cls-7" points="107.93 22.46 108.19 20.09 125.19 27.29 124.93 29.66 107.93 22.46"/><polygon class="cls-7" points="81.43 19.4 81.69 17.02 107.34 27.87 107.08 30.25 81.43 19.4"/><polygon class="cls-7" points="80.58 27.18 80.84 24.8 89.64 28.53 89.39 30.9 80.58 27.18"/><polygon class="cls-7" points="80.16 31.08 80.42 28.69 98.03 36.15 97.77 38.53 80.16 31.08"/><polygon class="cls-7" points="79.73 34.97 80 32.58 97.6 40.03 97.34 42.42 79.73 34.97"/><polygon class="cls-7" points="79.31 38.85 79.57 36.48 86.47 39.4 86.21 41.77 79.31 38.85"/><polygon class="cls-7" points="78.88 42.75 79.14 40.37 101.66 49.9 101.4 52.28 78.88 42.75"/><polygon class="cls-7" points="126.24 50.57 126.5 48.19 134 51.37 133.74 53.75 126.24 50.57"/><polygon class="cls-7" points="81.01 23.29 81.27 20.91 95.07 26.76 94.81 29.13 81.01 23.29"/><polygon class="cls-7" points="81.86 15.5 82.11 13.13 92.17 17.38 91.91 19.75 81.86 15.5"/><polygon class="cls-7" points="83.13 3.82 83.39 1.45 101 8.9 100.74 11.27 83.13 3.82"/><polygon class="cls-7" points="82.71 7.72 82.97 5.33 89.87 8.26 89.61 10.64 82.71 7.72"/><polygon class="cls-7" points="82.28 11.61 82.54 9.23 105.06 18.76 104.8 21.14 82.28 11.61"/><g class="cls-8"><polygon class="cls-9" points="146.68 42.92 146.94 40.56 155.74 44.28 155.48 46.65 146.68 42.92"/></g><polygon class="cls-10" points="138.72 31.42 138.98 29.04 156.59 36.49 156.33 38.88 138.72 31.42"/><polygon class="cls-11" points="132.96 24.91 133.23 22.54 157.02 32.6 156.76 34.98 132.96 24.91"/><polygon class="cls-12" points="128.78 27.22 129.04 24.84 136.55 28.01 136.29 30.39 128.78 27.22"/><polygon class="cls-13" points="137.45 43.1 137.71 40.72 155.32 48.17 155.06 50.55 137.45 43.1"/><polygon class="cls-14" points="127.24 30.64 127.5 28.26 156.17 40.39 155.91 42.77 127.24 30.64"/><polygon class="cls-15" points="127.51 38.9 127.77 36.51 135.28 39.69 135.02 42.07 127.51 38.9"/><polygon class="cls-16" points="118.2 30.87 118.45 28.5 144.15 39.38 143.89 41.75 118.2 30.87"/><polygon class="cls-17" points="127.08 42.78 127.34 40.41 154.89 52.07 154.63 54.44 127.08 42.78"/><polygon class="cls-18" points="115.57 33.84 115.83 31.46 124.34 35.06 124.08 37.45 115.57 33.84"/><polygon class="cls-19" points="119.87 43.8 120.13 41.43 145.66 52.24 145.4 54.61 119.87 43.8"/><polygon class="cls-20" points="111.05 36 111.31 33.63 123.92 38.96 123.66 41.34 111.05 36"/><polygon class="cls-21" points="105.8 41.93 106.06 39.55 123.07 46.74 122.81 49.12 105.8 41.93"/><polygon class="cls-22" points="109.35 51.56 109.61 49.2 122.22 54.53 121.96 56.9 109.35 51.56"/><polygon class="cls-23" points="103.85 45.17 104.11 42.79 122.64 50.63 122.39 53.01 103.85 45.17"/><polygon class="cls-24" points="104.53 53.61 104.79 51.23 121.8 58.42 121.53 60.8 104.53 53.61"/><g class="cls-25"><polygon class="cls-26" points="147.52 55.5 147.78 53.13 154.47 55.96 154.21 58.33 147.52 55.5"/><polygon class="cls-27" points="136.17 54.78 136.43 52.4 154.04 59.85 153.78 62.23 136.17 54.78"/><polygon class="cls-28" points="129.57 56.05 129.82 53.67 153.62 63.74 153.36 66.12 129.57 56.05"/></g><g class="cls-8"><polygon class="cls-29" points="135.32 62.56 135.58 60.19 153.19 67.64 152.94 70.01 135.32 62.56"/></g><g class="cls-8"><polygon class="cls-30" points="125.39 58.35 125.64 55.98 133.16 59.16 132.9 61.53 125.39 58.35"/></g><polygon class="cls-31" points="143.28 74.07 143.54 71.69 152.35 75.42 152.08 77.8 143.28 74.07"/><polygon class="cls-32" points="134.05 74.24 134.31 71.86 151.92 79.32 151.66 81.69 134.05 74.24"/><polygon class="cls-33" points="123.85 61.78 124.11 59.4 152.77 71.53 152.51 73.91 123.85 61.78"/><polygon class="cls-34" points="144.12 86.65 144.38 84.27 151.07 87.09 150.81 89.48 144.12 86.65"/><polygon class="cls-35" points="124.11 70.03 124.37 67.66 131.88 70.84 131.62 73.21 124.11 70.03"/><polygon class="cls-36" points="114.8 62.02 115.05 59.64 140.75 70.51 140.49 72.89 114.8 62.02"/><polygon class="cls-37" points="123.68 73.93 123.95 71.55 151.5 83.21 151.24 85.59 123.68 73.93"/><polygon class="cls-38" points="132.77 85.92 133.03 83.54 150.65 91 150.39 93.37 132.77 85.92"/><polygon class="cls-39" points="112.17 64.98 112.43 62.61 120.94 66.21 120.69 68.58 112.17 64.98"/><polygon class="cls-40" points="116.47 74.95 116.73 72.57 142.27 83.37 142.01 85.75 116.47 74.95"/><polygon class="cls-41" points="107.65 67.15 107.91 64.76 120.52 70.1 120.26 72.48 107.65 67.15"/><polygon class="cls-42" points="102.41 73.06 102.67 70.69 119.67 77.89 119.41 80.26 102.41 73.06"/><g class="cls-8"><polygon class="cls-43" points="122.84 81.71 123.1 79.34 130.61 82.52 130.35 84.89 122.84 81.71"/></g><g class="cls-8"><polygon class="cls-44" points="77.61 54.43 77.87 52.05 91.67 57.89 91.42 60.28 77.61 54.43"/></g><g class="cls-8"><polygon class="cls-45" points="78.46 46.64 78.72 44.26 88.77 48.52 88.51 50.9 78.46 46.64"/></g><g class="cls-8"><polygon class="cls-46" points="78.03 50.53 78.29 48.16 103.94 59.01 103.68 61.38 78.03 50.53"/></g><g class="cls-8"><polygon class="cls-47" points="77.18 58.32 77.44 55.94 86.25 59.66 85.99 62.05 77.18 58.32"/></g><g class="cls-8"><polygon class="cls-48" points="76.76 62.21 77.02 59.84 94.63 67.29 94.37 69.66 76.76 62.21"/></g><g class="cls-25"><polygon class="cls-49" points="112.75 20.43 113.01 18.05 125.62 23.39 125.36 25.77 112.75 20.43"/><polygon class="cls-50" points="107.25 14.02 107.51 11.65 126.04 19.49 125.78 21.87 107.25 14.02"/><polygon class="cls-51" points="107.93 22.46 108.19 20.09 125.19 27.29 124.93 29.66 107.93 22.46"/></g><g class="cls-8"><polygon class="cls-52" points="81.43 19.4 81.69 17.02 107.34 27.87 107.08 30.25 81.43 19.4"/></g><g class="cls-8"><polygon class="cls-53" points="80.58 27.18 80.84 24.8 89.64 28.53 89.39 30.9 80.58 27.18"/></g><g class="cls-25"><polygon class="cls-54" points="80.16 31.08 80.42 28.69 98.03 36.15 97.77 38.53 80.16 31.08"/><polygon class="cls-55" points="79.73 34.97 80 32.58 97.6 40.03 97.34 42.42 79.73 34.97"/><polygon class="cls-56" points="79.31 38.85 79.57 36.48 86.47 39.4 86.21 41.77 79.31 38.85"/></g><polygon class="cls-57" points="78.88 42.75 79.14 40.37 101.66 49.9 101.4 52.28 78.88 42.75"/><g class="cls-8"><polygon class="cls-58" points="126.24 50.57 126.5 48.19 134 51.37 133.74 53.75 126.24 50.57"/></g><g class="cls-8"><polygon class="cls-59" points="81.01 23.29 81.27 20.91 95.07 26.76 94.81 29.13 81.01 23.29"/></g><polygon class="cls-60" points="81.86 15.5 82.11 13.13 92.17 17.38 91.91 19.75 81.86 15.5"/><g class="cls-25"><polygon class="cls-61" points="83.13 3.82 83.39 1.45 101 8.9 100.74 11.27 83.13 3.82"/><polygon class="cls-62" points="82.71 7.72 82.97 5.33 89.87 8.26 89.61 10.64 82.71 7.72"/><polygon class="cls-63" points="82.28 11.61 82.54 9.23 105.06 18.76 104.8 21.14 82.28 11.61"/></g><polygon class="cls-64" points="146.68 42.92 146.94 40.56 155.74 44.28 155.48 46.65 146.68 42.92"/><polygon class="cls-64" points="138.72 31.42 138.98 29.04 156.59 36.49 156.33 38.88 138.72 31.42"/><polygon class="cls-64" points="132.96 24.91 133.23 22.54 157.02 32.6 156.76 34.98 132.96 24.91"/><polygon class="cls-64" points="128.78 27.22 129.04 24.84 136.55 28.01 136.29 30.39 128.78 27.22"/><polygon class="cls-64" points="137.45 43.1 137.71 40.72 155.32 48.17 155.06 50.55 137.45 43.1"/><polygon class="cls-64" points="127.24 30.64 127.5 28.26 156.17 40.39 155.91 42.77 127.24 30.64"/><polygon class="cls-64" points="127.51 38.9 127.77 36.51 135.28 39.69 135.02 42.07 127.51 38.9"/><polygon class="cls-64" points="118.2 30.87 118.45 28.5 144.15 39.38 143.89 41.75 118.2 30.87"/><polygon class="cls-64" points="127.08 42.78 127.34 40.41 154.89 52.07 154.63 54.44 127.08 42.78"/><polygon class="cls-64" points="115.57 33.84 115.83 31.46 124.34 35.06 124.08 37.45 115.57 33.84"/><polygon class="cls-64" points="119.87 43.8 120.13 41.43 145.66 52.24 145.4 54.61 119.87 43.8"/><polygon class="cls-64" points="111.05 36 111.31 33.63 123.92 38.96 123.66 41.34 111.05 36"/><polygon class="cls-64" points="105.8 41.93 106.06 39.55 123.07 46.74 122.81 49.12 105.8 41.93"/><polygon class="cls-64" points="109.35 51.56 109.61 49.2 122.22 54.53 121.96 56.9 109.35 51.56"/><polygon class="cls-64" points="103.85 45.17 104.11 42.79 122.64 50.63 122.39 53.01 103.85 45.17"/><polygon class="cls-64" points="104.53 53.61 104.79 51.23 121.8 58.42 121.53 60.8 104.53 53.61"/><polygon class="cls-64" points="147.52 55.5 147.78 53.13 154.47 55.96 154.21 58.33 147.52 55.5"/><polygon class="cls-64" points="136.17 54.78 136.43 52.4 154.04 59.85 153.78 62.23 136.17 54.78"/><polygon class="cls-64" points="129.57 56.05 129.82 53.67 153.62 63.74 153.36 66.12 129.57 56.05"/><polygon class="cls-64" points="135.32 62.56 135.58 60.19 153.19 67.64 152.94 70.01 135.32 62.56"/><polygon class="cls-64" points="125.39 58.35 125.64 55.98 133.16 59.16 132.9 61.53 125.39 58.35"/><polygon class="cls-64" points="143.28 74.07 143.54 71.69 152.35 75.42 152.08 77.8 143.28 74.07"/><polygon class="cls-64" points="134.05 74.24 134.31 71.86 151.92 79.32 151.66 81.69 134.05 74.24"/><polygon class="cls-64" points="123.85 61.78 124.11 59.4 152.77 71.53 152.51 73.91 123.85 61.78"/><polygon class="cls-64" points="144.12 86.65 144.38 84.27 151.07 87.09 150.81 89.48 144.12 86.65"/><polygon class="cls-64" points="124.11 70.03 124.37 67.66 131.88 70.84 131.62 73.21 124.11 70.03"/><polygon class="cls-64" points="114.8 62.02 115.05 59.64 140.75 70.51 140.49 72.89 114.8 62.02"/><polygon class="cls-64" points="123.68 73.93 123.95 71.55 151.5 83.21 151.24 85.59 123.68 73.93"/><polygon class="cls-64" points="132.77 85.92 133.03 83.54 150.65 91 150.39 93.37 132.77 85.92"/><polygon class="cls-64" points="112.17 64.98 112.43 62.61 120.94 66.21 120.69 68.58 112.17 64.98"/><polygon class="cls-64" points="116.47 74.95 116.73 72.57 142.27 83.37 142.01 85.75 116.47 74.95"/><polygon class="cls-64" points="107.65 67.15 107.91 64.76 120.52 70.1 120.26 72.48 107.65 67.15"/><polygon class="cls-64" points="102.41 73.06 102.67 70.69 119.67 77.89 119.41 80.26 102.41 73.06"/><polygon class="cls-64" points="122.84 81.71 123.1 79.34 130.61 82.52 130.35 84.89 122.84 81.71"/><polygon class="cls-64" points="77.61 54.43 77.87 52.05 91.67 57.89 91.42 60.28 77.61 54.43"/><polygon class="cls-64" points="78.46 46.64 78.72 44.26 88.77 48.52 88.51 50.9 78.46 46.64"/><polygon class="cls-64" points="78.03 50.53 78.29 48.16 103.94 59.01 103.68 61.38 78.03 50.53"/><polygon class="cls-64" points="77.18 58.32 77.44 55.94 86.25 59.66 85.99 62.05 77.18 58.32"/><polygon class="cls-64" points="76.76 62.21 77.02 59.84 94.63 67.29 94.37 69.66 76.76 62.21"/><polygon class="cls-64" points="112.75 20.43 113.01 18.05 125.62 23.39 125.36 25.77 112.75 20.43"/><polygon class="cls-64" points="107.25 14.02 107.51 11.65 126.04 19.49 125.78 21.87 107.25 14.02"/><polygon class="cls-64" points="107.93 22.46 108.19 20.09 125.19 27.29 124.93 29.66 107.93 22.46"/><polygon class="cls-64" points="81.43 19.4 81.69 17.02 107.34 27.87 107.08 30.25 81.43 19.4"/><polygon class="cls-64" points="80.58 27.18 80.84 24.8 89.64 28.53 89.39 30.9 80.58 27.18"/><polygon class="cls-64" points="80.16 31.08 80.42 28.69 98.03 36.15 97.77 38.53 80.16 31.08"/><polygon class="cls-64" points="79.73 34.97 80 32.58 97.6 40.03 97.34 42.42 79.73 34.97"/><polygon class="cls-64" points="79.31 38.85 79.57 36.48 86.47 39.4 86.21 41.77 79.31 38.85"/><polygon class="cls-64" points="78.88 42.75 79.14 40.37 101.66 49.9 101.4 52.28 78.88 42.75"/><polygon class="cls-64" points="126.24 50.57 126.5 48.19 134 51.37 133.74 53.75 126.24 50.57"/><polygon class="cls-64" points="81.01 23.29 81.27 20.91 95.07 26.76 94.81 29.13 81.01 23.29"/><polygon class="cls-64" points="81.86 15.5 82.11 13.13 92.17 17.38 91.91 19.75 81.86 15.5"/><polygon class="cls-64" points="83.13 3.82 83.39 1.45 101 8.9 100.74 11.27 83.13 3.82"/><polygon class="cls-64" points="82.71 7.72 82.97 5.33 89.87 8.26 89.61 10.64 82.71 7.72"/><polygon class="cls-64" points="82.28 11.61 82.54 9.23 105.06 18.76 104.8 21.14 82.28 11.61"/></g><g class="cls-65"><polygon points="14.33 90.56 20.51 93.86 26.73 90.56 20.55 87.27 14.33 90.56"/></g><g class="cls-66"><polygon class="cls-67" points="14.33 90.35 20.51 93.65 26.73 90.35 20.55 87.05 14.33 90.35"/></g><g class="cls-68"><polygon class="cls-67" points="14.85 88.3 20.51 91.32 26.2 88.3 20.55 85.28 14.85 88.3"/></g><g class="cls-69"><polygon class="cls-67" points="15.38 86.26 20.51 89 25.68 86.26 20.54 83.52 15.38 86.26"/></g><g class="cls-70"><polygon class="cls-67" points="15.9 84.21 20.51 86.67 25.15 84.21 20.54 81.75 15.9 84.21"/></g><g class="cls-71"><polygon class="cls-67" points="16.42 82.17 20.51 84.35 24.63 82.17 20.54 79.98 16.42 82.17"/></g><g class="cls-72"><polygon class="cls-67" points="16.95 80.12 20.52 82.03 24.11 80.12 20.54 78.22 16.95 80.12"/></g><g class="cls-73"><polygon class="cls-67" points="17.47 78.08 20.52 79.7 23.58 78.08 20.54 76.45 17.47 78.08"/></g><g class="cls-74"><polygon class="cls-67" points="18 76.03 20.52 77.38 23.06 76.03 20.54 74.69 18 76.03"/></g><g class="cls-75"><polygon class="cls-67" points="18.52 73.99 20.52 75.06 22.54 73.99 20.53 72.92 18.52 73.99"/></g><g class="cls-76"><polygon class="cls-67" points="19.04 71.94 20.52 72.73 22.01 71.94 20.53 71.15 19.04 71.94"/></g><g class="cls-77"><polygon class="cls-67" points="19.57 69.9 20.52 70.41 21.49 69.9 20.53 69.39 19.57 69.9"/></g><polygon class="cls-67" points="20.09 67.85 20.53 68.08 20.97 67.85 20.53 67.62 20.09 67.85"/><g class="cls-65"><polygon points="26.91 83.08 34.02 86.87 41.17 83.08 34.06 79.28 26.91 83.08"/></g><g class="cls-66"><polygon class="cls-78" points="26.91 82.82 34.02 86.62 41.17 82.82 34.06 79.03 26.91 82.82"/></g><g class="cls-68"><polygon class="cls-78" points="27.51 80.47 34.02 83.95 40.57 80.47 34.06 77 27.51 80.47"/></g><g class="cls-69"><polygon class="cls-78" points="28.11 78.12 34.02 81.27 39.96 78.12 34.06 74.97 28.11 78.12"/></g><g class="cls-70"><polygon class="cls-78" points="28.72 75.77 34.02 78.6 39.36 75.77 34.06 72.93 28.72 75.77"/></g><g class="cls-71"><polygon class="cls-78" points="29.32 73.41 34.02 75.93 38.76 73.41 34.05 70.9 29.32 73.41"/></g><g class="cls-72"><polygon class="cls-78" points="29.92 71.06 34.03 73.25 38.16 71.06 34.05 68.87 29.92 71.06"/></g><g class="cls-73"><polygon class="cls-78" points="30.52 68.71 34.03 70.58 37.55 68.71 34.05 66.84 30.52 68.71"/></g><g class="cls-74"><polygon class="cls-78" points="31.13 66.36 34.03 67.91 36.95 66.36 34.05 64.81 31.13 66.36"/></g><g class="cls-75"><polygon class="cls-78" points="31.73 64 34.03 65.23 36.35 64 34.05 62.77 31.73 64"/></g><g class="cls-76"><polygon class="cls-78" points="32.33 61.65 34.03 62.56 35.75 61.65 34.04 60.74 32.33 61.65"/></g><g class="cls-77"><polygon class="cls-78" points="32.93 59.3 34.03 59.88 35.15 59.3 34.04 58.71 32.93 59.3"/></g><polygon class="cls-78" points="33.53 56.94 34.03 57.21 34.54 56.94 34.04 56.68 33.53 56.94"/><g class="cls-65"><polygon points="4.74 96.11 10.14 99 15.59 96.11 10.18 93.23 4.74 96.11"/></g><g class="cls-66"><polygon class="cls-79" points="5.26 96.39 10.15 99 15.07 96.39 10.18 93.78 5.26 96.39"/></g><g class="cls-68"><polygon class="cls-79" points="5.67 94.78 10.15 97.17 14.65 94.78 10.18 92.39 5.67 94.78"/></g><g class="cls-69"><polygon class="cls-79" points="6.09 93.16 10.15 95.33 14.24 93.16 10.18 90.99 6.09 93.16"/></g><g class="cls-70"><polygon class="cls-79" points="6.5 91.54 10.15 93.49 13.82 91.54 10.18 89.59 6.5 91.54"/></g><g class="cls-71"><polygon class="cls-79" points="6.92 89.92 10.15 91.65 13.41 89.92 10.18 88.19 6.92 89.92"/></g><g class="cls-72"><polygon class="cls-79" points="7.33 88.3 10.15 89.81 12.99 88.3 10.17 86.8 7.33 88.3"/></g><g class="cls-73"><polygon class="cls-79" points="7.75 86.69 10.15 87.97 12.58 86.69 10.17 85.4 7.75 86.69"/></g><g class="cls-74"><polygon class="cls-79" points="8.16 85.07 10.15 86.13 12.17 85.07 10.17 84 8.16 85.07"/></g><g class="cls-75"><polygon class="cls-79" points="8.57 83.45 10.16 84.3 11.75 83.45 10.17 82.61 8.57 83.45"/></g><g class="cls-76"><polygon class="cls-79" points="8.99 81.83 10.16 82.46 11.34 81.83 10.17 81.21 8.99 81.83"/></g><g class="cls-77"><polygon class="cls-79" points="9.4 80.22 10.16 80.62 10.92 80.22 10.17 79.81 9.4 80.22"/></g><polygon class="cls-79" points="9.82 78.6 10.16 78.78 10.51 78.6 10.17 78.41 9.82 78.6"/><path class="cls-80" d="M32.65,91.05c0,1.71,1,3.4,3.2,5l2.61,1.34,53.09,27.28,1.23.69c.39.2.79.41,1.21.6l.64.3.41.18c.73.32,1.48.61,2.24.87l.4.14c.6.21,1.21.4,1.82.57l.51.15c.39.11.8.2,1.2.29s1,.24,1.48.33L104,129c.38.06.76.13,1.14.18s1,.12,1.46.17l1,.1c.52.05,1,.07,1.57.09l.92.05h1.43c.38,0,.75,0,1.12,0s.6,0,.9,0c.61,0,1.22-.06,1.83-.12s1.45-.13,2.16-.23l.42-.06,1.6-.26c.56-.1,1.11-.21,1.66-.33l1-.22c.58-.14,1.15-.3,1.72-.45l.93-.26.88-.29c.47-.15.93-.3,1.39-.47l.92-.35c.43-.17.86-.33,1.27-.51l.93-.42,1.19-.56c.31-.15.61-.31.91-.47.54-.29,1.07-.57,1.59-.88s1-.64,1.51-1l.18-.12c.44-.32.86-.64,1.25-1l.23-.2c.31-.26.6-.53.88-.8l.07-.08c.25-.25.49-.5.71-.76.08-.08.15-.17.23-.26l.39-.5c.07-.08.13-.17.2-.26s.28-.4.4-.6a1.63,1.63,0,0,0,.11-.17c.15-.24.29-.48.42-.73a1.76,1.76,0,0,1,.09-.2c.09-.18.17-.36.25-.54l.12-.32c.05-.14.11-.28.15-.43s.07-.21.1-.31.08-.3.11-.44,0-.21.07-.31.05-.3.07-.46a2.91,2.91,0,0,0,0-.31c0-.15,0-.3,0-.45s0-.29,0-.44c0,2.23,0,4.47,0,6.7a1.93,1.93,0,0,1,0,.24c0,.07,0,.15,0,.22s0,.28,0,.42,0,.22,0,.33,0,.29-.07.43a1.29,1.29,0,0,1,0,.19.58.58,0,0,1,0,.14c0,.15-.07.29-.11.43s-.06.21-.1.32-.1.29-.16.44l-.08.23,0,.07-.26.56a1.51,1.51,0,0,1-.09.18,7.68,7.68,0,0,1-.41.74,0,0,0,0,0,0,0,.44.44,0,0,0-.08.11l-.42.63c-.07.08-.13.17-.2.26l-.4.5-.11.14-.1.11c-.23.26-.47.53-.73.78l-.06.06c-.27.27-.57.55-.88.81l-.1.09-.12.1c-.4.33-.82.65-1.26,1l-.18.11c-.48.34-1,.67-1.51,1-.33.2-.67.39-1,.58l-.6.3c-.29.16-.59.31-.89.46s-.79.39-1.19.57l-.93.41q-.62.27-1.26.51c-.31.12-.62.25-.94.36s-.9.31-1.35.46l-.92.3-.2.06c-.23.07-.47.12-.7.18-.58.17-1.16.32-1.75.46l-1,.23c-.55.12-1.09.23-1.64.33-.17,0-.33.07-.5.09-.37.07-.75.12-1.12.17l-.4.06c-.64.08-1.28.16-1.93.22h-.24c-.62,0-1.24.09-1.86.11l-.74.05h-2.68l-.94,0-1.29-.06-.26,0-1-.11c-.37,0-.74-.06-1.11-.11l-.34,0-1.14-.18-1-.16-.36-.08c-.5-.1-1-.22-1.48-.33l-.85-.19-.36-.11-.49-.14c-.63-.18-1.25-.37-1.87-.59l-.35-.11-.19-.07c-.7-.25-1.39-.52-2.07-.82l-.4-.18-.64-.29c-.42-.2-.82-.4-1.21-.61s-.83-.45-1.23-.68L38.44,104l-2.61-1.34c-2.17-1.55-3.2-3.24-3.2-5Q32.64,94.4,32.65,91.05Z"/><path class="cls-81" d="M103.85,85.05c6.12,3.25,9.27,7.53,9.33,11.83a46.91,46.91,0,0,1,18.3,4.07c.42.2.83.4,1.23.61,11.29,6,12,15.7,1.26,22.09s-26.6,8.1-38.93,2.75l-.41-.18-.64-.3c-.42-.19-.82-.4-1.21-.6l-1.23-.69L38.46,97.35,35.85,96C30.66,92.3,32,87.82,38.34,84c6.65-4,16-3.53,23.77-.39,11.8-4.89,28.87-4.74,40.46.76Z"/><g class="cls-82"><g class="cls-66"><path class="cls-83" d="M104.43,35c6.12,3.24,9.27,7.52,9.33,11.82a47,47,0,0,1,18.29,4.07c.43.2.84.4,1.23.61,11.3,6,12,15.7,1.27,22.09S108,81.66,95.61,76.3l-.4-.18-.64-.29c-.42-.2-.82-.41-1.21-.61s-.83-.45-1.23-.69L39,47.25l-2.6-1.34c-5.19-3.71-3.85-8.19,2.49-12,6.65-4,16-3.53,23.77-.39,11.8-4.89,28.87-4.74,40.46.76C103.59,34.52,104,34.74,104.43,35Z"/></g><g class="cls-68"><path class="cls-84" d="M104.43,39.2c6.12,3.24,9.27,7.52,9.33,11.82a47,47,0,0,1,18.29,4.07c.43.2.84.41,1.23.62,11.3,6,12,15.69,1.27,22.09S108,85.9,95.61,80.54l-.4-.18-.64-.29c-.42-.2-.82-.4-1.21-.61s-.83-.45-1.23-.68L39,51.49l-2.6-1.34c-5.19-3.71-3.85-8.19,2.49-12,6.65-4,16-3.52,23.77-.39,11.8-4.88,28.88-4.76,40.46.77C103.59,38.77,104,39,104.43,39.2Z"/></g><g class="cls-69"><path class="cls-85" d="M104.43,43.45c6.12,3.24,9.27,7.52,9.33,11.82a47,47,0,0,1,18.29,4.07c.43.2.84.4,1.23.61,11.3,6,12,15.7,1.27,22.09S108,90.15,95.61,84.79l-.4-.18-.64-.29c-.42-.2-.82-.41-1.21-.61L92.13,83,39,55.74l-2.6-1.34c-5.19-3.71-3.85-8.19,2.49-12,6.65-4,16-3.53,23.77-.39,11.8-4.89,28.88-4.77,40.46.76C103.59,43,104,43.23,104.43,43.45Z"/></g><g class="cls-70"><path class="cls-86" d="M104.43,47.69c6.12,3.24,9.27,7.52,9.33,11.82a47,47,0,0,1,18.29,4.07c.43.2.84.41,1.23.62,11.3,6,12,15.69,1.27,22.09S108,94.39,95.61,89l-.4-.18-.64-.29c-.42-.2-.82-.4-1.21-.61s-.83-.45-1.23-.68L39,60l-2.6-1.34c-5.19-3.71-3.85-8.19,2.49-12,6.65-4,16-3.52,23.77-.39,11.8-4.89,28.88-4.76,40.46.77C103.59,47.26,104,47.47,104.43,47.69Z"/></g><g class="cls-71"><path class="cls-87" d="M104.43,51.93c6.12,3.25,9.27,7.53,9.33,11.83a47,47,0,0,1,18.29,4.07c.43.2.84.4,1.23.61,11.3,6,12,15.7,1.27,22.09s-26.6,8.1-38.94,2.74l-.4-.17c-.21-.1-.43-.19-.64-.3-.42-.19-.82-.4-1.21-.6l-1.23-.69L39,64.22l-2.6-1.33c-5.19-3.71-3.85-8.19,2.49-12,6.65-4,16-3.53,23.77-.39,11.8-4.89,28.87-4.74,40.46.76Z"/></g><g class="cls-72"><path class="cls-88" d="M104.43,56.18c6.12,3.24,9.27,7.52,9.33,11.82a47,47,0,0,1,18.29,4.07c.43.2.84.41,1.23.62,11.3,6,12,15.69,1.27,22.09s-26.6,8.1-38.94,2.74l-.4-.18-.64-.29c-.42-.2-.82-.4-1.21-.61s-.83-.45-1.23-.69L39,68.47l-2.6-1.34c-5.19-3.71-3.85-8.19,2.49-12,6.65-4,16-3.52,23.77-.39,11.8-4.89,28.87-4.74,40.46.77C103.59,55.75,104,56,104.43,56.18Z"/></g><g class="cls-73"><path class="cls-89" d="M104.43,60.42c6.12,3.25,9.27,7.53,9.33,11.83a46.82,46.82,0,0,1,18.29,4.07c.43.2.84.4,1.23.61,11.3,6,12,15.7,1.27,22.09s-26.6,8.1-38.94,2.74l-.4-.17-.64-.3c-.42-.19-.82-.4-1.21-.61s-.83-.45-1.23-.68L39,72.71l-2.6-1.33c-5.19-3.71-3.85-8.19,2.49-12,6.65-4,16-3.53,23.77-.4,11.8-4.88,28.87-4.73,40.46.77Z"/></g><g class="cls-74"><path class="cls-90" d="M104.43,64.67c6.12,3.24,9.27,7.52,9.33,11.82a47,47,0,0,1,18.29,4.07c.43.2.84.41,1.23.62,11.32,6,12,15.69,1.27,22.09S108,111.37,95.61,106l-.4-.18-.64-.29c-.42-.2-.82-.4-1.21-.61s-.83-.45-1.23-.69L39,77l-2.6-1.34c-5.19-3.71-3.85-8.19,2.49-12,6.65-4,16-3.52,23.77-.39,11.8-4.89,28.87-4.74,40.46.77C103.59,64.24,104,64.45,104.43,64.67Z"/></g><g class="cls-75"><path class="cls-91" d="M104.43,68.91c6.12,3.25,9.27,7.53,9.33,11.83a47,47,0,0,1,18.29,4.06c.43.21.84.41,1.23.62,11.32,6,12,15.7,1.27,22.09s-26.6,8.1-38.94,2.74l-.4-.18-.64-.29c-.42-.19-.82-.4-1.21-.61s-.83-.45-1.23-.68L39,81.2l-2.6-1.33c-5.19-3.71-3.85-8.19,2.49-12,6.65-4,16-3.53,23.77-.4,11.8-4.88,28.87-4.74,40.46.77C103.59,68.48,104,68.69,104.43,68.91Z"/></g><g class="cls-76"><path class="cls-92" d="M104.43,73.16c6.12,3.24,9.27,7.52,9.33,11.82a47,47,0,0,1,18.29,4.07c.43.2.84.41,1.23.62,11.32,6,12,15.69,1.27,22.09s-26.6,8.1-38.94,2.74l-.4-.18-.64-.29c-.42-.2-.82-.4-1.21-.61s-.83-.45-1.23-.69L39,85.45l-2.6-1.34c-5.19-3.71-3.85-8.19,2.49-12,6.65-4,16-3.52,23.77-.39,11.8-4.89,28.87-4.74,40.46.77C103.59,72.73,104,72.94,104.43,73.16Z"/></g><g class="cls-77"><path class="cls-93" d="M104.43,77.4c6.12,3.25,9.27,7.52,9.33,11.83a47,47,0,0,1,18.29,4.06c.43.21.84.41,1.23.62,11.32,6,12,15.7,1.27,22.09s-26.6,8.1-38.94,2.74l-.4-.18-.64-.29c-.42-.19-.82-.4-1.21-.61s-.83-.45-1.23-.68L39,89.69l-2.6-1.33c-5.19-3.71-3.85-8.19,2.49-12,6.65-4,16-3.53,23.77-.4,11.8-4.88,28.87-4.74,40.46.77C103.59,77,104,77.18,104.43,77.4Z"/></g><path class="cls-81" d="M104.43,81.65c6.12,3.24,9.27,7.52,9.33,11.82a47,47,0,0,1,18.29,4.07c.43.2.84.41,1.23.61,11.3,6,12,15.7,1.27,22.1S108,128.35,95.61,123l-.4-.18-.64-.29c-.42-.2-.82-.4-1.21-.61s-.83-.45-1.23-.69L39,93.94l-2.6-1.34c-5.19-3.71-3.85-8.19,2.49-12,6.65-4,16-3.52,23.77-.39,11.8-4.89,28.87-4.74,40.46.77C103.59,81.21,104,81.43,104.43,81.65Z"/></g><polygon class="cls-94" points="122.31 111.07 125.91 109.15 91.89 91.1 88.29 93.02 122.31 111.07"/><path class="cls-95" d="M122.3,115v-3.94l3.6-1.92v3.94a1.75,1.75,0,0,1-.82,1.64l-3.59,1.92A1.75,1.75,0,0,0,122.3,115Z"/><path class="cls-96" d="M122.3,115v-3.94l-34-18V97a5.55,5.55,0,0,0,2.78,4.42l28.44,15.09C121,117.29,122.29,116.63,122.3,115Z"/><polygon class="cls-97" points="122.31 111.07 125.91 109.15 126.07 56.21 122.47 58.13 122.31 111.07"/><polygon class="cls-98" points="122.47 58.13 126.07 56.21 92.06 38.17 88.46 40.09 122.47 58.13"/><polygon class="cls-99" points="88.46 40.09 88.29 93.02 122.31 111.07 122.47 58.13 88.46 40.09"/><g class="cls-100"><g class="cls-101"><g class="cls-100"><path class="cls-102" d="M98.47,43.74l3.6-1.92a1.88,1.88,0,0,1-.23-.16l-3.59,1.92a.89.89,0,0,0,.22.16Z"/><path class="cls-103" d="M98.25,43.58l3.59-1.92-.07-.08-3.6,1.92a.6.6,0,0,0,.08.08Z"/><path class="cls-104" d="M98.17,43.5l3.6-1.92-.06-.06-3.6,1.92.06.06Z"/><path class="cls-105" d="M98.11,43.44l3.6-1.92,0-.05-3.6,1.92,0,0Z"/><path class="cls-106" d="M98.07,43.39l3.6-1.92,0-.06L98,43.33l0,.06Z"/><path class="cls-107" d="M98,43.33l3.6-1.92,0,0L98,43.28l0,0Z"/><path class="cls-108" d="M98,43.28l3.6-1.92,0,0L98,43.23a.09.09,0,0,1,0,.05Z"/><path class="cls-109" d="M98,43.23l3.6-1.92,0-.06-3.6,1.93,0,0Z"/><path class="cls-110" d="M97.93,43.18l3.6-1.93,0,0-3.59,1.92,0,.06Z"/><path class="cls-111" d="M97.91,43.12l3.59-1.92a.08.08,0,0,0,0-.05l-3.6,1.91,0,.06Z"/><path class="cls-112" d="M97.88,43.06l3.6-1.91s0,0,0-.06L97.86,43s0,0,0,.05Z"/><path class="cls-113" d="M97.86,43l3.6-1.92a.25.25,0,0,1,0-.07l-3.6,1.92a.64.64,0,0,1,0,.07Z"/><path class="cls-114" d="M97.84,42.94l3.6-1.92a.19.19,0,0,1,0-.07l-3.6,1.92s0,.05,0,.07Z"/><path class="cls-115" d="M97.82,42.87l3.6-1.92a.29.29,0,0,1,0-.09l-3.6,1.92s0,.06,0,.09Z"/><path class="cls-116" d="M97.8,42.78l3.6-1.92a.49.49,0,0,1,0-.12.42.42,0,0,1,.2-.4L98,42.26a.41.41,0,0,0-.19.4v.12Z"/></g></g></g><g class="cls-100"><g class="cls-117"><g class="cls-100"><path class="cls-118" d="M98.47,42.3l3.6-1.92-.09,0-3.6,1.92.09,0Z"/><path class="cls-119" d="M98.38,42.26l3.6-1.92-.08,0-3.6,1.92.08,0Z"/><path class="cls-120" d="M98.3,42.23l3.6-1.92h-.06l-3.6,1.92Z"/><path class="cls-121" d="M98.24,42.22l3.6-1.92h0l-3.6,1.92Z"/><path class="cls-122" d="M98.19,42.22l3.6-1.92h-.05l-3.6,1.92Z"/><path class="cls-123" d="M98.14,42.22l3.6-1.92h0l-3.6,1.92Z"/><path class="cls-124" d="M98.1,42.22l3.6-1.92h0l-3.6,1.92Z"/><path class="cls-125" d="M98.06,42.23l3.6-1.92h0L98,42.24Z"/><path class="cls-126" d="M98,42.24l3.6-1.92,0,0L98,42.26l0,0Z"/><polygon class="cls-127" points="98 42.26 101.59 40.34 101.59 40.34 97.99 42.26 97.99 42.26 98 42.26"/></g></g></g><polygon class="cls-94" points="113.13 51.52 116.73 49.59 102.07 41.82 98.47 43.74 113.13 51.52"/><g class="cls-100"><g class="cls-128"><g class="cls-100"><polygon class="cls-111" points="113.62 51.56 117.22 49.64 117.21 49.64 113.61 51.56 113.62 51.56 113.62 51.56"/><path class="cls-110" d="M113.62,51.56l3.59-1.92,0,0-3.6,1.92,0,0Z"/><path class="cls-109" d="M113.58,51.58l3.6-1.92h0l-3.6,1.92Z"/><path class="cls-108" d="M113.54,51.59l3.6-1.92h0l-3.59,1.92Z"/><path class="cls-107" d="M113.51,51.6l3.59-1.92h0l-3.6,1.92Z"/><path class="cls-106" d="M113.46,51.6l3.6-1.92h0l-3.6,1.92Z"/><path class="cls-105" d="M113.42,51.6l3.6-1.92h0l-3.6,1.92Z"/><path class="cls-104" d="M113.37,51.6l3.6-1.92h-.06l-3.6,1.92Z"/><path class="cls-103" d="M113.31,51.59l3.6-1.92-.08,0-3.6,1.92.08,0Z"/><path class="cls-102" d="M113.23,51.56l3.6-1.92-.1,0-3.6,1.93.1,0Z"/></g></g></g><polygon class="cls-98" points="113.14 50.08 116.73 48.16 102.07 40.38 98.47 42.3 113.14 50.08"/><g class="cls-100"><g class="cls-129"><g class="cls-100"><path class="cls-130" d="M113.62,51.56l3.6-1.92a.42.42,0,0,0,.19-.4.62.62,0,0,0,0-.13L113.81,51v.12a.41.41,0,0,1-.19.4Z"/><path class="cls-131" d="M113.81,51l3.59-1.93s0,0,0-.08L113.79,51s0,.06,0,.09Z"/><path class="cls-132" d="M113.79,51l3.6-1.92a.25.25,0,0,1,0-.07l-3.6,1.92s0,0,0,.07Z"/><path class="cls-133" d="M113.77,50.88l3.6-1.92,0-.06-3.6,1.91s0,0,0,.07Z"/><path class="cls-134" d="M113.75,50.81l3.6-1.91,0-.06-3.59,1.92a.11.11,0,0,0,0,.05Z"/><path class="cls-127" d="M113.73,50.76l3.59-1.92s0,0,0-.06l-3.6,1.92,0,.06Z"/><path class="cls-126" d="M113.7,50.7l3.6-1.92,0-.05-3.59,1.92s0,0,0,.05Z"/><path class="cls-125" d="M113.68,50.65l3.59-1.92,0-.06-3.59,1.92,0,.06Z"/><path class="cls-124" d="M113.65,50.59l3.59-1.92,0-.05-3.59,1.92a.09.09,0,0,0,0,.05Z"/><path class="cls-123" d="M113.62,50.54l3.59-1.92,0,0-3.6,1.92,0,0Z"/><path class="cls-122" d="M113.58,50.49l3.6-1.92a.21.21,0,0,1,0-.06l-3.6,1.92,0,.06Z"/><path class="cls-121" d="M113.54,50.43l3.6-1.92,0,0-3.59,1.92,0,0Z"/><path class="cls-120" d="M113.5,50.38l3.59-1.92,0-.06-3.6,1.92.06.06Z"/><path class="cls-119" d="M113.44,50.32,117,48.4l-.08-.08-3.6,1.93a.27.27,0,0,1,.08.07Z"/><path class="cls-118" d="M113.36,50.25l3.6-1.93a1.19,1.19,0,0,0-.23-.16l-3.59,1.92a.87.87,0,0,1,.22.17Z"/></g></g></g><path class="cls-135" d="M98.47,42.3c-.37-.2-.67,0-.67.36a1.31,1.31,0,0,0,.67,1.08l14.66,7.78c.38.2.68,0,.68-.36a1.34,1.34,0,0,0-.67-1.08Z"/><path class="cls-96" d="M119.7,51.42a5.54,5.54,0,0,1,2.78,4.42v2.29l-34-18V37.8c0-1.63,1.26-2.29,2.8-1.47ZM98.47,43.74l14.66,7.78c.38.2.68,0,.68-.36a1.34,1.34,0,0,0-.67-1.08L98.47,42.3c-.37-.2-.67,0-.67.36a1.31,1.31,0,0,0,.67,1.08Z"/><path class="cls-136" d="M90.8,36.13l-.19-.06-.12,0-.12,0-.15,0h-.3l-.21,0h0l-.15,0h-.05l-.18.08,3.6-1.92h0l.14-.06h.08l.07,0h.16l.17,0H94l.11,0h.06l.07,0,.19.06.07,0s0,0,0,0l.35.16,28.43,15.08a4.08,4.08,0,0,1,.44.28l.07,0c.14.1.27.21.4.32l0,0,0,.06.19.18.06.05,0,.06.11.12.07.08,0,.07.08.09,0,.07.09.12,0,.07,0,0c0,.06.09.14.14.21v0a.05.05,0,0,1,0,0,.86.86,0,0,1,.1.16.25.25,0,0,1,0,.07.3.3,0,0,1,0,.08.21.21,0,0,1,0,.06l.09.18s0,0,0,0h0l.11.23s0,0,0,0a.32.32,0,0,1,0,.09.54.54,0,0,1,0,.11l0,.09,0,.11,0,.06,0,.12a.65.65,0,0,0,0,.13.09.09,0,0,0,0,0s0,.06,0,.09a1.55,1.55,0,0,1,0,.21.43.43,0,0,1,0,.05.13.13,0,0,0,0,.06,3.4,3.4,0,0,1,0,.45v2.28l-3.6,1.92V55.84a3.37,3.37,0,0,0,0-.44.45.45,0,0,1,0-.11,1.55,1.55,0,0,1,0-.21l0-.14,0-.13a1.21,1.21,0,0,0,0-.18.36.36,0,0,0,0-.11,1.18,1.18,0,0,0-.07-.2l0-.09L122,54a.08.08,0,0,0,0,0l-.12-.24,0-.08a2.53,2.53,0,0,1-.13-.22.21.21,0,0,0,0-.06l-.17-.26-.06-.07-.13-.18-.08-.1-.13-.15-.11-.12-.1-.11-.19-.18-.09-.09c-.13-.11-.26-.22-.39-.31l-.08-.06a3.78,3.78,0,0,0-.43-.26L91.26,36.33l-.35-.16Z"/><path class="cls-137" d="M49.25,89.06c-5.39,2.86-5.42,7.5-.07,10.37s14.08,2.86,19.47,0,5.42-7.51.06-10.36S54.64,86.2,49.25,89.06Z"/><path class="cls-138" d="M67.65,66.81a2.2,2.2,0,0,1,2-1.08A1.68,1.68,0,0,1,67.65,66.81Z"/><path class="cls-139" d="M69.13,65.19a13.15,13.15,0,0,1,1.38,1.87c.11.39.64,2-.24,3.17-.48.61-.75-.24-.88-1.35a1.56,1.56,0,0,0-.72-1.42,5.74,5.74,0,0,1-1.33-1.58C67.12,65.47,69.13,65.19,69.13,65.19Z"/><path class="cls-140" d="M67.37,66a6.58,6.58,0,0,1,1,1.72c.13.73,1,.69,1.06,1.19.1.86.31,1.58.61,1.56-.14-.65.69-1.15-.21-2.65a10.89,10.89,0,0,0-2-2.15C67.42,65.79,67.28,65.81,67.37,66Z"/><path class="cls-139" d="M67.87,65.63s.27,2.1.45,2.72.6,1,.68.86-.35-2,.4-2C69.79,67.26,68,65.92,67.87,65.63Z"/><path class="cls-141" d="M62.32,48.67s2.29-.49,3.25,3.7,1,5.83,1.63,7.27,2.46,6.09,2.46,6.09a2.67,2.67,0,0,0-2,1.08s-3.76-5.76-4.51-8.3S59.93,49.83,62.32,48.67Z"/><path class="cls-142" d="M67.2,59.64c-.68-1.44-.68-3.08-1.63-7.27-.52-2.28-1.43-3.18-2.17-3.52-2.16,1.32.23,7.29,1,9.77a50.1,50.1,0,0,0,3.8,7.62,2.9,2.9,0,0,1,1.5-.51S67.87,61.08,67.2,59.64Z"/><path class="cls-143" d="M60,89.24s-.61,1.31,0,1.64.69.71,1.67.64.84.22,1.17.56,3.8,1.72,4.45,1-1.18-1.46-1.83-1.86a7.44,7.44,0,0,1-2.24-2.41C63.2,88.41,60,89.24,60,89.24Z"/><path class="cls-144" d="M60,90.88c.61.34.69.71,1.67.64s.84.22,1.17.56,3.8,1.72,4.45,1c.22-.24.15-.48-.06-.71l-1,.16c-1,.17-2.33-.91-2.84-1.31s-1.14-.25-2-.38-.76-1.36-.76-1.36L60,89.32C59.87,89.62,59.5,90.6,60,90.88Z"/><path class="cls-143" d="M53.85,93.49a3.62,3.62,0,0,0,.39,2.38c.65.84,2.07,2.29,2.69,2.22s.71-.32.71-.32a5.11,5.11,0,0,0-.2-2.51A7.57,7.57,0,0,1,57,93.49Z"/><path class="cls-144" d="M54.24,95.87a7.91,7.91,0,0,0,2.43,2.18c-.91-1.08.46-.85-.58-1.36-1.41-.71-.5-1.3-1.13-1.46s-.17-1.6-.17-1.6l-.34-.14h-.6A3.62,3.62,0,0,0,54.24,95.87Z"/><path class="cls-141" d="M61.34,68.31s2.91-.29,3.88-2.26a60.18,60.18,0,0,1-.33,9.42c-.59,5.06-1.07,14-1.07,14a3,3,0,0,1-3.83,0,47.9,47.9,0,0,1,0-9.13s-.36-5.7.25-8.55S61.34,68.31,61.34,68.31Z"/><path class="cls-145" d="M63.82,89.43s.48-8.9,1.07-14a73.93,73.93,0,0,0,.39-10.08,6.19,6.19,0,0,1-3.41,2.84c.07,1.93.27,7.62.24,9.51s-.42,9.26-.58,12.39A3.24,3.24,0,0,0,63.82,89.43Z"/><path class="cls-141" d="M54.5,68s-.27,3-.33,7.56a39,39,0,0,1-.55,7,90.59,90.59,0,0,0-.3,10.65s1.58,2.24,4.07,0c0,0,.42-7.89.85-9.68S61,73.05,62,69.91c.42-1.37.52-1.9.52-1.9S58.33,70.78,54.5,68Z"/><path class="cls-146" d="M57.39,93.25s.42-7.89.85-9.68S61,73.05,62,69.91a7.23,7.23,0,0,1,1.4-2.44,11.6,11.6,0,0,1-5.13,1.77c-.11.67-1.12,7.11-1.35,9.93s-2.31,12.61-1.76,15.07A3.21,3.21,0,0,0,57.39,93.25Z"/><path class="cls-147" d="M57.24,49.65S53,52,52.88,52.34s-1.19,1.16.74,4.63c0,0,2.5,3.75,1.7,7.71a23,23,0,0,1-1,3.52s2.17,2.56,7.57.33a7.72,7.72,0,0,0,3.34-3.14,24.64,24.64,0,0,1-.38-7.23c.39-3.93.4-9-2.05-9.52C62.85,48.64,62.18,48,57.24,49.65Z"/><path class="cls-139" d="M57.61,46.23s1,2.07-.25,3.18c-.72.62.4,2.5,2.82,2.71,0,0,1.11-.09,1.06-.46-.11-.85.32-1.25.81-1.82S57.61,46.23,57.61,46.23Z"/><path class="cls-148" d="M57.36,49.41a.54.54,0,0,0-.18.27A4.9,4.9,0,0,1,60,49.15l-1.88-2.63-.22-.14-.1.2A2.58,2.58,0,0,1,57.36,49.41Z"/><path class="cls-139" d="M57.28,45.1a6.28,6.28,0,0,0,1.84,4c1.48,1.23,3.29,2.16,4,.41.52-1.4,1.91-4.95.65-5.88-1.62-1.2-2.08-2.47-4.25-2.06A3.14,3.14,0,0,0,57.28,45.1Z"/><path class="cls-140" d="M57.28,45.1a5.38,5.38,0,0,0,1.83,4,8,8,0,0,0,1.43,1,7,7,0,0,1-1.38-1.72c-.55-.82,1.08-.3.24-2.3-.28-.69,1.49.4,1.92.45,2.55.3,2.58-1.06,2.73-1.62a3.21,3.21,0,0,0-.1-.72l-.17-.46-.06-.12a8.68,8.68,0,0,0-.68-1l-4.26-.51s-.68.59-1.29,1.15A3.78,3.78,0,0,0,57.28,45.1Z"/><path class="cls-149" d="M58,47.67a4.29,4.29,0,0,1-.63-4.42,3.17,3.17,0,0,1,3.18-1.86,3.62,3.62,0,0,1,3.7,2.76c.16.71-.06,2.07-2.8,1a3,3,0,0,0-1.9-.18,1.32,1.32,0,0,0-.48,1.39c.09.47-.35.46-.39.36s-.37-1.45-1-1S58,47.57,58,47.67Z"/><path class="cls-150" d="M58,47.67c0-.1-.84-1.62-.3-2s.94.92,1,1,.48.11.39-.36A1.32,1.32,0,0,1,59.54,45c.4-.24,1.33,0,1.9.18-.43-.34-1.36-.58-1.57-1.35A2.62,2.62,0,0,0,58.45,42a3,3,0,0,0-1.09,1.3A4.29,4.29,0,0,0,58,47.67Z"/><path class="cls-149" d="M65.61,43.88s-1.14,2.65-4.31,1.31a3.69,3.69,0,0,1-2-2.15,1.44,1.44,0,0,0-.94-1,3.78,3.78,0,0,1,3.33-.55A5.64,5.64,0,0,1,63.94,43,2.27,2.27,0,0,0,65.61,43.88Z"/><path class="cls-141" d="M52.88,52.34c-.09.32-1.19,1.16.74,4.63,0,0,2.5,3.75,1.7,7.71a23,23,0,0,1-1,3.52A4.71,4.71,0,0,0,58,69.43c.62-3.4-.11-9.41-.46-13.56a6,6,0,0,0-2.77-4.79A9.38,9.38,0,0,0,52.88,52.34Z"/><path class="cls-140" d="M62.08,53.06s-.11-1.65-.43-2,0-.81.37-.41a2.28,2.28,0,0,1,.47.94s.33-1.9-.26-2.13,1.65,0,2,.86.85,1.83-.91,3.59A1.83,1.83,0,0,1,62.08,53.06Z"/><path class="cls-141" d="M55,52.2c-1.18-.62-3.5-.13-2.29,2.59s6.45,9,8.07,8.84,1-3.13-.25-4.86S56.13,52.79,55,52.2Z"/><path class="cls-141" d="M61.27,63.54s3-3.48,2.67-10.22a2,2,0,0,1-1.95-.4S57.38,64.64,61.27,63.54Z"/><path class="cls-141" d="M57.49,49.17A4.38,4.38,0,0,0,61,52.25l-.16.37-.7,1.57S54.77,51.69,57.49,49.17Z"/><path class="cls-151" d="M42.51,68.86l-3.63-3.5v-.7l3.63.35v.71l-2.77-.26,2.77,2.69Z"/><path class="cls-151" d="M47.19,65.08l-3.23,7-.8-.43,3.23-7Z"/><path class="cls-151" d="M47.84,71l2.77.26-2.77-2.69v-.71l3.63,3.5V72l-3.63-.35Z"/><line class="cls-141" x1="61.3" y1="52.47" x2="61.53" y2="54.67"/><polyline class="cls-141" points="65.29 65.65 64.9 66.05 62.82 67.81 62.51 61.46 62.82 67.81 57.97 69.43"/><polyline class="cls-141" points="60.87 52.92 61.24 55.01 61.44 54.44 61.04 52.25 61.99 52.92 61.99 51.96 61.43 50.63"/><polyline class="cls-141" points="62.95 60.41 63.19 66.69 62.78 66.97 62.52 61.63"/><path class="cls-152" d="M119.54,90.19v-3l-3.84-2V80.22l-5.79-3.07-5.08-8.09v-3l5.11,2.71V65.12l-5.11-2.72V59.6L111.24,63c1.36.72,2.45.14,2.45-1.3a4.88,4.88,0,0,0-2.45-3.89L97.92,50.74c-1.36-.71-2.45-.13-2.45,1.3a4.89,4.89,0,0,0,2.45,3.9l6.31,3.35v2.8l-5-2.66v3.66l5,2.65v3.12l-4.85,2.57c-.5-.27-1.12-.59-1.89-1C96.06,69.72,94.64,69,94,68.72v-9.9l3.43,1.82v.63L99,61.14l-1.54-1.76V60l-4-2.14V69.06l.31.15c1.88.92,3.9,1.93,5.38,2.71l5.11,8.13V84l-5-2.65V85l5,2.66v4.71L99,89.54v4l11.26,6v-4l-5.38-2.86V90.26l1.3,1.49v-.63l5.13,2.73V95l8.28,4.39v-3l-3.84-2V88.16Zm-4.43,3.87-3.85-2v1.19l-5.13-2.72v-.63l-1.3.1v-2l5.11,2.72V87l-5.11-2.71V80.48l5.08-2.7,5.2,2.76v4.28l-3.85-2v3l3.85,2Z"/><path class="cls-139" d="M96.81,59.1a11.31,11.31,0,0,1,.45-2.27,4.21,4.21,0,0,1,2.63-2.15c.82-.13.36.67-.4,1.56a1.54,1.54,0,0,0-.59,1.5,5.33,5.33,0,0,1-.26,2C98.49,60.21,96.81,59.1,96.81,59.1Z"/><path class="cls-140" d="M98.69,59.68a6.5,6.5,0,0,1,.64-1.89c.47-.61-.19-1.15.16-1.55.59-.7,1-1.36.76-1.53-.4.56-1.39.38-1.91,2.06a10,10,0,0,0-.21,2.88C98.52,59.78,98.63,59.86,98.69,59.68Z"/><path class="cls-139" d="M98.06,59.61s1.44-1.71,1.79-2.29.34-1.11.17-1.06S98.7,58,98.2,57.43C97.93,57.15,98.2,59.32,98.06,59.61Z"/><path class="cls-153" d="M83.84,67.64S84,70,87.3,69.2s9.2-3,10-4.5a30.66,30.66,0,0,0,1.53-5.37s-1.6.49-2.2-.71L94,63.47S83.67,66,83.84,67.64Z"/><path class="cls-154" d="M83.84,67.64C83.67,66,94,63.47,94,63.47l2.6-4.85a1.37,1.37,0,0,0,.94.75,22.71,22.71,0,0,1-1.34,4.48c-.75,1.46-6.67,3.67-10,4.5a3.9,3.9,0,0,1-2.14.05A1.9,1.9,0,0,1,83.84,67.64Z"/><g class="cls-65"><path d="M80.88,106.36c-5.13,2.72-5.16,7.14-.06,9.86s13.38,2.72,18.52,0,5.15-7.14.06-9.86S86,103.64,80.88,106.36Z"/></g><path class="cls-143" d="M89.19,106.58s1.24.18.94.83-1.72,1.65-1.91,2.06-1.35,1.89-1.72,1.75-1.35.07-1.24-1.61S87.54,106.52,89.19,106.58Z"/><path class="cls-143" d="M91.55,112.77s-.6,1.61.89,2,1-.48,4.3.27,3.63-.78,3.55-1.13-2.24-1-3-1.13l-2.06-.48H91.43Z"/><path class="cls-155" d="M85.4,84.42s0,9.75,0,10.85S84,105,84.85,108.8c0,0,2.31,2.13,4.36,0,0,0,.65-10.83,1.25-13.28s.39-9.93.39-9.93Z"/><path class="cls-155" d="M89.46,85.8s.53,6.3,1.07,12.55c0,0,.34,12.39.66,14.17,0,0,4.35,1,4.79-.89,0,0-.11-10.91,0-13.18s.36-8.64-.62-12.31S89.46,85.8,89.46,85.8Z"/><path class="cls-156" d="M91.19,112.52c-.32-1.78-.66-14.17-.66-14.17-.36-4.21-.72-8.43-.92-10.75l2.69.61a29.79,29.79,0,0,1,1.64,11.68c-.23,5.42-.32,10.75-.35,12.9A11.68,11.68,0,0,1,91.19,112.52Z"/><path class="cls-156" d="M84.85,108.8c-.81-3.78.53-12.43.53-13.53s0-9.94,0-10.78l2.33,1.65s.75,7,0,10.94c-.67,3.62-.24,10.65-.56,12.67A3.82,3.82,0,0,1,84.85,108.8Z"/><path class="cls-157" d="M84.75,66.7s-2.24,1-1,4.54S86,77,85.87,78.31a52.17,52.17,0,0,1-.9,6.6s-.37,2.89,6.81,4.6c0,0,5.91.55,4.93-3a43.53,43.53,0,0,1-1.19-10.72c.15-1.37,1-4.12-2.69-6S87.14,66.57,84.75,66.7Z"/><path class="cls-153" d="M95.52,75.77a43.53,43.53,0,0,0,1.19,10.72c.68,2.48-2,3-3.63,3-.54-1.59.37-4.44-.88-7.92-1.54-4.3-1.32-7.14-.5-9.43a2.53,2.53,0,0,1,2.2-1.74C96.37,72.24,95.65,74.55,95.52,75.77Z"/><path class="cls-139" d="M87.41,65A5.59,5.59,0,0,1,87,68c-.62,1,4.07,2,4.18,1a3.8,3.8,0,0,1,.25-3.54C92,64.45,87.41,65,87.41,65Z"/><path class="cls-148" d="M87,68a5.06,5.06,0,0,0,.48-2.65l3.42,1.56h0c-.12,0-2.44.56-2.94,2.09C87.24,68.76,86.76,68.39,87,68Z"/><path class="cls-139" d="M92.35,60.11a7.24,7.24,0,0,1,.58,3.09c-.15,1.54.1,1.85,0,2.54a1.56,1.56,0,0,1-.38,1c-.52.46-1.58.63-3,.14-1.75-.59-3.59-2.8-2.84-4.78A3.75,3.75,0,0,1,92.35,60.11Z"/><path class="cls-140" d="M86.75,64.26a28.6,28.6,0,0,1,2.42-4.05,5.45,5.45,0,0,1,1.23-.75,4.1,4.1,0,0,1,1.95.65,8.69,8.69,0,0,1,.36,1.07c-.42.43-1.27.92-1.39,1.28a4.33,4.33,0,0,0,.14,2.72c.28.58-.84,1.41-.6,1.92a.08.08,0,0,1,0,.07,5,5,0,0,1-1.35-.28A4.81,4.81,0,0,1,86.75,64.26Z"/><path class="cls-138" d="M92.6,59.61c.57.29.52,1.24-1,1.93-.92.41-.84,1.77-.79,2a5.92,5.92,0,0,1,.2,1.54c-.22.28-.93-.6-1.28-.54-.86.15-.52.9.27,1.68s-1.38,1.17-2.4.49c-.54-.37-.74-.58-1.45-1.89-1-1.9-1.09-4.18,1.35-5.4A4.67,4.67,0,0,1,92.6,59.61Z"/><path class="cls-158" d="M87.59,66.74c-.54-.37-.74-.58-1.45-1.89-1-1.9-1.4-4.18,1-5.39s3.44-.91,4.86-.16c.14.07.86.37.8.7-.77.12-2.89.5-3.44,1.34-.67,1-1.42.69-1.36,2s-.3,2.85,2,3.55A2.48,2.48,0,0,1,87.59,66.74Z"/><path class="cls-159" d="M90.88,68.4l1.53,1.19s-4.76,1.25-6.15-.89a1.23,1.23,0,0,1,.87-1.52S87.29,68.93,90.88,68.4Z"/><path class="cls-160" d="M107.47,69.71s1.08-1.31,1-1.73.54-.65.58-.15a2.36,2.36,0,0,1-.23,1A11.73,11.73,0,0,0,110,67c.33-1,1.38.86,1.07,1.76s-.46,2-3,2.45A1.75,1.75,0,0,1,107.47,69.71Z"/><path class="cls-153" d="M91.65,71.19s-1.18,2.14,2.11,3,9.6,1.7,11.06.81a34.12,34.12,0,0,0,4.3-3.9s-1.65-.33-1.5-1.64l-4.93,3S92.43,69.68,91.65,71.19Z"/><path class="cls-161" d="M91.65,71.19c.78-1.51,11,1.18,11,1.18l4.93-3a1.23,1.23,0,0,0,.4,1.08,26.51,26.51,0,0,1-3.64,3.23c-1.46.9-7.78,0-11.07-.8a3.67,3.67,0,0,1-1.87-1A2.06,2.06,0,0,1,91.65,71.19Z"/></g></g></svg>