<svg xmlns="http://www.w3.org/2000/svg" xmlns:xlink="http://www.w3.org/1999/xlink" viewBox="0 0 150 129.49"><defs><style>.cls-1{fill:url(#linear-gradient);}.cls-2{opacity:0.1;}.cls-3{fill:#c0c0f6;}.cls-4{fill:url(#linear-gradient-2);}.cls-5{fill:#002e8a;}.cls-6{fill:url(#linear-gradient-3);}.cls-7{opacity:0.5;}.cls-8{opacity:0;}.cls-9{fill:#ab5fff;}.cls-10{opacity:0.09;}.cls-11{opacity:0.18;}.cls-12{opacity:0.27;}.cls-13{opacity:0.36;}.cls-14{opacity:0.45;}.cls-15{opacity:0.55;}.cls-16{opacity:0.64;}.cls-17{opacity:0.73;}.cls-18{opacity:0.82;}.cls-19{opacity:0.91;}.cls-20{fill:#f0ff2a;}.cls-21{fill:#fff;}.cls-22{opacity:0.6;}.cls-23{fill:url(#linear-gradient-4);}.cls-24{fill:url(#linear-gradient-5);}.cls-25{fill:url(#linear-gradient-6);}.cls-26{fill:#e3e3e3;}.cls-27{fill:url(#linear-gradient-7);}.cls-28{fill:url(#linear-gradient-8);}.cls-29{fill:url(#linear-gradient-9);}.cls-30{opacity:0.8;}.cls-31{fill:url(#linear-gradient-10);}.cls-32{fill:url(#linear-gradient-11);}.cls-33{fill:url(#linear-gradient-12);}.cls-34{fill:url(#linear-gradient-13);}.cls-35{fill:url(#linear-gradient-14);}.cls-36{fill:url(#linear-gradient-15);}.cls-37{fill:url(#linear-gradient-16);}.cls-38{opacity:0.7;}.cls-39{fill:#357fff;}.cls-40{fill:url(#linear-gradient-17);}.cls-41{fill:url(#linear-gradient-18);}.cls-42{fill:url(#linear-gradient-19);}.cls-43{opacity:0.4;}.cls-44{fill:#d40005;}.cls-45{fill:#55ff89;}.cls-46{fill:#b53892;}.cls-47{fill:#111114;}.cls-48{fill:#efb185;}.cls-49{fill:#e6a376;}.cls-50{fill:#9dbcc9;}.cls-51{fill:#cae0ea;}.cls-52{fill:#09294f;}.cls-53{fill:#16365c;}.cls-54{fill:url(#linear-gradient-20);}.cls-55{fill:#dd9569;}.cls-56{fill:#131c24;}.cls-57{fill:#1d2833;}.cls-58{fill:#f1b287;}.cls-59{fill:#323657;}.cls-60{fill:#ead8cf;}.cls-61{fill:#da9b5b;}.cls-62{fill:#424773;}.cls-63{fill:#292c47;}.cls-64{fill:#eea886;}.cls-65{fill:#754836;}.cls-66{fill:#e2d2ca;}.cls-67{fill:#efaa88;}</style><linearGradient id="linear-gradient" y1="86.19" x2="150" y2="86.19" gradientUnits="userSpaceOnUse"><stop offset="0" stop-color="#e3f8ff"/><stop offset="0.11" stop-color="#def6ff"/><stop offset="0.24" stop-color="#d0f2ff"/><stop offset="0.39" stop-color="#b8eaff"/><stop offset="0.54" stop-color="#97e0ff"/><stop offset="0.69" stop-color="#6dd3ff"/><stop offset="0.85" stop-color="#3ac2ff"/><stop offset="1" stop-color="#00b0ff"/></linearGradient><linearGradient id="linear-gradient-2" x1="112.34" y1="67.66" x2="46" y2="67.66" gradientUnits="userSpaceOnUse"><stop offset="0" stop-color="#fff"/><stop offset="0.7" stop-color="#fff"/></linearGradient><linearGradient id="linear-gradient-3" x1="48.37" y1="61.32" x2="106.82" y2="12.28" gradientUnits="userSpaceOnUse"><stop offset="0" stop-color="#0078d1"/><stop offset="0.58" stop-color="#a9daff"/><stop offset="0.72" stop-color="#68b4ed"/><stop offset="0.85" stop-color="#3094de"/><stop offset="0.95" stop-color="#0d80d5"/><stop offset="1" stop-color="#0078d1"/></linearGradient><linearGradient id="linear-gradient-4" x1="102.91" y1="52.59" x2="123.85" y2="52.59" gradientUnits="userSpaceOnUse"><stop offset="0" stop-color="#006aba"/><stop offset="0.02" stop-color="#197ac3"/><stop offset="0.04" stop-color="#3d92d1"/><stop offset="0.07" stop-color="#5da8dd"/><stop offset="0.11" stop-color="#79bae8"/><stop offset="0.15" stop-color="#8fc8f0"/><stop offset="0.19" stop-color="#a0d3f6"/><stop offset="0.24" stop-color="#abdbfb"/><stop offset="0.32" stop-color="#b2e0fd"/><stop offset="0.54" stop-color="#b4e1fe"/><stop offset="0.72" stop-color="#b2dffd"/><stop offset="0.79" stop-color="#abd9fa"/><stop offset="0.84" stop-color="#a0cff4"/><stop offset="0.88" stop-color="#8fc0ec"/><stop offset="0.91" stop-color="#79ade1"/><stop offset="0.94" stop-color="#5d95d4"/><stop offset="0.97" stop-color="#3d79c5"/><stop offset="0.99" stop-color="#1959b3"/><stop offset="1" stop-color="#0c4ead"/></linearGradient><linearGradient id="linear-gradient-5" x1="102.9" y1="40.87" x2="123.79" y2="40.87" xlink:href="#linear-gradient-4"/><linearGradient id="linear-gradient-6" x1="82.45" y1="61.73" x2="98.46" y2="61.73" xlink:href="#linear-gradient-4"/><linearGradient id="linear-gradient-7" x1="102.89" y1="37.77" x2="123.78" y2="37.77" xlink:href="#linear-gradient-4"/><linearGradient id="linear-gradient-8" x1="81.84" y1="37.45" x2="123.77" y2="37.45" xlink:href="#linear-gradient-4"/><linearGradient id="linear-gradient-9" x1="102.89" y1="35.18" x2="123.77" y2="35.18" xlink:href="#linear-gradient-4"/><linearGradient id="linear-gradient-10" x1="56.55" y1="41.44" x2="74.02" y2="41.44" gradientUnits="userSpaceOnUse"><stop offset="0" stop-color="#b6e3ff"/><stop offset="0.4" stop-color="#b4e1fe"/><stop offset="0.55" stop-color="#addbfb"/><stop offset="0.65" stop-color="#a2d1f5"/><stop offset="0.74" stop-color="#91c2ed"/><stop offset="0.81" stop-color="#7bafe2"/><stop offset="0.87" stop-color="#5f97d5"/><stop offset="0.93" stop-color="#3f7bc6"/><stop offset="0.98" stop-color="#1b5bb4"/><stop offset="1" stop-color="#0c4ead"/></linearGradient><linearGradient id="linear-gradient-11" x1="55.88" y1="22.25" x2="75.69" y2="22.25" xlink:href="#linear-gradient-10"/><linearGradient id="linear-gradient-12" x1="51.12" y1="87.74" x2="72.05" y2="87.74" xlink:href="#linear-gradient-10"/><linearGradient id="linear-gradient-13" x1="51.11" y1="76.02" x2="72" y2="76.02" gradientUnits="userSpaceOnUse"><stop offset="0" stop-color="#0056aa"/><stop offset="0.01" stop-color="#1465b3"/><stop offset="0.04" stop-color="#3881c4"/><stop offset="0.07" stop-color="#589ad3"/><stop offset="0.1" stop-color="#74afe0"/><stop offset="0.14" stop-color="#8ac0ea"/><stop offset="0.19" stop-color="#9bcdf2"/><stop offset="0.24" stop-color="#a6d6f7"/><stop offset="0.32" stop-color="#addcfa"/><stop offset="0.53" stop-color="#afddfb"/><stop offset="0.72" stop-color="#addbfa"/><stop offset="0.79" stop-color="#a6d5f7"/><stop offset="0.84" stop-color="#9bcbf1"/><stop offset="0.88" stop-color="#8abce9"/><stop offset="0.91" stop-color="#74a9df"/><stop offset="0.94" stop-color="#5891d2"/><stop offset="0.97" stop-color="#3875c2"/><stop offset="1" stop-color="#1455b1"/><stop offset="1" stop-color="#0c4ead"/></linearGradient><linearGradient id="linear-gradient-14" x1="51.1" y1="72.92" x2="71.99" y2="72.92" xlink:href="#linear-gradient-13"/><linearGradient id="linear-gradient-15" x1="50.01" y1="66.84" x2="71.97" y2="66.84" xlink:href="#linear-gradient-4"/><linearGradient id="linear-gradient-16" x1="51.09" y1="70.32" x2="71.98" y2="70.32" xlink:href="#linear-gradient-13"/><linearGradient id="linear-gradient-17" x1="134.62" y1="90.63" x2="7.08" y2="0.4" gradientUnits="userSpaceOnUse"><stop offset="0" stop-color="#fff2c9"/><stop offset="1" stop-color="#ffb7bb"/></linearGradient><linearGradient id="linear-gradient-18" x1="136.96" y1="87.31" x2="9.41" y2="-2.93" xlink:href="#linear-gradient-17"/><linearGradient id="linear-gradient-19" x1="139.3" y1="84" x2="11.77" y2="-6.22" xlink:href="#linear-gradient-17"/><linearGradient id="linear-gradient-20" x1="99.35" y1="73.36" x2="108.96" y2="73.36" gradientUnits="userSpaceOnUse"><stop offset="0" stop-color="#cddef7"/><stop offset="0.23" stop-color="#caddf7"/><stop offset="0.39" stop-color="#c2d9f7"/><stop offset="0.52" stop-color="#b3d2f7"/><stop offset="0.64" stop-color="#9dc8f6"/><stop offset="0.74" stop-color="#82bcf6"/><stop offset="0.85" stop-color="#61adf5"/><stop offset="0.9" stop-color="#4ca3f5"/><stop offset="1" stop-color="#147cc9"/></linearGradient></defs><title>2Asset 14</title><g id="Layer_2" data-name="Layer 2"><g id="Layer_1-2" data-name="Layer 1"><ellipse class="cls-1" cx="75" cy="86.19" rx="75" ry="43.3"/><g class="cls-2"><path d="M111.83,104.4c4.36,2.51,4.39,6.61,0,9.13s-11.39,2.52-15.76,0-4.39-6.62,0-9.13S107.46,101.87,111.83,104.4Z"/></g><g class="cls-2"><polygon points="21.77 93.52 49.03 109.36 111.97 73.02 84.06 56.61 21.77 93.52"/></g><path class="cls-3" d="M46.13,108.83,46,63.53l-1.74-1,.13,45.3a1.19,1.19,0,0,0,.49,1.08l1.74,1A1.17,1.17,0,0,1,46.13,108.83Z"/><polygon class="cls-3" points="46 63.53 44.26 62.52 44.24 56.4 45.98 57.41 46 63.53"/><path class="cls-4" d="M112.21,25.3,46,63.53l.13,45.3c0,1.07.76,1.5,1.68,1L110.67,73.5a3.7,3.7,0,0,0,1.67-2.9Z"/><path class="cls-5" d="M110.51,18.22c.93-.54,1.68-.11,1.69,1V25.3L46,63.53l0-6.12a3.71,3.71,0,0,1,1.67-2.9Z"/><path class="cls-6" d="M110.88,18.06a1,1,0,0,1,.28-.06h0a1.14,1.14,0,0,1,.27,0h0a1.06,1.06,0,0,1,.25.09h0l-1.74-1-.09-.05-.09,0h-.43l-.15,0-.06,0-.06,0-.07,0a1.34,1.34,0,0,0-.24.12L45.91,53.5a2,2,0,0,0-.31.22l-.11.09-.13.12-.07.07-.06.06-.06.07-.14.16a.43.43,0,0,0,0,.07l0,0s0,0,0,.06l-.1.14a1,1,0,0,1-.08.14v0h0a.67.67,0,0,1-.06.12,1.09,1.09,0,0,1-.08.15.5.5,0,0,0,0,.13h0l-.06.15-.06.16s0,.05,0,.08,0,0,0,0,0,0,0,0a1.46,1.46,0,0,0-.05.2s0,.07,0,.11,0,0,0,.06a.13.13,0,0,1,0,.06c0,.11,0,.22,0,.33l1.74,1A1.72,1.72,0,0,1,46,57V57a2.37,2.37,0,0,1,.09-.36,0,0,0,0,1,0,0,2.74,2.74,0,0,1,.15-.4h0a2.87,2.87,0,0,1,.2-.39h0a2.25,2.25,0,0,1,.24-.36l0,0a2.48,2.48,0,0,1,.25-.3L47,55l.22-.2.09-.08a3,3,0,0,1,.31-.22l62.86-36.29a1.66,1.66,0,0,1,.31-.14Z"/><path class="cls-3" d="M50.15,58.81a3.38,3.38,0,0,0,1.53-2.65c0-1-.69-1.37-1.54-.88a3.38,3.38,0,0,0-1.53,2.65c0,1,.69,1.37,1.54.88Z"/><path class="cls-3" d="M54.8,56.12a3.41,3.41,0,0,0,1.53-2.65c0-1-.69-1.37-1.54-.87a3.32,3.32,0,0,0-1.53,2.64c0,1,.69,1.37,1.54.88Z"/><path class="cls-3" d="M59.33,53.49a3.38,3.38,0,0,0,1.53-2.65c0-1-.69-1.36-1.54-.87a3.35,3.35,0,0,0-1.53,2.64c0,1,.69,1.37,1.54.88Z"/><g class="cls-7"><g class="cls-8"><path class="cls-9" d="M31.67,82l-3.14,1.83a.66.66,0,0,1-.64,0L24.72,82a.64.64,0,0,1,0-1.11L27.86,79a.61.61,0,0,1,.64,0l3.17,1.83A.64.64,0,0,1,31.67,82Z"/></g><g class="cls-10"><path class="cls-9" d="M31.67,79.62l-3.14,1.82a.66.66,0,0,1-.64,0l-3.17-1.83a.63.63,0,0,1,0-1.1l3.14-1.83a.66.66,0,0,1,.64,0l3.17,1.83A.65.65,0,0,1,31.67,79.62Z"/></g><g class="cls-11"><path class="cls-9" d="M31.67,77.27l-3.14,1.82a.61.61,0,0,1-.64,0l-3.17-1.83a.63.63,0,0,1,0-1.1l3.14-1.83a.66.66,0,0,1,.64,0l3.17,1.83A.65.65,0,0,1,31.67,77.27Z"/></g><g class="cls-12"><path class="cls-9" d="M31.67,74.92l-3.14,1.82a.61.61,0,0,1-.64,0l-3.17-1.82a.64.64,0,0,1,0-1.11L27.86,72a.64.64,0,0,1,.64,0l3.17,1.83A.65.65,0,0,1,31.67,74.92Z"/></g><g class="cls-13"><path class="cls-9" d="M31.67,72.57,28.53,74.4a.66.66,0,0,1-.64,0l-3.17-1.83a.64.64,0,0,1,0-1.11l3.14-1.82a.61.61,0,0,1,.64,0l3.17,1.82A.65.65,0,0,1,31.67,72.57Z"/></g><g class="cls-14"><path class="cls-9" d="M31.67,70.22l-3.14,1.83a.66.66,0,0,1-.64,0l-3.17-1.83a.64.64,0,0,1,0-1.11l3.14-1.82a.61.61,0,0,1,.64,0l3.17,1.83A.64.64,0,0,1,31.67,70.22Z"/></g><g class="cls-15"><path class="cls-9" d="M31.67,67.88,28.53,69.7a.64.64,0,0,1-.64,0l-3.17-1.83a.63.63,0,0,1,0-1.1l3.14-1.83a.66.66,0,0,1,.64,0l3.17,1.83A.65.65,0,0,1,31.67,67.88Z"/></g><g class="cls-16"><path class="cls-9" d="M31.67,65.53l-3.14,1.82a.61.61,0,0,1-.64,0l-3.17-1.82a.64.64,0,0,1,0-1.11l3.14-1.83a.66.66,0,0,1,.64,0l3.17,1.83A.65.65,0,0,1,31.67,65.53Z"/></g><g class="cls-17"><path class="cls-9" d="M31.67,63.18,28.53,65a.64.64,0,0,1-.64,0l-3.17-1.83a.64.64,0,0,1,0-1.11l3.14-1.82a.61.61,0,0,1,.64,0l3.17,1.82A.65.65,0,0,1,31.67,63.18Z"/></g><g class="cls-18"><path class="cls-9" d="M31.67,60.83l-3.14,1.83a.66.66,0,0,1-.64,0l-3.17-1.83a.64.64,0,0,1,0-1.11l3.14-1.82a.61.61,0,0,1,.64,0l3.17,1.83A.64.64,0,0,1,31.67,60.83Z"/></g><g class="cls-19"><path class="cls-9" d="M31.67,58.48l-3.14,1.83a.66.66,0,0,1-.64,0l-3.17-1.83a.63.63,0,0,1,0-1.1l3.14-1.83a.66.66,0,0,1,.64,0l3.17,1.83A.64.64,0,0,1,31.67,58.48Z"/></g><path class="cls-9" d="M31.67,56.14,28.53,58a.61.61,0,0,1-.64,0l-3.17-1.83a.63.63,0,0,1,0-1.1l3.14-1.83a.66.66,0,0,1,.64,0L31.67,55A.65.65,0,0,1,31.67,56.14Z"/></g><path class="cls-9" d="M31.67,56.14,28.53,58a.61.61,0,0,1-.64,0l-3.17-1.83a.63.63,0,0,1,0-1.1l3.14-1.83a.66.66,0,0,1,.64,0L31.67,55A.65.65,0,0,1,31.67,56.14Z"/><g class="cls-7"><g class="cls-8"><path class="cls-20" d="M121.39,19.87l-3.61,1.64a1,1,0,0,1-.74,0l-3.64-1.65a.52.52,0,0,1,0-1l3.6-1.64a.87.87,0,0,1,.74,0l3.64,1.64A.52.52,0,0,1,121.39,19.87Z"/></g><g class="cls-10"><path class="cls-20" d="M121.39,18.31,117.78,20a1,1,0,0,1-.74,0L113.4,18.3a.52.52,0,0,1,0-1l3.6-1.64a.87.87,0,0,1,.74,0l3.64,1.64A.52.52,0,0,1,121.39,18.31Z"/></g><g class="cls-11"><path class="cls-20" d="M121.39,16.75l-3.61,1.64a1,1,0,0,1-.74,0l-3.64-1.64a.52.52,0,0,1,0-1l3.6-1.64a1,1,0,0,1,.74,0l3.64,1.64A.52.52,0,0,1,121.39,16.75Z"/></g><g class="cls-12"><path class="cls-20" d="M121.39,15.19l-3.61,1.64a1,1,0,0,1-.74,0l-3.64-1.64a.52.52,0,0,1,0-1l3.6-1.64a1,1,0,0,1,.74,0l3.64,1.64A.52.52,0,0,1,121.39,15.19Z"/></g><g class="cls-13"><path class="cls-20" d="M121.39,13.63l-3.61,1.64a1,1,0,0,1-.74,0l-3.64-1.64a.52.52,0,0,1,0-1L117,11a1,1,0,0,1,.74,0l3.64,1.64A.52.52,0,0,1,121.39,13.63Z"/></g><g class="cls-14"><path class="cls-20" d="M121.39,12.07l-3.61,1.64a1,1,0,0,1-.74,0l-3.64-1.64a.52.52,0,0,1,0-1L117,9.43a1,1,0,0,1,.74,0l3.64,1.65A.52.52,0,0,1,121.39,12.07Z"/></g><g class="cls-15"><path class="cls-20" d="M121.39,10.51l-3.61,1.64a.87.87,0,0,1-.74,0l-3.64-1.64a.52.52,0,0,1,0-1L117,7.87a1,1,0,0,1,.74,0l3.64,1.65A.52.52,0,0,1,121.39,10.51Z"/></g><g class="cls-16"><path class="cls-20" d="M121.39,9l-3.61,1.64a.87.87,0,0,1-.74,0L113.4,9a.52.52,0,0,1,0-1L117,6.31a1,1,0,0,1,.74,0L121.38,8A.52.52,0,0,1,121.39,9Z"/></g><g class="cls-17"><path class="cls-20" d="M121.39,7.39,117.78,9A.87.87,0,0,1,117,9L113.4,7.39a.52.52,0,0,1,0-1L117,4.76a.91.91,0,0,1,.74,0l3.64,1.65A.52.52,0,0,1,121.39,7.39Z"/></g><g class="cls-18"><path class="cls-20" d="M121.39,5.83l-3.61,1.64a.91.91,0,0,1-.74,0L113.4,5.83a.52.52,0,0,1,0-1L117,3.2a.87.87,0,0,1,.74,0l3.64,1.64A.52.52,0,0,1,121.39,5.83Z"/></g><g class="cls-19"><path class="cls-20" d="M121.39,4.28l-3.61,1.64a1,1,0,0,1-.74,0L113.4,4.27a.52.52,0,0,1,0-1L117,1.64a.87.87,0,0,1,.74,0l3.64,1.64A.52.52,0,0,1,121.39,4.28Z"/></g><path class="cls-20" d="M121.39,2.72l-3.61,1.64a1,1,0,0,1-.74,0L113.4,2.71a.52.52,0,0,1,0-1L117,.08a.87.87,0,0,1,.74,0l3.64,1.64A.52.52,0,0,1,121.39,2.72Z"/></g><path class="cls-20" d="M121.39,2.72l-3.61,1.64a1,1,0,0,1-.74,0L113.4,2.72a.52.52,0,0,1,0-1L117,.08a.93.93,0,0,1,.73,0l3.64,1.64A.52.52,0,0,1,121.39,2.72Z"/><g class="cls-7"><polygon class="cls-21" points="96.3 52.16 96.3 53.31 83.83 60.51 83.83 59.36 96.3 52.16"/></g><g class="cls-22"><polygon class="cls-21" points="122.45 40.23 122.47 48.44 104.75 58.68 104.72 50.46 122.45 40.23"/></g><g class="cls-7"><path class="cls-23" d="M102.91,49.49,123.8,37.43l0,18.26L103,67.74Zm19.56-1.05,0-8.21L104.72,50.46l0,8.22,17.72-10.24Z"/></g><g class="cls-7"><polygon class="cls-24" points="123.79 34.15 123.79 35.54 102.91 47.59 102.9 46.21 123.79 34.15"/></g><g class="cls-7"><polygon class="cls-21" points="96.33 62.52 96.35 70.66 83.88 77.86 83.86 69.72 96.33 62.52"/></g><g class="cls-22"><path class="cls-25" d="M82.45,52.31l15.93-9.19.08,28L82.53,80.35Zm13.9,18.35,0-8.14-12.48,7.2,0,8.14,12.47-7.2Zm-.07-23V46.46l-12.47,7.2v1.15l12.47-7.2Zm0,5.7V52.16l-12.47,7.2v1.15l12.47-7.2Zm0,2.59V54.75L83.83,62V63.1l12.47-7.2Zm0-5.7V49.05l-12.47,7.2V57.4l12.47-7.2Z"/></g><path class="cls-26" d="M81.51,47.14l42-24.26a1.46,1.46,0,0,1,2.19,1.25L125.8,56a1.44,1.44,0,0,1-.72,1.27l-42,24.25a1.45,1.45,0,0,1-2.18-1.25L80.79,48.4A1.45,1.45,0,0,1,81.51,47.14Zm16.95,24-.08-28L82.45,52.31l.08,28,15.93-9.19Zm25.39-15.47,0-18.26L102.91,49.49l0,18.25,20.89-12Zm-.08-28.79,0-3.1L81.84,48v3.1l41.92-24.2Zm0,2.94V28.46l-20.88,12V41.9l20.88-12.06Zm0,2.59V31.05L102.89,43.1v1.39l20.88-12.06Zm0,3.11V34.15L102.9,46.21v1.38l20.88-12.05Z"/><g class="cls-7"><polygon class="cls-27" points="123.78 31.05 123.78 32.43 102.9 44.48 102.89 43.1 123.78 31.05"/></g><g class="cls-7"><polygon class="cls-21" points="82.45 49.9 105.21 36.75 105.2 35.29 82.44 48.43 82.45 49.9"/></g><g class="cls-7"><path class="cls-28" d="M123.77,26.9l0-3.1L81.84,48v3.1Zm-18.56,8.39v1.46L82.45,49.9V48.43l22.77-13.14Zm17.72-10.24v1.47l-9,5.2V30.25l9-5.2Z"/></g><g class="cls-7"><polygon class="cls-21" points="122.93 25.05 122.94 26.52 113.93 31.72 113.92 30.25 122.93 25.05"/></g><g class="cls-7"><polygon class="cls-29" points="123.77 28.46 123.77 29.84 102.89 41.9 102.89 40.51 123.77 28.46"/></g><g class="cls-7"><polygon class="cls-21" points="96.31 54.75 96.31 55.9 83.84 63.1 83.83 61.95 96.31 54.75"/></g><g class="cls-7"><polygon class="cls-21" points="96.29 49.05 96.29 50.2 83.82 57.4 83.82 56.25 96.29 49.05"/></g><g class="cls-7"><polygon class="cls-21" points="96.28 46.46 96.28 47.61 83.81 54.81 83.81 53.66 96.28 46.46"/></g><polygon class="cls-21" points="71.67 30.99 71.67 32.24 58.06 40.1 58.06 38.85 71.67 30.99"/><g class="cls-30"><path class="cls-21" d="M71.7,43.45l0,7.35a.68.68,0,0,1-.33.58L59.11,58.47a.67.67,0,0,1-1-.58l0-7.35a.66.66,0,0,1,.33-.58L70.7,42.87A.67.67,0,0,1,71.7,43.45Z"/></g><g class="cls-22"><path class="cls-31" d="M56.55,31.16l17.39-10L74,51.73l-17.38,10Zm15.17,20,0-8.9L58.09,50.15l0,8.89,13.61-7.85ZM71.65,26V24.77L58,32.63v1.26L71.65,26Zm0,6.21V31L58.06,38.85V40.1l13.61-7.86Zm0,2.83V33.82L58.06,41.67v1.26l13.61-7.86Zm0-6.22V27.6l-13.6,7.85v1.26l13.61-7.86Z"/></g><path class="cls-26" d="M75.55,18.47,57.21,29.08a.88.88,0,0,1-1.32-.77V27a.88.88,0,0,1,.45-.77L75,15.4q.65,3.72.84,3.69c.13,0,.08-1.55-.17-4.59v-.63L55.18,25.71a.87.87,0,0,0-.44.77l.1,36.42a.89.89,0,0,0,1.33.77l19.08-11a.89.89,0,0,0,.44-.76q.07-16.41.17-32.8ZM57,30.9l15.61-9a.88.88,0,0,1,1.33.76L74,51.21a.87.87,0,0,1-.44.77L58,61a.88.88,0,0,1-1.32-.77l-.08-28.56A.87.87,0,0,1,57,30.9Z"/><polygon class="cls-21" points="74.87 16.34 56.54 26.98 56.55 28.52 74.87 17.88 74.87 16.34"/><path class="cls-32" d="M75.69,17.47,57.28,28.09a.49.49,0,0,1-.74-.42V27.2a.52.52,0,0,1,.25-.43L75.44,16a.5.5,0,0,0,.25-.43V15L56.13,26.31a.49.49,0,0,0-.25.42V29a.49.49,0,0,0,.74.42L75.44,18.55a.48.48,0,0,0,.25-.43Z"/><path class="cls-21" d="M71.67,33.82v.73a.88.88,0,0,1-.45.78l-13.15,7.6V42.2a.91.91,0,0,1,.46-.79Z"/><polygon class="cls-21" points="71.66 27.6 71.66 28.85 58.05 36.71 58.05 35.45 71.66 27.6"/><polygon class="cls-21" points="71.64 24.77 71.65 26.03 58.04 33.89 58.03 32.63 71.64 24.77"/><polygon class="cls-21" points="70.66 75.38 70.68 83.59 52.95 93.83 52.93 85.61 70.66 75.38"/><g class="cls-22"><path class="cls-33" d="M51.12,84.64,72,72.58l0,18.26-20.88,12Zm19.56-1,0-8.21L52.93,85.61l0,8.22L70.68,83.59Z"/></g><polygon class="cls-34" points="72 69.3 72 70.69 51.11 82.74 51.11 81.36 72 69.3"/><path class="cls-26" d="M50,71.62,72,59v3.1L50,74.73v31.14L74,92l-.09-35.24L50,70.57Zm22,19.22-20.88,12-.05-18.25L72,72.58Zm0-20.16L51.11,82.74V81.36L72,69.3Zm0-3.1-20.88,12V78.25L72,66.2ZM72,65,51.1,77V75.66L72,63.61Z"/><polygon class="cls-35" points="71.98 66.2 71.99 67.58 51.1 79.64 51.1 78.25 71.98 66.2"/><path class="cls-36" d="M72,59,50,71.62v3.11L72,62.05Zm-9.83,7.92V65.4l9-5.2v1.47Z"/><polygon class="cls-21" points="71.14 60.2 71.14 61.67 62.13 66.87 62.13 65.4 71.14 60.2"/><polygon class="cls-37" points="71.98 63.6 71.98 64.99 51.1 77.04 51.09 75.66 71.98 63.6"/><g class="cls-38"><g class="cls-8"><path class="cls-39" d="M148.6,70.36l-3.24,1.29a1,1,0,0,1-.66,0l-3.31-1.2c-.44-.16-.45-.57,0-.75l3.24-1.29a1,1,0,0,1,.67,0l3.3,1.19C149,69.77,149,70.18,148.6,70.36Z"/></g><g class="cls-10"><path class="cls-39" d="M148.58,68.11l-3.24,1.29a1,1,0,0,1-.67,0l-3.3-1.19c-.45-.16-.45-.58,0-.76l3.24-1.29a1,1,0,0,1,.66,0l3.31,1.2C149,67.52,149,67.94,148.58,68.11Z"/></g><g class="cls-11"><path class="cls-39" d="M148.56,65.86l-3.24,1.29a1,1,0,0,1-.67,0L141.35,66c-.45-.16-.46-.58,0-.75l3.24-1.29a.91.91,0,0,1,.67,0l3.31,1.19C149,65.27,149,65.69,148.56,65.86Z"/></g><g class="cls-12"><path class="cls-39" d="M148.54,63.62l-3.25,1.29a1,1,0,0,1-.66,0l-3.31-1.2c-.44-.16-.45-.58,0-.75l3.24-1.29a1,1,0,0,1,.67,0l3.3,1.19C149,63,149,63.44,148.54,63.62Z"/></g><g class="cls-13"><path class="cls-39" d="M148.51,61.37l-3.24,1.29a1,1,0,0,1-.66,0l-3.31-1.2c-.44-.16-.45-.57,0-.75l3.24-1.29a1,1,0,0,1,.66,0l3.31,1.19C149,60.78,149,61.19,148.51,61.37Z"/></g><g class="cls-14"><path class="cls-39" d="M148.49,59.12l-3.24,1.29a1,1,0,0,1-.67,0l-3.3-1.19c-.45-.16-.45-.58,0-.76l3.25-1.29a1,1,0,0,1,.66,0l3.31,1.2C148.92,58.53,148.93,59,148.49,59.12Z"/></g><g class="cls-15"><path class="cls-39" d="M148.47,56.87l-3.24,1.29a1,1,0,0,1-.67,0L141.25,57c-.44-.16-.45-.58,0-.75l3.24-1.29a.91.91,0,0,1,.67,0l3.31,1.19C148.9,56.28,148.91,56.7,148.47,56.87Z"/></g><g class="cls-16"><path class="cls-39" d="M148.45,54.62l-3.25,1.3a1,1,0,0,1-.66,0l-3.31-1.2c-.44-.16-.45-.58,0-.75l3.24-1.29a1,1,0,0,1,.67,0l3.3,1.19C148.88,54,148.88,54.45,148.45,54.62Z"/></g><g class="cls-17"><path class="cls-39" d="M148.42,52.38l-3.24,1.29a1,1,0,0,1-.67,0l-3.3-1.2c-.45-.16-.45-.57,0-.75l3.24-1.29a1,1,0,0,1,.66,0l3.31,1.19C148.86,51.79,148.86,52.2,148.42,52.38Z"/></g><g class="cls-18"><path class="cls-39" d="M148.4,50.13l-3.24,1.29a1,1,0,0,1-.67,0l-3.3-1.19c-.45-.16-.45-.58,0-.76l3.24-1.29a1,1,0,0,1,.67,0l3.31,1.2C148.83,49.54,148.84,50,148.4,50.13Z"/></g><g class="cls-19"><path class="cls-39" d="M148.38,47.88l-3.24,1.29a1,1,0,0,1-.67,0L141.16,48c-.44-.16-.45-.58,0-.75L144.39,46a.91.91,0,0,1,.67,0l3.3,1.19C148.81,47.29,148.82,47.71,148.38,47.88Z"/></g><path class="cls-39" d="M148.35,45.63l-3.24,1.3a1,1,0,0,1-.66,0l-3.31-1.2c-.44-.16-.45-.58,0-.75l3.24-1.29a.94.94,0,0,1,.66,0l3.31,1.19C148.79,45,148.79,45.46,148.35,45.63Z"/></g><g class="cls-30"><path class="cls-39" d="M148.35,45.63l-3.24,1.3a1,1,0,0,1-.67,0l-3.31-1.2c-.44-.16-.45-.58,0-.75l3.24-1.29a1,1,0,0,1,.67,0l3.31,1.19C148.78,45,148.79,45.46,148.35,45.63Z"/></g><g class="cls-22"><path class="cls-21" d="M25.74,91.83l-1.39,4.94-.87.51,1.67-5.91-1.57-3.74,1-.56,1.29,3.1,1.29-4.59.86-.5-1.55,5.55,1.66,4-1,.56Z"/><path class="cls-21" d="M31.9,92.4l-.89.51-1.37-6.83v7.64l-.81.47V84.6l1.29-.75,1.37,6.87L32.8,82.3l1.3-.74v9.58l-.88.51V83.94Z"/><path class="cls-21" d="M35.05,90.6V81l.92-.54v8.62l2.38-1.37v1Z"/></g><g class="cls-22"><path class="cls-40" d="M120.23,81.08l-3.68.38v-.77l3.68-3.86v.78l-2.81,3,2.81-.28Z"/><path class="cls-41" d="M125,71.42,121.7,82.9l-.8.46,3.27-11.48Z"/><path class="cls-42" d="M125.64,77.17l2.82-3-2.82.29V73.7l3.68-.38v.77L125.64,78Z"/></g><g class="cls-43"><path class="cls-44" d="M95.52,46.27c1.75-1,3.16-.2,3.17,1.8a6.93,6.93,0,0,1-3.15,5.45c-1.75,1-3.17.21-3.17-1.8A6.9,6.9,0,0,1,95.52,46.27Z"/></g><g class="cls-7"><path class="cls-45" d="M95.52,47.66c1.13-.65,2-.13,2,1.17a4.46,4.46,0,0,1-2,3.53c-1.14.66-2.06.14-2.06-1.16A4.53,4.53,0,0,1,95.52,47.66Z"/></g><g class="cls-7"><path class="cls-46" d="M95.52,49c.54-.31,1-.07,1,.55a2.13,2.13,0,0,1-1,1.66c-.53.3-1,.06-1-.55A2.11,2.11,0,0,1,95.52,49Z"/></g><g class="cls-43"><path class="cls-44" d="M85.06,58.89c1.75-1,3.16-.2,3.17,1.8a6.93,6.93,0,0,1-3.15,5.45c-1.74,1-3.17.21-3.17-1.8A7,7,0,0,1,85.06,58.89Z"/></g><g class="cls-7"><path class="cls-45" d="M85.06,60.28c1.14-.65,2-.13,2,1.17a4.46,4.46,0,0,1-2,3.53C84,65.64,83,65.12,83,63.82A4.53,4.53,0,0,1,85.06,60.28Z"/></g><g class="cls-7"><path class="cls-46" d="M85.07,61.65c.53-.31,1-.07,1,.55a2.13,2.13,0,0,1-1,1.66c-.53.3-1,.06-1-.55A2.1,2.1,0,0,1,85.07,61.65Z"/></g><path class="cls-47" d="M102.61,110.36s1,1.56-.38,1.94-1-.48-3.89.27-2.6-.92-2.53-1.26,1.34-.81,2-1,3.21-.76,3.21-.76l1.57.29Z"/><path class="cls-48" d="M98.37,53.55a13.89,13.89,0,0,0-.45-2.44c-.22-.39-1.1-2.06-2.61-2.31-.81-.14-.36.71.4,1.67a1.76,1.76,0,0,1,.58,1.62,6.44,6.44,0,0,0,.25,2.18C96.7,54.75,98.37,53.55,98.37,53.55Z"/><path class="cls-49" d="M96.5,54.19a7.65,7.65,0,0,0-.63-2c-.47-.66.18-1.24-.16-1.68-.59-.74-1-1.45-.76-1.65.4.61,1.38.42,1.89,2.23a11.66,11.66,0,0,1,.21,3.11C96.67,54.29,96.56,54.37,96.5,54.19Z"/><path class="cls-48" d="M97.12,54.1s-1.42-1.84-1.77-2.46-.34-1.2-.17-1.15,1.31,1.83,1.8,1.27C97.25,51.46,97,53.79,97.12,54.1Z"/><path class="cls-50" d="M111.21,62.76s-.18,2.58-3.43,1.68-9.11-3.28-9.86-4.85a34.9,34.9,0,0,1-1.52-5.78s1.59.52,2.18-.77l2.57,5.23S111.37,61,111.21,62.76Z"/><path class="cls-51" d="M111.21,62.76c.16-1.8-10.06-4.49-10.06-4.49L98.58,53a1.42,1.42,0,0,1-.94.81A26.88,26.88,0,0,0,99,58.68c.75,1.57,6.61,4,9.86,4.85a3.47,3.47,0,0,0,2.12,0A2.23,2.23,0,0,0,111.21,62.76Z"/><path class="cls-47" d="M106,104.48s-1.22.19-.93.89,1.7,1.78,1.89,2.22,1.33,2,1.7,1.89,1.33.07,1.22-1.74S107.57,104.41,106,104.48Z"/><path class="cls-52" d="M109.7,80.59s0,10.51,0,11.7,1.32,10.5.53,14.58c0,0-2.29,2.3-4.32,0,0,0-.65-11.68-1.24-14.31s-.39-10.7-.39-10.7Z"/><path class="cls-52" d="M105.68,82.09s-.52,6.78-1.06,13.51c0,0-.34,13.36-.66,15.28,0,0-4.31,1.07-4.73-1,0,0,.11-11.75,0-14.21s-.36-9.31.61-13.26S105.68,82.09,105.68,82.09Z"/><path class="cls-53" d="M104,110.88c.32-1.92.66-15.28.66-15.28.36-4.53.72-9.08.91-11.58l-2.66.66a34.72,34.72,0,0,0-1.63,12.58c.23,5.85.32,11.6.35,13.9A11,11,0,0,0,104,110.88Z"/><path class="cls-53" d="M110.25,106.87c.79-4.08-.53-13.4-.53-14.58s0-10.71,0-11.62l-2.31,1.78s-.74,7.51,0,11.79c.67,3.9.24,11.48.56,13.65A3.7,3.7,0,0,0,110.25,106.87Z"/><path class="cls-51" d="M110.45,61.85s2.07,1,.89,4.54-2,5.78-1.92,7.08a56.5,56.5,0,0,0,.83,6.6s.34,2.89-6.26,4.61c0,0-5.43.55-4.54-3a46.81,46.81,0,0,0,1.1-10.73c-.13-1.38-1-4.12,2.48-6S108.25,61.72,110.45,61.85Z"/><path class="cls-54" d="M108.93,62c-1.62.4-3.28,1.53-5.9,3-3.44,1.86-2.61,4.6-2.48,6a46.81,46.81,0,0,1-1.1,10.73c-.72,2.87,2.64,3.08,4,3C109.51,80.5,109,69.58,108.93,62Z"/><path class="cls-48" d="M108,60.26a6.38,6.38,0,0,0,.44,3.21c.62,1.12-4,2.14-4.14,1.11a4.45,4.45,0,0,0-.25-3.83C103.47,59.7,108,60.26,108,60.26Z"/><path class="cls-55" d="M108.42,63.54a5.71,5.71,0,0,1-.47-2.86l-3.4,1.68h0c.12,0,2.41.61,2.9,2.26C108.16,64.34,108.64,64,108.42,63.54Z"/><path class="cls-48" d="M103.1,55a8.4,8.4,0,0,0-.57,3.33c.15,1.67-.1,2,0,2.74a1.83,1.83,0,0,0,.38,1.09c.51.49,1.57.67,3,.15,1.74-.63,3.55-3,2.82-5.15S105.71,53.28,103.1,55Z"/><path class="cls-49" d="M108.65,59.49a31.45,31.45,0,0,0-2.4-4.36,5.5,5.5,0,0,0-1.22-.81,3.93,3.93,0,0,0-1.93.7,10.21,10.21,0,0,0-.36,1.16c.41.46,1.26,1,1.38,1.37a5,5,0,0,1-.14,2.94c-.28.62.83,1.52.6,2.07a.17.17,0,0,0,0,.07,4.68,4.68,0,0,0,4.08-3.14Z"/><path class="cls-56" d="M101.22,53.17c-.55-.34,1.12,2.65,2.63,3.39.91.45.83,1.91.79,2.19a6,6,0,0,0-.2,1.66c.21.31.92-.64,1.26-.58.86.17.53,1-.26,1.81s1.36,1.26,2.37.52c.54-.39.74-.62,1.44-2,1-2,1.32-5.08-1.34-5.82S102.74,54.1,101.22,53.17Z"/><path class="cls-57" d="M107.81,62.16c.54-.39.74-.62,1.44-2,1-2,1.39-4.5-1-5.81s-4.21.07-7-1.15A8.12,8.12,0,0,0,106,56.34c1.27.25,1.41.76,1.35,2.14s.29,3.07-1.94,3.82A2.24,2.24,0,0,0,107.81,62.16Z"/><path class="cls-50" d="M104.56,64,103,65s4.79,1.61,6.17-.7a1.35,1.35,0,0,0-.87-1.63S108.11,64.53,104.56,64Z"/><path class="cls-58" d="M87.84,63.91s-1.17-1.34-1.13-1.79-.58-.66-.58-.12a2.59,2.59,0,0,0,.3,1.09s-1.57-1.38-1.27-1.94-1.3,1-.93,2,.61,2.07,3.18,2.42A2,2,0,0,0,87.84,63.91Z"/><path class="cls-50" d="M103.22,66.23s1,2.28-2.18,3-8.63,1.59-10,.58-4.71-4.23-4.71-4.23,1.55-.47,1.48-1.84L93,66.89S102.56,64.62,103.22,66.23Z"/><path class="cls-51" d="M103.22,66.23c-.66-1.61-10.24.66-10.24.66l-5.14-3.18a1.56,1.56,0,0,1-.15.77A38.92,38.92,0,0,0,93,68.17c1,.32,8.55-.87,10.34-1.16A2.13,2.13,0,0,0,103.22,66.23Z"/><path class="cls-59" d="M58.23,74.13s-.43,6.4.75,7.16c.74.48,3.7,2.1,3.62,2.41s-1.67,2.69-1.67,2.69-5.69-3.94-5.87-5.19.28-9.37,1.06-9.74c.59-.28.89,0,1.63.53A1.88,1.88,0,0,1,58.23,74.13Z"/><path class="cls-60" d="M68.59,76l.5-.2s-.63-1.55-.9-1.51-.7.15-.7.15Z"/><path class="cls-61" d="M68.7,76.22c-.06,0-1.06-2.07-1.06-2.07l-2.14.3,1.15,2.4Z"/><path class="cls-62" d="M57.57,120.69s-.18,1.3-.2,1.49-2-.11-2-.11l-.16-1.55A11.09,11.09,0,0,1,57.57,120.69Z"/><path class="cls-63" d="M57.39,122a5.48,5.48,0,0,0,1.21,1.12c.6.34,1.54.47,1.89.82s.92,1.35-1.55,1.33-3.67.15-3.93-.27.38-3.09.38-3.09A5.07,5.07,0,0,0,57.39,122Z"/><path class="cls-62" d="M67.3,120.69s-.18,1.3-.2,1.49-2-.11-2-.11L65,120.52A11.14,11.14,0,0,1,67.3,120.69Z"/><path class="cls-63" d="M67.12,122a5.48,5.48,0,0,0,1.21,1.12c.6.34,2.79.61,3.14,1s.68,1.27-2.8,1.18c-2.48-.07-3.67.15-3.93-.27s.38-3.09.38-3.09A4.47,4.47,0,0,0,67.12,122Z"/><path class="cls-63" d="M58.27,87.43a12.35,12.35,0,0,0-1.69,5.83,63,63,0,0,1-.44,8.61c-.31,3.23-1.14,9.94-1.18,11.66s.06,8.22.06,8.22l3.16,0s1.13-13.11,1.67-14.47S62.63,96,62.73,95,58.27,87.43,58.27,87.43Z"/><path class="cls-63" d="M67.88,87.84s.72,7.53.9,9.22.06,9,.15,10.1-.6,12.26-.78,14.39l-3.48,0s-.24-9.06-.24-13.47a36.31,36.31,0,0,0-2.29-12.43c-1.23-2.9-4-3-4.79-8.36C57.35,87.27,66.86,86.13,67.88,87.84Z"/><path class="cls-64" d="M60.2,61.61s2.17-1.54,3.7.1,2.28,5.51,1.18,6.28-3,1-3.84-.07a10,10,0,0,1-2.06-3.81A2.64,2.64,0,0,1,60.2,61.61Z"/><path class="cls-64" d="M64.34,68.25a8.72,8.72,0,0,0,.14,2c.17.35-3.17.36-3.17.36a23.77,23.77,0,0,0-.79-3.46C60,65.53,64.34,68.25,64.34,68.25Z"/><path class="cls-65" d="M60.6,67.09s.32.33,1.2,0,1.71-1.94,2.07-2.18.3-.48.3-.48l.32.31.41-.07s-.63-1.06-.17-1.67-1.41-3.58-4.11-1.77c0,0-2.12,1.22-1.73,2.56A7.94,7.94,0,0,0,60.6,67.09Z"/><path class="cls-66" d="M64.68,70.17s0-.66-.29-.72a19.74,19.74,0,0,0-3.46-.21V70S61.59,70.44,64.68,70.17Z"/><path class="cls-64" d="M64,63.91c-.11-.22-.8-.73-.85,0s.68,1.55.95,1.4S64.26,64.45,64,63.91Z"/><path class="cls-59" d="M75.93,77.94Z"/><path class="cls-59" d="M68.82,71.08c-2-.37-4.14-.91-4.14-.91L60.93,70a34.85,34.85,0,0,0-4.81,1.45c-.13.06-.13,3.24-.48,4.08L56.76,78s.65,5,.79,7.18c.06,1-1.34,9.5-1.34,9.5a24.48,24.48,0,0,0,4.06.77c2.57.3,9-.11,9-.43S68,83.16,68,82.56c-.09-.92.25-5.17.25-5.17.48.68,2.78,3.66,4.06,5.13a19.48,19.48,0,0,0,4.18,2.67c1.39.66,3.62,2.17,3.7,2a17.57,17.57,0,0,0,1.39-2.83c-.16-.05-4.82-3.06-6.15-3.81-.49-.27-2.39-3.71-2.39-3.71S69.93,71.61,68.82,71.08Z"/><path class="cls-65" d="M59.57,62s-3.11.88.91,5Z"/><path class="cls-67" d="M83.34,87.79a1.16,1.16,0,0,1-.4-.05l-.37-.2-.12-.06a2.14,2.14,0,0,1-.68-.28c-.27-.19-1.16-1-1.16-1l.49-.92.2-.89a14.84,14.84,0,0,1,2.24.22l.07,0c.22.14.32.35.43.44s.4.39.39.55a.49.49,0,0,1-.23.44,1.28,1.28,0,0,1-.23.63.78.78,0,0,1-.34.57S83.56,87.73,83.34,87.79Z"/></g></g></svg>