<svg xmlns="http://www.w3.org/2000/svg" xmlns:xlink="http://www.w3.org/1999/xlink" viewBox="0 0 150 131.39"><defs><style>.cls-1,.cls-2,.cls-73{fill:none;}.cls-2,.cls-73{stroke-width:2px;}.cls-2{stroke:url(#radial-gradient);}.cls-3{fill:url(#linear-gradient);}.cls-34,.cls-4{opacity:0.5;}.cls-5{opacity:0;}.cls-6{fill:#ab5fff;}.cls-7{opacity:0.09;}.cls-8{opacity:0.18;}.cls-9{opacity:0.27;}.cls-10{opacity:0.36;}.cls-11{opacity:0.45;}.cls-12{opacity:0.55;}.cls-13{opacity:0.64;}.cls-14{opacity:0.73;}.cls-15{opacity:0.82;}.cls-16{opacity:0.91;}.cls-17{fill:#f0ff2a;}.cls-18{fill:url(#linear-gradient-2);}.cls-19{fill:url(#linear-gradient-3);}.cls-20{fill:url(#linear-gradient-4);}.cls-21{fill:url(#linear-gradient-5);}.cls-22{fill:url(#linear-gradient-6);}.cls-23{fill:url(#linear-gradient-7);}.cls-24{fill:url(#linear-gradient-8);}.cls-25{fill:url(#linear-gradient-9);}.cls-26{fill:url(#linear-gradient-10);}.cls-27{fill:url(#linear-gradient-11);}.cls-28{fill:url(#linear-gradient-12);}.cls-29{fill:url(#linear-gradient-13);}.cls-30{fill:url(#linear-gradient-14);}.cls-31{fill:url(#linear-gradient-15);}.cls-32{fill:url(#linear-gradient-16);}.cls-33{fill:url(#linear-gradient-17);}.cls-34,.cls-80{isolation:isolate;}.cls-35{fill:url(#linear-gradient-18);}.cls-36{fill:url(#linear-gradient-19);}.cls-37{fill:url(#linear-gradient-20);}.cls-38{fill:url(#linear-gradient-21);}.cls-39{fill:url(#linear-gradient-22);}.cls-40{fill:url(#linear-gradient-23);}.cls-41{fill:url(#linear-gradient-24);}.cls-42{fill:url(#linear-gradient-25);}.cls-43{fill:url(#linear-gradient-26);}.cls-44{fill:url(#linear-gradient-27);}.cls-45{fill:url(#linear-gradient-28);}.cls-46{fill:url(#linear-gradient-29);}.cls-47{fill:url(#linear-gradient-30);}.cls-48{fill:url(#linear-gradient-31);}.cls-49{fill:url(#linear-gradient-32);}.cls-50{fill:url(#linear-gradient-33);}.cls-51{fill:url(#linear-gradient-34);}.cls-52{fill:url(#linear-gradient-35);}.cls-53{fill:url(#linear-gradient-36);}.cls-54{fill:url(#linear-gradient-37);}.cls-55{fill:url(#linear-gradient-38);}.cls-56{fill:url(#linear-gradient-39);}.cls-57{fill:url(#linear-gradient-40);}.cls-58{fill:url(#linear-gradient-41);}.cls-59{fill:url(#linear-gradient-42);}.cls-60{fill:url(#linear-gradient-43);}.cls-61{fill:url(#linear-gradient-44);}.cls-62{fill:url(#linear-gradient-45);}.cls-63{fill:url(#linear-gradient-46);}.cls-64{fill:url(#linear-gradient-47);}.cls-65{fill:url(#linear-gradient-48);}.cls-66{fill:url(#linear-gradient-49);}.cls-67{fill:url(#linear-gradient-50);}.cls-68{fill:url(#linear-gradient-51);}.cls-69{fill:url(#linear-gradient-52);}.cls-70{fill:url(#linear-gradient-53);}.cls-71{fill:url(#linear-gradient-54);}.cls-72{fill:url(#linear-gradient-55);}.cls-73{stroke:url(#radial-gradient-2);}.cls-74{opacity:0.1;}.cls-75{fill:#c0c0f6;}.cls-76{fill:#e9f0f4;}.cls-77{fill:url(#linear-gradient-56);}.cls-78{fill:url(#linear-gradient-57);}.cls-79{fill:#357fff;}.cls-81{clip-path:url(#clip-path);}.cls-82{fill:#b8387b;}.cls-83{fill:#0a1014;}.cls-84{fill:#111114;}.cls-85{fill:#09294f;}.cls-86{fill:#1d1d21;}.cls-87{fill:#161619;}.cls-88{fill:#2b80ff;}.cls-89{fill:#16365c;}.cls-90{fill:url(#linear-gradient-58);}.cls-91{fill:#feffff;}.cls-92{fill:#efb185;}.cls-93{fill:#dd9569;}.cls-94{fill:#f2b78f;}.cls-95{fill:#e6a376;}.cls-96{fill:#131c24;}.cls-97{fill:#b4b9bc;}.cls-98{fill:#7d8183;}.cls-99{fill:#e3e5e5;}.cls-100{fill:#bdbbbb;}.cls-101{fill:#d2d0d0;}.cls-102{fill:#d5dfe6;}.cls-103{fill:#35527a;}.cls-104{fill:#eea886;}.cls-105{fill:#ffd670;}.cls-106{fill:#293f5e;}.cls-107{fill:#3a3f47;}.cls-108{fill:#a77860;}.cls-109{fill:#a88d4a;}.cls-110{fill:#444c94;}.cls-111{fill:#303669;}.cls-112{fill:#518afa;}</style><radialGradient id="radial-gradient" cx="83.16" cy="350.28" r="20.01" gradientTransform="matrix(1, 0, 0, -1, 0, 376.27)" gradientUnits="userSpaceOnUse"><stop offset="0" stop-color="#ffb7d1" stop-opacity="0.8"/><stop offset="1" stop-color="#f2ec51" stop-opacity="0.22"/></radialGradient><linearGradient id="linear-gradient" y1="88.09" x2="150" y2="88.09" gradientUnits="userSpaceOnUse"><stop offset="0" stop-color="#e3f8ff"/><stop offset="0.11" stop-color="#def6ff"/><stop offset="0.24" stop-color="#d0f2ff"/><stop offset="0.39" stop-color="#b8eaff"/><stop offset="0.54" stop-color="#97e0ff"/><stop offset="0.69" stop-color="#6dd3ff"/><stop offset="0.85" stop-color="#3ac2ff"/><stop offset="1" stop-color="#00b0ff"/></linearGradient><linearGradient id="linear-gradient-2" x1="23.86" y1="29.56" x2="68.27" y2="69.19" gradientUnits="userSpaceOnUse"><stop offset="0" stop-color="#fff2c9"/><stop offset="1" stop-color="#ffb7bb"/></linearGradient><linearGradient id="linear-gradient-3" x1="18.94" y1="35.08" x2="63.35" y2="74.7" xlink:href="#linear-gradient-2"/><linearGradient id="linear-gradient-4" x1="16.14" y1="38.22" x2="60.55" y2="77.84" xlink:href="#linear-gradient-2"/><linearGradient id="linear-gradient-5" x1="13.23" y1="41.48" x2="57.64" y2="81.1" xlink:href="#linear-gradient-2"/><linearGradient id="linear-gradient-6" x1="23.8" y1="29.61" x2="68.23" y2="69.25" xlink:href="#linear-gradient-2"/><linearGradient id="linear-gradient-7" x1="18.46" y1="35.61" x2="62.87" y2="75.24" xlink:href="#linear-gradient-2"/><linearGradient id="linear-gradient-8" x1="18.1" y1="36.02" x2="62.51" y2="75.64" xlink:href="#linear-gradient-2"/><linearGradient id="linear-gradient-9" x1="16.23" y1="38.12" x2="60.64" y2="77.74" xlink:href="#linear-gradient-2"/><linearGradient id="linear-gradient-10" x1="23.54" y1="29.92" x2="67.95" y2="69.54" xlink:href="#linear-gradient-2"/><linearGradient id="linear-gradient-11" x1="13.74" y1="40.9" x2="58.16" y2="80.53" xlink:href="#linear-gradient-2"/><linearGradient id="linear-gradient-12" x1="22.2" y1="31.43" x2="66.6" y2="71.05" xlink:href="#linear-gradient-2"/><linearGradient id="linear-gradient-13" x1="14.59" y1="39.95" x2="59" y2="79.58" xlink:href="#linear-gradient-2"/><linearGradient id="linear-gradient-14" x1="17" y1="37.25" x2="61.41" y2="76.88" xlink:href="#linear-gradient-2"/><linearGradient id="linear-gradient-15" x1="21.08" y1="32.68" x2="65.49" y2="72.3" xlink:href="#linear-gradient-2"/><linearGradient id="linear-gradient-16" x1="18.33" y1="35.76" x2="62.74" y2="75.38" xlink:href="#linear-gradient-2"/><linearGradient id="linear-gradient-17" x1="21.87" y1="31.79" x2="66.28" y2="71.42" xlink:href="#linear-gradient-2"/><linearGradient id="linear-gradient-18" x1="29.14" y1="23.65" x2="73.55" y2="63.27" xlink:href="#linear-gradient-2"/><linearGradient id="linear-gradient-19" x1="28.68" y1="24.16" x2="73.09" y2="63.78" xlink:href="#linear-gradient-2"/><linearGradient id="linear-gradient-20" x1="29.12" y1="23.66" x2="73.54" y2="63.29" xlink:href="#linear-gradient-2"/><linearGradient id="linear-gradient-21" x1="31.93" y1="20.52" x2="76.34" y2="60.15" xlink:href="#linear-gradient-2"/><linearGradient id="linear-gradient-22" x1="26.22" y1="26.92" x2="70.63" y2="66.55" xlink:href="#linear-gradient-2"/><linearGradient id="linear-gradient-23" x1="36.85" y1="15" x2="81.27" y2="54.64" xlink:href="#linear-gradient-2"/><linearGradient id="linear-gradient-24" x1="36.8" y1="15.06" x2="81.21" y2="54.69" xlink:href="#linear-gradient-2"/><linearGradient id="linear-gradient-25" x1="31.45" y1="21.06" x2="75.85" y2="60.68" xlink:href="#linear-gradient-2"/><linearGradient id="linear-gradient-26" x1="42.12" y1="9.09" x2="86.55" y2="48.73" xlink:href="#linear-gradient-2"/><linearGradient id="linear-gradient-27" x1="31.09" y1="21.46" x2="75.51" y2="61.09" xlink:href="#linear-gradient-2"/><linearGradient id="linear-gradient-28" x1="29.22" y1="23.56" x2="73.64" y2="63.19" xlink:href="#linear-gradient-2"/><linearGradient id="linear-gradient-29" x1="36.53" y1="15.36" x2="80.94" y2="54.99" xlink:href="#linear-gradient-2"/><linearGradient id="linear-gradient-30" x1="41.67" y1="9.6" x2="86.08" y2="49.23" xlink:href="#linear-gradient-2"/><linearGradient id="linear-gradient-31" x1="26.73" y1="26.34" x2="71.14" y2="65.97" xlink:href="#linear-gradient-2"/><linearGradient id="linear-gradient-32" x1="35.18" y1="16.87" x2="79.6" y2="56.5" xlink:href="#linear-gradient-2"/><linearGradient id="linear-gradient-33" x1="27.58" y1="25.4" x2="72" y2="65.03" xlink:href="#linear-gradient-2"/><linearGradient id="linear-gradient-34" x1="29.99" y1="22.7" x2="74.4" y2="62.32" xlink:href="#linear-gradient-2"/><linearGradient id="linear-gradient-35" x1="35.96" y1="16" x2="80.37" y2="55.62" xlink:href="#linear-gradient-2"/><linearGradient id="linear-gradient-36" x1="16.36" y1="37.97" x2="60.77" y2="77.59" xlink:href="#linear-gradient-2"/><linearGradient id="linear-gradient-37" x1="12.4" y1="42.41" x2="56.81" y2="82.03" xlink:href="#linear-gradient-2"/><linearGradient id="linear-gradient-38" x1="16.99" y1="37.26" x2="61.4" y2="76.88" xlink:href="#linear-gradient-2"/><linearGradient id="linear-gradient-39" x1="17.03" y1="37.22" x2="61.46" y2="76.85" xlink:href="#linear-gradient-2"/><linearGradient id="linear-gradient-40" x1="20.33" y1="33.52" x2="64.74" y2="73.14" xlink:href="#linear-gradient-2"/><linearGradient id="linear-gradient-41" x1="8.09" y1="47.24" x2="52.5" y2="86.86" xlink:href="#linear-gradient-2"/><linearGradient id="linear-gradient-42" x1="5.34" y1="50.32" x2="49.75" y2="89.94" xlink:href="#linear-gradient-2"/><linearGradient id="linear-gradient-43" x1="8.88" y1="46.35" x2="53.29" y2="85.98" xlink:href="#linear-gradient-2"/><linearGradient id="linear-gradient-44" x1="4" y1="51.82" x2="48.42" y2="91.44" xlink:href="#linear-gradient-2"/><linearGradient id="linear-gradient-45" x1="4.05" y1="51.77" x2="48.45" y2="91.39" xlink:href="#linear-gradient-2"/><linearGradient id="linear-gradient-46" x1="7.35" y1="48.07" x2="51.75" y2="87.69" xlink:href="#linear-gradient-2"/><linearGradient id="linear-gradient-47" x1="8.97" y1="46.26" x2="53.37" y2="85.88" xlink:href="#linear-gradient-2"/><linearGradient id="linear-gradient-48" x1="8.55" y1="46.72" x2="52.96" y2="86.34" xlink:href="#linear-gradient-2"/><linearGradient id="linear-gradient-49" x1="13.15" y1="41.57" x2="57.56" y2="81.19" xlink:href="#linear-gradient-2"/><linearGradient id="linear-gradient-50" x1="22.98" y1="30.56" x2="67.37" y2="70.17" xlink:href="#linear-gradient-2"/><linearGradient id="linear-gradient-51" x1="3.38" y1="52.53" x2="47.78" y2="92.14" xlink:href="#linear-gradient-2"/><linearGradient id="linear-gradient-52" x1="-0.59" y1="56.97" x2="43.81" y2="96.59" xlink:href="#linear-gradient-2"/><linearGradient id="linear-gradient-53" x1="-4.02" y1="60.81" x2="40.39" y2="100.44" xlink:href="#linear-gradient-2"/><linearGradient id="linear-gradient-54" x1="-4.45" y1="61.27" x2="39.98" y2="100.91" xlink:href="#linear-gradient-2"/><linearGradient id="linear-gradient-55" x1="0.16" y1="56.13" x2="44.57" y2="95.75" xlink:href="#linear-gradient-2"/><radialGradient id="radial-gradient-2" cx="33.44" cy="48.14" r="26.63" gradientTransform="matrix(1, 0, 0, 1, 0, 0)" xlink:href="#radial-gradient"/><linearGradient id="linear-gradient-56" x1="55.79" y1="71.73" x2="57.99" y2="90.75" gradientUnits="userSpaceOnUse"><stop offset="0.75" stop-color="#a9daff"/><stop offset="1" stop-color="#f3faff"/></linearGradient><linearGradient id="linear-gradient-57" x1="55.41" y1="52.77" x2="60.11" y2="76.4" xlink:href="#linear-gradient-56"/><clipPath id="clip-path"><path class="cls-1" d="M75.07,95V94h0Z"/></clipPath><linearGradient id="linear-gradient-58" x1="71.2" y1="78.34" x2="85.14" y2="78.34" gradientUnits="userSpaceOnUse"><stop offset="0" stop-color="#cddef7"/><stop offset="0.55" stop-color="#7fbaf6"/><stop offset="0.9" stop-color="#4ca3f5"/><stop offset="1" stop-color="#147cc9"/></linearGradient></defs><title>3Asset 10</title><g id="Layer_2" data-name="Layer 2"><g id="Layer_1-2" data-name="Layer 1"><path class="cls-2" d="M55.48,38.77l12.1-10.62L72,33.6,85.63,22.16l5.94,6,17.16-13.34-8.2-1.37m6,9.28,3.33-8.64"/><ellipse class="cls-3" cx="75" cy="88.09" rx="75" ry="43.3"/><g class="cls-4"><g class="cls-5"><path class="cls-6" d="M126.06,40.69l3.39,2a.7.7,0,0,0,.7,0l3.43-2a.69.69,0,0,0,0-1.2l-3.4-2a.71.71,0,0,0-.69,0l-3.43,2A.69.69,0,0,0,126.06,40.69Z"/></g><g class="cls-7"><path class="cls-6" d="M126.06,38.15l3.39,2a.68.68,0,0,0,.7,0l3.43-2a.69.69,0,0,0,0-1.19l-3.4-2a.66.66,0,0,0-.69,0l-3.43,2A.69.69,0,0,0,126.06,38.15Z"/></g><g class="cls-8"><path class="cls-6" d="M126.06,35.6l3.39,2a.73.73,0,0,0,.7,0l3.43-2a.69.69,0,0,0,0-1.2l-3.4-2a.66.66,0,0,0-.69,0l-3.43,2A.69.69,0,0,0,126.06,35.6Z"/></g><g class="cls-9"><path class="cls-6" d="M126.06,33.06l3.39,2a.73.73,0,0,0,.7,0l3.43-2a.69.69,0,0,0,0-1.2l-3.4-2a.68.68,0,0,0-.69,0l-3.43,2A.69.69,0,0,0,126.06,33.06Z"/></g><g class="cls-10"><path class="cls-6" d="M126.06,30.52l3.39,2a.7.7,0,0,0,.7,0l3.43-2a.69.69,0,0,0,0-1.2l-3.4-2a.71.71,0,0,0-.69,0l-3.43,2A.69.69,0,0,0,126.06,30.52Z"/></g><g class="cls-11"><path class="cls-6" d="M126.06,28l3.39,2a.68.68,0,0,0,.7,0l3.43-2a.69.69,0,0,0,0-1.19l-3.4-2a.66.66,0,0,0-.69,0l-3.43,2A.69.69,0,0,0,126.06,28Z"/></g><g class="cls-12"><path class="cls-6" d="M126.06,25.43l3.39,2a.73.73,0,0,0,.7,0l3.43-2a.69.69,0,0,0,0-1.2l-3.4-2a.66.66,0,0,0-.69,0l-3.43,2A.69.69,0,0,0,126.06,25.43Z"/></g><g class="cls-13"><path class="cls-6" d="M126.06,22.89l3.39,2a.73.73,0,0,0,.7,0l3.43-2a.69.69,0,0,0,0-1.2l-3.4-2a.71.71,0,0,0-.69,0l-3.43,2A.69.69,0,0,0,126.06,22.89Z"/></g><g class="cls-14"><path class="cls-6" d="M126.06,20.35l3.39,2a.7.7,0,0,0,.7,0l3.43-2a.69.69,0,0,0,0-1.2l-3.4-2a.71.71,0,0,0-.69,0l-3.43,2A.69.69,0,0,0,126.06,20.35Z"/></g><g class="cls-15"><path class="cls-6" d="M126.06,17.81l3.39,2a.68.68,0,0,0,.7,0l3.43-2a.69.69,0,0,0,0-1.2l-3.4-2a.66.66,0,0,0-.69,0l-3.43,2A.69.69,0,0,0,126.06,17.81Z"/></g><g class="cls-16"><path class="cls-6" d="M126.06,15.26l3.39,2a.73.73,0,0,0,.7,0l3.43-2a.69.69,0,0,0,0-1.2l-3.4-2a.66.66,0,0,0-.69,0l-3.43,2A.69.69,0,0,0,126.06,15.26Z"/></g><path class="cls-6" d="M126.06,12.72l3.39,2a.7.7,0,0,0,.7,0l3.43-2a.69.69,0,0,0,0-1.2l-3.4-2a.71.71,0,0,0-.69,0l-3.43,2A.69.69,0,0,0,126.06,12.72Z"/></g><path class="cls-6" d="M126.06,12.72l3.39,2a.7.7,0,0,0,.7,0l3.43-2a.69.69,0,0,0,0-1.2l-3.4-2a.71.71,0,0,0-.69,0l-3.43,2A.69.69,0,0,0,126.06,12.72Z"/><g class="cls-4"><g class="cls-5"><path class="cls-17" d="M75.66,17l-2.42,1.41a.48.48,0,0,1-.49,0L70.31,17a.49.49,0,0,1,0-.85l2.42-1.41a.48.48,0,0,1,.49,0l2.44,1.41A.49.49,0,0,1,75.66,17Z"/></g><g class="cls-7"><path class="cls-17" d="M75.66,15.68l-2.42,1.41a.48.48,0,0,1-.49,0l-2.44-1.41a.49.49,0,0,1,0-.85l2.42-1.41a.53.53,0,0,1,.49,0l2.44,1.41A.49.49,0,0,1,75.66,15.68Z"/></g><g class="cls-8"><path class="cls-17" d="M75.66,14.35l-2.42,1.4a.5.5,0,0,1-.49,0l-2.44-1.41a.5.5,0,0,1,0-.86l2.42-1.4a.48.48,0,0,1,.49,0l2.44,1.41A.49.49,0,0,1,75.66,14.35Z"/></g><g class="cls-9"><path class="cls-17" d="M75.66,13l-2.42,1.41a.48.48,0,0,1-.49,0L70.31,13a.49.49,0,0,1,0-.85l2.42-1.41a.48.48,0,0,1,.49,0l2.44,1.41A.49.49,0,0,1,75.66,13Z"/></g><g class="cls-10"><path class="cls-17" d="M75.66,11.68l-2.42,1.4a.48.48,0,0,1-.49,0l-2.44-1.4a.5.5,0,0,1,0-.86l2.42-1.4a.48.48,0,0,1,.49,0l2.44,1.41A.49.49,0,0,1,75.66,11.68Z"/></g><g class="cls-11"><path class="cls-17" d="M75.66,10.34l-2.42,1.41a.48.48,0,0,1-.49,0l-2.44-1.41a.49.49,0,0,1,0-.85l2.42-1.41a.48.48,0,0,1,.49,0l2.44,1.41A.49.49,0,0,1,75.66,10.34Z"/></g><g class="cls-12"><path class="cls-17" d="M75.66,9l-2.42,1.4a.48.48,0,0,1-.49,0L70.31,9a.49.49,0,0,1,0-.85l2.42-1.4a.5.5,0,0,1,.49,0l2.44,1.41A.5.5,0,0,1,75.66,9Z"/></g><g class="cls-13"><path class="cls-17" d="M75.66,7.67,73.24,9.08a.53.53,0,0,1-.49,0L70.31,7.67a.49.49,0,0,1,0-.85l2.42-1.41a.48.48,0,0,1,.49,0l2.44,1.41A.49.49,0,0,1,75.66,7.67Z"/></g><g class="cls-14"><path class="cls-17" d="M75.66,6.33,73.24,7.74a.48.48,0,0,1-.49,0L70.31,6.33a.49.49,0,0,1,0-.85l2.42-1.41a.5.5,0,0,1,.49,0l2.44,1.41A.49.49,0,0,1,75.66,6.33Z"/></g><g class="cls-15"><path class="cls-17" d="M75.66,5,73.24,6.4a.48.48,0,0,1-.49,0L70.31,5a.5.5,0,0,1,0-.86l2.42-1.4a.48.48,0,0,1,.49,0l2.44,1.41A.49.49,0,0,1,75.66,5Z"/></g><g class="cls-16"><path class="cls-17" d="M75.66,3.66,73.24,5.07a.48.48,0,0,1-.49,0L70.31,3.66a.49.49,0,0,1,0-.85L72.73,1.4a.48.48,0,0,1,.49,0l2.44,1.41A.49.49,0,0,1,75.66,3.66Z"/></g><path class="cls-17" d="M75.66,2.33l-2.42,1.4a.48.48,0,0,1-.49,0l-2.44-1.4a.5.5,0,0,1,0-.86L72.73.07a.48.48,0,0,1,.49,0l2.44,1.4A.5.5,0,0,1,75.66,2.33Z"/></g><path class="cls-17" d="M75.66,2.33l-2.42,1.4a.5.5,0,0,1-.49,0L70.31,2.33a.5.5,0,0,1,0-.86L72.73.07a.48.48,0,0,1,.49,0l2.44,1.41A.49.49,0,0,1,75.66,2.33Z"/><g class="cls-4"><polygon class="cls-18" points="47.97 53.45 47.97 55.45 52.57 52.79 52.56 50.8 47.97 53.45"/></g><polygon class="cls-19" points="43.39 62.65 43.4 64.66 52.59 59.35 52.58 57.34 43.39 62.65"/><polygon class="cls-20" points="40.17 67.79 40.18 69.79 52.6 62.62 52.59 60.63 40.17 67.79"/><polygon class="cls-21" points="38.21 65.64 38.21 67.65 42.13 65.39 42.13 63.38 38.21 65.64"/><polygon class="cls-22" points="43.36 52.82 43.37 54.82 52.56 49.52 52.55 47.51 43.36 52.82"/><polygon class="cls-23" points="37.61 62.7 37.62 64.7 52.58 56.06 52.57 54.07 37.61 62.7"/><polygon class="cls-24" points="38.18 55.81 38.19 57.82 42.1 55.56 42.1 53.55 38.18 55.81"/><polygon class="cls-25" points="33.11 62.03 33.11 64.02 46.52 56.28 46.51 54.29 33.11 62.03"/><polygon class="cls-26" points="38.17 52.54 38.17 54.53 52.55 46.23 52.54 44.24 38.17 52.54"/><polygon class="cls-27" points="31.95 59.41 31.96 61.41 36.4 58.85 36.39 56.84 31.95 59.41"/><polygon class="cls-28" points="34.62 51.31 34.62 53.3 47.95 45.61 47.94 43.62 34.62 51.31"/><polygon class="cls-29" points="29.8 57.37 29.81 59.37 36.39 55.57 36.38 53.57 29.8 57.37"/><polygon class="cls-30" points="27.49 52.14 27.5 54.14 36.37 49.02 36.36 47.01 27.49 52.14"/><polygon class="cls-31" points="29.77 44.27 29.77 46.26 36.35 42.46 36.34 40.47 29.77 44.27"/><polygon class="cls-32" points="26.69 49.32 26.69 51.33 36.36 45.74 36.35 43.74 26.69 49.32"/><polygon class="cls-33" points="27.46 42.3 27.47 44.31 36.34 39.19 36.34 37.18 27.46 42.3"/><g class="cls-34"><polygon class="cls-35" points="49.04 42.98 49.05 44.98 52.54 42.96 52.53 40.97 49.04 42.98"/><polygon class="cls-36" points="43.34 42.99 43.34 44.99 52.53 39.69 52.52 37.68 43.34 42.99"/><polygon class="cls-37" points="40.1 41.58 40.11 43.58 52.52 36.41 52.52 34.41 40.1 41.58"/></g><g class="cls-4"><polygon class="cls-38" points="43.32 36.44 43.32 38.44 52.51 33.13 52.51 31.14 43.32 36.44"/></g><g class="cls-4"><polygon class="cls-39" points="38.13 39.43 38.14 41.43 42.06 39.17 42.05 37.17 38.13 39.43"/></g><polygon class="cls-40" points="47.89 27.23 47.9 29.23 52.49 26.58 52.49 24.58 47.89 27.23"/><polygon class="cls-41" points="43.29 26.61 43.29 28.61 52.48 23.3 52.48 21.3 43.29 26.61"/><polygon class="cls-42" points="37.54 36.49 37.55 38.49 52.5 29.86 52.5 27.85 37.54 36.49"/><polygon class="cls-43" points="48.97 16.76 48.97 18.77 52.47 16.75 52.46 14.75 48.97 16.76"/><polygon class="cls-44" points="38.1 29.6 38.11 31.6 42.03 29.34 42.02 27.34 38.1 29.6"/><polygon class="cls-45" points="33.03 35.81 33.04 37.82 46.45 30.08 46.44 28.07 33.03 35.81"/><polygon class="cls-46" points="38.09 26.32 38.1 28.32 52.47 20.03 52.47 18.02 38.09 26.32"/><polygon class="cls-47" points="43.26 16.78 43.27 18.77 52.46 13.47 52.45 11.47 43.26 16.78"/><polygon class="cls-48" points="31.88 33.2 31.88 35.2 36.32 32.63 36.32 30.64 31.88 33.2"/><polygon class="cls-49" points="34.54 25.09 34.55 27.09 47.87 19.41 47.87 17.4 34.54 25.09"/><polygon class="cls-50" points="29.73 31.15 29.73 33.16 36.31 29.36 36.31 27.35 29.73 31.15"/><polygon class="cls-51" points="27.42 25.93 27.42 27.92 36.29 22.8 36.29 20.8 27.42 25.93"/><g class="cls-4"><polygon class="cls-52" points="38.08 19.77 38.08 21.77 42 19.5 42 17.51 38.08 19.77"/></g><g class="cls-4"><polygon class="cls-53" points="14.05 40.2 14.06 42.2 21.26 38.05 21.26 36.04 14.05 40.2"/></g><g class="cls-4"><polygon class="cls-54" points="14.07 46.76 14.08 48.76 19.32 45.73 19.32 43.73 14.07 46.76"/></g><g class="cls-4"><polygon class="cls-55" points="14.06 43.48 14.07 45.48 27.45 37.75 27.44 35.76 14.06 43.48"/></g><g class="cls-4"><polygon class="cls-56" points="14.04 36.93 14.05 38.93 18.64 36.28 18.64 34.27 14.04 36.93"/></g><g class="cls-4"><polygon class="cls-57" points="14.04 33.65 14.04 35.65 23.23 30.34 23.22 28.35 14.04 33.65"/></g><g class="cls-34"><polygon class="cls-58" points="29.84 70.47 29.85 72.48 36.42 68.68 36.42 66.67 29.84 70.47"/><polygon class="cls-59" points="26.76 75.54 26.77 77.53 36.43 71.95 36.43 69.96 26.76 75.54"/><polygon class="cls-60" points="27.54 68.52 27.54 70.52 36.42 65.4 36.41 63.4 27.54 68.52"/></g><g class="cls-4"><polygon class="cls-61" points="14.14 69.69 14.14 71.7 27.52 63.97 27.52 61.97 14.14 69.69"/></g><g class="cls-4"><polygon class="cls-62" points="14.12 63.14 14.13 65.14 18.72 62.49 18.71 60.49 14.12 63.14"/></g><g class="cls-34"><polygon class="cls-63" points="14.11 59.86 14.12 61.87 23.3 56.56 23.3 54.56 14.11 59.86"/><polygon class="cls-64" points="14.1 56.59 14.11 58.59 23.3 53.29 23.29 51.28 14.1 56.59"/><polygon class="cls-65" points="14.09 53.31 14.1 55.31 17.7 53.23 17.69 51.23 14.09 53.31"/></g><polygon class="cls-66" points="14.08 50.03 14.09 52.03 25.84 45.25 25.83 43.25 14.08 50.03"/><g class="cls-4"><polygon class="cls-67" points="38.15 45.98 38.16 47.99 42.08 45.72 42.07 43.72 38.15 45.98"/></g><g class="cls-4"><polygon class="cls-68" points="14.13 66.42 14.13 68.41 21.34 64.25 21.33 62.26 14.13 66.42"/></g><polygon class="cls-69" points="14.15 72.97 14.15 74.97 19.4 71.94 19.39 69.95 14.15 72.97"/><g class="cls-34"><polygon class="cls-70" points="14.18 82.8 14.18 84.8 23.37 79.5 23.36 77.5 14.18 82.8"/><polygon class="cls-71" points="14.17 79.52 14.17 81.53 17.77 79.45 17.77 77.44 14.17 79.52"/><polygon class="cls-72" points="14.16 76.25 14.16 78.25 25.91 71.46 25.9 69.47 14.16 76.25"/></g><polygon class="cls-73" points="47.97 53.45 47.97 55.45 52.57 52.79 52.56 50.8 47.97 53.45"/><polygon class="cls-73" points="43.39 62.65 43.4 64.66 52.59 59.35 52.58 57.34 43.39 62.65"/><polygon class="cls-73" points="40.17 67.79 40.18 69.79 52.6 62.62 52.59 60.63 40.17 67.79"/><polygon class="cls-73" points="38.21 65.64 38.21 67.65 42.13 65.39 42.13 63.38 38.21 65.64"/><polygon class="cls-73" points="43.36 52.82 43.37 54.82 52.56 49.52 52.55 47.51 43.36 52.82"/><polygon class="cls-73" points="37.61 62.7 37.62 64.7 52.58 56.06 52.57 54.07 37.61 62.7"/><polygon class="cls-73" points="38.18 55.81 38.19 57.82 42.1 55.56 42.1 53.55 38.18 55.81"/><polygon class="cls-73" points="33.11 62.03 33.11 64.02 46.52 56.28 46.51 54.29 33.11 62.03"/><polygon class="cls-73" points="38.17 52.54 38.17 54.53 52.55 46.23 52.54 44.24 38.17 52.54"/><polygon class="cls-73" points="31.95 59.41 31.96 61.41 36.4 58.85 36.39 56.84 31.95 59.41"/><polygon class="cls-73" points="34.62 51.31 34.62 53.3 47.95 45.61 47.94 43.62 34.62 51.31"/><polygon class="cls-73" points="29.8 57.37 29.81 59.37 36.39 55.57 36.38 53.57 29.8 57.37"/><polygon class="cls-73" points="27.49 52.14 27.5 54.14 36.37 49.02 36.36 47.01 27.49 52.14"/><polygon class="cls-73" points="29.77 44.27 29.77 46.26 36.35 42.46 36.34 40.47 29.77 44.27"/><polygon class="cls-73" points="26.69 49.32 26.69 51.33 36.36 45.74 36.35 43.74 26.69 49.32"/><polygon class="cls-73" points="27.46 42.3 27.47 44.31 36.34 39.19 36.34 37.18 27.46 42.3"/><polygon class="cls-73" points="49.04 42.98 49.05 44.98 52.54 42.96 52.53 40.97 49.04 42.98"/><polygon class="cls-73" points="43.34 42.99 43.34 44.99 52.53 39.69 52.52 37.68 43.34 42.99"/><polygon class="cls-73" points="40.1 41.58 40.11 43.58 52.52 36.41 52.52 34.41 40.1 41.58"/><polygon class="cls-73" points="43.32 36.44 43.32 38.44 52.51 33.13 52.51 31.14 43.32 36.44"/><polygon class="cls-73" points="38.13 39.43 38.14 41.43 42.06 39.17 42.05 37.17 38.13 39.43"/><polygon class="cls-73" points="47.89 27.23 47.9 29.23 52.49 26.58 52.49 24.58 47.89 27.23"/><polygon class="cls-73" points="43.29 26.61 43.29 28.61 52.48 23.3 52.48 21.3 43.29 26.61"/><polygon class="cls-73" points="37.54 36.49 37.55 38.49 52.5 29.86 52.5 27.85 37.54 36.49"/><polygon class="cls-73" points="48.97 16.76 48.97 18.77 52.47 16.75 52.46 14.75 48.97 16.76"/><polygon class="cls-73" points="38.1 29.6 38.11 31.6 42.03 29.34 42.02 27.34 38.1 29.6"/><polygon class="cls-73" points="33.03 35.81 33.04 37.82 46.45 30.08 46.44 28.07 33.03 35.81"/><polygon class="cls-73" points="38.09 26.32 38.1 28.32 52.47 20.03 52.47 18.02 38.09 26.32"/><polygon class="cls-73" points="43.26 16.78 43.27 18.77 52.46 13.47 52.45 11.47 43.26 16.78"/><polygon class="cls-73" points="31.88 33.2 31.88 35.2 36.32 32.63 36.32 30.64 31.88 33.2"/><polygon class="cls-73" points="34.54 25.09 34.55 27.09 47.87 19.41 47.87 17.4 34.54 25.09"/><polygon class="cls-73" points="29.73 31.15 29.73 33.16 36.31 29.36 36.31 27.35 29.73 31.15"/><polygon class="cls-73" points="27.42 25.93 27.42 27.92 36.29 22.8 36.29 20.8 27.42 25.93"/><polygon class="cls-73" points="38.08 19.77 38.08 21.77 42 19.5 42 17.51 38.08 19.77"/><polygon class="cls-73" points="14.05 40.2 14.06 42.2 21.26 38.05 21.26 36.04 14.05 40.2"/><polygon class="cls-73" points="14.07 46.76 14.08 48.76 19.32 45.73 19.32 43.73 14.07 46.76"/><polygon class="cls-73" points="14.06 43.48 14.07 45.48 27.45 37.75 27.44 35.76 14.06 43.48"/><polygon class="cls-73" points="14.04 36.93 14.05 38.93 18.64 36.28 18.64 34.27 14.04 36.93"/><polygon class="cls-73" points="14.04 33.65 14.04 35.65 23.23 30.34 23.22 28.35 14.04 33.65"/><polygon class="cls-73" points="29.84 70.47 29.85 72.48 36.42 68.68 36.42 66.67 29.84 70.47"/><polygon class="cls-73" points="26.76 75.54 26.77 77.53 36.43 71.95 36.43 69.96 26.76 75.54"/><polygon class="cls-73" points="27.54 68.52 27.54 70.52 36.42 65.4 36.41 63.4 27.54 68.52"/><polygon class="cls-73" points="14.14 69.69 14.14 71.7 27.52 63.97 27.52 61.97 14.14 69.69"/><polygon class="cls-73" points="14.12 63.14 14.13 65.14 18.72 62.49 18.71 60.49 14.12 63.14"/><polygon class="cls-73" points="14.11 59.86 14.12 61.87 23.3 56.56 23.3 54.56 14.11 59.86"/><polygon class="cls-73" points="14.1 56.59 14.11 58.59 23.3 53.29 23.29 51.28 14.1 56.59"/><polygon class="cls-73" points="14.09 53.31 14.1 55.31 17.7 53.23 17.69 51.23 14.09 53.31"/><polygon class="cls-73" points="14.08 50.03 14.09 52.03 25.84 45.25 25.83 43.25 14.08 50.03"/><polygon class="cls-73" points="38.15 45.98 38.16 47.99 42.08 45.72 42.07 43.72 38.15 45.98"/><polygon class="cls-73" points="14.13 66.42 14.13 68.41 21.34 64.25 21.33 62.26 14.13 66.42"/><polygon class="cls-73" points="14.15 72.97 14.15 74.97 19.4 71.94 19.39 69.95 14.15 72.97"/><polygon class="cls-73" points="14.18 82.8 14.18 84.8 23.37 79.5 23.36 77.5 14.18 82.8"/><polygon class="cls-73" points="14.17 79.52 14.17 81.53 17.77 79.45 17.77 77.44 14.17 79.52"/><polygon class="cls-73" points="14.16 76.25 14.16 78.25 25.91 71.46 25.9 69.47 14.16 76.25"/><g class="cls-74"><path d="M74.36,76.35c8.89,5.14,8.93,13.47.09,18.61s-23.21,5.13-32.1,0-9-13.47-.12-18.61S65.46,71.22,74.36,76.35Z"/></g><path class="cls-75" d="M78.15,77.17l0,.16A4.85,4.85,0,0,1,78,78a5.27,5.27,0,0,1-.19.68,9.63,9.63,0,0,1-.42,1l-.09.17a10.66,10.66,0,0,1-.64,1.06l-.1.14c-.23.32-.48.63-.75.94l-.15.17c-.29.32-.62.63-1,.94s-.47.39-.71.58-.4.34-.63.5-.54.37-.83.55-.54.37-.85.55c-.49.28-1,.55-1.53.8l-.42.2c-.47.22-1,.42-1.44.62l-.21.08c-.53.2-1.07.38-1.62.55-.39.13-.78.23-1.18.34s-.58.17-.88.24l-1.31.28-.85.17-.43.07-1.53.22-.49,0c-.29,0-.59,0-.88.08-.52,0-1,.08-1.55.1-.33,0-.67,0-1,0H55.1l-1.05,0L52.91,89l-1.06-.09-1.13-.13-1-.14-1.18-.21-1-.2c-.47-.1-.92-.22-1.38-.34-.31-.08-.62-.15-.92-.24l-.47-.15c-.47-.15-.93-.3-1.38-.47l-.4-.15c-.41-.15-.8-.33-1.19-.5l-.6-.26c-.58-.28-1.13-.56-1.67-.87-4.47-2.59-6.71-6-6.7-9.36V81.6c0,3.39,2.22,6.78,6.7,9.37.53.3,1.09.59,1.66.86.2.1.41.18.61.27l1,.44.18.06.4.15c.46.17.91.32,1.38.47l.48.15.32.1.58.14,1.41.35c.13,0,.25.06.38.09l.56.1,1.21.2c.16,0,.32.07.48.09l.54.06c.37,0,.74.09,1.12.12l.55.07.51,0q.57,0,1.14.06l.59,0h.46c.41,0,.83,0,1.24,0h.62l.37,0c.51,0,1-.06,1.51-.1l.65,0,.19,0c.87-.09,1.73-.21,2.57-.36l.14,0c.25,0,.49-.11.74-.16.42-.08.83-.16,1.24-.26s.59-.16.88-.24.8-.21,1.19-.34l.24-.07q.7-.23,1.38-.48l.2-.09c.5-.19,1-.4,1.45-.61l.42-.2c.52-.25,1-.52,1.53-.8l.27-.17c.21-.12.39-.26.58-.38s.57-.36.83-.55l.62-.5c.25-.19.49-.38.71-.58l.14-.12a10.42,10.42,0,0,0,.81-.82l.15-.17c.15-.17.31-.35.44-.52l.31-.42.11-.15c.18-.26.35-.52.5-.79,0-.08.09-.17.14-.26s.06-.11.08-.17a5.93,5.93,0,0,0,.38-.86s0-.09.05-.14c.07-.22.13-.44.19-.67s.1-.31.13-.46,0-.09,0-.13c0-.23.05-.47.07-.71s0-.31.06-.47v-.2l0-5.72A7.68,7.68,0,0,1,78.15,77.17Z"/><path class="cls-76" d="M71.54,66.64c8.9,5.13,8.95,13.46.11,18.6s-23.22,5.13-32.12,0-8.94-13.47-.1-18.6S62.65,61.5,71.54,66.64Z"/><path class="cls-77" d="M69.51,57.19c-7.76-4.48-20.32-4.48-28,0-3.85,2.24-5.76,5.16-5.76,8.09v0l0,8.19c0,3,1.94,5.92,5.84,8.17.47.27,1,.52,1.45.76l.54.23.87.38.12,0q1,.41,2.13.72l.16.05c.16,0,.33.08.49.12.42.11.83.22,1.26.31l.32.08.49.09,1.05.18.42.07c.16,0,.32,0,.48.06l1,.11.49,0,.46,0c.33,0,.66,0,1,.06l.5,0c.14,0,.27,0,.4,0,.37,0,.74,0,1.11,0h.52l.32,0c.45,0,.89-.05,1.34-.09l.54,0,.17,0c.76-.08,1.51-.18,2.25-.31h.11l.67-.15c.36-.07.72-.14,1.07-.23l.79-.21,1-.28.23-.07.36-.14c.53-.18,1-.37,1.54-.58l.57-.25a20.4,20.4,0,0,0,1.87-.94l.24-.14.53-.36c.24-.15.47-.3.69-.46s.38-.29.57-.44.41-.33.6-.5l.12-.1c.26-.24.49-.48.72-.72l.12-.15c.13-.15.27-.3.39-.45s.18-.25.27-.37l.09-.13a7.28,7.28,0,0,0,.44-.69s0-.1.07-.15c.11-.2.2-.41.29-.62s.12-.23.17-.35a1,1,0,0,1,0-.12c.07-.2.12-.4.17-.6s.09-.27.12-.4,0-.07,0-.11c0-.2,0-.4.07-.6s0-.28,0-.43v-.17l0-8.18c0,.18,0,.37,0,.55C75.58,62.78,73.66,59.59,69.51,57.19Zm3.92,13.07c.15-.18.31-.36.45-.55l0,0C73.72,69.92,73.57,70.09,73.43,70.26Zm.75-1c.1-.16.2-.31.28-.47,0,0,0,0,0,0S74.27,69.07,74.18,69.22Zm.57-1.07c.07-.17.14-.33.2-.5v0C74.89,67.83,74.81,68,74.75,68.15ZM75.13,67c0-.17.09-.33.12-.5a0,0,0,0,0,0,0A4,4,0,0,1,75.13,67Zm-2,3.65v0c-.18.19-.39.38-.59.57A8.38,8.38,0,0,0,73.08,70.69Zm-1.77,1.59.33-.26h0Zm-.94.66h0c-.24.17-.48.33-.75.49C69.87,73.27,70.12,73.1,70.37,72.94ZM37.68,70.23c.11.14.21.28.33.41C37.89,70.51,37.79,70.37,37.68,70.23Zm-1.91-4.4a3.53,3.53,0,0,0,0,.56A3.53,3.53,0,0,1,35.77,65.83ZM36,67a4.39,4.39,0,0,0,.13.52A4.39,4.39,0,0,1,36,67Zm.38,1.12c.07.16.13.32.21.48C36.47,68.4,36.41,68.24,36.34,68.08Zm.57,1.09c.1.15.17.3.27.45C37.08,69.47,37,69.32,36.91,69.17Zm3.29,3.38c-.12-.08-.23-.18-.35-.27C40,72.37,40.08,72.47,40.2,72.55ZM39,71.62l-.37-.36Z"/><path class="cls-75" d="M78.15,61.1l0,.16a4.61,4.61,0,0,1-.16.64c-.06.23-.11.46-.19.68a9.63,9.63,0,0,1-.42,1l-.09.17q-.29.52-.63,1l-.12.16c-.22.31-.47.62-.74.93l-.15.17c-.29.32-.62.63-1,.94s-.46.39-.7.58-.41.34-.63.5l-.81.54c-.29.19-.56.38-.87.56-.5.29-1,.55-1.54.81l-.41.19c-.47.22-1,.43-1.46.62l-.19.08c-.53.2-1.07.38-1.63.56-.38.12-.78.22-1.17.33s-.59.17-.89.24-.84.19-1.27.27l-.84.17q-1.28.22-2.58.36l-.83.07c-.5,0-1,.08-1.51.1-.33,0-.67,0-1,0H55.11c-.36,0-.71,0-1.07,0l-1.12,0-1.08-.09-1.11-.13c-.34,0-.69-.09-1-.15l-1.2-.2-.94-.19c-.47-.11-.93-.22-1.39-.35l-.94-.24-.46-.15c-.47-.15-.92-.3-1.38-.47l-.4-.15c-.4-.15-.79-.33-1.17-.5L41.19,70c-.57-.27-1.12-.56-1.66-.86-4.48-2.59-6.71-6-6.7-9.37l0,5.73c0,3.39,2.23,6.78,6.71,9.36.53.31,1.09.6,1.66.88l.58.25c.34.15.68.31,1,.44l.18.07.41.15c.45.16.9.32,1.36.46l.5.16.31.1.56.13c.48.13,1,.25,1.44.35l.37.1c.19,0,.38.06.57.09.39.08.79.15,1.19.21l.49.09.54.06,1.14.13c.18,0,.35,0,.53.06l.49,0q.59,0,1.17.06l.58,0c.15,0,.31,0,.46,0,.42,0,.83,0,1.24,0h.62l.37,0c.52,0,1-.06,1.56-.11.2,0,.4,0,.59,0l.28,0,.49-.06c.52-.06,1.05-.13,1.57-.22l.36,0,.2,0c.26,0,.5-.11.75-.16.42-.08.83-.16,1.23-.26s.59-.16.89-.24.79-.21,1.18-.34l.25-.07c.46-.15.92-.31,1.37-.48l.22-.09c.48-.19,1-.39,1.43-.61l.42-.2c.53-.25,1-.52,1.53-.8l.28-.17c.2-.12.37-.25.57-.38s.57-.36.83-.56.43-.33.64-.49.48-.38.69-.58l.14-.12a10.57,10.57,0,0,0,.82-.82l.15-.17c.15-.17.31-.35.44-.52s.21-.28.31-.43a.71.71,0,0,0,.1-.14,7.56,7.56,0,0,0,.51-.79l.14-.27s0-.1.08-.16a7.26,7.26,0,0,0,.38-.86s0-.1.05-.15q.1-.33.18-.66a3.64,3.64,0,0,0,.14-.47.49.49,0,0,0,0-.12,5.71,5.71,0,0,0,.08-.71c0-.16,0-.31.06-.47v-.2l0-5.73A7.46,7.46,0,0,1,78.15,61.1Z"/><path class="cls-76" d="M71.54,50.57c8.9,5.14,8.95,13.47.11,18.61s-23.22,5.13-32.12,0-8.94-13.47-.1-18.6S62.65,45.44,71.54,50.57Z"/><path class="cls-78" d="M69.51,41.13c-7.76-4.48-20.32-4.48-28,0-3.85,2.23-5.76,5.16-5.76,8.09v0l0,8.19c0,2.95,1.94,5.92,5.84,8.17.47.27,1,.52,1.46.76l.53.23c.29.13.57.26.87.38l.11,0c.69.27,1.4.5,2.13.72l.17,0,.51.13c.41.11.82.21,1.24.3l.32.08.48.08,1.07.19.41.07.47,0c.33.05.66.08,1,.12l.47,0,.44,0,1,.06.49,0h1.51c.17,0,.35,0,.52,0l.32,0,1.35-.09.53,0,.17,0c.76-.08,1.51-.18,2.25-.31l.11,0,.65-.14c.37-.07.73-.14,1.09-.23l.78-.21c.34-.09.68-.18,1-.29l.23-.06.36-.14c.52-.18,1-.37,1.54-.58l.57-.25a20.4,20.4,0,0,0,1.87-.94l.24-.14.53-.36c.24-.15.47-.3.69-.46s.38-.29.56-.44.42-.33.61-.5l.12-.1c.26-.24.49-.48.71-.72l.13-.15a5.58,5.58,0,0,0,.39-.46c.1-.12.18-.24.27-.36l.09-.13c.16-.23.31-.46.44-.69,0,0,0-.1.07-.15.11-.2.2-.41.29-.62s.12-.24.17-.36l0-.12a5.72,5.72,0,0,0,.17-.59c0-.13.09-.27.12-.4s0-.07,0-.11c0-.2,0-.4.07-.6s0-.28,0-.43v-.17l0-8.18c0,.18,0,.36,0,.55C75.58,46.72,73.66,43.53,69.51,41.13ZM73.43,54.2l.45-.55,0,0C73.72,53.86,73.57,54,73.43,54.2Zm.75-1c.1-.16.2-.31.28-.47,0,0,0,0,0,0S74.27,53,74.18,53.16Zm.57-1.08c.07-.16.14-.32.2-.49v0C74.89,51.77,74.81,51.93,74.75,52.08ZM75.13,51c0-.16.09-.32.12-.49a0,0,0,0,0,0,0A3.84,3.84,0,0,1,75.13,51Zm-2,3.66v0c-.18.19-.39.38-.59.57C72.69,55,72.9,54.83,73.08,54.63Zm-1.77,1.59.33-.27v0Zm-.94.65h0c-.25.16-.49.33-.76.49C69.88,57.21,70.12,57,70.37,56.87Zm-32.69-2.7c.11.14.21.28.33.41C37.89,54.45,37.79,54.31,37.68,54.17Zm-1.91-4.4a3.53,3.53,0,0,0,0,.56A3.53,3.53,0,0,1,35.77,49.77ZM36,50.9a4.39,4.39,0,0,0,.13.52A4.39,4.39,0,0,1,36,50.9ZM36.34,52c.07.16.13.32.21.48C36.47,52.34,36.41,52.18,36.34,52Zm.57,1.09c.1.15.17.3.27.45C37.08,53.41,37,53.26,36.91,53.11Zm3.29,3.38-.35-.27ZM39,55.56l-.37-.36Z"/><path class="cls-75" d="M78.15,44l0,.17c0,.21-.1.42-.16.63s-.11.46-.19.68a9.63,9.63,0,0,1-.42,1l-.09.17a10.66,10.66,0,0,1-.64,1.06.76.76,0,0,1-.11.14,9.14,9.14,0,0,1-.74.93c-.06.07-.1.13-.16.19-.29.31-.61.63-1,.93s-.47.39-.71.58-.4.34-.62.5-.55.37-.83.55-.55.38-.86.55c-.49.29-1,.55-1.52.8l-.42.2q-.72.33-1.47.63l-.18.07c-.53.2-1.08.39-1.64.56-.38.12-.76.23-1.15.33l-.9.25c-.42.1-.85.18-1.27.27l-.84.17c-.86.15-1.72.27-2.6.36l-.78.06c-.51,0-1,.08-1.55.11l-1,0H55.1l-1.05,0c-.39,0-.77,0-1.16-.06l-1-.09-1.16-.13-1-.14-1.23-.21-.9-.19c-.5-.1-1-.22-1.46-.35l-.86-.23-.51-.16-1.36-.46-.4-.15c-.41-.16-.8-.33-1.19-.51L41.2,53c-.57-.27-1.13-.56-1.66-.87-4.48-2.58-6.72-6-6.71-9.37l0,5.73c0,3.39,2.23,6.78,6.71,9.37.53.31,1.09.6,1.66.87l.6.26,1,.44.19.07.39.14c.45.17.91.32,1.37.47l.5.15.31.1.56.14c.48.12,1,.25,1.45.35l.36.09.55.1c.4.07.81.15,1.22.21l.48.08c.18,0,.36,0,.54.06l1.12.13.55.06.52,0,1.13.06.58,0h2.33l.37,0c.5,0,1,0,1.5-.1l.65,0,.19,0q1.31-.13,2.58-.36h.12l.73-.16q.63-.12,1.26-.27l.9-.24c.39-.1.78-.21,1.15-.33l.26-.07c.47-.15.93-.32,1.39-.49l.16-.07c.51-.2,1-.41,1.49-.63l.4-.2c.53-.25,1-.52,1.54-.8l.27-.16c.23-.14.42-.28.63-.42s.53-.34.77-.52.44-.34.66-.51.47-.37.68-.57l.14-.11c.29-.27.56-.55.82-.83l.15-.18c.15-.17.31-.34.44-.51s.2-.27.3-.41l.12-.16c.17-.26.34-.52.49-.79a1.74,1.74,0,0,0,.14-.27l.09-.16a9.37,9.37,0,0,0,.38-.86s0-.09,0-.14c.08-.22.13-.45.2-.68s.1-.3.13-.46a.49.49,0,0,1,0-.12c0-.24.06-.47.08-.71s0-.31.06-.47v-.2l0-5.73A8.93,8.93,0,0,1,78.15,44Z"/><path class="cls-76" d="M71.55,33.51c8.89,5.14,8.93,13.46.09,18.6s-23.21,5.14-32.1,0-8.95-13.46-.12-18.6S62.65,28.37,71.55,33.51Z"/><g class="cls-74"><path d="M113.05,84.24l-5.55,3.23a.71.71,0,0,1-.72,0l-5.6-3.23a.72.72,0,0,1,0-1.24l5.55-3.23a.71.71,0,0,1,.72,0l5.6,3.23A.71.71,0,0,1,113.05,84.24Z"/></g><g class="cls-5"><path class="cls-17" d="M113.05,84,107.5,87.2a.71.71,0,0,1-.72,0L101.18,84a.71.71,0,0,1,0-1.24l5.55-3.23a.71.71,0,0,1,.72,0l5.6,3.23A.71.71,0,0,1,113.05,84Z"/></g><g class="cls-7"><path class="cls-17" d="M106.77,77.31a.63.63,0,0,1,.65,0l5.14,3a.66.66,0,0,1,0,1.13l-5.08,3a.65.65,0,0,1-.66,0l-5.13-3a.66.66,0,0,1,0-1.14Z"/></g><g class="cls-8"><path class="cls-17" d="M106.8,75.12a.57.57,0,0,1,.59,0l4.67,2.69a.59.59,0,0,1,0,1l-4.62,2.69a.59.59,0,0,1-.59,0l-4.67-2.7a.59.59,0,0,1,0-1Z"/></g><g class="cls-9"><path class="cls-17" d="M106.84,72.92a.55.55,0,0,1,.53,0l4.2,2.43a.54.54,0,0,1,0,.92l-4.15,2.41a.55.55,0,0,1-.53,0l-4.2-2.43a.53.53,0,0,1,0-.92Z"/></g><g class="cls-10"><path class="cls-17" d="M106.87,70.73a.49.49,0,0,1,.47,0l3.73,2.16a.47.47,0,0,1,0,.81l-3.67,2.14a.49.49,0,0,1-.47,0l-3.74-2.16a.48.48,0,0,1,0-.81Z"/></g><g class="cls-11"><path class="cls-17" d="M106.91,68.54a.41.41,0,0,1,.4,0l3.27,1.89a.41.41,0,0,1,0,.7L107.33,73a.41.41,0,0,1-.4,0l-3.28-1.89a.41.41,0,0,1,0-.7Z"/></g><g class="cls-12"><path class="cls-17" d="M106.94,66.35a.34.34,0,0,1,.34,0l2.8,1.62a.35.35,0,0,1,0,.59l-2.74,1.59a.33.33,0,0,1-.33,0l-2.82-1.63a.35.35,0,0,1,0-.59Z"/></g><g class="cls-13"><path class="cls-17" d="M107,64.15a.29.29,0,0,1,.27,0l2.34,1.35c.17.1.12.38,0,.48l-2.27,1.32a.26.26,0,0,1-.27,0L104.64,66c-.17-.1-.11-.38.06-.48Z"/></g><g class="cls-14"><path class="cls-17" d="M107,62a.22.22,0,0,1,.21,0l1.88,1.08c.13.08.07.3-.06.37l-1.81,1a.2.2,0,0,1-.2,0l-1.89-1.09c-.13-.08-.07-.3.06-.38Z"/></g><g class="cls-15"><path class="cls-17" d="M107.05,59.77a.12.12,0,0,1,.14,0l1.41.81c.09,0,0,.21-.06.26l-1.34.78a.17.17,0,0,1-.14,0l-1.43-.82c-.08,0,0-.22.08-.27Z"/></g><g class="cls-16"><path class="cls-17" d="M107.08,57.58s.06,0,.08,0l1,.55s0,.13-.08.16l-.86.5a.11.11,0,0,1-.08,0l-1-.56s0-.13.08-.16Z"/></g><polygon class="cls-17" points="107.61 55.67 107.12 55.96 106.62 55.67 107.12 55.38 107.61 55.67"/><g class="cls-74"><path d="M98.83,75l-6.6,3.84a.71.71,0,0,1-.72,0L84.85,75a.72.72,0,0,1,0-1.24l6.61-3.84a.7.7,0,0,1,.71,0l6.66,3.84A.71.71,0,0,1,98.83,75Z"/></g><g class="cls-5"><path class="cls-6" d="M98.83,74.72l-6.6,3.83a.74.74,0,0,1-.72,0l-6.66-3.85a.72.72,0,0,1,0-1.24l6.61-3.84a.72.72,0,0,1,.71,0l6.66,3.84A.72.72,0,0,1,98.83,74.72Z"/></g><g class="cls-7"><path class="cls-6" d="M91.49,67.11a.7.7,0,0,1,.66,0l6.1,3.53a.66.66,0,0,1,0,1.13l-6,3.51a.66.66,0,0,1-.65,0l-6.1-3.53a.65.65,0,0,1,0-1.13Z"/></g><g class="cls-8"><path class="cls-6" d="M91.53,64.6a.57.57,0,0,1,.59,0l5.54,3.2a.59.59,0,0,1,0,1L92.16,72a.57.57,0,0,1-.59,0L86,68.81a.59.59,0,0,1,0-1Z"/></g><g class="cls-9"><path class="cls-6" d="M91.56,62.08a.51.51,0,0,1,.53,0l5,2.88a.53.53,0,0,1,0,.91l-4.93,2.87a.51.51,0,0,1-.53,0l-5-2.88a.54.54,0,0,1,0-.92Z"/></g><g class="cls-10"><path class="cls-6" d="M91.6,59.56a.45.45,0,0,1,.46,0l4.44,2.56a.48.48,0,0,1,0,.81l-4.38,2.54a.47.47,0,0,1-.46,0l-4.44-2.56a.47.47,0,0,1,0-.81Z"/></g><g class="cls-11"><path class="cls-6" d="M91.63,57a.41.41,0,0,1,.4,0l3.88,2.24a.41.41,0,0,1,0,.7L92.06,62.2a.41.41,0,0,1-.4,0L87.77,60a.41.41,0,0,1,0-.7Z"/></g><g class="cls-12"><path class="cls-6" d="M91.67,54.52a.32.32,0,0,1,.33,0l3.33,1.92a.35.35,0,0,1,0,.59L92,58.93a.32.32,0,0,1-.33,0L88.36,57a.35.35,0,0,1,0-.59Z"/></g><g class="cls-13"><path class="cls-6" d="M91.7,52A.29.29,0,0,1,92,52l2.78,1.6c.17.1.12.38,0,.48L92,55.66a.29.29,0,0,1-.27,0l-2.78-1.61c-.17-.1-.12-.38,0-.48Z"/></g><g class="cls-14"><path class="cls-6" d="M91.74,49.48a.2.2,0,0,1,.2,0l2.22,1.29c.13.07.08.29,0,.37L92,52.39a.22.22,0,0,1-.21,0L89.52,51.1c-.13-.07-.06-.3.07-.37Z"/></g><g class="cls-15"><path class="cls-6" d="M91.77,47a.14.14,0,0,1,.14,0l1.67,1c.08,0,0,.21-.06.26l-1.6.92a.14.14,0,0,1-.14,0l-1.67-1c-.09,0,0-.21.07-.27Z"/></g><g class="cls-16"><path class="cls-6" d="M91.81,44.44a.09.09,0,0,1,.07,0l1.11.64c.05,0,0,.13-.07.15l-1,.6a.08.08,0,0,1-.08,0l-1.12-.65s0-.13.08-.16Z"/></g><polygon class="cls-6" points="92.41 42.25 91.84 42.58 91.27 42.25 91.84 41.92 92.41 42.25"/><g class="cls-74"><path d="M123.9,91.07l-4.68,2.72a.71.71,0,0,1-.72,0l-4.73-2.73a.71.71,0,0,1,0-1.24l4.69-2.72a.7.7,0,0,1,.71,0l4.73,2.73A.71.71,0,0,1,123.9,91.07Z"/></g><g class="cls-5"><path class="cls-79" d="M123.31,91.41l-4.1,2.38a.7.7,0,0,1-.71,0l-4.14-2.38a.72.72,0,0,1,0-1.24l4.1-2.38a.71.71,0,0,1,.72,0l4.13,2.38A.71.71,0,0,1,123.31,91.41Z"/></g><g class="cls-7"><path class="cls-79" d="M118.49,86.05a.65.65,0,0,1,.66,0l3.79,2.19a.65.65,0,0,1,0,1.13l-3.75,2.18a.66.66,0,0,1-.65,0l-3.79-2.19a.65.65,0,0,1,0-1.13Z"/></g><g class="cls-8"><path class="cls-79" d="M118.52,84.31a.61.61,0,0,1,.6,0l3.45,2a.59.59,0,0,1,0,1l-3.41,2a.59.59,0,0,1-.59,0l-3.45-2a.59.59,0,0,1,0-1Z"/></g><g class="cls-9"><path class="cls-79" d="M118.56,82.57a.55.55,0,0,1,.53,0l3.11,1.8a.53.53,0,0,1,0,.91l-3.06,1.78a.53.53,0,0,1-.53,0l-3.11-1.79a.53.53,0,0,1,0-.91Z"/></g><g class="cls-10"><path class="cls-79" d="M118.59,80.83a.49.49,0,0,1,.47,0l2.76,1.59a.46.46,0,0,1,0,.8l-2.73,1.59a.47.47,0,0,1-.46,0l-2.77-1.6a.46.46,0,0,1,0-.8Z"/></g><g class="cls-11"><path class="cls-79" d="M118.63,79.09a.41.41,0,0,1,.4,0l2.42,1.4a.4.4,0,0,1,0,.69l-2.38,1.38a.41.41,0,0,1-.4,0l-2.43-1.41a.4.4,0,0,1,0-.69Z"/></g><g class="cls-12"><path class="cls-79" d="M118.66,77.36a.34.34,0,0,1,.34,0l2.08,1.2a.34.34,0,0,1,0,.58l-2,1.19a.34.34,0,0,1-.34,0l-2.09-1.2a.35.35,0,0,1,0-.59Z"/></g><g class="cls-13"><path class="cls-79" d="M118.7,75.62a.26.26,0,0,1,.27,0l1.74,1a.28.28,0,0,1,0,.47l-1.69,1a.28.28,0,0,1-.28,0l-1.75-1a.28.28,0,0,1,0-.47Z"/></g><g class="cls-14"><path class="cls-79" d="M118.73,73.88a.2.2,0,0,1,.21,0l1.4.8a.22.22,0,0,1,0,.36l-1.36.79a.26.26,0,0,1-.21,0L117.33,75c-.13-.07-.09-.29,0-.36Z"/></g><g class="cls-15"><path class="cls-79" d="M118.76,72.14a.19.19,0,0,1,.15,0l1.06.61c.09,0,0,.2,0,.25l-1,.59a.14.14,0,0,1-.14,0L117.7,73c-.08,0,0-.2,0-.25Z"/></g><g class="cls-16"><path class="cls-79" d="M118.8,70.4a.11.11,0,0,1,.08,0l.72.42s0,.11,0,.13l-.67.39a.11.11,0,0,1-.08,0l-.74-.42s0-.12.05-.14Z"/></g><polygon class="cls-79" points="119.23 68.89 118.84 69.12 118.44 68.89 118.83 68.67 119.23 68.89"/><g class="cls-80"><g class="cls-81"><g class="cls-80"><path class="cls-82" d="M74.77,93.91V95a1.73,1.73,0,0,1,.31.14h0v-1.1s0,0,0,0a2.08,2.08,0,0,0-.3-.13Z"/></g></g></g><path class="cls-83" d="M110.41,98.57s-1.82,1.53-1.44,3.12c0,0,.61.65,1.18-.49S111.32,98.53,110.41,98.57Z"/><path class="cls-84" d="M109,101.85s2.76,1,3.22.05a8.23,8.23,0,0,1,1.3-1.94c.34-.33,2.62-4.15,1.87-4.76s-1.84.48-2.16.74-3.79,3-3.79,3Z"/><path class="cls-85" d="M86.15,84.88S95.8,90.41,98,92.3c1.82,1.55,11.85,6.36,11.85,6.36a11.92,11.92,0,0,0-.81,3.1s-9.17-.13-14.94-5.43c0,0-19.37-4-17.72-14A62.61,62.61,0,0,1,86.15,84.88Z"/><path class="cls-86" d="M113.49,100c.31-.29,2.14-3.35,2-4.44a1,1,0,0,0-1.15.72,33.9,33.9,0,0,1-2.1,4c-.22.27-1.47,1.48-1.26,2.09.55,0,1,0,1.21-.38A8.23,8.23,0,0,1,113.49,100Z"/><path class="cls-87" d="M104.8,106.66s3.12.48,3.44-.33a7.73,7.73,0,0,1,1-1.79c.27-.31,1.93-3.8,1.23-4.27s-1.55.56-1.81.82-3.11,2.82-3.11,2.82Z"/><path class="cls-86" d="M109.22,104.54c.24-.28,1.58-3.07,1.37-4a.89.89,0,0,0-.93.72,30,30,0,0,1-1.51,3.59c-.16.25-1.15,1.4-.92,1.91.47,0,.89-.12,1-.42A7.73,7.73,0,0,1,109.22,104.54Z"/><path class="cls-88" d="M82,67a2.1,2.1,0,0,0-1.76,2.31c.08,2.08,2,11,4.21,12.84s2.15-2.46,2.15-2.46S85.23,66.5,82,67Z"/><path class="cls-89" d="M84.53,84s-1.6,4.76-2.43,5.79c0,0,9.65,5.54,11.83,7.42,1.82,1.55,12.07,6.27,12.07,6.27a8.64,8.64,0,0,0-1,3.19s-9.17-.13-15-5.43c0,0-19.36-4-17.71-14A11.74,11.74,0,0,0,84.53,84Z"/><path class="cls-90" d="M76.75,67.67S71.51,70.61,71.4,71s-.72.64,1,4.71a13.1,13.1,0,0,1,.46,8,11,11,0,0,0-.56,3.43s2,4.36,7.82,2.23a16.09,16.09,0,0,0,5-4.82S83.3,82.28,84,77.86s1.13-10.16-1.38-10.92C82.65,66.94,82,66.17,76.75,67.67Z"/><path class="cls-91" d="M78.38,66.25s3.37,1.77,1.87,4.31l1.59.88S83.39,67,78.38,66.25Z"/><path class="cls-92" d="M76.21,64.46s1.42,2.15.3,3.61c-.63.81.85,2.74,3.38,2.58,0,0,1.13-.28,1-.68a2.49,2.49,0,0,1,.52-2.17C81.81,67.09,76.21,64.46,76.21,64.46Z"/><path class="cls-93" d="M76.51,68.07a.64.64,0,0,0-.13.33,4.75,4.75,0,0,1,2.76-1l-2.4-2.65-.24-.12-.08.24C76.77,65.51,77.35,67,76.51,68.07Z"/><path class="cls-94" d="M80.9,70c-.24-1.48.11-1.46.52-2.17.1-.19-.24-.53-.79-.93a1.77,1.77,0,0,0-.41.47,4.52,4.52,0,0,0-.86,3.31,2.35,2.35,0,0,0,.53,0C80.19,70.61,81,70.42,80.9,70Z"/><path class="cls-92" d="M75.69,63.25a7.44,7.44,0,0,0,2.58,4.14c1.73,1.15,3.76,1.9,4.13-.17.3-1.65,1.11-5.85-.35-6.69-1.88-1.09-2.57-2.43-4.74-1.63A3.53,3.53,0,0,0,75.69,63.25Z"/><path class="cls-95" d="M75.69,63.25a6.41,6.41,0,0,0,2.57,4.18,8.21,8.21,0,0,0,1.64.88,8.15,8.15,0,0,1-1.71-1.71c-.71-.82,1-.51-.15-2.61-.41-.72,1.6.2,2,.19,2.67-.07,2.47-1.6,2.52-2.24a3.91,3.91,0,0,0-.22-.8l-.25-.48-.09-.13a8.33,8.33,0,0,0-.87-1c-1.14,0-4.4.1-4.46.12s-.61.77-1.13,1.49A4.4,4.4,0,0,0,75.69,63.25Z"/><path class="cls-96" d="M76.86,66a5.17,5.17,0,0,1-1.41-4.84,3.34,3.34,0,0,1,3-2.6A4,4,0,0,1,82.89,61c.29.76.09,2.45-2.92,1.66-.43-.11-1.58-.26-2,.11a1.54,1.54,0,0,0-.25,1.63c.17.51-.28.56-.34.46s-.65-1.57-1.19-1S76.81,65.91,76.86,66Z"/><path class="cls-96" d="M76.86,66c0-.1-1.14-1.67-.65-2.19s1.12.89,1.19,1,.51.05.34-.46A1.54,1.54,0,0,1,78,62.73c.37-.34,1.37-.17,2-.11-.5-.32-1.49-.43-1.85-1.26a2.93,2.93,0,0,0-1.77-1.83,3.41,3.41,0,0,0-.9,1.64A5.17,5.17,0,0,0,76.86,66Z"/><path class="cls-91" d="M76.86,67.37a4.39,4.39,0,0,0,3.39,3.19l-.83,2S74.26,70,76.86,67.37Z"/><path class="cls-96" d="M82.89,61s.44,2.74-3,1.75a4,4,0,0,1-2.45-2.09,1.61,1.61,0,0,0-1.15-1,3.69,3.69,0,0,1,3.34-1.15,5.91,5.91,0,0,1,2.6,1.36C82.46,60,82,61.18,82.89,61Z"/><path class="cls-92" d="M94.43,81.28A8.94,8.94,0,0,0,98.67,81c1.72-.71,1.3-.77,1.17-1-.29-.56-2.56-.41-3-.52s.35-.44.52-.73.57-.62.43-.72-.48-.19-1.12.32a13.78,13.78,0,0,1-2.25,1.2Z"/><path class="cls-88" d="M94.79,79.3a4.18,4.18,0,0,0-.13,1.12,2.5,2.5,0,0,0,.36,1.3s-8.21,1.64-10.3.59c0,0-2-3.12,1.07-3.94Z"/><g class="cls-80"><polygon class="cls-97" points="79.51 88.04 79.47 88.47 85.65 92.88 85.69 92.45 79.51 88.04"/><polygon class="cls-98" points="85.69 92.45 85.65 92.88 97.2 87.57 97.24 87.14 85.69 92.45"/><polygon class="cls-99" points="79.51 88.04 85.69 92.45 97.24 87.14 91.06 82.73 79.51 88.04"/></g><g class="cls-80"><polygon class="cls-100" points="87.55 85.13 87.09 84.7 85.16 92.43 85.62 92.85 87.55 85.13"/><polygon class="cls-101" points="99.62 79.58 99.16 79.15 87.09 84.7 87.55 85.13 99.62 79.58"/><polygon class="cls-102" points="87.55 85.13 85.62 92.85 97.69 87.3 99.62 79.58 87.55 85.13"/><polygon class="cls-76" points="87.55 85.13 87.55 85.13 97.69 87.3 99.62 79.58 87.55 85.13"/></g><path class="cls-92" d="M82.58,88.62s2.78,2.29,5.5,1.75c0,0,0-.71-1.22-1a2.16,2.16,0,0,1-1.66-1.33c0-.14,1-.22,1.39-.24s.93-.6-.1-.67a17.49,17.49,0,0,0-3.8-.23S81.69,88,82.58,88.62Z"/><path class="cls-88" d="M73.15,70.42a2.09,2.09,0,0,0-2.37,1.67c-.55,2-1.4,11.14.17,13.5s11.8,3.6,11.8,3.6a3,3,0,0,1,0-2.72l-8.53-3.81S76.38,71,73.15,70.42Z"/><path class="cls-103" d="M42.51,88.34a11.6,11.6,0,0,0,.38,1.9c.22.58,1.4,1.93.9,3.22s-2.91.05-3.88-.38-.75-1.2-.85-2.15-.57-1-.4-1.64a8,8,0,0,1,1.23-2Z"/><path class="cls-104" d="M40.35,86.65s-.61.83-.59.86,2.6,1.57,2.78,1.06a5.08,5.08,0,0,0,.2-1Z"/><path class="cls-103" d="M31.59,89.27A10,10,0,0,0,30.1,91c-.71,1.05-2.59,1.1-2.67,2.53s2.56,1.46,3.94,1,1.59-1.85,2.43-2.2S35.07,91.69,35,91a8,8,0,0,0-.52-1.78,6.67,6.67,0,0,1-.83.2A7.11,7.11,0,0,1,31.59,89.27Z"/><path class="cls-105" d="M41.07,50.7s-.53,3.09-1,5.14h0a12.09,12.09,0,0,1-.43,1.69,23.6,23.6,0,0,1-2.34,2.54c-2.13,2.17-5,4.89-5,4.89L31.29,62.9S33.8,60,35.5,58.08c.79-.89,1.4-1.57,1.51-1.67.36-.32.77-3.39,1.35-5.93a10.14,10.14,0,0,1,1.74-3.94Z"/><path class="cls-104" d="M37.35,60.07c-2.13,2.17-5,4.89-5,4.89L31.29,62.9S33.8,60,35.5,58.08A3.5,3.5,0,0,1,37.35,60.07Z"/><path class="cls-104" d="M31.72,88.32l-.13,1a4.84,4.84,0,0,0,2.89,0l0-.84Z"/><path class="cls-105" d="M51.18,64.54c.08.28-14.52,0-14.52,0s4-2.89,4.3-3.66-1-5.41-1.2-6.91c-.13-1.21-.47-6.6.34-7.43S44,44.78,44,44.78l4.44.16a6.9,6.9,0,0,1,1.25.39c.53.24,3.52,1.29,4,2.76s-3,6.19-3,6.19,0,.22,0,.56h0c0,.47,0,1.17,0,1.94,0,1,0,2.08,0,2.88A28.15,28.15,0,0,0,51.18,64.54Z"/><path class="cls-106" d="M51.18,64.54s2,2.87,2,4.82-3.53,8.52-4.06,9.46c-1.62,2.81-6,8.9-6,8.9a12.07,12.07,0,0,1-3.15-.93s3-8,3.32-8.87c1.59-3.54,2.47-6,1.94-6.65a18.06,18.06,0,0,0-2.41-1.57c-.42-.36-7.75,1.36-8.52,1.55-2,.51-1.08,3.91-.64,5.43C34.37,79.24,35,88.45,35,88.45a6.9,6.9,0,0,1-3.79.09s-4.66-16.63-4.81-18.29-.22-4.38,11.26-6.45Z"/><path class="cls-104" d="M45.21,35.3s-3.85-.85-3,3.91,1.8,5.14,4.13,4.15,2.11-4,2.23-5.53S46.44,35.35,45.21,35.3Z"/><path class="cls-104" d="M44.19,46s1.7,1.78,4.4.16a25.17,25.17,0,0,1-.28-5.73c.31-1.87-3.52,2.91-3.52,2.91s.08.21.09.46a5.17,5.17,0,0,1,0,.76C44.76,45.19,44.56,45.85,44.19,46Z"/><path class="cls-107" d="M48.41,40.27s-.1-1.5-.66-1.54-.64.55-.64.55l-.56.11s.18-1.32-.38-1.55-3.61.73-4.06.34-.24-3.06.57-3.42,3-1.19,4.68-.1c0,0,1.28-.14,1.47.87A13.55,13.55,0,0,1,48.41,40.27Z"/><path class="cls-108" d="M44.84,44.56c2.78-.84,3-2.49,3-2.51a4.18,4.18,0,0,1-2.95,1.75A5.17,5.17,0,0,1,44.84,44.56Z"/><path class="cls-104" d="M49.73,45.35s-2,4-5.33,3.73-.56-4.27-.41-4.3S47.37,44,49.73,45.35Z"/><path class="cls-105" d="M35,64.34s10.08,1.22,16.19.2L39.51,63.11S39.44,63.4,35,64.34Z"/><path class="cls-104" d="M42.53,62.65l-.75.38a3.37,3.37,0,0,0,.58,1.53l.85-.21A3.45,3.45,0,0,0,42.53,62.65Z"/><path class="cls-105" d="M54.2,60.25a38.27,38.27,0,0,1-4.37,1.81h0c-3.06,1.15-6.51,2.25-6.51,2.25l-.79-1.66s3.62-1.93,6.06-3.28c1.15-.64,2-1.15,2.17-1.27.39-.36.49-1,.21-2s-1-5.76-1-6.31a1.81,1.81,0,0,1,1.59-2.09,4.2,4.2,0,0,1,2.11.31s.36.15.62,3.49S54.56,59.85,54.2,60.25Z"/><path class="cls-109" d="M50.68,54.84h0c0,.47,0,1.17,0,1.94a9.41,9.41,0,0,1-.56-6A19,19,0,0,0,50.68,54.84Z"/><path class="cls-109" d="M40.12,55.84h0a12.09,12.09,0,0,1-.43,1.69,17.16,17.16,0,0,1,0-5.07A29.06,29.06,0,0,0,40.12,55.84Z"/><path class="cls-104" d="M49.83,62.06h0c-3.06,1.15-6.62,2.29-6.62,2.29l-.68-1.7s3.62-1.93,6.06-3.28C48.59,59.37,49.48,59.8,49.83,62.06Z"/><polygon class="cls-110" points="42.31 64.44 27.98 64.24 35.22 67.85 42.31 64.44"/><polygon class="cls-111" points="35.22 67.85 42.31 65.15 42.31 64.44 34.66 67.16 35.22 67.85"/><path class="cls-104" d="M41.94,63.05s-.89-.13-1.51-.27a3.14,3.14,0,0,0-2,.34c-.31.3-1.27,2.41-1.45,2.53s.09.43.41.28c0,0,.29.92,1,.58s1.22-1.1,1.6-1.23,2.59-.8,2.59-.8S42.51,62.83,41.94,63.05Z"/><path class="cls-104" d="M38.67,63a5.38,5.38,0,0,0-.72.4c-.15.12-.76.57-.91.67s.22.41,1.31-.06S38.67,63,38.67,63Z"/><polygon class="cls-111" points="35.22 67.85 30.95 56.41 17.21 56.63 21.27 67.17 35.22 67.85"/><path class="cls-112" d="M26.56,61.47c.42.82.29,1.72-.29,2s-1.38-.15-1.8-1-.29-1.72.28-2S26.14,60.64,26.56,61.47Z"/><path class="cls-104" d="M47.12,38.65c.05-.42.9-.58,1,.05s-.39,1.74-.71,1.63S47.05,39.23,47.12,38.65Z"/></g></g></svg>