<svg xmlns="http://www.w3.org/2000/svg" xmlns:xlink="http://www.w3.org/1999/xlink" viewBox="0 0 150 133.54"><defs><style>.cls-1{fill:none;}.cls-2{fill:url(#linear-gradient);}.cls-3{opacity:0.1;}.cls-4{fill:url(#linear-gradient-2);}.cls-5{fill:url(#linear-gradient-3);}.cls-6{fill:url(#linear-gradient-4);}.cls-7{fill:#002e8a;}.cls-8{fill:url(#linear-gradient-5);}.cls-9{fill:#fafaff;}.cls-10{fill:#e0e0fa;}.cls-11{fill:url(#linear-gradient-6);}.cls-12{isolation:isolate;}.cls-13{clip-path:url(#clip-path);}.cls-14{fill:#b8387b;}.cls-15,.cls-28{opacity:0.6;}.cls-16,.cls-28{fill:#ab5fff;}.cls-17{opacity:0.91;}.cls-18{opacity:0.82;}.cls-19{opacity:0.73;}.cls-20{opacity:0.64;}.cls-21{opacity:0.55;}.cls-22{opacity:0.45;}.cls-23{opacity:0.36;}.cls-24{opacity:0.27;}.cls-25{opacity:0.18;}.cls-26{opacity:0.09;}.cls-27{opacity:0;}.cls-29{fill:#357fff;}.cls-30{fill:#f0ff2a;}.cls-31{fill:#626bdc;}.cls-32{fill:url(#radial-gradient);}.cls-33{fill:url(#linear-gradient-7);}.cls-34{fill:url(#linear-gradient-8);}.cls-35,.cls-67,.cls-68,.cls-69{opacity:0.5;}.cls-36{fill:#55ff89;}.cls-37{fill:url(#linear-gradient-9);}.cls-38{fill:url(#linear-gradient-10);}.cls-39{opacity:0.4;}.cls-40{fill:url(#linear-gradient-11);}.cls-41{fill:#bad1de;}.cls-42{fill:#efb185;}.cls-43{fill:#a3c1ce;}.cls-44{fill:#111114;}.cls-45{fill:#16365c;}.cls-46{fill:#09294f;}.cls-47{fill:#cae0ea;}.cls-48{fill:#feffff;}.cls-49{fill:#dd9569;}.cls-50{fill:#f2b78f;}.cls-51{fill:#e6a376;}.cls-52{fill:#341c09;}.cls-53{fill:#221101;}.cls-54{fill:#9dbcc9;}.cls-55{fill:#b4b9bc;}.cls-56{fill:#7d8183;}.cls-57{fill:#e3e5e5;}.cls-58{fill:#bdbbbb;}.cls-59{fill:#d2d0d0;}.cls-60{fill:#d5dfe6;}.cls-61{fill:#e9f0f4;}.cls-62{opacity:0.3;}.cls-63{fill:#ffd2cd;}.cls-64{fill:url(#linear-gradient-12);}.cls-65{fill:url(#linear-gradient-13);}.cls-66{fill:url(#linear-gradient-14);}.cls-67{fill:url(#linear-gradient-15);}.cls-68{fill:url(#linear-gradient-16);}.cls-69{fill:url(#linear-gradient-17);}.cls-70,.cls-71,.cls-72,.cls-73,.cls-74,.cls-75,.cls-76,.cls-77,.cls-78,.cls-79,.cls-80,.cls-81{fill:#dcdcdc;}.cls-71,.cls-82{opacity:0.6;}.cls-72{opacity:0.64;}.cls-73{opacity:0.67;}.cls-74{opacity:0.71;}.cls-75{opacity:0.75;}.cls-76{opacity:0.78;}.cls-77{opacity:0.82;}.cls-78{opacity:0.85;}.cls-79{opacity:0.89;}.cls-80{opacity:0.93;}.cls-81{opacity:0.96;}.cls-83{opacity:0.55;}.cls-84{opacity:0.49;}.cls-85{opacity:0.44;}.cls-86{opacity:0.38;}.cls-87{opacity:0.33;}.cls-88{opacity:0.27;}.cls-89{opacity:0.22;}.cls-90{opacity:0.16;}.cls-91{opacity:0.11;}.cls-92{opacity:0.05;}.cls-93{fill:url(#linear-gradient-18);}.cls-94{fill:#e8734d;}.cls-95{fill:#323657;}.cls-96{fill:#292c47;}.cls-97{fill:#eea886;}.cls-98{fill:#eea987;}.cls-99{fill:#a77860;}.cls-100{fill:#1d3b54;}.cls-101{fill:#857b77;}.cls-102{fill:#918682;}</style><linearGradient id="linear-gradient" y1="90.24" x2="150" y2="90.24" gradientUnits="userSpaceOnUse"><stop offset="0" stop-color="#e3f8ff"/><stop offset="0.11" stop-color="#def6ff"/><stop offset="0.24" stop-color="#d0f2ff"/><stop offset="0.39" stop-color="#b8eaff"/><stop offset="0.54" stop-color="#97e0ff"/><stop offset="0.69" stop-color="#6dd3ff"/><stop offset="0.85" stop-color="#3ac2ff"/><stop offset="1" stop-color="#00b0ff"/></linearGradient><linearGradient id="linear-gradient-2" x1="119.01" y1="65.32" x2="122.61" y2="65.32" gradientUnits="userSpaceOnUse"><stop offset="0" stop-color="#a9daff"/><stop offset="0.24" stop-color="#0078d1"/></linearGradient><linearGradient id="linear-gradient-3" x1="32.89" y1="88.35" x2="61.99" y2="88.35" gradientUnits="userSpaceOnUse"><stop offset="0.73" stop-color="#a9daff"/><stop offset="0.76" stop-color="#9ed4fc"/><stop offset="0.82" stop-color="#81c3f4"/><stop offset="0.89" stop-color="#52a7e7"/><stop offset="0.98" stop-color="#1182d6"/><stop offset="1" stop-color="#0078d1"/></linearGradient><linearGradient id="linear-gradient-4" x1="61.98" y1="96.26" x2="70.76" y2="96.26" gradientUnits="userSpaceOnUse"><stop offset="0" stop-color="#a9daff"/><stop offset="0" stop-color="#0078d1"/></linearGradient><linearGradient id="linear-gradient-5" x1="37.9" y1="69.11" x2="119.02" y2="69.11" gradientUnits="userSpaceOnUse"><stop offset="0.11" stop-color="#b6e3ff"/><stop offset="0.21" stop-color="#b1defc"/><stop offset="0.32" stop-color="#a2d1f5"/><stop offset="0.45" stop-color="#89bbe9"/><stop offset="0.59" stop-color="#669dd8"/><stop offset="0.74" stop-color="#3a76c3"/><stop offset="0.86" stop-color="#0c4ead"/></linearGradient><linearGradient id="linear-gradient-6" x1="87.74" y1="69.91" x2="104.86" y2="95.97" gradientUnits="userSpaceOnUse"><stop offset="0.75" stop-color="#a9daff"/><stop offset="1" stop-color="#f3faff"/></linearGradient><clipPath id="clip-path"><path class="cls-1" d="M97.85,67.59c0-.35,0-.71,0-1.06h0C97.86,66.88,97.86,67.24,97.85,67.59Z"/></clipPath><radialGradient id="radial-gradient" cx="31.36" cy="96.95" r="19.38" gradientUnits="userSpaceOnUse"><stop offset="0" stop-color="#e8e8e8"/><stop offset="0.1" stop-color="#dce2e6"/><stop offset="0.29" stop-color="#bcd2e2"/><stop offset="0.53" stop-color="#88b7da"/><stop offset="0.82" stop-color="#4293d0"/><stop offset="1" stop-color="#147cc9"/></radialGradient><linearGradient id="linear-gradient-7" x1="-62.52" y1="90.56" x2="-52.38" y2="90.56" gradientTransform="matrix(-1, 0, 0, 1, -37.77, 0)" gradientUnits="userSpaceOnUse"><stop offset="0" stop-color="#31f5db"/><stop offset="1" stop-color="#3cbce2"/></linearGradient><linearGradient id="linear-gradient-8" x1="-80.3" y1="94.71" x2="-66.4" y2="94.71" xlink:href="#linear-gradient-7"/><linearGradient id="linear-gradient-9" x1="-86.19" y1="82.56" x2="-86.32" y2="106.26" gradientTransform="matrix(-1, 0, 0, 1, -37.77, 0)" gradientUnits="userSpaceOnUse"><stop offset="0" stop-color="#fadd8d"/><stop offset="0.39" stop-color="#f4a3a8"/><stop offset="1" stop-color="#ea3fd6"/></linearGradient><linearGradient id="linear-gradient-10" x1="-86.56" y1="87.41" x2="-58.51" y2="87.41" xlink:href="#linear-gradient-9"/><linearGradient id="linear-gradient-11" x1="-86" y1="94.3" x2="-57.95" y2="94.3" xlink:href="#linear-gradient-9"/><linearGradient id="linear-gradient-12" x1="14.26" y1="25.98" x2="13.9" y2="91.6" gradientUnits="userSpaceOnUse"><stop offset="0" stop-color="#fff2c9"/><stop offset="1" stop-color="#ffb7bb"/></linearGradient><linearGradient id="linear-gradient-13" x1="13.24" y1="39.41" x2="90.88" y2="39.41" xlink:href="#linear-gradient-12"/><linearGradient id="linear-gradient-14" x1="14.77" y1="58.47" x2="92.42" y2="58.47" xlink:href="#linear-gradient-12"/><linearGradient id="linear-gradient-15" x1="-13.95" y1="17.93" x2="-12.55" y2="50.37" gradientTransform="translate(42.49 -12.98) rotate(-15)" xlink:href="#linear-gradient-12"/><linearGradient id="linear-gradient-16" x1="5.3" y1="1.14" x2="6.69" y2="33.58" gradientTransform="translate(42.49 -12.98) rotate(-15)" xlink:href="#linear-gradient-12"/><linearGradient id="linear-gradient-17" x1="-14.27" y1="6.62" x2="-12.88" y2="39.06" gradientTransform="translate(42.49 -12.98) rotate(-15)" xlink:href="#linear-gradient-12"/><linearGradient id="linear-gradient-18" x1="50.26" y1="123.67" x2="61.76" y2="123.67" gradientUnits="userSpaceOnUse"><stop offset="0" stop-color="#cddef7"/><stop offset="0.23" stop-color="#caddf7"/><stop offset="0.39" stop-color="#c2d9f7"/><stop offset="0.52" stop-color="#b3d2f7"/><stop offset="0.64" stop-color="#9dc8f6"/><stop offset="0.74" stop-color="#82bcf6"/><stop offset="0.85" stop-color="#61adf5"/><stop offset="0.9" stop-color="#4ca3f5"/><stop offset="1" stop-color="#147cc9"/></linearGradient></defs><title>4Asset 12</title><g id="Layer_2" data-name="Layer 2"><g id="Layer_1-2" data-name="Layer 1"><ellipse class="cls-2" cx="75" cy="90.24" rx="75" ry="43.3"/><g class="cls-3"><path d="M110.25,91.18c4.36,2.52,4.39,6.61,0,9.13s-11.4,2.52-15.77,0-4.39-6.61,0-9.13S105.88,88.66,110.25,91.18Z"/></g><g class="cls-3"><path d="M121.59,70.58c1.32.75,1.32,2,0,2.75L119,74.85,70.83,103l-4,2.36a5.24,5.24,0,0,1-4.74,0L33.92,89.27c-1.32-.76-1.33-2,0-2.75l54.8-32.06a5.2,5.2,0,0,1,4.75,0Z"/></g><path class="cls-4" d="M122.61,61.69a1.43,1.43,0,0,1-.06.35v0a1.91,1.91,0,0,1-.16.32l0,0a1.83,1.83,0,0,1-.27.3l-.23.17-.21.15L119,64.57V69l2.61-1.51a.05.05,0,0,1,0,0l.16-.12.24-.18,0,0a1.51,1.51,0,0,0,.21-.23.1.1,0,0,0,0-.05l0,0,.07-.1.09-.19a0,0,0,0,1,0,0v0l0-.13a1.11,1.11,0,0,0,0-.19v0h0c0-1.27,0-2.54,0-3.82v-.56Z"/><path class="cls-5" d="M33.89,78.74a1.7,1.7,0,0,1-1-1.39v4.38a1.64,1.64,0,0,0,1,1.38L62,99.34V95Z"/><path class="cls-6" d="M66.74,95a3.66,3.66,0,0,1-.67.29l-.25.08-.33.08a2.93,2.93,0,0,1-.41.07l-.1,0a5.44,5.44,0,0,1-.57,0h-.08a5.12,5.12,0,0,1-.56,0h-.08a4.68,4.68,0,0,1-.54-.09l-.1,0-.47-.14-.08,0A4.74,4.74,0,0,1,62,95v4.38a3.68,3.68,0,0,0,.49.23s0,0,0,0l.08,0,.3.1.17,0,.1,0,.08,0,.34,0,.11,0h.21l.33,0h.34l.38,0h.13l.29,0,.12,0,.34-.08.18,0,.07,0a3.29,3.29,0,0,0,.66-.29l4-2.34V92.62Z"/><path class="cls-7" d="M121.62,60.31c1.31.76,1.32,2,0,2.75L119,64.57,70.76,92.62l-4,2.34A5.23,5.23,0,0,1,62,95L33.89,78.74c-1.32-.76-1.32-2,0-2.75l54.9-31.9a5.21,5.21,0,0,1,4.74,0Z"/><polygon class="cls-8" points="119.03 64.57 70.76 92.62 37.9 73.65 86.16 45.6 119.03 64.57"/><path class="cls-9" d="M110.7,56.39c.35.2.36.62-.16.89a1.28,1.28,0,0,1-1.16.13L99.16,51.6c-.35-.2.1-.68.45-.88a1.42,1.42,0,0,1,1.27,0Z"/><path class="cls-10" d="M110.39,56.65c.35.21.35.54,0,.74a1.44,1.44,0,0,1-1.28,0L99.3,51.72a.39.39,0,0,1,0-.74,1.42,1.42,0,0,1,1.27,0Z"/><polygon class="cls-11" points="119.03 64.57 119.01 68.95 70.75 97 70.76 92.62 119.03 64.57"/><g class="cls-12"><g class="cls-13"><g class="cls-12"><path class="cls-14" d="M98.19,66.38v1.21a2.41,2.41,0,0,0-.33.15h0V66.54h0a1.66,1.66,0,0,1,.33-.15Z"/></g></g></g><g class="cls-15"><path class="cls-16" d="M106.92,21.27l-4.78,2.78a1,1,0,0,1-1,0l-4.82-2.78a1,1,0,0,1,0-1.69l4.78-2.77a.94.94,0,0,1,1,0l4.82,2.78A1,1,0,0,1,106.92,21.27Z"/><g class="cls-17"><path class="cls-16" d="M106.92,23.14l-4.78,2.77a1,1,0,0,1-1,0l-4.82-2.79a1,1,0,0,1,0-1.68l4.78-2.78a1,1,0,0,1,1,0l4.82,2.78A1,1,0,0,1,106.92,23.14Z"/></g><g class="cls-18"><path class="cls-16" d="M106.92,25l-4.78,2.78a1,1,0,0,1-1,0L96.34,25a1,1,0,0,1,0-1.69l4.78-2.77a.94.94,0,0,1,1,0l4.82,2.78A1,1,0,0,1,106.92,25Z"/></g><g class="cls-19"><path class="cls-16" d="M106.92,26.87l-4.78,2.77a1,1,0,0,1-1,0l-4.82-2.79a1,1,0,0,1,0-1.68l4.78-2.78a1,1,0,0,1,1,0l4.82,2.78A1,1,0,0,1,106.92,26.87Z"/></g><g class="cls-20"><path class="cls-16" d="M106.92,28.73l-4.78,2.78a1,1,0,0,1-1,0l-4.82-2.78a1,1,0,0,1,0-1.69l4.78-2.77a.94.94,0,0,1,1,0l4.82,2.78A1,1,0,0,1,106.92,28.73Z"/></g><g class="cls-21"><path class="cls-16" d="M106.92,30.6l-4.78,2.77a1,1,0,0,1-1,0l-4.82-2.78a1,1,0,0,1,0-1.68l4.78-2.78a1,1,0,0,1,1,0l4.82,2.78A1,1,0,0,1,106.92,30.6Z"/></g><g class="cls-22"><path class="cls-16" d="M106.92,32.46l-4.78,2.78a1,1,0,0,1-1,0l-4.82-2.78a1,1,0,0,1,0-1.69L101.12,28a1,1,0,0,1,1,0l4.82,2.79A1,1,0,0,1,106.92,32.46Z"/></g><g class="cls-23"><path class="cls-16" d="M106.92,34.32l-4.78,2.78a1,1,0,0,1-1,0l-4.82-2.78a1,1,0,0,1,0-1.68l4.78-2.78a.94.94,0,0,1,1,0l4.82,2.78A1,1,0,0,1,106.92,34.32Z"/></g><g class="cls-24"><path class="cls-16" d="M106.92,36.19,102.14,39a1,1,0,0,1-1,0l-4.82-2.78a1,1,0,0,1,0-1.69l4.78-2.78a1,1,0,0,1,1,0l4.82,2.79A1,1,0,0,1,106.92,36.19Z"/></g><g class="cls-25"><path class="cls-16" d="M106.92,38.05l-4.78,2.78a1,1,0,0,1-1,0l-4.82-2.78a1,1,0,0,1,0-1.68l4.78-2.78a.94.94,0,0,1,1,0l4.82,2.78A1,1,0,0,1,106.92,38.05Z"/></g><g class="cls-26"><path class="cls-16" d="M106.92,39.92l-4.78,2.77a1,1,0,0,1-1,0l-4.82-2.79a1,1,0,0,1,0-1.68l4.78-2.78a1,1,0,0,1,1,0l4.82,2.78A1,1,0,0,1,106.92,39.92Z"/></g><g class="cls-27"><path class="cls-16" d="M106.92,41.78l-4.78,2.78a1,1,0,0,1-1,0l-4.82-2.78a1,1,0,0,1,0-1.69l4.78-2.77a.94.94,0,0,1,1,0l4.82,2.78A1,1,0,0,1,106.92,41.78Z"/></g></g><path class="cls-28" d="M106.92,21.27l-4.78,2.78a1,1,0,0,1-1,0l-4.82-2.78a1,1,0,0,1,0-1.69l4.78-2.77a.94.94,0,0,1,1,0l4.82,2.78A1,1,0,0,1,106.92,21.27Z"/><g class="cls-3"><path d="M106.92,41.5l-4.78,2.77a1,1,0,0,1-1,0l-4.82-2.78a1,1,0,0,1,0-1.68L101.12,37a.94.94,0,0,1,1,0l4.82,2.78A1,1,0,0,1,106.92,41.5Z"/></g><g class="cls-3"><path d="M137.85,58.62l-4.78,2.78a1,1,0,0,1-1,0l-4.82-2.78a1,1,0,0,1,0-1.69l4.77-2.77a1,1,0,0,1,1,0l4.82,2.78A1,1,0,0,1,137.85,58.62Z"/></g><path class="cls-29" d="M137.85,34l-4.78,2.78a.94.94,0,0,1-1,0L127.28,34a1,1,0,0,1,0-1.68l4.77-2.78a1,1,0,0,1,1,0l4.82,2.78A1,1,0,0,1,137.85,34Z"/><g class="cls-17"><path class="cls-29" d="M137.85,36.24,133.07,39a1,1,0,0,1-1,0l-4.82-2.78a1,1,0,0,1,0-1.69l4.77-2.77a1,1,0,0,1,1,0l4.82,2.78A1,1,0,0,1,137.85,36.24Z"/></g><g class="cls-18"><path class="cls-29" d="M137.85,38.48l-4.78,2.78a1,1,0,0,1-1,0l-4.82-2.78a1,1,0,0,1,0-1.69L132.05,34a1,1,0,0,1,1,0l4.82,2.79A1,1,0,0,1,137.85,38.48Z"/></g><g class="cls-19"><path class="cls-29" d="M137.85,40.72l-4.78,2.77a.94.94,0,0,1-1,0l-4.82-2.78a1,1,0,0,1,0-1.68l4.77-2.78a1,1,0,0,1,1,0L137.85,39A1,1,0,0,1,137.85,40.72Z"/></g><g class="cls-20"><path class="cls-29" d="M137.85,43l-4.78,2.77a.94.94,0,0,1-1,0L127.28,43a1,1,0,0,1,0-1.68l4.77-2.78a1,1,0,0,1,1,0l4.82,2.78A1,1,0,0,1,137.85,43Z"/></g><g class="cls-21"><path class="cls-29" d="M137.85,45.19,133.07,48a.94.94,0,0,1-1,0l-4.82-2.78a1,1,0,0,1,0-1.68l4.77-2.78a1,1,0,0,1,1,0l4.82,2.78A1,1,0,0,1,137.85,45.19Z"/></g><g class="cls-22"><path class="cls-29" d="M137.85,47.43l-4.78,2.78a1,1,0,0,1-1,0l-4.82-2.78a1,1,0,0,1,0-1.69L132.05,43a1,1,0,0,1,1,0l4.82,2.78A1,1,0,0,1,137.85,47.43Z"/></g><g class="cls-23"><path class="cls-29" d="M137.85,49.67l-4.78,2.78a1,1,0,0,1-1,0l-4.82-2.78a1,1,0,0,1,0-1.69l4.77-2.78a1,1,0,0,1,1,0L137.85,48A1,1,0,0,1,137.85,49.67Z"/></g><g class="cls-24"><path class="cls-29" d="M137.85,51.91l-4.78,2.77a1,1,0,0,1-1,0l-4.82-2.79a1,1,0,0,1,0-1.68l4.77-2.78a1,1,0,0,1,1,0l4.82,2.78A1,1,0,0,1,137.85,51.91Z"/></g><g class="cls-25"><path class="cls-29" d="M137.85,54.15l-4.78,2.77a.94.94,0,0,1-1,0l-4.82-2.78a1,1,0,0,1,0-1.68l4.77-2.78a1,1,0,0,1,1,0l4.82,2.78A1,1,0,0,1,137.85,54.15Z"/></g><g class="cls-26"><path class="cls-29" d="M137.85,56.38l-4.78,2.78a.94.94,0,0,1-1,0l-4.82-2.78a1,1,0,0,1,0-1.68l4.77-2.78a1,1,0,0,1,1,0l4.82,2.78A1,1,0,0,1,137.85,56.38Z"/></g><g class="cls-27"><path class="cls-29" d="M137.85,58.62l-4.78,2.78a1,1,0,0,1-1,0l-4.82-2.78a1,1,0,0,1,0-1.69l4.77-2.77a1,1,0,0,1,1,0l4.82,2.78A1,1,0,0,1,137.85,58.62Z"/></g><path class="cls-29" d="M137.85,34l-4.78,2.78a.94.94,0,0,1-1,0L127.28,34a1,1,0,0,1,0-1.68l4.77-2.78a1,1,0,0,1,1,0l4.82,2.78A1,1,0,0,1,137.85,34Z"/><path class="cls-30" d="M122.68,18.41l-4.78,2.77a1,1,0,0,1-1,0l-4.82-2.79a1,1,0,0,1,0-1.68l4.77-2.78a1,1,0,0,1,1,0l4.82,2.78A1,1,0,0,1,122.68,18.41Z"/><g class="cls-17"><path class="cls-30" d="M122.68,21.28l-4.78,2.77a.94.94,0,0,1-1,0l-4.82-2.78a1,1,0,0,1,0-1.68l4.77-2.78a1,1,0,0,1,1,0l4.82,2.78A1,1,0,0,1,122.68,21.28Z"/></g><g class="cls-18"><path class="cls-30" d="M122.68,24.14l-4.78,2.78a.94.94,0,0,1-1,0l-4.82-2.78a1,1,0,0,1,0-1.68l4.77-2.78a1,1,0,0,1,1,0l4.82,2.78A1,1,0,0,1,122.68,24.14Z"/></g><g class="cls-19"><path class="cls-30" d="M122.68,27l-4.78,2.78a.94.94,0,0,1-1,0L112.11,27a1,1,0,0,1,0-1.68l4.77-2.78a1,1,0,0,1,1,0l4.82,2.78A1,1,0,0,1,122.68,27Z"/></g><g class="cls-20"><path class="cls-30" d="M122.68,29.88l-4.78,2.78a1,1,0,0,1-1,0l-4.82-2.78a1,1,0,0,1,0-1.69l4.77-2.77a1,1,0,0,1,1,0l4.82,2.78A1,1,0,0,1,122.68,29.88Z"/></g><g class="cls-21"><path class="cls-30" d="M122.68,32.75l-4.78,2.78a1,1,0,0,1-1,0l-4.82-2.78a1,1,0,0,1,0-1.69l4.77-2.77a1,1,0,0,1,1,0l4.82,2.78A1,1,0,0,1,122.68,32.75Z"/></g><g class="cls-22"><path class="cls-30" d="M122.68,35.62,117.9,38.4a1,1,0,0,1-1,0l-4.82-2.78a1,1,0,0,1,0-1.69l4.77-2.77a1,1,0,0,1,1,0l4.82,2.79A1,1,0,0,1,122.68,35.62Z"/></g><g class="cls-23"><path class="cls-30" d="M122.68,38.49l-4.78,2.77a1,1,0,0,1-1,0l-4.82-2.78a1,1,0,0,1,0-1.69L116.88,34a1,1,0,0,1,1,0l4.82,2.78A1,1,0,0,1,122.68,38.49Z"/></g><g class="cls-24"><path class="cls-30" d="M122.68,41.36l-4.78,2.77a1,1,0,0,1-1,0l-4.82-2.79a1,1,0,0,1,0-1.68l4.77-2.78a1,1,0,0,1,1,0l4.82,2.78A1,1,0,0,1,122.68,41.36Z"/></g><g class="cls-25"><path class="cls-30" d="M122.68,44.23,117.9,47a.94.94,0,0,1-1,0l-4.82-2.78a1,1,0,0,1,0-1.68l4.77-2.78a1,1,0,0,1,1,0l4.82,2.78A1,1,0,0,1,122.68,44.23Z"/></g><g class="cls-26"><path class="cls-30" d="M122.68,47.09l-4.78,2.78a.94.94,0,0,1-1,0l-4.82-2.78a1,1,0,0,1,0-1.68l4.77-2.78a1,1,0,0,1,1,0l4.82,2.78A1,1,0,0,1,122.68,47.09Z"/></g><g class="cls-27"><path class="cls-30" d="M122.68,50l-4.78,2.78a.94.94,0,0,1-1,0L112.11,50a1,1,0,0,1,0-1.68l4.77-2.78a1,1,0,0,1,1,0l4.82,2.78A1,1,0,0,1,122.68,50Z"/></g><g class="cls-3"><path d="M122.68,50l-4.78,2.77a1,1,0,0,1-1,0l-4.82-2.79a1,1,0,0,1,0-1.68l4.77-2.78a1,1,0,0,1,1,0l4.82,2.78A1,1,0,0,1,122.68,50Z"/></g><path class="cls-30" d="M122.68,18.41l-4.78,2.77a1,1,0,0,1-1,0l-4.82-2.79a1,1,0,0,1,0-1.68l4.77-2.78a1,1,0,0,1,1,0l4.82,2.78A1,1,0,0,1,122.68,18.41Z"/><g class="cls-3"><polygon points="53.17 106.53 35.03 117.54 2.73 98.89 20.89 88.3 53.17 106.53"/></g><polygon class="cls-31" points="55.07 103.66 38.01 114 7.64 96.47 24.72 86.51 55.07 103.66"/><polygon class="cls-32" points="55.07 100.35 38.01 110.69 7.64 93.16 24.72 83.2 55.07 100.35"/><polygon class="cls-7" points="7.64 93.16 7.64 96.47 38.01 114 38.01 110.69 7.64 93.16"/><polygon class="cls-7" points="55.07 100.35 55.07 103.66 38.01 114 38.01 110.69 55.07 100.35"/><path class="cls-33" d="M17.17,89.91l-.36-.17c-.22-.08-.41-.15-.6-.2L16,89.48l-.16,0-.34,0H15.1l-.24,0,0,0-.2.09.55-.32h0l.13-.06.06,0,0,0h0l.17,0H16l.29,0h0l.17,0,.22,0,0,0c.18,0,.38.12.59.2h0l.34.16.18.08.62.33.42.26.46.27a8.85,8.85,0,0,0,.8.42l.22.11.46.19.57.2.31.09.28.06.4.07.2,0,.44,0h.13a4,4,0,0,0,.5-.06l.1,0,.39-.11.11,0a2.86,2.86,0,0,0,.43-.21l-.55.32,0,0a2.55,2.55,0,0,1-.33.17l-.07,0-.1,0-.17.06-.22,0-.1,0h-.05l-.4,0h-.19a2.08,2.08,0,0,1-.25,0l-.18,0-.21,0h-.13l-.26-.06a1.5,1.5,0,0,1-.29-.06l-.1,0-.2-.07-.57-.2-.15,0-.31-.14-.23-.11c-.26-.12-.52-.26-.8-.42l-.46-.27a4.64,4.64,0,0,0-.42-.25L17.35,90Z"/><path class="cls-34" d="M29.19,82.47h0l.15-.08.15,0h.14l.15,0H30l.11,0a.65.65,0,0,1,.19,0,.19.19,0,0,1,.08,0l.08,0,.1,0,.31.15a4.07,4.07,0,0,1,.47.33l.08.06a5.71,5.71,0,0,1,.47.42s0,0,0,0,0,0,.05,0c.17.17.34.35.51.55l0,0,0,0c.19.22.38.45.58.71h0l.36.47.81,1.13s.06.08.08.12a1,1,0,0,1,.12.17l.29.42.24.35.26.38c.07.12.15.23.22.34l.23.35.21.32c.08.12.16.24.23.36l.18.28.35.53.11.18c.08.12.16.25.24.36l.11.18.21.31a1.3,1.3,0,0,0,.1.15c.07.1.14.21.21.3L38,92a1.34,1.34,0,0,1,.11.14c.06.07.11.14.17.2l.12.13.16.18a1.14,1.14,0,0,0,.11.11,1.68,1.68,0,0,0,.21.18L39,93l.31.21a2.1,2.1,0,0,0,.3.15l.07,0,.24.07.09,0,.23,0h.68l.29,0,.16,0c.22,0,.45-.1.71-.17l.47-.15,0,13.7-.55.32,0-13.69-.44.13h0c-.26.07-.49.13-.71.17h-.07l-.09,0-.29,0-.11,0h-.66l-.14,0-.09,0h0a1.52,1.52,0,0,1-.2-.06l-.07,0h0l-.28-.14a3.37,3.37,0,0,1-.31-.21l-.1-.09-.2-.17-.05,0L38,92.92l-.15-.15-.07-.08-.06-.07-.15-.19-.08-.09,0-.07-.32-.44h0L37,91.57l-.13-.19-.2-.31-.12-.17-.26-.41-.08-.12-.38-.6-.09-.13-.31-.49c-.05-.07-.1-.14-.14-.21l-.3-.46a2.33,2.33,0,0,1-.17-.26c-.1-.15-.21-.3-.31-.46l-.2-.28c-.1-.16-.22-.32-.33-.49l-.17-.24c-.26-.37-.53-.75-.82-1.14-.13-.17-.24-.33-.36-.48l-.57-.7-.08-.09-.5-.54-.09-.09c-.17-.15-.32-.3-.48-.42l-.07-.06c-.16-.12-.32-.24-.47-.33a2.6,2.6,0,0,0-.42-.19l-.07,0a1.84,1.84,0,0,0-.38-.08h0a1.63,1.63,0,0,0-.38,0h0a1.5,1.5,0,0,0-.38.15Z"/><g class="cls-35"><path class="cls-36" d="M30.32,82.9c-1.74-1-3,.41-4,5.19-.61,3-2.67,5.54-7.47,2.76l-.46-.27a4.64,4.64,0,0,0-.42-.25c-4-2.34-4,.49-4,.64l28,16.17,0-13.69c-1.51.5-2.44.53-3.24.07-1.49-.86-2.51-3.44-5.8-7.91A10.12,10.12,0,0,0,30.32,82.9Z"/></g><polygon class="cls-37" points="48.2 102.92 48.75 102.59 48.79 88.9 48.23 89.22 48.2 102.92"/><path class="cls-38" d="M21.29,85.59h0a.52.52,0,0,1,.15-.07l0,0,.06,0,.08,0,.14,0h.09a2.19,2.19,0,0,1,.28,0h.14a1.92,1.92,0,0,1,.24,0h0l.29,0,.19,0h.05l.11,0,.43.09.14,0,.11,0,.35.11.22.06.75.27.77.31,1.37.55.08,0,.51.2.21.08.33.12.23.09.27.09.22.08.24.08.22.06.22.07h.06a6.38,6.38,0,0,0,.8.17l.08,0,.56.05h.76a5.83,5.83,0,0,0,.8-.1l.22,0,.55-.14.13,0,.47-.15,0,0,.52-.19.44-.18.1,0a4,4,0,0,1,.45-.15l.06,0L36,87l.39-.09.08,0h0l.28,0h.53l.19,0,.21,0h0l.37.08.1,0h0l.6.21.06,0,.24.11.17.08.53.28c.29.17.6.36.92.59s.37.25.54.35a4.55,4.55,0,0,0,.59.29,3,3,0,0,0,.5.17l.09,0,.36.06h.56l.27-.05.13,0,.18-.05.29-.11.15-.06.44-.2.44-.2.06,0,.08,0,.29-.1.1,0,.09,0,.14,0,.11,0,.18,0H47l.23.05.08,0h0a3.38,3.38,0,0,1,.48.16h0a5,5,0,0,1,.61.31l.36.22-.56.32L47.87,89a4.89,4.89,0,0,0-.61-.3,4.5,4.5,0,0,0-.51-.18h-.08a2.79,2.79,0,0,0-.38-.07H46.2a2.54,2.54,0,0,0-.39,0h-.08l-.29,0-.15,0-.18.06-.3.11-.14,0-.43.2-.44.2-.09,0-.06,0-.29.11-.11,0h-.07a.61.61,0,0,1-.13,0l-.13,0-.14,0h-.15a1.31,1.31,0,0,1-.28,0h-.13l-.16,0-.2,0-.09,0h-.05l-.45-.15h0a4,4,0,0,1-.59-.29c-.17-.1-.35-.21-.54-.34s-.63-.43-.92-.6l-.54-.28-.14-.07-.33-.14a5.14,5.14,0,0,0-.59-.2l-.11,0-.36-.08-.24,0-.18,0H36.2l-.28,0-.11,0-.39.1a.53.53,0,0,0-.12,0,4,4,0,0,0-.45.15l-.11,0-.41.16-.55.21h0l-.47.16-.08,0-.05,0a5.07,5.07,0,0,1-.56.13l-.16,0h0c-.28,0-.55.08-.8.1h-.11c-.2,0-.4,0-.6,0h0a3.66,3.66,0,0,1-.57,0h-.08c-.26,0-.52-.1-.8-.17h-.06l-.2-.06L28.89,88l-.2-.07-.27-.09-.2-.07-.3-.11-.19-.07-.36-.14-.18-.07-.41-.16-.06,0-2.07-.81a6.86,6.86,0,0,0-.75-.27L23.69,86l-.46-.13-.14,0-.45-.09-.09,0-.25,0-.28,0h-.4l-.33,0h-.06l-.22.06-.06,0a1,1,0,0,0-.21.1Z"/><g class="cls-39"><path class="cls-40" d="M47.87,89a3.3,3.3,0,0,0-3.63-.06,3.22,3.22,0,0,1-3.56,0c-.17-.1-.35-.21-.54-.34s-.63-.43-.92-.6c-3.18-1.83-4.31-.18-6.62.25-2.51.48-3.62-.17-8-1.86s-4.46.28-4.47.38l28,16.18,0-13.7Z"/></g><path class="cls-41" d="M91.56,52.78a2,2,0,0,0-1.87,2.07c-.1,2,1,10.78,3,12.67S95,65.33,95,65.33,94.71,52.59,91.56,52.78Z"/><path class="cls-42" d="M102.38,67.53a8.65,8.65,0,0,0,4.09.1c1.71-.54,1.31-.63,1.21-.9-.23-.56-2.43-.59-2.82-.73s.37-.4.56-.66.59-.56.47-.66-.45-.22-1.11.21a13.21,13.21,0,0,1-2.25,1Z"/><path class="cls-41" d="M102.88,65.66a4.32,4.32,0,0,0-.22,1.07,2.46,2.46,0,0,0,.25,1.27s-8,.93-10-.25c0,0-1.69-3.15,1.34-3.7Z"/><path class="cls-43" d="M93.63,68a1.24,1.24,0,0,1-.64-.26h0v0a1.6,1.6,0,0,1-.26-.21c-2-1.89-3.11-10.67-3-12.67a2.23,2.23,0,0,1,.22-.93c.46,2.27,2.63,12.72,3.53,13s7,.38,9.25.43a2.59,2.59,0,0,0,.22.67S96.28,68.76,93.63,68Z"/><path class="cls-44" d="M100.2,92.1s-.45,1.59.66,2a10,10,0,0,1,2.45,1.21c.43.34,5.21,2.37,5.8,1.41s-.83-2-1.2-2.38-3.62-3.15-3.62-3.15Z"/><path class="cls-44" d="M96.33,94.86s-.44,1.58.67,2a9.47,9.47,0,0,1,2.45,1.21c.43.33,5.21,2.36,5.8,1.41s-.84-2.06-1.2-2.39-3.62-3.15-3.62-3.15Z"/><path class="cls-45" d="M92.2,69.28s11.72,7.37,12.06,9.24.27,12.92.27,12.92-3,1.29-4.46.49L98.86,81.52s-9.22-6.81-9.63-7.06S92.2,69.28,92.2,69.28Z"/><path class="cls-46" d="M89.23,74.46c.41.25,9.63,7.06,9.63,7.06l1.21,10.41a4.09,4.09,0,0,0,2.67.08c-.41-3.16-1.34-10.12-1.67-11.88-.44-2.3-9.9-7.75-9.9-7.75l-1.92,1.8C89.19,74.33,89.18,74.43,89.23,74.46Z"/><path class="cls-45" d="M92.21,69.56a29.4,29.4,0,0,1-2.06,4.9s9.37,5,9.85,7.35,1.07,12.66,1.07,12.66a5.85,5.85,0,0,1-4.92.36S95.1,87,95,83.78c0,0-14.16-3.74-13.12-11.5A10,10,0,0,0,92.21,69.56Z"/><path class="cls-46" d="M95,83.78c.11,3.18,1.16,11,1.16,11a6,6,0,0,0,1.38.33c-.08-1.24-.18-2.85-.3-5-.47-8-1.7-7.8-1.7-7.8-9-4.06-10.8-7.93-10.8-7.93l-2.89-1.78C81.32,80.16,95,83.78,95,83.78Z"/><path class="cls-41" d="M86.16,53.51s-4.47,2.28-4.58,2.63-1.27,1.17.38,5.1c0,0,2.22,4.27,1.11,8.53a26.55,26.55,0,0,1-1.22,3.77s2,2.94,7.56.89A7.93,7.93,0,0,0,93,71.24a29,29,0,0,1,.18-7.9c.7-4.26,1.09-9.79-1.33-10.53C91.85,52.81,91.24,52.07,86.16,53.51Z"/><path class="cls-47" d="M93.18,63.34a29,29,0,0,0-.18,7.9,7.93,7.93,0,0,1-3.59,3.19,12,12,0,0,1-1.73.5,32.77,32.77,0,0,0,1-3.15c1.12-4.26-1.1-8.53-1.1-8.53-1.66-3.93-.5-4.76-.39-5.1s4.59-2.62,4.59-2.62c.63-.19,1.2-.33,1.71-.45C94,57.25,93.63,60.56,93.18,63.34Z"/><path class="cls-48" d="M87.73,52.15s3.25,1.71,1.81,4.16l1.52.84S92.56,52.86,87.73,52.15Z"/><path class="cls-42" d="M85.65,50.42s1.37,2.08.28,3.48c-.6.78.82,2.64,3.26,2.49,0,0,1.08-.26,1-.66a2.42,2.42,0,0,1,.5-2.09C91,53,85.65,50.42,85.65,50.42Z"/><path class="cls-49" d="M85.93,53.9a.7.7,0,0,0-.13.32,4.58,4.58,0,0,1,2.67-1l-2.32-2.56-.23-.11-.07.23C86.18,51.43,86.74,52.85,85.93,53.9Z"/><path class="cls-50" d="M90.16,55.73c-.22-1.42.11-1.4.5-2.09.11-.19-.22-.51-.76-.89a1.8,1.8,0,0,0-.39.45,4.36,4.36,0,0,0-.83,3.19,2.17,2.17,0,0,0,.51,0C89.48,56.35,90.23,56.17,90.16,55.73Z"/><path class="cls-42" d="M85.14,49.26a7.2,7.2,0,0,0,2.49,4c1.67,1.11,3.62,1.83,4-.17.29-1.59,1.07-5.64-.34-6.45-1.81-1.05-2.47-2.34-4.56-1.57A3.4,3.4,0,0,0,85.14,49.26Z"/><path class="cls-51" d="M85.14,49.26a6.19,6.19,0,0,0,2.48,4,7.57,7.57,0,0,0,1.58.84,7.55,7.55,0,0,1-1.65-1.64c-.69-.8,1-.49-.15-2.53-.39-.69,1.55.21,2,.19,2.58-.06,2.39-1.54,2.44-2.16a4.22,4.22,0,0,0-.22-.76l-.24-.48-.09-.12a8.49,8.49,0,0,0-.83-.92c-1.11,0-4.25.09-4.31.11s-.58.74-1.08,1.44A4.22,4.22,0,0,0,85.14,49.26Z"/><path class="cls-52" d="M86.27,51.92a5,5,0,0,1-1.36-4.67,3.22,3.22,0,0,1,2.84-2.51,3.81,3.81,0,0,1,4.33,2.31c.28.73.09,2.36-2.81,1.6-.42-.11-1.52-.25-1.91.1a1.53,1.53,0,0,0-.25,1.57c.17.5-.27.55-.33.45s-.61-1.52-1.14-1S86.22,51.82,86.27,51.92Z"/><path class="cls-53" d="M86.27,51.92c0-.1-1.1-1.62-.63-2.11s1.08.85,1.14,1,.5,0,.33-.45a1.53,1.53,0,0,1,.25-1.57c.35-.32,1.32-.16,1.91-.1-.49-.31-1.44-.42-1.79-1.22a2.83,2.83,0,0,0-1.71-1.76,3.3,3.3,0,0,0-.86,1.58A5,5,0,0,0,86.27,51.92Z"/><path class="cls-48" d="M86.27,53.23a4.24,4.24,0,0,0,3.27,3.08l-.8,1.93S83.77,55.75,86.27,53.23Z"/><path class="cls-54" d="M81.58,56.14c-.11.34-1.27,1.17.38,5.1a15.26,15.26,0,0,1,.9,8.49c-.42,1.83-.62,1.39-1.31,2.94-.4.89,1.48,2.26,3.33,2.43,1-2.26.69-2.24,1.09-4.72a10.82,10.82,0,0,0-2.62-9.57c-2.44-3-1.41-4.15-1.46-4.94A1,1,0,0,0,81.58,56.14Z"/><path class="cls-52" d="M92.08,47.05s.43,2.64-2.94,1.68a3.82,3.82,0,0,1-2.36-2,1.56,1.56,0,0,0-1.11-.94,3.58,3.58,0,0,1,3.22-1.11A5.67,5.67,0,0,1,91.39,46C91.67,46.15,91.22,47.26,92.08,47.05Z"/><g class="cls-12"><polygon class="cls-55" points="86.38 74.69 86.34 75.12 92.49 79.5 92.53 79.08 86.38 74.69"/><polygon class="cls-56" points="92.53 79.08 92.49 79.5 103.99 74.22 104.02 73.79 92.53 79.08"/><polygon class="cls-57" points="86.38 74.69 92.53 79.08 104.02 73.79 97.87 69.41 86.38 74.69"/></g><g class="cls-12"><polygon class="cls-58" points="94.38 71.79 93.92 71.36 92 79.05 92.46 79.48 94.38 71.79"/><polygon class="cls-59" points="106.39 66.27 105.93 65.84 93.92 71.36 94.38 71.79 106.39 66.27"/><polygon class="cls-60" points="94.38 71.79 92.46 79.48 104.47 73.95 106.39 66.27 94.38 71.79"/><polygon class="cls-61" points="94.38 71.79 94.38 71.79 104.47 73.95 106.39 66.27 94.38 71.79"/></g><path class="cls-42" d="M88.49,75.16s2.21,2.67,4.88,2.66c0,0,.13-.67-1-1.14a2.06,2.06,0,0,1-1.33-1.56c0-.13,1,0,1.35,0s1-.4,0-.65a17,17,0,0,0-3.56-.92S87.75,74.41,88.49,75.16Z"/><path class="cls-41" d="M83.44,55.49a3.91,3.91,0,0,0-3.15,1.89C79.41,59.18,77,67.68,78,70.2s10.54,5.54,10.54,5.54a2.68,2.68,0,0,1,.8-2.63L81.65,68S85.35,56.71,83.44,55.49Z"/><path class="cls-47" d="M81.65,68l7.7,5.1a2.57,2.57,0,0,0-.42.5c-1.87-1.07-8-4.63-8.55-5.59s2.88-10.55,3.42-12C84.75,58.53,81.65,68,81.65,68Z"/><g class="cls-62"><path class="cls-63" d="M32,58.68c.91-.52,1.27.19,1.27,1.26A3.06,3.06,0,0,1,32,62.7c-.87.5-1.26-.18-1.27-1.27A3.11,3.11,0,0,1,32,58.68ZM32,62c.31-.18.47-.71.47-1.59s-.17-1.22-.48-1-.49.71-.48,1.6.18,1.21.49,1Z"/><path class="cls-63" d="M34.9,57c.9-.52,1.26.2,1.26,1.27A3,3,0,0,1,34.88,61c-.87.51-1.26-.17-1.26-1.26A3.09,3.09,0,0,1,34.9,57Zm0,3.33c.31-.18.47-.71.47-1.6s-.16-1.22-.48-1-.49.71-.48,1.61.18,1.21.49,1Z"/><path class="cls-63" d="M37.78,55.35c.9-.52,1.26.2,1.26,1.26a3,3,0,0,1-1.28,2.76c-.87.5-1.25-.17-1.26-1.27A3.09,3.09,0,0,1,37.78,55.35Zm0,3.32c.31-.18.47-.71.47-1.59s-.16-1.22-.48-1-.49.71-.48,1.6.18,1.21.49,1Z"/><polygon class="cls-63" points="41.2 53.44 41.21 57.32 40.44 57.76 40.44 54.69 40.42 54.7 39.78 55.42 39.65 54.81 40.54 53.82 41.2 53.44"/><path class="cls-63" d="M43.54,52c.91-.52,1.26.2,1.26,1.26A3,3,0,0,1,43.53,56c-.87.51-1.26-.17-1.27-1.27A3.13,3.13,0,0,1,43.54,52Zm0,3.32c.3-.17.47-.71.46-1.59s-.16-1.22-.48-1-.48.71-.48,1.61.19,1.2.5,1Z"/><path class="cls-63" d="M46.42,50.36c.91-.52,1.26.19,1.27,1.26a3.06,3.06,0,0,1-1.28,2.76c-.87.5-1.26-.17-1.27-1.27A3.11,3.11,0,0,1,46.42,50.36Zm0,3.32c.31-.18.47-.71.46-1.59s-.16-1.22-.47-1-.49.71-.48,1.6.18,1.21.49,1Z"/><path class="cls-63" d="M49.3,48.69c.91-.52,1.26.2,1.27,1.27a3,3,0,0,1-1.28,2.75c-.87.51-1.26-.17-1.26-1.26A3.11,3.11,0,0,1,49.3,48.69Zm0,3.33c.31-.18.47-.71.47-1.6s-.17-1.22-.48-1-.49.7-.48,1.6.18,1.21.49,1Z"/><path class="cls-63" d="M52.19,47c.9-.52,1.26.2,1.26,1.26a3.06,3.06,0,0,1-1.28,2.76c-.87.5-1.26-.17-1.26-1.27A3.09,3.09,0,0,1,52.19,47Zm0,3.32c.31-.17.47-.71.47-1.59s-.17-1.22-.48-1-.49.71-.48,1.6.19,1.21.49,1Z"/><path class="cls-63" d="M55.07,45.37c.9-.52,1.26.19,1.26,1.26a3,3,0,0,1-1.27,2.76c-.88.5-1.27-.18-1.27-1.27A3.09,3.09,0,0,1,55.07,45.37Zm0,3.32c.31-.18.47-.71.47-1.59s-.16-1.22-.48-1-.49.71-.48,1.6.19,1.21.49,1Z"/><path class="cls-63" d="M58,43.71c.9-.53,1.26.19,1.26,1.25a3,3,0,0,1-1.27,2.76c-.87.51-1.26-.17-1.27-1.26A3.11,3.11,0,0,1,58,43.71ZM58,47c.31-.18.48-.71.47-1.6s-.16-1.22-.48-1-.49.71-.48,1.61.19,1.2.49,1Z"/><polygon class="cls-63" points="61.36 41.8 61.38 45.67 60.62 46.11 60.61 43.04 60.59 43.05 59.95 43.77 59.82 43.17 60.71 42.17 61.36 41.8"/><polygon class="cls-63" points="64.25 40.14 64.26 44.01 63.5 44.45 63.49 41.38 63.48 41.39 62.84 42.11 62.7 41.5 63.6 40.51 64.25 40.14"/><polygon class="cls-63" points="67.13 38.47 67.14 42.35 66.38 42.79 66.37 39.72 66.36 39.72 65.72 40.44 65.58 39.84 66.48 38.85 67.13 38.47"/><path class="cls-63" d="M69.48,37.05c.9-.52,1.26.19,1.26,1.26a3.06,3.06,0,0,1-1.28,2.76c-.87.5-1.26-.18-1.26-1.27A3.07,3.07,0,0,1,69.48,37.05Zm0,3.32c.31-.18.47-.71.47-1.59s-.16-1.22-.48-1-.49.71-.48,1.6.18,1.21.49,1Z"/><path class="cls-63" d="M72.36,35.38c.9-.52,1.26.2,1.26,1.27a3,3,0,0,1-1.27,2.75c-.88.51-1.26-.17-1.27-1.26A3.12,3.12,0,0,1,72.36,35.38Zm0,3.33c.31-.18.47-.71.47-1.6s-.16-1.22-.48-1-.49.7-.48,1.6.19,1.2.49,1Z"/><path class="cls-63" d="M75.24,33.72c.9-.52,1.26.2,1.26,1.26a3,3,0,0,1-1.27,2.76c-.87.5-1.26-.17-1.27-1.27A3.13,3.13,0,0,1,75.24,33.72Zm0,3.32c.31-.17.47-.71.47-1.59s-.16-1.22-.48-1-.49.71-.48,1.6.19,1.21.49,1Z"/><path class="cls-63" d="M78.12,32.06c.91-.52,1.26.19,1.26,1.26a3,3,0,0,1-1.27,2.76c-.87.5-1.26-.18-1.27-1.27A3.11,3.11,0,0,1,78.12,32.06Zm0,3.32c.3-.18.47-.71.47-1.6s-.17-1.22-.48-1-.49.71-.48,1.6.18,1.21.49,1Z"/><path class="cls-63" d="M32,65.84c.91-.52,1.27.2,1.27,1.26A3.06,3.06,0,0,1,32,69.86c-.87.5-1.26-.18-1.27-1.27A3.11,3.11,0,0,1,32,65.84Zm0,3.32c.31-.18.47-.71.47-1.6s-.17-1.21-.48-1-.49.7-.48,1.6.18,1.21.49,1Z"/><path class="cls-63" d="M34.92,64.17c.9-.52,1.26.2,1.26,1.26A3.06,3.06,0,0,1,34.9,68.2c-.87.5-1.26-.18-1.26-1.28A3.09,3.09,0,0,1,34.92,64.17Zm0,3.32c.31-.17.47-.7.47-1.59s-.16-1.22-.48-1-.49.71-.48,1.61.18,1.2.49,1Z"/><polygon class="cls-63" points="38.34 62.27 38.35 66.14 37.58 66.58 37.57 63.51 37.56 63.52 36.92 64.24 36.79 63.64 37.68 62.64 38.34 62.27"/><path class="cls-63" d="M40.68,60.85c.9-.52,1.26.2,1.26,1.26a3,3,0,0,1-1.27,2.76c-.88.5-1.26-.18-1.27-1.27A3.11,3.11,0,0,1,40.68,60.85Zm0,3.32c.31-.18.47-.71.47-1.6s-.16-1.22-.48-1-.49.7-.48,1.6.19,1.21.49,1Z"/><path class="cls-63" d="M43.56,59.18c.9-.52,1.26.2,1.26,1.26a3.05,3.05,0,0,1-1.27,2.77c-.87.5-1.26-.18-1.27-1.27A3.14,3.14,0,0,1,43.56,59.18Zm0,3.32c.3-.17.46-.71.46-1.59s-.16-1.22-.48-1-.48.71-.47,1.61.18,1.2.49,1Z"/><path class="cls-63" d="M46.44,57.52c.91-.52,1.26.2,1.27,1.26a3.06,3.06,0,0,1-1.28,2.76c-.87.5-1.26-.18-1.27-1.27A3.11,3.11,0,0,1,46.44,57.52Zm0,3.32c.31-.18.47-.71.47-1.59s-.17-1.22-.48-1-.49.71-.48,1.6.18,1.21.49,1Z"/><polygon class="cls-63" points="49.86 55.61 49.87 59.49 49.11 59.93 49.1 56.86 49.09 56.87 48.45 57.59 48.31 56.98 49.21 55.99 49.86 55.61"/><path class="cls-63" d="M52.21,54.19c.9-.52,1.26.2,1.26,1.26a3,3,0,0,1-1.28,2.76c-.87.51-1.26-.17-1.26-1.27A3.08,3.08,0,0,1,52.21,54.19Zm0,3.32c.31-.17.47-.71.47-1.59s-.16-1.22-.48-1-.49.71-.48,1.6.18,1.21.49,1Z"/><path class="cls-63" d="M55.09,52.53c.9-.52,1.26.2,1.26,1.26a3.05,3.05,0,0,1-1.27,2.76c-.88.51-1.27-.18-1.27-1.27A3.11,3.11,0,0,1,55.09,52.53Zm0,3.32c.31-.18.47-.71.47-1.6s-.16-1.22-.48-1-.49.71-.48,1.6.19,1.21.49,1Z"/><path class="cls-63" d="M58,50.86c.9-.52,1.26.2,1.26,1.26A3.05,3.05,0,0,1,58,54.89c-.88.5-1.26-.18-1.27-1.28A3.13,3.13,0,0,1,58,50.86Zm0,3.33c.3-.18.47-.71.46-1.6s-.16-1.22-.48-1-.49.71-.48,1.61.19,1.2.5,1Z"/><polygon class="cls-63" points="61.38 48.96 61.4 52.84 60.64 53.27 60.63 50.2 60.62 50.21 59.97 50.93 59.84 50.33 60.73 49.33 61.38 48.96"/><path class="cls-63" d="M63.73,47.54c.91-.53,1.26.2,1.27,1.26a3.06,3.06,0,0,1-1.28,2.76c-.87.5-1.26-.18-1.27-1.27A3.11,3.11,0,0,1,63.73,47.54Zm0,3.32c.3-.18.47-.71.46-1.6s-.16-1.22-.47-1-.49.7-.48,1.6.18,1.21.49,1Z"/><path class="cls-63" d="M66.61,45.87c.91-.52,1.27.2,1.27,1.26A3.08,3.08,0,0,1,66.6,49.9c-.87.5-1.26-.18-1.26-1.28A3.1,3.1,0,0,1,66.61,45.87Zm0,3.32c.31-.17.47-.71.47-1.59s-.17-1.22-.48-1-.49.71-.48,1.61.18,1.2.49,1Z"/><path class="cls-63" d="M69.5,44.21c.9-.52,1.26.2,1.26,1.26a3,3,0,0,1-1.28,2.76c-.87.5-1.26-.18-1.26-1.27A3.07,3.07,0,0,1,69.5,44.21Zm0,3.32c.31-.18.47-.71.47-1.6s-.16-1.21-.48-1-.49.71-.48,1.6.18,1.21.49,1Z"/><polygon class="cls-63" points="72.91 42.3 72.92 46.18 72.16 46.62 72.16 43.55 72.14 43.55 71.5 44.27 71.37 43.67 72.26 42.68 72.91 42.3"/><path class="cls-63" d="M75.26,40.88c.9-.52,1.26.2,1.26,1.26a3,3,0,0,1-1.27,2.76c-.87.51-1.26-.17-1.27-1.27A3.12,3.12,0,0,1,75.26,40.88Zm0,3.32c.3-.17.46-.71.46-1.59s-.16-1.22-.48-1-.49.71-.48,1.6.19,1.21.5,1Z"/><path class="cls-63" d="M78.14,39.22c.9-.52,1.26.2,1.27,1.26a3.06,3.06,0,0,1-1.28,2.76c-.87.51-1.26-.18-1.27-1.27A3.11,3.11,0,0,1,78.14,39.22Zm0,3.32c.3-.18.47-.71.46-1.6s-.16-1.22-.47-1-.49.71-.48,1.6.18,1.21.49,1Z"/><polygon class="cls-63" points="63.24 20.1 63.25 23.98 62.49 24.41 62.49 21.34 62.47 21.35 61.83 22.07 61.7 21.47 62.59 20.48 63.24 20.1"/><polygon class="cls-63" points="66.13 18.44 66.14 22.31 65.38 22.75 65.37 19.68 65.36 19.69 64.71 20.41 64.58 19.8 65.47 18.81 66.13 18.44"/><path class="cls-63" d="M68.47,17c.91-.52,1.26.2,1.27,1.26A3,3,0,0,1,68.46,21c-.87.5-1.26-.17-1.27-1.27A3.13,3.13,0,0,1,68.47,17Zm0,3.32c.31-.17.47-.7.47-1.59s-.17-1.22-.48-1-.49.71-.48,1.61.18,1.2.49,1Z"/><path class="cls-63" d="M71.36,15.35c.9-.52,1.26.19,1.26,1.26a3.06,3.06,0,0,1-1.28,2.76c-.87.5-1.26-.18-1.26-1.27A3.07,3.07,0,0,1,71.36,15.35Zm0,3.32c.3-.17.47-.71.47-1.59s-.17-1.22-.48-1-.49.71-.48,1.6.18,1.21.49,1Z"/><path class="cls-63" d="M74.24,13.69c.9-.53,1.26.19,1.26,1.26a3,3,0,0,1-1.28,2.75c-.87.51-1.26-.17-1.26-1.26A3.07,3.07,0,0,1,74.24,13.69Zm0,3.32c.31-.18.47-.71.47-1.6s-.16-1.22-.48-1-.49.7-.48,1.6.18,1.21.49,1Z"/><path class="cls-63" d="M77.12,12c.9-.52,1.26.2,1.26,1.26A3,3,0,0,1,77.11,16c-.88.5-1.26-.17-1.27-1.27A3.12,3.12,0,0,1,77.12,12Zm0,3.33c.31-.18.48-.72.47-1.6s-.16-1.22-.48-1-.49.71-.48,1.6.19,1.21.49,1Z"/><path class="cls-63" d="M57,30.83c.9-.52,1.26.2,1.26,1.26A3.06,3.06,0,0,1,57,34.85c-.87.51-1.26-.18-1.26-1.27A3.07,3.07,0,0,1,57,30.83Zm0,3.32c.31-.18.47-.71.47-1.6s-.16-1.22-.48-1-.49.71-.48,1.6.19,1.21.49,1Z"/><polygon class="cls-63" points="60.38 28.92 60.39 32.8 59.63 33.24 59.63 30.17 59.62 30.17 58.97 30.89 58.84 30.29 59.73 29.3 60.38 28.92"/><path class="cls-63" d="M62.73,27.5c.9-.52,1.26.2,1.26,1.26a3,3,0,0,1-1.27,2.76c-.87.51-1.26-.17-1.27-1.27A3.11,3.11,0,0,1,62.73,27.5Zm0,3.32c.3-.17.47-.71.46-1.59s-.16-1.22-.48-1-.49.71-.47,1.6.18,1.21.49,1Z"/><path class="cls-63" d="M65.61,25.84c.9-.52,1.26.2,1.27,1.26a3.06,3.06,0,0,1-1.28,2.76c-.87.5-1.26-.18-1.27-1.27A3.11,3.11,0,0,1,65.61,25.84Zm0,3.32c.3-.18.47-.71.46-1.6s-.16-1.22-.47-1-.49.7-.48,1.6.18,1.21.49,1Z"/><path class="cls-63" d="M68.49,24.17c.91-.52,1.26.2,1.27,1.26a3.08,3.08,0,0,1-1.28,2.77c-.87.5-1.26-.18-1.27-1.28A3.13,3.13,0,0,1,68.49,24.17Zm0,3.32c.31-.17.47-.71.47-1.59s-.17-1.22-.48-1-.49.71-.48,1.61.18,1.2.49,1Z"/><polygon class="cls-63" points="71.91 22.27 71.92 26.14 71.16 26.58 71.15 23.51 71.14 23.52 70.5 24.24 70.36 23.64 71.26 22.64 71.91 22.27"/><path class="cls-63" d="M74.26,20.84c.9-.52,1.26.21,1.26,1.27a3.05,3.05,0,0,1-1.28,2.76c-.87.5-1.26-.18-1.26-1.27A3.09,3.09,0,0,1,74.26,20.84Zm0,3.33c.31-.18.47-.71.47-1.6s-.16-1.22-.48-1-.49.7-.48,1.6.19,1.2.49,1Z"/><path class="cls-63" d="M77.14,19.18c.9-.52,1.26.2,1.26,1.26a3,3,0,0,1-1.27,2.76c-.88.51-1.26-.17-1.27-1.27A3.12,3.12,0,0,1,77.14,19.18Zm0,3.32c.31-.17.47-.71.47-1.59s-.16-1.22-.48-1-.49.71-.48,1.6.19,1.21.49,1Z"/><path class="cls-63" d="M54.11,39.65c.9-.52,1.26.2,1.26,1.26a3.06,3.06,0,0,1-1.28,2.76c-.87.5-1.26-.17-1.26-1.27A3.07,3.07,0,0,1,54.11,39.65Zm0,3.32c.31-.17.47-.71.47-1.59s-.16-1.22-.48-1-.49.71-.48,1.6.18,1.21.49,1Z"/><polygon class="cls-63" points="57.52 37.74 57.54 41.62 56.77 42.06 56.76 38.99 56.75 39 56.11 39.72 55.98 39.11 56.87 38.12 57.52 37.74"/><polygon class="cls-63" points="60.4 36.08 60.41 39.96 59.65 40.4 59.65 37.33 59.63 37.33 58.99 38.05 58.86 37.45 59.75 36.46 60.4 36.08"/><path class="cls-63" d="M62.75,34.66c.9-.52,1.26.2,1.27,1.26a3.06,3.06,0,0,1-1.28,2.76c-.87.5-1.26-.18-1.27-1.27A3.11,3.11,0,0,1,62.75,34.66Zm0,3.32c.3-.17.47-.71.46-1.59s-.16-1.22-.48-1-.49.71-.48,1.6.19,1.21.5,1Z"/><polygon class="cls-63" points="66.17 32.75 66.18 36.63 65.42 37.07 65.41 34 65.4 34.01 64.76 34.73 64.62 34.12 65.52 33.13 66.17 32.75"/><polygon class="cls-63" points="69.05 31.09 69.06 34.97 68.3 35.41 68.29 32.33 68.28 32.34 67.64 33.06 67.5 32.46 68.4 31.47 69.05 31.09"/><polygon class="cls-63" points="71.93 29.43 71.94 33.3 71.18 33.74 71.17 30.67 71.16 30.68 70.52 31.4 70.38 30.79 71.28 29.8 71.93 29.43"/><path class="cls-63" d="M74.28,28c.9-.52,1.26.21,1.26,1.27A3,3,0,0,1,74.27,32c-.88.51-1.27-.17-1.27-1.26A3.12,3.12,0,0,1,74.28,28Zm0,3.33c.31-.18.47-.71.47-1.6s-.16-1.22-.48-1-.49.7-.48,1.6.19,1.2.49,1Z"/><path class="cls-63" d="M77.16,26.34c.9-.52,1.26.2,1.26,1.26a3.05,3.05,0,0,1-1.27,2.76c-.88.5-1.26-.17-1.27-1.27A3.12,3.12,0,0,1,77.16,26.34Zm0,3.32c.3-.17.46-.71.46-1.59s-.16-1.22-.48-1-.49.71-.48,1.6.19,1.21.5,1Z"/></g><polygon class="cls-64" points="14.88 82.33 13.35 81.44 13.24 43.54 14.77 44.43 14.88 82.33"/><path class="cls-65" d="M89.35,34.37l0,0a2.06,2.06,0,0,0-.42-.21l-.11,0L88.59,34,88.38,34,88,33.88l-.18,0-.07,0c-.25,0-.51-.07-.79-.09H85.81c-.26,0-.54,0-.82.08l-.51.06-.13,0-.3.06c-.38.06-.79.15-1.21.25l-.39.1-.29.06-1,.3-.62.19c-.64.21-1.33.46-2.06.74l-2.15.85L72.57,38l-.22.08L71,38.6l-.58.22-.91.35-.64.23-.75.27-.62.21-.67.22-.59.18-.63.18-.17,0c-.76.2-1.49.36-2.2.48L63,41c-.52.07-1,.12-1.54.15h-.16a15.2,15.2,0,0,1-1.65,0h-.29a20.9,20.9,0,0,1-2.23-.28l-.59-.1c-.53-.1-1-.23-1.53-.37l-.35-.1c-.45-.13-.88-.27-1.3-.43l-.09,0c-.49-.17-1-.36-1.43-.54S51,39,50.56,38.81l-.26-.1L49,38.29l-.15,0-.17,0c-.36-.1-.72-.18-1.09-.25l-.21-.05h-.09l-.77-.1-.31,0H45.1l-.52,0-.6.06h0a10.17,10.17,0,0,0-1,.22l-.25.06h0a14.77,14.77,0,0,0-1.65.57l-.18.06-.66.31-.46.2c-.48.24-1,.49-1.47.79-.81.46-1.65,1-2.56,1.64q-.78.54-1.5,1a15.27,15.27,0,0,1-1.62.81,11.15,11.15,0,0,1-1.38.46l-.26,0a7.16,7.16,0,0,1-1,.16l-.22,0a6.09,6.09,0,0,1-1.05,0l-.27,0A6,6,0,0,1,27.6,44l-.38-.09-.47-.14c-.28-.09-.55-.19-.82-.3l-.4-.16c-.42-.18-.82-.37-1.24-.57l-1.19-.54-.19-.09-.2-.07c-.27-.11-.55-.21-.82-.29l-.28-.11-.24,0a2.59,2.59,0,0,0-.4-.09,1.37,1.37,0,0,0-.29-.07c-.16,0-.33,0-.5-.06l-.22,0h-.1a7.09,7.09,0,0,0-.8,0l-.18,0-.26,0-.4,0-.64.14-.23.05-.09,0a10.21,10.21,0,0,0-1.31.45h0a15,15,0,0,0-1.7.85c-.32.18-.65.39-1,.61l1.53.89c.34-.22.68-.43,1-.61A14.07,14.07,0,0,1,17.46,43a10.81,10.81,0,0,1,1.42-.48l.23-.05a8.32,8.32,0,0,1,1-.17l.26,0a6.49,6.49,0,0,1,1.08,0l.22,0a6.68,6.68,0,0,1,.8.13l.4.09.51.15a8.29,8.29,0,0,1,.83.31c.13,0,.25.09.37.15.41.17.81.36,1.21.54s.81.38,1.23.57l.22.1.19.06a7.64,7.64,0,0,0,.8.29l.31.11.18,0,.37.08c.12,0,.23.07.36.09l.39,0a2.3,2.3,0,0,0,.26,0l.15,0a6.54,6.54,0,0,0,.77,0h.13l.22,0,.46,0,.55-.12.25,0,.12,0A10.21,10.21,0,0,0,34,44.39h0a14.45,14.45,0,0,0,1.63-.81c.47-.28,1-.6,1.49-1,.91-.64,1.75-1.18,2.56-1.64.51-.3,1-.56,1.48-.79l.41-.19c.31-.14.6-.27.89-.38A14.65,14.65,0,0,1,44.15,39l.31-.07c.34-.08.67-.16,1-.21l.66-.07.51,0h.54a5.61,5.61,0,0,1,.58,0l.33,0c.26,0,.53,0,.78.1l.31.06c.36.07.72.15,1.08.25l.33.1c.42.12.83.26,1.25.41l.31.12,1.13.43c.49.2,1,.39,1.51.58h0c.43.16.87.3,1.33.44l.2.07.15,0c.5.14,1,.27,1.54.37l.45.08.14,0c.78.13,1.51.22,2.22.27h.29a13.2,13.2,0,0,0,1.66,0h.12c.52,0,1-.08,1.57-.15l.16,0h.08a21.58,21.58,0,0,0,2.19-.47l.09,0,.09,0,.56-.16.66-.2.56-.18.74-.25.54-.2.85-.31.52-.19,1-.38.5-.2,1.14-.45.18-.07L80,36.49c.74-.28,1.42-.53,2.07-.74l.6-.18c.44-.14.87-.27,1.27-.37l.39-.1c.43-.1.85-.19,1.24-.26l.26-.05c.25,0,.46,0,.69-.08l.78-.08a7.56,7.56,0,0,1,.82,0h.29a7.82,7.82,0,0,1,.91.11l.16,0c.22,0,.43.1.62.16l.15.06a3.6,3.6,0,0,1,.59.27Z"/><g class="cls-39"><path class="cls-66" d="M15.77,43.82c4.68-2.7,7.38-1.44,10.06-.18s5.31,2.55,9.85-.07c.47-.28,1-.6,1.49-1,.91-.64,1.75-1.18,2.56-1.64,8.78-5.07,11.93-.51,18.31.69,7,1.32,10-.46,22-5.17s12.35.79,12.38,1.08L14.88,82.34l-.11-37.91C15.11,44.21,15.45,44,15.77,43.82Z"/></g><polygon class="cls-67" points="50.76 24.09 28.53 36.92 28.53 29.88 50.76 17.05 50.76 24.09"/><polygon class="cls-68" points="60.3 0 48.24 6.96 48.24 14 60.3 7.04 60.3 0"/><polygon class="cls-69" points="42.82 10.36 30.76 17.32 30.76 24.36 42.82 17.39 42.82 10.36"/><g class="cls-35"><path class="cls-70" d="M44.18,129.13l.29.41,5.66-1.4a.62.62,0,0,1-.22-.42Z"/><path class="cls-70" d="M48.1,121.21c.11,0-.09-.06,0,0a3.65,3.65,0,0,1,.45.42l6.08-2.44c1-.33.38-.26.19-.47s0-.27,0-.37Z"/><g class="cls-12"><path class="cls-70" d="M48.58,121l-.67.25,2.94,5.69a2.27,2.27,0,0,1,.78,0Z"/><path class="cls-70" d="M50.32,127.13a.69.69,0,0,0-.41.59.62.62,0,0,0,.22.42l.19.13a2.12,2.12,0,0,0,2,0c.54-.32.55-.82,0-1.14a1.77,1.77,0,0,0-.66-.21,2.27,2.27,0,0,0-.78,0A1.86,1.86,0,0,0,50.32,127.13Z"/></g><path class="cls-70" d="M70.73,111.57l-17.52,1.18a.64.64,0,0,1,.27.42L70.92,112A.6.6,0,0,1,70.73,111.57Z"/><path class="cls-70" d="M52.92,113.88a2,2,0,0,1-.7.15l2.41,5.16c.23-.07.71-.28.71-.28Z"/><path class="cls-70" d="M73.43,107.43a.57.57,0,0,1,.17.43l13.22-.43,0-.44Z"/><path class="cls-70" d="M71.23,107.25a.6.6,0,0,0,0,1.14,2.09,2.09,0,0,0,.58.2,2.7,2.7,0,0,0,.75,0,2,2,0,0,0,.64-.21.75.75,0,0,0,.41-.53.57.57,0,0,0-.17-.43,1.08,1.08,0,0,0-.23-.18A2.14,2.14,0,0,0,71.23,107.25Z"/><path class="cls-70" d="M71.14,111a.74.74,0,0,0-.41.56.6.6,0,0,0,.19.42,1,1,0,0,0,.22.16,2.12,2.12,0,0,0,2,0,.6.6,0,0,0,0-1.14,2.09,2.09,0,0,0-.58-.2,2.69,2.69,0,0,0-.75,0A2.19,2.19,0,0,0,71.14,111Z"/><path class="cls-70" d="M72.55,108.6a2.7,2.7,0,0,1-.75,0l0,2.21a2.69,2.69,0,0,1,.75,0Z"/><path class="cls-70" d="M51.12,112.66c-.55.32-.55.83,0,1.14a1.94,1.94,0,0,0,1.11.23,2,2,0,0,0,.7-.15l.16-.08a.58.58,0,0,0,.13-1l-.13-.09A2.18,2.18,0,0,0,51.12,112.66Z"/></g><path class="cls-71" d="M51.12,112.66c-.55.32-.55.83,0,1.14a2.17,2.17,0,0,0,2,0,.6.6,0,0,0,0-1.14A2.18,2.18,0,0,0,51.12,112.66Z"/><g class="cls-17"><path class="cls-72" d="M51.12,111.77c-.55.32-.55.83,0,1.14a2.17,2.17,0,0,0,2,0,.6.6,0,0,0,0-1.14A2.18,2.18,0,0,0,51.12,111.77Z"/></g><g class="cls-18"><path class="cls-73" d="M51.12,110.88c-.55.32-.55.83,0,1.14a2.17,2.17,0,0,0,2,0,.6.6,0,0,0,0-1.14A2.18,2.18,0,0,0,51.12,110.88Z"/></g><g class="cls-19"><path class="cls-74" d="M51.12,110c-.55.32-.55.83,0,1.14a2.17,2.17,0,0,0,2,0,.6.6,0,0,0,0-1.14A2.18,2.18,0,0,0,51.12,110Z"/></g><g class="cls-20"><path class="cls-75" d="M51.12,109.1c-.55.32-.55.83,0,1.14a2.17,2.17,0,0,0,2,0,.6.6,0,0,0,0-1.14A2.18,2.18,0,0,0,51.12,109.1Z"/></g><g class="cls-21"><path class="cls-76" d="M51.12,108.21c-.55.32-.55.83,0,1.14a2.17,2.17,0,0,0,2,0,.6.6,0,0,0,0-1.14A2.18,2.18,0,0,0,51.12,108.21Z"/></g><g class="cls-22"><path class="cls-77" d="M51.12,107.32c-.55.32-.55.83,0,1.14a2.17,2.17,0,0,0,2,0,.6.6,0,0,0,0-1.14A2.18,2.18,0,0,0,51.12,107.32Z"/></g><g class="cls-23"><path class="cls-78" d="M51.12,106.43c-.55.32-.55.83,0,1.14a2.17,2.17,0,0,0,2,0,.6.6,0,0,0,0-1.14A2.18,2.18,0,0,0,51.12,106.43Z"/></g><g class="cls-24"><path class="cls-79" d="M51.12,105.54c-.55.32-.55.83,0,1.14a2.17,2.17,0,0,0,2,0,.6.6,0,0,0,0-1.14A2.18,2.18,0,0,0,51.12,105.54Z"/></g><g class="cls-25"><path class="cls-80" d="M51.12,104.65c-.55.32-.55.83,0,1.14a2.17,2.17,0,0,0,2,0,.6.6,0,0,0,0-1.14A2.18,2.18,0,0,0,51.12,104.65Z"/></g><g class="cls-26"><path class="cls-81" d="M51.12,103.76c-.55.32-.55.83,0,1.14a2.17,2.17,0,0,0,2,0,.6.6,0,0,0,0-1.14A2.18,2.18,0,0,0,51.12,103.76Z"/></g><g class="cls-27"><path class="cls-70" d="M51.12,102.87c-.55.32-.55.83,0,1.14a2.17,2.17,0,0,0,2,0,.6.6,0,0,0,0-1.14A2.18,2.18,0,0,0,51.12,102.87Z"/></g><g class="cls-82"><path class="cls-70" d="M50.32,127.13a.6.6,0,0,0,0,1.14,2.15,2.15,0,0,0,2,0,.6.6,0,0,0,0-1.14A2.2,2.2,0,0,0,50.32,127.13Z"/></g><g class="cls-83"><path class="cls-70" d="M50.32,126.24a.6.6,0,0,0,0,1.14,2.15,2.15,0,0,0,2,0,.6.6,0,0,0,0-1.14A2.2,2.2,0,0,0,50.32,126.24Z"/></g><g class="cls-84"><path class="cls-70" d="M50.32,125.35a.6.6,0,0,0,0,1.14,2.15,2.15,0,0,0,2,0c.55-.32.55-.83,0-1.14A2.2,2.2,0,0,0,50.32,125.35Z"/></g><g class="cls-85"><path class="cls-70" d="M50.32,124.46a.6.6,0,0,0,0,1.14,2.15,2.15,0,0,0,2,0c.55-.32.55-.83,0-1.14A2.2,2.2,0,0,0,50.32,124.46Z"/></g><g class="cls-86"><path class="cls-70" d="M50.32,123.57a.6.6,0,0,0,0,1.14,2.15,2.15,0,0,0,2,0c.55-.32.55-.83,0-1.14A2.2,2.2,0,0,0,50.32,123.57Z"/></g><g class="cls-87"><path class="cls-70" d="M50.32,122.68a.6.6,0,0,0,0,1.14,2.15,2.15,0,0,0,2,0c.55-.32.55-.83,0-1.14A2.2,2.2,0,0,0,50.32,122.68Z"/></g><g class="cls-88"><path class="cls-70" d="M50.32,121.79a.6.6,0,0,0,0,1.14,2.15,2.15,0,0,0,2,0c.55-.32.55-.83,0-1.14A2.2,2.2,0,0,0,50.32,121.79Z"/></g><g class="cls-89"><path class="cls-70" d="M50.32,120.9a.6.6,0,0,0,0,1.14,2.18,2.18,0,0,0,2,0c.55-.32.55-.83,0-1.14A2.2,2.2,0,0,0,50.32,120.9Z"/></g><g class="cls-90"><path class="cls-70" d="M50.32,120a.6.6,0,0,0,0,1.14,2.18,2.18,0,0,0,2,0c.55-.32.55-.83,0-1.14A2.2,2.2,0,0,0,50.32,120Z"/></g><g class="cls-91"><path class="cls-70" d="M50.32,119.12a.6.6,0,0,0,0,1.14,2.18,2.18,0,0,0,2,0c.55-.32.55-.83,0-1.14A2.2,2.2,0,0,0,50.32,119.12Z"/></g><g class="cls-92"><path class="cls-70" d="M50.32,118.23a.6.6,0,0,0,0,1.14,2.18,2.18,0,0,0,2,0c.55-.32.55-.83,0-1.14A2.2,2.2,0,0,0,50.32,118.23Z"/></g><g class="cls-27"><path class="cls-70" d="M50.32,117.34a.6.6,0,0,0,0,1.14,2.18,2.18,0,0,0,2,0c.55-.32.55-.83,0-1.14A2.2,2.2,0,0,0,50.32,117.34Z"/></g><g class="cls-82"><path class="cls-70" d="M71.14,111a.6.6,0,0,0,0,1.14,2.15,2.15,0,0,0,2,0,.6.6,0,0,0,0-1.14A2.2,2.2,0,0,0,71.14,111Z"/></g><g class="cls-83"><path class="cls-70" d="M71.14,110.1a.6.6,0,0,0,0,1.14,2.15,2.15,0,0,0,2,0,.6.6,0,0,0,0-1.14A2.2,2.2,0,0,0,71.14,110.1Z"/></g><g class="cls-84"><path class="cls-70" d="M71.14,109.21a.6.6,0,0,0,0,1.14,2.15,2.15,0,0,0,2,0,.6.6,0,0,0,0-1.14A2.2,2.2,0,0,0,71.14,109.21Z"/></g><g class="cls-85"><path class="cls-70" d="M71.14,108.32a.6.6,0,0,0,0,1.14,2.15,2.15,0,0,0,2,0,.6.6,0,0,0,0-1.14A2.2,2.2,0,0,0,71.14,108.32Z"/></g><g class="cls-86"><path class="cls-70" d="M71.14,107.43a.6.6,0,0,0,0,1.14,2.15,2.15,0,0,0,2,0,.6.6,0,0,0,0-1.14A2.2,2.2,0,0,0,71.14,107.43Z"/></g><g class="cls-87"><path class="cls-70" d="M71.14,106.54a.6.6,0,0,0,0,1.14,2.15,2.15,0,0,0,2,0,.6.6,0,0,0,0-1.14A2.2,2.2,0,0,0,71.14,106.54Z"/></g><g class="cls-88"><path class="cls-70" d="M71.14,105.65a.6.6,0,0,0,0,1.14,2.15,2.15,0,0,0,2,0,.6.6,0,0,0,0-1.14A2.2,2.2,0,0,0,71.14,105.65Z"/></g><g class="cls-89"><path class="cls-70" d="M71.14,104.76a.6.6,0,0,0,0,1.14,2.15,2.15,0,0,0,2,0,.6.6,0,0,0,0-1.14A2.2,2.2,0,0,0,71.14,104.76Z"/></g><g class="cls-90"><path class="cls-70" d="M71.14,103.87a.6.6,0,0,0,0,1.14,2.15,2.15,0,0,0,2,0,.6.6,0,0,0,0-1.14A2.2,2.2,0,0,0,71.14,103.87Z"/></g><g class="cls-91"><path class="cls-70" d="M71.14,103a.6.6,0,0,0,0,1.14,2.15,2.15,0,0,0,2,0,.6.6,0,0,0,0-1.14A2.2,2.2,0,0,0,71.14,103Z"/></g><g class="cls-92"><path class="cls-70" d="M71.14,102.09a.6.6,0,0,0,0,1.14,2.15,2.15,0,0,0,2,0,.6.6,0,0,0,0-1.14A2.2,2.2,0,0,0,71.14,102.09Z"/></g><g class="cls-27"><path class="cls-70" d="M71.14,101.2a.6.6,0,0,0,0,1.14,2.15,2.15,0,0,0,2,0,.6.6,0,0,0,0-1.14A2.2,2.2,0,0,0,71.14,101.2Z"/></g><path class="cls-93" d="M56,129.62c7.66,0,7.67-11.9,0-11.9s-7.67,11.9,0,11.9Z"/><path class="cls-94" d="M62,44.87a1.74,1.74,0,0,1-1.11,2.37,2.22,2.22,0,0,1-2.5-1.46,1.73,1.73,0,0,1,1.1-2.37A2.22,2.22,0,0,1,62,44.87Z"/><path class="cls-95" d="M66.85,50.55a5.09,5.09,0,0,1,2.21,1.29,4.77,4.77,0,0,1,1,2.87c0,.66.26,3.21.26,3.21l-2.39.56Z"/><path class="cls-96" d="M77,101.74s1.79,2,1.54,2.33-2.13.36-3.27,0-1.18-2.72-1.7-3.74c-.21-.42.25-1.67.91-1.76a3.11,3.11,0,0,1,1.36.17S75.13,100.17,77,101.74Z"/><path class="cls-97" d="M75.82,98.72a8.34,8.34,0,0,1,.52,1.68c.11.68,1.27,2.12,1.22,2.3a2.48,2.48,0,0,1-2.13-.12,5,5,0,0,1-1.12-2.65A5.18,5.18,0,0,0,74,98.79S75.25,98.22,75.82,98.72Z"/><path class="cls-96" d="M61.38,101.77s1.72,2,1.48,2.3-2.13.36-3.28,0-1.17-2.72-1.69-3.74c-.22-.42.25-1.67.9-1.76a3.33,3.33,0,0,1,1.42.19S59.54,100.2,61.38,101.77Z"/><path class="cls-97" d="M60.21,98.76a13,13,0,0,0,.35,1.6c.22.66,1.4,2.16,1.34,2.34a2.48,2.48,0,0,1-2.13-.12,4.47,4.47,0,0,1-1.12-2.65,3.73,3.73,0,0,1,.14-1.36A1.55,1.55,0,0,1,60.21,98.76Z"/><path class="cls-97" d="M68.84,66s1.53,6,1.89,7.47,1.34,8.78,1.44,10,1.61,5.9,1.54,6.34,2.22,9.32,2.22,9.32a1.59,1.59,0,0,1-1.61,0c-.42-.24-5-8.31-5-10.52,0-3-2.7-7-3.05-7.72-3.25-6.35-2.61-8.29-3-8.7s-.46.25-.71,1.16-.77,8.81-1.09,9.81-.07,4.39-.25,6.1-.95,9.44-.95,9.44a.92.92,0,0,1-1.44,0,92.87,92.87,0,0,1-1.49-10.64c0-2-.07-4.84-.14-5.72-.66-8.42-2.26-9.62.27-15.59C62.15,55.67,68.84,66,68.84,66Z"/><path class="cls-95" d="M58.52,64.33s-4.38,5.11-2.5,16C56,80.32,66.41,81.5,72,79c0,0-2.3-11.22-3.13-13S58.52,64.33,58.52,64.33Z"/><polygon class="cls-96" points="73.5 100.16 73.5 102.26 73.82 102.26 73.82 100.63 73.5 100.16"/><polygon class="cls-96" points="57.84 100.16 57.84 102.26 58.17 102.26 58.17 100.63 57.84 100.16"/><path class="cls-95" d="M64.39,49.79s1.9.66,2.46.76S69.3,53,69.68,53.83s0,2.15-.78,3.67-.05,2-.41,3.53.8,4.75.87,5.59-10.53,1-12.62-.56c0,0,2.1-2.61,2.36-3a5.74,5.74,0,0,0-.2-2.93c-.24-.53-1.88-5-1.88-5s-1.35-3.42-.13-4.21c1-.68,3.92-.92,4.43-1.07A10.53,10.53,0,0,1,64.39,49.79Z"/><path class="cls-97" d="M65.16,48.24s0,.34-.09.81c0,.2,0,.43-.07.67a12.5,12.5,0,0,0-.09,1.79s-1.68,1.41-3.59-1.63a3.53,3.53,0,0,0,.2-3C60.92,45.21,65.16,48.24,65.16,48.24Z"/><polygon class="cls-97" points="69.38 59.52 69.66 60.09 69.06 59.73 69.38 59.52"/><path class="cls-98" d="M65.73,40.48s3.76,1,1.72,6.4-7.17-.63-6.63-3.93S65.73,40.48,65.73,40.48Z"/><path class="cls-94" d="M67.84,43.64a9.3,9.3,0,0,1-5,1.72s-1.2,1.18-1.29,1.64c0,0-3.27-4.56.64-6.35C66.33,38.76,69.1,42.66,67.84,43.64Z"/><path class="cls-98" d="M62.82,45.33c0-.39-.32-1.29-1-1s.05,2.08.51,2C62.31,46.25,62.88,46.26,62.82,45.33Z"/><path class="cls-99" d="M65.07,49.05c0,.2,0,.43-.07.67h0c-2.17-.89-2.5-2.18-2.51-2.22C64.14,49.05,65.07,49.05,65.07,49.05Z"/><path class="cls-100" d="M69.88,54.67a7.93,7.93,0,0,1-.41,3l-.47-.2A10.68,10.68,0,0,0,69.88,54.67Z"/><path class="cls-97" d="M61.72,60.87l1-.55a2.18,2.18,0,0,1,1.09.08,11,11,0,0,1,1.16.37c.08,0,.15,0,.12.23a.63.63,0,0,1-.19.33.38.38,0,0,1-.11.41.35.35,0,0,1-.2.39.28.28,0,0,1-.14.33,3.35,3.35,0,0,1-.61,0c-.24,0-1.48-.28-2.35-.47C61.5,62,61.14,61.83,61.72,60.87Z"/><path class="cls-97" d="M64.72,60.71a11.65,11.65,0,0,1,2.22.56c0,.21-.6.28-2.31-.11S64.72,60.71,64.72,60.71Z"/><path class="cls-95" d="M59.17,50.64a2.42,2.42,0,0,0-2.87,1.1c-.67,1.34-1.21,2.86-1.68,3.55s-2,3.88-1.58,4.26a7,7,0,0,0,2.89,1.13c1.51.29,5.87,1.65,5.87,1.65l.55-2s-1.91-.77-3-1.14-.86-.41-2.49-.89a23.88,23.88,0,0,1,1.35-2.51C58.61,55.29,61.47,51.8,59.17,50.64Z"/><path class="cls-101" d="M65.11,64.23l5.83-.4a.9.9,0,0,0,.64-.32l6-8.19c.34-.45-.05-1-.69-1l-6.25-.05a.84.84,0,0,0-.74.36l-5.63,8.63C64,63.69,64.45,64.27,65.11,64.23Z"/><path class="cls-97" d="M73.27,61.22a5.41,5.41,0,0,0,.7-.68,10.35,10.35,0,0,0,1.3-2,4.53,4.53,0,0,0-2,.09c-.28.22.29.3.29.3s-.87.08-.81.28.58.15.58.15-.69.11-.59.29.44.18.44.18-.62.06-.54.26,1.06.38.93.54A4.15,4.15,0,0,0,73.27,61.22Z"/><path class="cls-97" d="M61.05,49.94s2.1,2.86,3.77,2.82.53-2.64.53-2.64S64.07,49.26,61.05,49.94Z"/><path class="cls-102" d="M72,59.54a1.46,1.46,0,0,1-1.71.28c-.37-.31-.22-1,.34-1.42a1.46,1.46,0,0,1,1.71-.28C72.73,58.43,72.58,59.07,72,59.54Z"/><path class="cls-94" d="M68.14,42.89A3.75,3.75,0,0,1,68,45s.06-1.23-.25-1.57S68.14,42.89,68.14,42.89Z"/></g></g></svg>