<svg width="893" height="489" viewBox="0 0 893 489" fill="none" xmlns="http://www.w3.org/2000/svg">
<g clip-path="url(#clip0)">
<path d="M769 92.2356L787.568 73.6557C790.691 70.5308 795.757 70.5298 798.881 73.6533C798.882 73.6541 798.883 73.6549 798.884 73.6557L848.316 123.113C851.315 126.114 853 130.182 853 134.424V462" stroke="#CBCBCB" stroke-width="8"/>
<path d="M879 461H826C824.343 461 823 462.343 823 464V465C823 466.657 824.343 468 826 468H879C880.657 468 882 466.657 882 465V464C882 462.343 880.657 461 879 461Z" fill="#AFB9C5"/>
<path fill-rule="evenodd" clip-rule="evenodd" d="M784.208 81.2083C794.034 91.0344 794.854 106.145 786.04 114.959L772.499 128.5L736.916 92.9166L750.457 79.3756C759.271 70.5617 774.382 71.3822 784.208 81.2083Z" fill="#C5CFD6"/>
<path d="M751.678 113.87C761.441 123.633 771.413 129.49 773.952 126.952C776.49 124.413 770.633 114.441 760.87 104.678C751.107 94.9146 741.135 89.0578 738.596 91.5962C736.058 94.1346 741.915 104.107 751.678 113.87Z" fill="#F2F2F2"/>
</g>
<path d="M499 111C528.271 111 552 87.2711 552 58C552 28.7289 528.271 5 499 5C469.729 5 446 28.7289 446 58C446 87.2711 469.729 111 499 111Z" fill="#F2F2F2"/>
<path d="M499 19C500.657 19 502 17.6569 502 16C502 14.3431 500.657 13 499 13C497.343 13 496 14.3431 496 16C496 17.6569 497.343 19 499 19Z" fill="black" fill-opacity="0.1"/>
<path d="M457 61C458.657 61 460 59.6569 460 58C460 56.3431 458.657 55 457 55C455.343 55 454 56.3431 454 58C454 59.6569 455.343 61 457 61Z" fill="black" fill-opacity="0.1"/>
<path d="M541 61C542.657 61 544 59.6569 544 58C544 56.3431 542.657 55 541 55C539.343 55 538 56.3431 538 58C538 59.6569 539.343 61 541 61Z" fill="black" fill-opacity="0.1"/>
<path d="M499 103C500.657 103 502 101.657 502 100C502 98.3431 500.657 97 499 97C497.343 97 496 98.3431 496 100C496 101.657 497.343 103 499 103Z" fill="black" fill-opacity="0.1"/>
<path fill-rule="evenodd" clip-rule="evenodd" d="M499 22L501 57H497L499 22Z" fill="#AFB9C5"/>
<path fill-rule="evenodd" clip-rule="evenodd" d="M516.698 75.6985L498.313 60.1421L501.142 57.3137L516.698 75.6985Z" fill="#AFB9C5"/>
<path d="M499 62C501.209 62 503 60.2091 503 58C503 55.7909 501.209 54 499 54C496.791 54 495 55.7909 495 58C495 60.2091 496.791 62 499 62Z" fill="#C5CFD6"/>
<path opacity="0.8" d="M74.0717 486.193C33.1615 486.193 0 480.461 0 473.389C0 466.32 33.1615 460.588 74.0717 460.588C114.981 460.588 148.142 466.32 148.142 473.389C148.142 480.461 114.981 486.193 74.0717 486.193Z" fill="#E6E7EA"/>
<path d="M56.8653 82.9187L67.9394 90.2666L76.4861 90.4107L81.5848 77.7053L89.4874 81.6573L94.9208 139.668C94.9208 139.668 120.601 216.08 108.807 223.191C97.0154 230.303 53.9205 231.481 47.3904 224.815C40.8596 218.148 56.8653 82.9187 56.8653 82.9187Z" fill="#F4BF1C"/>
<path d="M48.813 451.299C48.813 455.003 50.0004 460.044 51.5004 463.103C54.3651 468.945 53.4822 473.146 51.616 474.787C48.6942 477.36 26.1655 477.007 23.9916 474.787C22.252 473.013 20.5542 468.712 23.4187 462.868C24.9187 459.812 26.1395 455.328 26.1395 451.881" fill="#21496C"/>
<path d="M83.1449 453.307C83.1449 453.307 83.5662 455.525 83.1449 458.057C83.0062 458.888 82.9689 463.012 82.3995 466.969C82.3635 467.215 81.8289 467.664 81.7929 467.905C81.6435 468.922 81.4929 469.897 81.3475 470.763C81.0142 472.748 81.7062 474.204 83.2769 474.289C90.5502 474.676 111.416 475.765 115.953 475.765C121.47 475.765 126.705 475.391 127.681 473.234C128.204 472.077 128.01 470.58 128.072 468.803C128.072 466.913 122.853 462.817 115.797 460.663C110.28 458.977 108.616 452.112 108.616 453.307H83.1449Z" fill="#21496C"/>
<path d="M70.7608 266.969C68.2568 290.788 49.317 449.992 48.8544 452.534C48.391 455.077 26.1978 454.611 26.1394 451.881C25.1806 407.529 29.4696 273.536 30.8372 224.929C30.8372 224.929 77.0182 224.815 116.01 224.815C118.331 260.016 120.354 341.271 118.718 359.969C117.312 376.037 110.52 443.467 108.616 453.307C108.616 453.307 104.166 455.873 95.9555 456.025C87.4542 456.183 84.0382 455.6 81.2648 453.167C86.6862 408.164 82.1622 375.303 89.1435 346.969L76.9515 266.969H70.7608Z" fill="#8ACFF2"/>
<path d="M81.3475 470.763C81.0142 472.748 81.7062 474.204 83.2769 474.289C90.5502 474.676 111.416 475.765 115.953 475.765C121.47 475.765 126.705 475.391 127.681 473.234C128.204 472.077 128.01 470.58 128.072 468.803C128.072 467.503 125.605 465.163 121.77 463.124H121.768C118.36 464.279 118.622 469.08 118.622 469.08C116.9 469.301 98.6769 468.803 91.1769 468.415C83.6769 468.027 82.3995 467.636 82.3995 466.969C82.3635 467.215 81.8289 467.664 81.7929 467.905C81.6435 468.922 81.4929 469.897 81.3475 470.763Z" fill="white"/>
<path d="M81.3476 470.763L80.6903 470.652C80.6303 471.012 80.5996 471.36 80.5996 471.695C80.5996 472.543 80.7943 473.319 81.2449 473.925C81.6929 474.534 82.4183 474.917 83.241 474.955L83.2423 474.956C90.525 475.343 111.362 476.431 115.953 476.432C118.728 476.431 121.441 476.34 123.633 475.965C124.73 475.777 125.698 475.52 126.498 475.143C127.292 474.767 127.949 474.253 128.288 473.509C128.708 472.568 128.722 471.563 128.726 470.507C128.726 470.264 128.724 470.017 128.724 469.768C128.724 469.46 128.726 469.145 128.738 468.825V468.815V468.803C128.732 468.264 128.509 467.78 128.18 467.282C127.181 465.812 125.024 464.107 122.084 462.536L121.937 462.457H121.768H121.658L121.554 462.493C120.697 462.781 120.024 463.282 119.524 463.869C118.772 464.75 118.392 465.803 118.185 466.722C117.98 467.644 117.95 468.443 117.95 468.844C117.95 469.008 117.956 469.105 117.956 469.116L118.622 469.08L118.537 468.419C118.334 468.448 117.538 468.469 116.437 468.468C111.024 468.468 97.4129 468.069 91.2116 467.75C87.4729 467.556 85.2863 467.36 84.0956 467.14C83.5023 467.034 83.1596 466.912 83.0489 466.844L83.0063 466.816L82.8996 466.938L83.0423 466.872L83.0063 466.816L82.8996 466.938L83.0423 466.872L82.8303 466.969H83.0663L83.0423 466.872L82.8303 466.969H83.0663L81.7396 466.873L82.0663 466.92L81.7676 466.772L81.7396 466.873L82.0663 466.92L81.7676 466.772L81.7516 466.797C81.7076 466.864 81.593 466.997 81.4756 467.144L81.2943 467.396C81.2369 467.495 81.1676 467.605 81.1343 467.809C80.9849 468.822 80.8343 469.793 80.6903 470.652L81.3476 470.763L82.0049 470.873C82.1516 470.001 82.3023 469.022 82.4529 468.003L82.1209 467.953L82.4236 468.105L82.4529 468.001L82.1209 467.953L82.4236 468.105L82.4396 468.08C82.4836 468.013 82.5983 467.879 82.7156 467.732L82.8983 467.48C82.9556 467.38 83.025 467.269 83.0583 467.065L82.3996 466.969H81.7329C81.7289 467.157 81.7863 467.388 81.9116 467.573C82.1383 467.903 82.4529 468.063 82.8343 468.2C83.4129 468.399 84.2396 468.544 85.5583 468.685C86.8756 468.825 88.6756 468.953 91.1423 469.08C97.3836 469.403 110.973 469.801 116.437 469.801C117.572 469.8 118.322 469.788 118.706 469.741L119.321 469.663L119.288 469.044L119.286 468.999L119.284 468.844C119.282 468.399 119.333 467.281 119.713 466.215C119.902 465.68 120.17 465.163 120.536 464.736C120.904 464.308 121.362 463.967 121.982 463.756L121.768 463.124V463.791H121.77V463.124L121.458 463.713C123.333 464.709 124.869 465.78 125.909 466.732C126.429 467.207 126.824 467.653 127.073 468.025C127.326 468.396 127.412 468.691 127.405 468.803H128.072L127.405 468.78C127.393 469.122 127.39 469.452 127.39 469.768C127.39 470.024 127.393 470.269 127.393 470.507C127.397 471.543 127.346 472.369 127.073 472.96C126.925 473.295 126.562 473.638 125.928 473.938C124.984 474.388 123.505 474.697 121.765 474.869C120.021 475.045 118.01 475.099 115.953 475.099C111.468 475.099 90.5756 474.011 83.3129 473.624H83.3143C82.8236 473.589 82.5436 473.422 82.3129 473.127C82.0863 472.827 81.9316 472.341 81.9329 471.695C81.9329 471.441 81.9556 471.165 82.0049 470.872L81.3476 470.763Z" fill="white"/>
<path d="M39.7321 461.969C33.7321 462.136 28.8988 465.969 27.3155 468.051C25.7321 470.131 21.914 468.132 22.0515 466.967C21.4108 470.715 22.6884 473.458 23.9911 474.787C26.1649 477.007 48.6936 477.36 51.6155 474.787C52.9968 473.573 53.8348 470.953 53.0176 467.305C51.3859 464.234 45.7285 461.803 39.7321 461.969Z" fill="white"/>
<path d="M39.732 461.969L39.7139 461.303C36.5753 461.391 33.7653 462.433 31.5357 463.713C29.3029 465 27.6524 466.512 26.7852 467.646C26.4284 468.107 25.9581 468.281 25.3497 468.289C24.7148 468.292 23.9805 468.048 23.4503 467.721C23.1852 467.561 22.9716 467.381 22.8481 467.233L22.7284 467.058L22.7144 467.021L22.6815 467.029H22.7144V467.021L22.6815 467.029H22.7144H22.5748L22.7133 467.045L22.7144 467.029H22.5748L22.7133 467.045L21.394 466.855C21.2701 467.579 21.2139 468.271 21.2139 468.927C21.2164 471.848 22.3205 474.033 23.5144 475.253C24.0039 475.725 24.6836 475.952 25.6107 476.2C28.3648 476.893 33.2977 477.251 38.2128 477.253C41.2535 477.253 44.2721 477.113 46.7315 476.813C47.9623 476.663 49.0524 476.473 49.9487 476.234C50.8467 475.989 51.5467 475.724 52.0565 475.288H52.0555C53.2481 474.233 54.0044 472.413 54.0055 470.043C54.0055 469.158 53.8997 468.195 53.668 467.16L53.6481 467.072L53.606 466.992C52.6967 465.3 50.8456 463.915 48.5024 462.907C46.1549 461.904 43.2945 461.296 40.3148 461.295C40.1153 461.295 39.9144 461.297 39.7133 461.303H39.7139L39.732 461.969L39.7513 462.636C39.9388 462.631 40.1268 462.628 40.3148 462.628C43.1112 462.627 45.8128 463.205 47.9784 464.132C50.1477 465.053 51.7596 466.34 52.4289 467.619L53.0175 467.305L52.3669 467.451C52.5789 468.399 52.6727 469.265 52.6721 470.043C52.6743 472.133 51.9945 473.572 51.1759 474.287H51.1753C50.9811 474.469 50.4087 474.739 49.6049 474.946C47.1773 475.599 42.7049 475.922 38.2128 475.92C34.9857 475.92 31.7305 475.758 29.1648 475.456C27.8831 475.305 26.7721 475.119 25.9383 474.908C25.1087 474.711 24.5409 474.424 24.4669 474.32H24.4664C23.5347 473.372 22.5445 471.501 22.5472 468.927C22.5472 468.346 22.5972 467.731 22.7081 467.079L22.0513 466.967L21.3893 466.888L21.3811 467.029C21.3883 467.473 21.592 467.809 21.8325 468.099C22.2039 468.529 22.7259 468.887 23.3336 469.164C23.942 469.436 24.6363 469.621 25.3497 469.622C26.2377 469.631 27.2065 469.303 27.8461 468.453C28.5623 467.508 30.1201 466.061 32.1997 464.869C34.2825 463.672 36.8893 462.715 39.7508 462.636H39.7513L39.732 461.969Z" fill="white"/>
<path d="M117.097 245.013C116.993 242.695 116.885 240.444 116.777 238.276C116.78 238.275 116.783 238.272 116.785 238.269L117.156 244.969C117.136 244.984 117.117 244.999 117.097 245.013ZM30.3135 243.076V236.949L30.502 236.62C30.4421 238.687 30.3791 240.843 30.3135 243.076ZM37.1875 224.915L45.8343 209.775C45.7525 218.033 46.1921 223.591 47.3911 224.815C47.4165 224.841 47.4432 224.867 47.4703 224.893C43.3869 224.901 39.8999 224.909 37.1875 224.915Z" fill="white"/>
<path d="M47.4697 224.893C47.4427 224.867 47.416 224.841 47.3905 224.815C46.1916 223.591 45.752 218.033 45.8337 209.775L50.3556 201.859L65.1049 195.449C65.7649 195.889 66.4583 196.243 67.1636 196.485C67.8622 196.725 70.3423 196.807 73.3996 196.807C79.1169 196.807 86.8516 196.521 88.7236 196.449L88.6863 198.192C88.6863 198.192 88.7183 198.255 88.7756 198.355C88.5316 208.648 88.3582 217.791 88.4342 224.831C86.5942 224.832 84.7689 224.835 82.9569 224.836C83.5769 213.092 85.4262 200.857 85.4262 200.857H74.5969C74.5969 200.857 75.6836 212.941 74.2796 224.848C64.1249 224.861 54.8307 224.879 47.4697 224.893Z" fill="#F5AF12"/>
<path d="M99.0775 251.273C92.5441 251.273 86.9948 248.779 84.5788 244.525C82.6961 241.211 82.5188 233.147 82.9575 224.836C84.7695 224.835 86.5948 224.832 88.4348 224.831C88.4935 230.291 88.7028 234.485 89.1441 236.969C89.8868 241.143 95.1321 243.053 101.109 243.053C106.732 243.053 112.999 241.364 116.777 238.276C116.885 240.444 116.993 242.695 117.097 245.013C111.301 249.352 104.811 251.273 99.0775 251.273ZM54.5723 248.917C43.2599 248.916 30.3432 243.089 30.3135 243.076C30.3791 240.843 30.4421 238.687 30.502 236.62L37.1875 224.915C39.8999 224.909 43.3869 224.901 47.4703 224.893C54.8312 224.879 64.1255 224.861 74.2801 224.848C73.3641 232.617 71.3855 240.313 67.3521 244.525C64.2307 247.785 59.5577 248.917 54.5723 248.917Z" fill="#65C0EA"/>
<path d="M20.025 246.076C26.5458 251.843 24.6781 259.472 25.427 264.591C25.9365 268.071 27.9114 271.988 24.9521 270.849C19.6474 268.811 20.4791 260.04 20.4791 260.04C20.4791 260.04 18.7431 260.879 18.4661 263.111C17.9827 266.977 22.5963 274.968 23.1302 278.816C23.7005 282.912 15.237 279.428 11.8994 274.877C5.71875 267.093 5.71501 253.412 5.72648 252.148C5.75675 249.417 5.71875 241.677 5.71875 241.677L20.9313 231.813C20.9313 231.813 19.0037 245.113 20.025 246.076Z" fill="#F5BB86"/>
<path d="M29.9873 92.6787C21.5654 97.136 13.2821 112.672 11.4129 137.717C9.9722 157.023 3.60393 205.617 3.23153 231.911C3.217 233.005 5.0998 234.779 5.08833 235.781C5.02167 241.925 5.0426 246.221 5.18113 247.693C5.57953 252.011 22.5025 246.513 22.5025 242.308C22.5025 241.036 22.8003 237.371 23.2905 232.204C23.3941 231.107 24.6987 230.517 24.8202 229.292C27.3097 203.995 34.6759 145.913 34.6759 145.913" fill="#21496C"/>
<path d="M95.8452 49.22C95.3212 53.1426 92.2786 58.172 89.3679 56.656C87.0226 55.432 85.0452 53.3947 85.5652 49.4707C86.0866 45.5467 88.1412 43.624 91.2572 42.996C94.6159 42.3187 96.3639 45.2946 95.8452 49.22Z" fill="#EA9376"/>
<path d="M94.9215 44.2667C94.2935 43.488 90.9268 43.068 89.9521 46.0173L90.3161 43.236C90.3161 43.236 91.3948 42.7267 92.6828 42.9333C94.3508 43.2 94.9215 44.2667 94.9215 44.2667Z" fill="#F5BB86"/>
<path d="M45.2216 49.22C45.7414 53.1426 48.7841 58.172 51.6982 56.656C54.043 55.432 56.0185 53.3947 55.4977 49.4707C54.9768 45.5467 52.9221 43.624 49.806 42.996C46.4482 42.3187 44.7008 45.2946 45.2216 49.22Z" fill="#EA9376"/>
<path d="M46.1436 44.2667C46.7722 43.488 50.141 43.068 51.1124 46.0173L50.752 43.236C50.752 43.236 49.6708 42.7267 48.3821 42.9333C46.7154 43.2 46.1436 44.2667 46.1436 44.2667Z" fill="#F5BB86"/>
<path d="M57.622 64.6733C58.858 68.968 57.1731 82.152 56.8652 82.9187C56.8652 82.9187 58.607 90.7373 72.3487 90.7373C80.6074 90.7373 82.8167 86.5933 83.2327 85.2187C83.6487 83.844 80.3607 72.248 81.8554 65.196L57.622 64.6733Z" fill="#EA9376"/>
<path d="M57.998 67.208C57.998 67.208 58.1871 68.7213 58.0247 71.3253C58.0247 71.3253 65.0403 79.6307 70.05 79.6307C75.0607 79.6307 81.462 71.9573 81.462 71.9573C81.462 71.9573 81.3554 66.8174 81.5847 64.6734L57.998 67.208Z" fill="#EA9376"/>
<path d="M90.3154 38.2507C90.3154 49.172 81.462 58.0267 70.5394 58.0267C59.6168 58.0267 50.7627 49.172 50.7627 38.2507C50.7627 23.5894 59.6168 16.5373 70.5394 16.5373C81.462 16.5373 90.3154 23.896 90.3154 38.2507Z" fill="#F5BB86"/>
<path d="M90.3154 38.2507C90.3154 48.8294 90.3154 57.6827 86.282 63.432C83.8527 66.8934 77.5473 72.8467 72.9767 74.3547C71.842 74.728 68.5927 74.54 67.462 74.14C62.9278 72.5347 57.1168 66.7347 54.7955 63.432C50.7627 57.6827 50.7627 48.8294 50.7627 38.2507" fill="#F5BB86"/>
<path d="M81.7908 46.5213C81.7908 48.3187 80.7068 49.7773 79.3708 49.7773C78.0335 49.7773 76.9521 48.3187 76.9521 46.5213C76.9521 44.7213 78.0335 43.264 79.3708 43.264C80.7068 43.264 81.7908 44.7213 81.7908 46.5213Z" fill="#231F20"/>
<path d="M64.3659 46.5213C64.3659 48.3187 63.2825 49.7773 61.9456 49.7773C60.6097 49.7773 59.5273 48.3187 59.5273 46.5213C59.5273 44.7213 60.6097 43.264 61.9456 43.264C63.2825 43.264 64.3659 44.7213 64.3659 46.5213Z" fill="#231F20"/>
<path d="M76.8969 38.1054C76.8969 38.1054 77.0129 38.0694 77.2556 38.028C77.4969 37.988 77.8316 37.9307 78.2302 37.8974C78.6302 37.864 79.0969 37.848 79.5982 37.84C80.0982 37.8787 80.6342 37.884 81.1662 37.9547C82.2289 38.0894 83.2809 38.3534 84.0356 38.6521C84.7902 38.9614 85.2622 39.2227 85.2622 39.2227C85.5996 39.4094 85.7236 39.8347 85.5369 40.1747C85.3982 40.424 85.1289 40.5574 84.8609 40.5334L84.7822 40.5267C84.7822 40.5267 84.2769 40.4814 83.5649 40.3334C83.2142 40.236 82.7729 40.2387 82.3316 40.1307C81.8889 40.024 81.3942 40.0147 80.9142 39.9254C80.4342 39.8347 79.9436 39.8081 79.4876 39.7494C79.0302 39.7094 78.5996 39.6414 78.2329 39.62C77.4969 39.5454 77.0062 39.496 77.0062 39.496C76.6169 39.4574 76.3329 39.1094 76.3729 38.7214C76.4022 38.4307 76.6022 38.2001 76.8636 38.1174L76.8969 38.1054Z" fill="#1C354B"/>
<path d="M63.7762 39.496C63.7762 39.496 63.2861 39.5453 62.5501 39.62C62.1823 39.6413 61.7522 39.7093 61.2943 39.7493C60.8386 39.808 60.347 39.8347 59.8673 39.9253C59.3875 40.0147 58.8929 40.024 58.4501 40.1307C58.0095 40.2387 57.5673 40.236 57.2173 40.332C56.5053 40.4813 55.9985 40.5267 55.9985 40.5267L55.9205 40.5333C55.5355 40.568 55.1949 40.284 55.1599 39.8987C55.135 39.6133 55.2845 39.352 55.5199 39.2227C55.5199 39.2227 55.9913 38.9613 56.7465 38.652C57.5001 38.3533 58.5527 38.0893 59.6157 37.9547C60.1485 37.884 60.6834 37.8787 61.1829 37.84C61.6855 37.848 62.1517 37.864 62.5522 37.8973C62.9506 37.9307 63.2845 37.988 63.5266 38.028C63.7689 38.0693 63.8855 38.1053 63.8855 38.1053L63.9189 38.1173C64.2918 38.2347 64.4981 38.6333 64.3803 39.0053C64.2923 39.284 64.0485 39.4693 63.7762 39.496Z" fill="#1C354B"/>
<path d="M66.9653 55.884C68.2333 55.2854 72.7933 55.2387 73.872 55.884C74.9507 56.5307 71.5907 57.3893 70.4187 57.3893C69.2467 57.3893 65.952 56.4387 66.9653 55.884Z" fill="#EA9376"/>
<path d="M62.9234 118.635C61.9119 114.219 56.3155 84.3867 57.2343 80.7293C53.3666 85.26 32.5302 89.2267 27.625 94.4973L26.0947 118.255C32.9723 121.848 30.2062 203.195 28.5655 235.969C28.5537 236.228 50.6854 248.055 61.9551 240.631C74.3583 232.265 66.5037 134.283 62.9234 118.635Z" fill="#21496C"/>
<path d="M120.232 231.813C120.232 214.24 119.099 152.053 116.804 133.993L117.672 95.3747C108.192 88.3507 82.0254 77.8827 82.0254 77.8827C96.3761 94.676 85.7067 217.636 89.144 236.969C90.9747 247.268 120.232 243.791 120.232 231.813Z" fill="#21496C"/>
<path d="M110.525 131.976L126.217 163.303C126.217 163.303 114.069 171.013 101.222 174.184C100.166 174.444 98.7247 176.755 97.706 177.007C93.4594 178.059 89.622 179.019 86.878 179.725C83.33 180.504 87.198 197.616 90.506 197.135C91.51 197.009 95.446 196.275 100.757 195.176C101.175 195.089 101.849 195.46 102.531 195.831C103.221 196.205 103.919 196.58 104.374 196.484C118.718 193.452 149.899 180.636 151.898 171.883C153.605 164.412 123.399 98.9693 117.671 95.3747C113.377 92.6813 110.525 131.976 110.525 131.976Z" fill="#23496C"/>
<path d="M118.404 161.136L118.184 160.152L42.0077 167.761L27.376 195.687L105.321 187.901L118.404 161.136Z" fill="#C2C5CB"/>
<path d="M105.321 187.901L103.884 189.051L27.9277 196.636L27.3757 195.687L25.3496 141.955L103.295 134.169L105.321 187.901Z" fill="#EDEEF0"/>
<path d="M103.884 189.051L101.256 135.825L28.0645 143.136L100.617 136.671L103.884 189.051Z" fill="white"/>
<path d="M118.184 160.152L105.702 184.403L117.478 160.613L105.358 161.433L118.184 160.152Z" fill="white"/>
<path d="M70.2905 166.62C70.9318 170.747 68.6278 174.784 65.1505 175.636C61.6673 176.488 58.3304 173.829 57.6897 169.701C57.0501 165.573 59.3522 161.535 62.8314 160.684C66.3105 159.833 69.6505 162.489 70.2905 166.62Z" fill="white"/>
<path d="M89.144 196.432C89.144 196.432 69.3573 197.239 67.164 196.485C62.7472 194.969 58.83 189.059 60.4065 185.469C61.7726 182.357 77.2706 182.005 79.8533 185.696C81.244 187.683 81.5853 191.277 81.5853 191.277L86.5907 190.777C86.5907 190.777 87.6906 194.511 89.144 196.432Z" fill="#F5BB86"/>
<path d="M52.0969 48.164C52.0969 48.164 53.3489 53.6147 56.4989 55.3067C59.6494 56.9987 58.7328 60.4987 60.0661 60.4987C60.539 60.4973 60.9489 59.348 61.9474 58.9693C63.324 58.448 65.3989 58.256 67.9429 58.192C68.7629 58.172 69.5189 59.4134 70.4296 59.4134C71.0482 59.4134 71.7736 58.1827 72.3776 58.216C75.3616 58.3787 78.0962 58.9334 79.8309 59.7467C81.0269 60.308 81.2802 61.628 82.0016 61.4147C83.9829 60.832 83.3122 56.248 84.9389 55.0814C86.5069 53.9587 88.7069 50.8027 88.9416 47.8347L88.9589 47.4973L90.2776 47.8987C90.2776 47.8987 90.4829 63.6654 83.0669 72.9147C75.6496 82.1654 71.9776 81.9987 70.7549 81.9987C69.5309 81.9987 58.9828 78.8267 54.3994 68.4987C49.9245 58.4133 50.8166 48.164 50.8166 48.164H52.0969Z" fill="#231F20"/>
<path d="M63.315 62.2147C67.5637 63.2867 74.1944 63.1333 78.1517 62.6907C78.6424 62.636 78.829 62.72 78.1957 62.9827C77.085 63.448 73.7903 66.7333 70.829 66.7333C67.8677 66.7333 64.1261 63.0707 63.1537 62.4667C62.7432 62.2107 62.9322 62.1174 63.315 62.2147Z" fill="#EA9376"/>
<path d="M78.5407 62.688C78.7607 62.7747 76.662 63.944 75.9393 64.5294C74.6593 64.8734 66.9287 64.8427 65.414 64.22C62.1491 62.052 63.07 62.1761 63.07 62.1761C63.07 62.1761 72.5793 63.1054 78.5407 62.688Z" fill="white"/>
<path d="M70.5385 24.952C67.7278 24.952 65.3651 23.7587 62.3923 23.024C57.0861 21.7094 54.5303 27.4067 54.5303 27.4067C51.4871 32.4027 52.1371 48.0667 52.0965 48.9693C52.0574 49.872 50.8438 49.9907 50.8162 48.9693C50.8162 48.9693 49.2287 38.4613 48.6277 32.136C45.8251 2.63601 85.0225 13.4693 88.2331 0.302681C93.4585 7.80268 95.9345 17.636 94.6718 29.5253C93.9438 36.3773 90.2771 46.6427 90.2771 48.7027C90.2771 49.8867 88.9518 49.7333 88.9518 48.6587C88.9518 46.992 89.9331 30.196 86.3211 25.9173C80.2438 18.7147 73.2625 24.952 70.5385 24.952Z" fill="#231F20"/>
<path d="M88.7759 198.355C88.7185 198.255 88.6865 198.192 88.6865 198.192L88.7239 196.449C88.7585 196.448 88.7919 196.447 88.8225 196.445C88.8065 197.087 88.7919 197.721 88.7759 198.355Z" fill="#F19A1C"/>
<path d="M104.409 200.303L100.343 198.525C100.343 198.525 91.6767 199.525 90.566 199.636C90.5274 199.64 90.4887 199.641 90.4514 199.641C89.6207 199.641 88.9994 198.733 88.7754 198.355C88.7914 197.721 88.8061 197.087 88.8221 196.445C89.0047 196.437 89.1141 196.433 89.1381 196.432C89.1407 196.436 89.1434 196.439 89.146 196.441C89.1714 196.525 89.394 197.159 90.2167 197.159C90.306 197.159 90.4021 197.151 90.5061 197.135C91.5101 197.009 95.4461 196.275 100.757 195.176L102.458 195.791C102.482 195.804 102.507 195.817 102.531 195.831C103.146 196.165 103.767 196.499 104.217 196.499C104.271 196.499 104.325 196.495 104.374 196.484C108.446 195.623 113.877 193.973 119.611 191.852L119.675 194.505L104.409 200.303Z" fill="#161629"/>
<path d="M90.5067 197.135C91.6373 196.956 100.757 195.176 100.757 195.176C95.4467 196.275 91.5107 197.009 90.5067 197.135ZM104.217 196.499C103.768 196.499 103.147 196.165 102.532 195.831C102.508 195.817 102.483 195.804 102.459 195.791L104.375 196.484C104.325 196.495 104.272 196.499 104.217 196.499ZM104.375 196.484C104.375 196.484 118.631 192.219 119.612 191.852C113.877 193.973 108.447 195.623 104.375 196.484ZM89.1467 196.441C89.144 196.439 89.1413 196.436 89.1387 196.432C89.1427 196.432 89.144 196.432 89.144 196.432C89.144 196.432 89.1453 196.436 89.1467 196.441Z" fill="#161629"/>
<path d="M88.7236 196.449V196.448L89.1436 196.432C89.1436 196.432 89.1423 196.432 89.1383 196.432C89.1143 196.433 89.005 196.437 88.8223 196.445C88.7916 196.447 88.7583 196.448 88.7236 196.449Z" fill="#F5A762"/>
<path d="M118.403 157.636C118.265 154.836 117.358 149.313 116.265 143.436L117.877 146.653L118.403 157.636Z" fill="#161629"/>
<path d="M117.877 146.653L116.265 143.436C114.368 133.239 111.905 121.969 111.905 121.969L117.877 146.653Z" fill="#161629"/>
<path opacity="0.8" d="M235.085 487.255C196.02 487.253 164.385 481.792 164.381 475.033C164.376 468.26 196.138 462.751 235.32 462.725C235.408 462.725 235.496 462.725 235.585 462.725C274.646 462.725 306.272 468.191 306.276 474.946C306.28 481.72 274.52 487.229 235.337 487.255C235.25 487.255 235.17 487.255 235.085 487.255Z" fill="#E6E7EA"/>
<path d="M259.304 65.688C259.304 72.388 253.873 77.82 247.173 77.82C240.472 77.82 235.041 72.388 235.041 65.688C235.041 58.988 240.472 53.556 247.173 53.556C253.873 53.556 259.304 58.988 259.304 65.688Z" fill="#610008"/>
<path d="M228.671 37.188C228.671 43.888 223.239 49.32 216.539 49.32C209.839 49.32 204.407 43.888 204.407 37.188C204.407 30.488 209.839 25.056 216.539 25.056C223.239 25.056 228.671 30.488 228.671 37.188Z" fill="#610008"/>
<path d="M260.028 53.26C260.028 57.16 256.866 60.3213 252.966 60.3213C249.068 60.3213 245.906 57.16 245.906 53.26C245.906 49.36 249.068 46.2 252.966 46.2C256.866 46.2 260.028 49.36 260.028 53.26Z" fill="#610008"/>
<path d="M255.513 38.36C255.513 43.9933 250.948 48.56 245.313 48.56C239.679 48.56 235.113 43.9933 235.113 38.36C235.113 32.7267 239.679 28.16 245.313 28.16C250.948 28.16 255.513 32.7267 255.513 38.36Z" fill="#610008"/>
<path d="M241.463 28.16C241.463 33.7934 236.898 38.36 231.263 38.36C225.629 38.36 221.063 33.7934 221.063 28.16C221.063 22.5267 225.629 17.9587 231.263 17.9587C236.898 17.9587 241.463 22.5267 241.463 28.16Z" fill="#610008"/>
<path d="M216.792 39.88C216.792 42.4974 214.672 44.6174 212.056 44.6174C209.44 44.6174 207.318 42.4974 207.318 39.88C207.318 37.264 209.44 35.1427 212.056 35.1427C214.672 35.1427 216.792 37.264 216.792 39.88Z" fill="#610008"/>
<path d="M224.86 65.688C224.86 73.0974 218.853 79.104 211.445 79.104C204.036 79.104 198.029 73.0974 198.029 65.688C198.029 58.2787 204.036 52.272 211.445 52.272C218.853 52.272 224.86 58.2787 224.86 65.688Z" fill="#610008"/>
<path d="M218.633 49.9667C218.633 55.3467 214.272 59.7094 208.89 59.7094C203.509 59.7094 199.146 55.3467 199.146 49.9667C199.146 44.5853 203.509 40.2227 208.89 40.2227C214.272 40.2227 218.633 44.5853 218.633 49.9667Z" fill="#610008"/>
<path d="M210.921 99.556C210.921 96.4427 213.062 92.396 212.924 90.1133C212.769 87.5547 219.461 84.9707 229.206 84.9707C238.952 84.9707 244.165 87.0027 244.981 88.668C245.646 90.0267 248.58 98.4427 249.424 100.859C250.152 102.944 227.868 104.971 227.868 104.971L210.921 99.556Z" fill="#F4BF1C"/>
<path d="M243.564 456.241C243.564 456.241 243.318 459.056 243.397 460.497C243.452 461.492 242.154 467.951 241.342 471.881C240.973 473.66 241.54 474.967 242.944 475.041C249.45 475.383 268.101 476.346 272.169 476.344C277.114 476.341 281.816 476.004 282.768 474.072C284.182 471.187 282.306 465.821 272.558 462.816C267.673 461.308 266.425 455.158 266.384 456.228L243.564 456.241Z" fill="#1F354B"/>
<path d="M207.879 457.209C207.25 462.701 213.87 465.685 213.627 470.834C213.579 471.827 213.629 473.846 213.054 474.645C211.323 477.025 207.193 477.331 203.791 477.332C198.899 477.334 193.862 476.996 190.087 475.52C183.766 473.053 187.877 462.872 188.099 457.221C188.193 454.816 207.879 457.209 207.879 457.209Z" fill="#1F354B"/>
<path d="M227.827 260.224C227.41 265.272 222.903 322.331 214.272 366.859C205.499 412.129 207.73 458.153 207.73 458.153C207.73 458.153 204.78 459.456 198.599 459.889C192.826 460.299 187.982 458.592 187.982 458.592C187.982 458.592 183.74 387.693 187.518 361.677C193.392 321.237 184.974 258.921 191.288 239.584C191.288 239.584 201.61 227.693 213.539 227.524C225.704 227.352 240.775 227.204 252.022 227.308C258.898 227.373 263.163 239.232 265.644 239.54C266.143 252.84 270.103 308.397 266.663 358.647C263.595 403.429 266.234 443.281 266.383 456.228C266.383 456.228 263.411 458.513 254.93 459.313C246.61 460.104 243.446 457.897 243.446 457.897C243.446 457.897 235.847 385.727 237.531 358.777C238.904 336.781 231.412 260.223 231.412 260.223L227.827 260.224Z" fill="#003E7C"/>
<path d="M214.38 98.0467L224.949 90.904L232.536 89.1134L240.301 97.8587L262.096 105.028C262.096 105.028 267.655 129.655 263.647 173.457C261.295 199.161 272.869 223.415 271.147 224.86C267.128 228.233 264.829 230.163 264.829 230.163L265.645 239.54C240.947 241.275 215.991 241.591 191.289 239.584L192.219 231.46C192.219 231.46 190.147 229.969 185.953 227.273C180.884 224.9 189.805 191.375 191.541 162.693C193.277 134.012 190.061 108.664 190.061 108.664L214.38 98.0467Z" fill="#F4BF1C"/>
<path d="M193.096 166.616C203.115 166.275 218.163 165.969 234.695 165.959C239.007 166.067 237.296 181.813 235.72 179.267C233.862 179.323 230.276 179.916 225.727 180.764C224.967 180.905 222.735 184.595 221.924 184.748C204.05 188.153 176.664 192.259 169.59 184.149C159.256 172.304 183.312 113.693 187.826 110.176C193.096 106.193 195.512 106.569 199.208 111.648C203.696 117.168 200.658 129.923 199.503 133.404C197.656 138.977 193.096 166.616 193.096 166.616Z" fill="#F4BF1C"/>
<path d="M263.589 166.855C253.571 166.525 233.307 161.153 216.774 161.164C215.695 161.191 201.518 164.956 201.454 166.629C203.598 166.472 208.029 167.037 212.073 169.451C217.353 172.603 222.213 177.736 222.879 176.655C231.895 176.916 278.895 194.504 282.769 188.027C286.819 181.255 282.657 166.696 281.479 159.772C279.269 146.777 276.799 133.633 273.322 120.911C270.942 112.199 263.829 98.332 254.934 110.02C250.621 115.681 254.697 130.737 256.963 133.62C259.231 136.503 263.589 166.855 263.589 166.855Z" fill="#EA9376"/>
<path d="M264.564 195.684C255.813 193.685 226.279 180.912 226.279 180.913C226.245 180.835 226.209 180.757 226.172 180.681C227.656 180.407 229.032 180.16 230.272 179.953C230.709 180.851 231.136 181.68 231.369 181.747C239.372 184.032 252.388 188.631 263.843 190.649C264.08 192.739 264.564 195.684 264.564 195.684Z" fill="#F1981C"/>
<path d="M226.171 180.681C224.561 177.389 219.345 176.484 216.962 173.455C216.29 172.6 215.533 171.852 214.723 171.199C218.425 173.841 221.549 176.801 222.589 176.801C222.719 176.801 222.817 176.755 222.879 176.655C223.793 176.681 225.098 176.885 226.707 177.225L229.571 178.533C229.787 178.951 230.031 179.463 230.271 179.953C229.031 180.16 227.655 180.407 226.171 180.681ZM212.047 169.436C207.027 166.744 201.454 166.629 201.454 166.629C201.67 166.613 201.909 166.605 202.169 166.605C204.482 166.605 208.418 167.277 212.047 169.436Z" fill="#F1981C"/>
<path d="M226.707 177.225C225.098 176.885 223.793 176.681 222.879 176.655C222.817 176.755 222.719 176.801 222.589 176.801C221.549 176.801 218.425 173.841 214.723 171.199C213.875 170.513 212.97 169.931 212.047 169.436C208.418 167.277 204.482 166.605 202.169 166.605C201.909 166.605 201.67 166.613 201.454 166.629L202.151 166.001C210.691 166.251 222.087 175.115 222.087 175.115L225.238 176.553C225.238 176.555 225.238 176.555 225.238 176.555H225.239L226.707 177.225Z" fill="#D94F22"/>
<path d="M227.458 161.764C227.458 161.764 220.561 167.416 225.238 176.555C225.238 176.555 226.622 176.96 228.958 177.632C229.406 177.76 230.854 181.6 231.369 181.747C244.618 185.531 271.603 195.653 282.507 189.916C298.035 181.747 274.823 108.684 263.373 105.536L256.834 103.297L252.697 106.636C252.697 106.636 248.462 121.125 248.347 121.473C248.231 121.82 249.17 144.604 249.17 144.604L261.326 164.255L235.258 160.305L232.15 162.109L227.458 161.764Z" fill="#F4BF1C"/>
<path d="M262.096 157.115C266.251 157.8 268.548 168.808 262.679 169.607C259.108 170.093 256.803 168.795 253.969 166.349C251.521 164.236 245.181 163.067 241.555 162.8C241.555 162.8 254.935 155.935 262.096 157.115Z" fill="#EA9376"/>
<path d="M187.585 195.684C187.588 195.587 187.604 195.488 187.629 195.389L187.585 195.684ZM187.629 195.389L188.576 189.072C188.264 191.215 187.945 193.323 187.632 195.381C187.63 195.384 187.63 195.387 187.629 195.389Z" fill="white"/>
<path d="M187.632 195.381C187.945 193.323 188.264 191.215 188.577 189.072L189.667 188.836C193.511 188.745 197.608 188.412 201.723 187.939C194.444 190.435 188.228 193.171 187.632 195.381ZM225.145 181.191C225.159 181.176 225.172 181.163 225.185 181.149L226.279 180.913C226.279 180.913 225.873 181.009 225.145 181.191Z" fill="#F1981C"/>
<path d="M189.666 188.836L225.185 181.149C225.171 181.163 225.158 181.176 225.145 181.191C221.671 182.051 210.859 184.805 201.722 187.939C197.607 188.412 193.51 188.745 189.666 188.836Z" fill="#F1981C"/>
<path d="M193.097 166.616L197.927 139.957C197.927 139.957 195.411 162.671 197.03 166.492C195.647 166.532 194.333 166.573 193.097 166.616Z" fill="#F1981C"/>
<path d="M193.097 166.616C194.333 166.573 195.647 166.532 197.03 166.492C197.03 166.492 197.03 166.492 197.03 166.493L193.097 166.616Z" fill="#F1981C"/>
<path d="M262.096 157.115C262.096 157.115 261.292 156.963 260.136 156.963C259.569 156.963 258.919 157 258.236 157.108C258.22 157.111 258.203 157.112 258.187 157.115C258.327 157.032 261.292 155.071 260.155 138.581C260.388 139.507 262.096 157.115 262.096 157.115Z" fill="#F1981C"/>
<path d="M258.181 157.117C258.181 157.117 258.183 157.116 258.186 157.115C258.202 157.112 258.219 157.111 258.235 157.108C258.217 157.111 258.199 157.115 258.181 157.117Z" fill="#D94F22"/>
<path d="M218.586 80.04C218.612 83.6267 217.846 93.4747 217.598 95.5733C217.598 95.5733 239.996 97.056 240.3 97.8586C239.996 97.056 238.886 86.2573 239.128 80.972L218.586 80.04Z" fill="#EA9376"/>
<path d="M239.006 80.9654L218.586 80.04L239.129 77.82C239.047 78.5907 239.015 79.804 239.006 80.9654Z" fill="white"/>
<path d="M229.09 90.856C224.727 90.8587 218.613 83.6267 218.613 83.6267C218.749 81.3573 218.586 80.04 218.586 80.04L239.006 80.9653C238.994 82.62 239.026 84.1653 239.026 84.1653C239.026 84.1653 233.457 90.852 229.09 90.856Z" fill="#E47E5A"/>
<path d="M253.851 59.4454C253.351 63.1814 250.459 67.9734 247.686 66.532C245.451 65.3667 243.567 63.4294 244.061 59.692C244.554 55.956 246.511 54.124 249.475 53.5227C252.678 52.8774 254.342 55.7107 253.851 59.4454Z" fill="#EA9376"/>
<path d="M252.966 54.7307C252.367 53.9894 249.162 53.5947 248.235 56.4027L248.579 53.7521C248.579 53.7521 249.605 53.268 250.838 53.4627C252.421 53.7174 252.966 54.7307 252.966 54.7307Z" fill="#F5BB86"/>
<path d="M205.645 59.4747C206.142 63.2094 209.043 67.9987 211.818 66.5533C214.051 65.3867 215.929 63.4454 215.431 59.7094C214.934 55.9734 212.977 54.144 210.007 53.548C206.809 52.9054 205.147 55.74 205.645 59.4747Z" fill="#EA9376"/>
<path d="M206.522 54.76C207.124 54.0173 210.328 53.6187 211.254 56.424L210.908 53.776C210.908 53.776 209.882 53.292 208.653 53.4893C207.065 53.744 206.522 54.76 206.522 54.76Z" fill="#F5BB86"/>
<path d="M248.58 51.6773C248.585 62.076 240.161 70.512 229.762 70.52C219.361 70.5253 210.929 62.0987 210.921 51.7C210.913 37.7387 219.337 31.0187 229.738 31.0133C240.137 31.0067 248.572 38.008 248.58 51.6773Z" fill="#F5BB86"/>
<path d="M248.58 51.6773C248.585 61.748 248.59 70.1786 244.754 75.656C242.445 78.9533 236.442 84.6253 232.092 86.064C231.012 86.4186 227.916 86.244 226.842 85.8626C222.522 84.3373 216.985 78.8173 214.776 75.6733C210.933 70.2013 210.929 61.772 210.921 51.7" fill="#F5BB86"/>
<path d="M240.376 60.6427C240.377 62.3533 239.349 63.744 238.075 63.7453C236.801 63.7453 235.773 62.356 235.771 60.6453C235.771 58.932 236.799 57.544 238.071 57.5427C239.344 57.5413 240.376 58.9293 240.376 60.6427Z" fill="#1F3F57"/>
<path d="M223.367 60.6547C223.368 62.364 222.338 63.756 221.063 63.756C219.791 63.7573 218.762 62.3667 218.758 60.6573C218.758 58.9427 219.788 57.5547 221.059 57.5533C222.332 57.5533 223.367 58.94 223.367 60.6547Z" fill="#1F3F57"/>
<path d="M235.01 50.404C235.01 50.404 235.512 50.3133 236.26 50.2693C237.009 50.2227 238.01 50.2453 239.006 50.3693C239.504 50.44 240 50.5067 240.457 50.6267C240.916 50.7387 241.344 50.8347 241.697 50.9747C242.406 51.2413 242.865 51.4427 242.865 51.444C243.061 51.5307 243.152 51.7613 243.064 51.9587C242.989 52.128 242.809 52.2173 242.636 52.1853L242.596 52.1773C242.596 52.1773 242.121 52.088 241.433 51.92C241.094 51.8146 240.672 51.7933 240.241 51.6893C239.81 51.5827 239.333 51.5587 238.866 51.4773C237.926 51.3467 236.974 51.2773 236.261 51.2373C235.544 51.188 235.072 51.1853 235.072 51.1853C234.854 51.1853 234.678 51.008 234.68 50.7907C234.68 50.5987 234.82 50.4387 235.004 50.4053L235.01 50.404Z" fill="#610008"/>
<path d="M223.332 51.1933C223.332 51.1933 222.86 51.196 222.144 51.2467C221.431 51.288 220.48 51.3573 219.54 51.4893C219.074 51.5706 218.596 51.5946 218.166 51.7013C217.736 51.8053 217.314 51.8293 216.976 51.9346C216.288 52.104 215.815 52.1933 215.815 52.1933L215.775 52.2C215.563 52.2413 215.359 52.1013 215.319 51.8893C215.286 51.708 215.383 51.532 215.544 51.46C215.544 51.46 216.002 51.2573 216.71 50.9893C217.063 50.8493 217.491 50.752 217.95 50.64C218.406 50.5187 218.903 50.452 219.4 50.3813C220.395 50.256 221.396 50.232 222.146 50.2773C222.892 50.3213 223.394 50.412 223.394 50.412L223.4 50.4133C223.615 50.4507 223.756 50.656 223.718 50.8693C223.684 51.06 223.519 51.1933 223.332 51.1933Z" fill="#610008"/>
<path d="M226.462 68.48C227.669 67.9094 232.01 67.8627 233.041 68.4747C234.068 69.0907 230.866 69.9107 229.752 69.912C228.637 69.912 225.5 69.0067 226.462 68.48Z" fill="#EA9376"/>
<path d="M222.033 74.636C226.242 75.692 232.8 75.5374 236.718 75.0987C237.2 75.044 237.388 75.124 236.76 75.3867C235.664 75.848 232.405 79.1027 229.476 79.104C226.545 79.1067 222.841 75.4827 221.88 74.884C221.472 74.632 221.658 74.54 222.033 74.636Z" fill="#EA9376"/>
<path d="M237.104 75.096C237.32 75.1813 235.245 76.34 234.533 76.92C233.263 77.2587 225.613 77.2334 224.117 76.6187C220.881 74.4747 221.792 74.5973 221.792 74.5973C221.792 74.5973 231.207 75.5107 237.104 75.096Z" fill="white"/>
<path d="M192.218 231.46L185.917 227.256C185.929 227.261 185.941 227.268 185.953 227.273C190.146 229.969 192.218 231.46 192.218 231.46ZM264.829 230.163C264.829 230.163 267.128 228.233 271.146 224.86L264.829 230.163Z" fill="white"/>
<path d="M229.307 235.779C217.193 235.779 192.218 231.46 192.218 231.46C192.218 231.46 190.146 229.969 185.953 227.273C185.941 227.268 185.929 227.261 185.917 227.256L185.665 227.088L185.093 226.333C185.563 226.848 209.213 227.888 231.666 227.888C250.257 227.888 268.026 227.175 271.146 224.86C267.127 228.233 264.829 230.163 264.829 230.163C264.829 230.163 242.257 235.305 230.923 235.749C230.415 235.769 229.875 235.779 229.307 235.779Z" fill="#F1981C"/>
<path d="M218.107 89.5973C217.47 90.0307 221.648 92.972 230.071 92.972C236.524 92.972 239.778 90.8773 239.411 89.8533L242.728 100.193H216.539L218.107 89.5973Z" fill="#F4BF1C"/>
<path d="M211.445 100.449C211.217 100.152 211.029 99.8533 210.921 99.556C210.921 99.556 211.096 99.9013 211.445 100.449Z" fill="#F1981C"/>
<path d="M249.378 100.731C249.375 100.724 249.374 100.717 249.371 100.709C249.394 100.687 249.418 100.663 249.44 100.639C249.44 100.639 249.419 100.671 249.378 100.731Z" fill="white"/>
<path d="M249.313 100.823L249.272 100.809C249.305 100.776 249.339 100.743 249.372 100.709C249.375 100.717 249.376 100.724 249.379 100.731C249.361 100.756 249.34 100.787 249.313 100.823ZM246.583 99.9253L245.741 99.648L243.985 92.668L246.583 99.9253ZM213.42 98.4653L215.035 92.4706L214.107 98.1653L213.42 98.4653Z" fill="#F1981C"/>
<path d="M229.751 110.083C218.569 110.083 213.056 102.981 211.445 100.449C211.733 100.827 212.116 101.2 212.585 101.565L213.42 98.4654L214.107 98.1654L213.455 102.171C214.445 102.793 215.675 103.377 217.129 103.889L218.065 100.193H218.671L218.065 104.193C219.864 104.755 221.936 105.208 224.221 105.5L224.881 100.193H225.448V105.636C226.92 105.781 228.46 105.869 230.069 105.869C231.291 105.869 232.593 105.807 233.924 105.689V100.193H234.491L235.159 105.563C237.335 105.315 239.543 104.919 241.588 104.387L240.953 100.193H241.559L242.555 104.124C244.007 103.703 245.34 103.205 246.495 102.643L245.741 99.648L246.583 99.9253L247.388 102.172C248.125 101.749 248.771 101.296 249.272 100.809L249.313 100.823C248.376 102.144 242.224 110.083 229.751 110.083Z" fill="#F1981C"/>
<path d="M241.558 100.193H240.952L240.054 94.2494L241.558 100.193ZM234.49 100.193H233.923V95.6373L234.49 100.193ZM225.447 100.193H224.88L225.447 95.6373V100.193ZM218.67 100.193H218.064L219.568 94.2494L218.67 100.193Z" fill="#F1981C"/>
<path d="M222.571 38.9533C222.571 42.8533 219.41 46.0146 215.511 46.0146C211.613 46.0146 208.451 42.8533 208.451 38.9533C208.451 35.0546 211.613 31.8933 215.511 31.8933C219.41 31.8933 222.571 35.0546 222.571 38.9533Z" fill="#610008"/>
<path d="M229.319 35.1427C229.319 37.8493 227.125 40.0427 224.419 40.0427C221.715 40.0427 219.521 37.8493 219.521 35.1427C219.521 32.4373 221.715 30.244 224.419 30.244C227.125 30.244 229.319 32.4373 229.319 35.1427Z" fill="#610008"/>
<path d="M235.77 31.0133C235.77 33.7187 233.576 35.912 230.87 35.912C228.166 35.912 225.972 33.7187 225.972 31.0133C225.972 28.308 228.166 26.1146 230.87 26.1146C233.576 26.1146 235.77 28.308 235.77 31.0133Z" fill="#610008"/>
<path d="M245.313 37.188C245.313 40.896 242.306 43.9027 238.598 43.9027C234.891 43.9027 231.885 40.896 231.885 37.188C231.885 33.48 234.891 30.4747 238.598 30.4747C242.306 30.4747 245.313 33.48 245.313 37.188Z" fill="#610008"/>
<path d="M256.019 44.6174C256.019 48.5174 252.858 51.6774 248.958 51.6774C245.061 51.6774 241.899 48.5174 241.899 44.6174C241.899 40.7174 245.061 37.556 248.958 37.556C252.858 37.556 256.019 40.7174 256.019 44.6174Z" fill="#610008"/>
<path d="M214.979 46.2C214.979 46.2 210.925 51.0707 211.254 61.188H210.83C210.83 61.188 208.945 49.0267 211.445 42.4427C213.945 35.86 214.979 46.2 214.979 46.2Z" fill="#610008"/>
<path d="M246.234 51.132C246.234 51.132 248.512 56.9266 247.933 63.592L248.58 63.7453V50.72L246.234 51.132Z" fill="#610008"/>
<path d="M248.304 61.188H247.637C247.637 63.1947 246.825 65.0067 245.51 66.3227C244.194 67.6373 242.384 68.4494 240.377 68.4494C238.369 68.4494 236.558 67.6373 235.242 66.3227C233.926 65.0067 233.116 63.1947 233.116 61.188C233.116 59.1813 233.926 57.3693 235.242 56.0533C236.558 54.7387 238.369 53.928 240.377 53.9267C242.384 53.928 244.194 54.7387 245.51 56.0533C246.825 57.3693 247.637 59.1813 247.637 61.188H248.304H248.97C248.97 56.4413 245.124 52.5947 240.377 52.5933C235.629 52.5947 231.782 56.4413 231.782 61.188C231.782 65.9347 235.629 69.7827 240.377 69.7827C245.124 69.7827 248.97 65.9347 248.97 61.188H248.304Z" fill="#1F354B"/>
<path d="M226.684 61.188H226.018C226.018 63.1947 225.207 65.0067 223.891 66.3227C222.575 67.6373 220.764 68.4494 218.758 68.4494C216.75 68.4494 214.939 67.6373 213.623 66.3227C212.308 65.0067 211.496 63.1947 211.496 61.188C211.496 59.1813 212.308 57.3693 213.623 56.0533C214.939 54.7387 216.75 53.928 218.758 53.9267C220.764 53.928 222.575 54.7387 223.891 56.0533C225.207 57.3693 226.018 59.1813 226.018 61.188H226.684H227.351C227.351 56.4413 223.504 52.5947 218.758 52.5933C214.011 52.5947 210.163 56.4413 210.163 61.188C210.163 65.9347 214.011 69.7827 218.758 69.7827C223.504 69.7827 227.351 65.9347 227.351 61.188H226.684Z" fill="#1F354B"/>
<path d="M226.979 59.7907H226.981C227.01 59.7573 227.253 59.4934 227.654 59.2494C228.057 59.004 228.606 58.78 229.287 58.78C230.014 58.7827 230.922 59.0267 232.039 59.8893L232.857 58.836C231.559 57.8254 230.333 57.444 229.287 57.4467C228.242 57.4467 227.411 57.816 226.853 58.1787C226.291 58.5414 225.989 58.8987 225.958 58.9347L226.979 59.7907Z" fill="#1F354B"/>
<path opacity="0.8" d="M394.873 489C353.962 489 320.8 482.805 320.8 475.163C320.8 467.519 353.962 461.324 394.873 461.324C435.784 461.324 468.945 467.519 468.945 475.163C468.945 482.805 435.784 489 394.873 489Z" fill="#E6E7EA"/>
<path d="M438.688 451.089C438.688 454.446 439.877 458.817 441.339 461.795C444.131 467.489 442.477 471.68 440.781 473.408C438.661 475.572 416.711 475.916 413.864 473.408C412.045 471.811 411.184 467.717 413.976 462.022C415.437 459.043 416.448 454.128 416.595 450.521C416.684 448.315 421.337 440.3 427.508 440.085C433.683 439.869 438.331 447.528 438.688 451.089Z" fill="#EB3745"/>
<path d="M416.651 431.969C416.651 431.969 417.875 445.499 417.334 451.996C417.334 451.996 420.689 443.55 427.51 443.658C434.33 443.767 437.687 452.752 437.687 452.752L439.797 431.416L416.651 431.969Z" fill="#EDEEF0"/>
<path d="M383.716 451.183C384.691 452.239 383.143 454.157 383.143 457.108C383.143 457.929 383.313 461.936 383.868 465.791C383.904 466.029 384.424 466.467 384.457 466.704C384.604 467.695 384.752 468.644 384.893 469.488C385.219 471.422 384.543 472.84 383.013 472.924C375.927 473.301 355.596 474.361 351.173 474.361C345.797 474.361 340.696 473.997 339.747 471.896C339.236 470.769 339.424 469.309 339.365 467.577C339.365 465.736 344.449 461.745 351.325 459.645C356.703 458.003 358.323 451.315 358.323 452.479C358.323 452.479 358.704 448.229 359.752 446.887C363.903 441.52 382.941 450.343 383.716 451.183Z" fill="#EB3745"/>
<path d="M384.893 469.488C385.219 471.422 384.543 472.84 383.013 472.924C375.927 473.301 355.596 474.361 351.173 474.361C345.797 474.361 340.696 473.997 339.747 471.896C339.236 470.769 339.424 469.309 339.365 467.577C339.365 466.312 341.768 464.031 345.504 462.045H345.507C348.828 463.169 348.573 467.848 348.573 467.848C350.252 468.063 368.007 467.577 375.315 467.2C382.623 466.821 383.868 466.441 383.868 465.791C383.904 466.029 384.424 466.467 384.457 466.704C384.604 467.695 384.752 468.644 384.893 469.488Z" fill="white"/>
<path d="M384.893 469.488L384.236 469.597C384.284 469.883 384.306 470.151 384.306 470.396C384.308 471.022 384.156 471.493 383.938 471.78C383.717 472.065 383.449 472.224 382.977 472.258C375.901 472.636 355.542 473.696 351.173 473.695C348.501 473.695 345.906 473.603 343.912 473.26C342.916 473.091 342.072 472.856 341.461 472.565C340.845 472.275 340.496 471.943 340.353 471.621C340.089 471.052 340.04 470.251 340.044 469.244C340.044 469.007 340.045 468.757 340.045 468.499C340.045 468.197 340.042 467.883 340.032 467.555L339.365 467.577H340.032C340.025 467.475 340.106 467.189 340.353 466.829C341.078 465.728 343.08 464.08 345.816 462.633L345.504 462.045V462.712H345.506V462.045L345.292 462.676C345.893 462.881 346.337 463.212 346.694 463.627C347.228 464.246 347.545 465.073 347.714 465.84C347.885 466.604 347.912 467.296 347.91 467.62L347.909 467.769L347.908 467.812L347.874 468.431L348.488 468.509C348.864 468.555 349.592 468.567 350.693 468.568C356.012 468.568 369.264 468.18 375.348 467.865C379.014 467.675 381.161 467.487 382.45 467.253C383.1 467.132 383.534 467.011 383.892 466.809C384.069 466.708 384.234 466.575 384.357 466.389C384.481 466.205 384.537 465.977 384.534 465.791H383.868L383.209 465.889C383.257 466.15 383.349 466.264 383.422 466.381C383.538 466.546 383.66 466.68 383.742 466.787L383.825 466.9L383.828 466.905L384.117 466.752L383.797 466.797L383.828 466.905L384.117 466.752L383.797 466.797L383.798 466.801C383.945 467.795 384.093 468.748 384.236 469.599L384.893 469.488L385.55 469.377C385.41 468.539 385.262 467.593 385.117 466.607V466.609C385.07 466.346 384.978 466.232 384.904 466.115C384.789 465.949 384.668 465.815 384.584 465.708L384.501 465.595L384.485 465.604L384.501 465.597V465.595L384.485 465.604L384.501 465.597L384.154 465.748L384.528 465.692L384.501 465.597L384.154 465.748L384.528 465.692L383.201 465.791H383.449L383.244 465.656L383.201 465.791H383.449L383.244 465.656L383.364 465.734L383.265 465.628L383.244 465.656L383.364 465.734L383.265 465.628L383.174 465.681C382.936 465.803 382.24 465.976 380.985 466.117C379.728 466.263 377.894 466.399 375.28 466.533C369.233 466.846 355.962 467.234 350.693 467.234C349.625 467.236 348.852 467.215 348.657 467.187L348.573 467.848L349.238 467.884C349.24 467.873 349.244 467.779 349.244 467.62C349.242 467.099 349.197 465.887 348.75 464.619C348.525 463.985 348.198 463.333 347.708 462.76C347.218 462.187 346.558 461.696 345.72 461.413L345.616 461.379H345.504H345.337L345.19 461.456C343.281 462.472 341.708 463.563 340.584 464.589C340.021 465.104 339.572 465.601 339.245 466.087C338.924 466.573 338.705 467.048 338.698 467.577V467.589V467.6C338.709 467.905 338.712 468.204 338.712 468.499C338.712 468.751 338.71 469 338.71 469.244C338.714 470.272 338.729 471.252 339.138 472.17C339.472 472.901 340.116 473.403 340.89 473.771C342.062 474.321 343.605 474.617 345.378 474.799C347.149 474.977 349.145 475.028 351.173 475.028C355.648 475.027 375.95 473.967 383.049 473.589C383.854 473.553 384.568 473.177 385.006 472.58C385.449 471.984 385.638 471.225 385.64 470.396C385.64 470.069 385.609 469.728 385.55 469.377L384.893 469.488Z" fill="white"/>
<path d="M360.319 432.504C360.319 432.504 360.979 436.823 359.752 446.887C359.752 446.887 363.524 441.385 366.556 453.822C373.508 454.148 382.679 453.684 382.472 451.777C382.204 449.331 381.396 437.307 381.499 432.637C381.601 427.968 360.319 432.504 360.319 432.504Z" fill="#EDEEF0"/>
<path d="M387.045 278.759C389.575 302.84 398.122 344.104 400.666 351.644C410.119 379.699 416.651 431.969 416.651 431.969C416.651 431.969 417.331 433.48 427.51 433.805C437.633 434.131 439.797 431.416 439.797 431.416C439.797 431.416 440.507 422.125 440.554 406.685C440.557 377.545 433.562 343.585 433.562 338.005C433.562 300.183 434.447 266.116 432.253 223.047C432.253 223.047 385.561 222.931 346.138 222.931C343.79 258.52 345.886 294.005 347.303 334.26C348.787 376.301 359.077 401.491 360.318 432.504C360.487 435.871 381.377 436.541 381.498 432.637C381.498 432.635 383.005 383.785 377.726 348.547L387.045 278.759Z" fill="#8ACFF2"/>
<path d="M439.96 390.707C439.725 387.305 439.432 383.921 439.1 380.599C439.296 381.113 439.485 381.616 439.68 382.127C439.816 384.973 439.905 387.872 439.96 390.707Z" fill="white"/>
<path d="M439.796 414.103C440.359 391.093 420.743 332.151 420.743 332.151C403.259 304.331 394.094 261.819 394.094 261.819V261.817C409.66 302.896 425.68 345.177 439.099 380.599C439.431 383.921 439.724 387.305 439.959 390.707C440.199 403.027 439.796 414.103 439.796 414.103Z" fill="#34ACE7"/>
<path d="M425.442 460.92C431.289 461.081 435.997 464.817 437.541 466.844C439.084 468.872 442.805 466.924 442.669 465.788C443.294 469.441 442.049 472.115 440.781 473.408C438.661 475.572 416.71 475.916 413.864 473.408C412.517 472.225 411.701 469.673 412.497 466.117C414.086 463.127 419.6 460.757 425.442 460.92Z" fill="white"/>
<path d="M425.442 460.92L425.423 461.587C428.209 461.663 430.746 462.595 432.773 463.76C434.798 464.92 436.314 466.328 437.011 467.248C437.637 468.08 438.587 468.401 439.455 468.393C440.387 468.389 441.282 468.076 441.99 467.648C442.345 467.432 442.653 467.185 442.895 466.903C443.13 466.619 443.331 466.289 443.339 465.85L443.331 465.712L442.669 465.788L442.011 465.901C442.121 466.536 442.169 467.136 442.169 467.701C442.171 470.204 441.209 472.022 440.305 472.941C440.238 473.039 439.686 473.317 438.879 473.509C436.43 474.134 431.633 474.499 426.923 474.496C424.002 474.496 421.099 474.36 418.781 474.076C417.623 473.936 416.61 473.757 415.827 473.548C415.045 473.345 414.489 473.083 414.305 472.908C413.509 472.216 412.849 470.819 412.85 468.785C412.85 468.028 412.941 467.185 413.147 466.264L412.497 466.117L413.085 466.431C413.734 465.191 415.302 463.939 417.413 463.043C419.521 462.141 422.15 461.577 424.873 461.579C425.057 461.579 425.239 461.581 425.423 461.587L425.442 460.92L425.462 460.253C425.265 460.248 425.069 460.245 424.873 460.245C421.967 460.246 419.178 460.839 416.889 461.816C414.603 462.8 412.797 464.151 411.907 465.805L411.866 465.884L411.846 465.972C411.619 466.981 411.517 467.921 411.517 468.785C411.518 471.099 412.257 472.877 413.423 473.909C413.923 474.337 414.607 474.596 415.483 474.836C418.094 475.528 422.471 475.825 426.923 475.829C430.111 475.829 433.321 475.67 435.893 475.368C437.179 475.216 438.306 475.029 439.206 474.801C440.111 474.558 440.774 474.339 441.257 473.875C442.423 472.683 443.499 470.551 443.502 467.701C443.502 467.06 443.447 466.384 443.326 465.676L442.006 465.865L442.138 465.85H442.006V465.865L442.138 465.85H442.006H442.054L442.006 465.837V465.85H442.054L442.006 465.837C442.007 465.852 441.947 465.979 441.803 466.12C441.379 466.569 440.319 467.075 439.455 467.06C438.867 467.052 438.415 466.884 438.071 466.441C437.225 465.333 435.614 463.858 433.437 462.604C431.263 461.355 428.522 460.339 425.461 460.253L425.442 460.92Z" fill="white"/>
<path d="M433.625 267.768C433.582 264.277 433.526 260.747 433.454 257.175C433.501 257.16 433.543 257.147 433.589 257.132L433.625 267.768Z" fill="white"/>
<path d="M433.625 267.836C430.025 265.368 420.408 263.772 410.588 262.811C410.235 261.765 409.879 260.712 409.527 259.668C419.952 259.377 428.824 258.603 433.455 257.175C433.527 260.747 433.583 264.277 433.625 267.768V267.836ZM345.117 264.911V255.803C350.073 257.795 372.092 259.488 393.316 259.763C393.564 260.416 393.811 261.068 394.059 261.721C391.551 261.632 389.361 261.591 387.673 261.591C377.395 261.591 345.093 261.665 345.117 264.911Z" fill="#34ACE7"/>
<path d="M317.416 32.1093L327.568 54.472C329.505 54.3227 331.401 55.4067 332.166 57.3067C333.108 59.652 331.976 62.3227 329.626 63.268C327.282 64.216 324.612 63.0787 323.668 60.7307C322.898 58.8333 323.513 56.7387 325.017 55.5013L316.969 32.232C315.112 37.312 309.644 52.596 314.252 64.0253C317.59 72.3027 325.068 78.688 325.068 78.688L327.977 77.5133L331.401 86.0093L344.128 80.8787L340.7 72.384L343.61 71.212C343.61 71.212 344.568 61.4267 341.229 53.148C336.621 41.7187 322.28 34.48 317.416 32.1093Z" fill="#C2C5CB"/>
<path d="M327.474 227.903C333.43 234.457 330.697 241.964 330.886 247.224C331.015 250.799 332.579 254.979 329.713 253.501C324.574 250.849 326.386 242.072 326.386 242.072C326.386 242.072 324.65 242.743 324.569 245.031C324.435 248.899 325.251 252.857 327.173 252.713C327.294 256.917 317.499 254.487 315.675 252.555C311.355 247.983 312.191 233.737 312.343 232.461C312.674 229.701 313.494 221.871 313.494 221.871C314.987 208.807 318.55 171.053 322.141 158.599C325.73 146.144 343.402 106.947 343.402 106.947L355.469 119.723L335.707 174.932C335.707 174.932 326.549 226.819 327.474 227.903Z" fill="#F5BB86"/>
<path d="M351.792 92.6893C345.128 97.6747 337.824 106.225 327.818 134.368C323.248 147.223 349.691 145.719 349.691 145.719" fill="#23496C"/>
<path d="M349.642 127.419C349.642 127.419 354.646 157.641 350.531 191.508C347.254 218.487 341.875 240.949 344.09 255.031C344.781 259.424 434.357 263.103 436.838 255.031C442.125 237.843 428.701 166.527 432.083 138.573L434.403 94.7307C434.403 94.7307 419.539 81.7333 393.059 81.7333C366.578 81.7333 351.793 92.6893 351.793 92.6893L349.642 127.419Z" fill="#23496C"/>
<path d="M363.78 42.5614C364.311 46.5267 367.385 51.6134 370.329 50.0801C372.703 48.8427 374.699 46.7827 374.175 42.8174C373.649 38.8481 371.571 36.904 368.419 36.2694C365.021 35.5854 363.257 38.5947 363.78 42.5614Z" fill="#EA9376"/>
<path d="M364.716 37.5546C365.35 36.7666 368.753 36.344 369.737 39.324L369.373 36.5133C369.373 36.5133 368.281 35.9973 366.976 36.2067C365.292 36.476 364.716 37.5546 364.716 37.5546Z" fill="#F5BB86"/>
<path d="M414.964 42.5614C414.439 46.5267 411.361 51.6134 408.416 50.0801C406.044 48.8427 404.047 46.7827 404.571 42.8174C405.1 38.8481 407.177 36.904 410.329 36.2694C413.725 35.5854 415.491 38.5947 414.964 42.5614Z" fill="#EA9376"/>
<path d="M414.03 37.5546C413.394 36.7666 409.992 36.344 409.008 39.324L409.373 36.5133C409.373 36.5133 410.462 35.9973 411.768 36.2067C413.453 36.476 414.03 37.5546 414.03 37.5546Z" fill="#F5BB86"/>
<path d="M402.425 61.0227C401.177 65.3627 402.9 79.9627 403.188 82.396C404.629 82.5893 410.413 83.5267 411.916 84.0667C411.212 88.436 405.25 100.129 390.829 100.129C376.409 100.129 367.7 89.5187 366.771 85.6933C369.816 84.4933 374.769 83.4867 376.649 83.212C376.651 83.2027 379.434 68.6787 377.924 61.5507L402.425 61.0227Z" fill="#F5BB86"/>
<path d="M402.045 63.584C402.045 63.584 401.853 65.1147 402.016 67.7467C402.016 67.7467 394.925 76.1454 389.86 76.1454C384.794 76.1454 378.324 68.3867 378.324 68.3867C378.324 68.3867 378.43 63.1907 378.198 61.0227L402.045 63.584Z" fill="#EA9376"/>
<path d="M369.373 34.308C369.373 45.3507 378.324 54.3027 389.364 54.3027C400.406 54.3027 409.36 45.3507 409.36 34.308C409.36 19.484 400.406 12.3547 389.364 12.3547C378.324 12.3547 369.373 19.7947 369.373 34.308Z" fill="#F5BB86"/>
<path d="M369.373 34.308C369.373 45.0027 369.373 53.9534 373.448 59.7667C375.905 63.268 382.281 69.2854 386.901 70.8107C388.048 71.1867 391.333 70.9973 392.478 70.592C397.06 68.9707 402.937 63.1053 405.282 59.7667C409.36 53.9534 409.36 45.0027 409.36 34.308" fill="#F5BB86"/>
<path d="M377.224 41.54C377.224 43.3547 378.316 44.8307 379.669 44.8307C381.02 44.8307 382.114 43.3547 382.114 41.54C382.114 39.7187 381.02 38.2454 379.669 38.2454C378.316 38.2454 377.224 39.7187 377.224 41.54Z" fill="#1F3F57"/>
<path d="M396.146 41.54C396.146 43.3547 397.242 44.8307 398.594 44.8307C399.946 44.8307 401.04 43.3547 401.04 41.54C401.04 39.7187 399.946 38.2454 398.594 38.2454C397.242 38.2454 396.146 39.7187 396.146 41.54Z" fill="#1F3F57"/>
<path d="M382.852 34.124C382.852 34.124 382.35 34.124 381.588 34.1747C380.828 34.216 379.818 34.288 378.818 34.428C378.322 34.5133 377.814 34.5413 377.355 34.6547C376.898 34.7653 376.45 34.792 376.09 34.904C375.359 35.0867 374.855 35.1854 374.855 35.1854L374.816 35.1933C374.604 35.2333 374.4 35.096 374.359 34.884C374.323 34.7014 374.422 34.524 374.586 34.452C374.586 34.452 375.071 34.24 375.824 33.9587C376.199 33.8107 376.652 33.7107 377.139 33.592C377.623 33.464 378.151 33.3947 378.678 33.3187C379.732 33.1867 380.794 33.1613 381.59 33.2053C382.382 33.2507 382.914 33.3427 382.914 33.3427L382.92 33.344C383.135 33.3814 383.278 33.5853 383.24 33.8C383.206 33.9907 383.039 34.1253 382.852 34.124Z" fill="#1F3F57"/>
<path d="M396.115 33.3427C396.115 33.3427 396.647 33.2507 397.439 33.2054C398.234 33.1614 399.297 33.1867 400.351 33.3187C400.878 33.3947 401.405 33.464 401.89 33.592C402.375 33.7107 402.83 33.8107 403.205 33.9587C403.957 34.24 404.442 34.4521 404.442 34.4521C404.641 34.5374 404.731 34.7667 404.645 34.9654C404.57 35.136 404.387 35.2267 404.213 35.1934L404.173 35.1854C404.173 35.1854 403.67 35.0867 402.939 34.904C402.579 34.792 402.13 34.7654 401.673 34.6547C401.215 34.54 400.707 34.5134 400.21 34.428C399.211 34.288 398.199 34.216 397.441 34.1747C396.678 34.124 396.177 34.124 396.177 34.124C395.959 34.1254 395.783 33.9494 395.783 33.732C395.783 33.5374 395.923 33.376 396.109 33.344L396.115 33.3427Z" fill="#1F3F57"/>
<path d="M392.866 52.136C391.585 51.5307 386.974 51.4827 385.882 52.136C384.794 52.7894 388.189 53.6587 389.375 53.6587C390.559 53.6587 393.891 52.696 392.866 52.136Z" fill="#EA9376"/>
<path d="M397.303 56.7546C393.154 58.3013 386.474 58.8813 382.449 58.8733C381.947 58.872 381.769 58.9773 382.434 59.172C383.603 59.5173 387.374 63.3227 390.349 62.9947C393.325 62.6667 396.583 57.7053 397.495 56.9893C397.879 56.6867 397.678 56.6133 397.303 56.7546Z" fill="white"/>
<path d="M389.366 20.8627C392.209 20.8627 394.6 19.656 397.602 18.912C402.966 17.5853 405.552 23.344 405.552 23.344C408.628 28.396 407.97 44.2307 408.01 45.144C408.05 46.0573 409.278 46.1773 409.306 45.144C409.306 45.144 411.401 33.132 411.198 26.712C410.926 18.2093 407.994 7.58801 397.068 9.88535C388.75 0.524014 376.51 8.92135 368.513 5.49068C368.08 5.30268 367.57 5.86932 367.729 6.36132C369.949 13.28 370.38 16.5933 368.974 25.6133C367.697 33.8147 369.41 42.792 369.41 44.8747C369.41 46.072 370.752 45.9187 370.752 44.8307C370.752 43.1453 370.254 26.54 373.409 21.8387C377.224 16.152 386.613 20.8627 389.366 20.8627Z" fill="#1F3F57"/>
<path d="M350.424 84.6467L330.234 93.3053C330.234 93.3053 469.573 460.955 471.792 466.949C474.01 472.944 480.497 469.836 478.718 464.569C476.94 459.303 350.424 84.6467 350.424 84.6467Z" fill="#EB6670"/>
<path d="M405.278 198.959C405.278 198.959 398.085 202.16 395.564 203.327C394.397 203.867 384.206 211.477 374.405 208.999C368.792 207.804 365.382 197 369.421 195.817C370.669 199.517 376.3 198.435 380.09 195.836C381.98 194.54 382.078 192.94 382.078 192.94C382.078 192.94 374.293 197.377 370.182 193.307C367.89 191.037 372.35 191.233 375.789 190.252C380.852 188.808 384.31 186.743 392.025 189.22C393.664 188.92 408.817 182.375 408.817 182.375C414.778 179.925 436.262 170.139 436.262 170.139L429.698 128.969L448.912 120.873C448.912 120.873 461.18 170.139 456.677 179.588C452.354 188.655 405.278 198.959 405.278 198.959Z" fill="#F5BB86"/>
<path d="M351.587 81.728C352.145 83.052 351.526 84.5747 350.205 85.1333L330.234 93.6587C328.912 94.2187 327.389 93.6 326.829 92.2773L325.682 89.5587C325.122 88.236 325.74 86.712 327.064 86.1547L347.034 77.6267C348.356 77.0693 349.881 77.688 350.438 79.0093L351.587 81.728Z" fill="#EB6670"/>
<path d="M330.662 94.4333L330.349 93.6107H330.35C330.421 93.7987 330.525 94.0733 330.662 94.4333Z" fill="#C2C5CB"/>
<path d="M331.047 95.4494L330.662 94.4334C330.524 94.0734 330.42 93.7987 330.35 93.6107L350.204 85.1334C350.23 85.1227 350.256 85.1107 350.282 85.0987L331.047 95.4494Z" fill="#B8565D"/>
<path d="M330.349 93.6107V93.6094L350.531 84.9653L350.282 85.0987C350.257 85.1107 350.23 85.1227 350.205 85.1333L330.35 93.6107H330.349Z" fill="#B8565D"/>
<path d="M434.403 94.7307C441.16 101.716 448.619 113.455 451.936 134.368C453.234 142.544 429.986 142.505 429.986 142.505L421.688 114.863L434.403 94.7307Z" fill="#23496C"/>
<path d="M434.564 194.536C434.456 193.408 434.346 192.273 434.238 191.147H434.24L434.565 194.535L434.564 194.536Z" fill="white"/>
<path d="M374.49 210.083L374.045 208.907C374.193 209.297 374.342 209.692 374.49 210.083ZM391.654 206.743C391.556 206.451 391.452 206.143 391.353 205.851C393.91 204.512 395.564 203.327 395.564 203.327L405.278 198.959C405.278 198.959 420.362 195.657 434.238 191.147C434.346 192.273 434.456 193.408 434.564 194.536L405.964 201.899L391.654 206.743Z" fill="#231F20"/>
<path d="M380.513 213.335C377.29 213.335 375.214 211.996 375.214 211.996L374.49 210.083C374.342 209.692 374.193 209.297 374.045 208.907C374.068 208.913 374.09 208.92 374.113 208.927C375.521 209.384 376.989 209.579 378.468 209.579C383.2 209.579 388.037 207.585 391.353 205.851C391.452 206.143 391.556 206.451 391.654 206.743C391.64 206.775 389.92 210.785 384.528 212.645C383.064 213.151 381.709 213.335 380.513 213.335Z" fill="#DD2A28"/>
<path d="M374.112 208.927C374.09 208.92 374.067 208.913 374.044 208.907L374.043 208.904C374.066 208.912 374.088 208.919 374.112 208.927ZM405.278 198.959L422.692 194.591L434.239 191.145V191.147H434.238C420.362 195.657 405.278 198.959 405.278 198.959Z" fill="#F38F2F"/>
<path d="M347.743 342.912C347.743 342.912 357.879 343.612 362.168 340.519C362.886 343.248 361.719 350.748 361.719 350.748L368.163 350.747L362.168 353.191C362.168 353.191 363.052 360.968 363.719 364.301C364.386 367.635 350.699 369.429 350.255 366.288C349.811 363.148 347.963 347.336 347.743 342.912Z" fill="#F5BB86"/>
<path d="M363.107 348.744C363.331 349.085 364.264 350.551 365.136 351.921C366.008 353.293 366.82 354.573 366.823 354.576C367.019 354.888 367.431 354.98 367.743 354.783C368.054 354.585 368.146 354.173 367.948 353.863C367.947 353.859 364.694 348.732 364.222 348.013C364.02 347.705 363.607 347.619 363.299 347.82C362.991 348.023 362.906 348.436 363.107 348.744Z" fill="#1F354B"/>
<path d="M366.106 347.709L363.439 353.957C363.295 354.296 363.452 354.688 363.791 354.832C364.128 354.977 364.52 354.82 364.666 354.481L367.332 348.232C367.476 347.893 367.319 347.501 366.98 347.357C366.642 347.213 366.25 347.371 366.106 347.709Z" fill="#1F354B"/>
<path d="M351.643 369.789L353.032 370.067C353.394 370.139 353.746 369.905 353.818 369.544C353.89 369.183 353.655 368.832 353.294 368.76L351.904 368.483C351.543 368.411 351.192 368.644 351.12 369.005C351.048 369.367 351.283 369.717 351.643 369.789Z" fill="#1F354B"/>
<path d="M356.948 370.069L358.504 369.792C358.865 369.728 359.106 369.381 359.042 369.019C358.978 368.656 358.632 368.415 358.269 368.48L356.713 368.757C356.352 368.821 356.11 369.168 356.174 369.531C356.238 369.893 356.585 370.135 356.948 370.069Z" fill="#1F354B"/>
<path d="M362.453 368.52L363.619 367.96C363.951 367.8 364.091 367.401 363.931 367.069C363.771 366.737 363.373 366.599 363.041 366.757L361.874 367.319C361.543 367.479 361.403 367.877 361.563 368.209C361.722 368.54 362.121 368.68 362.453 368.52Z" fill="#1F354B"/>
<path d="M349.227 341.989L351.227 342.045C351.595 342.056 351.902 341.767 351.913 341.399C351.923 341.031 351.633 340.724 351.265 340.713L349.265 340.657C348.897 340.647 348.59 340.937 348.579 341.305C348.57 341.673 348.859 341.98 349.227 341.989Z" fill="#1F354B"/>
<path d="M354.517 341.715L356.571 341.477C356.937 341.436 357.199 341.105 357.158 340.739C357.115 340.373 356.785 340.111 356.418 340.153L354.363 340.391C353.998 340.432 353.735 340.763 353.778 341.129C353.821 341.495 354.151 341.757 354.517 341.715Z" fill="#1F354B"/>
<path d="M359.923 340.423L361.813 339.672C362.154 339.536 362.322 339.149 362.186 338.807C362.05 338.464 361.662 338.297 361.319 338.433L359.431 339.183C359.089 339.319 358.922 339.707 359.058 340.049C359.194 340.391 359.581 340.559 359.923 340.423Z" fill="#1F354B"/>
<path opacity="0.8" d="M694.157 489C584.82 489 496.183 482.805 496.183 475.163C496.183 467.519 584.82 461.324 694.157 461.324C803.501 461.324 892.132 467.519 892.132 475.163C892.132 482.805 803.501 489 694.157 489Z" fill="#E6E7EA"/>
<path d="M612.804 219.575C612.804 218.633 592.398 135.751 639.49 100.275C687.094 64.4134 724.027 114.403 665.862 154.588C607.696 194.773 612.804 219.575 612.804 219.575Z" fill="#4BC1AB"/>
<path d="M612.735 216.728C613.263 209.147 619.211 186.817 665.861 154.588C700.305 130.791 701.399 103.559 686.677 92.7494C615.319 99.0187 612.567 199.677 612.735 216.728Z" fill="#33B598"/>
<path d="M613.44 219.357C613.436 219.308 613.428 218.909 613.428 218.289C613.421 211.121 614.349 171.095 626.804 142.236C632.569 128.864 638.983 117.973 648.22 109.775C657.459 101.579 669.541 96.032 686.777 93.4093C687.141 93.3533 687.392 93.0133 687.336 92.6493C687.281 92.2853 686.941 92.036 686.577 92.0906C669.163 94.7346 656.785 100.387 647.335 108.777C637.884 117.168 631.381 128.255 625.58 141.708C612.987 170.941 612.101 211.02 612.095 218.289C612.095 218.933 612.1 219.296 612.109 219.447C612.135 219.813 612.452 220.092 612.82 220.067C613.187 220.043 613.465 219.724 613.44 219.357Z" fill="white"/>
<path d="M638.838 175.269C628.904 176.357 622.694 179.789 618.984 182.98C615.271 186.169 614.059 189.099 614.03 189.171L614.647 189.423L615.312 189.437C615.314 189.433 615.318 189.211 615.318 188.811C615.318 187.212 615.242 182.779 614.474 178.004C613.695 173.231 612.274 168.109 609.363 165.075C609.107 164.809 608.684 164.803 608.42 165.059C608.155 165.315 608.148 165.736 608.404 166.001C610.956 168.617 612.419 173.555 613.158 178.216C613.908 182.877 613.984 187.256 613.984 188.811C613.984 189.2 613.98 189.408 613.98 189.408L613.902 193.004L615.263 189.676L615.271 189.657C615.386 189.395 616.639 186.645 620.19 183.708C623.742 180.769 629.592 177.627 638.983 176.595C639.35 176.555 639.614 176.225 639.574 175.859C639.534 175.493 639.204 175.229 638.838 175.269Z" fill="white"/>
<path d="M670.42 150.653C666.514 150.3 662.866 150.141 659.464 150.141C630.121 150.135 619.04 161.964 618.946 162.076L619.434 162.529L620.1 162.572C620.101 162.56 620.157 161.671 620.157 160.197C620.144 155.441 619.609 144.637 614.536 137.62C614.318 137.321 613.902 137.256 613.604 137.472C613.306 137.689 613.24 138.105 613.457 138.404C618.21 144.905 618.838 155.556 618.824 160.197C618.824 160.916 618.81 161.492 618.797 161.887C618.782 162.28 618.769 162.487 618.769 162.488L618.65 164.356L619.924 162.983L619.946 162.96C620.516 162.381 631.392 151.481 659.464 151.475C662.825 151.475 666.433 151.632 670.3 151.981C670.666 152.015 670.99 151.744 671.024 151.377C671.057 151.011 670.786 150.687 670.42 150.653Z" fill="white"/>
<path d="M691.627 127.712C680.26 123.255 670.083 121.732 661.495 121.732C643.122 121.733 632.039 128.692 631.971 128.733L632.326 129.299L632.991 129.341C632.992 129.329 633.052 128.408 633.052 126.94C633.051 124.948 632.943 121.951 632.42 118.848C631.894 115.745 630.967 112.535 629.255 110.1C629.043 109.799 628.627 109.727 628.326 109.939C628.026 110.151 627.954 110.567 628.166 110.868C629.692 113.027 630.603 116.076 631.104 119.069C631.61 122.063 631.719 124.997 631.719 126.94C631.719 127.656 631.704 128.237 631.69 128.639C631.675 129.04 631.66 129.255 631.66 129.255L631.576 130.557L632.682 129.863L632.795 129.793C633.998 129.076 644.592 123.064 661.495 123.065C669.926 123.065 679.928 124.559 691.14 128.953C691.483 129.088 691.87 128.919 692.004 128.576C692.139 128.233 691.97 127.847 691.627 127.712Z" fill="white"/>
<path d="M695.986 105.743C688.618 101.393 680.059 100.199 672.805 100.197C663.629 100.199 656.518 102.116 656.482 102.124L656.656 102.768L657.32 102.827C657.321 102.813 657.471 101.105 657.471 98.88C657.465 96.2653 657.285 92.9733 656.321 90.744C656.174 90.4067 655.781 90.2533 655.444 90.4013C655.106 90.548 654.953 90.9413 655.1 91.2787C655.916 93.116 656.146 96.3493 656.138 98.88C656.138 99.9627 656.102 100.924 656.065 101.612C656.028 102.3 655.992 102.708 655.992 102.709L655.909 103.66L656.83 103.412C656.83 103.412 656.932 103.384 657.137 103.333C658.58 102.977 664.937 101.529 672.805 101.531C679.917 101.529 688.248 102.716 695.308 106.891C695.625 107.079 696.033 106.973 696.221 106.656C696.408 106.339 696.304 105.931 695.986 105.743Z" fill="white"/>
<path d="M611.411 240.163C611.411 240.163 558.822 212.008 556.964 148.381C555.372 93.828 614.387 90.96 605.323 132.383C590.395 200.601 611.411 240.163 611.411 240.163Z" fill="#4BC1AB"/>
<path d="M588.612 104.061C574.106 103.559 556.075 117.899 556.964 148.381C558.822 212.008 611.411 240.163 611.411 240.163C570.646 204.544 564.192 126.057 588.612 104.061Z" fill="#33B598"/>
<path d="M588.138 103.592C588.054 103.669 573.693 118.235 573.665 149.789V149.884C573.677 178.723 586.024 217.523 610.957 240.652C611.226 240.901 611.649 240.885 611.9 240.616C612.149 240.345 612.133 239.924 611.864 239.673C587.296 216.929 574.986 178.363 574.998 149.884V149.791C575.014 134.22 578.558 122.891 582.085 115.457C583.849 111.741 585.61 108.999 586.924 107.191C587.581 106.287 588.126 105.616 588.505 105.175C588.696 104.953 588.842 104.789 588.941 104.683L589.053 104.564L589.085 104.531C589.345 104.269 589.342 103.847 589.081 103.588C588.82 103.328 588.397 103.331 588.138 103.592Z" fill="white"/>
<path d="M600.943 202.635C596.959 206.565 596.064 212.271 596.059 216.765C596.06 220.857 596.813 223.996 596.821 224.028L597.469 223.873L597.74 223.264C597.74 223.264 597.528 223.169 597.136 222.985C595.767 222.339 592.247 220.603 588.505 218.176C584.764 215.753 580.804 212.624 578.563 209.284C578.357 208.979 577.943 208.899 577.637 209.104C577.332 209.309 577.251 209.724 577.456 210.029C580.237 214.148 585.16 217.72 589.395 220.311C593.631 222.895 597.181 224.475 597.199 224.483L598.432 225.031L598.117 223.717L598.088 223.589C597.952 222.973 597.392 220.204 597.392 216.765C597.388 212.431 598.295 207.092 601.877 203.585C602.14 203.328 602.144 202.905 601.885 202.643C601.628 202.38 601.205 202.376 600.943 202.635Z" fill="white"/>
<path d="M600.19 164.959C590.832 169.477 586.118 176.519 583.778 182.401C581.436 188.287 581.43 193.023 581.429 193.077L582.096 193.079L582.332 192.455C582.33 192.455 582.089 192.363 581.649 192.188C580.112 191.575 576.204 189.948 572.344 187.815C570.414 186.748 568.498 185.555 566.904 184.311C565.309 183.068 564.042 181.765 563.4 180.548C563.226 180.224 562.822 180.1 562.498 180.273C562.173 180.447 562.05 180.851 562.222 181.175C563.133 182.875 564.817 184.447 566.82 185.917C572.824 190.301 581.834 193.688 581.861 193.701L582.762 194.041V193.079C582.762 193.079 582.762 193.02 582.768 192.888C582.798 191.904 583.081 187.237 585.466 181.823C587.856 176.405 592.317 170.247 600.77 166.159C601.102 165.999 601.241 165.6 601.081 165.268C600.921 164.937 600.522 164.799 600.19 164.959Z" fill="white"/>
<path d="M605.556 130.045C594.244 131.748 586.285 136.989 581.17 141.8C576.054 146.612 573.765 150.993 573.741 151.039L574.332 151.347L574.668 150.771L574.638 150.753C574.292 150.545 571.012 148.504 567.838 144.415C564.664 140.32 561.589 134.2 561.586 125.743C561.586 125.379 561.592 125.009 561.604 124.636C561.616 124.268 561.326 123.96 560.958 123.949C560.59 123.937 560.282 124.227 560.272 124.595C560.258 124.981 560.253 125.364 560.253 125.743C560.25 134.816 563.681 141.377 567.106 145.639C570.533 149.904 573.95 151.895 573.997 151.923L574.6 152.275L574.924 151.655L574.945 151.615C575.194 151.152 577.578 146.877 582.557 142.332C587.538 137.785 595.1 132.969 605.754 131.364C606.118 131.309 606.369 130.969 606.314 130.605C606.26 130.241 605.92 129.991 605.556 130.045Z" fill="white"/>
<path d="M559.057 266.303H555.724L537.245 296.727H540.578L559.057 266.303Z" fill="#23496C"/>
<path d="M621.956 474.912H617.056L649.469 303.415H659.266L621.956 474.912Z" fill="#7BA9D0"/>
<path d="M741.834 476.245H746.734L714.321 303.415H704.523L741.834 476.245Z" fill="#7BA9D0"/>
<path d="M686.085 435.008L686.084 446.864L693.341 453.057C693.341 453.057 698.919 451.26 700.537 450.54C702.156 449.821 705.755 444.033 705.755 444.033V437.941L701.976 428.953L686.085 435.008Z" fill="#EDEEF0"/>
<path d="M643.692 446.524L630.921 462.053L605.734 460.879L612.45 456.316L630.845 431.672L643.692 446.524Z" fill="#EDEEF0"/>
<path d="M800.671 176.908C798.041 152.185 776.553 140.459 751.191 154.064C721.307 170.095 741.584 218.493 741.584 218.493C741.584 218.493 738.652 203.449 740.492 198.335C740.492 198.335 743.383 214.689 751.792 223.008L770.872 207.589L800.671 176.908Z" fill="#1F354B"/>
<path d="M713.155 295.732C713.755 297.071 713.043 298.165 711.578 298.165H557.758C556.291 298.165 554.601 297.071 554.002 295.732L512.775 203.608C512.175 202.269 512.665 199.735 515.623 199.735L668.174 201.173C669.641 201.173 671.33 202.269 671.929 203.608L713.155 295.732Z" fill="#1F354B"/>
<path d="M714.706 294.293C715.305 295.632 714.594 296.727 713.128 296.727H559.309C557.842 296.727 556.152 295.632 555.552 294.293L514.325 202.168C513.726 200.831 514.436 199.735 515.902 199.735H669.724C671.19 199.735 672.88 200.831 673.48 202.168L714.706 294.293Z" fill="#23496C"/>
<path d="M705.105 289.697C705.707 291.036 704.995 292.131 703.529 292.131H564.795C563.328 292.131 561.639 291.036 561.039 289.697L523.927 206.765C523.325 205.427 524.037 204.331 525.503 204.331H664.237C665.704 204.331 667.393 205.427 667.993 206.765L705.105 289.697Z" fill="white"/>
<path d="M728.123 268.277L656.412 261.437L652.029 270.192C652.029 270.192 713.652 287.217 735.088 285.273C756.523 283.331 732.845 268.727 728.123 268.277Z" fill="#F5BB86"/>
<path d="M790.408 323.517C790.408 323.517 705.242 331.755 696.4 339.547C687.556 347.337 685.256 420.496 684.9 434.136C684.688 442.309 703.432 437.164 704.596 427.529C706.048 415.525 714.991 373.161 715.795 366.629C716.599 360.1 815.846 365.192 815.846 365.192L829.335 329.391L790.408 323.517Z" fill="#1F354B"/>
<path d="M628.736 431.673C628.736 431.673 677.454 358.417 692.323 345.959C707.195 333.497 790.408 323.519 790.408 323.519L813.748 327.043L806.494 364.288L720.071 363.54C720.071 363.54 649.72 441.3 643.692 446.524C637.664 451.748 621.595 438.62 628.736 431.673Z" fill="#1F354B"/>
<path d="M784.657 323.98C774.75 323.564 794.631 288.649 772.062 252.251C768.155 230.715 780.098 219.464 798.037 221C802.433 221.377 809.266 221.813 813.747 223.551C821.638 226.613 826.799 232.143 831.171 237.245C848.155 257.072 860.482 313.779 851.906 340.62C847.529 354.328 826.915 360.8 813.013 353.22C811.887 335.231 794.739 322.639 784.657 323.98Z" fill="#F36E22"/>
<path d="M714.245 374.629C714.245 365.601 718.661 357.339 735.953 357.628C753.242 357.915 794.778 357.621 804.576 357.621C814.374 357.621 819.85 327.659 826.478 297.979C833.105 268.295 860.47 272.339 867.686 295.96C874.641 318.725 865.772 343.637 860.033 356.763V365.601C860.033 365.601 809.482 365.407 798.238 365.407C785.173 365.407 786.844 374.629 786.844 374.629H714.245Z" fill="#9AC1E6"/>
<path d="M719.045 374.629C719.045 374.629 718.088 362.784 729.229 362.784C740.372 362.784 799.582 362.784 799.582 362.784L798.428 365.601C798.428 365.601 786.124 364.415 786.844 374.629H719.045Z" fill="#7BA9D0"/>
<path d="M719.145 476.246H714.245L729.229 362.784H739.026L719.145 476.246Z" fill="#9AC1E6"/>
<path d="M829.975 476.246H834.874L819.89 362.784H810.091L829.975 476.246Z" fill="#9AC1E6"/>
<path d="M758.914 476.246H754.014L768.996 362.784H778.795L758.914 476.246Z" fill="#7BA9D0"/>
<path d="M869.741 476.246H874.641L859.657 362.784H849.858L869.741 476.246Z" fill="#7BA9D0"/>
<path d="M860.034 365.601H729.229V361.48H860.034V365.601Z" fill="#9AC1E6"/>
<path d="M812.646 357.436C812.646 357.436 822.038 353.564 832.429 342.727C845.04 329.571 870.235 327.273 864.592 345.039L860.033 356.763L812.646 357.436Z" fill="#7BA9D0"/>
<path d="M505.358 303.693C508.402 303.693 747.898 303.693 752.372 303.693C756.846 303.693 756.564 296.727 752.372 296.727C748.179 296.727 508.535 296.727 505.358 296.727C502.18 296.727 502.314 303.693 505.358 303.693Z" fill="#7BA9D0"/>
<path d="M776.478 228.204C767.836 242.076 746.12 261.019 725.977 261.019C722.817 261.019 721.077 262.316 720.294 266.128C718.253 264.688 711.924 265.572 710.329 266.58C707.68 268.256 710.67 282.343 712.7 283.983C715.43 286.192 722.66 287.532 725.182 286.541C728.165 289.397 732.516 289.787 738.166 289.785C758.922 289.78 785.317 280.852 801.998 265.48L776.478 228.204Z" fill="#F36E22"/>
<path d="M792.273 188.637C791.389 197.159 798.897 216.281 800.868 218.647C802.84 221.012 799.75 226.825 791.604 224.361C781.948 221.441 776.478 228.204 776.478 228.204C776.478 228.204 776.206 217.863 771.873 210.783L792.273 188.637Z" fill="#F5BB86"/>
<path d="M773.196 213.296L781.948 200.383C781.948 200.383 786.988 209.605 775.71 221.651L773.196 213.296Z" fill="#EA9376"/>
<path d="M747.565 183.747C751.015 196.617 764.247 204.253 777.12 200.803C789.991 197.353 797.629 184.121 794.177 171.248C790.727 158.379 777.495 150.741 764.623 154.192C751.752 157.644 744.115 170.873 747.565 183.747Z" fill="#F5BB86"/>
<path d="M747.565 183.747C750.313 197.612 760.728 218.373 768.128 215.985C774.239 214.015 783.631 205.212 783.968 196.923C784.305 188.631 788.691 178.484 788.691 178.484" fill="#F5BB86"/>
<path d="M751.611 192.812C751.611 192.812 751 204.635 752.176 205.483C753.349 206.332 758.056 204.811 758.056 204.811" fill="#F5BB86"/>
<path d="M755.647 192.945C756.196 194.499 757.467 195.469 758.485 195.108C759.505 194.747 759.885 193.192 759.333 191.639C758.785 190.084 757.511 189.115 756.492 189.476C755.473 189.837 755.096 191.389 755.647 192.945Z" fill="#231F20"/>
<path d="M753.02 184.621C753.031 184.621 753.086 184.511 753.298 184.323C753.503 184.127 753.8 183.879 754.186 183.633C754.372 183.495 754.598 183.393 754.838 183.284C755.082 183.187 755.326 183.032 755.608 182.969C755.891 182.9 756.183 182.829 756.48 182.757C756.778 182.673 757.091 182.68 757.402 182.669C757.712 182.672 758.024 182.673 758.331 182.675C758.634 182.701 758.923 182.797 759.204 182.859C759.486 182.925 759.755 183 760.006 183.076C760.263 183.133 760.464 183.295 760.666 183.395C761.456 183.848 761.924 184.197 761.924 184.197C762.166 184.379 762.215 184.72 762.036 184.963C761.91 185.132 761.704 185.207 761.51 185.176L761.392 185.156C761.392 185.156 760.847 185.067 760.118 184.863C759.93 184.827 759.747 184.72 759.531 184.712C759.318 184.692 759.096 184.668 758.871 184.632C758.643 184.604 758.412 184.552 758.176 184.528C757.938 184.533 757.699 184.545 757.458 184.54C757.218 184.533 756.975 184.508 756.743 184.569C756.504 184.599 756.271 184.628 756.046 184.656C755.819 184.681 755.608 184.759 755.4 184.803C755.196 184.859 754.987 184.881 754.818 184.955C754.456 185.075 754.15 185.157 753.963 185.247C753.763 185.312 753.616 185.395 753.622 185.387C753.383 185.516 753.087 185.427 752.959 185.188C752.875 185.032 752.884 184.852 752.968 184.709L753.02 184.621Z" fill="#231F20"/>
<path d="M746.734 170.357C752.842 175.876 768.669 182.973 778.493 178.768C788.32 174.563 785.744 194.009 778.232 214.311C778.232 214.311 801.458 204.652 801.444 180.409C801.432 160.684 788.69 155.641 788.69 155.641L770.872 150.648L754.418 155.904L747.565 163.525L746.734 170.357Z" fill="#1F354B"/>
<path d="M785.542 182.073C786.343 185.888 784.69 190.136 781.628 191.179C779.007 192.069 780.883 188.912 780.079 185.097C779.276 181.281 776.034 179.515 778.907 177.871C782.004 176.099 784.736 178.259 785.542 182.073Z" fill="#EA9376"/>
<path d="M773.875 179.328C776.046 179.992 775.75 192.803 774.568 199.109C774.568 199.109 779.199 191.615 777.523 178.165L773.875 179.328Z" fill="#1F354B"/>
<path d="M772.833 179.467C773.958 179.811 773.806 186.441 773.192 189.708C773.192 189.708 775.59 185.828 774.722 178.865L772.833 179.467Z" fill="#1F354B"/>
<path d="M634.998 460.877C637.479 467.592 635.643 475.639 635.643 475.639H581.898C581.898 475.639 579.312 471.524 582.102 467.516C586.014 461.897 595.782 460.877 595.782 460.877L617.79 446.113C617.79 446.113 620.023 447.905 619.048 453.117C618.212 457.607 623.483 459.392 626.364 458.753C631.76 457.553 633.876 457.839 634.998 460.877Z" fill="#1F354B"/>
<path d="M703.987 435.008C703.987 435.008 710.792 445.324 709.711 450.18C708.631 455.037 690.196 475.782 687.765 476.743C685.336 477.704 671.664 478.873 671.215 474.285C671.035 472.434 671.133 471.092 671.133 471.092C671.133 471.092 671.021 465.997 678.291 462.053C683.928 458.996 684.767 443.884 684.767 443.884C685.248 440.647 689.864 442.713 693.041 446.115C697.12 450.481 707.073 442.807 703.987 435.008Z" fill="#1F354B"/>
<path d="M580.947 470.221C580.367 473.184 581.897 475.639 581.897 475.639H635.643C635.643 475.639 636.156 473.358 636.269 470.221H580.947Z" fill="white"/>
<path d="M580.947 470.221L580.293 470.093C580.191 470.611 580.149 471.113 580.149 471.592C580.156 474.115 581.301 475.934 581.332 475.992L581.528 476.305H636.175L636.292 475.785C636.299 475.758 636.82 473.443 636.936 470.245L636.961 469.555H580.399L580.293 470.093L580.947 470.221V470.888H636.269V470.221L635.604 470.197C635.548 471.736 635.393 473.067 635.255 474.009C635.184 474.48 635.117 474.855 635.069 475.109C635.021 475.364 634.992 475.492 634.992 475.492L635.643 475.639V474.972H581.897V475.639L582.463 475.285L582.457 475.276C582.369 475.134 581.476 473.563 581.483 471.592C581.483 471.193 581.517 470.777 581.601 470.351L580.947 470.221V470.888V470.221Z" fill="white"/>
<path d="M671.215 474.285C671.664 478.873 685.336 477.704 687.766 476.743C690.196 475.782 708.631 455.037 709.711 450.18C710.022 448.789 709.674 446.951 709.036 445.036C709.003 445.075 691.123 468.269 688.402 470.803C684.735 474.217 671.902 474.553 671.107 471.922C671.107 471.922 671.035 472.434 671.215 474.285Z" fill="white"/>
<path d="M671.215 474.285L670.552 474.351C670.63 475.187 671.075 475.896 671.692 476.407C672.623 477.177 673.924 477.617 675.4 477.903C676.876 478.183 678.534 478.291 680.163 478.291C681.854 478.291 683.512 478.173 684.892 478.003C686.28 477.828 687.359 477.616 688.011 477.363C688.279 477.253 688.511 477.092 688.807 476.869C689.884 476.04 691.652 474.303 693.775 472.046C696.951 468.668 700.875 464.161 704.11 460.057C705.728 458.004 707.174 456.053 708.271 454.387C709.368 452.709 710.12 451.364 710.362 450.325C710.454 449.916 710.492 449.485 710.494 449.041C710.491 447.736 710.156 446.295 709.668 444.825L709.29 443.689L708.523 444.609L708.506 444.632C708.35 444.832 703.87 450.64 699.09 456.715C696.7 459.752 694.236 462.855 692.204 465.352C691.188 466.6 690.279 467.697 689.544 468.557C688.812 469.413 688.24 470.044 687.947 470.315C687.078 471.136 685.412 471.845 683.474 472.301C681.535 472.763 679.324 472.996 677.335 472.996C675.776 472.996 674.348 472.851 673.32 472.581C672.807 472.448 672.395 472.281 672.13 472.116C671.858 471.948 671.763 471.8 671.746 471.729L670.874 468.844L670.447 471.828C670.442 471.869 670.426 472.001 670.426 472.301C670.426 472.675 670.45 473.309 670.552 474.351L671.215 474.285L671.879 474.221C671.78 473.212 671.759 472.617 671.759 472.301C671.759 472.175 671.763 472.093 671.766 472.048L671.768 472.008L671.566 471.988L671.767 472.017L671.768 472.008L671.566 471.988L671.767 472.017L671.107 471.922L670.47 472.115C670.626 472.622 670.998 472.981 671.426 473.248C672.078 473.65 672.93 473.899 673.938 474.073C674.944 474.245 676.104 474.328 677.335 474.329C679.427 474.328 681.722 474.088 683.783 473.599C685.843 473.101 687.671 472.383 688.856 471.291C689.242 470.931 689.816 470.289 690.575 469.403C693.215 466.315 697.947 460.341 702.034 455.125C704.075 452.517 705.955 450.101 707.324 448.334C708.01 447.452 708.567 446.731 708.955 446.231C709.148 445.98 709.3 445.784 709.403 445.651L709.522 445.497L709.551 445.458L709.559 445.45V445.448L709.075 445.068L709.548 445.463L709.559 445.448L709.075 445.068L709.548 445.463L709.036 445.036L708.403 445.246C708.867 446.636 709.162 447.968 709.159 449.041C709.16 449.407 709.127 449.74 709.06 450.036C708.962 450.504 708.582 451.336 707.984 452.338C705.894 455.873 701.231 461.684 696.851 466.669C694.66 469.164 692.536 471.46 690.835 473.177C689.986 474.034 689.24 474.748 688.654 475.264C688.362 475.521 688.107 475.729 687.907 475.877C687.71 476.025 687.551 476.113 687.522 476.122C687.11 476.291 686.046 476.52 684.728 476.68C683.404 476.844 681.792 476.957 680.163 476.957C678.072 476.958 675.944 476.765 674.38 476.284C673.599 476.046 672.964 475.734 672.548 475.384C672.131 475.027 671.927 474.673 671.879 474.221L671.215 474.285Z" fill="white"/>
<path d="M782.828 283.861L782.175 278.849C782.467 280.536 782.698 282.193 782.876 283.827C782.86 283.839 782.844 283.849 782.828 283.861Z" fill="white"/>
<path d="M782.876 283.827C782.698 282.193 782.467 280.536 782.175 278.849C788.2 275.855 793.872 272.289 798.856 268.208C799.09 268.023 799.302 267.848 799.49 267.684C799.518 267.66 799.547 267.636 799.574 267.613C799.264 267.996 791.534 277.541 782.876 283.827Z" fill="#F1981C"/>
<path d="M782.175 278.849V278.847C782.175 278.847 794.359 271.779 798.856 268.208C793.872 272.289 788.2 275.855 782.175 278.849ZM799.49 267.684C799.522 267.656 799.554 267.628 799.584 267.601C799.584 267.601 799.58 267.605 799.574 267.613C799.547 267.636 799.518 267.66 799.49 267.684Z" fill="#F1981C"/>
<path d="M521.04 476.245H516.14L548.552 303.415H558.35L521.04 476.245Z" fill="#9AC1E6"/>
<path d="M640.918 476.245H645.818L613.405 303.415H603.606L640.918 476.245Z" fill="#9AC1E6"/>
<path d="M656.412 261.437C652.791 261.204 650.974 260.433 649.847 259.969C647.958 259.192 648.074 253.349 646.846 249.668C646.471 248.543 637.715 245.469 637.715 245.469C637.715 245.469 628.564 246.213 628.179 246.136C627.512 246.003 627.592 248.428 631.456 249.095C635.32 249.761 638.919 250.801 639.012 252.413C639.235 256.247 637.087 255.827 637.087 255.827C637.087 255.827 634.914 248.497 633.203 248.765C631.491 249.032 632.37 249.921 632.37 252.319C632.37 254.717 632.902 256.303 632.902 256.303C632.902 256.303 634.183 263.359 640.954 266.692C643.348 267.871 652.03 270.192 652.03 270.192L656.412 261.437Z" fill="#F5BB86"/>
<path d="M623.456 247.731C623.456 247.731 623.929 247.54 624.732 247.433C625.537 247.315 626.669 247.301 628.008 247.475C630.693 247.744 634.272 248.124 637.846 248.548C641.414 249.023 644.989 249.435 647.659 249.855C650.332 250.241 652.108 250.549 652.108 250.549C652.522 250.62 652.798 251.013 652.726 251.427C652.661 251.808 652.322 252.072 651.946 252.056C651.946 252.056 650.145 251.98 647.45 251.789C644.753 251.635 641.172 251.277 637.584 250.985C634.001 250.64 630.425 250.252 627.742 249.945C626.397 249.831 625.293 249.577 624.533 249.289C623.771 249.016 623.349 248.728 623.349 248.728C623.089 248.552 623.023 248.199 623.2 247.939L623.456 247.731Z" fill="#1F3F57"/>
<path d="M632.369 252.319C632.359 251.319 631.36 248.761 632.776 248.511C634.193 248.261 636.589 250.431 636.328 253.575L632.369 252.319Z" fill="#F5BB86"/>
<path d="M505.358 303.693C508.402 303.693 657.595 303.693 662.068 303.693C666.542 303.693 666.262 296.727 662.068 296.727C657.875 296.727 508.535 296.727 505.358 296.727C502.18 296.727 502.314 303.693 505.358 303.693Z" fill="#9AC1E6"/>
<defs>
<clipPath id="clip0">
<rect width="169" height="401" fill="white" transform="translate(713 69)"/>
</clipPath>
</defs>
</svg>
