<svg width="394" height="285" viewBox="0 0 394 285" fill="none" xmlns="http://www.w3.org/2000/svg">
<g id="Group 28">
<path id="Subtract" fill-rule="evenodd" clip-rule="evenodd" d="M231.583 277.645C245.343 280.543 258.966 283.413 272.584 279.948C296.932 273.755 319.306 259.285 335.655 240.224C349.319 224.293 355.732 204.349 362.146 184.405C363.698 179.577 365.251 174.749 366.906 169.977C369.776 161.706 374.077 153.204 378.402 144.656C388.987 123.733 399.716 102.527 389.959 83.7117C380.786 66.0243 360.089 61.5439 338.954 56.9688C326.081 54.1821 313.045 51.3602 302.353 45.4973C293.771 40.7913 286.536 34.1417 279.34 27.5278C270.069 19.0069 260.863 10.5454 248.923 6.37561C227.824 -0.992581 204.592 -0.442976 182.412 3.6109C161.121 7.50217 141.305 16.8733 123.521 29.295C111.96 37.3706 103.19 48.1006 94.3441 58.9235C90.1042 64.111 85.8468 69.3199 81.2562 74.2681C75.8889 80.0535 70.1684 85.4709 64.4715 90.866C52.6776 102.035 40.9846 113.108 32.7345 127.154C30.5787 130.825 28.3175 134.531 26.0349 138.272C12.0413 161.206 -2.75868 185.461 0.955717 210.982C5.19426 240.105 28.1677 266.634 54.8677 279.229C73.2684 287.909 94.0427 284.701 114.925 281.476C124.466 280.003 134.029 278.526 143.399 278.177C152.278 277.847 160.997 276.909 169.694 275.973C181.107 274.745 192.481 273.521 204.129 273.681C213.365 273.807 222.504 275.732 231.583 277.645Z" fill="url(#paint0_radial)"/>
<g id="Group 29">
<path id="Vector" d="M276.777 236.569H122.758C117.707 236.569 112.863 234.562 109.292 230.991C105.721 227.42 103.714 222.576 103.714 217.525V146.961C103.714 145.936 103.923 144.923 104.328 143.981C104.732 143.04 105.325 142.191 106.068 141.486L187.683 64.1217C190.946 61.0286 195.271 59.3044 199.768 59.3044C204.264 59.3044 208.589 61.0286 211.852 64.1217L289.667 137.884C291.611 139.727 293.159 141.946 294.217 144.407C295.275 146.867 295.821 149.518 295.821 152.196V217.525C295.821 220.026 295.328 222.502 294.371 224.813C293.414 227.123 292.011 229.223 290.243 230.991C288.475 232.759 286.375 234.162 284.065 235.119C281.754 236.076 279.278 236.569 276.777 236.569Z" fill="#004FC5"/>
<path id="Vector_2" opacity="0.1" d="M103.714 148.12H294.22V225.07C294.22 228.119 293.008 231.044 290.852 233.201C288.695 235.357 285.77 236.569 282.721 236.569H115.214C112.164 236.569 109.239 235.357 107.082 233.201C104.926 231.044 103.714 228.119 103.714 225.07V148.12V148.12Z" fill="black"/>
<path id="Vector_3" d="M265.622 87.4861H139.206C127.746 87.0893 128.728 92.1774 128.728 97.9644V218.686C128.728 224.473 133.419 229.165 139.206 229.165H259.928C265.715 229.165 270.407 224.473 270.407 218.686V94.0932C270.407 88.3062 271.409 87.4861 265.622 87.4861Z" fill="#00B0FF"/>
<path id="Vector_4" opacity="0.1" d="M270.407 151.302V229.165H128.728V151.302L199.567 185.541L270.407 151.302Z" fill="black"/>
<g id="Vector_5" filter="url(#filter0_d)">
<path d="M199.786 189.871L109.018 146.088C108.457 145.817 107.835 145.693 107.213 145.727C106.59 145.762 105.986 145.953 105.458 146.284C104.93 146.615 104.495 147.074 104.193 147.618C103.891 148.163 103.733 148.775 103.733 149.397V224.727C103.733 226.235 103.733 233.811 103.733 235.408C104.31 236.801 103.684 235.138 104.751 236.204C105.819 237.269 104.957 235.627 106.352 236.204C107.748 236.78 113.722 236.204 115.232 236.204H284.34C285.85 236.204 288.059 236.384 289.454 235.808C290.655 236.204 294.771 236.873 295.839 235.808C295.839 234.934 295.839 234.809 295.839 229.018C295.839 227.22 295.839 226.235 295.839 224.727V150.688C295.839 149.928 295.646 149.181 295.278 148.517C294.909 147.852 294.378 147.292 293.733 146.889C293.089 146.485 292.352 146.251 291.592 146.21C290.833 146.168 290.075 146.319 289.39 146.65L199.786 189.871Z" fill="#B7E9FF"/>
</g>
<path id="Vector_6" d="M180.557 100.493H140.935V106.097H180.557V100.493Z" fill="#F2F2F2"/>
<path id="Vector_7" d="M255.398 120.905H137.733V124.107H255.398V120.905Z" fill="#F2F2F2"/>
<path id="Vector_8" d="M255.398 131.711H137.733V134.912H255.398V131.711Z" fill="#F2F2F2"/>
<path id="Vector_9" d="M255.398 142.517H137.733V145.718H255.398V142.517Z" fill="#F2F2F2"/>
<path id="Vector_10" d="M31.6743 236.369H361.457" stroke="#3F3D56" stroke-miterlimit="10"/>
<path id="Vector_11" d="M7.27905 187.086C7.27905 210.683 22.0827 229.778 40.3772 229.778Z" fill="url(#paint1_linear)"/>
<path id="Vector_12" d="M40.3771 229.778C40.3771 205.916 56.8972 186.606 77.3127 186.606Z" fill="#00B0FF"/>
<path id="Vector_13" d="M19.2711 189.225C19.2711 211.64 28.7111 229.778 40.3772 229.778Z" fill="url(#paint2_linear)"/>
<path id="Vector_14" d="M40.3771 229.778C40.3771 199.287 59.4717 174.614 83.0689 174.614Z" fill="url(#paint3_linear)"/>
<path id="Vector_15" d="M33.4142 230.079C33.4142 230.079 38.108 229.934 39.5226 228.927C40.9372 227.92 46.743 226.717 47.0939 228.332C47.4448 229.948 54.1479 236.367 48.8485 236.41C43.5492 236.453 36.5352 235.585 35.1234 234.724C33.7115 233.864 33.4142 230.079 33.4142 230.079Z" fill="url(#paint4_linear)"/>
<path id="Vector_16" opacity="0.2" d="M48.9431 235.848C43.6438 235.89 36.6298 235.022 35.2179 234.162C34.1427 233.507 33.7142 231.157 33.5709 230.073C33.4716 230.077 33.4142 230.079 33.4142 230.079C33.4142 230.079 33.7115 233.864 35.1234 234.725C36.5352 235.585 43.5492 236.453 48.8485 236.41C50.3783 236.398 50.9066 235.853 50.8776 235.047C50.6651 235.534 50.0817 235.838 48.9431 235.848Z" fill="black"/>
<path id="Vector_17" d="M295.324 57.9814C295.084 60.1244 293.449 61.8506 292.843 63.9203C291.932 67.0354 293.508 70.3782 295.664 72.8043C297.404 74.7413 299.511 76.3137 301.863 77.4304C304.215 78.5471 306.765 79.1859 309.365 79.3098C310.129 79.3769 310.899 79.293 311.631 79.0629C312.284 78.8 312.872 78.3981 313.354 77.8851C314.978 76.2546 315.85 73.9955 316.197 71.7207C316.544 69.446 316.409 67.1285 316.273 64.8314C316.274 64.3566 316.188 63.8856 316.019 63.4419C315.797 63.0191 315.493 62.6452 315.124 62.3424C313.955 61.2699 312.668 60.3345 311.286 59.5542C310.662 59.2745 310.111 58.8531 309.678 58.3236C309.417 57.87 309.248 57.3693 309.181 56.8503L308.757 54.6895C308.681 54.0668 308.469 53.4686 308.134 52.9379C307.385 51.9275 305.952 51.79 304.696 51.7407L300.091 51.56C298.659 51.5039 296.771 51.0931 295.373 51.3744C294.068 51.6371 294.501 52.8403 294.738 53.9358C295.082 55.2586 295.279 56.6154 295.324 57.9814V57.9814Z" fill="#FCBB9B"/>
<path id="Vector_18" opacity="0.1" d="M295.324 57.9814C295.084 60.1244 293.449 61.8506 292.843 63.9203C291.932 67.0354 293.508 70.3782 295.664 72.8043C297.404 74.7413 299.511 76.3137 301.863 77.4304C304.215 78.5471 306.765 79.1859 309.365 79.3098C310.129 79.3769 310.899 79.293 311.631 79.0629C312.284 78.8 312.872 78.3981 313.354 77.8851C314.978 76.2546 315.85 73.9955 316.197 71.7207C316.544 69.446 316.409 67.1285 316.273 64.8314C316.274 64.3566 316.188 63.8856 316.019 63.4419C315.797 63.0191 315.493 62.6452 315.124 62.3424C313.955 61.2699 312.668 60.3345 311.286 59.5542C310.662 59.2745 310.111 58.8531 309.678 58.3236C309.417 57.87 309.248 57.3693 309.181 56.8503L308.757 54.6895C308.681 54.0668 308.469 53.4686 308.134 52.9379C307.385 51.9275 305.952 51.79 304.696 51.7407L300.091 51.56C298.659 51.5039 296.771 51.0931 295.373 51.3744C294.068 51.6371 294.501 52.8403 294.738 53.9358C295.082 55.2586 295.279 56.6154 295.324 57.9814V57.9814Z" fill="black"/>
<path id="Vector_19" d="M324.616 154.439C323.963 161.592 323.311 168.744 322.659 175.895C322.148 181.522 321.627 187.172 320.626 192.727C320.28 194.642 319.874 196.546 319.393 198.434C318.056 203.676 316.115 208.799 315.489 214.173C315.469 214.328 315.453 214.486 315.436 214.644C315.366 215.832 315.142 217.006 314.768 218.136C314.455 218.957 313.974 219.705 313.634 220.515C312.959 222.136 312.87 223.928 312.787 225.684C310.412 224.348 307.811 223.459 305.114 223.062C303.813 222.867 302.363 222.729 301.477 221.757C300.495 220.683 300.604 219.039 300.768 217.596C301.286 213.115 301.802 208.636 302.317 204.16C302.485 202.234 302.812 200.325 303.295 198.454C303.473 197.831 303.687 197.218 303.905 196.605C304.205 195.762 304.508 194.918 304.735 194.052C305.063 192.652 305.292 191.23 305.42 189.798C305.951 185.291 306.59 180.794 307.15 176.29L307.18 176.053C308.02 169.226 308.659 162.366 308.475 155.49C308.448 154.472 308.405 153.454 308.34 152.433C308.247 150.954 308.112 150.169 309.338 149.244C310.692 148.222 312.474 147.507 314.023 146.838C314.857 146.476 324.036 143.218 324.25 143.933C324.68 145.458 324.906 147.033 324.922 148.618C324.928 150.562 324.826 152.506 324.616 154.439Z" fill="#6BBDFF"/>
<path id="Vector_20" opacity="0.1" d="M320.626 192.727C320.28 194.642 319.874 196.546 319.393 198.434C318.056 203.676 316.115 208.799 315.489 214.173C315.469 214.328 315.453 214.486 315.436 214.644C311.344 208.799 307.898 202.513 303.905 196.605C304.205 195.762 304.508 194.918 304.735 194.052C305.063 192.652 305.292 191.23 305.421 189.798C305.951 185.291 306.59 180.794 307.15 176.29L307.18 176.053C307.414 177.009 307.749 177.938 308.178 178.824C310.86 184.273 317.232 187.027 320.349 192.243C320.444 192.404 320.537 192.566 320.626 192.727Z" fill="black"/>
<path id="Vector_21" d="M287.421 144.809C287.556 149.18 288.256 153.511 288.954 157.828L290.395 166.734C291.183 171.609 292.004 176.583 294.311 180.948C296.037 184.214 298.523 187.001 300.772 189.931C306.301 197.135 310.455 205.295 315.698 212.709C317.222 214.864 319.4 217.195 322.001 216.745C323.708 216.449 324.948 215.028 326.289 213.933C327.871 212.641 329.778 211.695 331.022 210.076C332.267 208.457 332.511 205.765 330.825 204.613C330.214 204.275 329.567 204.01 328.895 203.823C326.281 202.829 324.589 200.277 323.512 197.695C322.435 195.114 321.783 192.339 320.349 189.938C317.232 184.722 310.859 181.968 308.177 176.517C306.674 173.463 306.531 169.944 306.416 166.543L306.123 157.874C306.091 156.926 306.066 155.94 306.452 155.073C307.478 152.765 310.576 152.55 313.085 152.257C315.932 151.924 318.69 151.054 321.213 149.693C322.658 148.913 324.07 147.918 324.843 146.469C325.548 145.147 325.645 143.597 325.728 142.101L326.596 126.389C326.671 125.038 326.739 123.64 326.263 122.373C325.067 119.191 321.049 118.151 317.653 118.303C311.333 118.585 305.499 121.304 299.541 123.14C298.065 123.605 296.566 123.996 295.051 124.311C293.714 124.579 292.096 124.468 290.82 124.898C288.552 125.662 288.61 130.623 288.288 132.68C287.624 136.687 287.334 140.748 287.421 144.809V144.809Z" fill="#6BBDFF"/>
<path id="Vector_22" d="M321.143 217.404C321.7 217.966 321.882 218.789 322.027 219.567C322.832 223.882 323.251 228.261 323.278 232.651C323.241 233.061 323.323 233.472 323.514 233.837C323.671 234.054 323.883 234.225 324.129 234.331C325.74 235.099 327.609 234.029 328.951 232.853C331.439 230.674 333.544 227.749 333.686 224.444C333.66 223.593 333.69 222.741 333.775 221.894C333.994 220.65 334.72 219.566 335.36 218.477C336.449 216.624 337.328 214.654 337.98 212.605C338.224 211.835 338.387 210.866 337.784 210.329C337.57 210.161 337.327 210.035 337.067 209.956L329.791 207.255C329.161 207.021 327.592 211.051 327.343 211.491C326.734 212.569 326.128 213.181 324.906 213.43C323.659 213.683 322.174 213.319 321.01 213.941C319.042 214.994 320.028 216.279 321.143 217.404Z" fill="#875238"/>
<path id="Vector_23" d="M309.917 219.89C309.781 219.621 309.593 219.383 309.363 219.188C309.026 218.975 308.643 218.845 308.246 218.809C306.861 218.574 305.219 218.419 304.263 219.448C303.367 220.413 303.521 221.986 302.771 223.069C302.534 223.412 302.213 223.695 302.007 224.057C301.752 224.612 301.637 225.221 301.672 225.83C301.633 227.509 301.595 229.191 301.711 230.866C301.808 232.27 302.045 233.741 302.922 234.841C304.332 236.607 306.873 236.861 309.129 236.975L310.956 237.068C311.46 237.129 311.97 237.082 312.454 236.931C312.753 236.792 313.022 236.595 313.244 236.351C313.465 236.107 313.636 235.821 313.745 235.51C314.696 233.146 313.19 230.599 312.262 228.226C311.196 225.498 311.387 222.469 309.917 219.89Z" fill="#875238"/>
<path id="Vector_24" d="M294.795 45.9066C294.772 45.667 294.808 45.4255 294.897 45.2022C295.165 44.729 295.864 44.8578 296.391 44.9907C298.511 45.5251 300.745 45.0413 302.927 45.1662C305.11 45.2911 307.568 46.3822 308.007 48.5239C309.592 47.4008 310.957 45.9976 312.037 44.3835C312.643 43.477 313.171 42.4387 313.088 41.3515C312.969 39.7834 311.654 38.6107 310.435 37.6163L306.804 34.6518C306.328 34.2138 305.777 33.8638 305.178 33.6181C304.34 33.3316 303.425 33.4681 302.539 33.4687C299.896 33.4704 297.077 32.2674 294.727 33.4758C293.744 33.9806 293.005 34.8457 292.293 35.6892L289.052 39.5257C288.808 39.7702 288.63 40.0724 288.534 40.4042C288.441 40.8725 288.682 41.3347 288.766 41.8045C288.919 42.6616 288.55 43.5763 288.834 44.3994C289.305 45.7658 290.964 45.9592 291.978 46.7426C292.356 47.0345 292.949 48.024 293.399 48.0119C294.212 47.9901 294.774 46.538 294.795 45.9066Z" fill="#3F3D56"/>
<path id="Vector_25" d="M300.294 57.2153C306.026 57.2153 310.672 52.5687 310.672 46.8369C310.672 41.1051 306.026 36.4585 300.294 36.4585C294.562 36.4585 289.916 41.1051 289.916 46.8369C289.916 52.5687 294.562 57.2153 300.294 57.2153Z" fill="#FCBB9B"/>
<path id="Vector_26" d="M302.725 69.5503C302.373 68.5416 301.708 67.6714 300.828 67.0658C299.948 66.4602 298.898 66.1506 297.83 66.1821C297.525 66.2389 297.209 66.199 296.927 66.0679C296.768 65.9455 296.641 65.7863 296.556 65.604C295.925 64.4692 295.418 63.2698 295.043 62.0266C294.878 61.4773 294.651 60.8297 294.096 60.6869C293.865 60.6567 293.632 60.6897 293.419 60.7823C293.206 60.8748 293.022 61.0235 292.887 61.2123C292.624 61.5925 292.335 61.955 292.024 62.2975C290.719 63.4646 288.405 62.4009 287.02 63.4716C286.793 63.6465 286.607 63.8706 286.369 64.0297C286.131 64.1729 285.875 64.2828 285.607 64.3564C282.931 65.2298 280.309 66.257 277.752 67.4328C278.674 72.9826 279.618 78.6292 281.778 83.8237C282.806 86.2958 283.971 88.7168 284.794 91.2644C286.618 96.909 286.699 102.948 286.719 108.88C286.733 112.94 286.713 117.087 285.4 120.928C285.046 121.777 284.797 122.666 284.658 123.575C284.578 124.49 284.845 125.5 285.587 126.042C286.017 126.323 286.508 126.496 287.02 126.545C289.296 126.879 291.59 126.274 293.831 125.755C299.838 124.364 305.964 123.568 312.078 122.774L322.324 121.443C323.058 121.393 323.777 121.208 324.444 120.896C326.319 119.869 326.497 117.049 325.332 115.256C324.774 114.397 323.987 113.692 323.518 112.781C323.049 111.87 323.009 110.596 323.816 109.965C325.458 108.681 324.968 106.299 325.047 104.217C325.266 98.3923 325.236 92.5658 324.958 86.737C324.876 85.5304 324.856 84.3204 324.9 83.1118C325.082 81.0639 325.461 79.0381 326.03 77.0625L329.143 64.8045C328.33 63.5193 326.773 62.704 325.298 62.3338C323.822 61.9636 322.286 61.8546 320.833 61.4045C317.857 60.4822 315.208 58.1419 312.099 58.36C311.864 58.3642 311.633 58.4207 311.423 58.5253C310.722 58.9224 310.833 59.9326 310.788 60.737C310.689 62.5167 309.38 64.0042 307.934 65.0471C306.488 66.09 304.838 66.8504 303.51 68.0398C303.275 68.217 303.082 68.4447 302.946 68.706C302.81 68.9674 302.735 69.2559 302.725 69.5503V69.5503Z" fill="#007BDE"/>
<path id="Vector_27" d="M261.602 81.1773C260.914 81.6238 260.183 82.0001 259.419 82.3005C258.672 82.5229 257.965 82.8657 257.328 83.3153C257.034 83.5694 256.788 83.8736 256.601 84.2138C256.249 84.8368 256.072 85.5427 256.086 86.2578C256.101 86.9729 256.307 87.6709 256.684 88.2791C257.06 88.8873 257.593 89.3833 258.226 89.7153C258.86 90.0473 259.571 90.2032 260.285 90.1667C261.234 90.0603 262.157 89.7852 263.01 89.3544L270.33 86.1824C271.569 85.6455 272.907 85.0163 273.492 83.7996C273.561 83.6861 273.586 83.5519 273.564 83.4214C273.505 83.2834 273.398 83.1712 273.263 83.1053C271.612 82.033 270.168 80.6715 269.001 79.0862C268.7 78.6784 268.333 77.7156 267.908 77.4712C266.359 76.5789 262.842 80.3724 261.602 81.1773Z" fill="#FCBB9B"/>
<path id="Vector_28" d="M339.857 78.5745L342.555 81.6573C343.135 82.3192 343.715 82.9818 344.243 83.6852C345.54 85.4725 346.58 87.4325 347.334 89.5082C347.92 91.0475 348.407 92.6871 348.202 94.3217C348.066 95.1596 347.84 95.9804 347.527 96.7697C347.033 98.2876 346.419 99.7644 345.693 101.186C345.083 102.267 344.393 103.3 343.63 104.279C341.54 107.048 339.254 109.663 336.789 112.104C335.866 113.017 335.479 114.494 335.077 115.729C334.337 118.006 332.574 119.779 330.869 121.461C330.321 122.04 329.716 122.561 329.062 123.016C328.083 123.647 326.939 123.973 325.774 123.953C325.264 123.956 324.76 123.852 324.293 123.646C323.127 123.092 322.534 121.743 322.412 120.458C322.304 119.291 322.499 118.116 322.98 117.047C324.528 113.617 328.505 112.13 331.316 109.627C332.964 108.16 334.225 106.316 335.468 104.492C336.312 103.354 337.017 102.118 337.568 100.812C338.196 99.1365 337.951 97.1536 338.5 95.4509C338.732 94.7311 339.144 94.0813 339.393 93.3674C339.642 92.6535 339.705 91.8061 339.269 91.1884C338.94 90.7958 338.521 90.4888 338.047 90.2938C336.251 89.3824 334.24 88.2095 333.897 86.2252C333.76 85.1248 334.047 84.0136 334.701 83.1178C335.352 82.2339 336.113 81.4364 336.965 80.7445C337.75 80.0501 339.071 79.2689 339.857 78.5745Z" fill="#FCBB9B"/>
<path id="Vector_29" d="M259.87 85.4807C259.393 84.5181 258.797 83.536 257.836 83.0574C257.37 82.855 256.867 82.7495 256.359 82.7473C255.851 82.7452 255.347 82.8465 254.879 83.045C253.947 83.447 253.074 83.9748 252.285 84.6138L249.959 86.3286C249.431 86.6745 248.965 87.1053 248.578 87.6034C248.211 88.2076 247.966 88.8781 247.858 89.5768C247.453 91.1702 247.329 92.8222 247.493 94.4582C247.862 97.0814 249.443 99.3715 251.184 101.368C252.272 102.616 253.615 103.875 255.269 103.928C255.983 103.951 256.778 103.67 257.075 103.02C257.178 102.762 257.232 102.488 257.236 102.211C257.415 99.2847 256.368 96.4268 255.147 93.7616C254.758 93.0637 254.528 92.2884 254.474 91.4912C254.465 91.3571 254.5 91.2237 254.574 91.111C254.679 91.0014 254.819 90.9327 254.971 90.9171C256.641 90.5866 259.519 91.8844 260.691 90.0293C261.45 88.8266 260.409 86.5713 259.87 85.4807Z" fill="#FCBB9B"/>
<path id="Vector_30" d="M294.25 42.6407C294.228 42.4011 294.263 42.1596 294.353 41.9363C294.621 41.4631 295.32 41.5919 295.847 41.7248C297.967 42.2593 300.2 41.7755 302.383 41.9003C304.566 42.0252 307.024 43.1163 307.463 45.258C309.047 44.1349 310.413 42.7317 311.493 41.1176C312.098 40.2111 312.626 39.1728 312.544 38.0856C312.425 36.5176 311.109 35.3449 309.891 34.3504L306.26 31.386C305.783 30.9479 305.233 30.598 304.634 30.3523C303.795 30.0657 302.881 30.2022 301.995 30.2028C299.352 30.2045 296.533 29.0015 294.182 30.21C293.2 30.7148 292.461 31.5798 291.749 32.4233L288.508 36.2598C288.264 36.5043 288.085 36.8065 287.989 37.1384C287.897 37.6066 288.138 38.0688 288.222 38.5387C288.375 39.3957 288.006 40.3104 288.289 41.1335C288.761 42.4999 290.42 42.6933 291.434 43.4767C291.812 43.7687 292.404 44.7581 292.855 44.746C293.667 44.7242 294.229 43.2721 294.25 42.6407Z" fill="#3F3D56"/>
<path id="Vector_31" d="M272.208 71.0825C271.789 71.3528 271.421 71.6952 271.121 72.0938C270.741 72.6691 270.663 73.3954 270.337 74.0028C269.637 75.3026 268.001 75.7649 266.981 76.8312C266.819 76.9779 266.706 77.1712 266.658 77.3845C266.653 77.6739 266.75 77.9558 266.932 78.1808L271.854 85.9177C273.492 86.062 275.064 85.0354 276.704 85.1717C277.316 85.2226 277.942 85.434 278.529 85.2531C278.949 85.0668 279.343 84.8259 279.7 84.5367C280.678 83.9183 281.981 83.8463 282.801 83.0304C283.589 82.2474 283.689 81.0224 283.68 79.9119C283.693 78.9476 283.595 77.985 283.387 77.0432C282.663 74.0735 280.392 71.7945 278.968 69.1639C278.274 67.8832 277.897 67.1334 276.43 68.0128C274.955 68.8967 273.596 70.0675 272.208 71.0825Z" fill="#007BDE"/>
<path id="Vector_32" d="M331.977 67.1697C332.902 67.7703 333.736 68.5007 334.453 69.3384C335.203 70.3051 335.628 71.4882 336.348 72.4771C337.046 73.4357 337.996 74.1781 338.788 75.0608C339.989 76.3994 340.802 78.0325 341.601 79.6437C339.65 82.1881 337.523 84.5923 335.235 86.8385C334.98 87.1386 334.645 87.3592 334.268 87.474C334.012 87.5012 333.753 87.4645 333.515 87.3673C333.276 87.2701 333.066 87.1153 332.902 86.9169C332.547 86.545 332.296 86.0866 331.957 85.7004C331.157 84.8754 330.092 84.36 328.948 84.2452C327.815 84.1357 326.675 84.12 325.539 84.1983C325.29 84.2261 325.038 84.1837 324.811 84.0759C324.643 83.9597 324.506 83.803 324.414 83.6203C323.082 81.3529 323.51 78.5062 323.98 75.9187L325.059 69.9812C325.215 68.8473 325.517 67.7382 325.957 66.6813C326.365 65.8081 327.279 64.3274 328.402 64.5888C329.535 64.8523 331.025 66.4845 331.977 67.1697Z" fill="#007BDE"/>
<path id="Vector_33" d="M134.531 106.156C143.594 106.156 150.94 98.7962 150.94 89.7173C150.94 80.6383 143.594 73.2783 134.531 73.2783C125.469 73.2783 118.122 80.6383 118.122 89.7173C118.122 98.7962 125.469 106.156 134.531 106.156Z" fill="white"/>
<path id="Vector_34" d="M134.55 70.0798C130.671 70.0798 126.879 71.23 123.654 73.3849C120.429 75.5397 117.916 78.6025 116.432 82.186C114.947 85.7694 114.559 89.7125 115.316 93.5166C116.072 97.3208 117.94 100.815 120.683 103.558C123.425 106.3 126.92 108.168 130.724 108.925C134.528 109.681 138.471 109.293 142.054 107.809C145.638 106.325 148.701 103.811 150.856 100.586C153.01 97.361 154.161 93.5694 154.161 89.6907C154.145 84.4943 152.074 79.515 148.4 75.8405C144.725 72.1661 139.746 70.095 134.55 70.0798V70.0798ZM130.524 100.147L120.473 90.0961L123.292 87.2771L130.533 94.518L145.817 79.2347L148.636 82.0538L130.524 100.147L130.524 100.147Z" fill="#73FBC8"/>
</g>
</g>
<defs>
<filter id="filter0_d" x="99.7326" y="145.722" width="200.107" height="98.8504" filterUnits="userSpaceOnUse" color-interpolation-filters="sRGB">
<feFlood flood-opacity="0" result="BackgroundImageFix"/>
<feColorMatrix in="SourceAlpha" type="matrix" values="0 0 0 0 0 0 0 0 0 0 0 0 0 0 0 0 0 0 127 0"/>
<feOffset dy="4"/>
<feGaussianBlur stdDeviation="2"/>
<feColorMatrix type="matrix" values="0 0 0 0 0 0 0 0 0 0 0 0 0 0 0 0 0 0 0.25 0"/>
<feBlend mode="normal" in2="BackgroundImageFix" result="effect1_dropShadow"/>
<feBlend mode="normal" in="SourceGraphic" in2="effect1_dropShadow" result="shape"/>
</filter>
<radialGradient id="paint0_radial" cx="0" cy="0" r="1" gradientUnits="userSpaceOnUse" gradientTransform="translate(198 157.144) rotate(-120.74) scale(148.453 202.583)">
<stop stop-color="white"/>
<stop offset="0.442708" stop-color="white"/>
<stop offset="0.848958" stop-color="#C7EBFF"/>
<stop offset="1" stop-color="#8ED6FF"/>
</radialGradient>
<linearGradient id="paint1_linear" x1="23.8281" y1="187.086" x2="23.8281" y2="229.778" gradientUnits="userSpaceOnUse">
<stop stop-color="#4486E9"/>
<stop offset="1" stop-color="#00C3DE"/>
</linearGradient>
<linearGradient id="paint2_linear" x1="23.2879" y1="189.346" x2="40.4975" y2="236.572" gradientUnits="userSpaceOnUse">
<stop stop-color="#00B0FF"/>
<stop offset="1" stop-color="#00B0FF" stop-opacity="0"/>
</linearGradient>
<linearGradient id="paint3_linear" x1="77.7181" y1="171.736" x2="61.723" y2="229.778" gradientUnits="userSpaceOnUse">
<stop stop-color="#A8FFC5"/>
<stop offset="1" stop-color="#27CBFF" stop-opacity="0.66"/>
</linearGradient>
<linearGradient id="paint4_linear" x1="42.1471" y1="227.542" x2="42.1471" y2="236.411" gradientUnits="userSpaceOnUse">
<stop stop-color="#FFBA0A"/>
<stop offset="1" stop-color="#845252"/>
</linearGradient>
</defs>
</svg>
