<svg width="524" height="570" viewBox="0 0 524 570" fill="none" xmlns="http://www.w3.org/2000/svg">
<path d="M453.5 211.673C453.5 211.673 462 211.673 468 208.5C465 198.5 449.692 173.203 434.5 150C409.916 112.157 345.507 58.4615 244.961 61.4999C144.415 65.0909 62.0998 153.591 64.0334 253.309C64.0334 251.927 64.0334 250.546 64.0334 248.889C64.0334 253.309 64.0334 257.728 64.0334 262.148C62.0998 162.707 144.415 92.5453 244.961 89.2305C345.507 85.9158 393.018 143.647 417.602 181.766C432.795 204.969 436.206 216.614 463 209.985L453.5 211.673C453.5 211.673 462 211.673 468 208.5C466 213 442.5 212 453.5 211.673Z" fill="url(#paint0_linear)"/>
<path d="M288.617 428C242.211 441.535 195.529 442.591 151.609 414.139C102.441 382.373 77.5808 331.824 77.0283 278.513C75.9234 333.758 100.508 387.069 151.609 419.94C195.805 448.391 242.211 452.535 288.617 439C298.009 436.238 279.5 441.43 303.5 434C303.5 434 315.5 427.626 309.887 439C309.887 421.626 310.163 435.934 309.887 434C307.677 424.332 298.009 425.238 288.617 428Z" fill="url(#paint1_linear)"/>
<path d="M92.3927 189.186C124.711 136.151 180.509 106.319 237.964 104.938C178.023 103.833 119.187 133.941 85.4871 189.186C47.6442 251.061 41.6146 426.461 230 469C236.5 469 257 468.71 245 467C55.5002 440 53.7212 252.442 92.3927 189.186Z" fill="url(#paint2_linear)"/>
<g clip-path="url(#clip0)">
<path d="M177.6 241C163.2 242.6 152.4 241.3 145.5 237.2C138.5 233.1 135.1 227.5 135.4 220.4C135.6 213.3 139.3 205.4 146.4 196.8C153.5 188.1 163.9 180.1 177.7 172.8C191.4 165.5 208.4 159.4 228.5 154.7C248.6 150 272 148 298.5 148.7C318.2 149.2 333.6 151.9 344.9 156.8C356.1 161.7 363.7 167.7 367.5 174.9C371.3 182.1 371.5 189.9 368.2 198.5C364.9 207.1 358.5 215.3 349.2 223.3C339.8 231.3 327.7 238.4 312.8 244.8C297.9 251.2 280.7 255.8 261.3 258.6C272.9 260.5 280.8 263 284.9 266.1C289 269.2 291.1 272.9 290.9 277.4C290.8 281.9 289.2 287 286.1 292.9C283 298.8 280.1 305.4 277.2 312.7C275.1 318.1 272.9 323.3 270.8 328.2C268.7 333.1 267 337.4 265.8 341.2C264.6 345 264.2 347.9 264.6 350.1C265 352.3 266.6 353.4 269.4 353.4C274.6 353.4 280.7 351.5 287.7 347.8C294.7 344 301.6 339.3 308.5 333.6C315.4 327.9 321.6 321.8 327.1 315.4C332.7 308.9 336.7 302.9 339.4 297.3L352.5 300.7C349.2 304.5 346 308.2 342.9 311.7C339.8 315.2 336.6 318.6 333.3 321.9C327.8 327.1 322.1 332.3 316.1 337.4C310.1 342.5 303.7 347 297.1 350.9C290.5 354.8 283.7 358 276.7 360.5C269.7 363 262.5 364.2 255.2 364.2C247.6 364.2 242.2 362.8 238.9 360C235.6 357.2 233.7 353.5 233.2 349C232.7 344.5 233.3 339.2 234.8 333.3C236.3 327.4 238.3 321.2 240.7 314.9C243.1 308.6 245.4 302.4 247.8 296.3C250.2 290.2 251.9 284.6 253 279.5C254.1 274.4 254.1 270.2 253.2 266.8C252.3 263.4 249.6 261.3 245.4 260.4C238.5 260.9 231.4 261.2 224.1 261.2H223.7C212.6 273.6 201.6 285.9 190.7 298.2C179.8 310.4 170.4 321.5 162.5 331.2C154.6 341 148.8 348.9 145.3 355.1C141.7 361.2 141.6 364.3 144.9 364.3C136.1 364.3 131.2 361.8 130.2 356.7C129.1 351.6 130.6 344.9 134.6 336.6C138.6 328.3 144.6 318.8 152.5 308.1C160.4 297.4 169 286.4 178.3 275.1C187.5 263.7 196.8 252.5 206.2 241.3C215.6 230.1 223.7 220 230.5 210.9C237.4 201.8 242.4 194.1 245.6 187.8C248.8 181.5 248.9 177.5 245.8 175.7C254.8 175.7 261.8 176.8 266.9 179C272 181.2 275.8 183.5 278.4 186C281.2 188.8 283.3 192.2 284.4 196.2C278 203.2 269.9 211.9 260.1 222.2C250.3 232.5 239.9 243.7 229 255.8C242.5 255.6 255.2 253.1 267.2 248.2C279.2 243.3 289.7 237.2 298.8 229.8C307.9 222.5 315.3 214.5 320.8 206.1C326.4 197.6 329.4 189.7 329.9 182.4C330.4 175.1 327.9 168.8 322.6 163.6C317.3 158.4 308.4 155.5 296.1 154.8C277.1 153.9 260.7 155.5 246.7 159.4C242.5 160.6 228 164.9 211.2 174.9C199 182.2 191.5 188.9 184.8 195C169.5 208.3 168.4 213.9 168.1 216.9C167.5 224.9 172.1 233.2 172.6 234.2C174.3 237.2 176.2 239.4 177.6 241Z" fill="url(#paint3_linear)"/>
</g>
<defs>
<linearGradient id="paint0_linear" x1="284.111" y1="61.3687" x2="284.111" y2="262.148" gradientUnits="userSpaceOnUse">
<stop stop-color="#53A2F6"/>
<stop offset="1" stop-color="#71F5FE" stop-opacity="0.78"/>
</linearGradient>
<linearGradient id="paint1_linear" x1="155.284" y1="365.807" x2="298.226" y2="387.346" gradientUnits="userSpaceOnUse">
<stop stop-color="#FF99F5"/>
<stop offset="0.9921" stop-color="#C471F5" stop-opacity="0"/>
</linearGradient>
<linearGradient id="paint2_linear" x1="143.2" y1="410.144" x2="207.305" y2="134.37" gradientUnits="userSpaceOnUse">
<stop stop-color="#90A8FC"/>
<stop offset="1" stop-color="#667EEA" stop-opacity="0"/>
</linearGradient>
<linearGradient id="paint3_linear" x1="162.781" y1="179.884" x2="318.929" y2="336.031" gradientUnits="userSpaceOnUse">
<stop stop-color="#AFD6FF"/>
<stop offset="0.473958" stop-color="#6EB9F7"/>
<stop offset="1" stop-color="#0088EA"/>
</linearGradient>
<clipPath id="clip0">
<rect width="241.8" height="216.5" fill="white" transform="translate(129 148)"/>
</clipPath>
</defs>
</svg>
